<svg xmlns="http://www.w3.org/2000/svg" width="64" height="64" viewBox="0 0 64 64" fill="none">
  <!-- Brain outline -->
  <path d="M32 8c-6 0-10 3-12 6-3 0-6 2-7 5s0 6 1 8c-2 2-3 5-2 8s3 5 5 6c0 3 2 6 5 8 3 2 6 2 9 1 2 3 5 4 8 4h1" stroke="#7ED957" stroke-width="2.2" stroke-linecap="round" stroke-linejoin="round" fill="none"/>
  <path d="M32 8c6 0 10 3 12 6 3 0 6 2 7 5s0 6-1 8c2 2 3 5 2 8s-3 5-5 6c0 3-2 6-5 8-3 2-6 2-9 1-2 3-5 4-8 4h-1" stroke="#7ED957" stroke-width="2.2" stroke-linecap="round" stroke-linejoin="round" fill="none"/>
  <!-- Center line -->
  <line x1="32" y1="8" x2="32" y2="56" stroke="#7ED957" stroke-width="1.5" opacity="0.4"/>
  <!-- Neural nodes -->
  <circle cx="24" cy="24" r="2.5" fill="#7ED957"/>
  <circle cx="40" cy="24" r="2.5" fill="#7ED957"/>
  <circle cx="22" cy="36" r="2.5" fill="#7ED957"/>
  <circle cx="42" cy="36" r="2.5" fill="#7ED957"/>
  <circle cx="32" cy="44" r="2.5" fill="#7ED957"/>
  <!-- Neural connections -->
  <line x1="24" y1="24" x2="40" y2="24" stroke="#7ED957" stroke-width="1" opacity="0.3"/>
  <line x1="24" y1="24" x2="22" y2="36" stroke="#7ED957" stroke-width="1" opacity="0.3"/>
  <line x1="40" y1="24" x2="42" y2="36" stroke="#7ED957" stroke-width="1" opacity="0.3"/>
  <line x1="22" y1="36" x2="32" y2="44" stroke="#7ED957" stroke-width="1" opacity="0.3"/>
  <line x1="42" y1="36" x2="32" y2="44" stroke="#7ED957" stroke-width="1" opacity="0.3"/>
</svg>