<svg width="48" height="48" viewBox="0 0 48 48" fill="none" xmlns="http://www.w3.org/2000/svg">
<path d="M40.8494 25.4049H39.0113C38.365 25.4033 37.7389 25.1788 37.2389 24.7692C36.7389 24.3596 36.3955 23.7901 36.2666 23.1567L35.3083 18.3382C24.1131 18.3382 24 12.7664 24 12.7664C24 12.7664 23.8831 18.3363 12.6916 18.3363L11.7333 23.1567C11.6041 23.7902 11.2603 24.3598 10.76 24.7694C10.2596 25.1789 9.63332 25.4034 8.98673 25.4049H7.14673" stroke="black" stroke-width="2" stroke-linecap="round" stroke-linejoin="round"/>
<path d="M21.1921 25.4605C20.8941 24.995 20.4758 24.6187 19.9815 24.3714C19.4873 24.1241 18.9353 24.015 18.3841 24.0556C17.833 24.015 17.281 24.1241 16.7868 24.3714C16.2925 24.6187 15.8742 24.995 15.5762 25.4605" stroke="black" stroke-width="2" stroke-linecap="round" stroke-linejoin="round"/>
<path d="M32.4334 25.4605C32.1354 24.995 31.7171 24.6188 31.2228 24.3714C30.7286 24.1241 30.1766 24.015 29.6254 24.0556C29.0739 24.0147 28.5216 24.1236 28.027 24.3709C27.5323 24.6183 27.1138 24.9947 26.8156 25.4605" stroke="black" stroke-width="2" stroke-linecap="round" stroke-linejoin="round"/>
<path d="M40.8839 25.173C42.2486 16.7876 42.0339 2.9397 24 2.9397C5.96611 2.9397 5.75144 16.7895 7.11611 25.173C6.11875 25.591 5.29663 26.341 4.78914 27.2959C4.28165 28.2508 4.12002 29.3518 4.33166 30.4123C4.54331 31.4728 5.11519 32.4274 5.95036 33.1144C6.78552 33.8013 7.83256 34.1783 8.91394 34.1814C9.10661 34.174 9.29864 34.1548 9.48894 34.1239C9.83997 34.5109 10.0745 34.9893 10.1655 35.5039C11.3922 42.9137 19.7834 45.0623 24 45.0623C28.2167 45.0623 36.6098 42.9137 37.8499 35.5134C37.9429 34.9996 38.1772 34.5217 38.5264 34.1334C38.7117 34.1635 38.8986 34.1821 39.0861 34.189C40.1675 34.186 41.2145 33.809 42.0497 33.122C42.8849 32.4351 43.4567 31.4804 43.6684 30.42C43.88 29.3595 43.7184 28.2585 43.2109 27.3036C42.7034 26.3486 41.8813 25.5986 40.8839 25.1807V25.173Z" stroke="black" stroke-width="2" stroke-linecap="round" stroke-linejoin="round"/>
<path d="M37.4972 29.8056C28.7354 32.3624 19.4255 32.3624 10.6638 29.8056V37.3362C12.8565 43.2625 20.1667 45.0623 24 45.0623C27.9272 45.0623 35.4827 43.1897 37.4972 36.9452V29.8056Z" stroke="black" stroke-width="2" stroke-linecap="round" stroke-linejoin="round"/>
<path d="M10.6638 29.8056L7.78882 25.9722" stroke="black" stroke-width="2" stroke-linecap="round" stroke-linejoin="round"/>
<path d="M37.4972 29.8056L40.3722 25.9722" stroke="black" stroke-width="2" stroke-linecap="round" stroke-linejoin="round"/>
</svg>
