<svg width="48" height="48" viewBox="0 0 48 48" fill="none" xmlns="http://www.w3.org/2000/svg">
<path d="M9.10292 36.7221H3.37445V7.125H27.7496V12.75H39L44.625 24V36.7221H39" stroke="black" stroke-width="3"/>
<path d="M18.375 36.7223H29.625" stroke="black" stroke-width="3"/>
<path d="M44.6249 24H27.7496V12.75" stroke="black" stroke-width="3"/>
<path d="M9.9375 20.25H21.1875" stroke="black" stroke-width="3"/>
<path d="M15.5625 14.625V25.875" stroke="black" stroke-width="3"/>
<path d="M9 36.1875C9 37.4307 9.49386 38.623 10.3729 39.5021C11.252 40.3811 12.4443 40.875 13.6875 40.875C14.9307 40.875 16.123 40.3811 17.0021 39.5021C17.8811 38.623 18.375 37.4307 18.375 36.1875C18.375 34.9443 17.8811 33.752 17.0021 32.8729C16.123 31.9939 14.9307 31.5 13.6875 31.5C12.4443 31.5 11.252 31.9939 10.3729 32.8729C9.49386 33.752 9 34.9443 9 36.1875Z" stroke="black" stroke-width="3"/>
<path d="M29.625 36.1875C29.625 37.4307 30.1189 38.623 30.9979 39.5021C31.877 40.3811 33.0693 40.875 34.3125 40.875C35.5557 40.875 36.748 40.3811 37.6271 39.5021C38.5061 38.623 39 37.4307 39 36.1875C39 34.9443 38.5061 33.752 37.6271 32.8729C36.748 31.9939 35.5557 31.5 34.3125 31.5C33.0693 31.5 31.877 31.9939 30.9979 32.8729C30.1189 33.752 29.625 34.9443 29.625 36.1875Z" stroke="black" stroke-width="3"/>
</svg>
