<svg width="48" height="48" viewBox="0 0 48 48" fill="none" xmlns="http://www.w3.org/2000/svg">
<g clip-path="url(#clip0_1210_2105)">
<path fill-rule="evenodd" clip-rule="evenodd" d="M40.96 30.38C39.6 30 38.26 29.7 36.96 29.38C37.2755 25.446 37.1615 21.4893 36.62 17.58C36.1242 14.7394 34.8106 12.1051 32.84 10C31.5717 8.82045 30.0323 7.97162 28.3579 7.5286C26.6835 7.08558 24.9257 7.06202 23.24 7.46001C19.9013 8.06424 16.907 9.88936 14.84 12.58C13.437 14.6353 12.4705 16.9564 12 19.4C11.331 22.8963 11.2634 26.481 11.8 30C10.68 30.38 9.57998 30.7 8.43998 31.16C8.2729 31.2184 8.13583 31.3407 8.05894 31.5001C7.98205 31.6595 7.97164 31.8429 8.02998 32.01C8.08833 32.1771 8.21067 32.3142 8.37007 32.3911C8.52948 32.4679 8.7129 32.4784 8.87998 32.42C12.4668 31.3427 16.1633 30.6719 19.9 30.42C21.48 30.32 23.06 30.24 24.66 30.24C26.26 30.24 27.84 30.24 29.44 30.38C33.1949 30.6065 36.9302 31.0876 40.62 31.82C40.8134 31.8623 41.0156 31.8274 41.1837 31.7228C41.3518 31.6182 41.4725 31.4522 41.52 31.26C41.5565 31.0696 41.5189 30.8724 41.4148 30.7088C41.3107 30.5452 41.148 30.4276 40.96 30.38ZM24.66 27.72C22.9823 27.7038 21.3054 27.7973 19.64 28C17.4298 28.314 15.2491 28.809 13.12 29.48C12.8958 26.809 13.0168 24.1201 13.48 21.48C13.9523 18.7688 15.0553 16.2066 16.7 14C18.4835 11.8767 20.9653 10.4586 23.7 10C24.9935 9.67385 26.3464 9.66348 27.6447 9.96979C28.9431 10.2761 30.1487 10.8901 31.16 11.76C32.8908 13.4569 34.0808 15.6281 34.58 18C35.2667 21.6175 35.5484 25.3002 35.42 28.98C33.42 28.56 31.56 28.22 29.64 28C27.9862 27.8171 26.3238 27.7236 24.66 27.72Z" fill="black"/>
<path fill-rule="evenodd" clip-rule="evenodd" d="M9.99998 15.06C10.14 14.86 10.46 14.66 8.57998 12.6C8.40745 12.3809 8.21312 12.1799 7.99998 12L7.29998 11.54C5.09998 10.22 4.73998 10.34 4.41998 10.74C4.09998 11.14 4.09998 11.44 5.77998 13.36C5.97998 13.58 6.17998 13.78 6.39998 13.98C6.62359 14.1691 6.86467 14.3365 7.11998 14.48C7.39998 14.62 9.61998 15.74 9.99998 15.06Z" fill="black"/>
<path fill-rule="evenodd" clip-rule="evenodd" d="M24.76 6C25.46 6 26 3.82 26.02 3.78C26.0393 3.55374 26.0393 3.32626 26.02 3.1C26.0408 2.87381 26.0408 2.64619 26.02 2.42C25.56 0.12 25.24 0 24.8 0C24.36 0 24.06 0.14 23.62 2.32C23.6015 2.54629 23.6015 2.77371 23.62 3C23.6007 3.22626 23.6007 3.45374 23.62 3.68C23.62 3.68 24 6 24.76 6Z" fill="black"/>
<path fill-rule="evenodd" clip-rule="evenodd" d="M43.52 9.77999C43.18 9.39999 42.92 9.35999 40.84 10.48L40.2 10.88L39.62 11.4C39.62 11.4 38 13.32 38.46 14C38.64 14.18 38.84 14.56 41.1 13.4C41.3279 13.2835 41.5425 13.1427 41.74 12.98C41.9425 12.8101 42.1361 12.6299 42.32 12.44C44 10.56 43.84 10.12 43.52 9.77999Z" fill="black"/>
<path fill-rule="evenodd" clip-rule="evenodd" d="M19.6 15.22C18.1982 16.1551 17.1988 17.5828 16.8 19.22C16.5405 20.1226 16.4324 21.062 16.48 22C16.48 23.38 16.84 24.68 16.98 25.9C16.9773 25.9884 16.9924 26.0763 17.0244 26.1587C17.0563 26.2411 17.1045 26.3163 17.1661 26.3797C17.2277 26.4431 17.3013 26.4935 17.3827 26.5279C17.4641 26.5623 17.5516 26.5801 17.64 26.58C17.8033 26.5858 17.9626 26.529 18.0853 26.4212C18.208 26.3133 18.2848 26.1627 18.3 26C18.52 24.62 18.8 23.1 18.98 21.56C19.0533 20.6665 19.1802 19.7783 19.36 18.9C19.5401 17.9959 19.9538 17.1546 20.56 16.46C20.6981 16.3181 20.7753 16.128 20.7753 15.93C20.7753 15.732 20.6981 15.5419 20.56 15.4C20.4491 15.2585 20.2906 15.1623 20.1139 15.1291C19.9373 15.096 19.7546 15.1283 19.6 15.22Z" fill="black"/>
<path fill-rule="evenodd" clip-rule="evenodd" d="M25.22 11.64C24.9809 11.6101 24.739 11.6101 24.5 11.64C24.257 11.6666 24.0203 11.7342 23.8 11.84C23.6 11.94 21.8 13.04 22.14 13.84C22.32 14.16 22.36 14.22 24.38 14.18C24.5527 14.2005 24.7272 14.2005 24.9 14.18C27.7 13.52 27.52 13.16 27.52 12.9C27.52 12.64 27.64 12 25.22 11.64Z" fill="black"/>
<path fill-rule="evenodd" clip-rule="evenodd" d="M15.68 39.78C14.6908 39.3306 13.6023 39.1445 12.52 39.24C12.026 39.332 11.5186 39.3245 11.0276 39.218C10.5365 39.1116 10.0716 38.9083 9.65999 38.62C9.49595 38.4998 9.37983 38.3254 9.33223 38.1276C9.28463 37.9299 9.30864 37.7217 9.39999 37.54C9.69226 36.898 10.1738 36.3607 10.78 36C11.3934 35.6684 12.0829 35.503 12.78 35.52C13.9615 35.5487 15.1331 35.7439 16.26 36.1C16.4271 36.1557 16.6094 36.1428 16.767 36.064C16.9245 35.9852 17.0443 35.8471 17.1 35.68C17.1557 35.5129 17.1427 35.3306 17.064 35.173C16.9852 35.0155 16.8471 34.8957 16.68 34.84C15.4566 34.3347 14.1724 33.9918 12.86 33.82C11.8818 33.7438 10.8997 33.9086 9.99999 34.3C8.71476 34.8678 7.70263 35.9158 7.17999 37.22C7.00032 37.7732 6.98203 38.3661 7.12726 38.9294C7.27249 39.4926 7.57522 40.0027 7.99999 40.4C8.55483 40.9451 9.24536 41.3318 9.99999 41.52C11.1736 41.7364 12.3674 41.8236 13.56 41.78C13.9031 41.7362 14.2515 41.7921 14.5636 41.941C14.8757 42.09 15.1383 42.3257 15.32 42.62C15.3837 42.7509 15.4167 42.8945 15.4167 43.04C15.4167 43.1856 15.3837 43.3292 15.32 43.46C15.1328 43.9315 14.8618 44.3652 14.52 44.74C13.87 45.4642 12.9693 45.9145 12 46C10.9318 46.1232 9.85137 45.9211 8.89999 45.42C8.8149 45.3704 8.72075 45.3382 8.62307 45.3254C8.52538 45.3126 8.42612 45.3195 8.33112 45.3456C8.23611 45.3716 8.14727 45.4164 8.0698 45.4773C7.99234 45.5382 7.92781 45.6139 7.87999 45.7C7.82952 45.7839 7.79619 45.877 7.78194 45.9739C7.7677 46.0707 7.77281 46.1695 7.797 46.2643C7.82118 46.3592 7.86395 46.4483 7.92283 46.5266C7.9817 46.6048 8.05552 46.6705 8.13999 46.72C9.33801 47.4638 10.7309 47.8329 12.14 47.78C13.3573 47.7521 14.5373 47.3546 15.5232 46.6401C16.5092 45.9256 17.2544 44.9281 17.66 43.78C17.8978 42.9948 17.8188 42.1477 17.44 41.42C17.0524 40.6926 16.433 40.1154 15.68 39.78Z" fill="black"/>
<path fill-rule="evenodd" clip-rule="evenodd" d="M38.12 39.78C37.1308 39.3305 36.0423 39.1445 34.96 39.24C34.4503 39.3412 33.9254 39.3385 33.4167 39.2319C32.9081 39.1254 32.4262 38.9173 32 38.62C31.8425 38.4946 31.7327 38.319 31.689 38.1224C31.6454 37.9259 31.6704 37.7203 31.76 37.54C32.0589 36.9128 32.5398 36.3901 33.14 36.04C33.7534 35.7084 34.4429 35.5429 35.14 35.56C36.3215 35.5886 37.4931 35.7839 38.62 36.14C38.7027 36.1676 38.7901 36.1786 38.8771 36.1724C38.9641 36.1662 39.049 36.143 39.127 36.104C39.205 36.065 39.2745 36.011 39.3317 35.9451C39.3888 35.8792 39.4324 35.8027 39.46 35.72C39.4876 35.6373 39.4986 35.5499 39.4924 35.4629C39.4862 35.3759 39.463 35.291 39.424 35.213C39.385 35.135 39.331 35.0654 39.2651 35.0083C39.1992 34.9512 39.1227 34.9076 39.04 34.88C37.8166 34.3747 36.5324 34.0318 35.22 33.86C34.2318 33.7645 33.2354 33.9157 32.32 34.3C31.0348 34.8677 30.0226 35.9158 29.5 37.22C29.3251 37.7769 29.3132 38.3721 29.4656 38.9356C29.6179 39.499 29.9283 40.0072 30.36 40.4C30.9148 40.945 31.6054 41.3317 32.36 41.52C33.5336 41.7364 34.7274 41.8236 35.92 41.78C36.263 41.7361 36.6115 41.792 36.9236 41.941C37.2357 42.09 37.4983 42.3257 37.68 42.62C37.7437 42.7508 37.7767 42.8945 37.7767 43.04C37.7767 43.1855 37.7437 43.3291 37.68 43.46C37.4928 43.9315 37.2218 44.3651 36.88 44.74C36.222 45.4926 35.2964 45.959 34.3 46.04C33.2383 46.1616 32.1647 45.9594 31.22 45.46C31.0439 45.364 30.8376 45.3395 30.6439 45.3917C30.4502 45.4438 30.2841 45.5686 30.18 45.74C30.085 45.9131 30.0612 46.1163 30.1134 46.3067C30.1657 46.4971 30.29 46.6596 30.46 46.76C31.658 47.5038 33.0508 47.8729 34.46 47.82C35.6773 47.7921 36.8573 47.3945 37.8432 46.6801C38.8292 45.9656 39.5744 44.9681 39.98 43.82C40.2178 43.0348 40.1388 42.1877 39.76 41.46C39.4102 40.7368 38.8345 40.1471 38.12 39.78Z" fill="black"/>
<path fill-rule="evenodd" clip-rule="evenodd" d="M18.24 41.1C18.0487 41.9937 18.0736 42.9201 18.3126 43.8022C18.5516 44.6844 18.9977 45.4967 19.6139 46.1716C20.2302 46.8465 20.9987 47.3645 21.8555 47.6825C22.7123 48.0006 23.6326 48.1094 24.54 48C25.46 47.9344 26.329 47.5529 27 46.92C27.8342 46.0734 28.4219 45.0155 28.7 43.86C29.2376 41.4333 28.9925 38.8987 28 36.62C24.9 30.7 18.76 36.36 18.24 41.1ZM26.44 43.22C26.2558 43.8107 25.9491 44.3559 25.54 44.82C25.397 45.0012 25.2187 45.1514 25.0158 45.2614C24.8129 45.3714 24.5898 45.439 24.36 45.46C21.46 45.74 20.36 43.46 20.36 41.26C20.3036 39.9932 20.7051 38.7484 21.491 37.7532C22.2768 36.758 23.3946 36.0789 24.64 35.84H24.92C25.5377 36.2211 26.0096 36.7987 26.26 37.48C26.9186 39.3275 26.9816 41.3349 26.44 43.22Z" fill="black"/>
</g>
<defs>
<clipPath id="clip0_1210_2105">
<rect width="48" height="48" fill="white"/>
</clipPath>
</defs>
</svg>
