<svg width="48" height="48" viewBox="0 0 48 48" fill="none" xmlns="http://www.w3.org/2000/svg">
<g clip-path="url(#clip0_1209_7146)">
<path d="M47.0023 8.0004C47.0023 7.73517 46.897 7.48081 46.7094 7.29326C46.5219 7.10571 46.2675 7.00035 46.0023 7.00035H41.002V2.00011C41.002 1.73488 40.8967 1.48051 40.7091 1.29297C40.5216 1.10542 40.2672 1.00006 40.002 1.00006H36.0018C35.7366 1.00006 35.4822 1.10542 35.2947 1.29297C35.1071 1.48051 35.0018 1.73488 35.0018 2.00011V7.00035H30.0015C29.7363 7.00035 29.4819 7.10571 29.2944 7.29326C29.1068 7.48081 29.0015 7.73517 29.0015 8.0004V12.0006C29.0015 12.2658 29.1068 12.5202 29.2944 12.7077C29.4819 12.8953 29.7363 13.0006 30.0015 13.0006H35.0018V18.0009C35.0018 18.2661 35.1071 18.5205 35.2947 18.708C35.4822 18.8956 35.7366 19.0009 36.0018 19.0009H40.002C40.2672 19.0009 40.5216 18.8956 40.7091 18.708C40.8967 18.5205 41.002 18.2661 41.002 18.0009V13.0006H46.0023C46.2675 13.0006 46.5219 12.8953 46.7094 12.7077C46.897 12.5202 47.0023 12.2658 47.0023 12.0006V8.0004Z" stroke="black" stroke-width="2.0001" stroke-linecap="round" stroke-linejoin="round"/>
<path d="M14.9848 20.029C15.3564 19.6575 15.6512 19.2165 15.8523 18.7311C16.0535 18.2456 16.157 17.7253 16.157 17.1999C16.157 16.6744 16.0535 16.1541 15.8523 15.6687C15.6512 15.1833 15.3564 14.7422 14.9848 14.3707L10.7386 10.1285C9.98842 9.37862 8.97114 8.95734 7.91043 8.95734C6.84972 8.95734 5.83244 9.37862 5.08229 10.1285L2.75418 12.4567C1.77932 13.4352 1.17195 14.7202 1.03458 16.0946C0.897206 17.4691 1.23825 18.8488 2.00014 20.001C8.85042 30.3122 17.6903 39.152 28.0014 46.0023C29.1544 46.7647 30.5352 47.1057 31.9106 46.9676C33.2859 46.8294 34.5714 46.2207 35.5498 45.2442L37.8799 42.9161C38.6298 42.166 39.0511 41.1487 39.0511 40.088C39.0511 39.0273 38.6298 38.01 37.8799 37.2599L33.6337 33.0216C32.8835 32.2717 31.8662 31.8504 30.8055 31.8504C29.7448 31.8504 28.7275 32.2717 27.9774 33.0216L26.5633 34.4357C21.8185 30.534 17.4645 26.1799 13.5627 21.4351L14.9848 20.029Z" stroke="black" stroke-width="2.0001" stroke-linecap="round" stroke-linejoin="round"/>
</g>
<defs>
<clipPath id="clip0_1209_7146">
<rect width="48.0023" height="48.0023" fill="white"/>
</clipPath>
</defs>
</svg>
