<svg width="48" height="48" viewBox="0 0 48 48" fill="none" xmlns="http://www.w3.org/2000/svg">
<path fill-rule="evenodd" clip-rule="evenodd" d="M35.28 38.12V37.86C35.353 37.8701 35.427 37.8701 35.5 37.86C35.5893 37.8154 35.669 37.7536 35.7344 37.6782C35.7998 37.6028 35.8498 37.5152 35.8813 37.4205C35.9129 37.3257 35.9255 37.2257 35.9184 37.1261C35.9113 37.0265 35.8847 36.9293 35.84 36.84C35.0974 34.9387 34.0429 33.1745 32.72 31.62C31.7769 30.5438 30.6449 29.6491 29.38 28.98C28.7419 28.6417 28.072 28.367 27.38 28.16C26.975 28.0588 26.556 28.025 26.14 28.06C25.8079 28.12 25.4914 28.2466 25.2095 28.4322C24.9277 28.6179 24.6863 28.8586 24.5 29.14C23.9896 29.9387 23.5671 30.7904 23.24 31.68L22.88 32.62C21.5028 32.1943 20.2431 31.4549 19.2 30.46C18.6719 29.9588 18.1838 29.4171 17.74 28.84C17.2993 28.2708 16.8919 27.6764 16.52 27.06C15.8441 25.9737 15.313 24.8038 14.94 23.58C15.4178 23.3378 15.8788 23.0638 16.32 22.76C16.8648 22.4006 17.3859 22.0065 17.88 21.58C18.2125 21.3223 18.5205 21.0344 18.8 20.72C19.0076 20.4518 19.1138 20.1189 19.1 19.78C19.0672 19.3065 18.9233 18.8475 18.68 18.44C18.3042 17.8214 17.89 17.2269 17.44 16.66C16.94 16.02 16.42 15.32 15.82 14.66C15.4182 14.228 14.9908 13.8206 14.54 13.44C13.4134 12.4019 12.0861 11.6056 10.64 11.1C10.5615 11.0639 10.4765 11.0441 10.3901 11.0417C10.3037 11.0394 10.2177 11.0546 10.1374 11.0863C10.057 11.1181 9.98392 11.1658 9.9225 11.2266C9.86108 11.2874 9.8126 11.36 9.77999 11.44C7.9452 13.0047 6.46209 14.9398 5.42802 17.1182C4.39396 19.2967 3.83233 21.6692 3.77999 24.08C3.53932 29.027 5.14281 33.8874 8.27999 37.72C9.9901 39.6443 12.0787 41.1951 14.4153 42.2757C16.7519 43.3562 19.2863 43.9432 21.86 44C23.24 44 30.92 43.84 35.28 38.12ZM22 41.8C19.7541 41.6841 17.5557 41.1097 15.5401 40.1122C13.5245 39.1147 11.7344 37.7153 10.28 36C7.41496 32.6689 5.88962 28.3923 5.99999 24C5.94039 21.892 6.31438 19.7942 7.09877 17.8367C7.88316 15.8791 9.06124 14.1036 10.56 12.62C11.3014 13.0924 11.9743 13.6644 12.56 14.32C13.08 14.92 13.52 15.58 14 16.22C14.48 16.86 15.02 17.56 15.48 18.22L16.8 19.86L16.42 20C16.0394 20.4508 15.632 20.8782 15.2 21.28C14.96 21.5 14.7 21.7 14.44 21.9C14.3777 21.7595 14.267 21.6461 14.128 21.5805C13.989 21.515 13.8311 21.5016 13.6831 21.5428C13.535 21.5841 13.4068 21.6772 13.3218 21.8052C13.2368 21.9332 13.2006 22.0876 13.22 22.24C13.134 24.2687 13.5244 26.2894 14.36 28.14C14.7307 28.9364 15.2011 29.6823 15.76 30.36C16.3048 31.0518 16.9367 31.6702 17.64 32.2C18.9 33.16 23.98 35.44 24.2 33.66C24.2295 33.5622 24.2295 33.4578 24.2 33.36L24.8 32.32C26.12 30.1 25.7 29.96 27.2 30.6L28.4 31.2C29.7089 31.8193 30.879 32.6969 31.84 33.78C32.7694 34.7774 33.5999 35.8624 34.32 37.02H34.18C32.6492 38.6934 30.7556 39.9942 28.6444 40.8227C26.5332 41.6513 24.2604 41.9856 22 41.8Z" fill="black"/>
<path fill-rule="evenodd" clip-rule="evenodd" d="M43.34 46.46C42.5253 46.4563 41.716 46.3281 40.94 46.08C40.5246 45.967 40.117 45.8267 39.72 45.66L40.48 45.36C41.2248 44.9782 41.7968 44.3276 42.08 43.54C42.3909 42.7999 42.4541 41.979 42.26 41.2C42.0743 40.3861 41.5887 39.672 40.9 39.2C40.2473 38.8368 39.506 38.6636 38.76 38.7C38.1731 38.7402 37.6002 38.8971 37.0747 39.1615C36.5493 39.4259 36.0819 39.7926 35.7 40.24C35.0805 40.9299 34.72 41.8136 34.68 42.74L34.38 42.48C34.0174 42.2137 33.7677 41.8213 33.68 41.38C33.1 40.5 31.98 41.38 32.4 42.18C32.4977 42.7347 32.7548 43.249 33.14 43.66C33.9228 44.5708 34.9609 45.2257 36.12 45.54C36.6 46.0815 37.1765 46.5291 37.82 46.86C38.7023 47.228 39.6206 47.5029 40.56 47.68C41.5041 47.8936 42.4754 47.9611 43.44 47.88C43.539 47.875 43.636 47.8501 43.7253 47.8069C43.8145 47.7636 43.8941 47.7029 43.9594 47.6282C44.0247 47.5536 44.0744 47.4666 44.1054 47.3725C44.1364 47.2783 44.1482 47.1788 44.14 47.08C44.1151 46.8922 44.0171 46.7218 43.8673 46.6057C43.7176 46.4897 43.5281 46.4373 43.34 46.46ZM38.4 43.66C38.0413 43.703 37.6787 43.703 37.32 43.66C37.1886 43.4638 37.0748 43.2563 36.98 43.04C36.98 42.64 37.2 42.26 37.52 41.94C37.8399 41.5773 38.2805 41.3428 38.76 41.28C39.0217 41.2459 39.2876 41.2949 39.52 41.42C39.6752 41.5381 39.7818 41.7088 39.82 41.9C39.8861 42.1287 39.8861 42.3714 39.82 42.6C39.82 42.82 39.68 43.06 39.52 43.14C39.1697 43.3591 38.7935 43.5338 38.4 43.66Z" fill="black"/>
<path fill-rule="evenodd" clip-rule="evenodd" d="M19.2 13.1V13.9C19.2448 14.1124 19.326 14.3154 19.44 14.5C19.6386 14.8012 19.9151 15.0431 20.24 15.2C20.6849 15.3676 21.1482 15.4817 21.62 15.54C22.2837 15.629 22.9563 15.629 23.62 15.54C24.08 15.54 24.54 15.4 25.02 15.32L24.76 17.72C24.7159 18.4582 24.7765 19.1988 24.94 19.92C25.0829 20.5726 25.4424 21.1576 25.96 21.58C26.1277 21.6985 26.3185 21.7803 26.52 21.82C26.919 21.8593 27.321 21.8593 27.72 21.82C28.68 21.82 32.16 22.02 33.72 21.98C33.9663 21.9997 34.2137 21.9997 34.46 21.98C34.6705 21.96 34.8721 21.8848 35.0442 21.7618C35.2163 21.6389 35.3528 21.4727 35.44 21.28C35.5669 20.9616 35.6347 20.6227 35.64 20.28C35.6706 19.7004 35.6706 19.1196 35.64 18.54L35.16 14.8L36.9 15.06L38.42 15.28H39.56C39.9364 15.2776 40.3116 15.2374 40.68 15.16C41.0029 15.0964 41.3092 14.967 41.58 14.78C41.7331 14.6692 41.8594 14.5254 41.9494 14.3592C42.0394 14.1931 42.0909 14.0088 42.1 13.82C42.1187 13.547 42.1187 13.273 42.1 13L42.24 10.5C42.24 9.98 42.42 9.04 42.4 8.28C42.398 7.76022 42.2601 7.25001 42 6.8C41.8822 6.62592 41.7246 6.48247 41.5403 6.38159C41.3559 6.28071 41.1501 6.22531 40.94 6.22C40.4147 6.24898 39.8928 6.32258 39.38 6.44L35.28 7L35.54 2.74C35.5905 2.18114 35.5905 1.61886 35.54 1.06C35.5073 0.887271 35.4388 0.723302 35.3389 0.578635C35.239 0.433968 35.1099 0.311805 34.96 0.22C34.7326 0.0761459 34.4691 -0.000149381 34.2 2.19582e-07H33.42H28C27.5534 0.0120142 27.1101 0.0791904 26.68 0.2C26.5028 0.256899 26.3406 0.352961 26.2056 0.481064C26.0706 0.609167 25.9661 0.766023 25.9 0.94C25.7536 1.35691 25.6924 1.79899 25.72 2.24C25.72 3.04 25.92 3.94 25.94 4.52L26.04 6.22C25.7253 6.12537 25.4045 6.05188 25.08 6H22.64C22.32 6 21.84 5.9 21.42 6C21.0622 6.02168 20.7168 6.13911 20.42 6.34C19.8522 6.76733 19.4325 7.36185 19.22 8.04C18.9975 8.79936 18.8963 9.58907 18.92 10.38C18.8901 10.8595 18.8901 11.3405 18.92 11.82C19.04 12.18 19.1 12.64 19.2 13.1ZM21.56 8.86C21.68 7.94 21.16 8 25.08 7.66C25.4661 7.63005 25.8539 7.63005 26.24 7.66C26.303 7.73806 26.382 7.80168 26.4717 7.84654C26.5614 7.8914 26.6598 7.91645 26.76 7.92C26.9368 7.90967 27.1027 7.83073 27.2222 7.7C27.3417 7.56927 27.4055 7.39705 27.4 7.22L27.66 4.58C27.66 4.08 27.66 3.34 27.76 2.58V2.52H27.98L31.42 2.64L33.42 2.54V2.8L33.74 7.48C33.6504 7.60081 33.6077 7.75008 33.62 7.9C33.6495 8.07358 33.7452 8.22893 33.887 8.33337C34.0287 8.43782 34.2055 8.48321 34.38 8.46H35.86C37.08 8.46 38.28 8.6 39.48 8.66C39.6915 8.70439 39.9051 8.73777 40.12 8.76C40 9.34 39.72 10.12 39.7 10.44V13.08H39.44H38.54H37H34.7H34.56H34.4C34.225 13.08 34.0571 13.1495 33.9333 13.2733C33.8095 13.3971 33.74 13.565 33.74 13.74L33.48 18.48L33.3 19.5C31.72 19.5 28.6 19.38 27.7 19.36C27.4668 19.3481 27.2332 19.3481 27 19.36C26.973 19.2515 26.9396 19.1446 26.9 19.04C26.7749 18.6102 26.7011 18.1671 26.68 17.72V14.82C26.8005 14.6671 26.8578 14.4738 26.84 14.28C26.64 12.8 25.36 13.76 23.6 13.68C23.1183 13.6619 22.6409 13.5812 22.18 13.44H21.74C21.7735 13.2213 21.7735 12.9987 21.74 12.78L21.62 10.32C21.5612 9.8357 21.5412 9.34749 21.56 8.86Z" fill="black"/>
</svg>
