<svg width="48" height="48" viewBox="0 0 48 48" fill="none" xmlns="http://www.w3.org/2000/svg">
<g clip-path="url(#clip0_1210_2116)">
<path d="M43.62 38.5C41.8467 37.8189 40.0014 37.3425 38.12 37.08C36.2718 36.8169 34.4068 36.6899 32.54 36.7H26.54C25.22 36.7 23.88 36.7 22.54 36.86C19.84 37.06 17.2 37.32 14.54 37.66C11.88 38 9.28001 38.38 6.54001 38.88C6.46334 38.8921 6.38986 38.9194 6.32393 38.9604C6.258 39.0013 6.20097 39.0551 6.15621 39.1185C6.11145 39.1819 6.07987 39.2537 6.06335 39.3295C6.04682 39.4054 6.04569 39.4837 6.06001 39.56C6.08929 39.7138 6.17566 39.8509 6.3018 39.9436C6.42793 40.0363 6.58448 40.0779 6.74001 40.06C9.40668 39.6334 12.0267 39.3134 14.6 39.1C17.22 38.86 19.84 38.7 22.6 38.6H26.5C28.5 38.6 30.5 38.72 32.5 38.78C34.2687 38.8235 36.0325 38.9839 37.78 39.26C39.4878 39.5362 41.163 39.9852 42.78 40.6C42.8128 40.5916 42.8472 40.5916 42.88 40.6L42.62 40.82C42.2289 41.2118 41.7377 41.4885 41.2 41.62C40.2967 41.7309 39.3833 41.7309 38.48 41.62C36.18 41.48 33.76 40.96 31.56 40.92C28.6097 40.8665 25.6587 40.9733 22.72 41.24C19.8 41.48 16.88 41.84 13.96 42.3C12.5053 42.575 11.0363 42.7687 9.56001 42.88C8.62855 42.9467 7.69234 42.8793 6.78001 42.68C6.36729 42.5642 6.0027 42.3188 5.74001 41.98C5.64081 41.8434 5.58739 41.6789 5.58739 41.51C5.58739 41.3412 5.64081 41.1767 5.74001 41.04C5.80555 40.8857 5.81179 40.7127 5.75754 40.5541C5.7033 40.3955 5.59238 40.2625 5.44608 40.1807C5.29979 40.0989 5.12843 40.0739 4.96489 40.1107C4.80135 40.1475 4.65717 40.2434 4.56001 40.38C4.37667 40.6777 4.26977 41.016 4.24883 41.365C4.2279 41.7139 4.29357 42.0626 4.44001 42.38C4.63736 42.7865 4.91705 43.1476 5.26135 43.4402C5.60565 43.7329 6.00703 43.9507 6.44001 44.08C7.48445 44.3485 8.56248 44.463 9.64001 44.42C11.22 44.42 12.84 44.12 14.22 43.96C17.1 43.58 19.98 43.3 22.86 43.14C25.74 42.98 28.62 42.96 31.52 43.14C33.7 43.14 36.08 43.78 38.36 43.94C39.4211 44.0792 40.4944 44.0993 41.56 44C42.4674 43.7727 43.3052 43.3264 44 42.7C44.5852 42.2333 44.9999 41.5865 45.18 40.86C45.34 40 45.06 39.08 43.62 38.5Z" fill="black"/>
<path d="M10.44 37.44C10.5959 37.42 10.7376 37.3396 10.8348 37.2162C10.9321 37.0928 10.977 36.9362 10.96 36.78C10.6128 33.2996 10.7339 29.7883 11.32 26.34C11.8909 22.9466 13.2621 19.738 15.32 16.98C17.5195 14.3074 20.5948 12.5005 24 11.88C25.6666 11.4541 27.4119 11.441 29.0847 11.8417C30.7575 12.2425 32.3074 13.0451 33.6 14.18C35.7525 16.3153 37.2333 19.0336 37.86 22C38.6886 26.7053 39.0038 31.4867 38.8 36.26C38.8 36.4404 38.8717 36.6133 38.9992 36.7408C39.1267 36.8684 39.2997 36.94 39.48 36.94C39.6588 36.935 39.8288 36.8617 39.9553 36.7353C40.0817 36.6088 40.155 36.4388 40.16 36.26C40.5144 31.3755 40.34 26.467 39.64 21.62C39.0459 18.2326 37.4668 15.0952 35.1 12.6C33.5842 11.2015 31.7493 10.1952 29.7552 9.66879C27.7612 9.14239 25.6686 9.11191 23.66 9.58001C19.694 10.3375 16.1393 12.513 13.66 15.7C11.9263 18.1963 10.7216 21.0209 10.12 24C9.26999 28.2827 9.15501 32.6788 9.78003 37C9.81766 37.1411 9.90545 37.2636 10.027 37.3446C10.1485 37.4256 10.2953 37.4595 10.44 37.44Z" fill="black"/>
<path d="M6.64001 21.54C6.68388 21.4749 6.71409 21.4016 6.7288 21.3245C6.74351 21.2474 6.74241 21.1681 6.72558 21.0914C6.70876 21.0148 6.67654 20.9423 6.63089 20.8785C6.58524 20.8146 6.52711 20.7607 6.46001 20.72C5.88001 20.14 5.42001 19.52 4.84001 18.94C4.57574 18.6884 4.29513 18.4545 4.00001 18.24L3.16001 17.64C2.54001 17.18 1.82001 16.8 1.08001 16.4C0.938399 16.3249 0.774825 16.3023 0.618155 16.3361C0.461485 16.3699 0.321791 16.458 0.223723 16.5847C0.125656 16.7115 0.0755178 16.8688 0.0821576 17.029C0.0887975 17.1891 0.151788 17.3418 0.260014 17.46C0.840014 18.08 1.32001 18.74 1.92001 19.34C2.31335 19.7437 2.74169 20.1118 3.20001 20.44C4.02405 20.9556 4.90276 21.3782 5.82001 21.7C5.95069 21.7851 6.10937 21.816 6.26244 21.7861C6.41551 21.7563 6.55093 21.668 6.64001 21.54Z" fill="black"/>
<path d="M15.4 6.51999C15.4 6.77999 15.54 7.05999 15.62 7.31999C15.7294 7.55587 15.8564 7.78318 16 7.99999C16.32 8.59999 16.72 9.07999 17.1 9.65999C17.1247 9.73236 17.1635 9.79913 17.2142 9.85645C17.2648 9.91376 17.3263 9.9605 17.3951 9.99396C17.4639 10.0274 17.5386 10.0469 17.615 10.0514C17.6913 10.0559 17.7678 10.0452 17.84 10.02C17.9149 9.99513 17.9842 9.95574 18.0439 9.90406C18.1035 9.85238 18.1524 9.78944 18.1877 9.71884C18.223 9.64824 18.244 9.57137 18.2496 9.49263C18.2551 9.41389 18.2451 9.33484 18.22 9.25999C18.1948 8.58982 18.128 7.92187 18.02 7.25999C17.9774 6.97933 17.9036 6.7043 17.8 6.43999C17.7004 6.17749 17.58 5.92335 17.44 5.67999C17.12 5.07999 16.76 4.55999 16.4 3.97999C16.3216 3.83484 16.1932 3.72313 16.0386 3.66565C15.8839 3.60818 15.7137 3.60887 15.5596 3.6676C15.4054 3.72632 15.2779 3.83907 15.2007 3.98485C15.1235 4.13062 15.1019 4.29949 15.14 4.45999C15.22 5.21999 15.28 5.85999 15.4 6.51999Z" fill="black"/>
<path d="M34.34 9.88C34.4149 9.90506 34.4939 9.91511 34.5727 9.90957C34.6514 9.90403 34.7283 9.88301 34.7989 9.84771C34.8695 9.81241 34.9324 9.76352 34.9841 9.70386C35.0358 9.64419 35.0752 9.57491 35.1 9.5C35.4965 8.96699 35.8637 8.41284 36.2 7.84C36.3336 7.5962 36.4473 7.34204 36.54 7.08C36.54 6.82 36.68 6.54 36.74 6.28C36.88 5.62 36.94 5 37.06 4.28C37.092 4.19599 37.107 4.10648 37.1042 4.01663C37.1014 3.92678 37.0808 3.83838 37.0436 3.75655C37.0064 3.67471 36.9534 3.60106 36.8875 3.53986C36.8217 3.47866 36.7443 3.43112 36.66 3.4C36.4928 3.34152 36.3094 3.3506 36.1488 3.42531C35.9882 3.50001 35.863 3.63444 35.8 3.8C35.44 4.36 35.06 4.9 34.76 5.48C34.6199 5.73025 34.4996 5.99104 34.4 6.26C34.299 6.51991 34.2188 6.78741 34.16 7.06C34.04 7.74 34.04 8.36 33.98 9.06C33.9479 9.13728 33.9319 9.22026 33.9327 9.30393C33.9336 9.3876 33.9513 9.47023 33.985 9.54684C34.0186 9.62346 34.0674 9.69247 34.1284 9.74973C34.1894 9.80698 34.2614 9.8513 34.34 9.88Z" fill="black"/>
<path d="M47.82 15.04C47.7586 14.9777 47.6854 14.9283 47.6047 14.8945C47.524 14.8608 47.4374 14.8434 47.35 14.8434C47.2625 14.8434 47.1759 14.8608 47.0952 14.8945C47.0146 14.9283 46.9414 14.9777 46.88 15.04C46.24 15.44 45.56 15.74 44.88 16.14C44.4524 16.4106 44.0447 16.7114 43.66 17.04C43.0533 17.6606 42.4982 18.3294 42 19.04C41.9019 19.1487 41.847 19.2896 41.8455 19.4359C41.8441 19.5823 41.8962 19.7242 41.9921 19.8349C42.088 19.9455 42.221 20.0173 42.3661 20.0366C42.5113 20.056 42.6584 20.0216 42.78 19.94C43.44 19.58 44.12 19.34 44.78 18.96C45.0505 18.803 45.311 18.6294 45.56 18.44C45.8143 18.2361 46.0548 18.0156 46.28 17.78C46.8182 17.2199 47.3192 16.6253 47.78 16C47.8507 15.9429 47.9084 15.8713 47.9492 15.7901C47.9901 15.7089 48.0132 15.6199 48.017 15.5291C48.0207 15.4382 48.0051 15.3476 47.9712 15.2633C47.9372 15.179 47.8857 15.1029 47.82 15.04Z" fill="black"/>
<path d="M30.76 28.14H31.6C31.8853 28.1794 32.1747 28.1794 32.46 28.14C32.7174 28.0882 32.962 27.9863 33.18 27.84C33.3106 27.7439 33.4192 27.621 33.4985 27.4796C33.5778 27.3382 33.6261 27.1815 33.64 27.02V26.4L33.74 24.6C33.74 24.22 33.88 23.54 33.84 22.98C33.8426 22.5559 33.7247 22.1397 33.5 21.78C33.4045 21.6258 33.2723 21.4977 33.1153 21.407C32.9583 21.3162 32.7813 21.2657 32.6 21.26C32.2092 21.2897 31.8214 21.3498 31.44 21.44L28.62 21.88L28.84 18.94C28.8615 18.5202 28.8615 18.0997 28.84 17.68C28.8055 17.459 28.7079 17.2527 28.5588 17.0859C28.4098 16.9191 28.2157 16.799 28 16.74C27.7337 16.7199 27.4663 16.7199 27.2 16.74H23.2C22.8613 16.7647 22.5261 16.8251 22.2 16.92C22.0436 16.9689 21.8999 17.0516 21.7789 17.1622C21.658 17.2728 21.5628 17.4086 21.5 17.56C21.4047 17.8843 21.3641 18.2223 21.38 18.56C21.38 19.14 21.54 19.78 21.58 20.2V21.28H21.04C20.44 21.28 19.86 21.28 19.26 21.18H18.36C18.0681 21.2059 17.7868 21.302 17.54 21.46C17.098 21.7924 16.7696 22.2535 16.6 22.78C16.436 23.3521 16.3551 23.9448 16.36 24.54L16.58 26.54C16.563 26.7396 16.563 26.9403 16.58 27.14C16.6058 27.3202 16.6744 27.4917 16.78 27.64C16.9411 27.8867 17.1704 28.0812 17.44 28.2C17.7748 28.3287 18.124 28.416 18.48 28.46C18.9453 28.5101 19.4147 28.5101 19.88 28.46L20.74 28.34L20.56 29.88C20.496 30.5533 20.5639 31.2327 20.76 31.88C20.9046 32.2726 21.1535 32.6183 21.48 32.88C21.6296 32.9693 21.7913 33.0366 21.96 33.08C22.2593 33.1091 22.5607 33.1091 22.86 33.08C23.54 33.08 26.08 33.24 27.14 33.2C27.4116 33.207 27.6811 33.1511 27.9275 33.0366C28.1738 32.9221 28.3903 32.7521 28.56 32.54C28.6505 32.2821 28.7044 32.0128 28.72 31.74C28.7423 31.3136 28.7423 30.8863 28.72 30.46L28.42 27.92L29.54 28.1L30.76 28.14ZM27.26 26.92L27.04 30.36L26.92 30.9H22.92C22.7868 30.9077 22.6532 30.9077 22.52 30.9V30.68C22.4651 30.4292 22.425 30.1754 22.4 29.92V27.92C22.4701 27.8188 22.5094 27.6995 22.5135 27.5765C22.5175 27.4535 22.4859 27.332 22.4226 27.2264C22.3593 27.1209 22.2669 27.0359 22.1564 26.9815C22.046 26.9271 21.9223 26.9058 21.8 26.92C20.8764 27.0111 19.944 26.9503 19.04 26.74H18.9C18.9 26.6 18.54 23.74 19.08 23.12C19.32 22.82 20.58 22.9 21.08 22.84C21.3396 22.82 21.6004 22.82 21.86 22.84C21.9165 22.8994 21.9849 22.9461 22.0607 22.9771C22.1366 23.0082 22.2181 23.0228 22.3 23.02C22.4556 23.0148 22.6032 22.9493 22.7114 22.8373C22.8196 22.7254 22.8801 22.5757 22.88 22.42L23.08 20.52C23.08 20.16 23.08 19.66 23.2 19.16H25.7H26.94C26.94 19.16 27.16 22.76 27.18 22.88C27.1896 22.9558 27.2146 23.0289 27.2535 23.0947C27.2924 23.1606 27.3444 23.2177 27.4062 23.2627C27.4681 23.3077 27.5384 23.3395 27.613 23.3562C27.6877 23.373 27.7649 23.3742 27.84 23.36H28.92C29.8 23.36 30.66 23.5 31.54 23.54H31.76C31.6418 23.8863 31.5482 24.2405 31.48 24.6V26.44H30.84H27.86C27.7206 26.4409 27.5856 26.4887 27.4767 26.5758C27.3678 26.6629 27.2915 26.7842 27.26 26.92Z" fill="black"/>
</g>
<defs>
<clipPath id="clip0_1210_2116">
<rect width="48" height="48" fill="white"/>
</clipPath>
</defs>
</svg>
