<svg width="48" height="48" viewBox="0 0 48 48" fill="none" xmlns="http://www.w3.org/2000/svg">
<g clip-path="url(#clip0_1209_7135)">
<path d="M6.00024 39.0017C6.00024 40.0626 6.42169 41.08 7.17187 41.8302C7.92206 42.5804 8.93952 43.0019 10.0004 43.0019C11.0614 43.0019 12.0788 42.5804 12.829 41.8302C13.5792 41.08 14.0006 40.0626 14.0006 39.0017C14.0006 37.9407 13.5792 36.9233 12.829 36.1731C12.0788 35.4229 11.0614 35.0015 10.0004 35.0015C8.93952 35.0015 7.92206 35.4229 7.17187 36.1731C6.42169 36.9233 6.00024 37.9407 6.00024 39.0017Z" stroke="black" stroke-width="2.0001" stroke-linecap="round" stroke-linejoin="round"/>
<path d="M34.0016 39.0017C34.0016 40.0626 34.4231 41.08 35.1733 41.8302C35.9235 42.5804 36.9409 43.0019 38.0018 43.0019C39.0628 43.0019 40.0802 42.5804 40.8304 41.8302C41.5806 41.08 42.002 40.0626 42.002 39.0017C42.002 37.9407 41.5806 36.9233 40.8304 36.1731C40.0802 35.4229 39.0628 35.0015 38.0018 35.0015C36.9409 35.0015 35.9235 35.4229 35.1733 36.1731C34.4231 36.9233 34.0016 37.9407 34.0016 39.0017Z" stroke="black" stroke-width="2.0001" stroke-linecap="round" stroke-linejoin="round"/>
<path d="M6.00024 39.0024H2.00005C1.73642 38.9973 1.48502 38.8903 1.29857 38.7038C1.11213 38.5174 1.00512 38.266 1 38.0023V29.6619C0.999583 29.1341 1.10364 28.6114 1.30617 28.1239C1.5087 27.6365 1.8057 27.1939 2.18006 26.8218L5.0002 24.0017L9.42041 16.0013C9.59572 15.6893 9.8515 15.4302 10.1611 15.2508C10.4707 15.0713 10.8227 14.9783 11.1805 14.9812H19.0009V10.981H46.0022C46.2674 10.981 46.5218 11.0864 46.7093 11.2739C46.8969 11.4615 47.0022 11.7158 47.0022 11.9811V38.0023C46.9971 38.266 46.8901 38.5174 46.7037 38.7038C46.5172 38.8903 46.2658 38.9973 46.0022 39.0024H42.002" stroke="black" stroke-width="2.0001" stroke-linecap="round" stroke-linejoin="round"/>
<path d="M14.0007 39.0025H34.0016" stroke="black" stroke-width="2.0001" stroke-linecap="round" stroke-linejoin="round"/>
<path d="M19.0009 15.0005V39.0017" stroke="black" stroke-width="2.0001" stroke-linecap="round" stroke-linejoin="round"/>
<path d="M27.0012 9.00062C27.0012 7.9397 26.5798 6.92224 25.8296 6.17206C25.0794 5.42187 24.062 5.00043 23.001 5.00043C21.9401 5.00043 20.9227 5.42187 20.1725 6.17206C19.4223 6.92224 19.0009 7.9397 19.0009 9.00062V11.0007H27.0012V9.00062Z" stroke="black" stroke-width="2.0001" stroke-linecap="round" stroke-linejoin="round"/>
<path d="M40.0019 21.0012C40.0019 20.736 39.8965 20.4816 39.709 20.2941C39.5214 20.1065 39.2671 20.0012 39.0019 20.0012H36.0017V17.001C36.0017 16.7358 35.8963 16.4814 35.7088 16.2939C35.5213 16.1063 35.2669 16.001 35.0017 16.001H31.0015C30.7362 16.001 30.4819 16.1063 30.2943 16.2939C30.1068 16.4814 30.0014 16.7358 30.0014 17.001V20.0012H27.0013C26.736 20.0012 26.4817 20.1065 26.2941 20.2941C26.1066 20.4816 26.0012 20.736 26.0012 21.0012V25.0014C26.0012 25.2666 26.1066 25.521 26.2941 25.7086C26.4817 25.8961 26.736 26.0015 27.0013 26.0015H30.0014V29.0016C30.0014 29.2668 30.1068 29.5212 30.2943 29.7087C30.4819 29.8963 30.7362 30.0017 31.0015 30.0017H35.0017C35.2669 30.0017 35.5213 29.8963 35.7088 29.7087C35.8963 29.5212 36.0017 29.2668 36.0017 29.0016V26.0015H39.0019C39.2671 26.0015 39.5214 25.8961 39.709 25.7086C39.8965 25.521 40.0019 25.2666 40.0019 25.0014V21.0012Z" stroke="black" stroke-width="2.0001" stroke-linecap="round" stroke-linejoin="round"/>
<path d="M5.00018 24.0015H19.0009" stroke="black" stroke-width="2.0001" stroke-linecap="round" stroke-linejoin="round"/>
</g>
<defs>
<clipPath id="clip0_1209_7135">
<rect width="48.0023" height="48.0023" fill="white"/>
</clipPath>
</defs>
</svg>
