<svg width="48" height="48" viewBox="0 0 48 48" fill="none" xmlns="http://www.w3.org/2000/svg">
<g clip-path="url(#clip0_1210_2125)">
<path fill-rule="evenodd" clip-rule="evenodd" d="M10.46 38.74C10.4324 39.1242 10.5577 39.5037 10.8087 39.7959C11.0597 40.0882 11.416 40.2693 11.8 40.3C12.1842 40.3362 12.5681 40.2268 12.8755 39.9934C13.1829 39.7601 13.3915 39.4198 13.46 39.04C13.4792 38.8308 13.4564 38.6199 13.3931 38.4196C13.3297 38.2193 13.2271 38.0336 13.0911 37.8734C12.9552 37.7133 12.7887 37.5818 12.6013 37.4868C12.414 37.3918 12.2095 37.3351 12 37.32C11.8056 37.3119 11.6115 37.3423 11.4289 37.4094C11.2462 37.4764 11.0786 37.5788 10.9356 37.7107C10.7925 37.8426 10.6769 38.0014 10.5953 38.178C10.5137 38.3546 10.4677 38.5456 10.46 38.74Z" fill="black"/>
<path fill-rule="evenodd" clip-rule="evenodd" d="M35.38 38.7C35.3524 39.0842 35.4777 39.4637 35.7287 39.7559C35.9797 40.0481 36.336 40.2293 36.72 40.26C37.1052 40.301 37.4914 40.1934 37.7999 39.9593C38.1085 39.7251 38.3159 39.382 38.38 39C38.4145 38.591 38.2905 38.1844 38.0336 37.8643C37.7768 37.5441 37.4067 37.335 37 37.28C36.7992 37.2608 36.5965 37.2828 36.4045 37.3448C36.2125 37.4067 36.0352 37.5073 35.8835 37.6403C35.7318 37.7733 35.6088 37.9359 35.5223 38.1181C35.4357 38.3003 35.3873 38.4984 35.38 38.7Z" fill="black"/>
<path fill-rule="evenodd" clip-rule="evenodd" d="M4.72001 25.64H8.46001C8.70473 25.6838 8.95528 25.6838 9.20001 25.64C9.4446 26.0131 9.63957 26.4165 9.78 26.84C10.14 27.8 10.4 28.84 10.66 29.62C10.7037 29.744 10.7724 29.8576 10.8619 29.954C10.9513 30.0503 11.0596 30.1272 11.18 30.18C11.3031 30.2334 11.4358 30.2609 11.57 30.2609C11.7042 30.2609 11.8369 30.2334 11.96 30.18C12.1417 30.1088 12.291 29.9736 12.38 29.8C12.38 29.64 12.62 29.28 12.7 29.12L13.5 27.54C13.78 26.9 14.02 26.26 14.24 25.54C14.66 24.2 14.98 22.84 15.42 21.54C15.42 22.2 15.58 22.9 15.74 23.54C15.8671 24.1854 16.1111 24.8022 16.46 25.36C16.7268 25.7208 17.1072 25.9815 17.54 26.1C18.19 26.2901 18.8628 26.391 19.54 26.4L22 26.22L26 25.66C26.0841 25.6549 26.1664 25.6332 26.2421 25.5963C26.3178 25.5593 26.3855 25.5078 26.4412 25.4446C26.497 25.3814 26.5397 25.3078 26.5669 25.2281C26.5942 25.1484 26.6054 25.0641 26.6 24.98C26.5821 24.829 26.5126 24.6888 26.4033 24.5831C26.294 24.4774 26.1515 24.4128 26 24.4L21.86 24.74H19.68C19.2832 24.716 18.8888 24.6626 18.5 24.58C18.28 24.58 18.02 24.58 17.92 24.34C17.7263 23.9659 17.6042 23.5589 17.56 23.14C17.34 21.84 17.34 20.3 17.1 19.34C17 19 16.9 18.28 16.72 17.82C16.6308 17.5761 16.4949 17.3519 16.32 17.16C16.1614 16.9739 15.9434 16.8483 15.7028 16.8046C15.4622 16.7608 15.214 16.8016 15 16.92C14.746 17.0508 14.5421 17.2617 14.42 17.52C14.42 17.74 14.3 18.28 14.2 18.52L13.5 20.52L11.68 26.8V27.04C11.5193 26.6057 11.3254 26.1845 11.1 25.78C10.8478 25.2664 10.5096 24.7996 10.1 24.4C9.95743 24.2655 9.77485 24.1812 9.58001 24.16H8.52001C7.86001 24.16 5.30001 24.28 4.66001 24.38H4.24001C2.96001 24.6 3.24001 25.76 4.24001 25.6L4.72001 25.64Z" fill="black"/>
<path fill-rule="evenodd" clip-rule="evenodd" d="M47.38 24.98C46.7235 23.5372 45.7613 22.2542 44.56 21.22C44.18 20.88 43.8 20.56 43.4 20.26L42.24 19.44L38.48 17.12C37.46 16.54 36.48 15.98 35.44 15.44C34.4 14.9 33.44 14.36 32.36 13.86C32.2944 13.8254 32.2227 13.8041 32.1488 13.7974C32.075 13.7908 32.0005 13.7988 31.9298 13.8212C31.8591 13.8435 31.7936 13.8796 31.737 13.9275C31.6803 13.9754 31.6338 14.034 31.6 14.1C31.5347 14.228 31.5212 14.3762 31.5621 14.514C31.6031 14.6517 31.6954 14.7684 31.82 14.84C32.62 15.3 33.4 15.78 34.16 16.26C35.32 17 36.44 17.78 37.56 18.56L41.06 21.12L43.06 22.78C43.5229 23.1906 43.951 23.6388 44.34 24.12H42.16C41.08 24.12 40 24.12 38.92 24.02H35.68H30.68V22.02C30.48 19.3 30.14 16.6 29.86 13.88L30.88 12.82C31.2053 12.4766 31.4354 12.0544 31.5476 11.5949C31.6598 11.1354 31.6503 10.6547 31.52 10.2C31.3146 9.75847 31.0021 9.37531 30.6109 9.08539C30.2197 8.79546 29.7622 8.60798 29.28 8.54C27.9103 8.22361 26.5049 8.08912 25.1 8.14C24.0858 8.18098 23.0913 8.43301 22.18 8.88C21.7449 9.05874 21.3926 9.39412 21.1926 9.81992C20.9927 10.2457 20.9596 10.731 21.1 11.18C21.1776 11.3757 21.2856 11.558 21.42 11.72L18.76 11.5C17.54 11.5 16.32 11.38 15.08 11.38C13.84 11.38 12.62 11.38 11.4 11.56C8.64427 11.841 5.91552 12.3426 3.24 13.06C3.09776 12.992 2.93541 12.9788 2.78409 13.0231C2.63276 13.0674 2.50311 13.166 2.42 13.3C1.90808 14.146 1.5049 15.0531 1.22 16C0.819011 17.4103 0.51826 18.8472 0.319998 20.3C0.0113599 22.5593 -0.0957286 24.8417 -1.79559e-06 27.12C0.303349 30.4861 0.837945 33.8273 1.6 37.12C1.62452 37.2631 1.70181 37.3918 1.8166 37.4806C1.93139 37.5695 2.07533 37.6121 2.22 37.6C3.66 37.38 2.7 37.6 4.34 37.88C4.61965 37.8996 4.90034 37.8996 5.18 37.88C5.4463 37.8997 5.7137 37.8997 5.98 37.88L6.44 37.78C6.43035 37.8931 6.43035 38.0069 6.44 38.12C6.3065 39.0204 6.42235 39.9402 6.77496 40.7794C7.12756 41.6186 7.70344 42.3451 8.44 42.88C9.14907 43.4366 9.98927 43.8016 10.88 43.94C11.7548 44.0339 12.6394 43.9173 13.46 43.6C13.597 43.55 13.7102 43.4501 13.7769 43.3204C13.8436 43.1907 13.859 43.0406 13.82 42.9C13.77 42.763 13.6702 42.6498 13.5404 42.5831C13.4107 42.5164 13.2606 42.501 13.12 42.54C12.4699 42.7266 11.7855 42.7608 11.12 42.64C10.4808 42.4595 9.89651 42.1227 9.42 41.66C8.97574 41.2605 8.64677 40.7492 8.46737 40.1793C8.28796 39.6095 8.2647 39.0019 8.4 38.42C8.48741 37.8508 8.71633 37.3126 9.06577 36.8549C9.4152 36.3971 9.87397 36.0344 10.4 35.8C11.0268 35.4991 11.706 35.3225 12.4 35.28C13.045 35.2401 13.6885 35.3785 14.26 35.68C14.7743 35.9533 15.2065 36.3585 15.5123 36.8541C15.8181 37.3497 15.9864 37.9178 16 38.5C16.0102 39.1406 15.873 39.7749 15.5991 40.354C15.3251 40.9332 14.9217 41.4416 14.42 41.84C14.2837 41.9367 14.1907 42.083 14.1608 42.2474C14.1309 42.4118 14.1665 42.5815 14.26 42.72C14.3604 42.8577 14.5101 42.9512 14.6778 42.981C14.8456 43.0108 15.0183 42.9746 15.16 42.88C15.8691 42.3936 16.4576 41.7515 16.8805 41.0027C17.3034 40.254 17.5495 39.4184 17.6 38.56C17.6555 37.662 17.4696 36.7656 17.0616 35.9637C16.6537 35.1619 16.0385 34.4838 15.28 34C14.4056 33.454 13.3906 33.1759 12.36 33.2C11.3863 33.2199 10.4269 33.4376 9.54 33.84C8.53174 34.2961 7.68724 35.0498 7.12 36L6 35.78H5.22H4.46C3.86 35.78 3.32 36.04 2.72 36.12C2.21673 30.9563 2.04971 25.7654 2.22 20.58C2.26775 19.1969 2.42154 17.8195 2.68 16.46C2.83782 15.6778 3.09315 14.9186 3.44 14.2C6.0923 13.8376 8.76353 13.6305 11.44 13.58H15.02H18.68C21.48 13.58 24.28 13.7 27.1 13.94C27.183 13.9511 27.2675 13.9453 27.3482 13.9229C27.4289 13.9005 27.5043 13.862 27.5697 13.8096C27.6351 13.7573 27.6893 13.6922 27.7288 13.6184C27.7684 13.5446 27.7926 13.4635 27.8 13.38C27.8173 13.2163 27.7709 13.0521 27.6703 12.9218C27.5697 12.7914 27.4228 12.7048 27.26 12.68C25.84 12.44 24.42 12.22 23 12.04C22.8245 11.8112 22.6892 11.5542 22.6 11.28C22.5713 11.2203 22.5564 11.155 22.5565 11.0888C22.5566 11.0226 22.5716 10.9572 22.6004 10.8976C22.6293 10.838 22.6712 10.7857 22.7231 10.7446C22.7749 10.7034 22.8354 10.6745 22.9 10.66C23.6338 10.4477 24.3966 10.3532 25.16 10.38C26.4113 10.351 27.6627 10.4313 28.9 10.62C29.4 10.62 29.78 10.72 29.92 11C29.9765 11.1919 29.9842 11.3949 29.9423 11.5905C29.9003 11.7861 29.8102 11.9681 29.68 12.12L28.98 13.08C28.8867 13.1216 28.8072 13.1887 28.7505 13.2737C28.6939 13.3586 28.6625 13.4579 28.66 13.56V28C28.78 30 28.82 32 28.92 34C28.92 35.24 29.04 36.5 29.16 37.74H27.8H24.04L18.04 38.02C17.959 38.0045 17.8756 38.007 17.7957 38.0275C17.7158 38.048 17.6414 38.0858 17.5779 38.1384C17.5143 38.1909 17.4631 38.2569 17.428 38.3315C17.3929 38.4061 17.3746 38.4875 17.3746 38.57C17.3746 38.6525 17.3929 38.7339 17.428 38.8085C17.4631 38.8831 17.5143 38.9491 17.5779 39.0016C17.6414 39.0542 17.7158 39.092 17.7957 39.1125C17.8756 39.1329 17.959 39.1355 18.04 39.12C19.64 39.28 21.2 39.62 22.8 39.8C23.2064 39.8204 23.6136 39.8204 24.02 39.8C24.7928 39.8403 25.5672 39.8403 26.34 39.8C27.9 39.66 29.44 39.42 31 39.3C31.0467 40.0105 31.2503 40.7019 31.5962 41.3243C31.942 41.9468 32.4214 42.4849 33 42.9C33.7091 43.4566 34.5493 43.8216 35.44 43.96C36.3083 44.0546 37.1865 43.9379 38 43.62C38.0798 43.6086 38.1563 43.58 38.2241 43.5363C38.2919 43.4926 38.3494 43.4348 38.3928 43.3668C38.4362 43.2988 38.4644 43.2222 38.4754 43.1423C38.4864 43.0624 38.4801 42.981 38.4568 42.9038C38.4335 42.8266 38.3937 42.7553 38.3403 42.6949C38.2869 42.6344 38.2211 42.5862 38.1473 42.5536C38.0736 42.5209 37.9936 42.5046 37.913 42.5057C37.8323 42.5068 37.7528 42.5253 37.68 42.56C37.0299 42.7466 36.3455 42.7808 35.68 42.66C35.0408 42.4795 34.4565 42.1427 33.98 41.68C33.5356 41.2802 33.2052 40.7696 33.0225 40.2004C32.8398 39.6312 32.8114 39.0238 32.94 38.44C33.0342 37.8732 33.2658 37.3381 33.6144 36.8814C33.963 36.4247 34.4181 36.0603 34.94 35.82C35.5685 35.5237 36.2468 35.3473 36.94 35.3C37.5913 35.2605 38.2412 35.3987 38.82 35.7C39.3351 35.9926 39.7625 36.4176 40.0579 36.9311C40.3533 37.4445 40.5059 38.0277 40.5 38.62C40.5102 39.2606 40.373 39.8949 40.0991 40.474C39.8251 41.0532 39.4217 41.5616 38.92 41.96C38.8092 42.0652 38.7397 42.2065 38.7239 42.3584C38.7082 42.5104 38.7474 42.6629 38.8344 42.7885C38.9213 42.9141 39.0503 43.0045 39.1981 43.0433C39.3458 43.082 39.5026 43.0667 39.64 43C40.3518 42.5146 40.9434 41.8732 41.3697 41.1245C41.796 40.3759 42.0458 39.5398 42.1 38.68V38.34C42.5035 38.4864 42.9182 38.6001 43.34 38.68C43.8424 38.7733 44.3576 38.7733 44.86 38.68C45.46 38.58 46.02 38.42 46.62 38.26C46.7716 38.2389 46.9121 38.1686 47.02 38.06C47.1014 38.0574 47.1816 38.0388 47.2558 38.0052C47.33 37.9717 47.3969 37.9238 47.4526 37.8644C47.5084 37.8049 47.5518 37.7351 47.5805 37.6588C47.6093 37.5826 47.6227 37.5014 47.62 37.42L47.74 32.7V29.72C47.9568 28.1323 47.8341 26.5167 47.38 24.98ZM44.94 36.54C44.6938 36.5194 44.4462 36.5194 44.2 36.54C43.9537 36.5202 43.7063 36.5202 43.46 36.54C42.986 36.6293 42.5183 36.7496 42.06 36.9C41.752 35.7135 41.0189 34.6815 40 34C39.1256 33.454 38.1106 33.1759 37.08 33.2C36.1063 33.2199 35.1469 33.4376 34.26 33.84C33.4606 34.2068 32.7625 34.7626 32.2258 35.4595C31.6892 36.1564 31.3303 36.9734 31.18 37.84H30.56L30.88 27.84V25.34C32.2 25.58 33.54 25.86 34.88 26C35.72 26 36.56 26.12 37.38 26.14C38.2 26.16 39.08 26.14 39.9 26.14C41.7198 26.0122 43.5299 25.7718 45.32 25.42C45.32 25.54 45.5 25.68 45.56 25.8C46.0516 27.0128 46.2964 28.3115 46.28 29.62L46.38 32.58L46.58 36.84L44.94 36.54Z" fill="black"/>
<path fill-rule="evenodd" clip-rule="evenodd" d="M17.32 8.39999C17.3745 8.51846 17.4489 8.62669 17.54 8.71999C17.6211 8.82111 17.7236 8.90307 17.84 8.95999C17.84 8.95999 19.24 9.61999 19.58 9.27999C19.58 9.27999 20.02 9.09999 19.3 7.53999C19.2375 7.41575 19.1488 7.30657 19.04 7.21999C18.9525 7.131 18.8512 7.05671 18.74 6.99999C17.24 6.13999 17.04 6.53999 16.96 6.63999C16.88 6.73999 16.56 7.05999 17.32 8.39999Z" fill="black"/>
<path fill-rule="evenodd" clip-rule="evenodd" d="M26.14 7.18C26.54 7.18 27.08 5.96 27.08 5.92C27.1007 5.82781 27.1007 5.73218 27.08 5.64C27.0887 5.55355 27.0887 5.46644 27.08 5.38C26.58 4.16 26.3 4.12 26.04 4.12C25.78 4.12 25.52 4.12 25.08 5.44C25.0611 5.53238 25.0611 5.62761 25.08 5.72C25.0593 5.81218 25.0593 5.90781 25.08 6C25.08 6 25.72 7.2 26.14 7.18Z" fill="black"/>
<path fill-rule="evenodd" clip-rule="evenodd" d="M34.2 9.36002C34.3167 9.31986 34.4251 9.25888 34.52 9.18002C34.6158 9.10142 34.697 9.00665 34.76 8.90002C35.56 7.76002 35.6 7.56002 35.38 7.24002C35.16 6.92002 34.98 6.76002 33.54 7.24002C33.4189 7.28408 33.3045 7.34466 33.2 7.42002C33.0982 7.49806 33.0103 7.59272 32.94 7.70002C32.94 7.82002 32.16 9.04002 32.46 9.40002C32.76 9.76002 34.18 9.38002 34.2 9.36002Z" fill="black"/>
</g>
<defs>
<clipPath id="clip0_1210_2125">
<rect width="48" height="48" fill="white"/>
</clipPath>
</defs>
</svg>
