<svg width="48" height="48" viewBox="0 0 48 48" fill="none" xmlns="http://www.w3.org/2000/svg">
<path d="M39.936 38.661L41.094 38.602C43.37 38.48 45.191 36.772 45.41 34.503C45.67 31.8 45.953 27.779 45.995 22.791C46.002 21.964 45.833 21.143 45.445 20.413C44.411 18.468 41.955 14.446 38.245 12.05C37.51 11.575 36.642 11.366 35.766 11.336C34.549 11.296 33.274 11.259 31.964 11.228C31.9288 9.81945 31.8531 8.4122 31.737 7.008C31.558 4.906 29.889 3.373 27.783 3.256C25.46 3.126 21.922 3 17 3C12.078 3 8.54 3.127 6.217 3.256C4.111 3.373 2.442 4.906 2.263 7.007C2.12 8.678 2 10.985 2 14V25H2.008C2.003 25.39 2 25.784 2 26.178C2 29.884 2.231 32.793 2.476 34.835C2.729 36.949 4.466 38.467 6.591 38.585C7.039 38.61 7.531 38.635 8.064 38.661" stroke="black" stroke-width="3" stroke-linecap="round" stroke-linejoin="round"/>
<path d="M29.025 38.969C25.6751 39.0091 22.3249 39.0091 18.975 38.969" stroke="black" stroke-width="3" stroke-linecap="round" stroke-linejoin="round"/>
<path d="M40.038 22.527C39.148 20.873 37.653 18.62 35.615 17.345C35.222 17.099 34.758 17 34.295 17H33C32.7348 17 32.4804 17.1054 32.2929 17.2929C32.1054 17.4804 32 17.7348 32 18V23.75C32 24.231 32.341 24.642 32.817 24.708C34.017 24.877 36.373 25.127 38.758 24.925C39.958 24.823 40.608 23.587 40.038 22.527Z" stroke="black" stroke-width="3" stroke-linecap="round" stroke-linejoin="round"/>
<path d="M29 39.5C29 40.9587 29.5795 42.3576 30.6109 43.3891C31.6424 44.4205 33.0413 45 34.5 45C35.9587 45 37.3576 44.4205 38.3891 43.3891C39.4205 42.3576 40 40.9587 40 39.5C40 38.0413 39.4205 36.6424 38.3891 35.6109C37.3576 34.5795 35.9587 34 34.5 34C33.0413 34 31.6424 34.5795 30.6109 35.6109C29.5795 36.6424 29 38.0413 29 39.5Z" stroke="black" stroke-width="3" stroke-linecap="round" stroke-linejoin="round"/>
<path d="M8 39.5C8 40.9587 8.57946 42.3576 9.61091 43.3891C10.6424 44.4205 12.0413 45 13.5 45C14.9587 45 16.3576 44.4205 17.3891 43.3891C18.4205 42.3576 19 40.9587 19 39.5C19 38.0413 18.4205 36.6424 17.3891 35.6109C16.3576 34.5795 14.9587 34 13.5 34C12.0413 34 10.6424 34.5795 9.61091 35.6109C8.57946 36.6424 8 38.0413 8 39.5Z" stroke="black" stroke-width="3" stroke-linecap="round" stroke-linejoin="round"/>
<path d="M17 11V23" stroke="black" stroke-width="3" stroke-linecap="round" stroke-linejoin="round"/>
<path d="M23 17H11" stroke="black" stroke-width="3" stroke-linecap="round" stroke-linejoin="round"/>
</svg>
