<svg width="48" height="48" viewBox="0 0 48 48" fill="none" xmlns="http://www.w3.org/2000/svg">
<path d="M24.0012 15.501C27.8674 15.501 31.0015 12.3669 31.0015 8.50071C31.0015 4.63452 27.8674 1.50037 24.0012 1.50037C20.135 1.50037 17.0009 4.63452 17.0009 8.50071C17.0009 12.3669 20.135 15.501 24.0012 15.501Z" stroke="black" stroke-width="2.0001" stroke-miterlimit="10" stroke-linecap="round" stroke-linejoin="round"/>
<path d="M28.4013 44.1018L24.0011 33.9013L19.6009 44.1018C19.0009 45.5019 17.4008 46.5019 16.0008 46.5019C15.4007 46.5019 14.8007 46.3019 14.4007 46.1019C12.4006 45.1019 11.6006 42.9018 12.4006 40.9017L18.6009 26.501V23.9008L7.60036 19.5006C5.60026 18.7006 4.60019 16.5005 5.40023 14.5004C6.25597 12.3611 8.40358 11.2215 10.6005 12.1003C12.7975 12.979 16.4008 14.5004 20.201 15.9004C21.433 16.4138 22.7179 16.6636 24.0011 16.65C25.2846 16.6636 26.5693 16.4138 27.8013 15.9004C31.6015 14.5004 35.2049 12.979 37.4018 12.1003C39.5987 11.2215 41.7464 12.3611 42.602 14.5004C43.4021 16.5005 42.402 18.7006 40.4019 19.5006L29.4014 23.9008V26.501L35.6017 40.9017C36.4017 42.9018 35.6017 45.1019 33.6016 46.1019C33.2016 46.3019 32.6016 46.5019 32.0015 46.5019C30.6015 46.5019 29.0014 45.5019 28.4013 44.1018Z" stroke="black" stroke-width="2.0001" stroke-miterlimit="10" stroke-linecap="round" stroke-linejoin="round"/>
<path d="M40.4021 19.4576C43.0022 19.8577 44.6023 22.4577 43.8022 24.6579C43.0022 26.658 40.8021 27.858 38.802 27.058" stroke="black" stroke-width="2.0001" stroke-miterlimit="10" stroke-linecap="round" stroke-linejoin="round"/>
<path d="M41.4019 40.9027C42.602 39.1026 42.002 36.5025 40.2019 35.5024L30.6014 29.3021" stroke="black" stroke-width="2.0001" stroke-miterlimit="10" stroke-linecap="round" stroke-linejoin="round"/>
<path d="M7.60047 19.4576C5.00034 19.8577 3.40026 22.4577 4.2003 24.6579C5.00034 26.658 7.20045 27.858 9.20054 27.058" stroke="black" stroke-width="2.0001" stroke-miterlimit="10" stroke-linecap="round" stroke-linejoin="round"/>
<path d="M6.60039 40.9027C5.40033 39.1026 6.00034 36.5025 7.80043 35.5024L17.4009 29.3021" stroke="black" stroke-width="2.0001" stroke-miterlimit="10" stroke-linecap="round" stroke-linejoin="round"/>
</svg>
