<svg width="48" height="48" viewBox="0 0 48 48" fill="none" xmlns="http://www.w3.org/2000/svg">
<path d="M10.7809 46.5028V33.9722C8.01723 31.4119 6.08983 28.0777 5.25041 24.4051C4.41097 20.7325 4.69853 16.892 6.07549 13.3853C7.45246 9.87866 9.85488 6.86867 12.969 4.74847C16.0831 2.62827 19.7642 1.49638 23.5315 1.50062C37.8102 1.50062 40.8924 13.2572 45.9826 26.4618C46.0698 26.6892 46.1004 26.9342 46.0718 27.1761C46.0434 27.4179 45.9564 27.6491 45.8186 27.8499C45.681 28.0505 45.4964 28.2147 45.2812 28.3283C45.0658 28.4419 44.826 28.5015 44.5825 28.5019H40.7824V34.5022C40.7824 36.0937 40.1501 37.6198 39.0249 38.745C37.8996 39.8703 36.3733 40.5025 34.7821 40.5025H31.7819V46.5028" stroke="black" stroke-width="2.0001" stroke-linecap="round" stroke-linejoin="round"/>
<path d="M20.7192 8.0412C21.8403 9.37748 22.5241 11.0256 22.6787 12.7629C22.8331 14.5003 22.4507 16.2432 21.5831 17.7563C20.8162 17.8159 20.0556 17.5822 19.4544 17.1025C18.8533 16.6228 18.4567 15.9328 18.3446 15.172C17.196 15.7993 16.2505 16.7418 15.6195 17.8884C14.9884 19.0351 14.6981 20.3381 14.7827 21.6442C14.7833 23.7055 15.6025 25.682 17.0603 27.1394C18.518 28.5967 20.4948 29.4153 22.5561 29.4153C24.6086 29.3875 26.5691 28.5599 28.0206 27.1086C29.4718 25.6572 30.2995 23.6967 30.3273 21.6442C30.5861 18.608 29.7639 15.5781 28.006 13.0892C26.2479 10.6002 23.6672 8.8124 20.7192 8.0412Z" stroke="black" stroke-width="2.0001" stroke-linecap="round" stroke-linejoin="round"/>
</svg>
