<svg width="48" height="48" viewBox="0 0 48 48" fill="none" xmlns="http://www.w3.org/2000/svg">
<g clip-path="url(#clip0_1210_2098)">
<path fill-rule="evenodd" clip-rule="evenodd" d="M41.06 12.5C41.0905 12.114 41.0905 11.7261 41.06 11.34C41.0999 10.9544 41.0999 10.5657 41.06 10.18C40.9421 9.63916 40.7747 9.11027 40.56 8.60003C40.6504 8.51378 40.7249 8.41221 40.78 8.30003C40.98 7.14003 39.04 7.16003 37.54 7.02003C36.04 6.88003 34 6.84002 32.24 6.74003C32.1178 6.07846 32.031 5.41084 31.98 4.74003C32.0025 4.65015 32.0057 4.55656 31.9897 4.46533C31.9736 4.3741 31.9384 4.28728 31.8866 4.21052C31.8347 4.13376 31.7673 4.06877 31.6887 4.01979C31.61 3.97081 31.522 3.93893 31.4302 3.92622C31.3384 3.91351 31.245 3.92027 31.1561 3.94604C31.0671 3.97182 30.9845 4.01603 30.9138 4.07582C30.843 4.1356 30.7856 4.20961 30.7453 4.29304C30.7051 4.37646 30.6828 4.46743 30.68 4.56003C30.44 5.22003 30.24 5.86003 30.06 6.56003C27.52 6.40003 24.96 6.24003 22.4 6.20003H21.4C21.3081 5.72456 21.2479 5.24349 21.22 4.76003C21.1809 4.63441 21.1051 4.52334 21.0025 4.44108C20.8998 4.35883 20.7749 4.30914 20.6437 4.29839C20.5126 4.28764 20.3813 4.31633 20.2666 4.38076C20.1519 4.4452 20.059 4.54245 20 4.66003C19.8 5.22003 19.64 5.76003 19.48 6.30003H17.02C15.8 6.30003 14.6 6.42003 13.38 6.50003C12.52 6.50003 11.66 6.68003 10.8 6.78003C10.7 6.12003 10.58 5.48003 10.52 4.78003C10.5283 4.62337 10.4805 4.4689 10.3852 4.34429C10.2899 4.21968 10.1533 4.13308 9.99999 4.10003C9.82777 4.07719 9.65349 4.12317 9.51495 4.22801C9.37642 4.33285 9.28481 4.48808 9.25999 4.66003C8.93527 5.42695 8.6874 6.22419 8.51999 7.04003L7.13999 7.20003C6.27999 7.20003 5.39999 7.34003 4.53999 7.38003C4.47094 7.30805 4.38648 7.25267 4.29295 7.21803C4.19942 7.18339 4.09926 7.17039 3.99999 7.18003C3.83097 7.16275 3.6618 7.21132 3.52769 7.31563C3.39357 7.41994 3.30485 7.57195 3.27999 7.74003C2.97177 8.549 2.744 9.38638 2.59999 10.24C2.56018 10.6056 2.56018 10.9744 2.59999 11.34C2.63225 11.7094 2.68567 12.0767 2.75999 12.44C2.95405 13.2819 3.22175 14.1051 3.55999 14.9C3.457 14.9833 3.38341 15.0974 3.34999 15.2256C3.31657 15.3538 3.32508 15.4893 3.37427 15.6123C3.42347 15.7353 3.51077 15.8393 3.62337 15.9091C3.73597 15.9788 3.86796 16.0107 3.99999 16C5.83999 16 7.59999 15.86 9.35999 15.88C11.82 15.88 14.28 16.12 16.76 16.24C18.4 16.24 20.08 16.36 21.74 16.4C23.4 16.44 25.18 16.4 26.88 16.4C30.88 16.28 34.88 15.98 38.88 15.8C41.16 15.68 40.7 14.26 41.06 12.5ZM38.78 14.24L21.8 14H16.46H12.88C10.2361 14.0934 7.59908 14.3271 4.97999 14.7V12.34V11.24C5.00969 10.914 5.00969 10.586 4.97999 10.26C4.97999 9.72003 4.81999 9.20003 4.73999 8.68003H8.39999C8.39019 8.85322 8.39019 9.02683 8.39999 9.20003C8.57436 10.0164 8.82893 10.8136 9.15999 11.58C9.20324 11.7717 9.31905 11.9392 9.48312 12.0473C9.6472 12.1555 9.84678 12.1959 10.04 12.16C10.2306 12.117 10.3965 12.0003 10.5014 11.8355C10.6063 11.6706 10.6418 11.4709 10.6 11.28C10.6 10.48 10.6 9.74003 10.72 8.96003V8.66003H13.36L18.78 8.76003H19.18V9.22003C19.3766 10.0248 19.6512 10.8085 20 11.56C20.0197 11.6533 20.0576 11.7417 20.1114 11.8203C20.1653 11.8989 20.2342 11.9661 20.314 12.0181C20.3939 12.0701 20.4832 12.1059 20.5769 12.1234C20.6705 12.1409 20.7668 12.1397 20.86 12.12C20.9532 12.1003 21.0417 12.0625 21.1203 12.0086C21.1989 11.9547 21.2661 11.8859 21.3181 11.806C21.3701 11.7261 21.4059 11.6368 21.4233 11.5431C21.4408 11.4495 21.4397 11.3533 21.42 11.26C21.42 10.46 21.42 9.72003 21.56 8.94002V8.76003H30V9.18003C30.1812 9.99705 30.4425 10.7942 30.78 11.56C30.8187 11.7501 30.9305 11.9175 31.0914 12.0259C31.2522 12.1344 31.4492 12.1754 31.64 12.14C31.8317 12.0968 31.9992 11.981 32.1073 11.8169C32.2155 11.6528 32.2558 11.4532 32.22 11.26C32.2195 10.4851 32.2596 9.71074 32.34 8.94002V8.74003H36.64C37.4023 8.75353 38.1633 8.80693 38.92 8.90002C38.92 9.38002 38.8 9.86002 38.76 10.36C38.72 10.86 38.76 11.06 38.76 11.42V12.48C38.76 12.84 38.88 13.76 38.96 14.48C38.86 14.28 38.84 14.24 38.78 14.24Z" fill="black"/>
<path fill-rule="evenodd" clip-rule="evenodd" d="M48 38.24C47.8658 37.7558 47.6988 37.2814 47.5 36.82L46 32C45.48 30.2 44.96 28.4 44.4 26.6C44.14 25.78 43.86 24.96 43.58 24.12C42.62 21.32 41.72 19.04 40.88 16.12C40.8485 16.0281 40.7992 15.9433 40.7349 15.8704C40.6706 15.7975 40.5926 15.738 40.5053 15.6953C40.418 15.6526 40.3231 15.6275 40.2261 15.6214C40.1292 15.6154 40.0319 15.6285 39.94 15.66C39.8481 15.6915 39.7633 15.7408 39.6904 15.8051C39.6175 15.8694 39.558 15.9474 39.5153 16.0347C39.4726 16.122 39.4475 16.2169 39.4414 16.3138C39.4354 16.4108 39.4485 16.5081 39.48 16.6C39.62 17.3 39.68 17.26 39.82 17.94C39.7085 17.9929 39.616 18.0789 39.5552 18.1863C39.4943 18.2936 39.4681 18.4172 39.48 18.54C39.58 21.18 39.76 23.9 39.92 26.54C39.92 27.68 40.06 28.8 40.12 29.94C40.1998 31.5323 40.1998 33.1277 40.12 34.72C40.2091 36.0034 40.142 37.2928 39.92 38.56C39.8243 38.8848 39.6557 39.1834 39.4269 39.433C39.1981 39.6826 38.9153 39.8765 38.6 40L37.2 40.38C37.0075 40.4096 36.833 40.5101 36.7108 40.6619C36.5887 40.8136 36.5277 41.0056 36.54 41.2C36.5651 41.3946 36.6644 41.5719 36.8172 41.6949C36.9701 41.8179 37.1646 41.8771 37.36 41.86L39.18 41.52C39.7417 41.3483 40.2586 41.055 40.6942 40.6609C41.1297 40.2669 41.4731 39.7817 41.7 39.24C42.1397 37.8342 42.3754 36.3727 42.4 34.9C42.59 32.8043 42.59 30.6957 42.4 28.6C42.82 29.9 43.26 31.2 43.66 32.6L45.66 37.38C45.76 37.58 46.62 38.54 46.24 38.6C46.0528 38.9063 45.7725 39.1446 45.44 39.28C44.9013 39.5353 44.3385 39.7363 43.76 39.88C43.6653 39.9034 43.5762 39.9452 43.4977 40.0032C43.4192 40.0612 43.353 40.1341 43.3028 40.2177C43.2526 40.3013 43.2195 40.3941 43.2053 40.4906C43.1911 40.5871 43.1961 40.6854 43.22 40.78C43.2433 40.8721 43.2846 40.9587 43.3415 41.0348C43.3985 41.1109 43.4699 41.1749 43.5517 41.2232C43.6335 41.2716 43.7241 41.3033 43.8182 41.3164C43.9123 41.3296 44.0081 41.324 44.1 41.3C44.9387 41.1737 45.7541 40.9244 46.52 40.56C47.1789 40.2528 47.6995 39.7108 47.98 39.04C48.072 38.7823 48.079 38.5019 48 38.24Z" fill="black"/>
<path fill-rule="evenodd" clip-rule="evenodd" d="M23.28 24C23.2561 23.7882 23.188 23.5838 23.08 23.4C22.9257 23.1778 22.6998 23.0154 22.44 22.94C22.1413 22.9013 21.8388 22.9013 21.54 22.94H19.54C19.1359 22.952 18.7367 23.0332 18.36 23.18C18.1298 23.2949 17.9462 23.4856 17.84 23.72C17.7772 23.9284 17.737 24.143 17.72 24.36V25.34V26.22H16.58C16.207 26.1982 15.833 26.1982 15.46 26.22C15.2565 26.2404 15.0593 26.3016 14.88 26.4C14.6718 26.5378 14.5166 26.7423 14.44 26.98C14.4129 27.2727 14.4129 27.5673 14.44 27.86L14.32 29.96C14.3286 30.3806 14.396 30.798 14.52 31.2C14.6522 31.4766 14.8793 31.6967 15.16 31.82C15.3597 31.8974 15.5678 31.9511 15.78 31.98H17.28V32.78C17.2482 33.1593 17.2482 33.5407 17.28 33.92C17.3015 34.1666 17.3766 34.4055 17.5 34.62C17.6787 34.8954 17.9473 35.1003 18.26 35.2C18.5699 35.2599 18.8844 35.2933 19.2 35.3H21.2C21.6571 35.2972 22.1103 35.216 22.54 35.06C22.8754 34.9047 23.1447 34.6354 23.3 34.3C23.4062 34.0459 23.4671 33.7751 23.48 33.5V32.52V32.22H24.18C24.5664 32.2409 24.9536 32.2409 25.34 32.22C25.5997 32.1763 25.85 32.0884 26.08 31.96C26.373 31.7686 26.5863 31.4772 26.68 31.14C26.7073 30.8206 26.7073 30.4994 26.68 30.18V28C26.6621 27.5473 26.5674 27.101 26.4 26.68C26.2454 26.3654 25.9827 26.1169 25.66 25.98C25.4179 25.8828 25.1607 25.8287 24.9 25.82H23.9H23.24V24.98C23.2748 24.6546 23.2881 24.3272 23.28 24ZM24 28.12H24.46V29.64H22.46C22.2981 29.6373 22.1373 29.6669 21.987 29.7271C21.8367 29.7872 21.6998 29.8766 21.5844 29.9902C21.469 30.1037 21.3773 30.2391 21.3148 30.3885C21.2522 30.5378 21.22 30.6981 21.22 30.86V32.32V32.8H19.5C19.4922 32.7269 19.4922 32.6531 19.5 32.58V30.84C19.5027 30.7034 19.4784 30.5677 19.4285 30.4405C19.3787 30.3133 19.3043 30.1971 19.2096 30.0987C19.1149 30.0003 19.0017 29.9214 18.8765 29.8668C18.7513 29.8121 18.6166 29.7826 18.48 29.78H17.3H16.1V29.56V27.66L16.62 27.56C19.54 27.56 19.02 27.56 19.14 25.2V24.42H19.56L21.26 24.52V25.04V26.9C21.26 27.1724 21.3668 27.4339 21.5575 27.6284C21.7482 27.8229 22.0077 27.9348 22.28 27.94L24 28.12Z" fill="black"/>
<path fill-rule="evenodd" clip-rule="evenodd" d="M20.66 18.84C17.9129 18.7255 15.2294 19.687 13.18 21.52C11.0327 23.2489 9.49158 25.6166 8.78 28.28C8.33041 29.9368 8.33041 31.6833 8.78 33.34C9.32547 35.065 10.4669 36.5396 12 37.5C12.8011 38.0437 13.6769 38.4681 14.6 38.76C15.486 39.0532 16.3962 39.2674 17.32 39.4C19.8494 39.7289 22.4203 39.3408 24.74 38.28C27.0816 37.2541 29.0655 35.5556 30.44 33.4C31.6929 31.3932 32.2743 29.0395 32.1 26.68C32.0186 25.4685 31.6519 24.2934 31.0297 23.2506C30.4075 22.2079 29.5476 21.327 28.52 20.68C28.141 20.4405 27.739 20.2395 27.32 20.08C26.716 19.8489 26.0939 19.6682 25.46 19.54C25.2746 19.4969 25.0797 19.5269 24.9158 19.6237C24.7519 19.7205 24.6316 19.8768 24.58 20.06C24.5561 20.1546 24.5511 20.253 24.5653 20.3495C24.5795 20.446 24.6127 20.5387 24.6628 20.6223C24.713 20.706 24.7792 20.7789 24.8577 20.8368C24.9362 20.8948 25.0253 20.9367 25.12 20.96C25.5826 21.0765 26.0369 21.2235 26.48 21.4C26.8951 21.5622 27.2909 21.7702 27.66 22.02C28.433 22.5557 29.0693 23.2656 29.5174 24.0925C29.9656 24.9193 30.2131 25.8399 30.24 26.78C30.3039 28.7118 29.7427 30.6126 28.64 32.2C27.4214 33.9099 25.7333 35.2298 23.78 36C21.8561 36.8378 19.7403 37.1351 17.66 36.86C16.8859 36.7558 16.1228 36.5817 15.38 36.34C14.6737 36.1103 14.0011 35.7875 13.38 35.38C12.2888 34.7438 11.454 33.7463 11.02 32.56C10.593 31.2693 10.5239 29.8869 10.82 28.56C11.2985 26.2402 12.5118 24.1362 14.28 22.56C15.9587 20.8971 18.2173 19.9507 20.58 19.92C20.6749 19.9368 20.7723 19.9325 20.8654 19.9075C20.9585 19.8826 21.0449 19.8375 21.1188 19.7756C21.1926 19.7136 21.2519 19.6363 21.2926 19.5489C21.3334 19.4616 21.3545 19.3664 21.3545 19.27C21.3545 19.1737 21.3334 19.0785 21.2926 18.9912C21.2519 18.9038 21.1926 18.8265 21.1188 18.7645C21.0449 18.7026 20.9585 18.6575 20.8654 18.6326C20.7723 18.6076 20.6749 18.6033 20.58 18.62L20.66 18.84Z" fill="black"/>
<path fill-rule="evenodd" clip-rule="evenodd" d="M38.92 30C39.1 28.74 39.24 27.48 39.32 26.22C39.4155 23.2828 39.3086 20.3426 39 17.42C39 17.2503 38.9326 17.0875 38.8125 16.9675C38.6925 16.8475 38.5297 16.7801 38.36 16.7801C38.1903 16.7801 38.0275 16.8475 37.9075 16.9675C37.7874 17.0875 37.72 17.2503 37.72 17.42C37.62 20.3 37.3 23.24 36.92 26.22C36.68 28.22 36.42 30.06 36.04 31.96C35.5569 34.8779 34.7381 37.7302 33.6 40.46C32.1776 41.0337 30.6712 41.3715 29.14 41.46C26.56 41.68 23.86 41.46 21.54 41.62H17.32C15.92 41.62 14.5 41.62 13.08 41.46L7.88 41.14C7.38 41.14 6.92 41.02 6.42 40.94C5.92 40.86 5.52 40.7201 5.08 40.5801L3.56 40L2.8 39.5C2.64206 39.3748 2.5266 39.2039 2.46933 39.0106C2.41207 38.8173 2.41579 38.6111 2.48 38.42C2.80688 37.2557 3.20769 36.1134 3.68 35C3.94 34.1 4.14 33.18 4.34 32.26C4.64 30.9 4.86 29.54 5.1 28.26C5.38215 26.7366 5.51611 25.1894 5.5 23.64C5.44853 21.3783 5.26824 19.1213 4.96 16.88C4.95522 16.7948 4.93291 16.7116 4.89446 16.6354C4.85601 16.5592 4.80225 16.4918 4.73654 16.4373C4.67083 16.3829 4.59459 16.3426 4.51259 16.319C4.43059 16.2953 4.3446 16.2889 4.26 16.3C4.17582 16.3076 4.09395 16.3317 4.01914 16.371C3.94433 16.4103 3.87805 16.4641 3.82412 16.5292C3.7702 16.5943 3.7297 16.6694 3.70496 16.7502C3.68022 16.831 3.67174 16.9159 3.68 17C3.85934 19.1952 3.91943 21.3984 3.86 23.6C3.79965 25.0362 3.59869 26.4631 3.26 27.8601C2.94 29.18 2.62 30.5201 2.26 31.8601C2.04 32.7201 1.8 33.58 1.5 34.44C0.804086 35.8184 0.299434 37.2853 -4.45289e-07 38.8C-0.00861526 39.2949 0.0969714 39.7851 0.308558 40.2326C0.520144 40.68 0.832034 41.0727 1.22 41.3801L2.42 42.18L4.28 42.98C4.84207 43.1627 5.417 43.3031 6 43.4001C6.58 43.5201 7.12 43.58 7.68 43.64L13.06 43.8801H17.4C18.84 43.8801 20.3 43.76 21.74 43.62C24.06 43.42 26.78 43.46 29.38 43.14C31.1688 42.8277 32.9383 42.4137 34.68 41.9001C36.2044 39.3361 37.375 36.5778 38.16 33.7001C38.4824 32.4819 38.7361 31.2466 38.92 30Z" fill="black"/>
</g>
<defs>
<clipPath id="clip0_1210_2098">
<rect width="48" height="48" fill="white"/>
</clipPath>
</defs>
</svg>
