<svg width="48" height="48" viewBox="0 0 48 48" fill="none" xmlns="http://www.w3.org/2000/svg">
<path d="M18.332 9.04C18.5109 9.03713 18.6816 8.96438 18.8075 8.83731C18.9335 8.71023 19.0047 8.53892 19.006 8.36C19.006 8.265 19.008 8.171 19.009 8.079C19.047 5.215 21.136 3 24 3C26.864 3 28.953 5.215 28.991 8.079L28.994 8.361C28.9958 8.53957 29.0673 8.71037 29.1932 8.83702C29.3191 8.96367 29.4894 9.03614 29.668 9.039C33.378 9.095 36.615 11.355 36.968 14.919C36.9721 14.9643 36.9927 15.0065 37.0259 15.0377C37.0591 15.0688 37.1025 15.0867 37.148 15.088C37.9109 15.1006 38.638 15.4134 39.1719 15.9584C39.7057 16.5035 40.0033 17.237 40 18C40.0033 18.7631 39.7056 19.4968 39.1715 20.0419C38.6374 20.587 37.91 20.8996 37.147 20.912C34.545 20.952 30.163 21 24 21C17.837 21 13.455 20.952 10.853 20.912C10.09 20.8996 9.36255 20.587 8.82848 20.0419C8.29441 19.4968 7.99674 18.7631 8 18C7.99674 17.2369 8.29441 16.5032 8.82848 15.9581C9.36255 15.413 10.09 15.1004 10.853 15.088C10.8983 15.0867 10.9416 15.069 10.9748 15.038C11.0079 15.0071 11.0286 14.9651 11.033 14.92C11.386 11.355 14.623 9.095 18.332 9.04Z" stroke="black" stroke-width="3" stroke-linecap="round" stroke-linejoin="round"/>
<path d="M11.204 20.918C10.467 25.909 9.50699 33.754 9.66599 39.891C9.73099 42.377 11.612 44.317 14.086 44.561C16.405 44.789 19.709 45.001 24 45.001C28.291 45.001 31.596 44.789 33.914 44.561C36.389 44.317 38.27 42.377 38.334 39.891C38.494 33.754 37.534 25.909 36.797 20.918" stroke="black" stroke-width="3" stroke-linecap="round" stroke-linejoin="round"/>
<path d="M32 27H29" stroke="black" stroke-width="3" stroke-linecap="round" stroke-linejoin="round"/>
<path d="M32 33H29" stroke="black" stroke-width="3" stroke-linecap="round" stroke-linejoin="round"/>
<path d="M32 39H29" stroke="black" stroke-width="3" stroke-linecap="round" stroke-linejoin="round"/>
</svg>
