<svg width="48" height="48" viewBox="0 0 48 48" fill="none" xmlns="http://www.w3.org/2000/svg">
<g clip-path="url(#clip0_1210_2093)">
<path fill-rule="evenodd" clip-rule="evenodd" d="M28 9.00003C28.24 9.34003 28.5 9.66003 28.76 9.98003C29.42 10.76 32 13.98 32.64 14.68C32.754 14.8462 32.9264 14.9632 33.1229 15.0077C33.3195 15.0522 33.5255 15.0209 33.7 14.92C33.8667 14.8062 33.9828 14.6321 34.0238 14.4344C34.0648 14.2367 34.0276 14.0308 33.92 13.86C33.52 12.94 31.24 9.54003 30.76 8.62003C30.5293 8.23818 30.2755 7.87083 30 7.52003C29.7669 7.16117 29.4989 6.82621 29.2 6.52003C28.8278 6.11179 28.4267 5.73081 28 5.38003C27.14 5.08003 26.14 5.96003 26.48 6.38003C26.82 6.80003 26.96 7.30003 27.34 7.96003C27.5367 8.3209 27.7572 8.66833 28 9.00003Z" fill="black"/>
<path fill-rule="evenodd" clip-rule="evenodd" d="M47.32 17.78C46.1629 14.7062 44.6599 11.774 42.84 9.04001C42.3 8.12001 41.74 7.24001 41.12 6.38001C40.6912 5.78948 40.2235 5.22824 39.72 4.70001C38.7074 3.57403 37.4844 2.65683 36.12 2.00001C34.7332 1.32474 33.2013 1.00188 31.66 1.06001C30.3752 1.15982 29.1269 1.53498 28 2.16001C26.4554 3.0719 25.0021 4.1301 23.66 5.32001C21.66 6.94001 18.68 9.04001 16.18 11.1C15.1346 11.9188 14.1518 12.8146 13.24 13.78H13.08C11.5444 13.4235 9.934 13.5853 8.49998 14.24C7.80202 14.7343 7.27248 15.4307 6.98279 16.2354C6.6931 17.0401 6.65722 17.9143 6.87998 18.74C6.94934 19.3614 7.13238 19.9648 7.41998 20.52V20.64C6.60135 21.4092 5.92437 22.3163 5.41998 23.32C4.6847 24.8486 4.40689 26.5572 4.61998 28.24C4.73998 29.18 4.99998 29.86 5.09998 30.6C5.17863 30.9894 5.17863 31.3906 5.09998 31.78C4.6884 33.0792 3.91061 34.232 2.85998 35.1C2.04261 35.8799 1.33604 36.7682 0.759977 37.74C0.0896064 38.9588 -0.149979 40.3681 0.0799769 41.74C0.146854 42.1476 0.247194 42.5489 0.379977 42.94C0.526109 43.3133 0.713968 43.6689 0.939977 44L2.09998 45.54C2.59589 46.0821 3.2315 46.477 3.9371 46.6817C4.64269 46.8863 5.39101 46.8926 6.09998 46.7C7.38186 46.1829 8.53043 45.383 9.45998 44.36C10.1557 43.6225 11.0309 43.0781 12 42.78C12.4423 42.6922 12.8976 42.6922 13.34 42.78C14.6724 43.2737 16.0352 43.6812 17.42 44C18.722 44.0889 20.0285 43.912 21.26 43.48C22.321 43.0799 23.3182 42.5275 24.22 41.84C25.6329 42.4874 27.2094 42.6897 28.74 42.42C29.7432 42.166 30.6408 41.6021 31.305 40.8086C31.9693 40.0151 32.3665 39.0323 32.44 38C33.84 36.82 36.26 34.84 38.56 33.02C40.24 31.68 41.84 30.46 42.86 29.76C43.9777 29.0275 45.0284 28.1976 46 27.28C46.744 26.5743 47.3007 25.6945 47.62 24.72C48.2064 22.4277 48.102 20.0132 47.32 17.78ZM20.74 41.78C19.7143 42.0775 18.637 42.1525 17.58 42C16.2765 41.6634 14.9942 41.2493 13.74 40.76C13.0292 40.5378 12.2792 40.4696 11.54 40.56C10.1739 40.885 8.92229 41.5765 7.91998 42.56C7.20855 43.288 6.35849 43.866 5.41998 44.26C5.12347 44.304 4.8206 44.2678 4.54277 44.1553C4.26495 44.0428 4.02229 43.8579 3.83998 43.62L3.11998 42.62C2.98579 42.4216 2.87821 42.2064 2.79998 41.98C2.71889 41.739 2.65867 41.4914 2.61998 41.24C2.46492 40.4136 2.5991 39.5591 2.99998 38.82C3.62907 37.7917 4.37392 36.8388 5.21998 35.98C6.24791 34.8602 6.94086 33.4743 7.21998 31.98C7.30955 31.484 7.30955 30.976 7.21998 30.48C7.11998 29.56 6.71998 28.84 6.49998 27.74C6.24747 26.3959 6.3863 25.0075 6.89998 23.74C7.20837 23.2059 7.57749 22.7093 7.99998 22.26C7.99998 22.26 7.99998 22.4 7.99998 22.46C9.06407 24.2814 10.2258 26.0439 11.48 27.74C13.32 30.3 15.32 32.78 17.24 35.2C18.24 36.44 19.24 37.9 20.52 39.2C21.1703 39.8755 21.9026 40.4667 22.7 40.96C22.0829 41.3231 21.425 41.6118 20.74 41.82V41.78ZM30 37.52C29.9837 38.0776 29.7938 38.6163 29.4568 39.0608C29.1198 39.5054 28.6525 39.8337 28.12 40C26.8499 40.188 25.5531 39.9637 24.42 39.36C23.5234 38.9081 22.7061 38.3137 22 37.6C20.8 36.44 19.72 35.08 18.72 33.92C16.72 31.6 14.6 29.26 12.72 26.78C8.47998 21.4 8.51998 18.62 8.51998 18.52C8.37998 17.04 8.65998 16.16 9.37998 15.74C10.484 15.3753 11.676 15.3753 12.78 15.74C13.1299 15.7814 13.4729 15.8688 13.8 16C14.38 16.28 14.94 16.62 15.5 16.9C16.447 17.3849 17.3276 17.9899 18.12 18.7C19.3259 19.8597 20.4486 21.1027 21.48 22.42C23.06 24.42 24.56 26.26 25.94 28.28C26.8564 29.616 27.7042 30.9978 28.48 32.42C29.0522 33.4111 29.5086 34.4647 29.84 35.56C30.0215 36.1965 30.0759 36.8625 30 37.52ZM45.5 24.14C45.3048 24.7598 44.9616 25.3227 44.5 25.78C43.6332 26.6003 42.6963 27.3431 41.7 28C40.68 28.76 39.1 30 37.42 31.5C35.74 33 33.84 34.58 32.46 35.8C32.46 35.52 32.46 35.2 32.34 34.92C31.9514 33.6067 31.4076 32.3445 30.72 31.16C29.7013 29.2772 28.5448 27.4723 27.26 25.76C26.02 24.08 24.64 22.48 23.26 20.88C22.1155 19.5105 20.865 18.2332 19.52 17.06C18.5698 16.2528 17.5133 15.5798 16.38 15.06L14.7 14.26C15.38 13.62 16.16 12.96 17.02 12.26C20.78 9.40001 22.02 8.26001 24.66 6.62001C24.66 6.62001 28.66 4.22001 28.9 4.10001C29.7749 3.65379 30.7382 3.40785 31.72 3.38001C32.8737 3.39271 34.0068 3.68799 35.02 4.24001C36.0885 4.78393 37.0505 5.51558 37.86 6.40001C38.3794 6.99356 38.8668 7.61445 39.32 8.26001C39.78 8.94001 40.22 9.64001 40.62 10.26C42.3728 12.8549 43.8413 15.6309 45 18.54C45.6934 20.323 45.8464 22.2706 45.44 24.14H45.5Z" fill="black"/>
<path fill-rule="evenodd" clip-rule="evenodd" d="M22.48 12.78C22.74 13.08 23 13.36 23.28 13.64C23.96 14.34 26.54 17.46 27.18 18.14C27.2364 18.2227 27.3086 18.2935 27.3925 18.3483C27.4763 18.4032 27.5701 18.4409 27.6685 18.4595C27.767 18.4781 27.8681 18.4771 27.9661 18.4566C28.0642 18.4361 28.1572 18.3965 28.24 18.34C28.3227 18.2835 28.3935 18.2113 28.4483 18.1275C28.5031 18.0436 28.5409 17.9498 28.5595 17.8514C28.5781 17.753 28.5771 17.6519 28.5566 17.5538C28.536 17.4558 28.4964 17.3627 28.44 17.28C28 16.4 25.7 13.02 25.18 12.16C24.9561 11.7927 24.7019 11.4448 24.42 11.12C24.1457 10.7892 23.8447 10.4815 23.52 10.2C23.015 9.79718 22.4645 9.45485 21.88 9.17999C20.96 9.01999 20.16 9.95999 20.72 10.54C21.28 11.12 21.28 11.3 21.74 11.9C22 12.2 22.22 12.5 22.48 12.78Z" fill="black"/>
</g>
<defs>
<clipPath id="clip0_1210_2093">
<rect width="48" height="48" fill="white"/>
</clipPath>
</defs>
</svg>
