<svg width="48" height="48" viewBox="0 0 48 48" fill="none" xmlns="http://www.w3.org/2000/svg">
<path d="M30.7083 46.0417H17.2917C16.275 46.0417 15.3 45.6378 14.5811 44.9189C13.8622 44.2 13.4583 43.225 13.4583 42.2084V23.0417H34.5417V42.2084C34.5417 42.7118 34.4425 43.2102 34.2499 43.6753C34.0572 44.1404 33.7749 44.563 33.4189 44.9189C33.0629 45.2749 32.6404 45.5572 32.1753 45.7499C31.7102 45.9425 31.2117 46.0417 30.7083 46.0417Z" stroke="black" stroke-width="2" stroke-linecap="round" stroke-linejoin="round"/>
<path d="M26.875 4.83331C26.875 4.07082 26.5721 3.33955 26.0329 2.80038C25.4938 2.26121 24.7625 1.95831 24 1.95831C23.2375 1.95831 22.5062 2.26121 21.9671 2.80038C21.4279 3.33955 21.125 4.07082 21.125 4.83331C21.125 13.3299 15.375 10.6236 15.375 17.2916H32.625C32.625 10.6236 26.875 13.328 26.875 4.83331Z" stroke="black" stroke-width="2" stroke-linecap="round" stroke-linejoin="round"/>
<path d="M9.625 20.1667C9.625 20.9292 9.9279 21.6605 10.4671 22.1996C11.0062 22.7388 11.7375 23.0417 12.5 23.0417H35.5C36.2625 23.0417 36.9938 22.7388 37.5329 22.1996C38.0721 21.6605 38.375 20.9292 38.375 20.1667C38.375 19.4042 38.0721 18.6729 37.5329 18.1338C36.9938 17.5946 36.2625 17.2917 35.5 17.2917H12.5C11.7375 17.2917 11.0062 17.5946 10.4671 18.1338C9.9279 18.6729 9.625 19.4042 9.625 20.1667Z" stroke="black" stroke-width="2" stroke-linecap="round" stroke-linejoin="round"/>
<path d="M28.7917 28.7917H34.5417" stroke="black" stroke-width="2" stroke-linecap="round" stroke-linejoin="round"/>
<path d="M28.7917 34.5417H34.5417" stroke="black" stroke-width="2" stroke-linecap="round" stroke-linejoin="round"/>
<path d="M28.7917 40.2917H34.5417" stroke="black" stroke-width="2" stroke-linecap="round" stroke-linejoin="round"/>
</svg>
