<svg width="48" height="48" viewBox="0 0 48 48" fill="none" xmlns="http://www.w3.org/2000/svg">
<path d="M24.0988 39.5164C28.0532 35.0112 23.9652 31.1868 24.5376 25.5852C25.257 18.5432 32.5418 19.0243 31.8611 12.4856C30.8573 2.84095 11.0329 6.34878 7.88552 24.2885C4.83615 41.6691 18.3126 46.1083 24.0988 39.5164Z" stroke="black" stroke-width="2.0001" stroke-linecap="round" stroke-linejoin="round"/>
<path d="M44.4429 34.9908C44.9905 31.9064 43.8269 29.1209 40.8171 28.5865C37.8074 28.0522 35.7559 30.2669 35.2085 33.3513C34.6608 36.4354 35.7967 39.2162 38.8342 39.7554C41.7616 40.2752 43.8955 38.0749 44.4429 34.9908Z" stroke="black" stroke-width="2.0001" stroke-linecap="round" stroke-linejoin="round"/>
<path d="M20.1998 32.7882C20.5348 30.9015 19.6466 29.1662 17.4756 28.7808C15.3044 28.3954 13.8732 29.7189 13.5383 31.6055C13.2033 33.4922 14.0714 35.2239 16.2626 35.6129C18.3743 35.988 19.8649 34.6749 20.1998 32.7882Z" stroke="black" stroke-width="2.0001" stroke-linecap="round" stroke-linejoin="round"/>
<path d="M22.3791 17.7522C23.8848 17.5167 24.9606 16.4003 24.6896 14.6676C24.4186 12.9349 23.0533 12.2003 21.5477 12.4358C20.0418 12.6713 18.9635 13.7717 19.237 15.5204C19.5006 17.2058 20.8734 17.9877 22.3791 17.7522Z" stroke="black" stroke-width="2.0001" stroke-linecap="round" stroke-linejoin="round"/>
<path d="M14.5102 23.1803C14.1835 23.1803 13.9186 22.9155 13.9186 22.5887C13.9186 22.2621 14.1835 21.9973 14.5102 21.9973" stroke="black" stroke-width="2.0001" stroke-linecap="round" stroke-linejoin="round"/>
<path d="M14.5103 23.1803C14.837 23.1803 15.1018 22.9155 15.1018 22.5887C15.1018 22.2621 14.837 21.9973 14.5103 21.9973" stroke="black" stroke-width="2.0001" stroke-linecap="round" stroke-linejoin="round"/>
<path d="M40.4178 33.7764C40.091 33.7764 39.8262 33.5116 39.8262 33.1849C39.8262 32.8583 40.091 32.5933 40.4178 32.5933" stroke="black" stroke-width="2.0001" stroke-linecap="round" stroke-linejoin="round"/>
<path d="M40.4178 33.7764C40.7446 33.7764 41.0094 33.5116 41.0094 33.1849C41.0094 32.8583 40.7446 32.5933 40.4178 32.5933" stroke="black" stroke-width="2.0001" stroke-linecap="round" stroke-linejoin="round"/>
<path d="M27.1077 7.42994L27.4729 3.30298" stroke="black" stroke-width="2.0001" stroke-linecap="round" stroke-linejoin="round"/>
<path d="M21.4152 7.8121L20.5836 3.92432" stroke="black" stroke-width="2.0001" stroke-linecap="round" stroke-linejoin="round"/>
<path d="M30.7589 9.59254L35.0109 7.43036" stroke="black" stroke-width="2.0001" stroke-linecap="round" stroke-linejoin="round"/>
<path d="M31.9066 13.4149L35.5804 13.8954" stroke="black" stroke-width="2.0001" stroke-linecap="round" stroke-linejoin="round"/>
<path d="M28.766 18.7877L31.5625 21.0077" stroke="black" stroke-width="2.0001" stroke-linecap="round" stroke-linejoin="round"/>
<path d="M24.5274 25.8291L28.5312 26.7011" stroke="black" stroke-width="2.0001" stroke-linecap="round" stroke-linejoin="round"/>
<path d="M25.6489 33.3393L28.8798 33.1893" stroke="black" stroke-width="2.0001" stroke-linecap="round" stroke-linejoin="round"/>
<path d="M24.9494 38.3649L29.0048 40.6114" stroke="black" stroke-width="2.0001" stroke-linecap="round" stroke-linejoin="round"/>
<path d="M16.869 45.995V42.4222" stroke="black" stroke-width="2.0001" stroke-linecap="round" stroke-linejoin="round"/>
<path d="M39.8257 28.4865V26.0381" stroke="black" stroke-width="2.0001" stroke-linecap="round" stroke-linejoin="round"/>
<path d="M36.4347 30.3702L35.2693 28.6964" stroke="black" stroke-width="2.0001" stroke-linecap="round" stroke-linejoin="round"/>
<path d="M35.0815 35.4295L32.7808 36.3119" stroke="black" stroke-width="2.0001" stroke-linecap="round" stroke-linejoin="round"/>
<path d="M37.6686 39.4062L35.9506 41.4623" stroke="black" stroke-width="2.0001" stroke-linecap="round" stroke-linejoin="round"/>
<path d="M41.4662 39.4392L42.4824 41.4635" stroke="black" stroke-width="2.0001" stroke-linecap="round" stroke-linejoin="round"/>
<path d="M44.2618 35.8709L46.1087 36.4913" stroke="black" stroke-width="2.0001" stroke-linecap="round" stroke-linejoin="round"/>
<path d="M43.3309 29.923L45.0286 28.8315" stroke="black" stroke-width="2.0001" stroke-linecap="round" stroke-linejoin="round"/>
<path d="M9.32832 43.7013L12.2443 40.572" stroke="black" stroke-width="2.0001" stroke-linecap="round" stroke-linejoin="round"/>
<path d="M5.48637 37.7781L8.71429 35.9078" stroke="black" stroke-width="2.0001" stroke-linecap="round" stroke-linejoin="round"/>
<path d="M3.47627 31.2493L7.49697 30.6108" stroke="black" stroke-width="2.0001" stroke-linecap="round" stroke-linejoin="round"/>
<path d="M3.71164 24.5204L7.73235 25.1454" stroke="black" stroke-width="2.0001" stroke-linecap="round" stroke-linejoin="round"/>
<path d="M4.80054 17.0473L9.28951 19.3112" stroke="black" stroke-width="2.0001" stroke-linecap="round" stroke-linejoin="round"/>
<path d="M9.16924 11.3721L12.4318 13.8946" stroke="black" stroke-width="2.0001" stroke-linecap="round" stroke-linejoin="round"/>
<path d="M14.6462 6.71088L16.869 9.83823" stroke="black" stroke-width="2.0001" stroke-linecap="round" stroke-linejoin="round"/>
<path d="M23.1705 44.804L21.4932 41.5316" stroke="black" stroke-width="2.0001" stroke-linecap="round" stroke-linejoin="round"/>
</svg>
