<svg width="48" height="48" viewBox="0 0 48 48" fill="none" xmlns="http://www.w3.org/2000/svg">
<path d="M14.4917 7.125H7.125V25.875C7.125 34.1593 13.8407 40.875 22.125 40.875H27.75C34.9988 40.875 40.875 34.9988 40.875 27.75V27.0514C40.875 20.1885 35.3115 14.625 28.4486 14.625C26.8007 14.625 25.2204 13.9704 24.0551 12.8052L21.1209 9.87088C19.3627 8.11271 16.9781 7.125 14.4917 7.125Z" stroke="black" stroke-width="3"/>
<path d="M24.7842 25.7217C24.0792 26.4267 23.6831 27.3829 23.6831 28.38C23.6831 29.377 24.0792 30.3333 24.7842 31.0383C25.4892 31.7433 26.4454 32.1394 27.4425 32.1394C28.4395 32.1394 29.3957 31.7433 30.1008 31.0383C30.4499 30.6892 30.7268 30.2748 30.9157 29.8186C31.1046 29.3625 31.2019 28.8737 31.2019 28.38C31.2019 27.8863 31.1046 27.3975 30.9157 26.9413C30.7268 26.4852 30.4499 26.0708 30.1008 25.7217C29.7517 25.3726 29.3372 25.0957 28.8811 24.9068C28.425 24.7179 27.9362 24.6206 27.4425 24.6206C26.9488 24.6206 26.4599 24.7179 26.0038 24.9068C25.5477 25.0957 25.1333 25.3726 24.7842 25.7217Z" stroke="black" stroke-width="3"/>
<path d="M16.5 24V27.75" stroke="black" stroke-width="3"/>
<path d="M14.625 14.625V18.375" stroke="black" stroke-width="3"/>
<path d="M7.125 7.125L4.3125 4.3125" stroke="black" stroke-width="3"/>
<path d="M12.75 7.125V1.5" stroke="black" stroke-width="3"/>
<path d="M1.5 12.75H7.125" stroke="black" stroke-width="3"/>
<path d="M1.5 22.125H7.125" stroke="black" stroke-width="3"/>
<path d="M2.4375 32.4375L7.83853 30.2771" stroke="black" stroke-width="3"/>
<path d="M7.125 40.875L11.5704 36.4297" stroke="black" stroke-width="3"/>
<path d="M19.1685 7.91441L23.0625 3.375" stroke="black" stroke-width="3"/>
<path d="M26.1167 14.181L29.0918 8.0625" stroke="black" stroke-width="3"/>
<path d="M34.4957 16.1336L37.125 10.875" stroke="black" stroke-width="3"/>
<path d="M39.2578 21.0156L44.625 17.4375" stroke="black" stroke-width="3"/>
<path d="M40.875 27.75H46.5" stroke="black" stroke-width="3"/>
<path d="M38.6372 35.0323L43.6875 38.0625" stroke="black" stroke-width="3"/>
<path d="M33.2297 39.6953L36.1875 44.625" stroke="black" stroke-width="3"/>
<path d="M25.875 40.875V46.5" stroke="black" stroke-width="3"/>
<path d="M17.692 40.239L15.5625 45.5625" stroke="black" stroke-width="3"/>
</svg>
