<svg width="48" height="48" viewBox="0 0 48 48" fill="none" xmlns="http://www.w3.org/2000/svg">
<g clip-path="url(#clip0_1209_7321)">
<path d="M33.057 23.45C41.041 32.174 36.452 43 23.331 43C13.989 43 7 36.503 7 27.007C7 17.511 14.37 2.475 25.97 5.362C36.952 9.514 28.789 17.877 33.057 23.45Z" stroke="black" stroke-width="3" stroke-linecap="round" stroke-linejoin="round"/>
<path d="M22 32.5C22 33.6935 22.4741 34.8381 23.318 35.682C24.1619 36.5259 25.3065 37 26.5 37C27.6935 37 28.8381 36.5259 29.682 35.682C30.5259 34.8381 31 33.6935 31 32.5C31 31.3065 30.5259 30.1619 29.682 29.318C28.8381 28.4741 27.6935 28 26.5 28C25.3065 28 24.1619 28.4741 23.318 29.318C22.4741 30.1619 22 31.3065 22 32.5Z" stroke="black" stroke-width="3" stroke-linecap="round" stroke-linejoin="round"/>
<path d="M19 14.5C19 15.4283 19.3687 16.3185 20.0251 16.9749C20.6815 17.6313 21.5717 18 22.5 18C23.4283 18 24.3185 17.6313 24.9749 16.9749C25.6313 16.3185 26 15.4283 26 14.5C26 13.5717 25.6313 12.6815 24.9749 12.0251C24.3185 11.3687 23.4283 11 22.5 11C21.5717 11 20.6815 11.3687 20.0251 12.0251C19.3687 12.6815 19 13.5717 19 14.5Z" stroke="black" stroke-width="3" stroke-linecap="round" stroke-linejoin="round"/>
<path d="M23.275 5V2" stroke="black" stroke-width="3" stroke-linecap="round" stroke-linejoin="round"/>
<path d="M18 6.24L16.777 3.5" stroke="black" stroke-width="3" stroke-linecap="round" stroke-linejoin="round"/>
<path d="M28.128 6.36001L29.844 3.89801" stroke="black" stroke-width="3" stroke-linecap="round" stroke-linejoin="round"/>
<path d="M31.95 14.943L34.945 15.121" stroke="black" stroke-width="3" stroke-linecap="round" stroke-linejoin="round"/>
<path d="M13.282 9.99999L10.962 8.09799" stroke="black" stroke-width="3" stroke-linecap="round" stroke-linejoin="round"/>
<path d="M31.391 9.687L34.289 8.91" stroke="black" stroke-width="3" stroke-linecap="round" stroke-linejoin="round"/>
<path d="M32.112 21.666L34.882 20.516" stroke="black" stroke-width="3" stroke-linecap="round" stroke-linejoin="round"/>
<path d="M35.614 27.033L38.384 25.883" stroke="black" stroke-width="3" stroke-linecap="round" stroke-linejoin="round"/>
<path d="M37 32H40" stroke="black" stroke-width="3" stroke-linecap="round" stroke-linejoin="round"/>
<path d="M32.85 40.383L34.97 42.503" stroke="black" stroke-width="3" stroke-linecap="round" stroke-linejoin="round"/>
<path d="M28.581 42.347L29.623 45.16" stroke="black" stroke-width="3" stroke-linecap="round" stroke-linejoin="round"/>
<path d="M36 36.752L38.728 38" stroke="black" stroke-width="3" stroke-linecap="round" stroke-linejoin="round"/>
<path d="M11.606 38.52L9.48401 40.64" stroke="black" stroke-width="3" stroke-linecap="round" stroke-linejoin="round"/>
<path d="M8.173 33.396L5.5 34.758" stroke="black" stroke-width="3" stroke-linecap="round" stroke-linejoin="round"/>
<path d="M16.612 41.768L15.572 44.582" stroke="black" stroke-width="3" stroke-linecap="round" stroke-linejoin="round"/>
<path d="M7.37299 13.578L9.99999 15.028" stroke="black" stroke-width="3" stroke-linecap="round" stroke-linejoin="round"/>
<path d="M4 27.031H7" stroke="black" stroke-width="3" stroke-linecap="round" stroke-linejoin="round"/>
<path d="M4.85501 20.285L7.76201 21.027" stroke="black" stroke-width="3" stroke-linecap="round" stroke-linejoin="round"/>
<path d="M23 46V43" stroke="black" stroke-width="3" stroke-linecap="round" stroke-linejoin="round"/>
<path d="M16 22C15.606 22 15.2159 22.0776 14.8519 22.2284C14.488 22.3791 14.1573 22.6001 13.8787 22.8787C13.6001 23.1573 13.3791 23.488 13.2284 23.8519C13.0776 24.2159 13 24.606 13 25C13 25.394 13.0776 25.7841 13.2284 26.1481C13.3791 26.512 13.6001 26.8427 13.8787 27.1213C14.1573 27.3999 14.488 27.6209 14.8519 27.7716C15.2159 27.9224 15.606 28 16 28C16.7956 28 17.5587 27.6839 18.1213 27.1213C18.6839 26.5587 19 25.7956 19 25C19 24.2044 18.6839 23.4413 18.1213 22.8787C17.5587 22.3161 16.7956 22 16 22Z" stroke="black" stroke-width="3" stroke-linecap="round" stroke-linejoin="round"/>
</g>
<defs>
<clipPath id="clip0_1209_7321">
<rect width="48" height="48" fill="white"/>
</clipPath>
</defs>
</svg>
