<svg width="48" height="48" viewBox="0 0 48 48" fill="none" xmlns="http://www.w3.org/2000/svg">
<path d="M35.46 30.2C35.732 31.2509 35.7932 32.3453 35.64 33.42C35.4284 34.1333 35.0275 34.7761 34.48 35.28C33.5396 36.1792 32.5073 36.9769 31.4 37.66C28.82 39.42 26.08 40.76 23.64 42.52C21.8945 43.7218 20.3774 45.2254 19.16 46.96C19.0721 47.1011 19.0407 47.2701 19.072 47.4333C19.1034 47.5966 19.1951 47.742 19.329 47.8405C19.4629 47.939 19.629 47.9834 19.7942 47.9647C19.9593 47.9461 20.1114 47.8658 20.22 47.74C21.4552 46.2278 22.9441 44.942 24.62 43.94C27.14 42.34 29.94 41.12 32.62 39.5C33.8598 38.7201 34.9955 37.786 36 36.72C36.7845 35.9053 37.3069 34.8743 37.5 33.76C37.61 32.4064 37.4398 31.0448 37 29.76C36.5954 28.5367 36.1281 27.3351 35.6 26.16C35.3 25.78 34.62 26.46 34.58 27.16C34.9247 28.1577 35.2184 29.1724 35.46 30.2Z" fill="black"/>
<path d="M42.58 1.05997C41.4459 0.298028 40.0919 -0.0679846 38.7284 0.0188165C37.3649 0.105618 36.0683 0.640371 35.04 1.53997C32.7728 3.45519 30.7985 5.69229 29.18 8.17997C27.8 10.18 24.98 15.78 24.08 17.68C23.3 18.9 24.62 19.26 24.82 18.92C24.9213 18.7716 25.0147 18.6181 25.1 18.46C25.2419 19.3401 25.4697 20.2042 25.78 21.04C26.0286 21.7352 26.3434 22.4049 26.72 23.04C27.0845 23.6866 27.4921 24.3081 27.94 24.9C28.98 26.242 30.1675 27.463 31.48 28.54L30.8 29.54C30.14 30.7 31.1 31.32 31.78 30.44C35.78 25.16 37.92 21.52 41.4 16.9C42.7002 15.3616 43.8772 13.7232 44.92 12C45.6583 10.6917 46.0636 9.22182 46.1 7.71997C46.1053 6.40617 45.7869 5.11129 45.1729 3.94974C44.559 2.78818 43.6685 1.7957 42.58 1.05997ZM32.26 27.42C31.2915 26.271 30.4155 25.0471 29.64 23.76L28.64 22C28.3 21.4 28 20.8 27.7 20.2C27.0505 18.9765 26.5471 17.681 26.2 16.34C27.14 14.56 28.2 12.8 29.26 11.1C29.5521 12.2319 29.9749 13.3259 30.52 14.36C30.863 15.0213 31.2646 15.6504 31.72 16.24C32.1618 16.8253 32.6429 17.38 33.16 17.9C34.2097 18.9385 35.3547 19.876 36.58 20.7C36.58 20.7 32.32 27.34 32.26 27.42ZM39.84 15.8C39 17.02 38.18 18.26 37.36 19.5C36.4123 18.5699 35.5239 17.5813 34.7 16.54C34.28 16.02 33.88 15.46 33.48 14.92C33.08 14.38 32.68 13.84 32.3 13.28C31.517 12.1484 30.8471 10.9426 30.3 9.67997L30.66 9.15997C31.9189 7.42406 33.3532 5.82229 34.94 4.37997C34.9555 5.42392 35.0829 6.4632 35.32 7.47997C35.4687 8.24164 35.6966 8.98568 36 9.69997C36.3107 10.3959 36.6787 11.0649 37.1 11.7C37.9725 13.0243 38.9923 14.2454 40.14 15.34L39.84 15.8ZM43.06 11.02C42.468 12.1379 41.7997 13.2138 41.06 14.24C40.3047 13.1332 39.636 11.9698 39.06 10.76C38.74 10.12 38.46 9.47997 38.18 8.75997C37.9 8.03997 37.66 7.45997 37.42 6.75997C36.9841 5.57717 36.6496 4.35946 36.42 3.11997H36.52C37.2139 2.52715 38.0843 2.18025 38.9958 2.13323C39.9073 2.08621 40.8087 2.3417 41.56 2.85997C42.3345 3.41208 42.9619 4.1456 43.3873 4.99634C43.8126 5.84708 44.023 6.7891 44 7.73997C43.9407 8.89065 43.6192 10.0126 43.06 11.02Z" fill="black"/>
<path d="M19.26 16.86C16.788 16.1941 14.2552 15.7787 11.7 15.62C10.8321 15.6624 9.98986 15.9276 9.25425 16.39C8.51864 16.8524 7.91448 17.4964 7.49998 18.26C6.57533 19.6646 5.82324 21.1755 5.25998 22.76C4.69998 24.2 4.23998 25.78 3.73998 27.36C3.39331 28.5067 3.07331 29.6467 2.77998 30.78C2.45998 31.92 2.17998 33.08 1.91998 34.24C1.88361 34.3885 1.90733 34.5453 1.98598 34.6764C2.06463 34.8075 2.19185 34.9022 2.33998 34.94C2.48846 34.9764 2.64529 34.9526 2.77638 34.874C2.90746 34.7953 3.0022 34.6681 3.03998 34.52C3.70012 32.2859 4.48127 30.0893 5.37998 27.94C6.28202 25.409 7.37171 22.9488 8.63998 20.58C9.09546 19.7266 9.68267 18.9504 10.38 18.28C10.7203 17.9499 11.1669 17.7514 11.64 17.72H13.88C13.64 18.02 13.38 18.32 13.14 18.64C12.9 18.96 12.66 19.4 12.44 19.8C12.2249 20.1999 12.0378 20.6142 11.88 21.04C11.5 22.04 11.22 23.04 10.92 24.06C10.8539 24.2218 10.8547 24.4032 10.9222 24.5644C10.9896 24.7257 11.1183 24.8535 11.28 24.92C11.3587 24.9524 11.443 24.9687 11.5281 24.9681C11.6132 24.9675 11.6973 24.9499 11.7756 24.9164C11.8538 24.8829 11.9245 24.8341 11.9837 24.7729C12.0428 24.7117 12.0891 24.6393 12.12 24.56C12.64 23.68 13.2 22.84 13.74 21.96C13.96 21.58 14.18 21.22 14.38 20.84C14.58 20.46 14.78 20.08 14.96 19.68C15.14 19.28 15.48 18.48 15.74 17.88C16.7945 17.9927 17.8426 18.1596 18.88 18.38L20.08 18.66C19.4851 19.2699 18.9556 19.9402 18.5 20.66C18.1677 21.255 17.8867 21.8773 17.66 22.52C17.3 23.46 17.08 24.52 16.76 25.4C16.6914 25.5569 16.6864 25.7342 16.7461 25.8947C16.8058 26.0552 16.9255 26.1862 17.08 26.26C17.1551 26.3119 17.2408 26.3467 17.3309 26.3616C17.421 26.3766 17.5133 26.3715 17.6012 26.3467C17.6891 26.3218 17.7704 26.2779 17.8394 26.2179C17.9083 26.158 17.9632 26.0836 18 26C18.54 25.18 19.06 24.38 19.56 23.52C19.76 23.16 19.96 22.8 20.14 22.42C20.3269 22.0629 20.4938 21.6956 20.64 21.32C20.94 20.58 21.18 19.82 21.5 19.1C22.1 19.32 23.94 20.14 24.26 20.2C24.3851 20.2364 24.519 20.2281 24.6387 20.1764C24.7583 20.1247 24.8562 20.0329 24.9154 19.9168C24.9746 19.8007 24.9915 19.6676 24.9631 19.5404C24.9348 19.4132 24.8629 19.2999 24.76 19.22C22.9762 18.3224 21.1395 17.5343 19.26 16.86Z" fill="black"/>
</svg>
