<svg width="48" height="48" viewBox="0 0 48 48" fill="none" xmlns="http://www.w3.org/2000/svg">
<g clip-path="url(#clip0_1210_2079)">
<path fill-rule="evenodd" clip-rule="evenodd" d="M16.88 35.58C17.2611 35.3723 17.5456 35.0236 17.6727 34.6087C17.7998 34.1937 17.7594 33.7455 17.56 33.36C17.3581 32.9714 17.02 32.6709 16.6105 32.5159C16.2009 32.361 15.7486 32.3624 15.34 32.52C14.9315 32.7376 14.6225 33.1043 14.4773 33.5438C14.332 33.9832 14.3617 34.4618 14.56 34.88C14.663 35.0816 14.8056 35.2602 14.9793 35.4053C15.153 35.5504 15.3542 35.6589 15.5709 35.7242C15.7876 35.7896 16.0152 35.8105 16.2402 35.7858C16.4651 35.761 16.6828 35.691 16.88 35.58Z" fill="black"/>
<path fill-rule="evenodd" clip-rule="evenodd" d="M30.86 10.98C30.6658 11.0719 30.4919 11.2016 30.3483 11.3614C30.2047 11.5212 30.0943 11.708 30.0236 11.9109C29.9529 12.1137 29.9232 12.3287 29.9363 12.5431C29.9494 12.7575 30.0051 12.9672 30.1 13.16C30.2906 13.544 30.6177 13.843 31.0173 13.9984C31.4169 14.1538 31.8601 14.1543 32.26 14C32.6834 13.8079 33.0135 13.4561 33.1784 13.0214C33.3433 12.5868 33.3295 12.1045 33.14 11.68C33.0411 11.4798 32.9024 11.3019 32.7323 11.1571C32.5622 11.0124 32.3644 10.904 32.1509 10.8385C31.9375 10.7729 31.7128 10.7517 31.4909 10.776C31.2689 10.8003 31.0542 10.8697 30.86 10.98Z" fill="black"/>
<path fill-rule="evenodd" clip-rule="evenodd" d="M6.83999 28.76C6.42089 28.9672 6.09888 29.3294 5.94211 29.7699C5.78533 30.2104 5.80609 30.6946 5.99999 31.12C6.09979 31.317 6.23742 31.4924 6.40501 31.6362C6.5726 31.78 6.76687 31.8893 6.97673 31.958C7.18659 32.0268 7.40793 32.0535 7.62811 32.0366C7.84829 32.0198 8.06301 31.9598 8.25999 31.86C8.45697 31.7602 8.63237 31.6226 8.77616 31.455C8.91996 31.2874 9.02934 31.0931 9.09805 30.8832C9.16677 30.6734 9.19347 30.452 9.17665 30.2319C9.15982 30.0117 9.09979 29.797 8.99999 29.6C8.80271 29.2222 8.47502 28.9288 8.07777 28.7743C7.68052 28.6198 7.2407 28.6147 6.83999 28.76Z" fill="black"/>
<path fill-rule="evenodd" clip-rule="evenodd" d="M40.6 18.2C41.0213 17.9996 41.3497 17.6451 41.5172 17.2097C41.6846 16.7742 41.6785 16.291 41.5 15.86C41.4023 15.656 41.2644 15.4738 41.0946 15.3243C40.9248 15.1749 40.7266 15.0613 40.5118 14.9903C40.297 14.9193 40.0701 14.8924 39.8447 14.9113C39.6193 14.9302 39.4 14.9943 39.2 15.1C39.0058 15.1919 38.8319 15.3216 38.6883 15.4814C38.5447 15.6412 38.4343 15.828 38.3635 16.0309C38.2928 16.2337 38.2632 16.4487 38.2763 16.6631C38.2894 16.8776 38.3451 17.0872 38.44 17.28C38.6237 17.6723 38.9456 17.983 39.3442 18.1528C39.7427 18.3225 40.1898 18.3393 40.6 18.2Z" fill="black"/>
<path fill-rule="evenodd" clip-rule="evenodd" d="M11.16 36.26C11.3559 36.1592 11.5294 36.0199 11.6703 35.8506C11.8111 35.6813 11.9164 35.4853 11.9799 35.2744C12.0433 35.0634 12.0637 34.8419 12.0396 34.6229C12.0156 34.404 11.9477 34.1921 11.84 34C11.6419 33.6129 11.3074 33.3129 10.9012 33.1578C10.495 33.0027 10.0457 33.0035 9.64003 33.16C9.43235 33.2622 9.24688 33.4044 9.09423 33.5784C8.94159 33.7524 8.82476 33.9548 8.75045 34.174C8.67614 34.3932 8.6458 34.625 8.66117 34.8559C8.67654 35.0869 8.73732 35.3125 8.84003 35.52C8.93712 35.727 9.07592 35.9117 9.24773 36.0625C9.41953 36.2133 9.62065 36.327 9.83846 36.3965C10.0563 36.466 10.2861 36.4897 10.5135 36.4662C10.7409 36.4427 10.961 36.3725 11.16 36.26Z" fill="black"/>
<path fill-rule="evenodd" clip-rule="evenodd" d="M36.6 10.54C36.208 10.7262 35.9058 11.0602 35.7596 11.4689C35.6134 11.8775 35.6351 12.3274 35.82 12.72C36.0076 13.1138 36.3332 13.4251 36.735 13.5947C37.1369 13.7643 37.587 13.7804 38 13.64C38.4212 13.4399 38.7484 13.0842 38.9125 12.6477C39.0767 12.2112 39.065 11.7281 38.88 11.3C38.7844 11.0967 38.6485 10.9149 38.4805 10.7656C38.3125 10.6163 38.116 10.5027 37.9028 10.4317C37.6896 10.3606 37.4642 10.3336 37.2403 10.3522C37.0164 10.3708 36.7985 10.4347 36.6 10.54Z" fill="black"/>
<path fill-rule="evenodd" clip-rule="evenodd" d="M13.8 30.9C13.9882 30.7993 14.1546 30.6624 14.2897 30.4971C14.4248 30.3319 14.5259 30.1416 14.5873 29.9372C14.6486 29.7327 14.6689 29.5182 14.6471 29.3059C14.6252 29.0936 14.5616 28.8877 14.46 28.7C14.2653 28.3097 13.9311 28.0068 13.5237 27.8513C13.1162 27.6957 12.6652 27.6988 12.26 27.86C11.8478 28.0739 11.5356 28.4404 11.3898 28.8813C11.2441 29.3222 11.2765 29.8026 11.48 30.22C11.5825 30.4219 11.7253 30.6007 11.8995 30.7453C12.0738 30.89 12.2758 30.9975 12.4931 31.0612C12.7104 31.1249 12.9384 31.1434 13.1632 31.1157C13.3879 31.088 13.6047 31.0146 13.8 30.9Z" fill="black"/>
<path fill-rule="evenodd" clip-rule="evenodd" d="M33.74 15.78C33.5406 15.8717 33.362 16.0029 33.2149 16.1657C33.0678 16.3285 32.9553 16.5195 32.8842 16.7271C32.8131 16.9347 32.785 17.1546 32.8014 17.3734C32.8179 17.5922 32.8787 17.8054 32.98 18C33.1637 18.3923 33.4857 18.703 33.8842 18.8728C34.2827 19.0425 34.7298 19.0593 35.14 18.92C35.5663 18.7203 35.8961 18.3598 36.0573 17.9175C36.2184 17.4753 36.1978 16.9871 36 16.56C35.9083 16.3556 35.7757 16.1722 35.6104 16.021C35.445 15.8698 35.2505 15.7541 35.0387 15.681C34.827 15.608 34.6025 15.579 34.3791 15.596C34.1558 15.6131 33.9382 15.6757 33.74 15.78Z" fill="black"/>
<path fill-rule="evenodd" clip-rule="evenodd" d="M10.9 26.4C11.2797 26.1961 11.5638 25.8511 11.6911 25.4394C11.8183 25.0277 11.7784 24.5825 11.58 24.2C11.3819 23.8129 11.0474 23.5129 10.6412 23.3578C10.235 23.2027 9.78571 23.2035 9.38002 23.36C8.97153 23.5778 8.66141 23.9432 8.51278 24.3816C8.36416 24.82 8.3882 25.2986 8.58002 25.72C8.68258 25.9219 8.82536 26.1007 8.99959 26.2453C9.17382 26.39 9.3758 26.4975 9.59312 26.5612C9.81043 26.6249 10.0385 26.6434 10.2632 26.6157C10.488 26.588 10.7047 26.5146 10.9 26.4Z" fill="black"/>
<path fill-rule="evenodd" clip-rule="evenodd" d="M36.46 20.38C36.0703 20.5741 35.7711 20.912 35.6256 21.3224C35.4801 21.7329 35.4996 22.1837 35.68 22.58C35.8676 22.9738 36.1932 23.2851 36.595 23.4547C36.9969 23.6243 37.4471 23.6404 37.86 23.5C38.2813 23.2999 38.6084 22.9442 38.7725 22.5077C38.9367 22.0712 38.925 21.5881 38.74 21.16C38.6462 20.955 38.5117 20.7711 38.3445 20.6198C38.1773 20.4685 37.9811 20.3528 37.7677 20.2798C37.5544 20.2068 37.3284 20.1781 37.1036 20.1953C36.8787 20.2125 36.6598 20.2754 36.46 20.38Z" fill="black"/>
<path fill-rule="evenodd" clip-rule="evenodd" d="M47.5 16.36C46.8519 13.3431 45.1501 10.6558 42.7 8.78C40.3208 6.88477 37.416 5.76755 34.38 5.58C34.2858 5.57166 34.1909 5.58305 34.1013 5.61347C34.0118 5.64389 33.9295 5.69265 33.8599 5.75665C33.7903 5.82064 33.7347 5.89846 33.6969 5.98513C33.659 6.07181 33.6396 6.16542 33.64 6.26C33.6345 6.44765 33.7025 6.63003 33.8295 6.76827C33.9566 6.9065 34.1326 6.98965 34.32 7C37.0354 7.21972 39.6182 8.26678 41.72 10C43.7974 11.7039 45.2126 14.0815 45.72 16.72C46.02 17.7877 46.1748 18.891 46.18 20C46.1639 20.6294 45.9994 21.2461 45.7 21.8C44.8255 23.0954 43.5766 24.0932 42.12 24.66C39.7 25.8 36.84 26.46 34.76 27.38C32.68 28.3 30.9 29.26 29.04 30.34C26.24 31.94 23.54 33.7 20.88 35.46C19.52 36.38 18.06 37.62 16.52 38.6C15.64 39.216 14.668 39.6885 13.64 40C11.6105 40.4961 9.46862 40.2106 7.64001 39.2C5.75176 38.237 4.22834 36.6855 3.30001 34.78C2.52166 33.0053 2.1591 31.0762 2.24001 29.14C2.27192 27.1873 2.77995 25.2719 3.72001 23.56C4.38665 22.4307 5.20044 21.3949 6.14001 20.48C7.62319 19.0282 9.21443 17.691 10.9 16.48C14.1073 14.2596 17.5234 12.3573 21.1 10.8C24.701 9.20644 28.3865 7.81102 32.14 6.62C32.219 6.59745 32.2926 6.55891 32.3561 6.50675C32.4196 6.4546 32.4718 6.38995 32.5093 6.31681C32.5468 6.24368 32.5689 6.16362 32.5742 6.0816C32.5794 5.99958 32.5678 5.91734 32.54 5.84C32.5171 5.76073 32.4786 5.68683 32.4268 5.62262C32.375 5.55841 32.3109 5.50519 32.2383 5.46608C32.1656 5.42696 32.0859 5.40274 32.0038 5.39482C31.9217 5.38691 31.8388 5.39547 31.76 5.42C27.1643 6.75269 22.6667 8.40334 18.3 10.36C15.4106 11.6992 12.6348 13.2711 10 15.06C8.18267 16.2453 6.46979 17.5835 4.88001 19.06C3.76157 20.0566 2.79171 21.2083 2.00001 22.48C0.820885 24.4618 0.134984 26.6979 5.36256e-06 29C-0.125964 31.2962 0.284901 33.5902 1.20001 35.7C2.32158 38.1008 4.20625 40.0628 6.56001 41.28C8.91602 42.5736 11.6755 42.9239 14.28 42.26C15.242 41.9819 16.1632 41.5784 17.02 41.06C18.86 39.98 20.58 38.46 22.22 37.36C24.8 35.58 27.44 33.82 30.22 32.22C32 31.16 33.84 30.22 35.72 29.26C38.6364 28.2386 41.4941 27.0568 44.28 25.72C45.5594 24.9837 46.6271 23.9297 47.38 22.66C47.8007 21.8372 48.0136 20.924 48 20C47.9966 18.7698 47.8284 17.5456 47.5 16.36Z" fill="black"/>
<path fill-rule="evenodd" clip-rule="evenodd" d="M26 25.36C25.5698 25.6215 25.1557 25.9087 24.76 26.22C23.8781 26.982 23.0432 27.7968 22.26 28.66C22.1301 28.7627 22.0449 28.9117 22.0225 29.0758C22.0002 29.2399 22.0423 29.4063 22.14 29.54C22.2455 29.6659 22.3941 29.748 22.5568 29.7702C22.7196 29.7924 22.8847 29.7531 23.02 29.66C24.12 29.04 25.3 28.54 26.44 27.88C27.1 27.52 27.7 27.12 28.44 26.72C29.3641 26.107 30.3336 25.5655 31.34 25.1C31.4416 25.1543 31.5549 25.1827 31.67 25.1827C31.7852 25.1827 31.8985 25.1543 32 25.1C32.162 25.0074 32.2817 24.8556 32.3339 24.6766C32.3861 24.4975 32.3668 24.3051 32.28 24.14C31.68 22.78 31.24 21.4 30.7 20.02C30.3277 19.0854 29.8934 18.1767 29.4 17.3C28.5159 15.8193 27.4249 14.4724 26.16 13.3C26.1024 13.242 26.0339 13.1959 25.9583 13.1644C25.8828 13.133 25.8018 13.1168 25.72 13.1168C25.6382 13.1168 25.5572 13.133 25.4817 13.1644C25.4062 13.1959 25.3377 13.242 25.28 13.3C23.84 13.74 22.38 14.06 20.92 14.52C20.28 14.72 19.64 14.98 18.92 15.24C18.2637 15.5429 17.6289 15.8903 17.02 16.28C11.42 20 12.54 19.2 15.24 24C15.56 24.54 15.88 25.08 16.24 25.6C16.6 26.12 17 26.62 17.38 27.1C18.32 28.26 19.38 29.32 20.34 30.4C20.4655 30.5186 20.6293 30.5882 20.8018 30.596C20.9742 30.6039 21.1437 30.5496 21.2795 30.4429C21.4152 30.3363 21.5081 30.1844 21.5413 30.015C21.5744 29.8456 21.5456 29.67 21.46 29.52C20.68 28.3 19.98 27.06 19.22 25.8L18.24 24.24C17.9 23.74 17.54 23.22 17.16 22.74C16.4 21.76 15.6 20.74 14.8 19.88L20 17.38L25.56 14.7C26.14 15.74 26.6 16.82 27.12 17.92C27.64 19.02 27.92 19.66 28.38 20.52C29 21.68 29.72 22.76 30.38 23.84C29.3485 24.0214 28.3371 24.3027 27.36 24.68C26.888 24.8672 26.433 25.0947 26 25.36Z" fill="black"/>
</g>
<defs>
<clipPath id="clip0_1210_2079">
<rect width="48" height="48" fill="white"/>
</clipPath>
</defs>
</svg>
