<svg width="48" height="48" viewBox="0 0 48 48" fill="none" xmlns="http://www.w3.org/2000/svg">
<g clip-path="url(#clip0_1209_7062)">
<path d="M19.7809 4.22079C17.7177 2.15759 14.9194 0.998474 12.0016 0.998474C9.08372 0.998474 6.2854 2.15759 4.22218 4.22079C2.15896 6.28401 0.999855 9.08234 0.999855 12.0002C0.999855 14.918 2.15896 17.7163 4.22218 19.7795L28.2233 43.7807C30.2866 45.8436 33.0848 47.0025 36.0025 47.0023C38.9201 47.0021 41.7182 45.8428 43.7811 43.7797C45.844 41.7164 47.0029 38.9183 47.0027 36.0006C47.0025 33.083 45.8434 30.2849 43.7801 28.222L19.7809 4.22079Z" stroke="black" stroke-width="2.0001" stroke-linecap="round" stroke-linejoin="round"/>
<path d="M26.8319 11.2717L11.2753 26.8293L21.1771 36.7304L36.7336 21.1728L26.8319 11.2717Z" stroke="black" stroke-width="2.0001" stroke-linecap="round" stroke-linejoin="round"/>
<path d="M8.50039 9.00005C8.22424 9.00005 8.00037 8.77618 8.00037 8.50002C8.00037 8.22387 8.22424 8 8.50039 8" stroke="black" stroke-width="2.0001"/>
<path d="M8.50037 9.00005C8.77652 9.00005 9.00039 8.77618 9.00039 8.50002C9.00039 8.22387 8.77652 8 8.50037 8" stroke="black" stroke-width="2.0001"/>
<path d="M8.00039 15.5008C7.72424 15.5008 7.50037 15.2769 7.50037 15.0008C7.50037 14.7246 7.72424 14.5007 8.00039 14.5007" stroke="black" stroke-width="2.0001"/>
<path d="M8.00037 15.5008C8.27652 15.5008 8.50039 15.2769 8.50039 15.0008C8.50039 14.7246 8.27652 14.5007 8.00037 14.5007" stroke="black" stroke-width="2.0001"/>
<path d="M14.5007 15.001C14.2245 15.001 14.0006 14.7772 14.0006 14.501C14.0006 14.2248 14.2245 14.001 14.5007 14.001" stroke="black" stroke-width="2.0001"/>
<path d="M14.5008 15.001C14.7769 15.001 15.0008 14.7772 15.0008 14.501C15.0008 14.2248 14.7769 14.001 14.5008 14.001" stroke="black" stroke-width="2.0001"/>
<path d="M15.0008 8.50029C14.7246 8.50029 14.5008 8.27642 14.5008 8.00027C14.5008 7.72411 14.7246 7.50024 15.0008 7.50024" stroke="black" stroke-width="2.0001"/>
<path d="M15.0008 8.50029C15.2769 8.50029 15.5008 8.27642 15.5008 8.00027C15.5008 7.72411 15.2769 7.50024 15.0008 7.50024" stroke="black" stroke-width="2.0001"/>
<path d="M33.5015 34.0011C33.2253 34.0011 33.0015 33.7773 33.0015 33.5011C33.0015 33.2249 33.2253 33.0011 33.5015 33.0011" stroke="black" stroke-width="2.0001"/>
<path d="M33.5016 34.0011C33.7778 34.0011 34.0016 33.7773 34.0016 33.5011C34.0016 33.2249 33.7778 33.0011 33.5016 33.0011" stroke="black" stroke-width="2.0001"/>
<path d="M40.002 33.5008C39.7257 33.5008 39.5019 33.277 39.5019 33.0008C39.5019 32.7246 39.7257 32.5008 40.002 32.5008" stroke="black" stroke-width="2.0001"/>
<path d="M40.0019 33.5007C40.2781 33.5007 40.5019 33.2768 40.5019 33.0006C40.5019 32.7244 40.2781 32.5006 40.0019 32.5006" stroke="black" stroke-width="2.0001"/>
<path d="M39.5018 40.0021C39.2256 40.0021 39.0018 39.7783 39.0018 39.5021C39.0018 39.2259 39.2256 39.0021 39.5018 39.0021" stroke="black" stroke-width="2.0001"/>
<path d="M39.5018 40.0021C39.778 40.0021 40.0018 39.7783 40.0018 39.5021C40.0018 39.2259 39.778 39.0021 39.5018 39.0021" stroke="black" stroke-width="2.0001"/>
<path d="M33.0015 40.5016C32.7253 40.5016 32.5015 40.2778 32.5015 40.0016C32.5015 39.7254 32.7253 39.5016 33.0015 39.5016" stroke="black" stroke-width="2.0001"/>
<path d="M33.0015 40.5016C33.2777 40.5016 33.5015 40.2778 33.5015 40.0016C33.5015 39.7254 33.2777 39.5016 33.0015 39.5016" stroke="black" stroke-width="2.0001"/>
</g>
<defs>
<clipPath id="clip0_1209_7062">
<rect width="48.0023" height="48.0023" fill="white"/>
</clipPath>
</defs>
</svg>
