<svg width="48" height="48" viewBox="0 0 48 48" fill="none" xmlns="http://www.w3.org/2000/svg">
<path d="M7.04099 22.182C1.81499 27.79 1.52599 35.633 6.94599 41.053C12.366 46.473 20.209 46.183 25.817 40.958C28.4237 38.5198 30.9874 36.0361 33.507 33.508C36.0355 30.9881 38.5195 28.424 40.958 25.817C46.184 20.209 46.474 12.366 41.053 6.94599C35.633 1.52599 27.79 1.81599 22.183 7.04099C19.5759 9.47914 17.0119 11.9629 14.492 14.491C11.9635 17.0109 9.47947 19.5749 7.04099 22.182Z" stroke="black" stroke-width="3" stroke-linecap="round" stroke-linejoin="round"/>
<path d="M14.6 28.288C12.929 26.372 12.96 23.598 14.623 21.674C15.711 20.4149 16.8441 19.1955 18.02 18.018C19.1975 16.8421 20.4169 15.7091 21.676 14.621C23.599 12.958 26.374 12.927 28.29 14.598C30.1076 16.1834 31.8152 17.8907 33.401 19.708C35.071 21.625 35.041 24.4 33.378 26.323C32.2899 27.5821 31.1568 28.8015 29.981 29.979C28.8035 31.1549 27.584 32.2879 26.325 33.376C24.401 35.039 21.627 35.07 19.711 33.399C17.8933 31.8137 16.1856 30.1054 14.6 28.288Z" stroke="black" stroke-width="3" stroke-linecap="round"/>
<path d="M24.53 19.582L24.176 19.936" stroke="black" stroke-width="3" stroke-linecap="round"/>
<path d="M28.42 23.473L28.066 23.826" stroke="black" stroke-width="3" stroke-linecap="round"/>
<path d="M19.932 24.18L19.578 24.533" stroke="black" stroke-width="3" stroke-linecap="round"/>
<path d="M23.822 28.066L23.469 28.42" stroke="black" stroke-width="3" stroke-linecap="round"/>
</svg>
