<svg width="48" height="48" viewBox="0 0 48 48" fill="none" xmlns="http://www.w3.org/2000/svg">
<g clip-path="url(#clip0_1209_7055)">
<path d="M1.00005 18.6392C5.00024 15.6391 18.3469 7.8007 18.3469 7.8007C18.825 7.47212 19.406 7.32785 19.9824 7.39461C20.5587 7.46136 21.0913 7.73461 21.4817 8.16379C21.8721 8.59297 22.0938 9.14903 22.1058 9.72908C22.1178 10.3091 21.9193 10.8739 21.547 11.3189L17.0008 16.6391H44.0021C44.7978 16.6391 45.5609 16.9552 46.1236 17.5178C46.6862 18.0805 47.0023 18.8436 47.0023 19.6393C47.0023 20.435 46.6862 21.1981 46.1236 21.7607C45.5609 22.3233 44.7978 22.6394 44.0021 22.6394H31.0015V26.6396C31.0015 27.1701 30.7908 27.6788 30.4157 28.0539C30.0406 28.429 29.5319 28.6397 29.0014 28.6397V32.6399C29.0014 33.1704 28.7907 33.6791 28.4156 34.0542C28.0405 34.4293 27.5318 34.64 27.0013 34.64V37.6401C27.0013 38.4358 26.6852 39.1989 26.1226 39.7616C25.56 40.3242 24.7969 40.6403 24.0012 40.6403H17.8009C15.9419 40.6398 14.0921 40.3806 12.3046 39.8702L1.00005 36.6401" stroke="black" stroke-width="2.0001" stroke-linecap="round" stroke-linejoin="round"/>
<path d="M29.0014 28.6398H25.0012" stroke="black" stroke-width="2.0001" stroke-linecap="round" stroke-linejoin="round"/>
<path d="M32.0016 22.6398H25.0012" stroke="black" stroke-width="2.0001" stroke-linecap="round" stroke-linejoin="round"/>
<path d="M27.0013 34.6398H23.0011" stroke="black" stroke-width="2.0001" stroke-linecap="round" stroke-linejoin="round"/>
<path d="M41.002 19.6392V22.6394" stroke="black" stroke-width="2.0001" stroke-linecap="round" stroke-linejoin="round"/>
<path d="M45.0022 35.6397C45.0022 36.7006 44.5807 37.7181 43.8306 38.4682C43.0804 39.2184 42.0629 39.6399 41.002 39.6399C39.9411 39.6399 38.9236 39.2184 38.1734 38.4682C37.4233 37.7181 37.0018 36.7006 37.0018 35.6397C37.0018 33.4296 41.002 27.6393 41.002 27.6393C41.002 27.6393 45.0022 33.4296 45.0022 35.6397Z" stroke="black" stroke-width="2.0001" stroke-linecap="round" stroke-linejoin="round"/>
</g>
<defs>
<clipPath id="clip0_1209_7055">
<rect width="48.0023" height="48.0023" fill="white"/>
</clipPath>
</defs>
</svg>
