<svg width="48" height="48" viewBox="0 0 48 48" fill="none" xmlns="http://www.w3.org/2000/svg">
<path d="M41 29.998C41 37.288 36 45.998 24 45.998C12 45.998 7 37.288 7 29.998C7 15.252 18.409 5.87501 22.534 2.96701C22.9615 2.66087 23.4742 2.49625 24 2.49625C24.5258 2.49625 25.0385 2.66087 25.466 2.96701C29.591 5.87501 41 15.252 41 29.998Z" stroke="black" stroke-width="3" stroke-linecap="round" stroke-linejoin="round"/>
<path d="M21.953 39.145C20.884 39.025 20.188 38.136 20.138 37.062C20.0814 35.7826 20.0447 34.5025 20.028 33.222C18.7475 33.2053 17.4673 33.1686 16.188 33.112C15.114 33.062 14.226 32.366 14.105 31.297C14.0317 30.6172 13.9967 29.9338 14 29.25C14 28.418 14.044 27.74 14.105 27.203C14.225 26.134 15.114 25.438 16.187 25.388C17.054 25.347 18.297 25.305 20.028 25.278C20.0447 23.9975 20.0814 22.7174 20.138 21.438C20.188 20.364 20.884 19.476 21.952 19.355C22.491 19.295 23.168 19.25 24 19.25C24.832 19.25 25.51 19.294 26.047 19.355C27.116 19.475 27.812 20.364 27.862 21.437C27.903 22.304 27.945 23.547 27.972 25.278C29.2525 25.2947 30.5326 25.3314 31.812 25.388C32.886 25.438 33.774 26.134 33.895 27.202C33.955 27.741 34 28.418 34 29.25C34 30.082 33.956 30.76 33.895 31.297C33.775 32.366 32.886 33.062 31.812 33.112C30.5326 33.1686 29.2525 33.2053 27.972 33.222C27.9552 34.5025 27.9186 35.7826 27.862 37.062C27.812 38.136 27.116 39.024 26.048 39.145C25.509 39.205 24.832 39.25 24 39.25C23.168 39.25 22.49 39.206 21.953 39.145Z" stroke="black" stroke-width="3" stroke-linecap="round" stroke-linejoin="round"/>
</svg>
