<svg width="48" height="48" viewBox="0 0 48 48" fill="none" xmlns="http://www.w3.org/2000/svg">
<g clip-path="url(#clip0_1209_7023)">
<path d="M29.6704 33.6227C29.6704 37.0007 28.2336 40.2402 25.6759 42.6288C23.1183 45.0173 19.6493 46.3591 16.0323 46.3591C12.4152 46.3591 8.94632 45.0173 6.38868 42.6288C3.83103 40.2402 2.39417 37.0007 2.39417 33.6227C2.39417 22.7998 14.0753 10.0634 16.0323 10.0634C17.9893 10.0634 29.6704 22.7998 29.6704 33.6227Z" stroke="black" stroke-width="2.0001" stroke-linecap="round" stroke-linejoin="round"/>
<path d="M29.6703 18.1841V10.4338H43.7822V39.304C43.7822 43.2009 40.6233 46.3599 36.7263 46.3599C34.9548 46.3599 33.3359 45.7073 32.0967 44.629C32.0967 44.629 31.2694 43.8704 30.8808 43.1905" stroke="black" stroke-width="2.0001" stroke-linecap="round" stroke-linejoin="round"/>
<path d="M46.2536 1.64233H27.1995V10.4324H46.2536V1.64233Z" stroke="black" stroke-width="2.0001" stroke-linejoin="round"/>
<path d="M43.7823 18.9812H37.058V31.6055H43.7823V18.9812Z" stroke="black" stroke-width="2.0001" stroke-linejoin="round"/>
<path d="M33.462 1.62482V10.4329" stroke="black" stroke-width="2.0001" stroke-linecap="round" stroke-linejoin="round"/>
<path d="M39.9912 1.62482V10.4329" stroke="black" stroke-width="2.0001" stroke-linecap="round" stroke-linejoin="round"/>
<path d="M11.1675 26.4893H20.8978" stroke="black" stroke-width="2.0001" stroke-linecap="round"/>
<path d="M16.032 21.6239V31.3542" stroke="black" stroke-width="2.0001" stroke-linecap="round"/>
<path d="M11.1675 37.2321H20.8978" stroke="black" stroke-width="2.0001" stroke-linecap="round"/>
</g>
<defs>
<clipPath id="clip0_1209_7023">
<rect width="48.0023" height="48.0023" fill="white"/>
</clipPath>
</defs>
</svg>
