<svg width="48" height="48" viewBox="0 0 48 48" fill="none" xmlns="http://www.w3.org/2000/svg">
<g clip-path="url(#clip0_1210_2069)">
<path fill-rule="evenodd" clip-rule="evenodd" d="M41.5599 31.3C41.3799 31.02 41.1599 30.74 41.1199 31.04C41.0799 31.34 41.2599 31.3 41.5599 31.3ZM25.7599 33.14C25.7599 33.14 25.9199 33.02 25.7599 33C25.5999 32.98 25.7599 33.04 25.7599 33.14ZM41.2399 40.34C41.3399 40.22 41.4999 40.04 41.2399 40.02C40.9799 40 41.2199 40.14 41.2399 40.34ZM32.9999 40.52C32.9571 40.6003 32.8953 40.6689 32.8199 40.72C32.8488 40.7031 32.8756 40.683 32.8999 40.66L32.9999 40.52ZM31.8799 40.52C31.9218 40.6592 32.0162 40.7767 32.143 40.8476C32.2699 40.9185 32.4194 40.9373 32.5599 40.9C32.413 40.946 32.2546 40.9392 32.1122 40.8808C31.9698 40.8223 31.8522 40.7159 31.7799 40.58L31.8799 40.52ZM31.0599 30.98C29.8599 30.98 27.8199 30.98 26.4599 31.2C25.8019 31.2224 25.161 31.4153 24.5999 31.76C24.3671 32.0252 24.2144 32.3512 24.1599 32.7C24.041 33.4405 23.9874 34.1901 23.9999 34.94C24.0017 36.1263 24.102 37.3103 24.2999 38.48C24.3382 38.7606 24.4562 39.0244 24.6399 39.24C25.2532 39.7381 26.0106 40.0256 26.7999 40.06C28.2067 40.1104 29.6152 40.0903 31.0199 40C31.2109 40 31.394 39.9241 31.5291 39.7891C31.6641 39.6541 31.7399 39.4709 31.7399 39.28C31.7399 39.089 31.6641 38.9059 31.5291 38.7709C31.394 38.6358 31.2109 38.56 31.0199 38.56C30.0599 38.56 28.6599 38.7 27.4399 38.56C26.8764 38.6003 26.3133 38.4752 25.8199 38.2V37.96C25.6885 36.523 25.6885 35.077 25.8199 33.64C25.8304 33.4935 25.8304 33.3465 25.8199 33.2L26.4799 33.1C27.9199 32.98 30.2199 33.1 31.3599 33.1C31.8396 33.1236 32.3148 32.9978 32.7199 32.74C32.9526 32.3607 33.0771 31.9249 33.0799 31.48C33.0799 30.64 33.0799 29.08 33.1999 27.9C33.2196 27.6861 33.2737 27.4767 33.3599 27.28C35.1179 27.1598 36.882 27.1598 38.6399 27.28H39.2799C39.5799 28.68 39.2799 31.6 39.5199 32.42C39.6531 32.7452 39.8849 33.0204 40.1827 33.207C40.4805 33.3935 40.8292 33.482 41.1799 33.46C41.9399 33.46 43.3399 33.28 44.5599 33.22C44.9037 33.2459 45.2448 33.2994 45.5799 33.38C45.7199 34.66 45.7199 37.04 45.6999 38.2C44.3799 38.4 41.8799 38.38 40.7799 38.58C40.313 38.6368 39.8811 38.8563 39.5599 39.2C39.3776 39.5939 39.2951 40.0266 39.3199 40.46C39.48 42.3366 39.48 44.2234 39.3199 46.1C38.5999 46.1 37.3199 46.3 36.0999 46.36C35.2748 46.4304 34.4451 46.4304 33.6199 46.36C33.4802 46.371 33.3397 46.371 33.1999 46.36V46.22C33.1999 45.04 33.0999 42.22 33.0999 41.04V40.64C33.1099 40.5469 33.1099 40.453 33.0999 40.36C33.0999 40.12 31.9399 39.5 31.8399 40.54V41.16C31.8399 42.42 31.7199 45.16 31.8399 46.42C31.8357 46.7323 31.883 47.0431 31.9799 47.34C32.2413 47.6025 32.5535 47.8088 32.8974 47.9464C33.2413 48.084 33.6097 48.1498 33.9799 48.14C35.9781 48.2604 37.9818 48.2604 39.9799 48.14C40.3799 48.14 40.9199 47.76 41.1599 46.88C41.444 45.0745 41.5645 43.2471 41.5199 41.42C41.5307 41.2602 41.5307 41.0998 41.5199 40.94H41.7999C43.2399 40.94 45.5999 40.94 46.6799 40.7C47.0262 40.6741 47.355 40.5378 47.6179 40.3109C47.8807 40.084 48.0637 39.7787 48.1399 39.44C48.1399 39.02 48.2999 35.82 48.1399 33.92C48.1323 33.2257 47.9682 32.5421 47.6599 31.92C47.2937 31.5988 46.8642 31.3581 46.3991 31.2134C45.934 31.0687 45.4437 31.0232 44.9599 31.08C44.0799 31.08 42.6799 31.54 41.8799 31.6V27.6C41.8381 26.8738 41.5154 26.1924 40.9799 25.7C40.5881 25.4736 40.1509 25.337 39.6999 25.3C38.6236 25.1908 37.5414 25.1507 36.4599 25.18C35.2493 25.1971 34.0406 25.2839 32.8399 25.44C32.4887 25.4804 32.156 25.619 31.8799 25.84C31.4363 26.5601 31.2137 27.3946 31.2399 28.24C30.8999 28.9 30.9399 30.2 30.9599 31.04L31.0599 30.98Z" fill="black"/>
<path fill-rule="evenodd" clip-rule="evenodd" d="M9.17999 22.14C9.18934 22.1179 9.19416 22.0941 9.19416 22.07C9.19416 22.046 9.18934 22.0222 9.17999 22C9.21556 21.9202 9.23443 21.834 9.23544 21.7467C9.23645 21.6594 9.21957 21.5728 9.18585 21.4922C9.15212 21.4116 9.10227 21.3388 9.03935 21.2783C8.97643 21.2177 8.90178 21.1706 8.81999 21.14C8.66717 21.0951 8.50378 21.1022 8.3554 21.1601C8.20702 21.218 8.08203 21.3235 7.99999 21.46C7.66796 22.0047 7.42491 22.5988 7.27999 23.22C7.24 23.8127 7.24 24.4073 7.27999 25C7.27999 25.6 7.39999 26.18 7.49999 26.78C7.83532 28.2668 8.44582 29.6777 9.29999 30.94C10.219 32.1393 11.3349 33.1739 12.6 34C13.1978 34.4334 13.8187 34.834 14.46 35.2C14.7232 35.3479 15.0182 35.4302 15.32 35.44C15.4232 35.4574 15.529 35.4521 15.6299 35.4244C15.7309 35.3967 15.8246 35.3474 15.9045 35.2798C15.9844 35.2122 16.0486 35.128 16.0927 35.033C16.1368 34.9381 16.1596 34.8347 16.1596 34.73C16.1596 34.6253 16.1368 34.5219 16.0927 34.427C16.0486 34.332 15.9844 34.2478 15.9045 34.1802C15.8246 34.1126 15.7309 34.0633 15.6299 34.0356C15.529 34.008 15.4232 34.0026 15.32 34.02L13.74 32.56C12.8005 31.6845 11.9802 30.6893 11.3 29.6C10.5813 28.5552 10.0218 27.4093 9.63999 26.2C9.45664 25.7233 9.30301 25.2357 9.17999 24.74C9.05594 24.2395 8.96243 23.7319 8.89999 23.22C8.87999 22.96 9.27999 22.3 9.17999 22.14Z" fill="black"/>
<path fill-rule="evenodd" clip-rule="evenodd" d="M20 39.36L18 39.62C16.9586 39.7482 15.9087 39.795 14.86 39.76C13.8095 39.742 12.761 39.6618 11.72 39.52C9.39438 39.202 7.24099 38.1183 5.59999 36.44C3.96896 34.7352 2.84676 32.6086 2.35999 30.3C2.09431 28.6332 2.22448 26.9272 2.73999 25.32C3.47986 22.7236 4.48517 20.2104 5.73999 17.82C8.20714 12.9414 11.2779 8.39243 14.88 4.28C15.4801 3.60399 16.1505 2.99388 16.88 2.46C17.12 2.3 17.28 2.14 17.42 2.14C17.56 2.14 18.18 2.52 18.78 3.02C21.0824 5.17332 23.0989 7.61326 24.78 10.28C26.9183 13.5887 28.6698 17.1319 30 20.84C30.0638 21.021 30.1954 21.1702 30.367 21.256C30.5387 21.3418 30.7369 21.3576 30.92 21.3C31.0973 21.2323 31.2419 21.0991 31.3238 20.9279C31.4057 20.7567 31.4186 20.5605 31.36 20.38C29.7714 15.7324 27.5649 11.3195 24.8 7.26C23.3703 5.00879 21.6636 2.94599 19.72 1.12C19.067 0.501466 18.2328 0.108872 17.34 0C15.9329 0.334569 14.6707 1.1129 13.74 2.22C10.462 5.65768 7.62051 9.48659 5.27999 13.62C3.44162 16.6856 1.96509 19.9541 0.879991 23.36C0.0222281 25.7499 -0.178079 28.3263 0.299991 30.82C0.953193 33.4639 2.33973 35.8695 4.29999 37.76C6.29688 39.6438 8.86658 40.8055 11.6 41.06C12.7032 41.168 13.8116 41.2147 14.92 41.2C16.0312 41.1861 17.1402 41.0993 18.24 40.94L19.98 40.62H20.18C20.3465 40.5773 20.4906 40.473 20.5834 40.3283C20.6762 40.1836 20.7107 40.0091 20.68 39.84C20.6374 39.6788 20.5353 39.5397 20.3943 39.4506C20.2533 39.3616 20.0839 39.3292 19.92 39.36H20Z" fill="black"/>
</g>
<defs>
<clipPath id="clip0_1210_2069">
<rect width="48" height="48" fill="white"/>
</clipPath>
</defs>
</svg>
