<svg width="48" height="48" viewBox="0 0 48 48" fill="none" xmlns="http://www.w3.org/2000/svg">
<path d="M17.422 17.4335C15.6253 13.8931 13.6082 10.469 11.3826 7.18127C11.2952 7.04921 11.1765 6.94086 11.037 6.8659C10.8975 6.79094 10.7417 6.75171 10.5833 6.75171C10.425 6.75171 10.2691 6.79094 10.1296 6.8659C9.99016 6.94086 9.87143 7.04921 9.78406 7.18127C7.64698 10.4109 1.95831 19.1719 1.95831 23.0417C1.95821 24.3477 2.25471 25.6367 2.82545 26.8115C3.39619 27.9862 4.22626 29.016 5.25304 29.8231C6.27982 30.6303 7.47649 31.1937 8.75278 31.4709C10.0291 31.7481 11.3516 31.7318 12.6207 31.4233" stroke="black" stroke-width="2" stroke-linecap="round" stroke-linejoin="round"/>
<path d="M30.578 17.4335C32.3747 13.8931 34.3918 10.469 36.6174 7.18127C36.7048 7.04921 36.8235 6.94086 36.963 6.8659C37.1025 6.79094 37.2583 6.75171 37.4167 6.75171C37.575 6.75171 37.7309 6.79094 37.8704 6.8659C38.0098 6.94086 38.1286 7.04921 38.2159 7.18127C40.353 10.4109 46.0417 19.1719 46.0417 23.0417C46.0418 24.3477 45.7453 25.6367 45.1745 26.8115C44.6038 27.9862 43.7737 29.016 42.7469 29.8231C41.7202 30.6303 40.5235 31.1937 39.2472 31.4709C37.9709 31.7481 36.6483 31.7318 35.3793 31.4233" stroke="black" stroke-width="2" stroke-linecap="round" stroke-linejoin="round"/>
<path d="M24 25.9167V33.5834" stroke="black" stroke-width="2" stroke-linecap="round" stroke-linejoin="round"/>
<path d="M20.1667 29.75H27.8334" stroke="black" stroke-width="2" stroke-linecap="round" stroke-linejoin="round"/>
<path d="M35.5 29.75C35.5 32.8 34.2884 35.7251 32.1317 37.8818C29.9751 40.0384 27.05 41.25 24 41.25C20.95 41.25 18.0249 40.0384 15.8683 37.8818C13.7116 35.7251 12.5 32.8 12.5 29.75C12.5 24.4217 20.596 12.0458 23.2027 8.13578C23.2902 8.00453 23.4088 7.89691 23.5478 7.82248C23.6869 7.74805 23.8422 7.70911 24 7.70911C24.1578 7.70911 24.3131 7.74805 24.4522 7.82248C24.5912 7.89691 24.7098 8.00453 24.7973 8.13578C27.4021 12.0458 35.5 24.4198 35.5 29.75Z" stroke="black" stroke-width="2" stroke-linecap="round" stroke-linejoin="round"/>
</svg>
