<svg width="48" height="48" viewBox="0 0 48 48" fill="none" xmlns="http://www.w3.org/2000/svg">
<g clip-path="url(#clip0_1209_7039)">
<path d="M24.0012 39.6405V45.8922" stroke="black" stroke-width="2.0001" stroke-linecap="round"/>
<path d="M29.6621 1.90289H18.3403C16.3385 1.90289 14.4187 2.6981 13.0032 4.11359C11.5877 5.52908 10.7925 7.44889 10.7925 9.45069V28.3202C10.7925 30.3219 11.5877 32.2418 13.0032 33.6572C14.4187 35.0727 16.3385 35.868 18.3403 35.868V39.6419H29.6621V35.868C31.6638 35.868 33.5836 35.0727 34.9991 33.6572C36.4146 32.2418 37.2098 30.3219 37.2098 28.3202V9.45069C37.2098 7.44889 36.4146 5.52908 34.9991 4.11359C33.5836 2.6981 31.6638 1.90289 29.6621 1.90289Z" stroke="black" stroke-width="2.0001" stroke-linecap="round" stroke-linejoin="round"/>
<path d="M28.2556 14.5143C28.2556 15.5671 27.8074 16.5767 27.0095 17.3211C26.2117 18.0656 25.1296 18.4838 24.0014 18.4838C22.8729 18.4838 21.7909 18.0656 20.993 17.3211C20.1952 16.5767 19.7471 15.5671 19.7471 14.5143C19.7471 11.1412 23.3907 7.17175 24.0014 7.17175C24.6118 7.17175 28.2556 11.1412 28.2556 14.5143Z" stroke="black" stroke-width="2.0001" stroke-linecap="round" stroke-linejoin="round"/>
<path d="M10.7925 23.2965C20.7488 19.5122 28.3154 27.4721 37.2098 25.3842" stroke="black" stroke-width="2.0001" stroke-linecap="round"/>
</g>
<defs>
<clipPath id="clip0_1209_7039">
<rect width="48.0023" height="48.0023" fill="white"/>
</clipPath>
</defs>
</svg>
