<svg width="48" height="48" viewBox="0 0 48 48" fill="none" xmlns="http://www.w3.org/2000/svg">
<g clip-path="url(#clip0_1210_2062)">
<path fill-rule="evenodd" clip-rule="evenodd" d="M25.0201 12C25.1601 12.24 25.7601 12.48 26.1601 12.94C28.1273 15.3736 29.8428 18.0004 31.2801 20.78C33.2282 24.1408 34.6195 27.7947 35.4001 31.6C35.6905 33.2896 35.6155 35.0218 35.1801 36.68C34.6853 38.2712 33.5966 39.6106 32.1401 40.42C32.0604 40.4637 31.9902 40.5229 31.9337 40.5942C31.8773 40.6655 31.8357 40.7474 31.8115 40.8351C31.7872 40.9227 31.7808 41.0143 31.7926 41.1045C31.8044 41.1947 31.8342 41.2815 31.8801 41.36C31.9722 41.5171 32.1219 41.6321 32.2974 41.6806C32.4729 41.7292 32.6604 41.7074 32.8201 41.62C34.6091 40.6626 35.9674 39.0612 36.6201 37.14C37.1778 35.2806 37.3278 33.3227 37.0601 31.4C36.2076 26.5357 34.4941 21.8625 32.0001 17.6C30.6357 14.8997 28.8838 12.4134 26.8001 10.22C26.3744 9.80185 25.815 9.54695 25.2201 9.5C23.962 9.74881 22.8262 10.419 22.0001 11.4C19.3443 14.2078 17.0529 17.3392 15.1801 20.72C12.3201 25.76 10.3201 31.38 11.1801 34.72C11.7156 36.8746 12.8451 38.8357 14.4401 40.38C16.0811 41.9237 18.1953 42.8681 20.4401 43.06C21.8886 43.2096 23.3439 43.283 24.8001 43.28C25.7894 43.2993 26.7787 43.2458 27.7601 43.12C27.9162 43.0953 28.0563 43.0101 28.1499 42.8828C28.2435 42.7555 28.2831 42.5963 28.2601 42.44C28.2503 42.3609 28.2248 42.2846 28.1851 42.2155C28.1455 42.1463 28.0925 42.0858 28.0292 42.0374C27.9659 41.989 27.8935 41.9537 27.8164 41.9335C27.7393 41.9134 27.659 41.9088 27.5801 41.92C26.6613 41.9854 25.7389 41.9854 24.8201 41.92C23.2601 41.92 21.5801 41.72 20.6201 41.58C18.7399 41.3321 16.9953 40.4668 15.6601 39.12C14.3568 37.7508 13.457 36.0482 13.0601 34.2C12.5401 31.78 14.0001 28 16.0001 24.26C18.0084 20.3494 20.5014 16.7074 23.4201 13.42C23.8696 12.903 24.365 12.4277 24.9001 12H25.0201Z" fill="black"/>
<path fill-rule="evenodd" clip-rule="evenodd" d="M37.34 6.55999C37.34 6.79999 37.92 7.05999 38.3 7.53999C39.8818 9.69157 41.2674 11.9807 42.44 14.38C44.0957 17.2582 45.2965 20.375 46 23.62C46.2496 25.4173 45.8373 27.2441 44.84 28.76C43.8002 30.3222 42.2961 31.5184 40.54 32.18C40.454 32.2087 40.3748 32.2549 40.3074 32.3156C40.24 32.3763 40.1859 32.4503 40.1483 32.5329C40.1108 32.6154 40.0907 32.7049 40.0892 32.7956C40.0878 32.8863 40.1051 32.9763 40.14 33.06C40.1711 33.1443 40.2187 33.2216 40.2799 33.2875C40.3411 33.3533 40.4147 33.4064 40.4966 33.4436C40.5784 33.4808 40.6668 33.5014 40.7566 33.5042C40.8465 33.507 40.936 33.492 41.02 33.46C43.1183 32.7989 44.9529 31.4895 46.26 29.72C47.5859 27.8858 48.2039 25.634 48 23.38C47.7318 21.2322 47.1664 19.1321 46.32 17.14C45.5282 15.1801 44.5923 13.2816 43.52 11.46C42.4007 9.47399 41.0587 7.62203 39.52 5.93999C39.035 5.29489 38.3175 4.86438 37.52 4.73999C36.4651 5.02005 35.5352 5.64705 34.88 6.51999C33.5245 8.0618 32.3002 9.71422 31.22 11.46C31.1573 11.5943 31.1447 11.7467 31.1847 11.8895C31.2247 12.0323 31.3145 12.156 31.4378 12.2383C31.5612 12.3205 31.71 12.3558 31.8571 12.3378C32.0043 12.3198 32.1401 12.2496 32.24 12.14C33.2183 10.7699 34.2874 9.46701 35.44 8.23999C35.9711 7.57398 36.614 7.0055 37.34 6.55999Z" fill="black"/>
<path fill-rule="evenodd" clip-rule="evenodd" d="M12.1801 6.61999C12.1801 6.61999 12.5401 6.77999 12.7001 6.93999C13.3697 7.61005 13.985 8.33233 14.5401 9.09999C15.2601 10.1 16.0601 11.3 16.8201 12.6C16.9155 12.7534 17.0652 12.8652 17.2393 12.9134C17.4135 12.9615 17.5993 12.9425 17.7601 12.86C17.9005 12.7728 18.0031 12.636 18.0476 12.4767C18.092 12.3175 18.075 12.1473 18.0001 12C17.074 10.1967 16.0039 8.47106 14.8001 6.83999C14.3607 6.20384 13.8281 5.63749 13.2201 5.15999C12.9428 4.93379 12.5978 4.80704 12.2401 4.79999C11.2153 5.02281 10.2896 5.56983 9.60006 6.35999C7.26589 8.75885 5.2494 11.4475 3.60006 14.36C2.32359 16.4431 1.30289 18.6725 0.560056 21C-0.0385202 22.7023 -0.149357 24.538 0.240056 26.3C0.738877 28.1569 1.74272 29.8392 3.14006 31.16C4.55568 32.462 6.36365 33.2569 8.28006 33.42C8.35885 33.4292 8.43868 33.4228 8.51499 33.4011C8.59131 33.3794 8.66261 33.343 8.72482 33.2938C8.78704 33.2445 8.83895 33.1835 8.8776 33.1143C8.91624 33.045 8.94086 32.9688 8.95006 32.89C8.95925 32.8112 8.95283 32.7314 8.93117 32.655C8.90951 32.5787 8.87303 32.5074 8.82382 32.4452C8.7746 32.383 8.71362 32.3311 8.64434 32.2924C8.57506 32.2538 8.49885 32.2292 8.42006 32.22C6.8112 31.9704 5.33243 31.1888 4.22006 30C3.10952 28.8454 2.34103 27.4053 2.00006 25.84C1.85374 24.4185 2.05981 22.9829 2.60006 21.66C3.13865 20.1964 3.78026 18.7729 4.52006 17.4C6.19308 14.0287 8.26818 10.8724 10.7001 7.99999C11.0961 7.54314 11.5311 7.12155 12.0001 6.73999L12.1801 6.61999Z" fill="black"/>
<path fill-rule="evenodd" clip-rule="evenodd" d="M23.5201 25.74C23.5201 26.48 23.2201 27.74 23.1201 29.36C23.09 29.8729 23.09 30.3871 23.1201 30.9V32.44C23.2801 33.96 23.5001 35.28 23.5801 36.02C23.58 36.2022 23.651 36.3773 23.778 36.508C23.905 36.6387 24.078 36.7148 24.2601 36.72C24.4458 36.72 24.6238 36.6462 24.7551 36.515C24.8864 36.3837 24.9601 36.2056 24.9601 36.02C24.9601 35.28 25.2201 33.92 25.3001 32.4V30.84C25.2974 30.3251 25.264 29.8109 25.2001 29.3C25.0401 27.76 24.7401 26.44 24.6001 25.7C24.6001 25.5408 24.5369 25.3882 24.4244 25.2757C24.3119 25.1632 24.1592 25.1 24.0001 25.1C23.841 25.1 23.6884 25.1632 23.5758 25.2757C23.4633 25.3882 23.4001 25.5408 23.4001 25.7L23.5201 25.74Z" fill="black"/>
<path fill-rule="evenodd" clip-rule="evenodd" d="M29.3 31.72C29.66 31.72 29.64 31.24 29.52 30.9C29.5256 30.8178 29.5122 30.7354 29.481 30.6591C29.4498 30.5828 29.4016 30.5147 29.34 30.46H29.16C28.66 30.46 27.64 30.14 26.38 29.94C25.4138 29.7835 24.4384 29.6899 23.46 29.66C21.9528 29.6371 20.4466 29.7509 18.96 30C18.8026 30.0102 18.655 30.0799 18.5472 30.1951C18.4395 30.3103 18.3797 30.4622 18.38 30.62C18.3825 30.7006 18.4012 30.7798 18.435 30.853C18.4689 30.9262 18.5171 30.9918 18.5768 31.0459C18.6365 31.1001 18.7066 31.1416 18.7827 31.1681C18.8589 31.1945 18.9396 31.2054 19.02 31.2C19.8 31.2 21.16 31.6 22.68 31.8L23.62 31.9H25.48C26.6 31.9 27.6 31.9 28.3 31.78H29.24L29.3 31.72Z" fill="black"/>
</g>
<defs>
<clipPath id="clip0_1210_2062">
<rect width="48" height="48" fill="white"/>
</clipPath>
</defs>
</svg>
