<svg width="48" height="48" viewBox="0 0 48 48" fill="none" xmlns="http://www.w3.org/2000/svg">
<path d="M23.9998 34.9301V13.0696C23.9998 9.56653 21.1601 6.72675 17.657 6.72675C14.1539 6.72675 11.3141 9.56653 11.3141 13.0696V13.0744V15.2263C7.77032 16.5643 5.25 19.9878 5.25 23.9998C5.25 28.0119 7.77032 31.4355 11.3141 32.7735V34.9269V34.9301C11.3141 38.4332 14.1539 41.2731 17.657 41.2731C21.1601 41.2731 23.9998 38.4334 23.9998 34.9301Z" stroke="black" stroke-width="3"/>
<path d="M24 34.9301V13.0696C24 9.56653 26.8399 6.72675 30.3429 6.72675C33.846 6.72675 36.6857 9.56653 36.6857 13.0696V13.0744V15.2263C40.2296 16.5643 42.7498 19.9878 42.7498 23.9998C42.7498 28.0119 40.2296 31.4355 36.6857 32.7735V34.9269V34.9301C36.6857 38.4332 33.846 41.2731 30.3429 41.2731C26.8399 41.2731 24 38.4334 24 34.9301Z" stroke="black" stroke-width="3"/>
<path d="M17.672 19.4545C14.177 19.4545 11.3438 16.6213 11.3438 13.1263" stroke="black" stroke-width="3"/>
<path d="M30.3279 19.4545C33.8229 19.4545 36.6563 16.6213 36.6563 13.1263" stroke="black" stroke-width="3"/>
<path d="M24 22.2885C24 25.7833 21.1669 28.6166 17.6719 28.6166" stroke="black" stroke-width="3"/>
<path d="M24 22.2885C24 25.7833 26.8331 28.6166 30.3281 28.6166" stroke="black" stroke-width="3"/>
<path d="M11.3438 34.9451C11.3438 33.2633 11.9998 31.7348 13.0698 30.6015" stroke="black" stroke-width="3"/>
<path d="M36.6563 34.9451C36.6563 33.2633 36.0002 31.7348 34.9301 30.6015" stroke="black" stroke-width="3"/>
</svg>
