<svg width="48" height="48" viewBox="0 0 48 48" fill="none" xmlns="http://www.w3.org/2000/svg">
<g clip-path="url(#clip0_1210_2058)">
<path d="M47.82 20.94C47.4357 20.4051 46.9779 19.927 46.46 19.52C44.72 18.1 42.24 17.1 40.9 15.52C40.7382 15.2283 40.6298 14.9099 40.58 14.58C40.14 12.72 40 10 39.48 8.92002C38.3849 6.50575 36.6572 4.43257 34.48 2.92002C32.2886 1.40576 29.75 0.470104 27.1 0.200019C21.1632 -0.238389 15.2571 1.3865 10.38 4.80002C5.31548 7.97847 1.68071 12.9969 0.240004 18.8C-0.0598596 20.5808 -0.0598596 22.3992 0.240004 24.18C0.688482 26.7843 1.51028 29.3103 2.68 31.68C3.63027 33.8091 4.91294 35.7736 6.48 37.5C7.35906 38.4182 8.37019 39.2002 9.48 39.82C9.48 40.32 9.34 40.82 9.26 41.34C9.19911 41.6436 9.15901 41.951 9.14 42.26V43.2C9.14 43.98 9.14 44.74 8.96 45.52C8.93591 45.6028 8.92878 45.6895 8.93903 45.7751C8.94928 45.8606 8.97671 45.9433 9.01966 46.018C9.06262 46.0927 9.12022 46.1579 9.18902 46.2098C9.25781 46.2617 9.33638 46.2992 9.42 46.32C9.50142 46.3444 9.58687 46.3524 9.67139 46.3434C9.75591 46.3344 9.83779 46.3087 9.91227 46.2678C9.98674 46.2268 10.0523 46.1714 10.1051 46.1049C10.158 46.0383 10.197 45.9618 10.22 45.88C10.5829 45.1345 10.8969 44.3663 11.16 43.58C11.262 43.2332 11.3356 42.8787 11.38 42.52C11.43 42.1484 11.43 41.7717 11.38 41.4C11.38 40.74 11.6 39.18 10.64 38.82L9.74 38.6C8.58829 37.8519 7.57355 36.9115 6.74 35.82C5.63273 34.3676 4.7122 32.7818 4 31.1C3.10887 29.182 2.43793 27.1691 2 25.1C1.59035 23.121 1.59035 21.079 2 19.1C3.49379 13.8698 6.91792 9.40203 11.58 6.60002C16.0578 3.48642 21.4568 1.9781 26.9 2.32002C29.201 2.51288 31.416 3.28333 33.34 4.56002C35.2632 5.83953 36.8044 7.61563 37.8 9.70002C38.26 10.62 38.48 13.26 38.92 14.9C39.0294 15.4698 39.2614 16.0089 39.6 16.48C41.04 18.22 43.6 19.26 45.6 20.7C45.82 20.88 46.04 21.06 46.24 21.26C44.76 21.84 41.58 22.56 40.24 22.92C37.58 23.6 39.3 24.72 38.74 30.92C38.5008 33.1224 37.6251 35.2074 36.22 36.92C35.0911 38.483 33.4719 39.6235 31.62 40.16C29.6756 40.7494 27.6185 40.866 25.62 40.5C25.4717 40.4702 25.3175 40.4995 25.1905 40.5817C25.0634 40.6639 24.9736 40.7925 24.94 40.94C24.9193 41.0138 24.9145 41.0911 24.926 41.1668C24.9375 41.2426 24.9649 41.315 25.0065 41.3793C25.0482 41.4436 25.103 41.4984 25.1674 41.5399C25.2318 41.5814 25.3042 41.6087 25.38 41.62C26.181 41.8329 26.9965 41.9867 27.82 42.08C27.7214 42.743 27.7214 43.417 27.82 44.08C27.8972 44.5652 28.0245 45.0411 28.2 45.5C28.48 46.18 28.84 46.78 29.12 47.5C29.1598 47.6671 29.2643 47.8115 29.4106 47.9016C29.5569 47.9916 29.7329 48.0198 29.9 47.98C30.0671 47.9402 30.2115 47.8357 30.3015 47.6894C30.3916 47.5432 30.4198 47.3671 30.38 47.2C30.38 46.5 30.38 45.8 30.22 45.08C30.1877 44.7898 30.1342 44.5024 30.06 44.22C30.0012 43.9409 29.921 43.6668 29.82 43.4C29.68 42.98 29.5 42.6 29.34 42.2C30.2362 42.1812 31.1279 42.0672 32 41.86C34.3172 41.3514 36.3915 40.0673 37.88 38.22C39.2688 36.1503 40.165 33.7899 40.5 31.32C40.8894 28.9836 40.7803 26.5913 40.18 24.3L40.48 24.2C42.688 23.7555 44.8711 23.1947 47.02 22.52C47.3124 22.4011 47.5777 22.2242 47.8 22C47.9363 21.8584 48.0141 21.6705 48.0178 21.4739C48.0215 21.2774 47.9509 21.0867 47.82 20.94Z" fill="black"/>
<path d="M30.32 19.42C31.3123 18.8388 32.1719 18.0562 32.8436 17.1228C33.5153 16.1893 33.9841 15.1256 34.22 14C34.3028 13.1857 34.2 12.3631 33.9195 11.5942C33.6389 10.8252 33.1878 10.1297 32.6 9.56003C31.8305 8.75934 30.8654 8.17336 29.8 7.86003C29.4717 7.76542 29.1377 7.69194 28.8 7.64003C28.57 7.29119 28.3016 6.96918 28 6.68003C26.9151 5.51272 25.4292 4.79837 23.84 4.68003C22.2418 4.66063 20.6745 5.12039 19.34 6.00003C18.5005 6.53214 17.7623 7.20936 17.16 8.00003C16.1639 7.5529 15.0362 7.4958 14 7.84003C12.9641 8.20069 12.0156 8.77527 11.2162 9.52642C10.4168 10.2776 9.78436 11.1885 9.36 12.2C8.91553 13.206 8.71016 14.3013 8.76 15.4C8.1412 15.7502 7.59207 16.2112 7.14 16.76C6.31658 17.9199 5.97268 19.3528 6.18 20.76C6.25204 21.4995 6.49337 22.2125 6.88528 22.8437C7.2772 23.475 7.80917 24.0075 8.44 24.4C10.2287 25.0207 12.1067 25.345 14 25.36H16C15.08 26.6 14.76 28.64 16 32.34C16.023 32.4219 16.062 32.4983 16.1149 32.5649C16.1677 32.6314 16.2333 32.6868 16.3077 32.7278C16.3822 32.7687 16.4641 32.7945 16.5486 32.8034C16.6331 32.8124 16.7186 32.8044 16.8 32.78C16.9469 32.7179 17.0663 32.6046 17.1362 32.4612C17.206 32.3179 17.2216 32.154 17.18 32C16.26 28.84 16.38 27.18 17.18 26.18C17.5235 25.7804 17.9547 25.4655 18.44 25.26C19.9955 24.8209 21.5246 24.2934 23.02 23.68C24.02 23.2 25.02 22.66 26 22.1C27.52 21.26 28.94 20.34 30.32 19.42ZM27.28 9.68003C27.3159 9.99846 27.2747 10.3208 27.16 10.62C27.0948 10.7936 26.9933 10.9512 26.8622 11.0823C26.7311 11.2133 26.5735 11.3149 26.4 11.38C26.303 11.4471 26.1879 11.4831 26.07 11.4831C25.9521 11.4831 25.837 11.4471 25.74 11.38C25.54 11.16 25.74 10.92 25.74 10.72C26.0802 10.3128 26.5217 10.0024 27.02 9.82003L27.28 9.68003ZM22.42 22.3C20.74 23.14 18.92 23.5 17.54 24.3C16.3743 24.3662 15.2057 24.3662 14.04 24.3C12.3703 24.2523 10.7177 23.9487 9.14 23.4C8.70856 23.1189 8.34844 22.7412 8.08811 22.2969C7.82777 21.8526 7.67436 21.3538 7.64 20.84C7.48563 19.8036 7.74416 18.7479 8.36 17.9C8.56459 17.6572 8.79989 17.4421 9.06 17.26C9.21687 17.7637 9.44592 18.242 9.74 18.68C10.0969 19.2338 10.573 19.7008 11.1336 20.0468C11.6942 20.3928 12.325 20.6092 12.98 20.68C13.5064 20.6891 14.0199 20.5173 14.4348 20.1933C14.8498 19.8694 15.1411 19.4129 15.26 18.9C15.4689 18.3871 15.5328 17.8267 15.4446 17.2799C15.3564 16.7332 15.1196 16.2212 14.76 15.8C14.465 15.4203 14.0936 15.1066 13.6699 14.8793C13.2462 14.6519 12.7795 14.5159 12.3 14.48C11.7759 14.4489 11.2501 14.4961 10.74 14.62C10.8227 14.0624 10.9773 13.5179 11.2 13C11.5196 12.2682 11.9864 11.61 12.5713 11.0664C13.1563 10.5228 13.8468 10.1053 14.6 9.84003C15.106 9.66933 15.654 9.66933 16.16 9.84003C15.7911 11.187 15.9709 12.6253 16.66 13.84C16.9434 14.2194 17.3522 14.4859 17.8137 14.5921C18.2751 14.6983 18.7593 14.6373 19.18 14.42C19.5019 14.3008 19.7835 14.0929 19.9923 13.8204C20.2011 13.5479 20.3286 13.2219 20.36 12.88C20.3687 11.9467 20.1269 11.0282 19.66 10.22C19.4563 9.87946 19.222 9.55813 18.96 9.26003C19.3903 8.69112 19.9185 8.20349 20.52 7.82003C21.5045 7.17241 22.6618 6.83775 23.84 6.86003C24.7536 6.95104 25.6081 7.35356 26.26 8.00003C25.2691 8.38814 24.433 9.09077 23.88 10C23.6149 10.429 23.5023 10.9348 23.5604 11.4356C23.6184 11.9365 23.8438 12.4031 24.2 12.76C24.4878 13.1018 24.8633 13.3587 25.2862 13.5032C25.709 13.6476 26.1632 13.6742 26.6 13.58C27.1663 13.46 27.6951 13.2044 28.1409 12.8351C28.5868 12.4659 28.9365 11.9941 29.16 11.46C29.3496 10.9625 29.438 10.4322 29.42 9.90003C30.1027 10.11 30.7217 10.4883 31.22 11C31.7357 11.452 32.1074 12.0455 32.2887 12.7068C32.47 13.3682 32.4531 14.0682 32.24 14.72C31.6306 16.0774 30.6271 17.2202 29.36 18C28.04 18.92 26.66 19.86 25.36 20.72C24.32 21.3 23.38 21.84 22.42 22.3ZM10.84 16.3C11.2682 16.1755 11.7152 16.128 12.16 16.16C12.406 16.1851 12.6438 16.2622 12.8576 16.3864C13.0714 16.5105 13.2563 16.6788 13.4 16.88C13.5147 17.04 13.5923 17.2236 13.6269 17.4174C13.6615 17.6112 13.6523 17.8102 13.6 18C13.5797 18.0933 13.5399 18.1813 13.4833 18.2582C13.4267 18.3351 13.3546 18.3992 13.2715 18.4464C13.1885 18.4935 13.0965 18.5227 13.0015 18.5319C12.9065 18.5412 12.8105 18.5303 12.72 18.5C12.149 18.2997 11.6626 17.912 11.34 17.4C11.1167 17.0546 10.9481 16.6769 10.84 16.28V16.3Z" fill="black"/>
</g>
<defs>
<clipPath id="clip0_1210_2058">
<rect width="48" height="48" fill="white"/>
</clipPath>
</defs>
</svg>
