<svg width="48" height="48" viewBox="0 0 48 48" fill="none" xmlns="http://www.w3.org/2000/svg">
<path d="M16 44C5 44 3 34.91 3 27.636C3 14.91 11 4 19 4C23 4 24 7.636 24 9.455V37.636C24 40.364 21 44 16 44Z" stroke="black" stroke-width="3" stroke-linecap="round"/>
<path d="M11.216 17.372C9.75002 16.224 7.81402 15.459 5.80902 15.222" stroke="black" stroke-width="3" stroke-linecap="round"/>
<path d="M18.32 13.45C20.088 12.415 22.089 12.047 24.002 12.217" stroke="black" stroke-width="3" stroke-linecap="round"/>
<path d="M12.32 35.651C10.949 37.907 10.829 40.734 11.77 43.379" stroke="black" stroke-width="3" stroke-linecap="round"/>
<path d="M19 32C20.808 32 22.484 32.784 23.802 34" stroke="black" stroke-width="3" stroke-linecap="round"/>
<path d="M9.62101 28.788C9.47401 25.75 11.282 22.288 16.381 22.207" stroke="black" stroke-width="3" stroke-linecap="round"/>
<path d="M32.002 44C43.002 44 45.002 34.91 45.002 27.636C45.002 14.909 37.002 4 29.002 4C25.002 4 24.002 7.636 24.002 9.455V37.636C24.002 40.364 27.002 44 32.002 44Z" stroke="black" stroke-width="3" stroke-linecap="round"/>
<path d="M36.786 17.372C38.252 16.224 40.188 15.459 42.193 15.222" stroke="black" stroke-width="3" stroke-linecap="round"/>
<path d="M29.683 13.45C27.914 12.415 25.913 12.047 24 12.217" stroke="black" stroke-width="3" stroke-linecap="round"/>
<path d="M35.682 35.651C37.053 37.907 37.173 40.734 36.232 43.379" stroke="black" stroke-width="3" stroke-linecap="round"/>
<path d="M29.002 32C27.194 32 25.518 32.784 24.201 34" stroke="black" stroke-width="3" stroke-linecap="round"/>
<path d="M38.38 28.788C38.528 25.75 36.72 22.288 31.621 22.207" stroke="black" stroke-width="3" stroke-linecap="round"/>
</svg>
