<svg width="48" height="48" viewBox="0 0 48 48" fill="none" xmlns="http://www.w3.org/2000/svg">
<g clip-path="url(#clip0_1209_7013)">
<path d="M17.3009 47.0025V41.0022H15.0808C13.4894 41.0022 11.9632 40.37 10.8379 39.2448C9.71265 38.1195 9.08048 36.5933 9.08048 35.0019V29.0016H3.70022C3.54016 29.0009 3.38254 28.9624 3.24008 28.8895C3.09762 28.8165 2.97433 28.711 2.88018 28.5816C2.78896 28.4564 2.72871 28.3114 2.70437 28.1584C2.68003 28.0054 2.6923 27.8489 2.74017 27.7016C6.88037 14.8609 9.76051 1.00026 25.8013 1.00026C29.9144 0.995409 33.9234 2.29252 37.2542 4.70576C40.5849 7.119 43.0663 10.5245 44.343 14.4345C45.6197 18.3444 45.626 22.5581 44.3612 26.4719C43.0964 30.3856 40.6253 33.7987 37.3018 36.222V47.0025" stroke="#7ED957" stroke-width="2.0001" stroke-linecap="round" stroke-linejoin="round"/>
<path d="M37.2418 14.3002C37.0695 12.8331 36.3621 11.481 35.2549 10.503C34.1478 9.52507 32.7187 8.98987 31.2415 8.99996C30.3325 9.00548 29.4365 9.21749 28.6214 9.61999C28.1747 8.80584 27.5093 8.1328 26.7003 7.67687C25.8913 7.22093 24.971 7.00027 24.0432 7.03979C23.1154 7.07932 22.2171 7.37746 21.4499 7.90054C20.6826 8.42363 20.0768 9.15082 19.701 10C19.0443 9.97374 18.389 10.0771 17.7723 10.3041C17.1555 10.5311 16.5896 10.8774 16.1067 11.3231C15.6238 11.7689 15.2334 12.3053 14.9579 12.902C14.6823 13.4986 14.527 14.1436 14.5007 14.8002C14.4745 15.4569 14.5778 16.1123 14.8048 16.729C15.0318 17.3457 15.3781 17.9116 15.8238 18.3945C16.2696 18.8774 16.8061 19.2678 17.4027 19.5433C17.9993 19.8189 18.6443 19.9742 19.301 20.0005C19.8456 19.9906 20.3854 19.8961 20.901 19.7205C21.4275 20.7876 22.2664 21.6692 23.306 22.2479C24.3457 22.8267 25.5369 23.0753 26.7213 22.9606C27.1467 24.3872 28.0122 25.6428 29.194 26.548C30.3758 27.4532 31.8135 27.9617 33.3016 28.0009C35.224 27.9331 37.041 27.1052 38.3535 25.6989C39.666 24.2927 40.3668 22.423 40.302 20.5005C40.3185 19.2987 40.0498 18.1101 39.5178 17.0322C38.9858 15.9544 38.2058 15.0181 37.2418 14.3002Z" stroke="#7ED957" stroke-width="2.0001" stroke-linecap="round" stroke-linejoin="round"/>
<path d="M20.9011 19.7211L21.4812 18.001C21.9356 16.6397 22.8755 15.4934 24.1213 14.7808L25.3013 14.0008" stroke="#7ED957" stroke-width="2.0001" stroke-linecap="round" stroke-linejoin="round"/>
<path d="M36.4619 12.0008C32.2417 13.0608 31.6216 15.1409 31.3016 16.001" stroke="#7ED957" stroke-width="2.0001" stroke-linecap="round" stroke-linejoin="round"/>
<path d="M36.3818 27.2422C35.9887 25.1605 34.9369 23.2603 33.3817 21.8219" stroke="#7ED957" stroke-width="2.0001" stroke-linecap="round" stroke-linejoin="round"/>
</g>
<defs>
<clipPath id="clip0_1209_7013">
<rect width="48.0023" height="48.0023" fill="white"/>
</clipPath>
</defs>
</svg>
