<svg width="48" height="48" viewBox="0 0 48 48" fill="none" xmlns="http://www.w3.org/2000/svg">
<path d="M45.7194 30.2487H44.2579C41.6056 30.2487 39.062 31.3024 37.1866 33.1779L32.9265 37.4377H5.40343C3.68011 37.4377 2.28308 38.8347 2.28308 40.5582C2.28308 42.2815 3.68011 43.6786 5.40345 43.6786H35.0997L40.5829 38.1953C41.7082 37.0699 43.2344 36.4378 44.8257 36.4378H45.3605" stroke="black" stroke-width="2.0001" stroke-linecap="round" stroke-linejoin="round"/>
<path d="M26.7734 25.1082H5.53436V37.4388H26.7734V25.1082Z" stroke="black" stroke-width="2.0001" stroke-linecap="round" stroke-linejoin="round"/>
<path d="M16.1541 25.1102V31.2751" stroke="black" stroke-width="2.0001" stroke-linecap="round" stroke-linejoin="round"/>
<path d="M21.3961 25.1102V31.2751" stroke="black" stroke-width="2.0001" stroke-linecap="round" stroke-linejoin="round"/>
<path d="M10.9122 25.1102V31.2751" stroke="black" stroke-width="2.0001" stroke-linecap="round" stroke-linejoin="round"/>
<path d="M9.4285 6.77259L13.3405 4.32257L13.1696 4.63195C11.8005 7.11047 13.5933 10.1488 16.4248 10.1488H23.6614C26.1743 10.1488 28.2114 12.1859 28.2114 14.6988C28.2114 17.2117 26.1743 19.2489 23.6614 19.2489H12.9118C9.28736 19.2489 6.34921 16.3107 6.34921 12.6863V12.3344C6.34921 10.0738 7.51265 7.97245 9.4285 6.77259Z" stroke="black" stroke-width="2.0001" stroke-linecap="round" stroke-linejoin="round"/>
</svg>
