<svg width="48" height="48" viewBox="0 0 48 48" fill="none" xmlns="http://www.w3.org/2000/svg">
<g clip-path="url(#clip0_1210_2046)">
<path fill-rule="evenodd" clip-rule="evenodd" d="M17.52 2.67999C17.3596 3.10957 17.2325 3.55088 17.14 3.99999C17.1296 4.17317 17.1296 4.34681 17.14 4.51999C17.1632 4.69024 17.2034 4.85774 17.26 5.01999C17.3941 5.42338 17.5544 5.81755 17.74 6.19999C17.7426 6.29193 17.7633 6.38245 17.8009 6.46639C17.8385 6.55033 17.8922 6.62604 17.9591 6.68919C18.0259 6.75235 18.1046 6.8017 18.1906 6.83444C18.2765 6.86718 18.3681 6.88266 18.46 6.87999C18.5646 6.87392 18.6665 6.84512 18.7588 6.79559C18.8511 6.74605 18.9314 6.67699 18.9943 6.5932C19.0571 6.50942 19.1009 6.41293 19.1226 6.31048C19.1443 6.20802 19.1434 6.10206 19.12 5.99999C19.2704 5.59089 19.3842 5.16923 19.46 4.73999C19.4898 4.56123 19.4898 4.37876 19.46 4.19999C19.4558 4.0158 19.422 3.83347 19.36 3.65999C19.1971 3.23505 18.9822 2.83197 18.72 2.45999C18.6777 2.30809 18.5809 2.17714 18.448 2.09225C18.3151 2.00736 18.1556 1.97451 18 1.99999C17.8476 2.02925 17.7124 2.11643 17.6229 2.24323C17.5334 2.37002 17.4965 2.52657 17.52 2.67999Z" fill="black"/>
<path fill-rule="evenodd" clip-rule="evenodd" d="M18.74 32C17.2263 32.172 15.7035 32.2521 14.18 32.24C13.7775 32.2488 13.3763 32.2889 12.98 32.36C11.66 32.6 9.80001 33.12 8.98001 33.18C7.32286 33.6174 5.86754 34.6135 4.86001 36C3.19396 37.795 2.01039 39.9832 1.42001 42.36C1.42001 45.18 2.08001 46.58 3.08001 47.3C4.59983 48.0635 6.32756 48.3093 8.00001 48C10.3 47.8 13.66 47.66 17.28 47.46C22.1 47.18 27.38 46.84 31.28 46.46C33.0914 46.3224 34.8899 46.0483 36.66 45.64C37.0073 45.5405 37.3239 45.3547 37.58 45.1C38.3863 44.2564 38.8803 43.1627 38.98 42C39.3258 39.6802 39.5461 37.3435 39.64 35C39.6559 34.8143 39.5974 34.63 39.4774 34.4874C39.3574 34.3449 39.1857 34.2559 39 34.24C38.8144 34.2241 38.63 34.2826 38.4875 34.4026C38.3449 34.5226 38.2559 34.6943 38.24 34.88C37.9 38.42 37.66 40.44 37.4 41.7C37.3042 42.5159 36.9381 43.2762 36.36 43.86L35.7 44.04C34.1958 44.273 32.6804 44.4265 31.16 44.5C27.28 44.76 22.02 44.9 17.16 45.08C13.52 45.22 10.12 45.4 7.82001 45.58C6.42001 45.7 5.20001 46 4.38001 45.44C3.56001 44.88 3.62001 44.14 3.66001 42.48C4.04833 40.9088 4.78672 39.4457 5.82001 38.2C6.90001 36.68 8.10001 35.24 9.14001 35.12L14.18 34C15.8348 33.9386 17.4844 33.7783 19.12 33.52C19.4322 33.4748 19.7317 33.3659 20 33.2C20.092 33.1246 20.1665 33.0301 20.2183 32.923C20.2701 32.8159 20.298 32.6989 20.3 32.58L19.86 27.54C19.8525 27.4584 19.8289 27.3791 19.7906 27.3068C19.7523 27.2344 19.7 27.1703 19.6368 27.1182C19.5735 27.0661 19.5006 27.0271 19.4222 27.0034C19.3438 26.9797 19.2615 26.9717 19.18 26.98C19.0174 27.0001 18.8686 27.0818 18.7644 27.2083C18.6602 27.3348 18.6085 27.4965 18.62 27.66L18.74 32Z" fill="black"/>
<path fill-rule="evenodd" clip-rule="evenodd" d="M38.8 2.19999C38.8 1.97999 38.8 1.81999 38.66 1.83999C38.52 1.85999 38.54 1.99999 38.8 2.19999ZM38.8 2.41999V2.55999C39.3 4.95999 40 10.74 40.18 12.8C40.1903 12.9662 40.265 13.1219 40.3883 13.2339C40.5115 13.3459 40.6736 13.4055 40.84 13.4C40.9215 13.3949 41.0012 13.3738 41.0745 13.3378C41.1477 13.3019 41.2132 13.2518 41.2671 13.1905C41.321 13.1291 41.3622 13.0578 41.3885 12.9805C41.4147 12.9032 41.4254 12.8214 41.42 12.74C41.42 10.74 41.32 4.73999 41.02 2.19999C40.9811 1.73334 40.8733 1.27503 40.7 0.839988C40.6105 0.64323 40.4712 0.473277 40.2958 0.346981C40.1204 0.220686 39.915 0.142435 39.7 0.119988C37.7347 0.0158308 35.7653 0.0158308 33.8 0.119988C28.68 0.219988 22 0.859988 20.4 0.919988C20.2144 0.919988 20.0363 0.993738 19.905 1.12501C19.7738 1.25629 19.7 1.43434 19.7 1.61999C19.7 1.80564 19.7738 1.98369 19.905 2.11496C20.0363 2.24624 20.2144 2.31999 20.4 2.31999L38.8 2.41999Z" fill="black"/>
<path fill-rule="evenodd" clip-rule="evenodd" d="M40.9 31.54C40.44 31.38 39.68 31.08 38.72 30.68C36.3 29.68 32.72 28.06 28.72 26.42C22.56 23.74 16 20.94 14 20C12.6038 19.2975 11.0325 19.0194 9.48 19.2C8.34805 19.2576 7.2722 19.7106 6.44 20.48C5.61574 21.3061 5.14295 22.4191 5.12058 23.5859C5.09822 24.7527 5.528 25.8829 6.32 26.74C6.9842 27.5803 7.86125 28.2275 8.86006 28.6144C9.85888 29.0013 10.9431 29.1137 12 28.94C12.4378 28.8452 12.8494 28.6554 13.2058 28.3841C13.5622 28.1127 13.8547 27.7665 14.0626 27.3697C14.2705 26.9729 14.3888 26.5354 14.4091 26.0879C14.4294 25.6404 14.3512 25.194 14.18 24.78C14.0164 24.3001 13.758 23.858 13.42 23.48C13.0898 23.13 12.7129 22.8272 12.3 22.58C12.2227 22.5199 12.1337 22.4766 12.0387 22.4531C11.9437 22.4295 11.8448 22.4261 11.7484 22.4431C11.652 22.4601 11.5603 22.4971 11.4791 22.5518C11.3979 22.6065 11.3291 22.6776 11.2771 22.7605C11.2251 22.8435 11.191 22.9364 11.1772 23.0333C11.1633 23.1302 11.1699 23.2289 11.1966 23.3231C11.2232 23.4173 11.2693 23.5048 11.3319 23.5801C11.3945 23.6554 11.4722 23.7166 11.56 23.76C11.8503 23.9494 12.1128 24.1783 12.34 24.44C12.5415 24.6877 12.6912 24.9733 12.78 25.28C12.8719 25.4914 12.9194 25.7195 12.9194 25.95C12.9194 26.1805 12.8719 26.4086 12.78 26.62C12.6706 26.8094 12.5206 26.9722 12.3408 27.0967C12.161 27.2212 11.9558 27.3043 11.74 27.34C10.9698 27.4403 10.187 27.323 9.48006 27.0013C8.77313 26.6797 8.17037 26.1665 7.74 25.52C7.28816 24.993 7.06209 24.3092 7.11075 23.6167C7.15942 22.9242 7.47889 22.2787 8 21.82C8.68032 21.3231 9.52329 21.1016 10.36 21.2C11.2877 21.1955 12.202 21.4223 13.02 21.86C14.4 22.64 18.24 24.44 22.66 26.36C25.86 27.72 29.34 29.16 32.42 30.36C35.82 31.7 38.7 32.74 40.08 33.2C40.388 33.3049 40.7019 33.3917 41.02 33.46C41.1766 33.4975 41.3403 33.4932 41.4947 33.4476C41.6492 33.4019 41.7889 33.3166 41.9 33.2C43.1044 31.6682 43.964 29.8945 44.42 28C45.1987 25.3741 45.8133 22.7023 46.26 20C46.2895 19.8358 46.2538 19.6666 46.1604 19.5284C46.067 19.3902 45.9233 19.2939 45.76 19.26C45.6011 19.2304 45.4369 19.264 45.3024 19.3536C45.1679 19.4433 45.0738 19.5819 45.04 19.74C44.4927 22.3545 43.7847 24.9327 42.92 27.46C42.4865 28.9261 41.8032 30.3064 40.9 31.54Z" fill="black"/>
<path fill-rule="evenodd" clip-rule="evenodd" d="M7.12001 21.7C7.60001 20.52 8.38001 18.76 9.12001 16.98C9.86001 15.2 10.76 13.58 11.4 12.38C11.66 11.92 11.92 11.18 12.28 10.56C12.406 10.3212 12.6012 10.126 12.84 9.99999C13.1561 9.92932 13.4839 9.92932 13.8 9.99999C14.66 9.99999 15.58 10.3 16.16 10.32C18.1472 10.6272 20.102 11.1159 22 11.78C24.62 12.58 27.78 13.56 30.94 14.6C36.94 16.6 43.18 18.6 45.68 19.74C45.8527 19.8147 46.0477 19.8188 46.2234 19.7515C46.399 19.6843 46.5414 19.5509 46.62 19.38C46.6911 19.2092 46.6956 19.0179 46.6327 18.8439C46.5698 18.6699 46.4439 18.5258 46.28 18.44C43.4 17.06 35.64 13.88 28.7 11.46C24.6417 9.90384 20.4421 8.74508 16.16 7.99999C15.54 7.99999 14.44 7.79999 13.52 7.79999C12.9944 7.79907 12.4751 7.91522 12 8.13999C11.5489 8.41125 11.1713 8.78893 10.9 9.23999C10.5345 9.98954 10.2074 10.7572 9.92001 11.54C9.34001 12.8 8.60001 14.6 7.92001 16.38C7.24001 18.16 6.36001 20 6.00001 21.26C5.94798 21.4166 5.95847 21.5873 6.02928 21.7363C6.10009 21.8854 6.22574 22.0014 6.38001 22.06C6.52604 22.1009 6.68198 22.0868 6.81835 22.0205C6.95471 21.9541 7.06203 21.8401 7.12001 21.7Z" fill="black"/>
<path fill-rule="evenodd" clip-rule="evenodd" d="M33.84 11.82C33.84 11.82 34.14 11.82 34.38 11.68C34.62 11.54 35.6 11.48 36.38 11.26C36.8256 11.1525 37.2607 11.0053 37.68 10.82C38.94 10.28 40.06 9.57999 40.72 9.33999C40.8107 9.32319 40.8973 9.2886 40.9746 9.23823C41.0519 9.18785 41.1185 9.12269 41.1706 9.04648C41.2226 8.97027 41.2591 8.88452 41.2779 8.79416C41.2966 8.70381 41.2974 8.61063 41.28 8.51999C41.2328 8.34664 41.1226 8.19718 40.9708 8.10097C40.8191 8.00476 40.6369 7.96874 40.46 7.99999C39.33 8.06798 38.2104 8.2557 37.12 8.55999C36.6941 8.67691 36.2791 8.83083 35.88 9.01999C35.6116 9.14376 35.3511 9.28403 35.1 9.43999C34.4572 9.80783 33.8422 10.2223 33.26 10.68C33.1165 10.7656 32.9936 10.8817 32.9 11.02C32.72 11.42 32.74 11.68 33 11.84C33.0516 11.8989 33.1169 11.9443 33.1901 11.9722C33.2633 12.0001 33.3423 12.0096 33.42 12C33.4991 12.004 33.578 11.9898 33.6508 11.9586C33.7236 11.9274 33.7883 11.88 33.84 11.82Z" fill="black"/>
<path fill-rule="evenodd" clip-rule="evenodd" d="M20.1 33.14C20.48 33.14 21.26 33.3 22.24 33.42H23.16C23.6129 33.4495 24.0672 33.4495 24.52 33.42C26.08 33.28 27.48 32.96 27.9 32.9C27.9936 32.9027 28.0868 32.8866 28.174 32.8526C28.2613 32.8186 28.3408 32.7675 28.408 32.7022C28.4751 32.6369 28.5285 32.5588 28.5649 32.4726C28.6013 32.3863 28.6201 32.2936 28.62 32.2C28.6148 32.0125 28.5367 31.8345 28.4022 31.7038C28.2677 31.573 28.0876 31.4999 27.9 31.5C26.762 31.2962 25.6136 31.156 24.46 31.08C24.0005 31.0497 23.5395 31.0497 23.08 31.08C22.7705 31.1056 22.4631 31.1524 22.16 31.22C21.3944 31.3528 20.6391 31.54 19.9 31.78C19.7292 31.817 19.5666 31.8848 19.42 31.98C19.18 32.24 19.1 32.48 19.22 32.68C19.234 32.7716 19.2733 32.8576 19.3333 32.9282C19.3933 32.9989 19.4718 33.0514 19.56 33.08C19.639 33.1318 19.729 33.1642 19.8228 33.1746C19.9167 33.1851 20.0116 33.1732 20.1 33.14Z" fill="black"/>
<path fill-rule="evenodd" clip-rule="evenodd" d="M32.98 34.2C31.9888 35.4694 31.0867 36.806 30.28 38.2C29.82 39.02 29.44 39.9 29.06 40.76C28.44 42.18 27.96 43.54 27.4 44.6C27.3426 44.6759 27.3013 44.7627 27.2786 44.8552C27.2559 44.9476 27.2523 45.0437 27.268 45.1376C27.2837 45.2315 27.3184 45.3212 27.3699 45.4012C27.4215 45.4812 27.4888 45.5499 27.5678 45.603C27.6468 45.6561 27.7358 45.6926 27.8293 45.7101C27.9229 45.7277 28.019 45.7259 28.1119 45.7051C28.2048 45.6842 28.2924 45.6446 28.3695 45.5887C28.4465 45.5328 28.5113 45.4618 28.56 45.38C29.4599 44.3136 30.282 43.1841 31.02 42C31.32 41.5 31.62 40.96 31.88 40.42C32.14 39.88 32.4 39.34 32.62 38.8C33.18 37.38 33.58 36.02 34.06 34.92C34.139 34.7766 34.158 34.6079 34.1131 34.4505C34.0681 34.2932 33.9628 34.16 33.82 34.08C33.757 34.0327 33.6852 33.9983 33.6089 33.9787C33.5326 33.9592 33.4532 33.9548 33.3752 33.966C33.2972 33.9771 33.2221 34.0035 33.1543 34.0437C33.0865 34.0838 33.0273 34.1369 32.98 34.2Z" fill="black"/>
<path fill-rule="evenodd" clip-rule="evenodd" d="M22.28 45.18V44.74C22.14 43.94 21.98 42.22 21.56 40.34C21.3477 39.3702 21.0738 38.4149 20.74 37.48C20.2494 36.009 19.5776 34.6049 18.74 33.3C18.6562 33.1558 18.5194 33.0501 18.3588 33.0052C18.1981 32.9604 18.0264 32.9801 17.88 33.06C17.8083 33.1013 17.7456 33.1565 17.6956 33.2224C17.6456 33.2882 17.6092 33.3635 17.5887 33.4436C17.5682 33.5238 17.564 33.6072 17.5762 33.689C17.5885 33.7708 17.6169 33.8493 17.66 33.92C18.0183 35.3044 18.3053 36.7062 18.52 38.12C18.52 38.46 18.68 38.82 18.78 39.18C18.98 39.9 19.18 40.62 19.42 41.3C19.82 42.54 20.28 43.62 20.56 44.42L20.94 45.48C20.9431 45.5199 20.9431 45.56 20.94 45.6V45.72C21.0174 45.8713 21.1445 45.9914 21.3 46.06C21.54 46.06 22.28 46.28 22.28 45.42C22.3012 45.3414 22.3012 45.2586 22.28 45.18Z" fill="black"/>
<path fill-rule="evenodd" clip-rule="evenodd" d="M6.78001 46.64C6.78257 46.5934 6.78257 46.5466 6.78001 46.5C7.06001 46.66 7.02001 46.5 6.78001 46.38C6.54001 46.26 7.18001 45.82 7.52001 45.34C8.14001 44.5 9.08001 43.34 10 42.06C10.52 41.34 11.02 40.56 11.5 39.78C13.02 37.28 14.3 34.8 14.96 34.06C15.0926 33.9274 15.1671 33.7475 15.1671 33.56C15.1671 33.3725 15.0926 33.1926 14.96 33.06C14.8274 32.9274 14.6475 32.8529 14.46 32.8529C14.2725 32.8529 14.0926 32.9274 13.96 33.06C12.6276 34.4243 11.435 35.9184 10.4 37.52C9.68103 38.5048 9.01347 39.5262 8.40001 40.58C7.22001 42.58 6.40001 44.58 5.94001 45.52C5.82001 45.8 5.72001 45.98 5.68001 46.06C5.67102 46.1331 5.67102 46.207 5.68001 46.28C5.64943 46.4152 5.66659 46.5568 5.72857 46.6807C5.79055 46.8047 5.89353 46.9034 6.02001 46.96C6.16207 47.012 6.31795 47.012 6.46001 46.96C6.59917 46.8917 6.71172 46.7792 6.78001 46.64Z" fill="black"/>
</g>
<defs>
<clipPath id="clip0_1210_2046">
<rect width="48" height="48" fill="white"/>
</clipPath>
</defs>
</svg>
