<svg width="48" height="48" viewBox="0 0 48 48" fill="none" xmlns="http://www.w3.org/2000/svg">
<g clip-path="url(#clip0_1209_6984)">
<path d="M32.1268 44.6858C39.0219 44.6858 44.6116 39.0962 44.6116 32.201C44.6116 25.3057 39.0219 19.7161 32.1268 19.7161C25.2314 19.7161 19.6418 25.3057 19.6418 32.201C19.6418 39.0962 25.2314 44.6858 32.1268 44.6858Z" stroke="#7ED957" stroke-width="2.0001" stroke-linecap="round" stroke-linejoin="round"/>
<path d="M40.9486 41.0229L46.6915 46.7658" stroke="#7ED957" stroke-width="2.0001" stroke-linecap="round" stroke-linejoin="round"/>
<path d="M19.6418 32.7156H24.807L27.9062 28.5834L32.0384 35.8148L35.1375 31.6826H38.2365" stroke="#7ED957" stroke-width="2.0001" stroke-linecap="round" stroke-linejoin="round"/>
<path d="M17.466 18.6108C22.1113 18.6108 25.8769 14.8451 25.8769 10.1999C25.8769 5.55469 22.1113 1.789 17.466 1.789C12.8208 1.789 9.05513 5.55469 9.05513 10.1999C9.05513 14.8451 12.8208 18.6108 17.466 18.6108Z" stroke="#7ED957" stroke-width="2.0001" stroke-linecap="round" stroke-linejoin="round"/>
<path d="M19.1983 42.1605H2.32629V40.3366C2.35307 37.7723 3.02936 35.2565 4.29198 33.0244C5.5546 30.7923 7.36239 28.9166 9.54644 27.5726C11.7305 26.2287 14.2196 25.4601 16.7812 25.3389" stroke="#7ED957" stroke-width="2.0001" stroke-linecap="round" stroke-linejoin="round"/>
</g>
<defs>
<clipPath id="clip0_1209_6984">
<rect width="48.0023" height="48.0023" fill="white"/>
</clipPath>
</defs>
</svg>
