<svg width="48" height="48" viewBox="0 0 48 48" fill="none" xmlns="http://www.w3.org/2000/svg">
<path d="M32.3514 5.63086H37.3613C38.2471 5.63086 39.0965 5.98276 39.723 6.60911C40.3494 7.23548 40.7012 8.085 40.7012 8.97082V42.3703C40.7012 43.2562 40.3494 44.1056 39.723 44.7321C39.0965 45.3585 38.2471 45.7103 37.3613 45.7103H10.6416C9.75581 45.7103 8.90627 45.3585 8.27992 44.7321C7.65355 44.1056 7.30165 43.2562 7.30165 42.3703V8.97082C7.30165 8.085 7.65355 7.23548 8.27992 6.60911C8.90627 5.98276 9.75581 5.63086 10.6416 5.63086H15.6516" stroke="black" stroke-width="2.0001" stroke-linecap="round" stroke-linejoin="round"/>
<path d="M29.0111 2.29102H18.9913C17.1467 2.29102 15.6513 3.78637 15.6513 5.63098V7.30096C15.6513 9.14555 17.1467 10.6409 18.9913 10.6409H29.0111C30.8558 10.6409 32.3511 9.14555 32.3511 7.30096V5.63098C32.3511 3.78637 30.8558 2.29102 29.0111 2.29102Z" stroke="black" stroke-width="2.0001" stroke-linecap="round" stroke-linejoin="round"/>
<path d="M27.3896 18.9522H20.6133V24.7072H14.8582V31.4835H20.6133V37.2384H27.3896V31.4835H33.1445V24.7072H27.3896V18.9522Z" stroke="black" stroke-width="2.0001" stroke-linecap="round" stroke-linejoin="round"/>
</svg>
