<svg width="48" height="48" viewBox="0 0 48 48" fill="none" xmlns="http://www.w3.org/2000/svg">
<path d="M29.113 3.049C30.863 3.085 32.183 4.629 31.978 6.367L31.744 8.351C31.658 9.08092 31.3071 9.75389 30.7578 10.2422C30.2084 10.7305 29.499 11.0001 28.764 11H19.234C18.4992 10.9999 17.79 10.7301 17.2409 10.2419C16.6918 9.75358 16.341 9.08075 16.255 8.351L16.021 6.367C15.816 4.629 17.136 3.085 18.886 3.049C20.406 3.018 22.106 3 24 3C25.895 3 27.593 3.018 29.113 3.049Z" stroke="#7ED957" stroke-width="3" stroke-linecap="round" stroke-linejoin="round"/>
<path d="M16.002 6.125C13.292 6.217 11.226 6.348 9.692 6.477C7.393 6.672 5.676 8.373 5.48 10.672C5.24 13.48 5 18.137 5 25.502C5 32.866 5.24 37.522 5.48 40.332C5.676 42.63 7.393 44.332 9.693 44.526C12.479 44.762 17.026 45.002 24 45.002C30.974 45.002 35.521 44.762 38.307 44.526C40.607 44.331 42.324 42.63 42.52 40.331C42.76 37.523 43 32.866 43 25.501C43 18.137 42.76 13.481 42.52 10.671C42.324 8.373 40.607 6.672 38.307 6.477C36.774 6.347 34.707 6.217 31.997 6.125" stroke="#7ED957" stroke-width="3" stroke-linecap="round" stroke-linejoin="round"/>
<path d="M21.953 37.895C20.884 37.775 20.188 36.886 20.138 35.812C20.0814 34.5326 20.0447 33.2525 20.028 31.972C18.7475 31.9553 17.4674 31.9186 16.188 31.862C15.114 31.812 14.226 31.116 14.105 30.048C14.0317 29.3678 13.9966 28.6841 14 28C14 27.168 14.044 26.49 14.105 25.953C14.225 24.884 15.114 24.188 16.187 24.138C17.054 24.097 18.297 24.055 20.028 24.028C20.0447 22.7475 20.0814 21.4674 20.138 20.188C20.188 19.114 20.884 18.226 21.952 18.105C22.491 18.045 23.168 18 24 18C24.832 18 25.51 18.044 26.047 18.105C27.116 18.225 27.812 19.114 27.862 20.187C27.903 21.054 27.945 22.297 27.972 24.028C29.2525 24.0447 30.5327 24.0814 31.812 24.138C32.886 24.188 33.774 24.884 33.895 25.952C33.955 26.491 34 27.168 34 28C34 28.832 33.956 29.51 33.895 30.047C33.775 31.116 32.886 31.812 31.812 31.862C30.5327 31.9186 29.2525 31.9553 27.972 31.972C27.9553 33.2525 27.9186 34.5326 27.862 35.812C27.812 36.886 27.116 37.774 26.048 37.895C25.509 37.955 24.832 38 24 38C23.168 38 22.49 37.956 21.953 37.895Z" stroke="#7ED957" stroke-width="3" stroke-linecap="round" stroke-linejoin="round"/>
</svg>
