<svg width="48" height="48" viewBox="0 0 48 48" fill="none" xmlns="http://www.w3.org/2000/svg">
<path d="M17.8765 9.92401L26.6525 14.9908V25.1243L17.8765 30.1912L9.10059 25.1243V14.9908L17.8765 9.92401Z" stroke="black" stroke-width="2" stroke-linejoin="round"/>
<path d="M26.6751 25.02L35.4511 30.0869V40.2205L26.6751 45.2872L17.8992 40.2205V30.0869L26.6751 25.02Z" stroke="black" stroke-width="2" stroke-linejoin="round"/>
<path d="M35.4737 9.92401L44.2498 14.9908V25.1243L35.4737 30.1912L26.6979 25.1243V14.9908L35.4737 9.92401Z" stroke="black" stroke-width="2" stroke-linejoin="round"/>
<path d="M35.4082 9.97473V2.86426" stroke="black" stroke-width="2" stroke-linecap="round" stroke-linejoin="round"/>
<path d="M39.2931 22.2756V17.374" stroke="black" stroke-width="2" stroke-linecap="round" stroke-linejoin="round"/>
<path d="M27.6049 39.9336L23.0764 37.0316" stroke="black" stroke-width="2" stroke-linecap="round" stroke-linejoin="round"/>
<path d="M18.191 24.2444L21.9438 22.124" stroke="black" stroke-width="2" stroke-linecap="round" stroke-linejoin="round"/>
<path d="M17.9247 40.4245L9.4762 45.6948" stroke="black" stroke-width="2" stroke-linecap="round" stroke-linejoin="round"/>
<path d="M9.22541 15.0777L2.69952 11.7316" stroke="black" stroke-width="2" stroke-linecap="round" stroke-linejoin="round"/>
<path d="M35.8271 40.3408L43.1877 45.109" stroke="black" stroke-width="2" stroke-linecap="round" stroke-linejoin="round"/>
</svg>
