<svg width="48" height="48" viewBox="0 0 48 48" fill="none" xmlns="http://www.w3.org/2000/svg">
<g clip-path="url(#clip0_1209_6959)">
<path d="M43.1666 34.7621V42.7297C43.1662 43.1842 43.0043 43.6238 42.7097 43.9699C42.4152 44.3161 42.0072 44.5463 41.5586 44.6195C29.9296 46.5151 18.0704 46.5151 6.4414 44.6195C5.9928 44.5463 5.58481 44.3161 5.29025 43.9699C4.9957 43.6238 4.83375 43.1842 4.83331 42.7297V34.7621" stroke="black" stroke-width="2" stroke-linecap="round" stroke-linejoin="round"/>
<path d="M38.375 39.5537C39.6458 39.5537 40.8646 39.0489 41.7632 38.1503C42.6618 37.2517 43.1666 36.0329 43.1666 34.7621V28.7917C43.1666 28.2833 42.9647 27.7958 42.6053 27.4364C42.2458 27.0769 41.7583 26.875 41.25 26.875H35.5C34.9916 26.875 34.5041 27.0769 34.1447 27.4364C33.7852 27.7958 33.5833 28.2833 33.5833 28.7917V34.7621C33.5833 36.0329 34.0881 37.2517 34.9868 38.1503C35.8854 39.0489 37.1042 39.5537 38.375 39.5537Z" stroke="black" stroke-width="2" stroke-linecap="round" stroke-linejoin="round"/>
<path d="M28.7917 39.5537C30.0625 39.5537 31.2813 39.0489 32.1799 38.1503C33.0785 37.2517 33.5833 36.0329 33.5833 34.7621V28.7917C33.5833 28.2833 33.3814 27.7958 33.022 27.4364C32.6625 27.0769 32.175 26.875 31.6667 26.875H25.9167C25.4083 26.875 24.9208 27.0769 24.5614 27.4364C24.2019 27.7958 24 28.2833 24 28.7917V34.7621C24 36.0329 24.5048 37.2517 25.4034 38.1503C26.3021 39.0489 27.5208 39.5537 28.7917 39.5537Z" stroke="black" stroke-width="2" stroke-linecap="round" stroke-linejoin="round"/>
<path d="M19.2084 39.5537C20.4792 39.5537 21.698 39.0489 22.5966 38.1503C23.4952 37.2517 24 36.0329 24 34.7621V28.7917C24 28.2833 23.7981 27.7958 23.4386 27.4364C23.0792 27.0769 22.5917 26.875 22.0834 26.875H16.3334C15.825 26.875 15.3375 27.0769 14.9781 27.4364C14.6186 27.7958 14.4167 28.2833 14.4167 28.7917V34.7621C14.4167 36.0329 14.9215 37.2517 15.8201 38.1503C16.7187 39.0489 17.9375 39.5537 19.2084 39.5537Z" stroke="black" stroke-width="2" stroke-linecap="round" stroke-linejoin="round"/>
<path d="M9.62498 39.5537C10.8958 39.5537 12.1146 39.0489 13.0132 38.1503C13.9118 37.2517 14.4166 36.0329 14.4166 34.7621V28.7917C14.4166 28.2833 14.2147 27.7958 13.8553 27.4364C13.4958 27.0769 13.0083 26.875 12.5 26.875H6.74998C6.24165 26.875 5.75414 27.0769 5.39469 27.4364C5.03525 27.7958 4.83331 28.2833 4.83331 28.7917V34.7621C4.83331 36.0329 5.33815 37.2517 6.23676 38.1503C7.13537 39.0489 8.35415 39.5537 9.62498 39.5537Z" stroke="black" stroke-width="2" stroke-linecap="round" stroke-linejoin="round"/>
<path d="M4.83331 13.2379V5.27033C4.83375 4.81581 4.9957 4.37623 5.29025 4.03006C5.58481 3.6839 5.9928 3.45368 6.4414 3.3805C18.0704 1.4849 29.9296 1.4849 41.5586 3.3805C42.0072 3.45368 42.4152 3.6839 42.7097 4.03006C43.0043 4.37623 43.1662 4.81581 43.1666 5.27033V13.2379" stroke="black" stroke-width="2" stroke-linecap="round" stroke-linejoin="round"/>
<path d="M9.62498 8.44623C8.35415 8.44623 7.13537 8.95106 6.23676 9.84968C5.33815 10.7483 4.83331 11.9671 4.83331 13.2379V19.2083C4.83331 19.7166 5.03525 20.2042 5.39469 20.5636C5.75414 20.923 6.24165 21.125 6.74998 21.125H12.5C13.0083 21.125 13.4958 20.923 13.8553 20.5636C14.2147 20.2042 14.4166 19.7166 14.4166 19.2083V13.2379C14.4166 11.9671 13.9118 10.7483 13.0132 9.84968C12.1146 8.95106 10.8958 8.44623 9.62498 8.44623Z" stroke="black" stroke-width="2" stroke-linecap="round" stroke-linejoin="round"/>
<path d="M19.2084 8.44623C17.9375 8.44623 16.7187 8.95106 15.8201 9.84968C14.9215 10.7483 14.4167 11.9671 14.4167 13.2379V19.2083C14.4167 19.7166 14.6186 20.2042 14.9781 20.5636C15.3375 20.923 15.825 21.125 16.3334 21.125H22.0834C22.5917 21.125 23.0792 20.923 23.4386 20.5636C23.7981 20.2042 24 19.7166 24 19.2083V13.2379C24 12.6086 23.8761 11.9856 23.6353 11.4042C23.3945 10.8229 23.0415 10.2946 22.5966 9.84968C22.1516 9.40473 21.6234 9.05178 21.042 8.81097C20.4607 8.57017 19.8376 8.44623 19.2084 8.44623Z" stroke="black" stroke-width="2" stroke-linecap="round" stroke-linejoin="round"/>
<path d="M28.7917 8.44623C27.5208 8.44623 26.3021 8.95106 25.4034 9.84968C24.5048 10.7483 24 11.9671 24 13.2379V19.2083C24 19.7166 24.2019 20.2042 24.5614 20.5636C24.9208 20.923 25.4083 21.125 25.9167 21.125H31.6667C32.175 21.125 32.6625 20.923 33.022 20.5636C33.3814 20.2042 33.5833 19.7166 33.5833 19.2083V13.2379C33.5833 11.9671 33.0785 10.7483 32.1799 9.84968C31.2813 8.95106 30.0625 8.44623 28.7917 8.44623Z" stroke="black" stroke-width="2" stroke-linecap="round" stroke-linejoin="round"/>
<path d="M38.375 8.44623C37.1042 8.44623 35.8854 8.95106 34.9868 9.84968C34.0881 10.7483 33.5833 11.9671 33.5833 13.2379V19.2083C33.5833 19.7166 33.7852 20.2042 34.1447 20.5636C34.5041 20.923 34.9916 21.125 35.5 21.125H41.25C41.7583 21.125 42.2458 20.923 42.6053 20.5636C42.9647 20.2042 43.1666 19.7166 43.1666 19.2083V13.2379C43.1666 11.9671 42.6618 10.7483 41.7632 9.84968C40.8646 8.95106 39.6458 8.44623 38.375 8.44623Z" stroke="black" stroke-width="2" stroke-linecap="round" stroke-linejoin="round"/>
</g>
<defs>
<clipPath id="clip0_1209_6959">
<rect width="48" height="48" fill="white"/>
</clipPath>
</defs>
</svg>
