<svg width="48" height="48" viewBox="0 0 48 48" fill="none" xmlns="http://www.w3.org/2000/svg">
<g clip-path="url(#clip0_1210_2034)">
<path d="M46.76 6.24C46.6174 5.0772 46.0383 4.01201 45.14 3.26C44.6959 2.95136 44.202 2.72135 43.68 2.58C42.648 2.31416 41.5988 2.12036 40.54 2L31.8 0.779999C28.119 0.408235 24.4151 0.314636 20.72 0.499999C17.0356 0.737817 13.3729 1.2391 9.76001 2C7.99542 2.3494 6.26283 2.84442 4.58001 3.48C3.34927 3.87688 2.23145 4.56266 1.32001 5.48C0.537858 6.4489 0.0765384 7.63715 5.69411e-06 8.88C-0.01994 9.18634 -0.01994 9.49366 5.69317e-06 9.8C5.69317e-06 11.56 1.36001 11.4 1.38001 9.64V9.02C1.47478 8.08581 1.8594 7.20466 2.48001 6.5C3.24254 5.80434 4.16201 5.30343 5.16001 5.04C6.78128 4.55498 8.44045 4.20709 10.12 4C13.6656 3.38948 17.2459 3.00205 20.84 2.84C24.4323 2.63753 28.0342 2.68431 31.62 2.98L40.34 3.9C41.1914 3.95448 42.0393 4.05462 42.88 4.2C43.3379 4.26046 43.7795 4.40993 44.18 4.64C44.4895 4.88293 44.7478 5.18473 44.94 5.528C45.1322 5.87127 45.2546 6.2492 45.3 6.64V7.24C45.42 8.44 46.74 8.98 46.8 7.6C46.8246 7.14634 46.8113 6.69142 46.76 6.24Z" fill="black"/>
<path d="M40.34 6.62C39.3752 6.6629 38.4351 6.93802 37.5994 7.42201C36.7638 7.906 36.0573 8.58454 35.54 9.4C35.1584 9.95868 34.8493 10.5635 34.62 11.2C34.196 9.98782 33.5136 8.88229 32.62 7.96C32.071 7.43482 31.4152 7.03429 30.6972 6.78577C29.9793 6.53726 29.2162 6.4466 28.46 6.52C27.0818 6.656 25.808 7.31438 24.9 8.36C23.9611 9.48241 23.2419 10.7715 22.78 12.16C22.5014 11.0861 22.0341 10.0703 21.4 9.16C20.8004 8.33716 19.9479 7.73331 18.9728 7.44076C17.9976 7.14821 16.9535 7.18307 16 7.54C15.24 7.71522 14.5252 8.04781 13.9017 8.51631C13.2782 8.98481 12.7598 9.57881 12.38 10.26C12.0879 10.756 11.8595 11.2869 11.7 11.84C11.1786 11.0424 10.4976 10.3614 9.69998 9.84C9.1305 9.38555 8.4679 9.06213 7.75927 8.89276C7.05065 8.72338 6.31342 8.71219 5.59998 8.86C4.1909 9.20822 2.96773 10.0809 2.17998 11.3C2.17998 11.3 0.179983 13.12 1.67998 18.84C1.60663 18.8724 1.54052 18.9192 1.48555 18.9776C1.43059 19.036 1.38789 19.1048 1.35998 19.18C1.32441 19.2556 1.30504 19.3378 1.30309 19.4214C1.30114 19.5049 1.31667 19.588 1.34868 19.6652C1.38069 19.7424 1.42847 19.812 1.48897 19.8697C1.54946 19.9273 1.62134 19.9717 1.69998 20C3.2505 20.7188 4.90374 21.1912 6.59998 21.4C7.82022 21.5029 9.04638 21.2894 10.16 20.78L12.16 19.48C12.4728 19.6694 12.809 19.8173 13.16 19.92C13.9542 20.3889 14.7997 20.7647 15.68 21.04C16.3289 21.2352 17.0024 21.3362 17.68 21.34C18.4263 21.3392 19.1682 21.2245 19.88 21C20.5965 20.7682 21.2716 20.4239 21.88 19.98L22.5 19.38L23.54 20.26C24.2822 20.6959 25.0942 21.0003 25.94 21.16C27.1325 21.3493 28.3475 21.3493 29.54 21.16C30.1148 21.0773 30.6784 20.9297 31.22 20.72C31.7527 20.506 32.262 20.2379 32.74 19.92C32.92 19.8 33.64 19.24 33.64 19.26C34.037 19.2675 34.4322 19.3144 34.82 19.4C36.0325 19.7279 37.2607 19.9949 38.5 20.2C39.8644 20.3396 41.2418 20.1261 42.5 19.58C43.7274 19.0652 44.852 18.3336 45.82 17.42C45.9268 17.3023 45.986 17.149 45.986 16.99C45.986 16.831 45.9268 16.6777 45.82 16.56C48.48 5.86 40.5 6.6 40.34 6.62ZM11.22 17.82C10.6635 18.3378 10.0685 18.8125 9.43998 19.24C8.59697 19.735 7.6376 19.9973 6.65998 20C5.37298 19.9282 4.10475 19.6583 2.89998 19.2C2.92001 19.1077 2.92001 19.0123 2.89998 18.92C2.55151 17.7639 2.3565 16.567 2.31998 15.36C2.27642 14.1607 2.62774 12.9803 3.31998 12C3.96386 11.1123 4.92256 10.5042 5.99998 10.3C6.50654 10.1985 7.02928 10.2105 7.53068 10.335C8.03208 10.4595 8.4997 10.6934 8.89998 11.02C9.65499 11.5983 10.2362 12.3733 10.58 13.26C11.12 14.64 11.22 16.12 11.74 17.58C11.562 17.6495 11.3884 17.7297 11.22 17.82ZM19.22 18.84C18.7088 19.0058 18.1771 19.1001 17.64 19.12C17.0516 19.1493 16.4626 19.0749 15.9 18.9C15.2487 18.7022 14.6135 18.4548 14 18.16L13.6 18C13.6211 17.8876 13.6211 17.7723 13.6 17.66C13.6 17.46 13.44 16.72 13.4 16.42L13.26 14.42C13.2771 13.3302 13.5732 12.2629 14.12 11.32C14.3721 10.8969 14.7078 10.5296 15.1067 10.2408C15.5057 9.9519 15.9593 9.74747 16.44 9.64C16.9784 9.43973 17.5664 9.41508 18.1197 9.56957C18.673 9.72406 19.1632 10.0498 19.52 10.5C20.1876 11.5677 20.6363 12.7574 20.84 14C21.016 14.9764 21.2839 15.934 21.64 16.86C21.4054 17.3576 21.0598 17.7948 20.6299 18.138C20.2 18.4812 19.6972 18.7214 19.16 18.84H19.22ZM33.38 15.78V17.04C33.366 17.1395 33.366 17.2405 33.38 17.34C33.1699 17.3588 32.9658 17.42 32.78 17.52C32.42 17.7 31.98 18.1 31.76 18.22C31.3846 18.4424 30.9896 18.6299 30.58 18.78C30.1835 18.9132 29.7749 19.007 29.36 19.06C28.5564 19.1594 27.7436 19.1594 26.94 19.06C26.1937 18.9703 25.4729 18.7323 24.82 18.36C24.4132 18.0364 24.0259 17.6891 23.66 17.32L23.78 17.22C23.8983 17.0322 23.9734 16.8204 24 16.6V15.64L24.48 13.82C24.8704 12.3656 25.5507 11.005 26.48 9.82C26.7963 9.43991 27.1955 9.13727 27.6469 8.93528C28.0983 8.73329 28.5899 8.63731 29.0841 8.65468C29.5783 8.67206 30.062 8.80233 30.4981 9.03552C30.9342 9.26871 31.3111 9.59863 31.6 10C32.4446 11.0406 33.0092 12.2798 33.24 13.6C33.3029 13.9364 33.3364 14.2777 33.34 14.62C33.3564 15.0067 33.3497 15.3941 33.32 15.78H33.38ZM44.64 16.44C44.6301 16.5331 44.6301 16.6269 44.64 16.72C43.8482 17.3514 42.9557 17.845 42 18.18C40.956 18.581 39.8261 18.705 38.72 18.54C37.5 18.36 36.4 17.88 35.22 17.6H35.06C35.1266 17.5053 35.1679 17.3951 35.18 17.28C35.3786 14.8913 35.9946 12.5559 37 10.38C37.3661 9.77222 37.8738 9.26201 38.4798 8.89286C39.0857 8.52372 39.772 8.30659 40.48 8.26C41.1474 8.12869 41.8388 8.19937 42.4658 8.463C43.0928 8.72663 43.6269 9.17124 44 9.74C44.961 11.8394 45.1659 14.2067 44.58 16.44H44.64Z" fill="black"/>
<path d="M3.74001 36C4.26066 36.366 4.86451 36.5961 5.4967 36.6695C6.12889 36.7428 6.76939 36.6571 7.36001 36.42C8.17623 36.0683 8.84695 35.447 9.26001 34.66C9.36907 34.4677 9.46269 34.2671 9.54001 34.06C10.6434 35.5012 12.2249 36.5012 14 36.88C14.747 37.0901 15.5368 37.0951 16.2864 36.8945C17.036 36.6939 17.7178 36.2951 18.26 35.74C18.7213 35.2176 19.1053 34.6316 19.4 34C19.7064 34.7364 20.1397 35.4133 20.68 36C21.0724 36.4475 21.5597 36.8018 22.1063 37.0371C22.653 37.2723 23.2453 37.3827 23.84 37.36C24.3876 37.3426 24.9258 37.2129 25.4212 36.979C25.9166 36.745 26.3587 36.4118 26.72 36C27.592 35.0132 28.1856 33.8121 28.44 32.52C28.8984 33.4838 29.4983 34.3737 30.22 35.16C30.8466 35.7891 31.6564 36.2036 32.5332 36.3437C33.4099 36.4838 34.3086 36.3425 35.1 35.94C35.9394 35.5808 36.6801 35.0252 37.26 34.32C37.7048 33.7675 38.0809 33.1631 38.38 32.52C38.6562 33.3585 39.1374 34.1147 39.78 34.72C40.2679 35.1711 40.8968 35.4396 41.56 35.48C42.4161 35.49 43.259 35.2689 44 34.84C47.02 33.24 47.3 29.96 47.18 26.84C47.1716 26.7396 47.1371 26.643 47.08 26.56C47.1676 26.445 47.215 26.3045 47.215 26.16C47.215 26.0155 47.1676 25.8749 47.08 25.76C46.5294 25.0562 45.7858 24.5281 44.94 24.24C43.7562 23.9522 42.5315 23.871 41.32 24C40.6392 24.0024 39.9634 24.1173 39.32 24.34C38.8181 24.5359 38.3717 24.8518 38.02 25.26C37.8926 25.4124 37.785 25.5804 37.7 25.76H37.52C37.1941 25.6258 36.8602 25.5122 36.52 25.42C35.7531 25.1581 34.9503 25.0165 34.14 25C33.3444 24.9879 32.5507 25.082 31.78 25.28C31.2565 25.4135 30.7421 25.5805 30.24 25.78C29.76 25.98 29.3 26.22 28.84 26.46C28.6858 26.5705 28.5388 26.6907 28.4 26.82L28 26C27.4115 25.5016 26.7325 25.1213 26 24.88C25.4281 24.7162 24.8268 24.682 24.24 24.78C23.7334 24.8776 23.2377 25.025 22.76 25.22C22.0707 25.5059 21.4023 25.84 20.76 26.22L20.34 26.36C20.241 26.2272 20.1269 26.1064 20 26C19.2541 25.3928 18.4172 24.9068 17.52 24.56C16.8813 24.3194 16.2023 24.204 15.52 24.22C14.7713 24.247 14.0303 24.3817 13.32 24.62C12.6135 24.8582 11.9412 25.1876 11.32 25.6C10.9 25.88 10.42 26.34 9.90001 26.68C9.77473 26.7937 9.63317 26.8881 9.48001 26.96L9.18001 26.74C8.799 26.5284 8.40486 26.3414 8.00001 26.18C7.73086 26.1023 7.45695 26.0422 7.18001 26C5.89405 25.7683 4.56798 25.9358 3.38001 26.48C2.26422 26.97 1.25266 27.6693 0.400014 28.54C0.2946 28.6545 0.236084 28.8044 0.236084 28.96C0.236084 29.1156 0.2946 29.2655 0.400014 29.38C0.469861 29.4417 0.553998 29.485 0.6448 29.5059C0.735602 29.5269 0.830198 29.5248 0.920014 29.5C0.920014 29.84 0.920014 30.18 0.820014 30.54C0.770235 30.9384 0.770235 31.3415 0.820014 31.74C0.940065 32.6288 1.26674 33.4772 1.77383 34.217C2.28092 34.9568 2.95431 35.5674 3.74001 36ZM39.34 26.26C39.5558 26.005 39.8405 25.8175 40.16 25.72C40.5605 25.587 40.9782 25.5129 41.4 25.5C42.4315 25.3828 43.4757 25.4574 44.48 25.72C45.0526 25.8757 45.567 26.1955 45.96 26.64C45.879 26.7574 45.8371 26.8974 45.84 27.04C46.0267 28.5763 45.8345 30.1351 45.28 31.58C44.8792 32.468 44.168 33.1791 43.28 33.58C42.8832 33.7984 42.4491 33.9409 42 34C41.8097 34.0131 41.6188 33.9861 41.4396 33.9206C41.2604 33.8552 41.097 33.7527 40.96 33.62C40.4476 33.1114 40.0934 32.4654 39.94 31.76C39.6949 30.5116 39.5279 29.2492 39.44 27.98C39.4346 27.8575 39.4012 27.7379 39.3422 27.6304C39.2833 27.5229 39.2004 27.4304 39.1 27.36L39.34 26.26ZM28.94 28.84C29.28 28.64 29.66 28.34 29.9 28.2C30.2827 27.9737 30.6765 27.7667 31.08 27.58C31.475 27.3973 31.8827 27.2436 32.3 27.12C32.8967 26.936 33.5158 26.835 34.14 26.82C34.7621 26.8041 35.3828 26.8851 35.98 27.06C35.98 27.06 37.34 27.78 37.46 27.88H37.58V28.78L37.26 30.42C37.0238 31.2202 36.659 31.9768 36.18 32.66C35.7551 33.2841 35.1573 33.7706 34.46 34.06C34.0204 34.2863 33.5204 34.3676 33.0317 34.2922C32.5431 34.2167 32.0909 33.9884 31.74 33.64C30.6499 32.126 29.7057 30.5121 28.92 28.82L28.94 28.84ZM20.78 28.84C21.1247 28.6596 21.4586 28.4593 21.78 28.24C22.2272 27.9762 22.6878 27.7359 23.16 27.52C23.5815 27.3226 24.0244 27.175 24.48 27.08C24.805 27.0408 25.1347 27.082 25.44 27.2C25.817 27.351 26.1679 27.5602 26.48 27.82L26.78 28.14L26.94 28.42C26.8555 28.5185 26.7817 28.6258 26.72 28.74C26.7048 28.9864 26.7048 29.2336 26.72 29.48V30.16L26.46 31.84C26.3167 32.6623 26.0033 33.4457 25.54 34.14C25.363 34.416 25.1209 34.6443 24.8349 34.8048C24.5489 34.9652 24.2278 35.0528 23.9 35.06C23.5171 35.0715 23.1382 34.979 22.8037 34.7923C22.4691 34.6057 22.1914 34.3319 22 34C21.4716 33.2279 21.1043 32.3572 20.92 31.44L20.7 29.72C20.68 29.46 20.76 29.06 20.78 28.8V28.84ZM10.46 28.28C11.06 27.96 11.66 27.42 12.16 27.14C12.6578 26.8513 13.1882 26.6231 13.74 26.46C14.2796 26.3059 14.8389 26.2318 15.4 26.24C15.9534 26.2638 16.4939 26.4144 16.98 26.68C17.5286 26.9448 18.0397 27.281 18.5 27.68C18.5897 27.7646 18.6702 27.8584 18.74 27.96C18.569 28.1246 18.4448 28.3316 18.38 28.56C18.24 29.02 18.22 30.16 18.16 30.4C18.0579 31.1483 17.8837 31.8851 17.64 32.6C17.4345 33.2645 17.1017 33.8827 16.66 34.42C16.2547 34.7681 15.7551 34.9882 15.2247 35.0523C14.6942 35.1163 14.1566 35.0216 13.68 34.78C12.4932 34.446 11.4822 33.6645 10.86 32.6C10.7273 32.2943 10.6397 31.9709 10.6 31.64C10.48 30.62 10.6 29.64 10.44 28.58C10.4543 28.4872 10.4543 28.3928 10.44 28.3L10.46 28.28ZM2.00001 30.58C2.00001 30.04 2.00001 29.52 2.12001 29C2.14971 28.8886 2.14971 28.7714 2.12001 28.66C2.70135 28.2424 3.33299 27.8997 4.00001 27.64C4.93235 27.2587 5.96131 27.1817 6.94001 27.42L8.34001 28.1C8.34001 28.1 8.66001 28.4 8.80001 28.48C8.94001 28.56 8.80001 28.58 8.80001 28.64V29.48V31.08C8.70606 32.0926 8.43529 33.0809 8.00001 34C7.77034 34.4918 7.38327 34.8929 6.90001 35.14C6.39785 35.3191 5.85368 35.3443 5.33709 35.2125C4.8205 35.0807 4.35496 34.7978 4.00001 34.4C3.10382 33.6568 2.46657 32.6484 2.18001 31.52C2.08043 31.2155 2.01994 30.8997 2.00001 30.58Z" fill="black"/>
<path d="M46.56 34C46.6301 34.8319 46.6301 35.6681 46.56 36.5C46.4635 37.7686 46.0659 38.9959 45.4 40.08C44.7323 40.9551 43.8507 41.6438 42.84 42.08C41.2206 42.793 39.5316 43.3359 37.8 43.7C34.2954 44.5151 30.7303 45.0435 27.14 45.28C23.5548 45.5421 19.9531 45.4751 16.38 45.08L7.68002 43.8C6.81911 43.7109 5.96426 43.5707 5.12002 43.38C4.70015 43.261 4.31568 43.0413 4.00002 42.74C3.29216 41.9375 2.86402 40.9268 2.78002 39.86C2.59976 38.9179 2.52597 37.9586 2.56002 37C2.56002 35.74 1.52002 35 1.22002 36.52C1.08019 37.6751 1.06678 38.842 1.18002 40C1.24298 41.4657 1.78383 42.8705 2.72002 44C3.14436 44.3861 3.64042 44.6851 4.18002 44.88C5.22991 45.2149 6.30748 45.4559 7.40002 45.6C9.40002 45.96 11.4 46.4 13.4 46.78C14.28 46.94 15.16 47.08 16.06 47.2C19.7597 47.6809 23.4979 47.7948 27.22 47.54C30.9291 47.2566 34.6045 46.634 38.2 45.68C40.0525 45.205 41.8492 44.5346 43.56 43.68C44.8034 43.0823 45.8764 42.1813 46.68 41.06C47.485 39.7213 47.9391 38.201 48 36.64C48.0699 35.748 48.0699 34.852 48 33.96C47.64 32.34 46.72 32.52 46.56 34Z" fill="black"/>
</g>
<defs>
<clipPath id="clip0_1210_2034">
<rect width="48" height="48" fill="white"/>
</clipPath>
</defs>
</svg>
