<svg width="48" height="48" viewBox="0 0 48 48" fill="none" xmlns="http://www.w3.org/2000/svg">
<g clip-path="url(#clip0_1210_2040)">
<path fill-rule="evenodd" clip-rule="evenodd" d="M26.24 6.74002C26.2534 6.84937 26.2931 6.95384 26.3559 7.04442C26.4186 7.135 26.5023 7.20899 26.6 7.26002C27.0462 7.49081 27.4683 7.7655 27.86 8.08002C28.2019 8.35865 28.4813 8.7062 28.68 9.10002C28.84 9.46002 28.9 10.24 29.08 10.72C29.1689 11.0005 29.3353 11.2501 29.56 11.44C29.6545 11.5167 29.7632 11.5738 29.88 11.6081C29.9967 11.6425 30.119 11.6533 30.24 11.64C30.3617 11.6243 30.4785 11.5822 30.5821 11.5165C30.6858 11.4509 30.7738 11.3633 30.84 11.26C31.32 10.68 30.84 10.68 31.2 9.10002C31.2622 8.87395 31.3425 8.65324 31.44 8.44002C31.5498 8.26721 31.6925 8.11771 31.86 8.00002C32.072 7.8109 32.3072 7.6496 32.56 7.52002C32.8745 7.3829 33.1816 7.22935 33.48 7.06002C33.6266 6.95657 33.7491 6.82252 33.8388 6.66713C33.9286 6.51175 33.9836 6.33873 34 6.16002C34.0201 5.91173 33.9717 5.66267 33.86 5.44002C33.52 4.78002 32.82 4.84002 32.02 4.30002C31.7821 3.94567 31.6062 3.5534 31.5 3.14002C31.26 2.36002 31.12 1.54002 30.86 0.740019C30.8004 0.510334 30.6579 0.310838 30.46 0.180019C30.3091 0.0695188 30.127 0.00994873 29.94 0.00994873C29.753 0.00994873 29.5708 0.0695188 29.42 0.180019C29.3101 0.242949 29.2155 0.329358 29.1429 0.433075C29.0703 0.536792 29.0215 0.65526 29 0.780019C29 0.780019 29 1.34002 29 1.52002L28.76 2.84002C28.5823 3.48788 28.2533 4.08426 27.8 4.58002C27.3371 5.07755 26.7505 5.44333 26.1 5.64002C26.0274 5.65647 25.9589 5.68721 25.8983 5.73046C25.8377 5.7737 25.7864 5.82858 25.7473 5.89189C25.7082 5.9552 25.6821 6.02567 25.6706 6.09918C25.659 6.17269 25.6622 6.24776 25.68 6.32002C25.7117 6.44323 25.7845 6.55196 25.8863 6.6283C25.9881 6.70464 26.1128 6.74404 26.24 6.74002ZM28.7 5.56002C29.0776 5.24211 29.4076 4.87167 29.68 4.46002C29.8297 4.84179 30.0244 5.20435 30.26 5.54002C30.4044 5.74543 30.5722 5.93336 30.76 6.10002C30.6376 6.18925 30.5238 6.28968 30.42 6.40002C30.055 6.7527 29.7746 7.18348 29.6 7.66002C29.4283 7.47126 29.2409 7.29731 29.04 7.14002C28.6066 6.78664 28.1293 6.49085 27.62 6.26002C28.0045 6.06691 28.3667 5.83217 28.7 5.56002Z" fill="black"/>
<path fill-rule="evenodd" clip-rule="evenodd" d="M27.52 20.68C25.9562 21.3663 24.2973 21.8114 22.6 22C21.8974 22.0957 21.189 22.1425 20.48 22.14C19.7775 22.1432 19.0758 22.0964 18.38 22C16.7146 21.8072 15.1146 21.2396 13.7 20.34C13.5921 20.2373 13.4489 20.18 13.3 20.18C13.151 20.18 13.0078 20.2373 12.9 20.34C12.8016 20.45 12.7472 20.5924 12.7472 20.74C12.7472 20.8876 12.8016 21.03 12.9 21.14C14.3179 22.5266 16.0774 23.5133 18 24C18.8122 24.1939 19.645 24.2879 20.48 24.28C21.3137 24.2657 22.1441 24.1719 22.96 24C24.797 23.5402 26.5467 22.7836 28.14 21.76C28.2854 21.6723 28.3927 21.5333 28.4408 21.3705C28.4889 21.2076 28.4743 21.0327 28.4 20.88C28.3061 20.7412 28.1629 20.6432 27.9995 20.6061C27.8361 20.5689 27.6646 20.5954 27.52 20.68Z" fill="black"/>
<path fill-rule="evenodd" clip-rule="evenodd" d="M45.52 10.3L44.1 9.86001C43.9057 9.75145 43.735 9.60538 43.5976 9.43028C43.4603 9.25518 43.3591 9.05454 43.3 8.84001C43.1018 8.23334 42.9546 7.61118 42.86 6.98001C42.86 6.72001 42.86 6.32001 42.72 6.00001C42.6881 5.76197 42.6136 5.53163 42.5 5.32001C42.4189 5.14692 42.2825 5.00577 42.1123 4.91885C41.9421 4.83193 41.7477 4.80419 41.56 4.84001C41.3953 4.85033 41.2372 4.90895 41.1056 5.00854C40.974 5.10814 40.8747 5.24429 40.82 5.40001C40.8058 5.58641 40.8058 5.77361 40.82 5.96001V6.46001L40.56 7.70001C40.3118 8.4423 39.9097 9.12383 39.38 9.70001C38.895 10.2604 38.2305 10.635 37.5 10.76C37.3979 10.7753 37.3014 10.8166 37.22 10.88C37.0979 10.9229 36.991 11.0007 36.9128 11.1039C36.8346 11.207 36.7884 11.3308 36.78 11.46C36.7773 11.5441 36.7912 11.6278 36.821 11.7065C36.8507 11.7852 36.8956 11.8572 36.9532 11.9185C37.0108 11.9798 37.0799 12.0291 37.1565 12.0637C37.2332 12.0983 37.3159 12.1174 37.4 12.12C38.0948 12.1838 38.7523 12.4635 39.28 12.92C39.785 13.3732 40.1465 13.9641 40.32 14.62C40.4261 15.3558 40.5798 16.084 40.78 16.8C40.8954 17.1209 41.0959 17.4043 41.36 17.62C41.437 17.7089 41.5322 17.7803 41.6391 17.8292C41.7461 17.878 41.8624 17.9034 41.98 17.9034C42.0976 17.9034 42.2138 17.878 42.3208 17.8292C42.4278 17.7803 42.523 17.7089 42.6 17.62C42.7347 17.3066 42.8288 16.9773 42.88 16.64L42.92 16C42.9946 15.6486 43.088 15.3014 43.2 14.96C43.3134 14.6258 43.4609 14.3041 43.64 14C43.7312 13.8434 43.8538 13.7072 44 13.6C44.32 13.32 44.68 13.12 45 12.86C45.64 12.36 46.12 12.4 46.28 11.56C46.3187 11.4273 46.3295 11.2879 46.3117 11.1508C46.2938 11.0137 46.2478 10.8817 46.1763 10.7633C46.1049 10.6449 46.0097 10.5426 45.8967 10.4629C45.7838 10.3831 45.6555 10.3277 45.52 10.3ZM42.4 12.18C42.1744 12.3996 41.9794 12.6485 41.82 12.92C41.72 13.1 41.64 13.3 41.54 13.48C41.2019 12.8014 40.7086 12.2121 40.1 11.76C39.8654 11.588 39.618 11.4342 39.36 11.3C39.677 11.1213 39.9723 10.9066 40.24 10.66C40.6381 10.3152 40.9879 9.91829 41.28 9.48001C41.3312 9.66537 41.3981 9.84603 41.48 10.02C41.7773 10.7262 42.297 11.316 42.96 11.7C42.7555 11.838 42.5677 11.9991 42.4 12.18Z" fill="black"/>
<path fill-rule="evenodd" clip-rule="evenodd" d="M38.54 18.48C38.0172 17.0585 37.23 15.7488 36.22 14.62C35.3675 13.8342 34.3513 13.2472 33.2446 12.9013C32.1379 12.5555 30.9683 12.4594 29.82 12.62C26.8143 13.0277 23.9781 14.2522 21.62 16.16C20.3512 15.3713 19.0122 14.7018 17.62 14.16C16.4747 13.7237 15.2649 13.4804 14.04 13.44C12.3698 13.4861 10.7301 13.8987 9.23708 14.6487C7.74403 15.3987 6.43409 16.4677 5.39999 17.78C3.25215 20.2762 1.96222 23.3959 1.71999 26.68C1.5139 30.851 2.44728 34.9993 4.41999 38.68C6.42082 42.2318 9.09787 45.3572 12.3 47.88C12.4673 48.039 12.6892 48.1277 12.92 48.1277C13.1508 48.1277 13.3727 48.039 13.54 47.88C15.4 45.88 16.16 40.48 18.28 37.44C18.6164 36.8401 19.1167 36.3485 19.7224 36.0226C20.328 35.6967 21.014 35.5502 21.7 35.6C22.6805 35.6797 23.6341 35.9606 24.5012 36.4251C25.3683 36.8897 26.1304 37.5279 26.74 38.3C28.5017 40.8927 29.8071 43.7674 30.6 46.8C30.6539 46.9426 30.7618 47.0581 30.9003 47.1217C31.0388 47.1854 31.1967 47.1919 31.34 47.14C31.4115 47.1179 31.4776 47.0811 31.5342 47.032C31.5907 46.9829 31.6364 46.9225 31.6684 46.8548C31.7004 46.7871 31.7179 46.7135 31.7199 46.6387C31.7219 46.5638 31.7083 46.4893 31.68 46.42C30.8569 43.2308 29.5048 40.2021 27.68 37.46C27.0026 36.507 26.1329 35.7066 25.127 35.1106C24.121 34.5146 23.0013 34.1363 21.84 34C20.8956 33.897 19.9414 34.0641 19.0881 34.4819C18.2349 34.8996 17.5178 35.5509 17.02 36.36C15.02 39 14.24 43.46 12.74 45.8C10.0923 43.5084 7.88894 40.7491 6.23998 37.66C4.47906 34.3225 3.66304 30.5674 3.87999 26.8C4.09648 23.991 5.21147 21.3262 7.05999 19.2C7.88244 18.1298 8.93079 17.2541 10.1303 16.6353C11.3299 16.0165 12.6512 15.6699 14 15.62C14.9857 15.6338 15.961 15.8234 16.88 16.18C18.382 16.7607 19.8279 17.477 21.2 18.32C21.3889 18.435 21.61 18.4854 21.83 18.4638C22.0501 18.4421 22.2571 18.3496 22.42 18.2C24.5378 16.2702 27.1716 14.9984 30 14.54C30.8757 14.3933 31.773 14.4428 32.6273 14.6849C33.4816 14.927 34.2715 15.3557 34.94 15.94C35.995 17.1596 36.8033 18.5724 37.32 20.1C37.9418 21.6444 38.3847 23.2549 38.64 24.9C38.9128 27.4642 38.7369 30.0563 38.12 32.56C37.5126 35.1103 36.6759 37.6005 35.62 40C35.2567 40.8526 34.8148 41.6695 34.3 42.44C33.8044 43.2341 33.2495 43.9896 32.64 44.7C32.5835 44.7631 32.54 44.8366 32.512 44.9165C32.4839 44.9963 32.4719 45.0809 32.4765 45.1654C32.4812 45.2499 32.5024 45.3326 32.539 45.4089C32.5757 45.4852 32.6269 45.5536 32.69 45.61C32.753 45.6665 32.8266 45.71 32.9064 45.738C32.9863 45.7661 33.0708 45.7781 33.1553 45.7735C33.2398 45.7689 33.3226 45.7476 33.3989 45.711C33.4752 45.6744 33.5435 45.6231 33.6 45.56C34.2561 44.8058 34.864 44.0109 35.42 43.18C35.978 42.3414 36.4663 41.4585 36.88 40.54C38.2799 37.5935 39.3271 34.4921 40 31.3C40.4261 29.1341 40.5405 26.9184 40.34 24.72C40.0202 22.5692 39.4149 20.4707 38.54 18.48Z" fill="black"/>
</g>
<defs>
<clipPath id="clip0_1210_2040">
<rect width="48" height="48" fill="white"/>
</clipPath>
</defs>
</svg>
