<svg width="48" height="48" viewBox="0 0 48 48" fill="none" xmlns="http://www.w3.org/2000/svg">
<g clip-path="url(#clip0_1209_6970)">
<path d="M24.0011 32.4185C29.0714 32.4185 33.2796 37.9548 34.0716 45.2192C34.1261 45.7075 34.3586 46.1587 34.7245 46.4867C35.0904 46.8146 35.5643 46.9964 36.0557 46.9973C36.4955 46.9965 36.9216 46.8447 37.2628 46.5673C37.604 46.2898 37.8394 45.9036 37.9298 45.4732C38.3684 43.335 38.5876 41.1576 38.5838 38.9749C38.613 34.9573 37.8413 30.9742 36.3137 27.2583C39.2238 24.3562 41.5 19.8259 41.5 12.7276C41.5 6.17127 37.2558 0.999023 32.0235 0.999023C30.4197 0.999314 28.8423 1.40688 27.4391 2.18351C26.0359 2.96015 24.853 4.0804 24.0011 5.43924C23.1493 4.0804 21.9663 2.96015 20.5631 2.18351C19.1599 1.40688 17.5825 0.999314 15.9787 0.999023C10.7465 0.999023 6.50226 6.17127 6.50226 12.7316C6.50226 19.8299 8.77837 24.3602 11.6885 27.2623C10.1609 30.9782 9.3892 34.9613 9.4184 38.9789C9.41463 41.1616 9.63378 43.339 10.0724 45.4772C10.1628 45.9076 10.3982 46.2938 10.7394 46.5713C11.0806 46.8487 11.5068 47.0005 11.9465 47.0013C12.4379 47.0004 12.9118 46.8186 13.2777 46.4907C13.6437 46.1627 13.8761 45.7115 13.9306 45.2232C14.7227 37.9548 18.9309 32.4185 24.0011 32.4185Z" stroke="black" stroke-width="2.0001" stroke-linecap="round" stroke-linejoin="round"/>
<path d="M21.001 23.0005V26.0007C21.001 26.2659 21.1064 26.5203 21.294 26.7078C21.4815 26.8954 21.7359 27.0007 22.0011 27.0007H26.0013C26.2665 27.0007 26.5209 26.8954 26.7084 26.7078C26.896 26.5203 27.0013 26.2659 27.0013 26.0007V23.0005H30.0015C30.2667 23.0005 30.5211 22.8952 30.7086 22.7076C30.8962 22.5201 31.0015 22.2657 31.0015 22.0005V18.0003C31.0015 17.7351 30.8962 17.4807 30.7086 17.2932C30.5211 17.1056 30.2667 17.0003 30.0015 17.0003H27.0013V14.0001C27.0013 13.7349 26.896 13.4805 26.7084 13.293C26.5209 13.1054 26.2665 13.0001 26.0013 13.0001H22.0011C21.7359 13.0001 21.4815 13.1054 21.294 13.293C21.1064 13.4805 21.001 13.7349 21.001 14.0001V17.0003H18.0009C17.7357 17.0003 17.4813 17.1056 17.2938 17.2932C17.1062 17.4807 17.0009 17.7351 17.0009 18.0003V22.0005C17.0009 22.2657 17.1062 22.5201 17.2938 22.7076C17.4813 22.8952 17.7357 23.0005 18.0009 23.0005H21.001Z" stroke="black" stroke-width="2.0001" stroke-linecap="round" stroke-linejoin="round"/>
</g>
<defs>
<clipPath id="clip0_1209_6970">
<rect width="48.0023" height="48.0023" fill="white"/>
</clipPath>
</defs>
</svg>
