<svg width="48" height="48" viewBox="0 0 48 48" fill="none" xmlns="http://www.w3.org/2000/svg">
<path d="M45.8496 26.6482V36.1528C45.8496 37.0811 45.0972 37.8335 44.169 37.8335H3.83406C2.90588 37.8335 2.15344 37.0811 2.15344 36.1528V9.2629C2.15344 8.33473 2.90588 7.58228 3.83406 7.58228H11.4599" stroke="black" stroke-width="2.0001" stroke-linecap="round" stroke-linejoin="round"/>
<path d="M20.6404 37.8342L17.2792 46.2372" stroke="black" stroke-width="2.0001" stroke-linecap="round" stroke-linejoin="round"/>
<path d="M27.3628 37.8342L30.724 46.2372" stroke="black" stroke-width="2.0001" stroke-linecap="round" stroke-linejoin="round"/>
<path d="M13.9177 46.2368H34.0851" stroke="black" stroke-width="2.0001" stroke-linecap="round" stroke-linejoin="round"/>
<path d="M28.911 2.00812H30.7929C31.2922 2.00812 31.7708 2.20641 32.1238 2.55934C32.4766 2.91228 32.675 3.39098 32.675 3.89011V9.05142C32.675 11.048 31.8818 12.9627 30.4701 14.3745C29.0582 15.7862 27.1436 16.5794 25.1471 16.5794C23.1506 16.5794 21.2357 15.7862 19.8239 14.3745C18.4122 12.9627 17.619 11.048 17.619 9.05142V3.89011C17.619 3.39098 17.8173 2.91228 18.1703 2.55934C18.5232 2.20641 19.0019 2.00812 19.501 2.00812H21.3831" stroke="black" stroke-width="2.0001" stroke-linecap="round" stroke-linejoin="round"/>
<path d="M42.0853 12.8156C44.164 12.8156 45.8493 11.1304 45.8493 9.05164C45.8493 6.97286 44.164 5.28766 42.0853 5.28766C40.0064 5.28766 38.3214 6.97286 38.3214 9.05164C38.3214 11.1304 40.0064 12.8156 42.0853 12.8156Z" stroke="black" stroke-width="2.0001" stroke-linecap="round" stroke-linejoin="round"/>
<path d="M25.1469 16.5791V17.5201C25.1469 19.7662 26.0392 21.9202 27.6272 23.5085C29.2155 25.0968 31.3696 25.989 33.6157 25.989C35.8618 25.989 38.0159 25.0968 39.6042 23.5085C41.1925 21.9202 42.0847 19.7662 42.0847 17.5201V12.8151" stroke="black" stroke-width="2.0001" stroke-linecap="round" stroke-linejoin="round"/>
</svg>
