<svg width="48" height="48" viewBox="0 0 48 48" fill="none" xmlns="http://www.w3.org/2000/svg">
<g clip-path="url(#clip0_1210_2022)">
<path fill-rule="evenodd" clip-rule="evenodd" d="M29.04 22.58C30.14 22.58 30.88 21.8 30.82 20.36C30.76 18.92 30.32 18 29 18C26.88 18.16 27 22.46 29.04 22.58Z" fill="black"/>
<path fill-rule="evenodd" clip-rule="evenodd" d="M19.32 18.1C17.98 18.1 17.52 19.1 17.48 20.38C17.44 21.66 18.16 22.64 19.28 22.58C21.36 22.44 21.48 18.22 19.32 18.1Z" fill="black"/>
<path fill-rule="evenodd" clip-rule="evenodd" d="M34.12 22.38C34.3151 22.4684 34.5276 22.5121 34.7417 22.508C34.9559 22.5039 35.1665 22.452 35.3581 22.3562C35.5497 22.2604 35.7176 22.1231 35.8494 21.9542C35.9812 21.7853 36.0736 21.5891 36.12 21.38C36.2088 21.1736 36.2481 20.9493 36.2347 20.725C36.2213 20.5007 36.1557 20.2826 36.0429 20.0883C35.9302 19.8939 35.7735 19.7286 35.5855 19.6056C35.3975 19.4826 35.1832 19.4053 34.96 19.38C34.5622 19.2686 34.1364 19.3198 33.7763 19.5223C33.4162 19.7249 33.1514 20.0621 33.04 20.46C32.9286 20.8578 32.9798 21.2836 33.1823 21.6436C33.3849 22.0037 33.7222 22.2686 34.12 22.38Z" fill="black"/>
<path fill-rule="evenodd" clip-rule="evenodd" d="M14.58 22.6C16.16 22.04 15.4 19.18 13.7 19.6C12.64 19.84 12.5 20.66 12.72 21.6C12.7579 21.7987 12.8397 21.9865 12.9594 22.1496C13.0791 22.3127 13.2337 22.4471 13.4119 22.5429C13.5901 22.6387 13.7874 22.6935 13.9895 22.7034C14.1916 22.7133 14.3933 22.6779 14.58 22.6Z" fill="black"/>
<path fill-rule="evenodd" clip-rule="evenodd" d="M40.1 22.74C40.3 21.94 40.1 21.18 39.24 20.96C37.7 20.6 37 23.22 38.44 23.72C38.6129 23.7886 38.7992 23.8167 38.9847 23.8022C39.1701 23.7878 39.3498 23.7311 39.51 23.6365C39.6702 23.5419 39.8066 23.412 39.9089 23.2566C40.0111 23.1012 40.0765 22.9245 40.1 22.74Z" fill="black"/>
<path fill-rule="evenodd" clip-rule="evenodd" d="M9.99998 24.44C11.56 23.88 10.78 20.88 9.09998 21.28C8.05998 21.54 7.93998 22.38 8.15998 23.28C8.17717 23.4903 8.24306 23.6937 8.35243 23.8742C8.46181 24.0546 8.61168 24.2072 8.79018 24.3197C8.96868 24.4322 9.17091 24.5017 9.38089 24.5226C9.59086 24.5434 9.80282 24.5152 9.99998 24.44Z" fill="black"/>
<path fill-rule="evenodd" clip-rule="evenodd" d="M47 19.74V15.6C47.1685 13.0183 47.0208 10.4258 46.56 7.87998C46.2231 6.02491 45.3303 4.31605 44 2.97998C42.14 1.25998 35.82 0.259981 28.76 -1.94274e-05C1.58001 -0.660019 2.20001 5.17998 1.24001 9.01998C1.35303e-05 14.42 1.02001 21.86 0.860014 27.38C0.738671 30.5179 0.859026 33.6605 1.22001 36.78C1.40829 38.9754 1.99807 41.1176 2.96001 43.1C3.68822 44.3271 4.7399 45.3304 6.00001 46C7.80175 46.8604 9.7486 47.3759 11.74 47.52C14.1 47.8 18.28 47.92 22.68 47.94C29.6 47.94 37.1 47.72 38.96 47.64C40.0464 47.6205 41.1173 47.3799 42.1076 46.9328C43.0979 46.4858 43.9868 45.8418 44.72 45.04C46.5113 42.5797 47.4521 39.6028 47.4 36.56C47.56 31 47.04 25.36 47 19.74ZM44.78 36.52C44.7993 38.6031 44.3192 40.6605 43.38 42.52C42.9142 43.3147 42.2478 43.9732 41.4475 44.4295C40.6473 44.8857 39.7412 45.1239 38.82 45.12C36.98 45.12 29.52 45.46 22.66 45.5C18.36 45.5 14.3 45.5 11.98 45.26C10.2825 45.1488 8.62064 44.7214 7.08001 44C6.17398 43.5523 5.41175 42.8594 4.88001 42C4.02002 40.285 3.47793 38.4283 3.28001 36.52C2.87971 33.5104 2.69924 30.4757 2.74001 27.44C2.74001 22 1.52001 14.72 2.74001 9.43998C3.96001 4.15998 5.76001 1.67998 24.96 1.87998C32.76 1.87998 40.54 2.65998 42.6 4.57998C43.584 5.62317 44.226 6.94198 44.44 8.35998C44.8374 10.705 44.9248 13.0921 44.7 15.46C44.6 16.88 44.56 18.32 44.56 19.74C44.54 25.32 45.02 30.94 44.78 36.52Z" fill="black"/>
<path fill-rule="evenodd" clip-rule="evenodd" d="M33.58 17.16C33.9328 17.1883 34.2873 17.1883 34.64 17.16C34.9337 17.1156 35.2138 17.0063 35.46 16.84C35.886 16.5809 36.2375 16.2157 36.48 15.78C36.7972 15.0794 37.0191 14.3395 37.14 13.58C37.24 13.06 37.52 12.38 37.6 11.74C37.6921 11.3183 37.6921 10.8817 37.6 10.46C37.4505 9.91179 37.1768 9.40537 36.8 8.98001C36.3453 8.45481 35.8124 8.00284 35.22 7.64001C34.3623 7.08939 33.4509 6.62703 32.5 6.26001C31.1237 5.76014 29.7134 5.35912 28.28 5.06001C26.9645 4.77586 25.6254 4.61516 24.28 4.58001C22.843 4.52449 21.4048 4.65219 20 4.96001C18.1458 5.38764 16.3567 6.06021 14.68 6.96001C13.76 7.46001 9.72002 10.16 9.78002 10.72V11.68V12.64L10.06 15.04C10.0622 15.3044 10.1026 15.5672 10.18 15.82C10.2346 15.9767 10.3402 16.1106 10.48 16.2C10.6784 16.3465 10.9022 16.4549 11.14 16.52C11.5154 16.6106 11.8962 16.6774 12.28 16.72C12.7396 16.7493 13.2005 16.7493 13.66 16.72H16.64L21.6 17.08L29.6 16.96L33.58 17.16ZM21.72 14.9H16.78L12.6 15.02H11.82C11.8102 14.9537 11.8102 14.8863 11.82 14.82L11.38 12.54V11.58C12.3983 10.5527 13.5483 9.66495 14.8 8.94001C14.8199 9.30058 14.8872 9.65697 15 10C15.0613 10.1767 15.1564 10.3397 15.28 10.48C15.3871 10.6372 15.5228 10.7729 15.68 10.88C17.34 12.12 17.68 11.88 18 11.62C18.32 11.36 18.46 11.22 17.62 9.34001C17.5478 9.18925 17.4677 9.04238 17.38 8.90001C17.2705 8.76384 17.1501 8.63676 17.02 8.52001C16.8535 8.39754 16.672 8.29673 16.48 8.22001C17.7603 7.63795 19.1021 7.20187 20.48 6.92001C21.0632 6.83958 21.6513 6.79949 22.24 6.80001C22.2098 6.98545 22.2098 7.17457 22.24 7.36001C22.2201 7.55952 22.2201 7.76051 22.24 7.96001C22.64 10.06 23 10.14 23.38 10.16C23.76 10.18 24.12 10.16 24.72 8.16001C24.7408 7.97392 24.7408 7.7861 24.72 7.60001C24.74 7.41388 24.74 7.22614 24.72 7.04001V6.86001C25.7244 6.94181 26.7208 7.1023 27.7 7.34001C28.6619 7.58184 29.6099 7.87561 30.54 8.22001H30.4C30.2494 8.40081 30.1155 8.59495 30 8.80001C29.8815 8.99346 29.7747 9.19382 29.68 9.40001C28.86 11.4 29.08 11.8 29.46 12.06C29.84 12.32 30.12 12.4 31.76 10.76C31.9107 10.6026 32.051 10.4356 32.18 10.26C32.3134 10.0827 32.4212 9.88743 32.5 9.68001C32.5653 9.50537 32.6123 9.32439 32.64 9.14001C33.0318 9.30916 33.4126 9.50288 33.78 9.72001C34.0955 9.93161 34.3901 10.1727 34.66 10.44C34.844 10.6251 34.9811 10.8513 35.06 11.1L34.62 12.92C34.5585 13.3399 34.4649 13.7544 34.34 14.16C34.3246 14.2935 34.2688 14.4191 34.18 14.52H33.48L29.76 14.4L25.28 14.68L25.58 14.28C25.7824 14.0434 25.9631 13.789 26.12 13.52C26.2927 13.258 26.4464 12.9839 26.58 12.7C27.7 10.26 27.66 9.82001 27.16 9.48001C26.66 9.14001 26.34 9.28001 24.5 11.34C24.3157 11.5461 24.1485 11.7668 24 12C24 12 24 12 24 12.12C24 12.24 23.8 12.36 23.72 12.5C23.5213 12.7814 23.3409 13.0754 23.18 13.38C22.9933 13.8371 22.8331 14.3045 22.7 14.78L21.72 14.9Z" fill="black"/>
<path fill-rule="evenodd" clip-rule="evenodd" d="M32 23.7C31.0066 23.7136 30.0214 23.8823 29.08 24.2C28.6421 24.3371 28.2378 24.5646 27.8933 24.8677C27.5488 25.1709 27.2717 25.543 27.08 25.96C26.6788 26.9056 26.5406 27.9422 26.68 28.96C26.799 29.9603 27.1783 30.912 27.78 31.72C28.2 32.24 28.72 32.72 29.14 33.24C29.3553 33.488 29.5247 33.7724 29.64 34.08C29.7652 35.7951 29.644 37.5192 29.28 39.2C29.28 42.66 33.52 43 33.62 43C34.188 43.0798 34.7666 43.0315 35.3135 42.8584C35.8603 42.6854 36.3614 42.392 36.78 42C38.2755 40.6223 39.3854 38.8781 40 36.9399C40.5819 35.0369 40.8322 33.0479 40.74 31.06C40.6965 29.9876 40.4305 28.9359 39.9588 27.9719C39.4871 27.0078 38.82 26.1524 38 25.46C36.303 24.1193 34.1524 23.4884 32 23.7ZM37.82 36.32C37.4238 37.9606 36.6188 39.4743 35.48 40.72C35.1845 40.9736 34.8307 41.1502 34.4504 41.234C34.07 41.3177 33.6748 41.306 33.3 41.2C29.98 40.64 30.86 38.86 30.92 38.54C31.12 37.5 31.46 36.3 31.58 35.24C31.6436 34.684 31.6029 34.121 31.46 33.58C31.3558 33.1692 31.1871 32.7777 30.96 32.4199C30.56 31.7399 29.98 31.18 29.54 30.42C29.2114 29.8823 29.0255 29.2696 29 28.64C28.9512 28.0268 29.0687 27.4119 29.34 26.86C29.5 26.52 29.9 26.44 30.26 26.36C30.8787 26.2345 31.5088 26.1741 32.14 26.18C33.6236 26.059 35.0991 26.4938 36.28 27.4C36.8354 27.8605 37.2906 28.4299 37.6174 29.0732C37.9442 29.7164 38.1357 30.4198 38.18 31.14C38.3583 32.8766 38.2228 34.6312 37.78 36.32H37.82Z" fill="black"/>
<path fill-rule="evenodd" clip-rule="evenodd" d="M19.8 24.2C18.8583 23.8838 17.8733 23.7152 16.88 23.7C14.7276 23.4884 12.5771 24.1193 10.88 25.46C10.0563 26.1506 9.38553 27.0052 8.91034 27.9693C8.43515 28.9335 8.16599 29.986 8.12001 31.06C8.02783 33.0479 8.27814 35.0369 8.86001 36.9399C9.4519 38.8696 10.5337 40.6129 12 42C12.4186 42.377 12.9154 42.6568 13.4548 42.8193C13.9942 42.9818 14.5628 43.023 15.12 42.94C15.12 42.94 19.46 42.58 19.46 39.14C19.1142 37.4498 19.0132 35.7188 19.16 34C19.2754 33.6924 19.4447 33.408 19.66 33.16C20.08 32.64 20.6 32.16 21.02 31.64C21.6217 30.832 22.001 29.8803 22.12 28.88C22.2595 27.8622 22.1212 26.8256 21.72 25.88C21.5266 25.4871 21.2573 25.1365 20.9278 24.8482C20.5983 24.5598 20.215 24.3395 19.8 24.2ZM19.34 30.52C18.88 31.18 18.3 31.74 17.9 32.52C17.681 32.8819 17.5128 33.2722 17.4 33.68C17.3075 34.2294 17.3075 34.7905 17.4 35.34C17.52 36.4 17.86 37.6 18.06 38.64C18.06 38.96 18.98 40.74 15.68 41.3C15.3053 41.406 14.9101 41.4177 14.5297 41.334C14.1493 41.2502 13.7956 41.0736 13.5 40.82C12.3612 39.5743 11.5562 38.0606 11.16 36.4199C10.7425 34.7609 10.6206 33.0413 10.8 31.34C10.8567 30.6122 11.0637 29.904 11.408 29.2603C11.7522 28.6166 12.2262 28.0512 12.8 27.6C13.9809 26.6938 15.4565 26.259 16.94 26.38C17.5712 26.3741 18.2014 26.4345 18.82 26.56C19.18 26.56 19.58 26.72 19.74 27.06C20.0113 27.6119 20.1288 28.2268 20.08 28.84C19.9784 29.4532 19.7239 30.031 19.34 30.52Z" fill="black"/>
</g>
<defs>
<clipPath id="clip0_1210_2022">
<rect width="48" height="48" fill="white"/>
</clipPath>
</defs>
</svg>
