<svg width="48" height="48" viewBox="0 0 48 48" fill="none" xmlns="http://www.w3.org/2000/svg">
<g clip-path="url(#clip0_1209_6940)">
<path d="M6.56984 44.3262C6.61954 44.7969 6.84166 45.2326 7.19342 45.5493C7.54517 45.8661 8.00168 46.0414 8.47501 46.0416H39.525C39.9983 46.0414 40.4549 45.8661 40.8066 45.5493C41.1584 45.2326 41.3805 44.7969 41.4302 44.3262L44.976 10.6446C45.0094 10.3251 44.962 10.0023 44.8381 9.70594C44.7142 9.40954 44.5177 9.14904 44.2668 8.94839C38.5148 4.3594 31.358 1.891 24 1.95831C16.642 1.891 9.48522 4.3594 3.73318 8.94839C3.48229 9.14904 3.28585 9.40954 3.16194 9.70594C3.03802 10.0023 2.99059 10.3251 3.02401 10.6446L6.56984 44.3262Z" stroke="black" stroke-width="2" stroke-linecap="round" stroke-linejoin="round"/>
<path d="M39.8585 10.4837C39.9918 10.571 40.1012 10.6901 40.1768 10.8304C40.2524 10.9706 40.2919 11.1274 40.2917 11.2868V16.3333C40.2917 16.5875 40.1907 16.8313 40.011 17.011C39.8313 17.1907 39.5875 17.2917 39.3333 17.2917H8.66668C8.41251 17.2917 8.16876 17.1907 7.98903 17.011C7.80931 16.8313 7.70834 16.5875 7.70834 16.3333V11.2868C7.7081 11.1274 7.74758 10.9706 7.82322 10.8304C7.89885 10.6901 8.00825 10.571 8.14151 10.4837C11.5512 8.27526 15.3841 6.80253 19.3953 6.15963C23.4064 5.51674 27.5076 5.71781 31.4367 6.75001C34.4266 7.53315 37.2705 8.79393 39.8585 10.4837Z" stroke="black" stroke-width="2" stroke-linecap="round" stroke-linejoin="round"/>
<path d="M11.1085 36.1229C11.2092 37.2629 11.7464 38.3199 12.6078 39.0734C13.4693 39.8268 14.5884 40.2185 15.7317 40.1665C16.875 40.1146 17.954 39.6231 18.7436 38.7947C19.5332 37.9662 19.9723 36.8648 19.9692 35.7204V27.9636C19.9711 27.3149 19.8412 26.6725 19.5874 26.0755C19.3336 25.4785 18.9613 24.9392 18.4929 24.4903C18.0245 24.0415 17.4698 23.6924 16.8625 23.4643C16.2552 23.2361 15.6079 23.1337 14.9598 23.1632C14.3117 23.1927 13.6764 23.3535 13.0923 23.6358C12.5082 23.9181 11.9875 24.3161 11.5618 24.8057C11.1361 25.2952 10.8143 25.8661 10.6158 26.4837C10.4173 27.1013 10.3462 27.7528 10.407 28.3987L11.1085 36.1229Z" stroke="black" stroke-width="2" stroke-linecap="round" stroke-linejoin="round"/>
<path d="M36.8915 36.1229C36.7907 37.2629 36.2536 38.3199 35.3922 39.0734C34.5307 39.8268 33.4116 40.2185 32.2683 40.1665C31.125 40.1146 30.046 39.6231 29.2564 38.7947C28.4668 37.9662 28.0277 36.8648 28.0308 35.7204V27.9636C28.0289 27.3149 28.1588 26.6725 28.4126 26.0755C28.6664 25.4785 29.0387 24.9392 29.5071 24.4903C29.9755 24.0415 30.5302 23.6924 31.1375 23.4643C31.7448 23.2361 32.3921 23.1337 33.0402 23.1632C33.6883 23.1927 34.3236 23.3535 34.9077 23.6358C35.4918 23.9181 36.0124 24.3161 36.4381 24.8057C36.8639 25.2952 37.1857 25.8661 37.3842 26.4837C37.5827 27.1013 37.6538 27.7528 37.593 28.3987L36.8915 36.1229Z" stroke="black" stroke-width="2" stroke-linecap="round" stroke-linejoin="round"/>
<path d="M22.0833 17.2917L24 11.5417L25.9167 17.2917" stroke="black" stroke-width="2" stroke-linecap="round" stroke-linejoin="round"/>
<path d="M24 8.66669V5.79169" stroke="black" stroke-width="2" stroke-linecap="round" stroke-linejoin="round"/>
<path d="M28.7917 9.11325L29.3226 6.28809" stroke="black" stroke-width="2" stroke-linecap="round" stroke-linejoin="round"/>
<path d="M33.4166 10.4415L34.465 7.76392" stroke="black" stroke-width="2" stroke-linecap="round" stroke-linejoin="round"/>
<path d="M19.2083 9.11325L18.6774 6.28809" stroke="black" stroke-width="2" stroke-linecap="round" stroke-linejoin="round"/>
<path d="M14.5834 10.4415L13.5369 7.76392" stroke="black" stroke-width="2" stroke-linecap="round" stroke-linejoin="round"/>
</g>
<defs>
<clipPath id="clip0_1209_6940">
<rect width="48" height="48" fill="white"/>
</clipPath>
</defs>
</svg>
