<svg width="32" height="32" viewBox="0 0 32 32" fill="none" xmlns="http://www.w3.org/2000/svg">
<path d="M27 0H5C2.23858 0 0 2.23858 0 5V27C0 29.7614 2.23858 32 5 32H27C29.7614 32 32 29.7614 32 27V5C32 2.23858 29.7614 0 27 0Z" fill="#0061FF"/>
<path d="M16 11.7624L12 14.3088L16 16.8553L12 19.4017L8 16.8553L12 14.3088L8 11.7624L12 9.216L16 11.7624ZM11.9894 20.2505L15.9894 17.7041L19.9894 20.2505L15.9894 22.7969L11.9894 20.2505ZM16 16.8553L20 14.3088L16 11.7624L20 9.216L24 11.7624L20 14.3088L24 16.8553L20 19.4017L16 16.8553Z" fill="white"/>
</svg>
