<svg width="48" height="48" viewBox="0 0 48 48" fill="none" xmlns="http://www.w3.org/2000/svg">
<g clip-path="url(#clip0_1210_2009)">
<path fill-rule="evenodd" clip-rule="evenodd" d="M8.82002 16.76L14 10.86C15.54 9.11999 16.96 7.55999 17.48 7.03999C18.5 5.99999 19.64 4.69999 20.92 3.67999C21.6803 3.04925 22.5568 2.57361 23.5 2.27999C24.6683 1.89589 25.9094 1.7863 27.1269 1.95974C28.3444 2.13317 29.5055 2.58495 30.52 3.27999C31.4911 4.0232 32.2905 4.96719 32.8634 6.04754C33.4364 7.12789 33.7695 8.31915 33.84 9.53999C33.9539 10.7028 33.7608 11.8751 33.28 12.94C32.3735 14.6476 31.2729 16.2448 30 17.7C28.936 19.0907 27.8011 20.4258 26.6 21.7C24.76 23.7 22.8 25.52 20.94 27.2C19.3241 28.7474 17.6284 30.2094 15.86 31.58C14.6969 32.4419 13.4508 33.1856 12.14 33.8C10.6548 34.3811 9.0052 34.3811 7.52002 33.8C5.93578 33.2827 4.5151 32.3585 3.40002 31.12C2.87837 30.5489 2.49235 29.8674 2.27073 29.1263C2.0491 28.3853 1.99758 27.6037 2.12002 26.84C2.78405 24.3821 4.04863 22.1279 5.80002 20.28L8.90002 16.8L8.82002 16.76ZM7.84002 16L4.70002 19.36C2.71946 21.3706 1.27533 23.8463 0.500016 26.56C0.299107 27.5584 0.329855 28.5896 0.589895 29.5743C0.849936 30.559 1.33234 31.4709 2.00002 32.24C3.30249 33.7882 5.00401 34.9502 6.92002 35.6C8.84968 36.3501 10.9904 36.3501 12.92 35.6C14.3722 34.9598 15.7531 34.1688 17.04 33.24C18.8924 31.8634 20.6746 30.3949 22.38 28.84C24.38 27.1 26.38 25.22 28.22 23.22C29.4774 21.9081 30.6593 20.5259 31.76 19.08C33.1488 17.4839 34.3376 15.7242 35.3 13.84C35.9215 12.4266 36.1628 10.8754 36 9.33999C35.8782 7.82025 35.4313 6.34442 34.6894 5.01248C33.9475 3.68054 32.928 2.52359 31.7 1.61999C30.4318 0.771177 28.9815 0.232906 27.4666 0.0487527C25.9517 -0.135401 24.4147 0.0397384 22.98 0.559992C21.8256 0.944928 20.7633 1.56459 19.86 2.37999C18.56 3.45999 17.42 4.83999 16.32 5.99999C15.9 6.43999 14.9 7.59999 13.72 8.99999C11.5 11.58 8.62002 15.08 8.00002 16H7.84002Z" fill="black"/>
<path fill-rule="evenodd" clip-rule="evenodd" d="M18.96 10.36C18.9013 10.4214 18.8599 10.4973 18.84 10.58C18.54 11.44 19.6 11.7 19.96 11.28L21.3 10.08L22.38 9.44C22.92 9.12 23.54 8.8 24.16 8.5C24.7111 8.13128 25.3416 7.89826 26 7.82C26.34 7.82 27.34 8.3 27.62 7.98C27.6622 8.09932 27.741 8.20226 27.8452 8.2741C27.9493 8.34594 28.0735 8.38301 28.2 8.38C28.3575 8.36983 28.5051 8.30004 28.6128 8.18485C28.7206 8.06966 28.7804 7.91774 28.78 7.76C28.7671 7.5781 28.7115 7.40181 28.6177 7.24544C28.5238 7.08906 28.3945 6.95701 28.24 6.86C27.5626 6.4182 26.7991 6.12508 26 6C25.2965 5.83252 24.5635 5.83252 23.86 6C22.9545 6.3549 22.1055 6.84001 21.34 7.44L20.16 8.56L19.04 10.14C18.9963 10.206 18.9689 10.2814 18.96 10.36Z" fill="black"/>
<path fill-rule="evenodd" clip-rule="evenodd" d="M24.24 24.68C24.2813 24.7797 24.3351 24.8738 24.4 24.96C24.66 25.22 25.94 24.96 25.42 23.98C25.1431 23.4284 24.822 22.9 24.46 22.4C23.84 21.7 23.42 20.86 22.84 20.08C22.5578 19.6942 22.2361 19.3389 21.88 19.02C20.84 18.14 19.88 17.26 18.72 16.46C17.56 15.66 16.5 14.96 15.42 14.2L13.18 13.04C12.94 12.92 12.3 12.64 12.12 12.76C11.9921 12.6832 11.8408 12.6551 11.6939 12.6808C11.547 12.7065 11.4142 12.7843 11.32 12.9C11.2594 12.9562 11.2111 13.0243 11.178 13.1C11.145 13.1757 11.1279 13.2574 11.1279 13.34C11.1279 13.4226 11.145 13.5044 11.178 13.5801C11.2111 13.6558 11.2594 13.7238 11.32 13.78C11.4753 13.9033 11.6627 13.9797 11.86 14C12.0587 14.0206 12.2538 14.0677 12.44 14.14L14.3 15.52C15.1 16.26 15.86 17.02 16.72 17.7C17.96 18.72 19.28 19.7 20.54 20.62C20.8331 20.8136 21.1017 21.0419 21.34 21.3C21.9651 22.0575 22.6328 22.7786 23.34 23.46C23.6721 23.8085 23.967 24.1905 24.22 24.6L24.24 24.68Z" fill="black"/>
<path fill-rule="evenodd" clip-rule="evenodd" d="M38.9 28.44C38.8014 28.417 38.6987 28.417 38.6 28.44C38.4197 28.44 38.2467 28.5116 38.1192 28.6392C37.9917 28.7667 37.92 28.9396 37.92 29.12C37.9496 29.3023 38.0346 29.4711 38.1634 29.6035C38.2922 29.7359 38.4586 29.8254 38.64 29.86L40.38 30.22C41.04 30.42 41.66 30.58 42.28 30.8C42.6736 30.9256 43.0551 31.0863 43.42 31.28C43.9553 31.5231 44.4198 31.8985 44.7698 32.3709C45.1197 32.8433 45.3435 33.3971 45.42 33.98C45.5193 35.2172 45.2699 36.4574 44.7 37.56C44.3522 38.1862 43.8124 38.684 43.16 38.98C42.013 39.5242 40.794 39.9013 39.54 40.1C38.2214 40.3648 36.8839 40.5253 35.54 40.58C34.1659 40.6259 32.7903 40.5925 31.42 40.48C30.0723 40.4309 28.7326 40.25 27.42 39.94C26.6049 39.7316 25.8284 39.394 25.12 38.94C24.2466 38.2954 23.5571 37.4336 23.12 36.44C22.6027 35.5447 22.4522 34.4839 22.7 33.48C22.8691 33.057 23.1447 32.6849 23.5 32.4C23.9279 32.0325 24.3979 31.7169 24.9 31.46C25.9719 30.9035 27.1163 30.4996 28.3 30.26C30.1675 29.8915 32.059 29.6575 33.96 29.56H37.14C37.2962 29.577 37.4528 29.532 37.5762 29.4348C37.6997 29.3376 37.78 29.1958 37.8 29.04C37.8112 28.9607 37.8059 28.8799 37.7843 28.8027C37.7627 28.7256 37.7253 28.6537 37.6746 28.5917C37.6239 28.5297 37.5608 28.4789 37.4895 28.4424C37.4181 28.406 37.34 28.3847 37.26 28.38C36.7032 28.301 36.1423 28.2543 35.58 28.24H33.9C31.8925 28.2543 29.8881 28.4013 27.9 28.68C26.517 28.8902 25.1704 29.2942 23.9 29.88C23.1272 30.2209 22.4121 30.6797 21.78 31.24C21.2856 31.6613 20.9011 32.1968 20.66 32.8C20.1546 34.3001 20.2624 35.9391 20.96 37.36C21.5537 38.7451 22.5065 39.9465 23.72 40.84C24.6228 41.448 25.6244 41.8947 26.68 42.16C28.1474 42.5268 29.6487 42.7412 31.16 42.8C32.6187 42.8895 34.0814 42.8895 35.54 42.8C37.0438 42.7047 38.5362 42.4772 40 42.12C41.3934 41.8074 42.7387 41.3096 44 40.64C44.9906 40.1143 45.7888 39.288 46.28 38.28C46.9611 36.8276 47.211 35.2102 47 33.62C46.8646 32.7896 46.5251 32.0058 46.012 31.3391C45.4988 30.6723 44.8281 30.1435 44.06 29.8C43.6103 29.6005 43.1496 29.4269 42.68 29.28L40.68 28.76C40.52 28.76 39.32 28.56 38.84 28.44H38.9Z" fill="black"/>
<path fill-rule="evenodd" clip-rule="evenodd" d="M20.32 36.94C20.0077 38.4621 20.0903 40.0388 20.56 41.52C21.0429 43.0691 22.0016 44.4267 23.3 45.4C24.4313 46.2073 25.6883 46.8223 27.02 47.22C28.3262 47.5919 29.6661 47.8331 31.02 47.94C33.4041 48.077 35.7959 47.9765 38.16 47.64C39.7991 47.426 41.3968 46.9676 42.9 46.28C44.8213 45.3922 46.3309 43.8039 47.12 41.84C47.7635 39.901 47.8329 37.8175 47.32 35.84C47.3056 35.75 47.2732 35.6639 47.2249 35.5867C47.1765 35.5095 47.1132 35.4429 47.0386 35.3906C46.9639 35.3384 46.8796 35.3017 46.7905 35.2827C46.7014 35.2637 46.6094 35.2627 46.52 35.28C46.3445 35.3185 46.1906 35.4231 46.0901 35.572C45.9896 35.7209 45.9502 35.9028 45.98 36.08C46.3268 37.7787 46.1811 39.5412 45.56 41.16C44.8527 42.6848 43.574 43.8701 42 44.46C40.6572 44.9663 39.2503 45.2827 37.82 45.4C35.6055 45.6851 33.37 45.7721 31.14 45.66C29.9411 45.6096 28.7494 45.4489 27.58 45.18C26.4345 44.9323 25.339 44.4928 24.34 43.88C23.2786 43.1966 22.4597 42.1957 22 41.02C21.5082 39.7477 21.3498 38.3707 21.54 37.02C21.563 36.8636 21.5234 36.7045 21.4298 36.5772C21.3362 36.4499 21.1961 36.3646 21.04 36.34C20.9514 36.3177 20.8588 36.3167 20.7697 36.3371C20.6807 36.3574 20.5977 36.3985 20.5275 36.4569C20.4573 36.5154 20.4019 36.5897 20.3659 36.6736C20.3298 36.7575 20.3141 36.8488 20.32 36.94Z" fill="black"/>
<path fill-rule="evenodd" clip-rule="evenodd" d="M43.72 34.4C43.72 34.3 43.24 34.4 43.12 34.4C43 34.4 40.1 34 36.72 34H33.98H31.24C28 34.14 25.24 34.4 24.88 34.38C24.7187 34.3688 24.5594 34.4212 24.4361 34.5258C24.3129 34.6304 24.2353 34.779 24.22 34.94C24.2089 35.096 24.2591 35.2502 24.3599 35.3698C24.4608 35.4893 24.6044 35.5648 24.76 35.58C25.18 35.58 27.92 35.98 31.22 36.16C32.1 36.16 33.04 36.16 33.96 36.26H36.7C40.1 36.14 42.92 35.9 43.12 35.9H43.6C43.7319 35.9145 43.8651 35.8922 43.9851 35.8358C44.1051 35.7793 44.2072 35.6908 44.28 35.58C44.28 35.58 44.6 34.76 43.84 34.56L43.72 34.4Z" fill="black"/>
</g>
<defs>
<clipPath id="clip0_1210_2009">
<rect width="48" height="48" fill="white"/>
</clipPath>
</defs>
</svg>
