<svg width="48" height="48" viewBox="0 0 48 48" fill="none" xmlns="http://www.w3.org/2000/svg">
<g clip-path="url(#clip0_1209_6936)">
<path d="M24.0012 47.0026V39.0822" stroke="black" stroke-width="2.0001" stroke-linecap="round" stroke-linejoin="round"/>
<path d="M27.7413 40.6419C29.3307 42.0497 31.1418 43.1851 33.1016 44.0021C33.2891 44.095 33.501 44.1267 33.7075 44.0928C33.914 44.0589 34.1047 43.9611 34.2527 43.8131C34.4007 43.6651 34.4985 43.4745 34.5324 43.268C34.5663 43.0615 34.5345 42.8495 34.4416 42.662C33.6055 40.863 32.4692 39.2194 31.0815 37.8018C30.7815 37.5218 30.5014 37.2417 30.2014 37.0017C30.0709 36.8748 29.9818 36.7113 29.9461 36.5328C29.9104 36.3542 29.9297 36.169 30.0014 36.0017C31.6438 36.4117 33.3289 36.6266 35.0217 36.6417C38.2006 36.5845 41.3332 35.8695 44.2221 34.5416C44.3967 34.4621 44.5447 34.334 44.6485 34.1726C44.7523 34.0112 44.8075 33.8234 44.8075 33.6316C44.8075 33.4397 44.7523 33.2519 44.6485 33.0905C44.5447 32.9292 44.3967 32.8011 44.2221 32.7215C41.3255 31.4292 38.1934 30.7483 35.0217 30.7214C34.0143 30.6757 33.005 30.7024 32.0015 30.8014C31.7406 30.8451 31.4725 30.7999 31.2403 30.6729C31.0082 30.546 30.8255 30.3447 30.7215 30.1014C32.6195 28.8463 34.3883 27.4058 36.0017 25.8012C39.3657 22.3568 42.0106 18.2774 43.7821 13.8006C39.2978 15.5576 35.2156 18.2042 31.7815 21.581C30.3899 22.9726 29.1248 24.4853 28.0013 26.1012C27.835 26.3401 27.6138 26.5356 27.3562 26.6714C27.0987 26.8071 26.8124 26.8791 26.5213 26.8812C27.478 23.5304 27.9759 20.0654 28.0013 16.5807C27.9274 11.4442 26.8824 6.368 24.9212 1.62001C24.8443 1.43961 24.7161 1.28579 24.5526 1.17767C24.389 1.06955 24.1972 1.0119 24.0011 1.0119C23.805 1.0119 23.6133 1.06955 23.4497 1.17767C23.2861 1.28579 23.1579 1.43961 23.0811 1.62001C21.1199 6.368 20.0748 11.4442 20.0009 16.5807C20.0264 20.0654 20.5243 23.5304 21.481 26.8812C21.1899 26.8791 20.9036 26.8071 20.646 26.6714C20.3885 26.5356 20.1673 26.3401 20.0009 26.1012C18.8784 24.4784 17.6133 22.959 16.2208 21.561C12.7866 18.1842 8.70446 15.5376 4.22017 13.7806C5.98937 18.2645 8.63433 22.3509 12.0006 25.8012C13.6266 27.4079 15.4088 28.8484 17.3208 30.1014C17.2153 30.3525 17.0263 30.5594 16.7857 30.687C16.5451 30.8145 16.2678 30.855 16.0007 30.8014C15.0006 30.6556 13.9913 30.5821 12.9806 30.5814C9.80887 30.6083 6.67679 31.2892 3.78015 32.5815C3.60556 32.6611 3.45753 32.7892 3.35373 32.9505C3.24993 33.1119 3.19473 33.2997 3.19473 33.4916C3.19473 33.6834 3.24993 33.8712 3.35373 34.0326C3.45753 34.194 3.60556 34.3221 3.78015 34.4016C6.66904 35.7295 9.80167 36.4445 12.9806 36.5017C14.6678 36.5324 16.3528 36.3646 18.0008 36.0017C18.0891 36.1806 18.1153 36.3838 18.0755 36.5793C18.0357 36.7748 17.932 36.9516 17.7808 37.0817C17.4808 37.3217 17.2008 37.6018 16.9008 37.8818C15.5131 39.2994 14.3768 40.943 13.5406 42.742C13.4477 42.9295 13.416 43.1415 13.4499 43.348C13.4838 43.5545 13.5816 43.7451 13.7296 43.8931C13.8776 44.0411 14.0682 44.1389 14.2747 44.1728C14.4812 44.2067 14.6932 44.175 14.8807 44.0821C16.8418 43.259 18.6531 42.1168 20.241 40.7019" stroke="black" stroke-width="2.0001" stroke-linecap="round" stroke-linejoin="round"/>
</g>
<defs>
<clipPath id="clip0_1209_6936">
<rect width="48.0023" height="48.0023" fill="white"/>
</clipPath>
</defs>
</svg>
