<svg width="48" height="48" viewBox="0 0 48 48" fill="none" xmlns="http://www.w3.org/2000/svg">
<g clip-path="url(#clip0_1210_2017)">
<path fill-rule="evenodd" clip-rule="evenodd" d="M25.36 24.1C25.4535 24.114 25.549 24.109 25.6405 24.0851C25.732 24.0612 25.8178 24.019 25.8925 23.961C25.9673 23.9031 26.0296 23.8306 26.0755 23.7479C26.1215 23.6652 26.1502 23.5741 26.16 23.48C26.7016 20.0291 27.5107 16.6255 28.58 13.3C29.2655 11.1614 30.2702 9.13855 31.56 7.30002C31.7528 6.98066 32.018 6.7111 32.3341 6.51307C32.6502 6.31505 33.0085 6.19411 33.38 6.16002C33.7293 6.18965 34.0647 6.31057 34.3525 6.51065C34.6403 6.71073 34.8705 6.98295 35.02 7.30002C35.4475 8.00091 35.7203 8.7851 35.82 9.60002C35.9394 10.5094 35.9394 11.4306 35.82 12.34L34.32 22.66C34.3042 22.7651 34.3093 22.8722 34.335 22.9753C34.3606 23.0784 34.4063 23.1754 34.4695 23.2609C34.5326 23.3463 34.612 23.4184 34.703 23.4732C34.794 23.528 34.8949 23.5643 35 23.58C35.1051 23.5958 35.2122 23.5907 35.3153 23.565C35.4184 23.5394 35.5154 23.4937 35.6008 23.4306C35.6863 23.3674 35.7584 23.2881 35.8132 23.197C35.8679 23.106 35.9042 23.0051 35.92 22.9L38 12.74C38.2409 11.644 38.3351 10.5208 38.28 9.40002C38.2102 8.2105 37.8826 7.05038 37.32 6.00002C36.9573 5.24507 36.3903 4.60689 35.6833 4.15792C34.9762 3.70895 34.1575 3.46717 33.32 3.46002C32.5157 3.49613 31.7321 3.72592 31.0357 4.12983C30.3393 4.53375 29.7507 5.09986 29.32 5.78002C27.9774 7.89612 26.9784 10.2115 26.36 12.64C25.5082 16.1532 24.9595 19.733 24.72 23.34C24.7086 23.5247 24.7687 23.7066 24.8879 23.8481C25.0071 23.9896 25.1761 24.0798 25.36 24.1Z" fill="black"/>
<path fill-rule="evenodd" clip-rule="evenodd" d="M28.64 33.72C27.32 33.72 26 33.58 24.64 33.5C24.6499 33.4136 24.6499 33.3264 24.64 33.24C24.5 32.08 24.22 30.98 24.04 29.82C24.0401 29.6325 23.9669 29.4523 23.8362 29.3178C23.7055 29.1834 23.5274 29.1052 23.34 29.1C23.2464 29.0973 23.1532 29.1135 23.066 29.1474C22.9787 29.1814 22.8992 29.2326 22.832 29.2978C22.7649 29.3631 22.7115 29.4412 22.6751 29.5274C22.6387 29.6137 22.6199 29.7064 22.62 29.8C22.3437 30.9465 22.1366 32.1086 22 33.28V33.48H21.3C19.9709 33.6127 18.6356 33.6728 17.3 33.66C17.2021 33.6261 17.098 33.6138 16.9948 33.6238C16.8917 33.6338 16.792 33.666 16.7024 33.7181C16.6129 33.7702 16.5356 33.8411 16.4759 33.9258C16.4163 34.0105 16.3756 34.1071 16.3566 34.209C16.3377 34.3108 16.341 34.4156 16.3663 34.5161C16.3916 34.6166 16.4382 34.7104 16.5031 34.7912C16.568 34.872 16.6495 34.9379 16.7422 34.9842C16.8348 35.0306 16.9364 35.0565 17.04 35.06C18.3374 35.5326 19.6767 35.8808 21.04 36.1H21.94V36.2C22.1 37.34 22.34 38.46 22.52 39.6C22.5171 39.7076 22.5365 39.8146 22.5769 39.9143C22.6174 40.014 22.678 40.1042 22.755 40.1794C22.832 40.2545 22.9237 40.3129 23.0244 40.3509C23.1251 40.3888 23.2325 40.4056 23.34 40.4C23.4467 40.4001 23.5524 40.3787 23.6508 40.3373C23.7492 40.2958 23.8383 40.2351 23.9129 40.1587C23.9874 40.0823 24.0459 39.9917 24.0849 39.8923C24.1239 39.7929 24.1426 39.6867 24.14 39.58C24.28 38.4 24.44 37.28 24.5 36.1C25.88 35.92 27.2 35.62 28.5 35.36C28.607 35.3525 28.7114 35.3236 28.807 35.275C28.9026 35.2263 28.9874 35.1589 29.0565 35.0768C29.1255 34.9947 29.1773 34.8996 29.2089 34.7971C29.2404 34.6945 29.251 34.5867 29.24 34.48C29.2336 34.3061 29.172 34.1386 29.0641 34.002C28.9563 33.8654 28.8077 33.7666 28.64 33.72Z" fill="black"/>
<path fill-rule="evenodd" clip-rule="evenodd" d="M47.74 22.4C47.7184 22.1967 47.6179 22.0099 47.46 21.88C47.7474 21.1917 47.8508 20.4404 47.76 19.7C47.6385 18.8659 47.3263 18.0711 46.8476 17.3773C46.3689 16.6836 45.7367 16.1096 45 15.7C44.6014 15.4591 44.1872 15.2453 43.76 15.06C43.14 14.78 42.5 14.56 41.88 14.32C41.7816 14.2813 41.6764 14.2626 41.5707 14.2648C41.465 14.2671 41.3607 14.2903 41.264 14.333C41.1673 14.3758 41.08 14.4373 41.0073 14.5141C40.9345 14.5908 40.8776 14.6812 40.84 14.78C40.7985 14.8781 40.7775 14.9837 40.7783 15.0903C40.7792 15.1968 40.8019 15.3021 40.845 15.3995C40.8881 15.497 40.9507 15.5846 41.0289 15.6569C41.1072 15.7292 41.1994 15.7847 41.3 15.82L44.1 17.16C44.6066 17.4342 45.0421 17.8229 45.372 18.2951C45.7018 18.7673 45.9169 19.31 46 19.88C46.0401 20.4064 45.9227 20.9328 45.6627 21.3922C45.4027 21.8517 45.0119 22.2234 44.54 22.46C42.8521 23.3819 41.0402 24.0555 39.16 24.46C36.2537 25.1057 33.295 25.4873 30.32 25.6C28.14 25.74 21.48 25.6 15.52 25.14C12.3082 25.0613 9.11524 24.6253 5.99999 23.84L3.99999 22.82C2.93999 22.08 2.39999 21.46 2.41999 20.82C2.48164 20.2497 2.75239 19.7224 3.17999 19.34C5.5105 17.4198 8.24555 16.0523 11.18 15.34L14.26 14.76C15.5 14.58 16.74 14.44 18 14.34C20 14.16 22 14 23.78 14C23.9709 14 24.1541 13.9241 24.2891 13.7891C24.4241 13.6541 24.5 13.471 24.5 13.28C24.4948 13.0872 24.4145 12.9041 24.2763 12.7696C24.1381 12.6351 23.9528 12.5599 23.76 12.56H18C16.72 12.56 15.42 12.7 14.14 12.82L10.88 13.34C7.47071 14.0154 4.26996 15.489 1.53999 17.64C0.664689 18.4335 0.115778 19.5242 -1.13332e-05 20.7C-0.00435854 21.5723 0.276576 22.4221 0.799989 23.12C1.11302 26.6526 2.07584 30.0971 3.63999 33.28C5.39123 37.0724 8.32445 40.1951 12 42.18C16.6062 44.0765 21.5935 44.8643 26.56 44.48C31.5448 44.2737 36.3815 42.726 40.56 40C45.72 36.52 48.96 30.9 47.74 22.4ZM39.38 38C35.4632 40.3096 31.0252 41.5894 26.48 41.72C21.948 42.0665 17.395 41.4181 13.14 39.82C9.79778 38.2238 7.07167 35.5749 5.37999 32.28C4.13624 29.99 3.23339 27.5308 2.69999 24.98C3.02083 25.2184 3.35468 25.4387 3.69999 25.64C4.11999 25.88 4.55999 26.06 4.99999 26.26C8.34282 27.1999 11.7888 27.7239 15.26 27.82C20.3046 28.1899 25.3662 28.27 30.42 28.06C33.5236 27.8214 36.6013 27.3196 39.62 26.56C41.6852 26.0184 43.6644 25.1903 45.5 24.1C45.7196 23.9427 45.9268 23.7688 46.12 23.58C46.5 30.6 43.72 35.28 39.38 38Z" fill="black"/>
</g>
<defs>
<clipPath id="clip0_1210_2017">
<rect width="48" height="48" fill="white"/>
</clipPath>
</defs>
</svg>
