<svg width="48" height="48" viewBox="0 0 48 48" fill="none" xmlns="http://www.w3.org/2000/svg">
<path d="M7.93456 28.5846C5.54365 24.3707 4.21795 19.7164 3.95746 15.0141L12.2641 14.0189L15.1887 24.255L7.93456 28.5846ZM7.93456 28.5846C9.28276 30.9606 10.9696 33.1965 12.9952 35.2222C15.0208 37.2478 17.2568 38.9346 19.6329 40.2829M19.6329 40.2829C23.8468 42.6737 28.5011 43.9995 33.2034 44.2599L34.1985 35.9533L23.9625 33.0287L19.6329 40.2829Z" stroke="#7ED957" stroke-width="3"/>
<path d="M7.93456 28.5846C5.54365 24.3707 4.21795 19.7164 3.95746 15.0141L12.2641 14.0189L15.1887 24.255L7.93456 28.5846ZM7.93456 28.5846C9.28276 30.9606 10.9696 33.1965 12.9952 35.2222C15.0208 37.2478 17.2568 38.9346 19.6329 40.2829M19.6329 40.2829C23.8468 42.6737 28.5011 43.9995 33.2034 44.2599L34.1985 35.9533L23.9625 33.0287L19.6329 40.2829Z" stroke="#7ED957" stroke-width="3"/>
<path d="M39 9V3.375H31.5V9H25.875V16.5H31.5V22.125H39V16.5H44.625V9H39Z" stroke="#7ED957" stroke-width="3"/>
</svg>
