<svg width="48" height="48" viewBox="0 0 48 48" fill="none" xmlns="http://www.w3.org/2000/svg">
<g clip-path="url(#clip0_1209_6926)">
<path d="M46.2475 12.0763L42.1581 5.00181L36.7806 8.10968V1.89392H28.602V8.10968L23.2246 5.00181L19.1352 12.0763L24.5126 15.1842L19.1352 18.2921L23.2246 25.3665L28.602 22.2588V28.4745H36.7806V22.2588L42.1581 25.3665L46.2475 18.2921L40.87 15.1842L46.2475 12.0763Z" stroke="black" stroke-width="2.0001" stroke-linecap="round" stroke-linejoin="round"/>
<path d="M16.6622 45.984C18.1351 46.607 19.7679 46.745 21.3245 46.378C22.8808 46.011 24.28 45.1582 25.3195 43.9429L26.4105 42.8519C26.885 42.471 27.194 41.9214 27.2728 41.318C27.3514 40.7145 27.1938 40.1041 26.8328 39.6143L23.3136 36.0951C22.8238 35.7341 22.2131 35.5765 21.6097 35.6551C21.0065 35.7339 20.4568 36.0427 20.0758 36.5173C19.695 36.992 19.1454 37.301 18.542 37.3796C17.9386 37.4584 17.3281 37.3006 16.8382 36.9398L11.2075 31.3089C10.8465 30.8191 10.6888 30.2086 10.7676 29.6052C10.8463 29.0018 11.1552 28.4522 11.6298 28.0713C12.1044 27.6903 12.4133 27.1407 12.492 26.5373C12.5707 25.934 12.4131 25.3234 12.0521 24.8336L8.53289 21.3144C8.043 20.9534 7.43253 20.7958 6.82912 20.8744C6.22571 20.9532 5.67609 21.2622 5.29521 21.7366L4.20426 22.8277C2.9935 23.8703 2.14392 25.2694 1.77725 26.8247C1.41058 28.3799 1.54565 30.0112 2.16312 31.4849C5.73161 37.4358 10.7115 42.4154 16.6622 45.984Z" stroke="black" stroke-width="2.0001" stroke-linecap="round" stroke-linejoin="round"/>
</g>
<defs>
<clipPath id="clip0_1209_6926">
<rect width="48.0023" height="48.0023" fill="white"/>
</clipPath>
</defs>
</svg>
