<svg width="48" height="48" viewBox="0 0 48 48" fill="none" xmlns="http://www.w3.org/2000/svg">
<g clip-path="url(#clip0_1209_7286)">
<path d="M2 14C2 8.477 6.477 4 12 4H12.569C13.1685 4.0001 13.7543 4.17982 14.2507 4.51599C14.7471 4.85216 15.1314 5.32934 15.354 5.886L17.82 12.051C18.1108 12.7778 18.1819 13.5739 18.0246 14.3408C17.8673 15.1076 17.4885 15.8114 16.935 16.365L13.858 19.442C13.365 19.935 13.158 20.652 13.36 21.32C14.3189 24.4616 16.0352 27.3195 18.3579 29.6421C20.6805 31.9648 23.5384 33.6811 26.68 34.64C27.348 34.843 28.065 34.635 28.558 34.142L31.635 31.065C32.1886 30.5115 32.8924 30.1327 33.6592 29.9754C34.4261 29.8181 35.2222 29.8892 35.949 30.18L42.114 32.646C42.6705 32.8686 43.1476 33.2527 43.4837 33.7489C43.8199 34.2451 43.9997 34.8306 44 35.43V36C44 41.523 39.523 46 34 46H33.5C16.39 46 2.466 32.358 2.011 15.358C2.01113 15.3556 2.01075 15.3532 2.00989 15.351C2.00903 15.3487 2.0077 15.3467 2.006 15.345C2.00411 15.3434 2.0026 15.3414 2.00156 15.3392C2.00053 15.3369 1.99999 15.3345 2 15.332V14Z" stroke="black" stroke-width="3" stroke-linecap="round" stroke-linejoin="round"/>
<path d="M31.126 21.98C31.158 22.903 31.73 23.697 32.642 23.837C33.232 23.927 34.011 24 35 24C35.789 24.0058 36.5773 23.9513 37.358 23.837C38.27 23.697 38.842 22.903 38.874 21.981C38.911 20.921 38.954 19.278 38.979 16.979C40.6467 16.9637 42.3141 16.9287 43.981 16.874C44.903 16.842 45.697 16.27 45.837 15.358C45.927 14.768 46 13.989 46 13C46.0058 12.211 45.9513 11.4227 45.837 10.642C45.697 9.73 44.903 9.158 43.981 9.126C42.3141 9.07143 40.6467 9.03643 38.979 9.021C38.9636 7.35331 38.9286 5.68587 38.874 4.019C38.842 3.097 38.27 2.303 37.358 2.163C36.5773 2.04896 35.789 1.99447 35 2C34.211 1.99424 33.4227 2.04873 32.642 2.163C31.73 2.303 31.158 3.097 31.126 4.019C31.089 5.079 31.046 6.722 31.021 9.021C29.3533 9.03643 27.6859 9.07143 26.019 9.126C25.097 9.158 24.303 9.73 24.163 10.642C24.073 11.232 24 12.011 24 13C24 13.99 24.072 14.769 24.163 15.358C24.303 16.27 25.097 16.842 26.019 16.874C27.079 16.911 28.722 16.954 31.021 16.979C31.046 19.278 31.089 20.922 31.126 21.981V21.98Z" stroke="black" stroke-width="3" stroke-linecap="round" stroke-linejoin="round"/>
</g>
<defs>
<clipPath id="clip0_1209_7286">
<rect width="48" height="48" fill="white"/>
</clipPath>
</defs>
</svg>
