<svg width="48" height="48" viewBox="0 0 48 48" fill="none" xmlns="http://www.w3.org/2000/svg">
<path d="M23.9987 37.3684C27.6141 37.3684 30.5448 34.4376 30.5448 30.8222C30.5448 27.207 27.6141 24.276 23.9987 24.276C20.3835 24.276 17.4526 27.207 17.4526 30.8222C17.4526 34.4376 20.3835 37.3684 23.9987 37.3684Z" stroke="black" stroke-width="2" stroke-linecap="round" stroke-linejoin="round"/>
<path d="M24.0002 17.6166C33.0089 17.6166 40.5163 24.9384 43.8195 28.5994C45.0207 29.907 45.0207 31.7374 43.8195 33.0449C40.5163 36.7058 33.0089 44.0276 24.0002 44.0276C14.9913 44.0276 7.48391 36.9672 4.18067 33.0449C2.97949 31.7374 2.97949 29.907 4.18067 28.5994C4.66485 28.0627 5.23939 27.4475 5.89574 26.7882" stroke="black" stroke-width="2" stroke-miterlimit="10" stroke-linecap="round" stroke-linejoin="round"/>
<path d="M19.5011 16.7477C19.5011 12.732 12.3688 3.0224 12.3688 3.0224C12.3688 3.0224 4.99664 12.732 4.99664 16.7477C4.99664 18.6711 5.7607 20.5159 7.12077 21.8759C8.48084 23.236 10.3255 24 12.2489 24C14.1723 24 16.0169 23.236 17.377 21.8759C18.7371 20.5159 19.5011 18.6711 19.5011 16.7477Z" stroke="black" stroke-width="2" stroke-linecap="round" stroke-linejoin="round"/>
</svg>
