<svg width="48" height="48" viewBox="0 0 48 48" fill="none" xmlns="http://www.w3.org/2000/svg">
<path d="M24.0013 23.9111C27.8487 23.9111 30.9677 20.7922 30.9677 16.9447C30.9677 13.0973 27.8487 9.97839 24.0013 9.97839C20.154 9.97839 17.035 13.0973 17.035 16.9447C17.035 20.7922 20.154 23.9111 24.0013 23.9111Z" stroke="black" stroke-width="2.0001" stroke-linecap="round" stroke-linejoin="round"/>
<path d="M45.0926 14.5802C46.3708 15.9716 46.3708 17.9196 45.0926 19.311C41.5772 23.2071 33.5878 30.9988 24.0008 30.9988C14.4136 30.9988 6.42432 23.4853 2.90901 19.311C1.63072 17.9196 1.63072 15.9716 2.90901 14.5802C6.42432 10.6843 14.4136 2.89233 24.0008 2.89233C33.5878 2.89233 41.5772 10.6843 45.0926 14.5802Z" stroke="black" stroke-width="2.0001" stroke-miterlimit="10" stroke-linecap="round" stroke-linejoin="round"/>
<path d="M46.0517 30.345L34.9647 45.1099L27.5824 39.5798" stroke="black" stroke-width="2.0001" stroke-linecap="round" stroke-linejoin="round"/>
</svg>
