<svg width="48" height="48" viewBox="0 0 48 48" fill="none" xmlns="http://www.w3.org/2000/svg">
<path d="M9.73975 19.0603L4.36926 13.6898" stroke="black" stroke-width="3"/>
<path d="M18.4091 11.704L16.3187 4.94147" stroke="black" stroke-width="3"/>
<path d="M38.2571 19.0635L43.6307 13.6898" stroke="black" stroke-width="3"/>
<path d="M29.5911 11.7035L31.6813 4.94147" stroke="black" stroke-width="3"/>
<path d="M24 10.5363C15.255 10.5363 10.875 18.0363 4.3125 25.5362C10.875 33.0362 15.255 40.5362 24 40.5362C32.7448 40.5362 37.1248 33.0362 43.6873 25.5362C37.1248 18.0363 32.7448 10.5363 24 10.5363Z" stroke="black" stroke-width="3"/>
<path d="M18.375 25.5356C18.375 27.0275 18.9676 28.4582 20.0225 29.5131C21.0774 30.568 22.5082 31.1606 24 31.1606C25.4918 31.1606 26.9226 30.568 27.9775 29.5131C29.0324 28.4582 29.625 27.0275 29.625 25.5356C29.625 24.0438 29.0324 22.613 27.9775 21.5582C26.9226 20.5033 25.4918 19.9106 24 19.9106C22.5082 19.9106 21.0774 20.5033 20.0225 21.5582C18.9676 22.613 18.375 24.0438 18.375 25.5356Z" stroke="black" stroke-width="3"/>
</svg>
