<svg width="48" height="48" viewBox="0 0 48 48" fill="none" xmlns="http://www.w3.org/2000/svg">
<path d="M12 38C12 38 18 41 24 41C30 41 36 38 36 38C37.253 31.94 38 20 38 20C38 20 32.4 17 24 17C15.6 17 10 20 10 20C10 20 10.747 31.94 12 38Z" stroke="black" stroke-width="3" stroke-linecap="round" stroke-linejoin="round"/>
<path d="M32 33.027C29.78 33.268 26.89 33.5 24 33.5C21.11 33.5 18.22 33.268 16 33.027" stroke="black" stroke-width="3" stroke-linecap="round" stroke-linejoin="round"/>
<path d="M32 25.113C29.3531 24.703 26.6785 24.4981 24 24.5C20.907 24.5 18.194 24.77 16 25.113" stroke="black" stroke-width="3" stroke-linecap="round" stroke-linejoin="round"/>
<path d="M38 20C38 17.5 39 13 41.5 13C44.5 13 45 17 45 20C45 30 36 38 36 38" stroke="black" stroke-width="3" stroke-linecap="round"/>
<path d="M10 20C10 17.5 9 13 6.5 13C3.5 13 3 17 3 20C3 30 12 38 12 38" stroke="black" stroke-width="3" stroke-linecap="round"/>
</svg>
