<svg width="48" height="48" viewBox="0 0 48 48" fill="none" xmlns="http://www.w3.org/2000/svg">
<g clip-path="url(#clip0_1210_1996)">
<path fill-rule="evenodd" clip-rule="evenodd" d="M4.26003 27.5C3.79786 27.4084 3.3222 27.4084 2.86003 27.5C1.70003 27.78 1.04003 29.5 2.16003 30.2C2.52501 30.5206 2.99421 30.6975 3.48003 30.6975C3.96585 30.6975 4.43505 30.5206 4.80003 30.2C4.95106 29.9903 5.05726 29.7518 5.11199 29.4993C5.16672 29.2468 5.16882 28.9857 5.11815 28.7324C5.06748 28.479 4.96512 28.2388 4.81748 28.0268C4.66984 27.8147 4.48007 27.6354 4.26003 27.5Z" fill="black"/>
<path fill-rule="evenodd" clip-rule="evenodd" d="M43.44 26.24C43.9022 26.1484 44.3779 26.1484 44.84 26.24C45.98 26.54 46.66 28.24 45.54 28.94C45.1751 29.2606 44.7059 29.4374 44.22 29.4374C43.7342 29.4374 43.265 29.2606 42.9 28.94C42.749 28.7303 42.6428 28.4918 42.5881 28.2393C42.5333 27.9868 42.5312 27.7257 42.5819 27.4724C42.6326 27.219 42.7349 26.9788 42.8826 26.7668C43.0302 26.5547 43.22 26.3754 43.44 26.24Z" fill="black"/>
<path fill-rule="evenodd" clip-rule="evenodd" d="M11.28 33.74C10.819 33.6366 10.3409 33.6366 9.87999 33.74C8.71999 34.02 8.05999 35.74 9.17999 36.42C9.54497 36.7406 10.0142 36.9174 10.5 36.9174C10.9858 36.9174 11.455 36.7406 11.82 36.42C12.0869 35.9881 12.1797 35.471 12.0794 34.9733C11.9791 34.4756 11.6933 34.0347 11.28 33.74Z" fill="black"/>
<path fill-rule="evenodd" clip-rule="evenodd" d="M36.42 32.48C36.881 32.3766 37.3591 32.3766 37.82 32.48C38.96 32.76 39.64 34.48 38.52 35.16C38.1551 35.4806 37.6859 35.6574 37.2 35.6574C36.7142 35.6574 36.245 35.4806 35.88 35.16C35.6131 34.7281 35.5204 34.211 35.6206 33.7133C35.7209 33.2156 36.0067 32.7747 36.42 32.48Z" fill="black"/>
<path fill-rule="evenodd" clip-rule="evenodd" d="M26.28 34.52C25.8191 34.4167 25.341 34.4167 24.88 34.52C23.74 34.8 23.06 36.52 24.18 37.2C24.545 37.5206 25.0142 37.6975 25.5 37.6975C25.9858 37.6975 26.455 37.5206 26.82 37.2C26.9677 36.991 27.0712 36.754 27.1241 36.5036C27.177 36.2531 27.1783 35.9945 27.1277 35.7436C27.0771 35.4927 26.9759 35.2547 26.8301 35.0443C26.6844 34.8339 26.4972 34.6555 26.28 34.52Z" fill="black"/>
<path fill-rule="evenodd" clip-rule="evenodd" d="M18.5 38.62C18.0391 38.516 17.5609 38.516 17.1 38.62C15.94 38.9 15.26 40.62 16.38 41.3C16.745 41.6206 17.2142 41.7975 17.7 41.7975C18.1858 41.7975 18.655 41.6206 19.02 41.3C19.289 40.8705 19.3849 40.355 19.2884 39.8575C19.1919 39.36 18.9101 38.9177 18.5 38.62Z" fill="black"/>
<path fill-rule="evenodd" clip-rule="evenodd" d="M32.32 38.8199C31.8591 38.7159 31.3809 38.7159 30.92 38.8199C29.76 39.0999 29.08 40.8199 30.2 41.4999C30.5663 41.8261 31.0396 42.0063 31.53 42.0063C32.0204 42.0063 32.4938 41.8261 32.86 41.4999C33.127 41.0681 33.2197 40.5509 33.1194 40.0533C33.0191 39.5556 32.7334 39.1147 32.32 38.8199Z" fill="black"/>
<path fill-rule="evenodd" clip-rule="evenodd" d="M4.46004 38.88C3.99115 38.7883 3.50894 38.7883 3.04004 38.88C1.90004 39.16 1.22004 40.88 2.34004 41.58C2.70502 41.9006 3.17423 42.0774 3.66004 42.0774C4.14586 42.0774 4.61507 41.9006 4.98004 41.58C5.255 41.1488 5.35433 40.6286 5.25762 40.1264C5.1609 39.6243 4.87549 39.1782 4.46004 38.88Z" fill="black"/>
<path fill-rule="evenodd" clip-rule="evenodd" d="M43.24 37.62C43.7022 37.5284 44.1779 37.5284 44.64 37.62C45.8 37.92 46.48 39.62 45.36 40.32C44.9951 40.6406 44.5259 40.8175 44.04 40.8175C43.5542 40.8175 43.085 40.6406 42.72 40.32C42.4451 39.8888 42.3458 39.3686 42.4425 38.8664C42.5392 38.3643 42.8246 37.9182 43.24 37.62Z" fill="black"/>
<path fill-rule="evenodd" clip-rule="evenodd" d="M27.52 7.09997C27.52 7.27997 27.68 7.35997 27.72 7.09997H27.52ZM26.88 7.25997L26.54 7.39997C26.1512 7.58497 25.7768 7.7989 25.42 8.03997C24.663 8.53228 23.9592 9.10201 23.32 9.73997C22.6947 10.3435 22.138 11.0142 21.66 11.74C21.1 12.66 20.52 13.54 20.02 14.48C19.6922 15.0773 19.4114 15.6991 19.18 16.34C18.6714 17.7198 18.4734 19.1948 18.6 20.66C18.6569 22.0816 19.0918 23.4624 19.86 24.66C20.1574 25.15 20.4988 25.6119 20.88 26.04C21.1649 26.377 21.5393 26.6266 21.96 26.76C22.3975 26.8888 22.8461 26.9758 23.3 27.02C23.704 27.0505 24.1101 27.0099 24.5 26.9C24.8216 26.8109 25.1359 26.6972 25.44 26.56C25.7322 26.43 26.0131 26.2761 26.28 26.1C26.58 25.9072 26.844 25.6636 27.06 25.38C27.2794 25.034 27.4605 24.6652 27.6 24.28C27.993 23.3391 28.131 22.3112 28 21.3C27.56 18.54 25.82 16 25.6 13.08C25.5448 12.3702 25.5919 11.6563 25.74 10.96C25.94 10.02 26.26 9.09997 26.54 8.13997C26.6 7.99997 26.72 7.61997 26.88 7.25997ZM28.38 7.35997C28.5069 7.30652 28.6157 7.21782 28.6937 7.10439C28.7717 6.99096 28.8155 6.85755 28.82 6.71997C28.8255 6.62737 28.8119 6.53462 28.7802 6.44745C28.7485 6.36027 28.6993 6.28051 28.6356 6.21307C28.5719 6.14563 28.4951 6.09193 28.4098 6.05528C28.3246 6.01864 28.2328 5.99981 28.14 5.99997H28C27.6812 5.96143 27.3589 5.96143 27.04 5.99997C26.6908 6.05576 26.3488 6.14966 26.02 6.27997C25.5769 6.47413 25.149 6.70144 24.74 6.95997C22.9894 7.95821 21.4749 9.32262 20.3 10.96C19.66 11.88 19.04 12.76 18.46 13.68C18.0684 14.3256 17.7145 14.9934 17.4 15.68C16.7061 17.3019 16.3783 19.0569 16.44 20.82C16.4892 22.6548 17.0278 24.4431 18 26C18.4544 26.7261 18.9913 27.3973 19.6 28C20.1056 28.4639 20.7062 28.8119 21.36 29.02C22.0815 29.2319 22.8282 29.3463 23.58 29.36C24.128 29.3684 24.6741 29.2942 25.2 29.14C25.6171 29.0077 26.0247 28.8474 26.42 28.66C26.8168 28.4703 27.198 28.2496 27.56 28C28.0914 27.6552 28.5473 27.2061 28.9 26.68C29.1982 26.1818 29.4397 25.6519 29.62 25.1C30.1124 23.7852 30.2436 22.3626 30 20.98C29.48 18.26 27.62 15.82 27.28 12.98C27.2095 12.4222 27.2095 11.8578 27.28 11.3C27.44 10.38 27.72 9.49997 27.94 8.55997C28 8.31997 28.54 7.63997 28.38 7.35997Z" fill="black"/>
<path fill-rule="evenodd" clip-rule="evenodd" d="M1.44113e-05 22.26C-0.0154543 22.3652 0.00597935 22.4725 0.0606713 22.5636C0.115363 22.6548 0.199937 22.7242 0.300014 22.76H0.420014H0.560014C0.956945 22.8343 1.35749 22.8877 1.76001 22.92L4.56001 22.7C6.54941 22.4386 8.55352 22.305 10.56 22.3H10.74C10.74 22.52 10.86 22.92 10.98 23.38C11.4266 25.8379 12.4629 28.1507 14 30.12C15.3689 31.7346 17.2078 32.8813 19.26 33.4C21.5054 33.839 23.8146 33.839 26.06 33.4C27.6748 33.1662 29.1993 32.5109 30.48 31.5C31.5694 30.3976 32.4443 29.1023 33.06 27.68C33.8498 25.8607 34.4205 23.954 34.76 22L36.76 21.72H47.36C47.5404 21.72 47.7133 21.6484 47.8408 21.5208C47.9684 21.3933 48.04 21.2203 48.04 21.04C48.04 20.8597 47.9684 20.6867 47.8408 20.5592C47.7133 20.4316 47.5404 20.36 47.36 20.36L36.76 20L33.82 20.3C33.6268 20.3322 33.4489 20.4252 33.3122 20.5655C33.1755 20.7058 33.0872 20.886 33.06 21.08C32.7671 22.7409 32.2909 24.3642 31.64 25.92C31.0406 27.4235 30.1347 28.7857 28.98 29.92C27.7089 30.7885 26.2184 31.2807 24.68 31.34C23.0851 31.6147 21.4549 31.6147 19.86 31.34C17.7625 30.8976 15.9233 29.6475 14.74 27.86C13.8086 26.319 13.1332 24.6372 12.74 22.88C12.6026 22.2683 12.3442 21.6903 11.98 21.18C11.822 21.0379 11.6285 20.9412 11.42 20.9C10.9411 20.8549 10.459 20.8549 9.98001 20.9C8.1151 21.0297 6.25889 21.2634 4.42001 21.6L1.86001 21.92C1.52449 21.901 1.1905 21.861 0.860014 21.8C0.120014 21.56 1.44113e-05 22 1.44113e-05 22.26Z" fill="black"/>
</g>
<defs>
<clipPath id="clip0_1210_1996">
<rect width="48" height="48" fill="white"/>
</clipPath>
</defs>
</svg>
