<svg width="48" height="48" viewBox="0 0 48 48" fill="none" xmlns="http://www.w3.org/2000/svg">
<g clip-path="url(#clip0_1209_6883)">
<path d="M47.0023 23.3287H36.9618C36.7096 23.3279 36.4664 23.4225 36.281 23.5936C36.0954 23.7646 35.9814 23.9992 35.9618 24.2508C35.7279 27.2635 34.3659 30.0773 32.1478 32.1298C29.9299 34.1823 27.0191 35.3225 23.9972 35.3225C20.9752 35.3225 18.0645 34.1823 15.8465 32.1298C13.6285 30.0773 12.2665 27.2635 12.0326 24.2508C12.0129 23.9992 11.8989 23.7646 11.7135 23.5936C11.528 23.4225 11.2848 23.3279 11.0325 23.3287H1.00006" stroke="black" stroke-width="2.0001" stroke-linecap="round" stroke-linejoin="round"/>
<path d="M30.4275 3.04776C30.5097 2.84565 30.5235 2.62218 30.4669 2.41145C30.4103 2.20074 30.2863 2.01431 30.1139 1.88061C29.9415 1.74691 29.7301 1.67329 29.5119 1.67096C29.2937 1.66863 29.0806 1.73772 28.9054 1.8677C24.1192 5.41987 15.6708 12.5422 16.9829 22.3107C17.0815 24.1486 17.8593 25.8843 19.1654 27.1812C20.4714 28.478 22.2127 29.2434 24.0512 29.3291C24.9698 29.3299 25.8797 29.1484 26.7277 28.7952C27.5758 28.442 28.3454 27.924 28.9918 27.2712C29.6383 26.6183 30.1487 25.8437 30.4937 24.9922C30.8387 24.1408 31.0113 23.2294 31.0015 22.3107C31.0015 16.8364 25.0753 16.2344 30.4275 3.04776Z" stroke="black" stroke-width="2.0001" stroke-linecap="round" stroke-linejoin="round"/>
<path d="M1.50009 30.4426C1.22393 30.4426 1.00006 30.2187 1.00006 29.9425C1.00006 29.6665 1.22393 29.4425 1.50009 29.4425" stroke="black" stroke-width="2.0001"/>
<path d="M1.50006 30.4426C1.77622 30.4426 2.00009 30.2187 2.00009 29.9425C2.00009 29.6665 1.77622 29.4425 1.50006 29.4425" stroke="black" stroke-width="2.0001"/>
<path d="M1.50009 45.3351C1.22393 45.3351 1.00006 45.1113 1.00006 44.8351C1.00006 44.5589 1.22393 44.3351 1.50009 44.3351" stroke="black" stroke-width="2.0001"/>
<path d="M1.50006 45.3351C1.77622 45.3351 2.00009 45.1113 2.00009 44.8351C2.00009 44.5589 1.77622 44.3351 1.50006 44.3351" stroke="black" stroke-width="2.0001"/>
<path d="M13.5006 45.3351C13.2245 45.3351 13.0006 45.1113 13.0006 44.8351C13.0006 44.5589 13.2245 44.3351 13.5006 44.3351" stroke="black" stroke-width="2.0001"/>
<path d="M13.5007 45.3351C13.7768 45.3351 14.0007 45.1113 14.0007 44.8351C14.0007 44.5589 13.7768 44.3351 13.5007 44.3351" stroke="black" stroke-width="2.0001"/>
<path d="M29.5014 45.3351C29.2252 45.3351 29.0014 45.1113 29.0014 44.8351C29.0014 44.5589 29.2252 44.3351 29.5014 44.3351" stroke="black" stroke-width="2.0001"/>
<path d="M29.5015 45.3351C29.7777 45.3351 30.0015 45.1113 30.0015 44.8351C30.0015 44.5589 29.7777 44.3351 29.5015 44.3351" stroke="black" stroke-width="2.0001"/>
<path d="M41.502 45.3351C41.2258 45.3351 41.002 45.1113 41.002 44.8351C41.002 44.5589 41.2258 44.3351 41.502 44.3351" stroke="black" stroke-width="2.0001"/>
<path d="M41.502 45.3351C41.7782 45.3351 42.002 45.1113 42.002 44.8351C42.002 44.5589 41.7782 44.3351 41.502 44.3351" stroke="black" stroke-width="2.0001"/>
<path d="M41.502 30.4435C41.2258 30.4435 41.002 30.2197 41.002 29.9435C41.002 29.6675 41.2258 29.4435 41.502 29.4435" stroke="black" stroke-width="2.0001"/>
<path d="M41.5021 30.4437C41.7783 30.4437 42.0021 30.2198 42.0021 29.9436C42.0021 29.6676 41.7783 29.4436 41.5021 29.4436" stroke="black" stroke-width="2.0001"/>
<path d="M6.50033 38.402C6.22418 38.402 6.00031 38.178 6.00031 37.902C6.00031 37.6258 6.22418 37.402 6.50033 37.402" stroke="black" stroke-width="2.0001"/>
<path d="M6.50037 38.402C6.77652 38.402 7.00039 38.178 7.00039 37.902C7.00039 37.6258 6.77652 37.402 6.50037 37.402" stroke="black" stroke-width="2.0001"/>
<path d="M18.5009 38.402C18.2248 38.402 18.0009 38.178 18.0009 37.902C18.0009 37.6258 18.2248 37.402 18.5009 37.402" stroke="black" stroke-width="2.0001"/>
<path d="M18.501 38.402C18.7771 38.402 19.001 38.178 19.001 37.902C19.001 37.6258 18.7771 37.402 18.501 37.402" stroke="black" stroke-width="2.0001"/>
<path d="M34.5017 38.402C34.2255 38.402 34.0016 38.178 34.0016 37.902C34.0016 37.6258 34.2255 37.402 34.5017 37.402" stroke="black" stroke-width="2.0001"/>
<path d="M34.5016 38.402C34.7779 38.402 35.0017 38.178 35.0017 37.902C35.0017 37.6258 34.7779 37.402 34.5016 37.402" stroke="black" stroke-width="2.0001"/>
<path d="M46.5023 38.402C46.2261 38.402 46.0023 38.178 46.0023 37.902C46.0023 37.6258 46.2261 37.402 46.5023 37.402" stroke="black" stroke-width="2.0001"/>
<path d="M46.5023 38.402C46.7785 38.402 47.0023 38.178 47.0023 37.902C47.0023 37.6258 46.7785 37.402 46.5023 37.402" stroke="black" stroke-width="2.0001"/>
</g>
<defs>
<clipPath id="clip0_1209_6883">
<rect width="48.0023" height="48.0023" fill="white"/>
</clipPath>
</defs>
</svg>
