<svg width="48" height="48" viewBox="0 0 48 48" fill="none" xmlns="http://www.w3.org/2000/svg">
<path d="M42.778 26.437C44.838 23.136 45.508 19.047 44.612 15.243C42.698 6.58101 32.102 3.04201 25.502 8.84701C24.979 9.30301 24.514 9.83001 24 10.355C23.486 9.83001 23.02 9.30301 22.498 8.84701C15.898 3.04201 5.302 6.58101 3.388 15.243C2.493 19.046 3.163 23.136 5.222 26.437C8.825 32.223 14.635 36.727 20.302 40.811C21.3799 41.5845 22.6733 42.0005 24 42.0005C25.3267 42.0005 26.6201 41.5845 27.698 40.811C33.365 36.728 39.175 32.223 42.778 26.437Z" stroke="black" stroke-width="3" stroke-linecap="round" stroke-linejoin="round"/>
<path d="M9 23H15L18.5 17L24 30L30 14L34 23H39" stroke="black" stroke-width="3" stroke-linecap="round" stroke-linejoin="round"/>
</svg>
