<svg width="48" height="48" viewBox="0 0 48 48" fill="none" xmlns="http://www.w3.org/2000/svg">
<path d="M42.778 25.734C44.838 22.385 45.508 18.236 44.612 14.378C42.698 5.59 32.102 1.998 25.502 7.888C24.979 8.351 24.514 8.885 24 9.418C23.486 8.885 23.02 8.351 22.498 7.888C15.898 1.998 5.30197 5.59 3.38797 14.378C2.49297 18.236 3.16297 22.385 5.22197 25.734C8.85997 31.661 14.747 36.263 20.466 40.437C21.4925 41.1848 22.7299 41.5877 24 41.5877C25.2701 41.5877 26.5074 41.1848 27.534 40.437C33.254 36.263 39.14 31.661 42.778 25.734Z" stroke="black" stroke-width="3" stroke-linecap="round" stroke-linejoin="round"/>
<path d="M20.12 31.978C20.154 32.927 20.758 33.733 21.699 33.86C22.281 33.939 23.042 34 24 34C24.958 34 25.719 33.939 26.301 33.86C27.241 33.733 27.846 32.927 27.881 31.978C27.914 31.073 27.951 29.753 27.975 27.975C29.753 27.951 31.073 27.914 31.978 27.881C32.927 27.846 33.733 27.241 33.86 26.301C33.939 25.719 34 24.958 34 24C34 23.042 33.939 22.281 33.86 21.699C33.733 20.759 32.927 20.154 31.978 20.119C31.073 20.086 29.753 20.049 27.975 20.025C27.9589 18.6903 27.9275 17.3559 27.881 16.022C27.846 15.073 27.241 14.267 26.301 14.14C25.538 14.042 24.7693 13.9952 24 14C23.042 14 22.281 14.061 21.699 14.14C20.759 14.267 20.154 15.073 20.119 16.022C20.086 16.927 20.049 18.247 20.025 20.025C18.247 20.049 16.927 20.086 16.022 20.119C15.073 20.154 14.267 20.759 14.14 21.699C14.061 22.281 14 23.042 14 24C14 24.958 14.061 25.719 14.14 26.301C14.267 27.241 15.073 27.846 16.022 27.881C16.927 27.914 18.247 27.951 20.025 27.975C20.049 29.753 20.086 31.073 20.119 31.978H20.12Z" stroke="black" stroke-width="3" stroke-linecap="round" stroke-linejoin="round"/>
</svg>
