<svg width="48" height="48" viewBox="0 0 48 48" fill="none" xmlns="http://www.w3.org/2000/svg">
<path d="M9 19.462H16.393L18.836 14.769L24.246 25L29.656 11L32.59 19.462H39" stroke="black" stroke-width="3" stroke-linecap="round" stroke-linejoin="round"/>
<path d="M27.999 35H19.999L19.32 38.392C19.2294 38.8452 18.9847 39.2531 18.6273 39.5462C18.27 39.8394 17.8222 39.9997 17.36 40H16.459C15.7654 40 15.0932 40.2403 14.5568 40.68C14.0204 41.1198 13.653 41.7318 13.517 42.412L13.478 42.608C13.42 42.898 13.4271 43.1973 13.4987 43.4843C13.5704 43.7713 13.7047 44.0388 13.8922 44.2676C14.0797 44.4964 14.3156 44.6807 14.5829 44.8074C14.8502 44.934 15.1422 44.9998 15.438 45H32.56C32.8559 45 33.148 44.9343 33.4155 44.8077C33.6829 44.6811 33.9189 44.4968 34.1065 44.268C34.294 44.0392 34.4285 43.7716 34.5002 43.4846C34.5719 43.1975 34.579 42.8981 34.521 42.608L34.481 42.412C34.3451 41.732 33.9778 41.1201 33.4416 40.6803C32.9054 40.2406 32.2335 40.0002 31.54 40H30.638C30.1756 40 29.7276 39.8397 29.3701 39.5465C29.0125 39.2534 28.7676 38.8454 28.677 38.392L27.999 35Z" stroke="black" stroke-width="3" stroke-linecap="round" stroke-linejoin="round"/>
<path d="M3.444 30.044C3.679 32.572 5.684 34.429 8.218 34.587C11.443 34.787 16.606 35 24 35C31.394 35 36.557 34.788 39.782 34.587C42.316 34.429 44.321 32.572 44.556 30.044C44.786 27.568 45 23.937 45 19C45 14.063 44.786 10.432 44.556 7.956C44.321 5.428 42.316 3.571 39.782 3.413C36.557 3.213 31.394 3 24 3C16.606 3 11.443 3.213 8.218 3.413C5.684 3.571 3.679 5.428 3.444 7.956C3.214 10.432 3 14.063 3 19C3 23.937 3.214 27.568 3.444 30.044Z" stroke="black" stroke-width="3" stroke-linecap="round" stroke-linejoin="round"/>
</svg>
