<svg width="48" height="48" viewBox="0 0 48 48" fill="none" xmlns="http://www.w3.org/2000/svg">
<g clip-path="url(#clip0_1209_6873)">
<path d="M17.4543 27.5315L4.45008 15.7525C-2.6174 8.68498 7.77178 -4.8846 17.4543 6.09356C27.1367 -4.8846 37.4788 8.73209 30.4585 15.7525L17.4543 27.5315Z" stroke="black" stroke-width="2.0001" stroke-linecap="round" stroke-linejoin="round"/>
<path d="M9.16328 13.944H13.189L15.6044 10.5197L18.8249 16.5121L21.2402 13.0879H25.7248" stroke="black" stroke-width="2.0001" stroke-linecap="round" stroke-linejoin="round"/>
<path d="M24.2602 39.2595C24.2602 39.2595 25.9927 34.9281 31.1904 34.9281C36.3878 34.9281 38.1203 38.3932 38.1203 38.3932L34.6553 27.9981H32.3216C31.2674 27.9981 30.4573 27.0643 30.6065 26.0206L30.7654 24.9094C31.0092 23.2023 32.471 21.9344 34.1955 21.9344H38.6393C39.3678 21.9344 40.0186 22.3901 40.2674 23.0749L46.1837 39.3443C46.5603 40.3801 46.4217 41.5334 45.8103 42.4506L44.2084 44.8536C43.652 45.6882 42.7153 46.1894 41.7121 46.1894H22.5278" stroke="black" stroke-width="2.0001" stroke-linecap="round" stroke-linejoin="round"/>
</g>
<defs>
<clipPath id="clip0_1209_6873">
<rect width="48.0023" height="48.0023" fill="white"/>
</clipPath>
</defs>
</svg>
