<svg width="48" height="48" viewBox="0 0 48 48" fill="none" xmlns="http://www.w3.org/2000/svg">
<g clip-path="url(#clip0_1209_6867)">
<path d="M32.9212 27.0466C35.3621 27.1154 37.6799 28.133 39.3819 29.8837C41.084 31.6344 42.0363 33.9799 42.0363 36.4216C42.0363 38.8633 41.084 41.2087 39.3819 42.9593C37.6799 44.71 35.3621 45.7279 32.9212 45.7965H15.1383C12.6963 45.7431 10.3714 44.7392 8.65818 42.9979C6.945 41.2569 5.97869 38.9161 5.96481 36.4734C5.95093 34.0309 6.89058 31.6792 8.58388 29.9187C10.2772 28.1582 12.5905 27.1278 15.0318 27.0468L32.9212 27.0466Z" stroke="black" stroke-width="2.0001" stroke-linecap="round" stroke-linejoin="round"/>
<path d="M24.0022 27.0466V45.7965" stroke="black" stroke-width="2.0001" stroke-linecap="round" stroke-linejoin="round"/>
<path d="M38.013 17.8331C37.4274 18.3429 36.7442 18.7283 36.005 18.966C35.2659 19.2037 34.4861 19.2887 33.713 19.2158C32.94 19.1429 32.19 18.9137 31.5081 18.542C30.8265 18.1704 30.2275 17.664 29.7472 17.0537C29.2672 16.4435 28.9162 15.742 28.7156 14.9919C28.515 14.2418 28.4688 13.4588 28.58 12.6904C28.6912 11.9219 28.9574 11.1841 29.3624 10.5217C29.7676 9.85925 30.3031 9.28608 30.9365 8.83694C33.4004 6.88872 41.2218 8.03474 41.2218 8.03474C41.2218 8.03474 40.5056 15.8849 38.013 17.8331Z" stroke="black" stroke-width="2.0001" stroke-linecap="round" stroke-linejoin="round"/>
<path d="M29.2656 16.416C27.6092 17.7732 26.6905 19.0259 25.7053 20.9272C24.72 22.8287 24.1328 24.911 23.9794 27.0469C23.9794 18.4519 19.6818 12.7218 12.5192 8.42426" stroke="black" stroke-width="2.0001" stroke-linecap="round" stroke-linejoin="round"/>
<path d="M7.99109 14.1542C9.39384 15.359 11.1999 15.9896 13.0477 15.9195C14.8955 15.8495 16.6486 15.0841 17.9561 13.7766C19.2637 12.469 20.029 10.7159 20.099 8.86809C20.169 7.0203 19.5386 5.21425 18.3338 3.8115C15.4688 0.975129 5.35527 1.26163 5.35527 1.26163C5.35527 1.26163 5.12608 11.2892 7.99109 14.1542Z" stroke="black" stroke-width="2.0001" stroke-linecap="round" stroke-linejoin="round"/>
</g>
<defs>
<clipPath id="clip0_1209_6867">
<rect width="48.0023" height="48.0023" fill="white"/>
</clipPath>
</defs>
</svg>
