<svg width="48" height="48" viewBox="0 0 48 48" fill="none" xmlns="http://www.w3.org/2000/svg">
<path d="M3.539 8.257C3.747 5.702 5.702 3.747 8.257 3.539C11.485 3.277 16.636 3 24 3C31.364 3 36.515 3.277 39.743 3.539C42.298 3.747 44.253 5.702 44.461 8.257C44.723 11.485 45 16.636 45 24C45 31.364 44.723 36.515 44.461 39.743C44.253 42.298 42.298 44.253 39.743 44.461C36.515 44.723 31.364 45 24 45C16.636 45 11.485 44.723 8.257 44.461C5.702 44.253 3.747 42.298 3.539 39.743C3.277 36.515 3 31.364 3 24C3 16.636 3.277 11.485 3.539 8.257Z" stroke="black" stroke-width="3" stroke-linecap="round"/>
<path d="M16.721 10.104C18.065 10.279 18.846 11.481 18.881 12.835C18.921 14.362 18.966 16.729 18.988 20.041C20.6585 20.0124 22.3292 19.9987 24 20C26.008 20 27.67 20.017 29.012 20.041C29.034 16.729 29.079 14.362 29.119 12.835C29.154 11.481 29.935 10.279 31.279 10.105C31.8498 10.0331 32.4247 9.99798 33 10C33.667 10 34.239 10.042 34.721 10.104C36.065 10.279 36.846 11.481 36.881 12.835C36.935 14.913 37 18.545 37 24C37 29.454 36.935 33.087 36.88 35.165C36.846 36.519 36.065 37.721 34.721 37.895C34.239 37.958 33.667 38 33 38C32.333 38 31.761 37.958 31.279 37.896C29.935 37.721 29.154 36.519 29.119 35.165C29.079 33.638 29.034 31.271 29.012 27.959C27.3415 27.9876 25.6708 28.0013 24 28C21.992 28 20.33 27.983 18.988 27.959C18.9754 30.3613 18.9397 32.7634 18.881 35.165C18.846 36.519 18.065 37.721 16.721 37.895C16.239 37.958 15.667 38 15 38C14.333 38 13.761 37.958 13.279 37.896C11.935 37.721 11.154 36.519 11.119 35.165C11.065 33.087 11 29.455 11 24C11 18.546 11.065 14.913 11.12 12.835C11.154 11.481 11.935 10.279 13.279 10.105C13.8498 10.0331 14.4247 9.99798 15 10C15.667 10 16.239 10.042 16.721 10.104Z" stroke="black" stroke-width="3" stroke-linecap="round" stroke-linejoin="round"/>
</svg>
