<svg width="48" height="48" viewBox="0 0 48 48" fill="none" xmlns="http://www.w3.org/2000/svg">
<g clip-path="url(#clip0_1209_6856)">
<path d="M1.00006 24.001C1.00006 27.0215 1.595 30.0125 2.75091 32.8031C3.90683 35.5938 5.60108 38.1294 7.73693 40.2652C9.87278 42.4011 12.4084 44.0953 15.199 45.2513C17.9897 46.4072 20.9806 47.0021 24.0012 47.0021C27.0217 47.0021 30.0127 46.4072 32.8033 45.2513C35.5939 44.0953 38.1296 42.4011 40.2654 40.2652C42.4013 38.1294 44.0955 35.5938 45.2514 32.8031C46.4073 30.0125 47.0023 27.0215 47.0023 24.001C47.0023 20.9804 46.4073 17.9895 45.2514 15.1988C44.0955 12.4082 42.4013 9.8726 40.2654 7.73675C38.1296 5.6009 35.5939 3.90665 32.8033 2.75073C30.0127 1.59482 27.0217 0.999878 24.0012 0.999878C20.9806 0.999878 17.9897 1.59482 15.199 2.75073C12.4084 3.90665 9.87278 5.6009 7.73693 7.73675C5.60108 9.8726 3.90683 12.4082 2.75091 15.1988C1.595 17.9895 1.00006 20.9804 1.00006 24.001Z" stroke="black" stroke-width="2.0001" stroke-linecap="round" stroke-linejoin="round"/>
<path d="M7.00032 24.0017C7.00032 28.5106 8.79147 32.8348 11.9797 36.0231C15.168 39.2114 19.4922 41.0025 24.0011 41.0025C28.51 41.0025 32.8343 39.2114 36.0225 36.0231C39.2108 32.8348 41.002 28.5106 41.002 24.0017C41.002 19.4928 39.2108 15.1686 36.0225 11.9803C32.8343 8.79201 28.51 7.00085 24.0011 7.00085C19.4922 7.00085 15.168 8.79201 11.9797 11.9803C8.79147 15.1686 7.00032 19.4928 7.00032 24.0017Z" stroke="black" stroke-width="2.0001" stroke-linecap="round" stroke-linejoin="round"/>
<path d="M33.0016 22.0012C33.0016 21.736 32.8962 21.4816 32.7087 21.2941C32.5211 21.1065 32.2668 21.0011 32.0015 21.0011H27.0013V16.0009C27.0013 15.7357 26.8959 15.4813 26.7084 15.2938C26.5208 15.1062 26.2665 15.0009 26.0012 15.0009H22.001C21.7358 15.0009 21.4815 15.1062 21.2939 15.2938C21.1064 15.4813 21.001 15.7357 21.001 16.0009V21.0011H16.0008C15.7355 21.0011 15.4812 21.1065 15.2936 21.2941C15.1061 21.4816 15.0007 21.736 15.0007 22.0012V26.0014C15.0007 26.2666 15.1061 26.521 15.2936 26.7085C15.4812 26.8961 15.7355 27.0014 16.0008 27.0014H21.001V32.0017C21.001 32.2669 21.1064 32.5213 21.2939 32.7088C21.4815 32.8964 21.7358 33.0017 22.001 33.0017H26.0012C26.2665 33.0017 26.5208 32.8964 26.7084 32.7088C26.8959 32.5213 27.0013 32.2669 27.0013 32.0017V27.0014H32.0015C32.2668 27.0014 32.5211 26.8961 32.7087 26.7085C32.8962 26.521 33.0016 26.2666 33.0016 26.0014V22.0012Z" stroke="black" stroke-width="2.0001" stroke-linecap="round" stroke-linejoin="round"/>
</g>
<defs>
<clipPath id="clip0_1209_6856">
<rect width="48.0023" height="48.0023" fill="white"/>
</clipPath>
</defs>
</svg>
