<svg width="48" height="48" viewBox="0 0 48 48" fill="none" xmlns="http://www.w3.org/2000/svg">
<g clip-path="url(#clip0_1210_1966)">
<path fill-rule="evenodd" clip-rule="evenodd" d="M47.32 12.6C47.3789 10.3918 47.2383 8.18286 46.9 5.99998C46.6272 4.32338 45.735 2.81024 44.4 1.75998C42.92 0.699983 37.74 0.119983 32 -1.72742e-05C25.8669 -0.14356 19.7313 0.150519 13.64 0.879983C9.99999 1.47998 6.99999 1.39998 4.79999 2.43998C3.81482 2.92211 2.95513 3.62654 2.28874 4.49771C1.62235 5.36888 1.16747 6.38297 0.959991 7.45998C0.339178 10.1808 0.0769536 12.9711 0.179991 15.76C0.179991 21.76 0.719991 29.02 0.899991 34.8C0.814931 37.2226 1.06394 39.6453 1.63999 42C2.15757 43.7279 3.28842 45.2072 4.81999 46.16C6.83987 46.8869 8.95604 47.3115 11.1 47.42C19.0813 48.2368 27.1272 48.1966 35.1 47.3C38.2259 47.0015 41.2736 46.1482 44.1 44.78C44.8589 44.4285 45.5242 43.903 46.0419 43.2463C46.5597 42.5895 46.9153 41.8199 47.08 41C47.5658 37.2128 47.8063 33.3982 47.8 29.58C47.86 23.86 47.5 18 47.32 12.6ZM44.56 40.6C44.42 41.68 43.34 42.38 41.84 43.02C38.2263 44.2928 34.4468 45.0338 30.62 45.22C23.9079 45.729 17.1655 45.6889 10.46 45.1C8.94809 45.0576 7.44843 44.8155 5.99999 44.38C4.86299 43.6994 4.01591 42.6246 3.61999 41.36C3.05953 39.1924 2.79711 36.9585 2.83999 34.72C2.43999 28.96 1.71999 21.68 1.65999 15.76C1.53237 13.1091 1.75428 10.4529 2.31999 7.85998C2.49241 7.0045 2.85763 6.19959 3.38787 5.50646C3.91812 4.81334 4.59942 4.25024 5.37999 3.85998C7.57999 2.93998 10.42 3.11998 14 2.57998C19.9793 1.96843 25.9948 1.78796 32 2.03998C37.26 2.19998 42 2.57998 43.26 3.53998C44.1299 4.30101 44.6918 5.35368 44.84 6.49998C45.1046 8.54865 45.1982 10.6158 45.12 12.68C45.26 18.08 45.52 23.86 45.44 29.56C45.3834 33.2683 45.0895 36.9692 44.56 40.64V40.6Z" fill="black"/>
<path fill-rule="evenodd" clip-rule="evenodd" d="M37.1 8.98001C36.6577 7.92896 35.847 7.07553 34.82 6.58001C34.3848 6.33088 33.872 6.25429 33.383 6.36541C32.8941 6.47654 32.4647 6.76727 32.18 7.18001C31.5091 8.20388 31.0783 9.36619 30.92 10.58C30.64 12.12 30.78 14.84 30.56 17.08C30.5073 17.6358 30.4001 18.1852 30.24 18.72C29.92 18.6 29.16 19.02 28.98 19.04C27.7 19.2 24.26 19.54 21.22 19.62C19.8396 19.7246 18.452 19.6843 17.08 19.5C16.94 18.18 16.8 15.5 16.76 15.28C16.5394 13.1774 15.9074 11.1387 14.9 9.28001C14.6088 8.7254 14.1446 8.28085 13.578 8.01378C13.0114 7.7467 12.3731 7.67165 11.76 7.80001C11.1809 7.95014 10.6488 8.24296 10.2121 8.65173C9.77534 9.06049 9.44801 9.57217 9.25997 10.14C8.64502 12.1934 8.42114 14.344 8.59997 16.48C8.59997 19.72 8.71997 23.12 8.97997 26.48C9.14397 28.7065 9.42435 30.9228 9.81997 33.12C10.0722 34.7618 10.6284 36.3421 11.46 37.78C12.0769 38.7477 12.9584 39.5182 14 40C14.1373 40.0384 14.2826 40.0384 14.42 40C14.5192 40.018 14.6208 40.018 14.72 40C15.9116 39.3824 16.8104 38.3182 17.22 37.04C17.7363 35.3618 17.9992 33.6159 18 31.86C18 31.56 17.84 28.86 18 27.7H18.7H20.88C22.88 27.7 24.74 27.48 26.64 27.46C27.6567 27.4569 28.6724 27.5237 29.68 27.66V31.14C29.7581 32.664 29.9791 34.1773 30.34 35.66C30.5904 36.6953 30.9665 37.6961 31.46 38.64C31.8321 39.5806 32.5467 40.3452 33.46 40.78C33.897 40.9283 34.3669 40.9507 34.8161 40.8446C35.2653 40.7385 35.6755 40.5082 36 40.18C36.9909 39.4303 37.6964 38.3649 38 37.16C38.3286 35.6415 38.5029 34.0936 38.52 32.54C38.7 29.64 38.82 26.72 38.84 23.82C38.8435 20.8944 38.6967 17.9705 38.4 15.06C38.3034 12.9757 37.8642 10.9215 37.1 8.98001ZM36 32.4C36.0206 33.7962 35.8933 35.1907 35.62 36.56C35.4724 37.2859 35.085 37.941 34.52 38.42C34.34 38.56 34.24 38.7 34.12 38.62C33.7871 38.3266 33.5211 37.9651 33.34 37.56C32.8102 36.5739 32.4262 35.5163 32.2 34.42C31.9537 33.2796 31.7867 32.1235 31.7 30.96C31.7 30.58 31.7 28.02 31.46 26.96C31.4389 26.6901 31.3411 26.4319 31.1781 26.2157C31.0151 25.9996 30.7937 25.8345 30.54 25.74C29.2168 25.5364 27.8783 25.4494 26.54 25.48C24.54 25.48 22.68 25.72 20.74 25.82H18.1C17.5869 25.869 17.093 26.0405 16.66 26.32C16.3736 26.6076 16.2089 26.9943 16.2 27.4C16.2 28.54 16.34 31.4 16.34 31.7C16.3841 33.3067 16.1887 34.911 15.76 36.46C15.4999 37.2997 14.9367 38.0126 14.18 38.46C13.54 38.05 13.0056 37.495 12.62 36.84C11.9131 35.5423 11.4521 34.1252 11.26 32.66C10.9184 30.5069 10.6915 28.3372 10.58 26.16C10.38 22.86 10.38 19.5 10.42 16.3C10.3654 14.723 10.4996 13.1451 10.82 11.6C11.06 10.76 11.42 10.02 12.22 9.86001C13.02 9.70001 13.14 10.4 13.48 11.12C14.0487 12.5344 14.4124 14.0228 14.56 15.54C14.56 15.74 14.68 18.8 14.82 20C14.8299 20.2621 14.8956 20.519 15.0129 20.7535C15.1302 20.9881 15.2963 21.1949 15.5 21.36C16.9432 21.8675 18.4725 22.085 20 22C23.1137 21.9917 26.2247 21.8181 29.32 21.48C29.9535 21.4531 30.583 21.3661 31.2 21.22C31.6327 21.1013 32.0087 20.8317 32.26 20.46C32.7658 19.4849 33.0653 18.416 33.14 17.32C33.36 15.14 33.14 12.48 33.48 11C33.48 10.78 33.72 6.52001 35.12 10.66C35.5098 12.1722 35.7444 13.7202 35.82 15.28C36.08 17.54 36.2 19.82 36.26 22.08C36.3 25.54 36.22 28.98 36 32.4Z" fill="black"/>
</g>
<defs>
<clipPath id="clip0_1210_1966">
<rect width="48" height="48" fill="white"/>
</clipPath>
</defs>
</svg>
