<svg width="48" height="48" viewBox="0 0 48 48" fill="none" xmlns="http://www.w3.org/2000/svg">
<g clip-path="url(#clip0_1209_6820)">
<path d="M32.625 25.9166C32.625 25.6625 32.524 25.4187 32.3443 25.239C32.1646 25.0593 31.9208 24.9583 31.6667 24.9583H26.875V20.1666C26.875 19.9125 26.774 19.6687 26.5943 19.489C26.4146 19.3093 26.1708 19.2083 25.9167 19.2083H22.0833C21.8292 19.2083 21.5854 19.3093 21.4057 19.489C21.226 19.6687 21.125 19.9125 21.125 20.1666V24.9583H16.3333C16.0792 24.9583 15.8354 25.0593 15.6557 25.239C15.476 25.4187 15.375 25.6625 15.375 25.9166V29.75C15.375 30.0041 15.476 30.2479 15.6557 30.4276C15.8354 30.6073 16.0792 30.7083 16.3333 30.7083H21.125V35.5C21.125 35.7541 21.226 35.9979 21.4057 36.1776C21.5854 36.3573 21.8292 36.4583 22.0833 36.4583H25.9167C26.1708 36.4583 26.4146 36.3573 26.5943 36.1776C26.774 35.9979 26.875 35.7541 26.875 35.5V30.7083H31.6667C31.9208 30.7083 32.1646 30.6073 32.3443 30.4276C32.524 30.2479 32.625 30.0041 32.625 29.75V25.9166Z" stroke="#7ED957" stroke-width="2" stroke-linecap="round" stroke-linejoin="round"/>
<path d="M5.79165 11.5417H42.2083C42.2083 11.5417 46.0416 11.5417 46.0416 15.375V38.375C46.0416 38.375 46.0416 42.2084 42.2083 42.2084H5.79165C5.79165 42.2084 1.95831 42.2084 1.95831 38.375V15.375C1.95831 15.375 1.95831 11.5417 5.79165 11.5417Z" stroke="#7ED957" stroke-width="2" stroke-linecap="round" stroke-linejoin="round"/>
<path d="M17.2917 11.5417V8.66669C17.2917 7.90419 17.5946 7.17292 18.1338 6.63376C18.6729 6.09459 19.4042 5.79169 20.1667 5.79169H27.8334C28.5959 5.79169 29.3271 6.09459 29.8663 6.63376C30.4055 7.17292 30.7084 7.90419 30.7084 8.66669V11.5417" stroke="#7ED957" stroke-width="2" stroke-linecap="round" stroke-linejoin="round"/>
</g>
<defs>
<clipPath id="clip0_1209_6820">
<rect width="48" height="48" fill="white"/>
</clipPath>
</defs>
</svg>
