<svg width="48" height="48" viewBox="0 0 48 48" fill="none" xmlns="http://www.w3.org/2000/svg">
<g clip-path="url(#clip0_1210_1990)">
<path fill-rule="evenodd" clip-rule="evenodd" d="M39.8201 45.2L38.4601 45.1H36.9001V44.94C36.8199 44.7973 36.7657 44.6416 36.7401 44.48C36.5777 43.8813 36.4508 43.2736 36.3601 42.66L35.9601 40.66C35.9601 40.48 36.3401 39.92 31.9601 39.94C29.4401 39.94 26.9201 40.36 24.3801 40.28C22.8001 40.28 21.2401 40.28 19.6801 40.42L15.0201 40.84H12.5401C12.1582 40.8602 11.7777 40.9002 11.4001 40.96C11.2998 40.979 11.2063 41.0241 11.129 41.0909C11.0517 41.1576 10.9935 41.2435 10.9601 41.34C10.9098 41.1902 10.8075 41.0634 10.6717 40.9827C10.5359 40.902 10.3756 40.8726 10.2201 40.9C10.0562 40.9382 9.914 41.0393 9.82417 41.1815C9.73434 41.3238 9.70412 41.4956 9.74005 41.66L10.0001 44.94C10.0001 45.22 10.1401 45.62 10.2001 46C9.75046 46.0403 9.30731 46.1343 8.88005 46.28H7.18005L6.30005 46.14C6.00005 46.14 5.86005 46 5.78005 45.82C5.66712 45.4234 5.61321 45.0123 5.62005 44.6C5.62005 43.78 5.50005 42.96 5.46005 42.12C5.32005 38.72 5.46005 35.28 5.24005 31.88C5.04005 29.7 4.52005 27.34 4.40005 25.04C4.29976 24.116 4.29976 23.1839 4.40005 22.26C4.40005 21.92 4.58005 21.76 4.82005 21.72C5.06005 21.68 5.88005 21.72 6.48005 21.58C7.07591 21.4934 7.67828 21.4599 8.28005 21.48C8.5235 21.4897 8.7621 21.5511 8.98005 21.66C8.86005 21.84 9.14005 22.4 9.14005 22.44L9.58005 24.3C9.59975 24.3748 9.634 24.4451 9.68084 24.5067C9.72769 24.5683 9.78621 24.6201 9.85307 24.6591C9.91993 24.6981 9.99381 24.7235 10.0705 24.734C10.1472 24.7444 10.2252 24.7397 10.3001 24.72C10.3749 24.7003 10.4451 24.666 10.5068 24.6192C10.5684 24.5723 10.6202 24.5138 10.6592 24.447C10.6982 24.3801 10.7236 24.3062 10.7341 24.2295C10.7445 24.1528 10.7398 24.0748 10.7201 24L10.4001 22.26C10.4298 21.954 10.4298 21.6459 10.4001 21.34C10.3319 21.125 10.1903 20.941 10.0001 20.82C9.56477 20.4501 9.02808 20.2201 8.46005 20.16C7.79453 20.1049 7.12558 20.1049 6.46005 20.16C5.68304 20.1047 4.90212 20.1586 4.14005 20.32C3.77998 20.4435 3.46261 20.6671 3.22525 20.9647C2.98788 21.2623 2.84038 21.6215 2.80005 22C2.58532 23.0323 2.49135 24.086 2.52005 25.14C2.52005 27.46 2.98005 29.88 3.10005 32.08C3.34005 35.02 3.24005 38.08 3.38005 40.98C3.38005 42.3133 3.50005 43.6133 3.74005 44.88C3.76116 45.6372 3.98194 46.3755 4.38005 47.02C4.56879 47.2627 4.8039 47.4655 5.07171 47.6166C5.33952 47.7677 5.63469 47.864 5.94005 47.9L7.04005 48.02L9.04005 47.9C9.6434 47.8572 10.2442 47.7838 10.8401 47.68C10.9969 47.6611 11.146 47.6012 11.2724 47.5064C11.3988 47.4116 11.498 47.2853 11.5601 47.14C11.6315 46.8375 11.6315 46.5225 11.5601 46.22C11.5601 45.72 11.3401 45.14 11.2801 44.78L11.0001 42C11.0551 42.0901 11.1362 42.1613 11.2326 42.2041C11.3291 42.247 11.4363 42.2595 11.5401 42.24C11.866 42.2099 12.1941 42.2099 12.5201 42.24C13.3801 42.24 14.2001 42.42 15.0601 42.44H19.7201H24.3801C26.9601 42.32 29.4601 41.74 32.0201 41.52C32.9057 41.4598 33.7944 41.4598 34.6801 41.52L34.5601 42.9C34.5235 43.3926 34.5235 43.8873 34.5601 44.38C34.5734 45.0061 34.7454 45.6185 35.0601 46.16C35.242 46.4942 35.5155 46.7696 35.8485 46.9539C36.1816 47.1381 36.5602 47.2235 36.9401 47.2C37.1635 47.1961 37.3855 47.1624 37.6001 47.1C37.9201 47.1 38.2201 46.86 38.5801 46.8L40.0601 46.58C40.226 46.5507 40.3752 46.4608 40.4787 46.3278C40.5821 46.1948 40.6325 46.028 40.6201 45.86C40.6265 45.759 40.6089 45.6579 40.5686 45.565C40.5284 45.4721 40.4667 45.3901 40.3886 45.3256C40.3105 45.2612 40.2183 45.2162 40.1195 45.1944C40.0206 45.1726 39.918 45.1745 39.8201 45.2Z" fill="black"/>
<path fill-rule="evenodd" clip-rule="evenodd" d="M42.5001 26.32C42.4562 25.8176 42.3348 25.3251 42.1401 24.86C42.0541 24.6352 41.9172 24.4335 41.7403 24.2704C41.5634 24.1073 41.3511 23.9874 41.1201 23.92C40.5372 23.8287 39.9409 23.8767 39.3801 24.06C38.5801 24.26 37.2201 24.16 36.2001 24.44C35.5307 24.5786 34.938 24.9642 34.5401 25.52C34.3318 25.8333 34.2268 26.204 34.2401 26.58C34.2401 27.12 34.3601 27.78 34.3601 28.1C34.3601 28.78 34.4601 29.46 34.5201 30.1L34.7001 31.64C34.2201 31.1 33.7001 30.6 33.2401 30.08C32.5377 29.3332 31.7824 28.6381 30.9801 28C30.1355 27.3137 29.2082 26.7359 28.2201 26.28C27.0786 25.8127 25.8703 25.5292 24.6401 25.44C22.9979 25.3697 21.3527 25.4299 19.7201 25.62C19.6654 25.557 19.5978 25.5065 19.5219 25.472C19.446 25.4375 19.3635 25.4197 19.2801 25.42C19.1316 25.4349 18.9939 25.5047 18.8941 25.6156C18.7942 25.7265 18.7393 25.8707 18.7401 26.02C18.7401 26.66 18.7401 27.28 18.5801 27.9C18.0534 27.7806 17.5067 27.7806 16.9801 27.9C16.7659 27.959 16.5582 28.0394 16.3601 28.14C16.1754 28.2503 16.0013 28.3775 15.8401 28.52C15.6622 28.6978 15.5015 28.892 15.3601 29.1C15.1692 28.3621 14.749 27.7038 14.1601 27.22C13.7161 26.849 13.1969 26.5787 12.6384 26.4278C12.0798 26.2769 11.4952 26.249 10.9248 26.346C10.3544 26.4429 9.81183 26.6625 9.33452 26.9895C8.85721 27.3165 8.45651 27.7431 8.16008 28.24C7.66409 28.9232 7.39697 29.7458 7.39697 30.59C7.39697 31.4342 7.66409 32.2568 8.16008 32.94C8.53026 33.4121 9.00191 33.7949 9.54008 34.06C10.2629 34.3977 11.0435 34.5945 11.8401 34.64C12.3599 34.6512 12.8748 34.5371 13.3413 34.3073C13.8078 34.0776 14.2121 33.7389 14.5201 33.32C15.0909 32.5456 15.4494 31.6356 15.5601 30.68H15.7401C16.235 30.5705 16.7226 30.4302 17.2001 30.26C17.4376 30.1461 17.6651 30.0123 17.8801 29.86C18.0957 29.6727 18.3228 29.499 18.5601 29.34V29.7C18.5301 30.2196 18.5301 30.7404 18.5601 31.26C18.5601 31.8 18.5601 32.32 18.6801 32.84C18.8001 33.36 18.9001 34.46 19.0401 35.26C17.9801 35.38 16.9201 35.5 15.8601 35.58C14.3001 35.76 12.6801 35.74 11.0801 35.86C10.3376 35.8507 9.5955 35.8975 8.86008 36C8.786 36.012 8.71509 36.0388 8.65157 36.0787C8.58805 36.1187 8.5332 36.171 8.49029 36.2326C8.44738 36.2941 8.41729 36.3637 8.40179 36.4371C8.38629 36.5105 8.38571 36.5863 8.40008 36.66C8.41205 36.7315 8.43829 36.7998 8.47723 36.8609C8.51617 36.922 8.56701 36.9747 8.62673 37.0158C8.68645 37.0568 8.75383 37.0854 8.82484 37.0999C8.89585 37.1144 8.96905 37.1144 9.04008 37.1C9.70612 37.0593 10.374 37.0593 11.0401 37.1C12.6401 37.1 14.2601 37.32 15.8601 37.32C17.4601 37.32 18.8401 37.32 20.3401 37.14C22.5401 37 24.7401 36.74 26.9601 36.64C29.1801 36.54 31.4001 36.4 33.6201 36.3C36.2201 36.18 36.2401 35.62 36.2201 34.78C36.2201 33.46 36.0601 32.12 36.0201 30.78V28.16V26.54C36.306 26.3572 36.641 26.2665 36.9801 26.28C37.9401 26.28 39.0801 26.28 39.8001 26.16C39.9507 26.1103 40.0978 26.0501 40.2401 25.98C40.2847 26.1847 40.3181 26.3916 40.3401 26.6V28.28L40.5001 32.28L41.2001 46.46C41.2104 46.6262 41.2851 46.7819 41.4083 46.8939C41.5316 47.0059 41.6936 47.0655 41.8601 47.06C41.945 47.0602 42.029 47.0429 42.107 47.0093C42.1849 46.9756 42.2551 46.9264 42.3133 46.8645C42.3714 46.8026 42.4162 46.7295 42.4449 46.6496C42.4736 46.5697 42.4856 46.4847 42.4801 46.4V32.22V28.32C42.5601 27.58 42.5801 26.94 42.5001 26.32ZM13.0801 31.68C12.9665 31.9142 12.7908 32.1126 12.5722 32.2537C12.3535 32.3948 12.1002 32.4731 11.8401 32.48C11.415 32.4495 10.997 32.3551 10.6001 32.2C10.2621 32.1056 9.95727 31.9186 9.72008 31.66C9.42222 31.3004 9.24308 30.8573 9.20726 30.3917C9.17145 29.9262 9.28073 29.4609 9.52008 29.06C9.52008 29.06 11.0401 26.16 13.1601 28.3C13.3515 28.4876 13.5032 28.7117 13.6063 28.9591C13.7093 29.2064 13.7616 29.472 13.7601 29.74C13.7352 30.4406 13.498 31.1171 13.0801 31.68ZM33.5801 34.76C31.3401 34.76 29.1001 34.58 26.8601 34.58C25.3601 34.58 23.8601 34.58 22.3601 34.8C21.7401 34.8 21.1001 34.9 20.4801 34.98V32.56C20.5303 31.7274 20.5303 30.8926 20.4801 30.06C20.3803 28.9454 20.22 27.8372 20.0001 26.74C21.1801 26.74 22.3801 26.9 23.5801 27.06C24.8715 27.2225 26.1279 27.594 27.3001 28.16C27.9955 28.4794 28.6643 28.854 29.3001 29.28C30.2426 29.9308 31.1443 30.6388 32.0001 31.4C32.6001 31.92 33.3001 32.42 33.9001 33C34.2553 33.3405 34.5585 33.7313 34.8001 34.16C34.8515 34.2576 34.9273 34.3403 35.0201 34.4C35.0113 34.5265 35.0113 34.6535 35.0201 34.78L33.5801 34.76Z" fill="black"/>
<path fill-rule="evenodd" clip-rule="evenodd" d="M45.46 21.08C45.3382 20.352 45.178 19.631 44.98 18.92C44.8801 18.6029 44.753 18.2951 44.6 18C44.4435 17.7135 44.2556 17.4452 44.04 17.2C43.5103 16.6051 42.8723 16.1164 42.16 15.76C42.7887 14.845 43.1741 13.7851 43.28 12.68C43.4496 11.6052 43.2054 10.5061 42.5968 9.60427C41.9881 8.70239 41.0602 8.06479 40 7.81999C39.7034 7.75384 39.4027 7.70707 39.1 7.67999C38 7.59999 36.2 7.41999 34 11.32C33.694 11.8622 33.5419 12.4777 33.56 13.1C33.5977 14.2698 34.0598 15.3859 34.86 16.24C34.2569 16.6807 33.7414 17.2301 33.34 17.86C33.1167 18.1967 32.9353 18.5593 32.8 18.94C32.6602 19.3221 32.5597 19.7175 32.5 20.12C32.3757 21.0694 32.4368 22.0339 32.68 22.96C32.7049 23.1281 32.7936 23.2801 32.9277 23.3844C33.0618 23.4887 33.231 23.5373 33.4 23.52C33.4878 23.5152 33.5737 23.4924 33.6523 23.4529C33.7309 23.4135 33.8005 23.3582 33.8568 23.2907C33.9131 23.2231 33.9549 23.1447 33.9795 23.0602C34.0041 22.9758 34.0111 22.8872 34 22.8C34.0182 22.1154 34.1535 21.4389 34.4 20.8L34.72 19.96C34.88 19.52 35.04 19.1 35.2 18.7C35.4266 18.154 35.6941 17.6258 36 17.12C36.5707 17.5322 37.2334 17.7987 37.9305 17.8963C38.6277 17.9939 39.3381 17.9196 40 17.68C40.5911 17.4337 41.128 17.0736 41.58 16.62C41.9349 17.1558 42.2364 17.7252 42.48 18.32C42.6 18.56 42.72 18.8 42.86 19.04L43.3 19.74C43.66 20.34 44.06 20.88 44.38 21.46C44.407 21.5405 44.4497 21.6148 44.5057 21.6787C44.5617 21.7425 44.6299 21.7945 44.7062 21.8318C44.7825 21.869 44.8655 21.8907 44.9503 21.8955C45.035 21.9003 45.1199 21.8883 45.2 21.86C45.3252 21.7786 45.4191 21.6571 45.4663 21.5154C45.5135 21.3737 45.5113 21.2202 45.46 21.08ZM39.06 15.68C38.6674 15.8213 38.2445 15.8568 37.8338 15.7831C37.4231 15.7094 37.039 15.529 36.72 15.26C36.3275 15.0073 35.9915 14.676 35.7333 14.2871C35.4752 13.8981 35.3004 13.4599 35.22 13C35.02 11.12 37.74 8.99999 39.56 9.35999C40.1916 9.56751 40.7206 10.0073 41.04 10.5904C41.3594 11.1734 41.4452 11.8561 41.28 12.5C41.2234 13.1788 40.9883 13.8305 40.5984 14.389C40.2085 14.9476 39.6777 15.3929 39.06 15.68Z" fill="black"/>
<path fill-rule="evenodd" clip-rule="evenodd" d="M10.0001 14.12C10.0932 14.4494 10.2648 14.7513 10.5001 15C10.7058 15.1836 10.9654 15.2958 11.2401 15.32C11.6582 15.3763 12.0819 15.3763 12.5001 15.32L15.8001 14.68H16.1001C16.222 14.9799 16.2963 15.2971 16.3201 15.62C16.4801 16.62 16.4801 17.74 16.5601 18.48C16.5601 18.74 16.5601 19.36 16.6601 19.76C16.7263 20.0552 16.8636 20.3298 17.0601 20.56C17.4002 20.8701 17.8249 21.0719 18.2801 21.14C18.9509 21.1811 19.6242 21.1272 20.2801 20.98C20.6801 20.98 21.3801 20.98 21.9201 20.8C22.3035 20.7298 22.658 20.549 22.9401 20.28C23.2754 19.9128 23.4916 19.4525 23.5601 18.96C23.6407 18.4029 23.6407 17.8371 23.5601 17.28L23.0601 13.28C23.1214 13.3783 23.2069 13.4594 23.3085 13.5154C23.41 13.5714 23.5241 13.6005 23.6401 13.6L26.0001 13.5H27.1801H27.9601C28.2548 13.4747 28.536 13.3651 28.7701 13.1842C29.0042 13.0033 29.1812 12.7588 29.2801 12.48C29.3847 11.9047 29.3847 11.3153 29.2801 10.74L29.1001 9.27999C29.0524 8.65948 28.9246 8.04774 28.7201 7.45999C28.6091 7.00675 28.357 6.60052 28.0001 6.29999C27.7457 6.15243 27.4536 6.08288 27.1601 6.09999C26.8001 6.09999 26.2801 6.29999 26.0801 6.31999L22.8001 6.75999H22.4601C22.4877 6.43751 22.5345 6.11695 22.6001 5.79999C22.6001 4.79999 22.6001 3.45999 22.3201 2.29999C22.1938 1.69779 21.9491 1.12671 21.6001 0.619989C21.5087 0.465694 21.3872 0.331315 21.2429 0.224816C21.0986 0.118317 20.9344 0.0418646 20.7601 -1.11349e-05C20.3901 -0.0712853 20.01 -0.0712854 19.6401 -1.11386e-05C19.0001 0.139989 18.3801 0.259989 17.7601 0.439989C17.3302 0.556617 16.9091 0.703654 16.5001 0.879989C16.1674 0.997261 15.8461 1.14453 15.5401 1.31999C15.2911 1.47278 15.1117 1.71679 15.0401 1.99999C14.99 2.31132 14.99 2.62866 15.0401 2.93999C15.0401 3.51999 15.2801 4.13999 15.3601 4.57999L16.0001 8.19999H15.1801C14.3201 8.19999 13.4801 8.19999 12.6201 8.33999C12.2405 8.31335 11.8596 8.31335 11.4801 8.33999C11.1707 8.38785 10.8803 8.51924 10.6401 8.71999C10.2927 9.13616 10.0707 9.6425 10.0001 10.18C9.88753 10.8403 9.84729 11.5109 9.88006 12.18C9.87159 12.8287 9.9117 13.4772 10.0001 14.12ZM11.5201 10.68C11.5201 9.25999 12.0201 9.87999 12.7601 9.73999C13.5001 9.59999 14.3801 9.45999 15.2001 9.41999C17.5001 9.41999 17.2001 8.33999 17.0801 8.31999L16.7801 4.47999C16.7801 4.09999 16.6401 3.57999 16.6001 3.09999C16.5901 3.01361 16.5901 2.92637 16.6001 2.83999C16.8001 2.83999 17.0601 2.57999 17.1201 2.57999C17.4743 2.46558 17.8349 2.37208 18.2001 2.29999C18.8001 2.17999 19.3801 2.11999 19.9801 2.01999C20.0844 2.3856 20.1515 2.76085 20.1801 3.13999C20.1801 4.11999 20.1801 5.13999 20.3201 6.03999C20.2896 6.57289 20.2896 7.10709 20.3201 7.63999C20.3655 7.86782 20.4538 8.08498 20.5801 8.27999C20.7666 8.49936 21.0082 8.66504 21.2801 8.75999C21.7179 8.86864 22.1709 8.90245 22.6201 8.85999C23.1308 8.85733 23.64 8.80373 24.1401 8.69999C24.8201 8.57999 25.5001 8.39999 26.1401 8.25999C26.3731 8.27571 26.607 8.27571 26.8401 8.25999V8.37999C26.9601 8.75999 27.0401 9.17999 27.1001 9.45999L27.3201 10.76L27.4401 11.52C27.4401 11.52 27.5401 11.74 27.4401 11.74H27.2601L26.6601 11.86L25.4401 12.02C22.2801 12.18 21.4401 12.18 21.4401 12.8L22.0001 17.48C22.0302 17.826 22.0302 18.174 22.0001 18.52C21.9876 18.7289 21.9027 18.9269 21.7601 19.08H20.0401C19.6695 19.1396 19.2953 19.173 18.9201 19.18H18.7801C18.7605 18.85 18.7136 18.5222 18.6401 18.2C18.6162 17.0222 18.5227 15.8468 18.3601 14.68C18.2274 14.008 17.9244 13.3813 17.4801 12.86C17.2582 12.629 16.9729 12.4689 16.6601 12.4C16.3083 12.353 15.9518 12.353 15.6001 12.4L12.1601 13.2C11.9935 13.1915 11.8266 13.1915 11.6601 13.2V11.92C11.6045 11.5087 11.5711 11.0948 11.5601 10.68H11.5201Z" fill="black"/>
</g>
<defs>
<clipPath id="clip0_1210_1990">
<rect width="48" height="48" fill="white"/>
</clipPath>
</defs>
</svg>
