<svg width="48" height="48" viewBox="0 0 48 48" fill="none" xmlns="http://www.w3.org/2000/svg">
<g clip-path="url(#clip0_1209_6824)">
<path d="M11.5416 40.2917H36.4583C37.475 40.2917 38.45 40.6956 39.1689 41.4144C39.8878 42.1333 40.2916 43.1084 40.2916 44.125V45.0834C40.2916 45.2092 40.2669 45.3338 40.2187 45.4501C40.1705 45.5664 40.0999 45.672 40.011 45.761C39.922 45.85 39.8163 45.9206 39.7001 45.9687C39.5838 46.0169 39.4592 46.0417 39.3333 46.0417H8.66665C8.5408 46.0417 8.41618 46.0169 8.29991 45.9687C8.18364 45.9206 8.07799 45.85 7.989 45.761C7.90001 45.672 7.82942 45.5664 7.78126 45.4501C7.7331 45.3338 7.70831 45.2092 7.70831 45.0834V44.125C7.70831 43.1084 8.11218 42.1333 8.83107 41.4144C9.54996 40.6956 10.525 40.2917 11.5416 40.2917Z" stroke="black" stroke-width="2" stroke-linecap="round" stroke-linejoin="round"/>
<path d="M41.25 23.0417H46.0417" stroke="black" stroke-width="2" stroke-linecap="round" stroke-linejoin="round"/>
<path d="M37.4167 11.5416L41.25 7.70831" stroke="black" stroke-width="2" stroke-linecap="round" stroke-linejoin="round"/>
<path d="M6.74998 22.0833H1.95831" stroke="black" stroke-width="2" stroke-linecap="round" stroke-linejoin="round"/>
<path d="M10.5833 11.5416L6.75 7.70831" stroke="black" stroke-width="2" stroke-linecap="round" stroke-linejoin="round"/>
<path d="M24 7.70831V1.95831" stroke="black" stroke-width="2" stroke-linecap="round" stroke-linejoin="round"/>
<path d="M30.7084 25.9167C30.7084 25.6625 30.6074 25.4187 30.4277 25.239C30.2479 25.0593 30.0042 24.9583 29.75 24.9583H26.875V22.0833C26.875 21.8292 26.7741 21.5854 26.5943 21.4057C26.4146 21.226 26.1709 21.125 25.9167 21.125H22.0834C21.8292 21.125 21.5854 21.226 21.4057 21.4057C21.226 21.5854 21.125 21.8292 21.125 22.0833V24.9583H18.25C17.9959 24.9583 17.7521 25.0593 17.5724 25.239C17.3927 25.4187 17.2917 25.6625 17.2917 25.9167V29.75C17.2917 30.0042 17.3927 30.2479 17.5724 30.4276C17.7521 30.6074 17.9959 30.7083 18.25 30.7083H21.125V33.5833C21.125 33.8375 21.226 34.0813 21.4057 34.261C21.5854 34.4407 21.8292 34.5417 22.0834 34.5417H25.9167C26.1709 34.5417 26.4146 34.4407 26.5943 34.261C26.7741 34.0813 26.875 33.8375 26.875 33.5833V30.7083H29.75C30.0042 30.7083 30.2479 30.6074 30.4277 30.4276C30.6074 30.2479 30.7084 30.0042 30.7084 29.75V25.9167Z" stroke="black" stroke-width="2" stroke-linecap="round" stroke-linejoin="round"/>
<path d="M36.4584 40.2916H11.5417V25.9166C11.5417 22.6125 12.8543 19.4437 15.1906 17.1073C17.527 14.7709 20.6959 13.4583 24 13.4583C27.3042 13.4583 30.473 14.7709 32.8094 17.1073C35.1458 19.4437 36.4584 22.6125 36.4584 25.9166V40.2916Z" stroke="black" stroke-width="2" stroke-linecap="round" stroke-linejoin="round"/>
</g>
<defs>
<clipPath id="clip0_1209_6824">
<rect width="48" height="48" fill="white"/>
</clipPath>
</defs>
</svg>
