<svg width="48" height="48" viewBox="0 0 48 48" fill="none" xmlns="http://www.w3.org/2000/svg">
<g clip-path="url(#clip0_1209_6814)">
<path d="M34.5417 18.25C34.5417 17.9959 34.4407 17.7521 34.261 17.5724C34.0813 17.3927 33.8375 17.2917 33.5833 17.2917H28.7917V12.5C28.7917 12.2459 28.6907 12.0021 28.511 11.8224C28.3313 11.6427 28.0875 11.5417 27.8333 11.5417H20.1667C19.9125 11.5417 19.6688 11.6427 19.489 11.8224C19.3093 12.0021 19.2083 12.2459 19.2083 12.5V17.2917H14.4167C14.1625 17.2917 13.9188 17.3927 13.739 17.5724C13.5593 17.7521 13.4583 17.9959 13.4583 18.25V25.9167C13.4583 26.1709 13.5593 26.4146 13.739 26.5943C13.9188 26.7741 14.1625 26.875 14.4167 26.875H19.2083V31.6667C19.2083 31.9209 19.3093 32.1646 19.489 32.3443C19.6688 32.5241 19.9125 32.625 20.1667 32.625H27.8333C28.0875 32.625 28.3313 32.5241 28.511 32.3443C28.6907 32.1646 28.7917 31.9209 28.7917 31.6667V26.875H33.5833C33.8375 26.875 34.0813 26.7741 34.261 26.5943C34.4407 26.4146 34.5417 26.1709 34.5417 25.9167V18.25Z" stroke="#7ED957" stroke-width="2" stroke-linecap="round" stroke-linejoin="round"/>
<path d="M3.875 8.23541V22.873C3.93132 27.7097 5.47269 32.4122 8.29039 36.3437C11.1081 40.2753 15.066 43.2459 19.6281 44.8533L21.7767 45.6468C23.212 46.1739 24.788 46.1739 26.2233 45.6468L28.3719 44.8533C32.934 43.2459 36.8919 40.2753 39.7096 36.3437C42.5273 32.4122 44.0687 27.7097 44.125 22.873V8.23541C44.1231 7.66033 43.9524 7.09845 43.6342 6.61942C43.316 6.1404 42.8642 5.76528 42.3348 5.54058C36.5286 3.11822 30.291 1.89954 24 1.95833C17.709 1.89954 11.4714 3.11822 5.66517 5.54058C5.1358 5.76528 4.684 6.1404 4.36579 6.61942C4.04757 7.09845 3.87693 7.66033 3.875 8.23541Z" stroke="#7ED957" stroke-width="2" stroke-linecap="round" stroke-linejoin="round"/>
</g>
<defs>
<clipPath id="clip0_1209_6814">
<rect width="48" height="48" fill="white"/>
</clipPath>
</defs>
</svg>
