<svg width="48" height="48" viewBox="0 0 48 48" fill="none" xmlns="http://www.w3.org/2000/svg">
<g clip-path="url(#clip0_1210_1982)">
<path fill-rule="evenodd" clip-rule="evenodd" d="M9.44008 10.96C9.53862 11.2085 9.69249 11.4314 9.89002 11.6116C10.0876 11.7918 10.3235 11.9246 10.5801 12C11.6213 12.1512 12.6789 12.1512 13.7201 12C13.6718 12.8193 13.6718 13.6407 13.7201 14.46C13.8032 15.0411 14.0694 15.5805 14.4801 16C14.6559 16.1692 14.8792 16.2809 15.1201 16.32C15.5524 16.3624 15.9878 16.3624 16.4201 16.32C17.3601 16.32 18.2601 16.44 19.1601 16.32C19.8528 16.2843 20.532 16.1145 21.1601 15.82C21.3039 15.7641 21.4309 15.6723 21.529 15.5532C21.627 15.4341 21.6928 15.2918 21.7201 15.14C21.6927 14.8228 21.6392 14.5084 21.5601 14.2V12.8V11.64C22.1401 11.64 22.9601 11.94 23.6601 12C24.1358 12.0553 24.6171 11.9647 25.0401 11.74C25.2279 11.6119 25.3629 11.42 25.4201 11.2C25.5479 10.8088 25.6416 10.4073 25.7001 9.99998C25.7001 9.33998 25.9001 8.29998 25.9201 7.33998C25.934 6.66114 25.8325 5.98487 25.6201 5.33998C25.4857 4.97929 25.2315 4.6757 24.9001 4.47998C24.3931 4.30426 23.8536 4.24279 23.3201 4.29998H21.8801C21.9128 3.58944 21.8591 2.87755 21.7201 2.17998C21.6086 1.63279 21.3838 1.11502 21.0601 0.659976C20.9358 0.485311 20.7782 0.337036 20.5962 0.223743C20.4143 0.110451 20.2116 0.0343925 20.0001 -2.39834e-05C19.3345 -0.0547609 18.6656 -0.0547609 18.0001 -2.39834e-05H16.8001L15.6601 0.339976C15.3155 0.388078 14.9929 0.537245 14.733 0.76863C14.4731 1.00002 14.2877 1.30324 14.2001 1.63998C14.1164 2.30402 14.1164 2.97593 14.2001 3.63998V4.87998H12.7201H11.5201C10.866 4.81367 10.2121 5.00768 9.70008 5.41998C9.34436 5.94409 9.16245 6.56679 9.18008 7.19998L9.08008 8.53998V9.89998C9.16808 10.2634 9.28856 10.6181 9.44008 10.96ZM11.7201 6.35998H12.8401H14.5401H14.7601C14.8523 6.38 14.9478 6.38 15.0401 6.35998C15.1133 6.35043 15.1839 6.32595 15.2473 6.28806C15.3107 6.25016 15.3657 6.19966 15.4088 6.13967C15.4519 6.07968 15.4822 6.01148 15.498 5.93929C15.5137 5.8671 15.5144 5.79246 15.5001 5.71998V3.75998V2.25998C15.5001 1.81998 15.7601 1.99998 16.0001 1.99998H16.8601H18.0001C20.2401 2.21998 19.5401 1.39998 19.7601 2.87998C19.7879 3.32621 19.7879 3.77374 19.7601 4.21998C19.7601 4.47998 19.6401 4.81998 19.7601 5.09998C19.7298 5.27199 19.7298 5.44796 19.7601 5.61998C19.8147 5.80255 19.915 5.96817 20.0515 6.10116C20.188 6.23415 20.3561 6.33012 20.5401 6.37998C20.8899 6.4468 21.2442 6.48692 21.6001 6.49998H23.3401C23.5314 6.47457 23.7193 6.42761 23.9001 6.35998C24.0227 6.7425 24.0966 7.13896 24.1201 7.53998V9.99998C24.1201 10.62 21.3801 9.99998 21.3201 9.99998C21.2465 9.99166 21.1719 9.99804 21.1008 10.0187C21.0297 10.0394 20.9633 10.074 20.9057 10.1205C20.848 10.167 20.8002 10.2245 20.7649 10.2896C20.7296 10.3548 20.7075 10.4263 20.7001 10.5C20.6001 11.1 20.4401 11.92 20.3401 12.72C20.2541 13.2361 20.2007 13.7571 20.1801 14.28C20.1801 14.28 20.1801 14.44 20.1801 14.56C19.8546 14.5986 19.5256 14.5986 19.2001 14.56C18.3201 14.56 17.4801 14.36 16.6001 14.28C16.3974 14.3051 16.1968 14.3452 16.0001 14.4C15.9462 14.136 15.9462 13.8639 16.0001 13.6V11.84V11.08C15.9797 10.8765 15.9185 10.6792 15.8201 10.5C15.7098 10.3574 15.571 10.2393 15.4126 10.1533C15.2543 10.0672 15.0797 10.015 14.9001 9.99998C14.528 9.95717 14.1522 9.95717 13.7801 9.99998C13.3801 9.99998 12.7801 10.14 12.1801 10.24C11.8808 10.3329 11.5723 10.3932 11.2601 10.42C11.1847 10.2487 11.1374 10.0663 11.1201 9.87998C11.1003 9.48689 11.1003 9.09306 11.1201 8.69998V7.49998C11.109 7.3068 11.109 7.11315 11.1201 6.91998C11.0201 6.33998 10.7801 6.45998 11.7201 6.35998Z" fill="black"/>
<path fill-rule="evenodd" clip-rule="evenodd" d="M47.34 29.78C47.4199 28.2649 47.3663 26.7457 47.18 25.24C47.0425 24.4045 46.6433 23.6342 46.04 23.04C45.6581 22.7289 45.191 22.5406 44.7 22.5C43.9546 22.4396 43.2055 22.4396 42.46 22.5L34.46 22.9H34.28V18.9V14.12V10.88C34.2658 10.2091 34.1989 9.54041 34.08 8.88001C34.0106 8.50887 33.8678 8.15531 33.66 7.84001C33.5038 7.6269 33.2978 7.45525 33.06 7.34001C32.7221 7.19592 32.365 7.10161 32 7.06001L29.14 6.76001C29.0678 6.74222 28.9927 6.73901 28.9192 6.75057C28.8457 6.76213 28.7752 6.78822 28.7119 6.82733C28.6486 6.86643 28.5937 6.91776 28.5505 6.97831C28.5072 7.03887 28.4765 7.10743 28.46 7.18001C28.4295 7.32559 28.456 7.47734 28.5342 7.6039C28.6124 7.73045 28.7362 7.82214 28.88 7.86001L31.82 8.34001L32.58 8.54001C32.7089 8.77995 32.7776 9.04764 32.78 9.32001C32.8201 9.86594 32.8201 10.4141 32.78 10.96L32.32 18.86C32.32 21.22 32.18 23.6 32.2 25.98C32.2 29.52 32.34 33.06 32.36 36.6C32.36 38.44 32.2 40.38 32.16 42.28V45.74H28.56H25.36L25.48 40.84C25.497 40.2546 25.4365 39.6695 25.3 39.1C25.2087 38.7725 25.0029 38.4886 24.72 38.3C24.4959 38.1744 24.2527 38.0866 24 38.04C23.66 38.04 23.26 38.04 22.98 37.92C22.2782 37.8155 21.5696 37.762 20.86 37.76C19.84 37.76 18.86 37.76 17.82 37.88H13.42C12.9785 37.8408 12.5338 37.8973 12.1161 38.0457C11.6985 38.1942 11.3178 38.431 11 38.74C10.4395 39.7283 10.2415 40.8813 10.44 42V43.7L10.64 46.1L8.64003 46.2L3.38003 46.42C3.46342 46.354 3.52904 46.2682 3.57094 46.1704C3.61284 46.0726 3.62971 45.9659 3.62003 45.86C3.20003 40 3.58003 34 3.40003 28C3.40003 26.5 3.24003 24.98 3.10003 23.48C2.88003 21.48 2.64003 19.48 2.48003 17.48C2.38003 16.18 2.30003 14.86 2.32003 13.48C2.2822 12.8139 2.2822 12.1461 2.32003 11.48C2.32214 11.1373 2.42661 10.803 2.62003 10.52C2.85895 10.2475 3.18332 10.0641 3.54003 10C4.28003 9.82001 5.14003 9.82001 5.68003 9.70001C5.75328 9.69046 5.8238 9.66598 5.88722 9.62809C5.95064 9.59019 6.00561 9.53969 6.04873 9.4797C6.09185 9.41971 6.1222 9.35151 6.1379 9.27932C6.1536 9.20713 6.15433 9.13249 6.14003 9.06001C6.13048 8.98675 6.106 8.91623 6.06811 8.85281C6.03021 8.78939 5.97971 8.73442 5.91972 8.6913C5.85973 8.64819 5.79153 8.61784 5.71934 8.60213C5.64715 8.58643 5.57251 8.58571 5.50003 8.60001C4.62883 8.61946 3.76006 8.69965 2.90003 8.84001C2.41828 8.94282 1.9749 9.17836 1.62003 9.52001C1.31308 9.89038 1.10036 10.3296 1.00003 10.8C0.815314 11.6544 0.721459 12.5259 0.720027 13.4C0.600611 14.7766 0.560545 16.1588 0.600027 17.54C0.600027 19.54 0.820027 21.54 0.980027 23.66C1.14003 25.78 1.24003 27.78 1.34003 29.86C1.48003 33 1.60003 36.12 1.78003 39.26C1.94003 41.52 2.12003 43.76 2.44003 46C2.45261 46.141 2.51304 46.2734 2.61127 46.3752C2.7095 46.4771 2.83962 46.5423 2.98003 46.56C2.8643 46.6626 2.79266 46.8059 2.78003 46.96C2.77448 47.1106 2.82774 47.2574 2.92852 47.3694C3.02931 47.4813 3.16972 47.5497 3.32003 47.56L8.74003 47.82L15.42 48L21.22 47.74L28.46 47.32L32.74 47C32.8235 46.9926 32.9046 46.9684 32.9784 46.9289C33.0523 46.8893 33.1173 46.8351 33.1697 46.7697C33.222 46.7043 33.2605 46.6289 33.2829 46.5482C33.3054 46.4675 33.3112 46.383 33.3 46.3C34.8066 46.6615 36.3507 46.8428 37.9 46.84C38.96 46.84 40.04 46.64 41.12 46.54C45.66 46.18 46.14 46.24 46.28 45.6C46.4554 44.6237 46.5158 43.6303 46.46 42.64C46.5806 41.1866 46.8011 39.7431 47.12 38.32C47.2721 37.1789 47.3655 36.0307 47.4 34.88C47.44 33.16 47.38 31.48 47.34 29.78ZM15.34 45.78L12 46V43.68V42C11.9645 41.3231 12.0526 40.6453 12.26 40C12.4 39.7 12.76 39.74 13.36 39.78L15.04 39.9H16.7C16.4662 40.7097 16.3121 41.5403 16.24 42.38C16.2295 42.969 16.2697 43.5579 16.36 44.14C16.36 44.68 16.54 45.2 16.66 45.72L15.34 45.78ZM21.14 45.56L18.24 45.66C18.24 45.16 18.36 44.66 18.38 44.14C18.4 43.62 18.38 43.42 18.38 43.06V42C18.28 41.28 18.12 40.62 18.04 40C18.94 40 19.88 39.86 20.8 39.82H22.68H23.38C23.4428 40.1916 23.5503 40.5542 23.7 40.9L24 45.68L21.14 45.56ZM40.38 44.42C39.32 44.42 38.28 44.58 37.24 44.66C35.9586 44.8091 34.6701 44.8892 33.38 44.9C33.3897 44.8069 33.3897 44.7131 33.38 44.62C33.3302 43.8341 33.3302 43.0459 33.38 42.26C33.52 40.26 33.82 38.4 33.9 36.54C33.9 34.18 34.08 31.82 34.1 29.44V23.92H34.24L42.24 24.18H43.68C43.9511 24.1729 44.2195 24.2349 44.46 24.36C44.802 24.8446 44.9774 25.4271 44.96 26.02C45.08 27.32 44.96 28.8 44.96 29.7C44.96 31.36 45.14 33.02 45.2 34.7V37.96C45.1 39.66 44.84 41.36 44.78 43.06V44.32C43.46 44.44 42 44.42 40.4 44.5L40.38 44.42Z" fill="black"/>
<path fill-rule="evenodd" clip-rule="evenodd" d="M42 28.58C41.52 28.46 41.08 28.32 40.58 28.22H39.94C39.7277 28.1894 39.5122 28.1894 39.3 28.22C38.7827 28.3642 38.2855 28.5724 37.82 28.84C37.6728 28.8692 37.5427 28.9542 37.457 29.0773C37.3712 29.2003 37.3364 29.3519 37.36 29.5C37.3673 29.5756 37.3899 29.649 37.4265 29.7156C37.463 29.7822 37.5128 29.8406 37.5726 29.8874C37.6325 29.9342 37.7013 29.9683 37.7747 29.9876C37.8482 30.007 37.9248 30.0112 38 30C38.5 30 38.9 30.24 39.4 30.32H40H40.6C41.12 30.22 41.56 30.06 42.04 29.92C42.124 29.9174 42.2068 29.8983 42.2834 29.8637C42.3601 29.8291 42.4292 29.7798 42.4868 29.7185C42.5443 29.6572 42.5893 29.5852 42.619 29.5065C42.6487 29.4278 42.6626 29.3441 42.66 29.26C42.6689 29.1702 42.6582 29.0795 42.6285 28.9943C42.5987 28.9091 42.5508 28.8314 42.4879 28.7667C42.4251 28.7019 42.3489 28.6517 42.2646 28.6194C42.1803 28.5872 42.09 28.5737 42 28.58Z" fill="black"/>
<path fill-rule="evenodd" clip-rule="evenodd" d="M41.22 35.5799C40.78 35.4599 40.38 35.3199 39.92 35.2199C39.7405 35.2003 39.5595 35.2003 39.38 35.2199C39.1939 35.1993 39.0061 35.1993 38.82 35.2199C38.3811 35.3535 37.9532 35.5207 37.54 35.7199C37.4647 35.7224 37.3906 35.7401 37.3223 35.7719C37.2539 35.8037 37.1927 35.849 37.1423 35.905C37.0919 35.961 37.0533 36.0267 37.0288 36.098C37.0044 36.1693 36.9946 36.2448 37 36.3199C37.0101 36.4667 37.0757 36.6042 37.1834 36.7044C37.2911 36.8047 37.4328 36.8603 37.58 36.8599C38.04 36.9999 38.4 37.1799 38.86 37.2799C39.0394 37.2998 39.2205 37.2998 39.4 37.2799C39.5795 37.2993 39.7605 37.2993 39.94 37.2799C40.3751 37.1837 40.8028 37.0567 41.22 36.8999C41.3897 36.8999 41.5525 36.8325 41.6725 36.7125C41.7926 36.5925 41.86 36.4297 41.86 36.2599C41.8655 36.1726 41.853 36.0851 41.8232 36.0027C41.7935 35.9204 41.7473 35.845 41.6873 35.7813C41.6273 35.7176 41.5549 35.6668 41.4745 35.6322C41.3941 35.5976 41.3075 35.5798 41.22 35.5799Z" fill="black"/>
<path fill-rule="evenodd" clip-rule="evenodd" d="M21.2 21.0799C19.72 21.1999 18.24 21.1999 16.76 21.3399C14.5 21.5399 12.3 21.8799 10.06 22.1799C9.98637 22.185 9.91449 22.2046 9.84847 22.2375C9.78245 22.2704 9.72359 22.3161 9.67527 22.3719C9.62694 22.4276 9.59012 22.4924 9.5669 22.5624C9.54368 22.6324 9.53453 22.7064 9.53998 22.7799C9.54228 22.8545 9.56 22.9278 9.59202 22.9952C9.62405 23.0625 9.66969 23.1225 9.72606 23.1714C9.78243 23.2202 9.84832 23.2569 9.91956 23.279C9.9908 23.3011 10.0658 23.3083 10.14 23.2999C12.38 23.2999 14.62 23.5199 16.88 23.4599C18.38 23.4599 19.88 23.2199 21.38 23.0399C22.88 22.8599 23.88 22.4999 25.14 22.3399C25.65 22.267 26.1648 22.2336 26.68 22.2399C26.7641 22.2482 26.849 22.2397 26.9298 22.215C27.0106 22.1902 27.0858 22.1497 27.1508 22.0958C27.2159 22.0419 27.2697 21.9756 27.309 21.9008C27.3483 21.826 27.3725 21.7441 27.38 21.6599C27.3914 21.4912 27.3376 21.3244 27.2297 21.1942C27.1218 21.0639 26.9679 20.9801 26.8 20.9599C26.2162 20.8873 25.6282 20.8539 25.04 20.8599C23.76 20.8599 22.46 21.0199 21.2 21.0799Z" fill="black"/>
<path fill-rule="evenodd" clip-rule="evenodd" d="M8.69999 31.44C9.71061 31.6765 10.7425 31.8105 11.78 31.84C13.294 31.8873 14.8095 31.8539 16.32 31.74C17.48 31.6 18.66 31.5 19.86 31.32C21.06 31.14 22.2 30.96 23.38 30.82C24.56 30.68 25.38 30.58 26.38 30.52C26.5497 30.52 26.7125 30.4526 26.8325 30.3325C26.9526 30.2125 27.02 30.0497 27.02 29.88C27.02 29.7103 26.9526 29.5475 26.8325 29.4274C26.7125 29.3074 26.5497 29.24 26.38 29.24H21.2C20.32 29.24 19.48 29.24 18.62 29.38C17.76 29.52 16.92 29.56 16.08 29.66C14.68 29.9 13.22 30.18 11.74 30.32C10.7955 30.4097 9.84453 30.4097 8.89999 30.32C8.82634 30.3056 8.75055 30.3062 8.67712 30.3217C8.6037 30.3372 8.53413 30.3673 8.47257 30.4102C8.411 30.4531 8.35869 30.508 8.31874 30.5715C8.27878 30.635 8.252 30.7059 8.23999 30.78C8.22131 30.9274 8.25801 31.0766 8.34299 31.1985C8.42798 31.3204 8.55519 31.4065 8.69999 31.44Z" fill="black"/>
</g>
<defs>
<clipPath id="clip0_1210_1982">
<rect width="48" height="48" fill="white"/>
</clipPath>
</defs>
</svg>
