<svg width="48" height="48" viewBox="0 0 48 48" fill="none" xmlns="http://www.w3.org/2000/svg">
<g clip-path="url(#clip0_1209_6805)">
<path d="M3.87499 1.95831H44.125C44.125 1.95831 46.0417 1.95831 46.0417 3.87498V44.125C46.0417 44.125 46.0417 46.0416 44.125 46.0416H3.87499C3.87499 46.0416 1.95833 46.0416 1.95833 44.125V3.87498C1.95833 3.87498 1.95833 1.95831 3.87499 1.95831Z" stroke="black" stroke-width="2" stroke-linecap="round" stroke-linejoin="round"/>
<path d="M38.375 37.4167C38.375 37.6708 38.274 37.9146 38.0943 38.0943C37.9146 38.274 37.6708 38.375 37.4167 38.375H29.75C29.4958 38.375 29.2521 38.274 29.0724 38.0943C28.8926 37.9146 28.7917 37.6708 28.7917 37.4167V28.7917H19.2083V37.4167C19.2083 37.6708 19.1074 37.9146 18.9276 38.0943C18.7479 38.274 18.5042 38.375 18.25 38.375H10.5833C10.3292 38.375 10.0854 38.274 9.90569 38.0943C9.72597 37.9146 9.625 37.6708 9.625 37.4167V10.5833C9.625 10.3292 9.72597 10.0854 9.90569 9.90569C10.0854 9.72597 10.3292 9.625 10.5833 9.625H18.25C18.5042 9.625 18.7479 9.72597 18.9276 9.90569C19.1074 10.0854 19.2083 10.3292 19.2083 10.5833V19.2083H28.7917V10.5833C28.7917 10.3292 28.8926 10.0854 29.0724 9.90569C29.2521 9.72597 29.4958 9.625 29.75 9.625H37.4167C37.6708 9.625 37.9146 9.72597 38.0943 9.90569C38.274 10.0854 38.375 10.3292 38.375 10.5833V37.4167Z" stroke="black" stroke-width="2" stroke-linecap="round" stroke-linejoin="round"/>
</g>
<defs>
<clipPath id="clip0_1209_6805">
<rect width="48" height="48" fill="white"/>
</clipPath>
</defs>
</svg>
