<svg width="48" height="48" viewBox="0 0 48 48" fill="none" xmlns="http://www.w3.org/2000/svg">
<g clip-path="url(#clip0_1209_6808)">
<path d="M3.875 46.0416V1.95831" stroke="black" stroke-width="2" stroke-linecap="round" stroke-linejoin="round"/>
<path d="M13.4583 3.875H42.2083C42.2083 3.875 44.125 3.875 44.125 5.79167V34.5417C44.125 34.5417 44.125 36.4583 42.2083 36.4583H13.4583C13.4583 36.4583 11.5417 36.4583 11.5417 34.5417V5.79167C11.5417 5.79167 11.5417 3.875 13.4583 3.875Z" stroke="black" stroke-width="2" stroke-linecap="round" stroke-linejoin="round"/>
<path d="M3.875 9.625H11.5417" stroke="black" stroke-width="2" stroke-linecap="round" stroke-linejoin="round"/>
<path d="M3.875 30.7083H11.5417" stroke="black" stroke-width="2" stroke-linecap="round" stroke-linejoin="round"/>
<path d="M38.375 16.3333C38.375 16.0792 38.274 15.8354 38.0943 15.6557C37.9146 15.476 37.6708 15.375 37.4167 15.375H32.625V10.5833C32.625 10.3292 32.524 10.0854 32.3443 9.90569C32.1646 9.72597 31.9208 9.625 31.6667 9.625H24C23.7458 9.625 23.5021 9.72597 23.3224 9.90569C23.1426 10.0854 23.0417 10.3292 23.0417 10.5833V15.375H18.25C17.9958 15.375 17.7521 15.476 17.5724 15.6557C17.3926 15.8354 17.2917 16.0792 17.2917 16.3333V24C17.2917 24.2542 17.3926 24.4979 17.5724 24.6776C17.7521 24.8574 17.9958 24.9583 18.25 24.9583H23.0417V29.75C23.0417 30.0042 23.1426 30.2479 23.3224 30.4276C23.5021 30.6074 23.7458 30.7083 24 30.7083H31.6667C31.9208 30.7083 32.1646 30.6074 32.3443 30.4276C32.524 30.2479 32.625 30.0042 32.625 29.75V24.9583H37.4167C37.6708 24.9583 37.9146 24.8574 38.0943 24.6776C38.274 24.4979 38.375 24.2542 38.375 24V16.3333Z" stroke="black" stroke-width="2" stroke-linecap="round" stroke-linejoin="round"/>
</g>
<defs>
<clipPath id="clip0_1209_6808">
<rect width="48" height="48" fill="white"/>
</clipPath>
</defs>
</svg>
