<svg width="48" height="48" viewBox="0 0 48 48" fill="none" xmlns="http://www.w3.org/2000/svg">
<g clip-path="url(#clip0_1210_1970)">
<path fill-rule="evenodd" clip-rule="evenodd" d="M46.44 18.14C46.06 12.88 45.24 7.62002 45.02 2.34002C44.9006 1.98869 44.7394 1.65296 44.54 1.34002C44.4168 1.22029 44.2518 1.15331 44.08 1.15331C43.9082 1.15331 43.7432 1.22029 43.62 1.34002C41.8536 3.04579 39.5781 4.12739 37.14 4.42002C36.1102 4.54013 35.0698 4.54013 34.04 4.42002C33.0034 4.36649 31.9731 4.22599 30.96 4.00002C25.32 2.38002 24 0.260019 24 0.200019C23.8768 0.0802872 23.7118 0.0133057 23.54 0.0133057C23.3682 0.0133057 23.2032 0.0802872 23.08 0.200019C21.0486 2.02342 18.6268 3.3575 16 4.10002C14.6954 4.44663 13.3498 4.61482 12 4.60002C10.6556 4.6003 9.31497 4.45952 8 4.18002C6.63383 3.95851 5.31921 3.49093 4.12 2.80002C3.36145 2.37507 2.75349 1.72518 2.38 0.940019C2.35743 0.868386 2.32069 0.802023 2.27195 0.74488C2.22322 0.687736 2.16348 0.64098 2.09631 0.607393C2.02913 0.573806 1.95589 0.554074 1.88093 0.549371C1.80598 0.544668 1.73084 0.555091 1.66 0.580019C0.939996 0.820019 1.66 4.22002 1.66 9.18002C1.8 14.46 1.66 19.76 1.66 25.02C1.60624 27.8242 1.84757 30.6263 2.38 33.38C2.84195 35.3279 3.78388 37.1292 5.12 38.62C6.52973 40.0999 8.17968 41.3306 10 42.26C10 42.26 23.04 48 23.08 48C24.3854 47.6218 25.6676 47.1677 26.92 46.64C28.7834 45.8529 30.6058 44.9717 32.38 44C34.88 42.68 37.7 41.36 40.14 39.74C41.8979 38.6397 43.4483 37.2382 44.72 35.6C45.6184 34.336 46.2013 32.8753 46.42 31.34C46.638 29.2475 46.7181 27.143 46.66 25.04C46.7 22.74 46.62 20.44 46.44 18.14ZM44.44 24.96C44.4896 26.9636 44.4028 28.9682 44.18 30.96C44.0305 32.1607 43.5912 33.307 42.9 34.3C41.8002 35.7751 40.4455 37.0416 38.9 38.04C36.56 39.7 33.86 41.1 31.46 42.5C29.8 43.48 28.04 44.4 26.24 45.28C23.9 46.42 23.68 46.32 22.92 45.96C19.72 44.38 16 43.24 12.5 41.54C10.2929 40.5175 8.31378 39.0621 6.68 37.26C5.61889 35.9896 4.88425 34.4791 4.54 32.86C4.06804 30.2538 3.84703 27.6084 3.88 24.96C3.62 20.44 3.5 16 3.32 11.42C3.2 8.82002 3.06 6.22002 2.88 3.64002L3.28 4.00002C4.57345 4.92094 6.02376 5.59866 7.56 6.00002C8.99959 6.45278 10.4923 6.71501 12 6.78002C13.5469 6.78283 15.0827 6.51897 16.54 6.00002C19.1607 5.06676 21.5342 3.54829 23.48 1.56002C25.4267 3.50885 27.7649 5.02221 30.34 6.00002C31.47 6.39964 32.646 6.655 33.84 6.76002C35.0491 6.87095 36.2678 6.81035 37.46 6.58002C39.9042 6.10029 42.1439 4.88624 43.88 3.10002C43.88 8.18002 44.38 13.26 44.56 18.34C44.62 20.48 44.64 22.72 44.5 24.96H44.44Z" fill="black"/>
<path fill-rule="evenodd" clip-rule="evenodd" d="M36.1 24C36.1334 23.1165 36.0322 22.2331 35.8 21.38C35.6225 20.863 35.2866 20.4152 34.84 20.1C34.6231 19.9557 34.3774 19.8601 34.12 19.82H33.22C32.614 19.7801 32.006 19.7801 31.4 19.82C30.62 19.82 29.84 20 29.08 20.1V18.8V16.16C29.1182 15.7008 29.1182 15.2392 29.08 14.78C29.0003 14.4836 28.8645 14.2053 28.68 13.96C28.2639 13.4875 27.686 13.1878 27.06 13.12C26.1685 13.0385 25.2715 13.0385 24.38 13.12H22.78H21.56C21.1877 13.1211 20.8193 13.1958 20.476 13.34C20.1327 13.4842 19.8214 13.6949 19.56 13.96C19.2107 14.5647 19.0701 15.2675 19.16 15.96V19.5C19.1509 19.5798 19.1509 19.6603 19.16 19.74H18.78C17.8639 19.5559 16.934 19.4489 16 19.42C15.4051 19.4315 14.8299 19.635 14.36 20C13.9486 20.3707 13.6621 20.8598 13.54 21.4C13.4219 22.2894 13.4219 23.1906 13.54 24.08C13.5568 24.6753 13.6035 25.2694 13.68 25.86C13.68 26.42 13.9 26.98 14.02 27.56C14.0712 27.8996 14.1515 28.2342 14.26 28.56C14.3908 28.8687 14.6239 29.1229 14.92 29.28C15.2894 29.4377 15.6805 29.5388 16.08 29.58C16.5659 29.6195 17.0541 29.6195 17.54 29.58C17.8129 29.6006 18.087 29.6006 18.36 29.58C18.74 29.58 19.12 29.42 19.5 29.32C19.6691 29.2817 19.8163 29.1784 19.9099 29.0325C20.0034 28.8865 20.0358 28.7096 20 28.54C19.9888 28.4492 19.9583 28.3619 19.9105 28.2839C19.8626 28.206 19.7987 28.1391 19.7229 28.088C19.6471 28.0368 19.5612 28.0025 19.471 27.9873C19.3808 27.9721 19.2884 27.9765 19.2 28L18.36 28.1C18.1075 28.13 17.8524 28.13 17.6 28.1C17.1783 28.0933 16.7575 28.0599 16.34 28C15.56 27.8 16.02 27.84 15.94 27.32L15.7 24V22.34C15.7 21.76 15.7 21.62 15.86 21.38C16.095 21.1964 16.3819 21.0914 16.68 21.08C17.52 20.98 18.46 21.08 18.92 20.98H20C20.1511 21.0031 20.3051 20.9656 20.4287 20.8757C20.5523 20.7859 20.6354 20.6508 20.66 20.5C20.66 20.18 20.5 18.32 20.66 17.6L20.86 16C21 15.12 20.6 15.18 21.76 15.18H22.76H24.44H27.18L27.38 16.24C27.5 17.08 27.62 17.94 27.68 18.78C27.74 19.62 27.68 19.9 27.68 20.44C27.6746 20.5267 27.6863 20.6136 27.7146 20.6958C27.7428 20.778 27.787 20.8537 27.8446 20.9188C27.9022 20.9838 27.9721 21.0368 28.0503 21.0748C28.1284 21.1128 28.2133 21.1349 28.3 21.14C31.26 21.36 30.1 21.14 31.36 21.32C31.8793 21.3664 32.3942 21.4533 32.9 21.58C33.46 21.7 33.7 21.26 33.82 22.52V24.06V25.68C33.82 26 33.92 26.32 33.98 26.62C34.04 26.92 33.98 26.82 34.08 26.9C34.18 26.98 33.98 26.9 33.9 27.02L33.02 27.28L32.04 27.48L30.36 27.6C30.2759 27.5918 30.191 27.6002 30.1101 27.625C30.0293 27.6497 29.9542 27.6902 29.8891 27.7441C29.824 27.7981 29.7703 27.8643 29.731 27.9392C29.6916 28.014 29.6675 28.0958 29.66 28.18C29.6488 28.2646 29.6553 28.3506 29.6789 28.4326C29.7025 28.5146 29.7428 28.5909 29.7973 28.6566C29.8517 28.7223 29.9191 28.776 29.9953 28.8145C30.0715 28.8529 30.1548 28.8752 30.24 28.88L32.24 29H33.36L34.46 28.82C34.8306 28.768 35.1766 28.6043 35.4518 28.3506C35.7269 28.0968 35.9182 27.7652 36 27.4C36.1013 26.7372 36.1013 26.0628 36 25.4L36.1 24Z" fill="black"/>
<path fill-rule="evenodd" clip-rule="evenodd" d="M29.84 28.96C29.8304 28.7881 29.7578 28.6257 29.6361 28.5039C29.5143 28.3822 29.3519 28.3096 29.18 28.3C29.0085 28.3052 28.8457 28.377 28.7262 28.5002C28.6067 28.6234 28.5399 28.7884 28.54 28.96V30.96C28.5693 31.5396 28.5693 32.1204 28.54 32.7C28.42 33.6 28.32 33.16 27.88 33.2L24.66 33.32C24.2 33.32 23.52 33.44 22.84 33.46C22.6205 33.4799 22.3996 33.4799 22.18 33.46C21.68 33.46 22 33.2 21.9 32.32L21.32 28.32C21.32 28.1662 21.2589 28.0186 21.1501 27.9099C21.0414 27.8011 20.8938 27.74 20.74 27.74C20.5862 27.74 20.4387 27.8011 20.3299 27.9099C20.2211 28.0186 20.16 28.1662 20.16 28.32V32.32C20.0912 32.7233 20.0511 33.131 20.04 33.54C20.0357 33.8992 20.148 34.2501 20.36 34.54C20.542 34.7887 20.7721 34.9983 21.0366 35.1563C21.3012 35.3144 21.5948 35.4176 21.9 35.46C22.8111 35.5504 23.7289 35.5504 24.64 35.46C25.22 35.46 25.8 35.46 26.38 35.36L28.06 35.14C28.3975 35.1057 28.7318 35.0455 29.06 34.96C29.3735 34.8618 29.6426 34.6565 29.82 34.38C30.0448 33.9947 30.1814 33.5644 30.22 33.12C30.2147 32.3881 30.141 31.6582 30 30.94L29.84 28.96Z" fill="black"/>
</g>
<defs>
<clipPath id="clip0_1210_1970">
<rect width="48" height="48" fill="white"/>
</clipPath>
</defs>
</svg>
