<svg width="48" height="48" viewBox="0 0 48 48" fill="none" xmlns="http://www.w3.org/2000/svg">
<path fill-rule="evenodd" clip-rule="evenodd" d="M35.64 26C35.6097 25.5684 35.5153 25.1437 35.36 24.74C35.2382 24.3725 35.0248 24.0421 34.74 23.78C34.4896 23.5482 34.1766 23.3952 33.84 23.34C33.3946 23.292 32.9454 23.292 32.5 23.34L29.16 23.58V22.06L29.26 20.06C29.2811 19.568 29.1479 19.0818 28.8789 18.6694C28.6099 18.2569 28.2187 17.9389 27.76 17.76C26.2012 17.3157 24.5708 17.1798 22.96 17.36C22.0094 17.3469 21.0594 17.4138 20.12 17.56C19.5461 17.6602 19.0161 17.9322 18.6 18.34C18.4356 18.5192 18.3247 18.7409 18.28 18.98C18.2487 19.3994 18.2487 19.8205 18.28 20.24L18.44 23.6H18.34H16.64C16.1004 23.6299 15.5596 23.6299 15.02 23.6C14.5509 23.5107 14.0691 23.5107 13.6 23.6C13.2585 23.7069 12.9628 23.9252 12.76 24.22C12.534 24.5423 12.3837 24.9115 12.32 25.3C12.2203 25.9617 12.1802 26.6311 12.2 27.3V29.56C12.2409 30.5899 12.3748 31.6141 12.6 32.62C12.7103 33.0674 12.9717 33.463 13.34 33.74C13.8603 34.0504 14.4541 34.2161 15.06 34.22C16.0281 34.0203 17.0119 33.9065 18 33.88C18.1045 33.91 18.2154 33.91 18.32 33.88V34.9C18.2093 35.6085 18.1425 36.3232 18.12 37.04C18.1279 37.4905 18.2519 37.9314 18.48 38.32C18.6718 38.5923 18.9347 38.8067 19.24 38.94C19.6591 39.111 20.0947 39.2383 20.54 39.32L21.68 39.48H23.24C23.8329 39.51 24.427 39.51 25.02 39.48C25.6315 39.4548 26.2401 39.3813 26.84 39.26C27.1799 39.2208 27.515 39.1471 27.84 39.04C28.0872 38.9388 28.3116 38.7892 28.5 38.6C28.9733 38.0279 29.278 37.3354 29.38 36.6C29.5089 35.2297 29.5089 33.8503 29.38 32.48C29.3827 32.3959 29.3687 32.3121 29.339 32.2335C29.3093 32.1548 29.2644 32.0828 29.2068 32.0215C29.1492 31.9602 29.0801 31.9108 29.0034 31.8763C28.9268 31.8417 28.844 31.8225 28.76 31.82C28.6769 31.8173 28.5941 31.8313 28.5166 31.8613C28.439 31.8912 28.3683 31.9365 28.3086 31.9943C28.2489 32.0522 28.2014 32.1214 28.169 32.198C28.1366 32.2745 28.1199 32.3568 28.12 32.44C28.12 33.38 28.12 34.62 27.82 35.74C27.52 36.86 27.2 37.18 26.5 37.26C25.8 37.34 25.66 37.26 25.24 37.26H23.24H21.72H20.78C19.6 37.16 19.76 36.96 19.7 36.58C19.64 36.2 19.7 35.24 19.7 34.86C19.7 34.48 19.7 33.94 19.6 33.46C19.6 32.14 19.28 32.58 15.14 32.46C13.88 32.46 14.32 31.52 14.32 30.64C14.3433 30.1936 14.3433 29.7463 14.32 29.3V27.3V25.8C14.32 24.86 14.32 25.2 15.04 25.18C15.76 25.16 16 25.18 16.48 25.02C16.96 24.86 17.86 24.8 18.48 24.66C18.7911 24.6298 19.0794 24.4832 19.287 24.2496C19.4947 24.0159 19.6065 23.7125 19.6 23.4L19.88 20.18C19.88 20.02 20.14 19.54 20.04 19.36C20.2856 19.3284 20.5343 19.3284 20.78 19.36H23.02C24.1969 19.2396 25.3831 19.2396 26.56 19.36C27.04 19.36 27.46 19.56 27.52 20.06L27.62 22.06C27.62 22.58 27.76 23.06 27.8 23.56C27.8199 23.8463 27.8199 24.1336 27.8 24.42C27.8 25.36 28.52 24.7 32.46 24.98C33.62 25.1 33.3 24.58 33.6 26.22L33.72 30.74V32.34C33.4907 32.4006 33.2564 32.4408 33.02 32.46H30.7C30.6169 32.4546 30.5336 32.4659 30.455 32.4934C30.3765 32.5209 30.3042 32.5639 30.2426 32.6199C30.1811 32.6759 30.1314 32.7437 30.0966 32.8193C30.0617 32.8949 30.0425 32.9768 30.04 33.06C30.0345 33.2264 30.094 33.3885 30.2061 33.5117C30.3181 33.6349 30.4738 33.7096 30.64 33.72C31.619 33.8812 32.6081 33.9748 33.6 34C34.1016 33.9648 34.5944 33.85 35.06 33.66C35.74 33.36 35.54 32.76 35.68 30.7V27.96C35.7071 27.3064 35.6937 26.6518 35.64 26Z" fill="black"/>
<path fill-rule="evenodd" clip-rule="evenodd" d="M47.88 14.12C47.8274 13.5335 47.6459 12.966 47.3486 12.4577C47.0513 11.9495 46.6454 11.5132 46.16 11.18C45.1273 10.5566 43.9763 10.1547 42.78 9.99997H31.08C31.08 9.75997 31.08 9.51997 31.18 9.25997V7.25997V4.99997C31.1581 4.39824 30.9556 3.81703 30.5989 3.33193C30.2422 2.84682 29.7478 2.48028 29.18 2.27997C28.4254 1.95592 27.6199 1.76639 26.8 1.71997C25.56 1.71997 24.26 1.81997 23.24 1.83997C22.1578 1.8301 21.076 1.88353 20 1.99997C19.144 2.0966 18.3258 2.406 17.62 2.89997C17.3909 3.0733 17.2171 3.30958 17.12 3.57997C17.0455 4.02959 17.0054 4.48425 17 4.93997C16.9068 5.78991 16.8734 6.64535 16.9 7.49997C16.8978 8.33532 16.9446 9.17008 17.04 9.99997C17.0429 10.1015 17.0779 10.1996 17.14 10.28C17.14 10.28 17.54 10.28 9.38 10.78C7.16 10.92 5.06 10.14 2.4 12.14C1.18 13.06 0.32 15.08 0 22.94C0 27.18 0.1 31.46 0.32 35.6C0.31229 37.5824 0.554192 39.558 1.04 41.48C1.48277 42.937 2.44307 44.1818 3.74 44.98C4.72358 45.5235 5.80375 45.87 6.92 46C8.42791 46.1597 9.94371 46.2331 11.46 46.22H17.7C20.82 46.22 23.94 46.1 27.04 46.02C30.84 45.9 34.94 46.18 38.86 45.92C40.5878 45.8587 42.3072 45.6513 44 45.3C44.1638 45.2618 44.3061 45.1607 44.3959 45.0184C44.4857 44.8762 44.5159 44.7043 44.48 44.54C44.466 44.4583 44.4352 44.3804 44.3897 44.3112C44.3441 44.242 44.2847 44.183 44.2151 44.1379C44.1456 44.0928 44.0675 44.0626 43.9857 44.0492C43.9039 44.0358 43.8203 44.0394 43.74 44.06C42.1169 44.3669 40.4714 44.5408 38.82 44.58C34.82 44.7 30.82 44.3 27.04 44.3L11.54 44.12C10.0989 44.1675 8.65624 44.1274 7.22 44C6.3807 43.9058 5.56657 43.6548 4.82 43.26C3.94894 42.7228 3.30769 41.8821 3.02 40.9C2.52628 39.162 2.26401 37.3665 2.24 35.56C1.86 31.56 1.48 27.26 1.46 23.06C1.46 22.32 1.22 13.84 3.84 12.86C5.67042 12.4083 7.557 12.2263 9.44 12.32L12 12.14C15.06 12 18.16 12 21.26 12H35.26C37.02 12 39.36 11.76 41.54 12C42.7852 12.0384 44.0043 12.3671 45.1 12.96C45.4108 13.2487 45.6529 13.6033 45.8086 13.9979C45.9644 14.3924 46.0298 14.8168 46 15.24C46.0007 16.9523 45.8871 18.6628 45.66 20.36C45.36 24.8 45.54 29.24 45.44 33.68C45.44 34.78 45.44 35.88 45.28 36.96V41.66C45.2515 42.288 45.1576 42.9114 45 43.52C44.9725 43.5986 44.9617 43.6822 44.9682 43.7653C44.9748 43.8484 44.9986 43.9292 45.0381 44.0026C45.0776 44.0759 45.1319 44.1403 45.1977 44.1915C45.2635 44.2427 45.3392 44.2796 45.42 44.3C45.4988 44.3245 45.5817 44.3331 45.6638 44.3251C45.7459 44.3172 45.8256 44.293 45.8983 44.2539C45.9709 44.2148 46.035 44.1616 46.0868 44.0974C46.1386 44.0331 46.1771 43.9592 46.2 43.88C46.408 43.1963 46.5421 42.4922 46.6 41.78C46.74 40.2 46.6 38.52 46.8 37.08C46.92 35.98 46.98 34.86 47.06 33.74C47.28 29.32 47.22 24.9 47.62 20.5C47.979 18.3932 48.0664 16.249 47.88 14.12ZM29.8 9.99997H23.56C21.48 9.99997 20 10.16 18 10.26C18.0383 10.1567 18.0383 10.0432 18 9.93997C17.9598 9.14048 17.9598 8.33946 18 7.53997C18.0461 6.76486 18.1598 5.99526 18.34 5.23997C18.6 4.13997 18.7 4.13997 20 3.99997C21.3 3.85997 22.18 3.99997 23.08 3.99997C24.6793 3.80866 26.2931 3.76848 27.9 3.87997C28.68 3.99997 29.36 4.25997 29.46 5.11997L29.56 7.11997V9.11997V9.89997L29.8 9.99997Z" fill="black"/>
<path fill-rule="evenodd" clip-rule="evenodd" d="M34.8 9.13996C34.94 8.19996 34.8 8.23996 35.7 7.91996C36.0907 7.80283 36.4931 7.72905 36.9 7.69996C37.6499 7.59816 38.4101 7.59816 39.16 7.69996C39.62 7.69996 40 7.23996 40.42 8.45996C40.5186 8.76146 40.5988 9.0687 40.66 9.37996C40.66 9.89996 41.94 9.81996 41.9 9.07996C41.8997 8.65712 41.8595 8.23525 41.78 7.81996C41.6926 7.41967 41.5442 7.03518 41.34 6.67996C41.1611 6.42573 40.9104 6.23073 40.62 6.11996C40.2802 5.99765 39.9328 5.89744 39.58 5.81996C38.4474 5.5065 37.261 5.43832 36.1 5.61996C35.2149 5.76461 34.4008 6.19275 33.78 6.83996C33.4709 7.27827 33.3098 7.80375 33.32 8.33996C33.3007 8.67301 33.3007 9.00691 33.32 9.33996C33.32 9.89996 34.62 9.95996 34.72 9.33996C34.7553 9.2771 34.7822 9.20985 34.8 9.13996Z" fill="black"/>
<path fill-rule="evenodd" clip-rule="evenodd" d="M6.00001 9.69997C6.01146 9.25493 6.09941 8.81517 6.26001 8.39997C6.26001 8.39997 6.44001 8.27997 6.58001 8.21997C6.96786 8.09126 7.37174 8.01722 7.78001 7.99997L9.32001 7.83997L11.52 7.47997C11.8092 7.6664 12.022 7.95019 12.12 8.27997C12.24 8.69997 12.32 9.13997 12.4 9.55997C12.4 10.42 13.9 10.28 13.82 9.55997C13.8287 8.88682 13.7548 8.21514 13.6 7.55997C13.4519 6.94217 13.0996 6.39248 12.6 5.99997C12.1839 5.72956 11.6962 5.59022 11.2 5.59997C10.4893 5.61272 9.78058 5.67958 9.08001 5.79997L7.38001 5.99997C6.50684 6.1421 5.70899 6.57986 5.12001 7.23997C4.69438 7.98507 4.55905 8.86116 4.74001 9.69997V10.26C4.74001 10.78 5.96001 10.74 5.96001 10.26L6.00001 9.69997Z" fill="black"/>
</svg>
