<svg width="48" height="48" viewBox="0 0 48 48" fill="none" xmlns="http://www.w3.org/2000/svg">
<g clip-path="url(#clip0_1209_6860)">
<path d="M35.0016 8.99941C35.0016 8.46895 34.7909 7.96022 34.4158 7.58513C34.0407 7.21004 33.532 6.99931 33.0016 6.99931H29.0014V2.99912C29.0014 2.46866 28.7906 1.95993 28.4155 1.58484C28.0405 1.20975 27.5317 0.999023 27.0013 0.999023H25.0012C24.4707 0.999023 23.962 1.20975 23.5869 1.58484C23.2118 1.95993 23.0011 2.46866 23.0011 2.99912V6.99931H19.0009C18.4704 6.99931 17.9617 7.21004 17.5866 7.58513C17.2115 7.96022 17.0008 8.46895 17.0008 8.99941V10.9995C17.0008 11.53 17.2115 12.0387 17.5866 12.4138C17.9617 12.7889 18.4704 12.9996 19.0009 12.9996H23.0011V16.9998C23.0011 17.5303 23.2118 18.039 23.5869 18.4141C23.962 18.7892 24.4707 18.9999 25.0012 18.9999H27.0013C27.5317 18.9999 28.0405 18.7892 28.4155 18.4141C28.7906 18.039 29.0014 17.5303 29.0014 16.9998V12.9996H33.0016C33.532 12.9996 34.0407 12.7889 34.4158 12.4138C34.7909 12.0387 35.0016 11.53 35.0016 10.9995V8.99941Z" stroke="black" stroke-width="2.0001" stroke-linecap="round" stroke-linejoin="round"/>
<path d="M5.00025 32.0013C5.00025 33.3274 5.52706 34.5993 6.46479 35.537C7.40252 36.4747 8.67435 37.0015 10.0005 37.0015C11.3266 37.0015 12.5985 36.4747 13.5362 35.537C14.4739 34.5993 15.0007 33.3274 15.0007 32.0013C15.0007 30.6751 14.4739 29.4033 13.5362 28.4656C12.5985 27.5278 11.3266 27.001 10.0005 27.001C8.67435 27.001 7.40252 27.5278 6.46479 28.4656C5.52706 29.4033 5.00025 30.6751 5.00025 32.0013Z" stroke="black" stroke-width="2.0001" stroke-linecap="round" stroke-linejoin="round"/>
<path d="M0.999992 27.001V47.002" stroke="black" stroke-width="2.0001" stroke-linecap="round" stroke-linejoin="round"/>
<path d="M47.0022 32.0006V47.0013" stroke="black" stroke-width="2.0001" stroke-linecap="round" stroke-linejoin="round"/>
<path d="M0.999992 37.0011H47.0022V43.0014H0.999992V37.0011Z" stroke="black" stroke-width="2.0001" stroke-linecap="round" stroke-linejoin="round"/>
<path d="M19.0009 37.0015H43.0021V31.0012C43.0021 29.9403 42.5806 28.9228 41.8304 28.1727C41.0803 27.4225 40.0628 27.001 39.0019 27.001H20.0009C19.7357 27.001 19.4814 27.1064 19.2938 27.2939C19.1063 27.4815 19.0009 27.7359 19.0009 28.0011V37.0015Z" stroke="black" stroke-width="2.0001" stroke-linecap="round" stroke-linejoin="round"/>
</g>
<defs>
<clipPath id="clip0_1209_6860">
<rect width="48.0023" height="48.0023" fill="white"/>
</clipPath>
</defs>
</svg>
