<svg width="48" height="48" viewBox="0 0 48 48" fill="none" xmlns="http://www.w3.org/2000/svg">
<g clip-path="url(#clip0_1209_6792)">
<path d="M19.7534 7.24609H13.3568L13.3568 12.6788H7.92423V19.0754H13.3568V24.508H19.7534V19.0754H25.186V12.6788H19.7534V7.24609Z" stroke="black" stroke-width="2.0001" stroke-linecap="round" stroke-linejoin="round"/>
<path d="M21.1664 40.8848H4.71021C3.91453 40.8848 3.15141 40.5688 2.58879 40.0062C2.02616 39.4435 1.71006 38.6803 1.71006 37.8847V4.88309C1.71006 4.08739 2.02616 3.32429 2.58879 2.76166C3.15141 2.19902 3.91453 1.88293 4.71021 1.88293H25.9693C26.7643 1.8831 27.527 2.19892 28.0894 2.76098L33.8337 8.50526C34.3957 9.06767 34.7115 9.83023 34.7117 10.6254V19.6955" stroke="black" stroke-width="2.0001" stroke-linecap="round" stroke-linejoin="round"/>
<path d="M46.0618 33.169C46.0676 36.2074 45.0364 39.1565 43.1383 41.5292C41.2402 43.9018 38.5893 45.5552 35.6237 46.2165C32.6584 45.5552 30.0075 43.9018 28.1094 41.5292C26.2113 39.1565 25.18 36.2074 25.1858 33.169V27.95C25.1858 27.2579 25.4608 26.5941 25.9501 26.1049C26.4395 25.6155 27.1033 25.3405 27.7953 25.3405H43.4523C44.1443 25.3405 44.8082 25.6155 45.2976 26.1049C45.7868 26.5941 46.0618 27.2579 46.0618 27.95V33.169Z" stroke="black" stroke-width="2.0001" stroke-linecap="round" stroke-linejoin="round"/>
<path d="M41.0108 30.6044L35.2435 38.2848L31.4033 35.4083" stroke="black" stroke-width="2.0001" stroke-linecap="round" stroke-linejoin="round"/>
</g>
<defs>
<clipPath id="clip0_1209_6792">
<rect width="48.0023" height="48.0023" fill="white"/>
</clipPath>
</defs>
</svg>
