<svg width="48" height="48" viewBox="0 0 48 48" fill="none" xmlns="http://www.w3.org/2000/svg">
<g clip-path="url(#clip0_1209_6784)">
<path d="M35.5 10.5833C35.5 10.3291 35.399 10.0854 35.2193 9.90567C35.0396 9.72595 34.7958 9.62498 34.5417 9.62498H27.8333V2.91665C27.8333 2.66248 27.7324 2.41872 27.5526 2.239C27.3729 2.05928 27.1292 1.95831 26.875 1.95831H21.125C20.8708 1.95831 20.6271 2.05928 20.4474 2.239C20.2676 2.41872 20.1667 2.66248 20.1667 2.91665V9.62498H13.4583C13.2042 9.62498 12.9604 9.72595 12.7807 9.90567C12.601 10.0854 12.5 10.3291 12.5 10.5833V16.3333C12.5 16.5875 12.601 16.8312 12.7807 17.011C12.9604 17.1907 13.2042 17.2916 13.4583 17.2916H20.1667V24C20.1667 24.2541 20.2676 24.4979 20.4474 24.6776C20.6271 24.8573 20.8708 24.9583 21.125 24.9583H26.875C27.1292 24.9583 27.3729 24.8573 27.5526 24.6776C27.7324 24.4979 27.8333 24.2541 27.8333 24V17.2916H34.5417C34.7958 17.2916 35.0396 17.1907 35.2193 17.011C35.399 16.8312 35.5 16.5875 35.5 16.3333V10.5833Z" stroke="black" stroke-width="2" stroke-linecap="round" stroke-linejoin="round"/>
<path d="M7.70833 46.0416L3.85583 41.25C2.62326 39.7248 1.94721 37.8251 1.93916 35.8641V25.9166C1.93915 25.5375 2.01415 25.162 2.15983 24.812C2.30551 24.4619 2.51899 24.1441 2.788 23.8769C3.057 23.6097 3.3762 23.3983 3.72723 23.255C4.07825 23.1116 4.45417 23.0391 4.83333 23.0416C5.21088 23.0416 5.58473 23.116 5.93354 23.2605C6.28236 23.405 6.59929 23.6167 6.86626 23.8837C7.13323 24.1507 7.345 24.4676 7.48948 24.8164C7.63397 25.1652 7.70833 25.5391 7.70833 25.9166V33.3341" stroke="black" stroke-width="2" stroke-linecap="round" stroke-linejoin="round"/>
<path d="M16.3333 45.7733V40.0233C16.3367 38.3225 15.8293 36.6598 14.8767 35.2508L12.6917 31.9541C12.5023 31.6393 12.2508 31.3664 11.9525 31.1521C11.6541 30.9378 11.3152 30.7866 10.9564 30.7076C10.5977 30.6287 10.2266 30.6238 9.86586 30.6931C9.50512 30.7624 9.16229 30.9045 8.85833 31.1108C8.31644 31.4751 7.926 32.0245 7.76017 32.6561C7.59434 33.2877 7.6645 33.9581 7.95749 34.5416L10.5833 38.8541" stroke="black" stroke-width="2" stroke-linecap="round" stroke-linejoin="round"/>
<path d="M40.2917 46.0416L44.125 41.2116C45.3576 39.6864 46.0336 37.7868 46.0417 35.8258V25.9166C46.0417 25.1541 45.7388 24.4229 45.1996 23.8837C44.6604 23.3445 43.9292 23.0416 43.1667 23.0416C42.4042 23.0416 41.6729 23.3445 41.1337 23.8837C40.5946 24.4229 40.2917 25.1541 40.2917 25.9166V33.3533" stroke="black" stroke-width="2" stroke-linecap="round" stroke-linejoin="round"/>
<path d="M31.6667 45.7733V40.0233C31.6633 38.3225 32.1707 36.6598 33.1233 35.2508L35.3083 31.9541C35.4977 31.6393 35.7492 31.3664 36.0475 31.1521C36.3459 30.9378 36.6848 30.7866 37.0435 30.7076C37.4023 30.6287 37.7734 30.6238 38.1341 30.6931C38.4949 30.7624 38.8377 30.9045 39.1417 31.1108C39.6835 31.4751 40.074 32.0245 40.2398 32.6561C40.4056 33.2877 40.3355 33.9581 40.0425 34.5416L37.4167 38.8541" stroke="black" stroke-width="2" stroke-linecap="round" stroke-linejoin="round"/>
</g>
<defs>
<clipPath id="clip0_1209_6784">
<rect width="48" height="48" fill="white"/>
</clipPath>
</defs>
</svg>
