<svg width="48" height="48" viewBox="0 0 48 48" fill="none" xmlns="http://www.w3.org/2000/svg">
<g clip-path="url(#clip0_1210_1950)">
<path fill-rule="evenodd" clip-rule="evenodd" d="M46.88 31.82C46.6674 31.5932 46.4049 31.4191 46.1133 31.3114C45.8217 31.2038 45.509 31.1657 45.2 31.2C44.8619 31.2445 44.5432 31.3831 44.28 31.6C44.0189 31.9228 43.7911 32.2713 43.6 32.64C43.4153 32.9167 43.208 33.1776 42.98 33.42C42.7545 33.6428 42.5139 33.85 42.26 34.04C40.14 35.58 37.24 35.92 35.6 37.68C34.744 38.6065 34.2352 39.8008 34.16 41.06C34.1368 41.2345 34.1822 41.4112 34.2867 41.553C34.3911 41.6947 34.5465 41.7904 34.72 41.82C34.8083 41.834 34.8985 41.83 34.9852 41.8082C35.0719 41.7863 35.1533 41.7471 35.2243 41.6929C35.2954 41.6386 35.3547 41.5705 35.3987 41.4927C35.4426 41.4148 35.4703 41.3288 35.48 41.24C35.5682 40.6458 35.7952 40.0808 36.1427 39.5908C36.4903 39.1008 36.9484 38.6997 37.48 38.42C38.3911 37.9979 39.3426 37.6696 40.32 37.44C41.4585 37.1499 42.5544 36.7129 43.58 36.14C44.0067 35.8786 44.4025 35.57 44.76 35.22C45.0147 34.9584 45.2487 34.6776 45.46 34.38C45.5346 35.0223 45.4308 35.6728 45.16 36.26C44.8867 36.9779 44.5093 37.6518 44.04 38.26C44.04 38.26 39.9 42.6 37.64 43.34C37.36 43.44 37.06 43.5 36.78 43.58L35.42 43.94C34.12 44.26 32.82 44.56 31.66 44.76C31.4585 44.76 31.2652 44.84 31.1226 44.9826C30.9801 45.1251 30.9 45.3184 30.9 45.52C30.9 45.7215 30.9801 45.9148 31.1226 46.0574C31.2652 46.1999 31.4585 46.28 31.66 46.28C32.8396 46.4402 34.0299 46.5071 35.22 46.48C36.0638 46.4337 36.8945 46.2514 37.68 45.94C38.9847 45.0957 40.1921 44.1097 41.28 43L42 42.32C43.2285 41.487 44.4041 40.5786 45.52 39.6C46.3544 38.768 47.0319 37.7924 47.52 36.72C47.8669 35.8984 48.0307 35.0112 48 34.12C47.8582 33.2607 47.469 32.4615 46.88 31.82Z" fill="black"/>
<path fill-rule="evenodd" clip-rule="evenodd" d="M16.32 44.7C15.16 44.5 13.86 44.2 12.56 43.88L11.2 43.52C10.9 43.52 10.62 43.38 10.34 43.28C9.05066 42.8571 7.89761 42.0976 7.00001 41.08C5.94854 40.1751 4.94706 39.2137 4.00001 38.2C3.53071 37.5918 3.15335 36.9179 2.88001 36.2C2.60923 35.6128 2.50543 34.9623 2.58001 34.32C2.79134 34.6176 3.02538 34.8985 3.28001 35.16C3.63754 35.51 4.03337 35.8186 4.46001 36.08C5.48568 36.6529 6.58155 37.0899 7.72001 37.38C8.69743 37.6096 9.64899 37.938 10.56 38.36C11.0916 38.6397 11.5498 39.0408 11.8973 39.5308C12.2448 40.0208 12.4719 40.5858 12.56 41.18C12.5697 41.2689 12.5974 41.3548 12.6414 41.4327C12.6853 41.5105 12.7446 41.5787 12.8157 41.6329C12.8868 41.6871 12.9681 41.7264 13.0548 41.7482C13.1415 41.7701 13.2317 41.7741 13.32 41.76C13.4936 41.7305 13.6489 41.6348 13.7534 41.493C13.8578 41.3513 13.9032 41.1745 13.88 41C13.8049 39.7408 13.296 38.5465 12.44 37.62C10.76 36 7.86001 35.58 5.74001 34C5.48613 33.81 5.24557 33.6029 5.02001 33.38C4.79208 33.1376 4.5847 32.8767 4.40001 32.6C4.20898 32.2313 3.98116 31.8829 3.72001 31.56C3.45688 31.3431 3.1381 31.2045 2.80001 31.16C2.49107 31.1257 2.17837 31.1638 1.88675 31.2715C1.59512 31.3791 1.3326 31.5532 1.12001 31.78C0.524072 32.4325 0.134398 33.2466 1.41852e-05 34.12C-0.0220424 34.9911 0.141583 35.857 0.480014 36.66C0.968124 37.7324 1.64563 38.708 2.48001 39.54C3.59593 40.5186 4.77152 41.427 6.00001 42.26C9.16001 44.84 8.52001 45.08 10.34 45.88C11.1186 46.1913 11.9428 46.3737 12.78 46.42C13.9701 46.4483 15.1606 46.3814 16.34 46.22C16.5416 46.22 16.7349 46.1399 16.8774 45.9974C17.0199 45.8549 17.1 45.6616 17.1 45.46C17.1 45.2584 17.0199 45.0651 16.8774 44.9226C16.7349 44.7801 16.5416 44.7 16.34 44.7H16.32Z" fill="black"/>
<path fill-rule="evenodd" clip-rule="evenodd" d="M11.48 18C11.6346 18.3829 11.866 18.7301 12.16 19.02C12.3666 19.2018 12.6134 19.3321 12.88 19.4C13.2396 19.4262 13.6005 19.4262 13.96 19.4L17.2 19.32L19.2 19.04L18.74 23.26C18.6743 23.7375 18.6342 24.2182 18.62 24.7C18.6329 24.9797 18.708 25.253 18.84 25.5C18.9402 25.6507 19.0694 25.7799 19.22 25.88C19.5014 26.0568 19.8038 26.1979 20.12 26.3C20.5289 26.4464 20.9508 26.5536 21.38 26.62L22.98 26.82L25.14 26.92L26.66 26.76C27.1298 26.6799 27.587 26.5387 28.02 26.34C28.3989 26.1778 28.7446 25.9473 29.04 25.66C29.229 25.4506 29.3599 25.1955 29.42 24.92C29.4462 24.5672 29.4462 24.2128 29.42 23.86V20.6L29.18 18.78L33.48 19.26C33.9643 19.3257 34.4516 19.3657 34.94 19.38C35.2153 19.3796 35.4852 19.3035 35.72 19.16C35.877 19.0692 36.0133 18.9466 36.12 18.8C36.2807 18.506 36.4146 18.1981 36.52 17.88C36.6729 17.4717 36.7868 17.0498 36.86 16.62C36.86 16.08 36.98 15.54 37.06 15.02V12.86L36.92 11.34C36.855 10.8825 36.741 10.4332 36.58 10C36.4114 9.61983 36.1741 9.27404 35.88 8.98C35.6735 8.79818 35.4267 8.66795 35.16 8.6C34.8072 8.57431 34.4529 8.57431 34.1 8.6H30.84L28.84 8.88L29.26 5.2C29.26 4.88 29.4 4.22 29.38 3.74C29.3607 3.46771 29.2858 3.20226 29.16 2.96C29.0557 2.80709 28.9274 2.67201 28.78 2.56C28.4927 2.39982 28.1915 2.26595 27.88 2.16C27.474 2.00443 27.0511 1.89703 26.62 1.84C26.08 1.74 25.54 1.7 25.02 1.64L22.8 1.56L21.28 1.7C20.8114 1.79426 20.3551 1.94189 19.92 2.14C19.5371 2.29455 19.19 2.52598 18.9 2.82C18.7111 3.02156 18.5798 3.27026 18.52 3.54C18.4943 3.89954 18.4943 4.26046 18.52 4.62V7.86L18.68 9.14L14.56 8.68C14.24 8.68 13.58 8.54 13.1 8.54C12.8246 8.55626 12.557 8.63858 12.32 8.78C12.1631 8.87078 12.0268 8.99341 11.92 9.14C11.7558 9.4323 11.6218 9.74055 11.52 10.06C11.3621 10.4653 11.2546 10.8885 11.2 11.32C11.2 11.86 11.06 12.4 10.98 12.92V15.08L11.12 16.6C11.1887 17.0784 11.3095 17.5478 11.48 18ZM13.82 10.64C14.0463 10.6593 14.2738 10.6593 14.5 10.64C21.14 10.64 20.2 11.4 20.32 7.74L20.7 4.72C20.7 4.72 20.8 4.5 20.84 4.34L21.68 4.12H22.94H24.64L27.06 4.34H27.24C27.2207 4.56625 27.2207 4.79374 27.24 5.02V9.3C27.179 9.37099 27.1333 9.45382 27.1058 9.5433C27.0782 9.63278 27.0695 9.72698 27.08 9.82C27.3 11.12 28.44 10.38 30.98 10.4L33.98 10.76C33.98 10.76 34.2 10.76 34.36 10.9L34.58 11.76L34.68 13V14.7L34.48 17.14L34.38 17.3C34.1567 17.2472 33.9292 17.2138 33.7 17.2H28.92C28.8781 17.052 28.7843 16.9241 28.6557 16.8396C28.5272 16.7551 28.3725 16.7198 28.22 16.74C28.1329 16.7522 28.0492 16.7816 27.9736 16.8267C27.898 16.8717 27.8322 16.9313 27.7801 17.0021C27.7279 17.0729 27.6904 17.1534 27.6698 17.2389C27.6492 17.3244 27.6459 17.4132 27.66 17.5V20.62L27.3 23.62C27.2614 23.7495 27.2147 23.8764 27.16 24L26.3 24.24H25.06H23.36L20.92 24H20.74C20.7921 23.7697 20.8255 23.5356 20.84 23.3V18.68C20.9251 18.6108 20.9915 18.5216 21.0334 18.4204C21.0753 18.3191 21.0913 18.209 21.08 18.1C21.0657 18.0127 21.0338 17.9291 20.9865 17.8543C20.9392 17.7795 20.8773 17.715 20.8045 17.6647C20.7317 17.6143 20.6496 17.5791 20.5629 17.5611C20.4762 17.5431 20.3868 17.5427 20.3 17.56H17.16L14.16 17.2C14.0301 17.1547 13.9032 17.1012 13.78 17.04L13.56 16.2V14.96V13.24L13.74 10.8C13.758 10.7427 13.785 10.6887 13.82 10.64Z" fill="black"/>
<path fill-rule="evenodd" clip-rule="evenodd" d="M32.48 25.88C33.2459 25.1871 34.1988 24.7349 35.22 24.58C35.06 24.84 34.88 25.06 34.74 25.32C34.28 26.24 34.04 27.22 33.68 27.9C33.5573 28.1728 33.4101 28.4339 33.24 28.68C33.0627 28.9325 32.8689 29.173 32.66 29.4C32.5376 29.5299 32.4695 29.7016 32.4695 29.88C32.4695 30.0584 32.5376 30.2301 32.66 30.36C32.7214 30.4223 32.7946 30.4717 32.8753 30.5055C32.9559 30.5393 33.0425 30.5566 33.13 30.5566C33.2175 30.5566 33.3041 30.5393 33.3847 30.5055C33.4654 30.4717 33.5386 30.4223 33.6 30.36C33.9194 30.1678 34.2207 29.9469 34.5 29.7C34.8039 29.4597 35.0851 29.1919 35.34 28.9C35.9944 28.1541 36.5707 27.3432 37.06 26.48C37.4194 25.7635 37.8625 25.0922 38.38 24.48C38.5245 24.312 38.7164 24.1916 38.9305 24.1345C39.1446 24.0774 39.371 24.0863 39.58 24.16L40.24 24.6C40.352 24.7316 40.5087 24.8171 40.68 24.84C40.0707 25.5086 39.5528 26.2551 39.14 27.06C38.7754 27.9594 38.3407 28.8287 37.84 29.66C37.442 30.2698 36.8502 30.7278 36.16 30.96C35.9857 30.9984 35.8334 31.1038 35.7361 31.2535C35.6388 31.4032 35.6043 31.5851 35.64 31.76C35.6567 31.8455 35.6902 31.9269 35.7386 31.9994C35.7869 32.072 35.8491 32.1342 35.9216 32.1825C35.9942 32.2309 36.0755 32.2644 36.1611 32.2811C36.2466 32.2978 36.3346 32.2975 36.42 32.28C37.476 32.1336 38.4537 31.6413 39.2 30.88C39.962 30.091 40.6328 29.2189 41.2 28.28C41.6284 27.5245 42.1831 26.8481 42.84 26.28C43.34 25.82 44.06 26.28 44.08 27.32C44.0345 28.2546 43.7889 29.1685 43.36 30C43.3114 30.089 43.2812 30.1869 43.271 30.2877C43.2609 30.3886 43.271 30.4905 43.3008 30.5875C43.3306 30.6844 43.3795 30.7743 43.4447 30.8521C43.5098 30.9298 43.5898 30.9937 43.68 31.04C43.7675 31.0882 43.8639 31.1181 43.9632 31.128C44.0626 31.138 44.163 31.1277 44.2583 31.0978C44.3536 31.0679 44.4419 31.019 44.5178 30.9541C44.5937 30.8891 44.6557 30.8095 44.7 30.72C45.3252 29.9703 45.7444 29.0708 45.9162 28.1099C46.088 27.149 46.0066 26.1599 45.68 25.24C45.4993 24.867 45.2402 24.5373 44.9203 24.2736C44.6005 24.0099 44.2276 23.8183 43.8269 23.712C43.4263 23.6057 43.0074 23.5871 42.5989 23.6575C42.1904 23.7279 41.8019 23.8857 41.46 24.12C41.4587 23.9593 41.4022 23.804 41.3 23.68C41.1495 23.4482 40.9824 23.2276 40.8 23.02C40.638 22.8583 40.4566 22.7172 40.26 22.6C39.7678 22.2362 39.172 22.0399 38.56 22.0399C37.948 22.0399 37.3521 22.2362 36.86 22.6C36.7775 22.6558 36.7034 22.7231 36.64 22.8C35.6699 22.6441 34.6782 22.6879 33.7256 22.9286C32.773 23.1693 31.8796 23.602 31.1 24.2C30.1645 24.997 29.4022 25.9771 28.86 27.08C28.18 28.36 27.66 29.86 26.74 31.3C25.668 32.676 24.7493 34.1648 24 35.74C23.2565 34.2115 22.3369 32.7751 21.26 31.46C20.36 30.02 19.84 28.52 19.16 27.24C18.6113 26.1412 17.8499 25.1623 16.92 24.36C16.1393 23.764 15.2458 23.3327 14.2935 23.092C13.3413 22.8514 12.3501 22.8065 11.38 22.96C11.38 22.96 11.24 22.8 11.16 22.76C10.6666 22.3992 10.0712 22.2047 9.46 22.2047C8.84877 22.2047 8.25338 22.3992 7.76 22.76C7.56339 22.8772 7.38202 23.0183 7.22 23.18C7.03099 23.3872 6.8572 23.6078 6.7 23.84C6.60344 23.9659 6.55392 24.1215 6.56 24.28C6.21646 24.0454 5.82649 23.8875 5.41654 23.817C5.00658 23.7464 4.58625 23.7649 4.18407 23.8711C3.78189 23.9774 3.40726 24.1689 3.08563 24.4327C2.764 24.6965 2.50288 25.0264 2.32 25.4C1.99928 26.3207 1.92097 27.3085 2.09261 28.2683C2.26425 29.2281 2.68005 30.1275 3.3 30.88C3.34632 30.9702 3.41022 31.0502 3.48795 31.1153C3.56567 31.1805 3.65564 31.2294 3.75255 31.2592C3.84947 31.289 3.95137 31.2991 4.05226 31.289C4.15315 31.2788 4.25098 31.2486 4.34 31.2C4.44962 31.1523 4.54682 31.0801 4.62409 30.9889C4.70135 30.8976 4.75662 30.7899 4.78561 30.6739C4.8146 30.5579 4.81655 30.4368 4.7913 30.32C4.76606 30.2031 4.71429 30.0937 4.64 30C4.25388 29.1782 4.03626 28.2873 4 27.38C4 26.34 4.74 25.88 5.24 26.34C5.89063 26.9089 6.43861 27.5854 6.86 28.34C7.43356 29.2745 8.10392 30.1459 8.86 30.94C9.609 31.6976 10.5854 32.1893 11.64 32.34C11.8149 32.3757 11.9968 32.3412 12.1465 32.2439C12.2962 32.1466 12.4016 31.9943 12.44 31.82C12.4699 31.6428 12.4304 31.461 12.3299 31.3121C12.2294 31.1631 12.0755 31.0586 11.9 31.02C11.2157 30.7866 10.6306 30.3284 10.24 29.72C9.73264 28.8892 9.29128 28.0199 8.92 27.12C8.51412 26.311 7.99563 25.5635 7.38 24.9C7.55841 24.8819 7.72307 24.796 7.84 24.66L8.48 24.22C8.69197 24.1446 8.92172 24.1349 9.13932 24.1919C9.35693 24.249 9.5523 24.3703 9.7 24.54C10.2177 25.1478 10.6547 25.8201 11 26.54C11.5025 27.3996 12.0851 28.2099 12.74 28.96C12.9931 29.2467 13.2672 29.5141 13.56 29.76C13.8467 29.9976 14.1472 30.218 14.46 30.42C14.5214 30.4823 14.5946 30.5317 14.6753 30.5655C14.7559 30.5993 14.8425 30.6166 14.93 30.6166C15.0175 30.6166 15.1041 30.5993 15.1847 30.5655C15.2654 30.5317 15.3386 30.4823 15.4 30.42C15.527 30.2925 15.5983 30.1199 15.5983 29.94C15.5983 29.7601 15.527 29.5875 15.4 29.46C15.1911 29.233 14.9973 28.9925 14.82 28.74C14.6382 28.5082 14.4775 28.2605 14.34 28C13.96 27.32 13.74 26.34 13.26 25.42C13.1212 25.1646 12.9676 24.9175 12.8 24.68C13.8226 24.8303 14.7768 25.283 15.54 25.98C16.1428 26.7038 16.6103 27.5304 16.92 28.42C17.5475 29.9661 18.2757 31.4693 19.1 32.92C20.3264 34.1019 21.3831 35.4481 22.24 36.92C22.9391 38.3686 23.2427 39.9762 23.12 41.58C23.1089 41.6799 23.1178 41.781 23.146 41.8775C23.1743 41.9739 23.2214 42.0638 23.2847 42.1419C23.3479 42.2201 23.426 42.2849 23.5145 42.3326C23.6029 42.3803 23.7 42.41 23.8 42.42C23.8 42.42 23.94 42.42 24 42.42H24.22C24.4199 42.3949 24.6023 42.2934 24.7291 42.1369C24.8558 41.9803 24.9171 41.7807 24.9 41.58C24.7773 39.9762 25.0809 38.3686 25.78 36.92C26.6383 35.4544 27.6875 34.1093 28.9 32.92C29.7383 31.4736 30.4734 29.9699 31.1 28.42C31.39 27.4915 31.8588 26.6286 32.48 25.88Z" fill="black"/>
</g>
<defs>
<clipPath id="clip0_1210_1950">
<rect width="48" height="48" fill="white"/>
</clipPath>
</defs>
</svg>
