<svg width="48" height="48" viewBox="0 0 48 48" fill="none" xmlns="http://www.w3.org/2000/svg">
<g clip-path="url(#clip0_1210_1956)">
<path fill-rule="evenodd" clip-rule="evenodd" d="M7.64003 31.1C7.24627 32.2267 7.19753 33.4453 7.50003 34.6C7.50724 34.6958 7.53412 34.7891 7.57898 34.8741C7.62384 34.9591 7.68572 35.034 7.76077 35.094C7.83582 35.1541 7.92244 35.198 8.01521 35.2231C8.10799 35.2482 8.20494 35.254 8.30003 35.24C8.49294 35.2197 8.67019 35.1245 8.79362 34.9749C8.91706 34.8253 8.97682 34.6332 8.96003 34.44C8.99605 33.7425 9.18013 33.0607 9.50003 32.44C9.71298 32.0236 9.97483 31.6342 10.28 31.28C10.5399 30.9001 10.857 30.5628 11.22 30.28C11.4657 30.0128 11.7658 29.8014 12.1 29.66C12.3181 29.6183 12.542 29.6183 12.76 29.66C13.3143 29.8495 13.801 30.1971 14.16 30.66C14.28 30.82 14.36 31 14.48 31.18C14.6 31.36 14.84 31.74 15 32.04C15.4939 32.89 15.8834 33.7966 16.16 34.74C16.1719 34.8345 16.2022 34.9258 16.2493 35.0086C16.2964 35.0915 16.3593 35.1642 16.4346 35.2227C16.5098 35.2812 16.5958 35.3243 16.6876 35.3496C16.7795 35.3749 16.8755 35.3818 16.97 35.37C17.0646 35.3581 17.1559 35.3278 17.2387 35.2807C17.3215 35.2336 17.3943 35.1707 17.4528 35.0954C17.5113 35.0202 17.5544 34.9342 17.5797 34.8423C17.6049 34.7505 17.6119 34.6545 17.6 34.56C17.6834 33.5536 17.6024 32.5403 17.36 31.56C17.1921 30.8146 16.8337 30.1255 16.32 29.56C15.9063 29.1266 15.4005 28.7917 14.84 28.58C15.279 28.1014 15.5827 27.5147 15.72 26.88C15.8435 26.245 15.7992 25.5888 15.5917 24.9762C15.3841 24.3636 15.0204 23.8156 14.5364 23.3865C14.0524 22.9574 13.4649 22.6619 12.8318 22.5291C12.1987 22.3964 11.542 22.431 10.9264 22.6296C10.3108 22.8282 9.75757 23.1838 9.3214 23.6615C8.88523 24.1392 8.58114 24.7223 8.43915 25.3534C8.29716 25.9844 8.32217 26.6416 8.51172 27.2601C8.70127 27.8785 9.04881 28.4368 9.52003 28.88C9.28204 29.0007 9.05458 29.1412 8.84003 29.3C8.29711 29.7913 7.88476 30.4098 7.64003 31.1ZM11.84 24.84C12.0713 24.79 12.3111 24.7947 12.5403 24.8537C12.7694 24.9127 12.9817 25.0244 13.16 25.18C13.3741 25.3568 13.5449 25.5804 13.6593 25.8334C13.7737 26.0865 13.8287 26.3624 13.82 26.64C13.8386 26.8413 13.8163 27.0443 13.7544 27.2367C13.6925 27.4292 13.5924 27.6072 13.46 27.76C13.1813 27.9926 12.8407 28.1386 12.48 28.18H12.04C11.6235 28.1421 11.2346 27.9555 10.9445 27.6543C10.6543 27.3532 10.4823 26.9576 10.46 26.54C10.4356 26.1353 10.5639 25.7362 10.8193 25.4215C11.0748 25.1068 11.439 24.8993 11.84 24.84Z" fill="black"/>
<path fill-rule="evenodd" clip-rule="evenodd" d="M42.64 4.27998C42.5534 4.2399 42.4597 4.21743 42.3644 4.21386C42.2691 4.21029 42.174 4.2257 42.0847 4.2592C41.9954 4.29269 41.9136 4.3436 41.8441 4.40897C41.7746 4.47434 41.7188 4.55286 41.68 4.63998C41.5963 4.80992 41.583 5.00598 41.6429 5.18567C41.7028 5.36537 41.8311 5.51422 42 5.59998C43.1914 6.21616 44.1929 7.14458 44.8975 8.28596C45.602 9.42734 45.9831 10.7388 46 12.08C46.1246 13.3958 45.9214 14.7219 45.4083 15.9399C44.8953 17.158 44.0885 18.2299 43.06 19.06C41.8029 19.9691 40.2913 20.459 38.74 20.46C37.1277 20.4638 35.526 20.2003 34 19.68C32.9499 19.3165 32.006 18.699 31.2523 17.8824C30.4986 17.0659 29.9585 16.0757 29.68 15C29.3221 13.8938 29.1977 12.7254 29.3148 11.5686C29.4318 10.4119 29.7877 9.29205 30.36 8.27998C31.2783 6.82777 32.618 5.69044 34.2 5.01998C35.803 4.2944 37.5691 4.00464 39.32 4.17998C39.4805 4.19194 39.6395 4.14301 39.7656 4.04294C39.8916 3.94287 39.9753 3.79899 40 3.63998C40.0178 3.47391 39.9719 3.30727 39.8717 3.17366C39.7715 3.04005 39.6244 2.94939 39.46 2.91998C37.4372 2.58879 35.3624 2.81702 33.46 3.57998C31.508 4.29259 29.8196 5.58328 28.62 7.27998C27.8251 8.50255 27.2967 9.8789 27.0692 11.3193C26.8418 12.7598 26.9204 14.232 27.3 15.64C27.6768 17.1165 28.4209 18.4738 29.4628 19.5857C30.5048 20.6976 31.811 21.5281 33.26 22C35.4611 22.763 37.8068 23.016 40.12 22.74C41.7429 22.4715 43.267 21.7819 44.54 20.74C45.7753 19.6674 46.7346 18.3134 47.3368 16.7923C47.939 15.2712 48.1664 13.6275 48 12C47.9113 10.3424 47.363 8.74231 46.4163 7.37881C45.4696 6.01532 44.162 4.94232 42.64 4.27998Z" fill="black"/>
<path fill-rule="evenodd" clip-rule="evenodd" d="M38.88 6.85997H36.88C36.5016 6.87078 36.1285 6.95217 35.78 7.09997C35.6628 7.14724 35.5564 7.21766 35.467 7.30701C35.3777 7.39635 35.3073 7.50279 35.26 7.61997C35.1875 7.81207 35.147 8.01476 35.14 8.21997V9.11997V9.99997H34.12C33.7737 9.97838 33.4263 9.97838 33.08 9.99997C32.8822 10.0171 32.6907 10.0786 32.52 10.18C32.3131 10.3103 32.1577 10.5081 32.08 10.74C32.0532 11.0126 32.0532 11.2873 32.08 11.56V13.56C32.0806 13.9601 32.1413 14.3579 32.26 14.74C32.391 15.0057 32.6101 15.2177 32.88 15.34C33.0746 15.4074 33.2757 15.4543 33.48 15.48C33.9396 15.5081 34.4004 15.5081 34.86 15.48V16C34.8366 16.3529 34.8366 16.707 34.86 17.06C34.8981 17.2993 34.9795 17.5297 35.1 17.74C35.2734 18.0076 35.5353 18.2058 35.84 18.3C36.1327 18.327 36.4273 18.327 36.72 18.3L38.72 18.4C39.148 18.3837 39.5718 18.3097 39.98 18.18C40.3099 18.0237 40.5726 17.7539 40.72 17.42C40.8265 17.18 40.8876 16.9223 40.9 16.66V15.74V15.62H41.48C41.8394 15.6501 42.2006 15.6501 42.56 15.62C42.815 15.5952 43.0611 15.5132 43.28 15.38C43.5666 15.1998 43.7794 14.9232 43.88 14.6C43.9064 14.2939 43.9064 13.9861 43.88 13.68V11.68C43.861 11.2533 43.7661 10.8334 43.6 10.44C43.4518 10.1278 43.1962 9.87935 42.88 9.73997C42.5994 9.63452 42.2986 9.59351 42 9.61997H41.08H40.6V8.91997C40.629 8.57391 40.629 8.22603 40.6 7.87997C40.577 7.67422 40.5087 7.47614 40.4 7.29997C40.2531 7.07919 40.0339 6.91653 39.78 6.83997C39.4799 6.82583 39.1792 6.83251 38.88 6.85997ZM41.1 11.84H41.48V13.16H39.64C39.4798 13.1573 39.3206 13.1863 39.1716 13.2451C39.0225 13.304 38.8866 13.3917 38.7714 13.5031C38.6563 13.6145 38.5642 13.7476 38.5005 13.8946C38.4367 14.0416 38.4026 14.1997 38.4 14.36V15.72C38.3853 15.8395 38.3853 15.9604 38.4 16.08H37C37.0034 16.04 37.0034 15.9999 37 15.96V14.36C37.0004 14.0889 36.897 13.828 36.711 13.6309C36.525 13.4337 36.2706 13.3153 36 13.3H35H33.94V11.54H34.38C37.2 11.54 36.64 11.54 36.82 8.65997H37.16H38.72C38.7364 8.79949 38.7364 8.94045 38.72 9.07997V10.78C38.7173 10.9156 38.7418 11.0504 38.7918 11.1764C38.8419 11.3025 38.9166 11.4173 39.0116 11.5142C39.1066 11.611 39.2199 11.688 39.345 11.7405C39.4701 11.793 39.6043 11.82 39.74 11.82L41.1 11.84Z" fill="black"/>
<path fill-rule="evenodd" clip-rule="evenodd" d="M31.42 23.64C30.3 23.48 29.24 23.3 28.12 23.2C27.6471 23.1695 27.1728 23.1695 26.7 23.2C26.2275 23.1601 25.7525 23.1601 25.28 23.2C24.1767 23.3408 23.0817 23.5411 22 23.8C21.9142 23.8025 21.8297 23.8222 21.7517 23.8581C21.6737 23.8939 21.6036 23.945 21.5458 24.0085C21.4879 24.0719 21.4435 24.1464 21.415 24.2274C21.3865 24.3084 21.3746 24.3943 21.38 24.48C21.3851 24.5641 21.4067 24.6463 21.4437 24.722C21.4807 24.7978 21.5322 24.8654 21.5954 24.9212C21.6586 24.9769 21.7321 25.0196 21.8119 25.0469C21.8916 25.0741 21.9759 25.0854 22.06 25.08C23.16 25.2 24.22 25.42 25.32 25.52C25.7862 25.5496 26.2538 25.5496 26.72 25.52H28.14C29.24 25.42 30.32 25.24 31.42 25.1C31.6128 25.1 31.7981 25.0248 31.9363 24.8903C32.0745 24.7559 32.1548 24.5727 32.16 24.38C32.1628 24.282 32.1455 24.1846 32.1093 24.0935C32.0731 24.0025 32.0187 23.9198 31.9494 23.8506C31.8801 23.7813 31.7974 23.7269 31.7064 23.6907C31.6154 23.6545 31.5179 23.6372 31.42 23.64Z" fill="black"/>
<path fill-rule="evenodd" clip-rule="evenodd" d="M24.32 30.42H25.16L25.98 30.28C28.42 29.72 28.6 29.5 28.58 28.98C28.56 28.46 28.28 28.18 25.82 27.98C25.5404 27.9604 25.2597 27.9604 24.98 27.98L24.14 28.1C21.54 28.74 21.62 29.18 21.64 29.44C21.66 29.7 21.66 30.18 24.32 30.42Z" fill="black"/>
<path fill-rule="evenodd" clip-rule="evenodd" d="M22.44 34.94H25.96H27.46C27.96 34.94 28.46 34.82 28.96 34.74C30.18 34.56 31.34 34.32 32.52 34.1C32.6147 34.0924 32.7069 34.0662 32.7914 34.0229C32.8759 33.9795 32.951 33.9199 33.0123 33.8474C33.0737 33.7749 33.1201 33.6909 33.1489 33.6004C33.1776 33.5099 33.1882 33.4146 33.18 33.32C33.1646 33.1272 33.0744 32.9481 32.9286 32.821C32.7828 32.6939 32.5931 32.6289 32.4 32.64C31.22 32.64 30.04 32.46 28.8 32.44H27.26C26.74 32.44 26.22 32.56 25.7 32.66C24.4958 32.9355 23.3128 33.2964 22.16 33.74C21.9962 33.7782 21.8539 33.8793 21.7641 34.0216C21.6743 34.1638 21.6441 34.3357 21.68 34.5C21.7009 34.5789 21.7371 34.6528 21.7867 34.7176C21.8362 34.7825 21.8981 34.8369 21.9687 34.8778C22.0393 34.9186 22.1172 34.9452 22.1981 34.9558C22.279 34.9665 22.3612 34.9611 22.44 34.94Z" fill="black"/>
<path fill-rule="evenodd" clip-rule="evenodd" d="M42.4 23.72C42.3925 23.6358 42.3683 23.5539 42.329 23.4791C42.2897 23.4043 42.2359 23.338 42.1709 23.2841C42.1058 23.2302 42.0307 23.1897 41.9498 23.1649C41.869 23.1402 41.7841 23.1317 41.7 23.14C41.6148 23.1447 41.5315 23.1671 41.4553 23.2055C41.3791 23.244 41.3117 23.2977 41.2573 23.3634C41.2028 23.4291 41.1625 23.5054 41.1389 23.5874C41.1153 23.6694 41.1088 23.7554 41.12 23.84C41.12 26.06 41 27.56 41 29.84V32.68C41 33.62 41.1 34.58 41.18 35.52C41.32 37.52 41.54 39.62 41.76 41.66C38.42 41.66 35.1 41.88 31.76 42.12L24.18 42.68C21.68 42.88 19.18 43.14 16.66 43.2C15.0161 43.4493 13.3439 43.4493 11.7 43.2C11.2632 43.1546 10.856 42.9578 10.5491 42.6436C10.2422 42.3295 10.055 41.9177 10.02 41.48C10.01 41.31 9.93673 41.15 9.81453 41.0315C9.69233 40.913 9.53014 40.8447 9.35999 40.84C9.18844 40.8452 9.02566 40.917 8.90618 41.0402C8.7867 41.1634 8.71991 41.3283 8.71999 41.5C8.6944 42.0652 8.82916 42.6261 9.10873 43.118C9.3883 43.6099 9.80128 44.0127 10.3 44.28C12.3182 45.0883 14.4894 45.4434 16.66 45.32C19.24 45.32 21.82 45.32 24.38 45.18C26.16 45.04 27.94 44.84 29.7 44.64C33.8 44.12 37.88 43.48 42.02 43.14C42.1158 43.1386 42.2101 43.1165 42.2964 43.075C42.3828 43.0336 42.4591 42.9739 42.52 42.9C42.7092 42.8897 42.8873 42.8073 43.0176 42.6696C43.1478 42.5319 43.2203 42.3495 43.22 42.16C43.22 39.86 43.44 37.6 43.44 35.3C43.44 33.78 43.44 32.26 43.32 30.74C43.1379 28.3853 42.8308 26.042 42.4 23.72Z" fill="black"/>
<path fill-rule="evenodd" clip-rule="evenodd" d="M17.7 40C20.1846 40.0373 22.6692 39.9238 25.14 39.66C29.2478 39.2144 33.3228 38.5063 37.34 37.54C37.4346 37.5257 37.5253 37.4922 37.6064 37.4416C37.6876 37.3909 37.7575 37.3242 37.8118 37.2455C37.8662 37.1668 37.9038 37.0778 37.9224 36.9839C37.941 36.8901 37.9402 36.7934 37.92 36.7C37.92 36.7 37.92 36.7 37.92 36.58C38.041 36.5295 38.146 36.4469 38.2235 36.3412C38.3011 36.2355 38.3483 36.1105 38.36 35.9799C38.56 34.6 38.76 33.24 38.86 31.84V30.04C38.86 29.44 38.86 28.84 38.76 28.24C38.58 26.84 38.26 25.5 37.96 24.12C37.9525 24.0358 37.9284 23.9539 37.889 23.8791C37.8497 23.8043 37.796 23.738 37.7309 23.6841C37.6658 23.6302 37.5907 23.5897 37.5099 23.5649C37.429 23.5402 37.3441 23.5317 37.26 23.54C37.1758 23.5475 37.094 23.5716 37.0191 23.6109C36.9443 23.6502 36.8781 23.704 36.8241 23.7691C36.7702 23.8342 36.7297 23.9093 36.705 23.9901C36.6802 24.0709 36.6717 24.1558 36.68 24.24C36.68 25.62 36.46 26.96 36.42 28.24V30C36.3902 30.5796 36.3902 31.1603 36.42 31.74C36.52 33.12 36.68 34.46 36.76 35.74V35.9399C33.56 36.4199 30.4 36.76 27.24 37C24.82 37.18 22.4 37.26 19.98 37.32C17.56 37.3799 15.16 37.4799 12.7 37.32C10.86 37.32 9.06001 37.44 7.26001 37.32C6.17437 37.4053 5.08323 37.3919 4.00001 37.2799C3.76616 36.6769 3.58547 36.0545 3.46001 35.4199C3.26001 34.3999 3.16001 33.42 3.02001 32.34C2.74001 30.74 2.64001 29.1 2.52001 27.46C2.40001 25.82 2.36001 24.2 2.40001 22.58C2.40001 22.02 2.40001 21.46 2.50001 20.9C4.50001 20.9 7.26001 21 10.34 21.02H14.22L18.08 20.86C22.52 20.6 26.24 20.28 27.16 20.12C27.351 20.0987 27.5257 20.0025 27.6457 19.8525C27.7657 19.7025 27.8212 19.5109 27.8 19.32C27.7788 19.129 27.6826 18.9543 27.5326 18.8343C27.3825 18.7142 27.191 18.6587 27 18.68C26.06 18.68 22.26 18.56 17.76 18.54C15.76 18.54 13.64 18.54 11.56 18.66C8.06001 18.84 4.82001 19.2 2.58001 19.5C2.67979 18.5177 2.8401 17.5425 3.06001 16.58C3.80258 16.4001 4.55831 16.2797 5.32001 16.22C6.62001 16 8.00001 16 9.20001 16L17.04 15.58C18.68 15.42 20.34 15.16 22 15.08C23.0552 15.0071 24.1153 15.0541 25.16 15.22C25.2457 15.2596 25.3391 15.2799 25.4335 15.2792C25.5279 15.2785 25.6211 15.2569 25.7062 15.216C25.7913 15.1751 25.8663 15.1159 25.9258 15.0426C25.9853 14.9693 26.0279 14.8837 26.0504 14.792C26.073 14.7003 26.0749 14.6048 26.0562 14.5122C26.0375 14.4197 25.9985 14.3324 25.9421 14.2567C25.8856 14.181 25.8131 14.1187 25.7298 14.0743C25.6465 14.0299 25.5543 14.0045 25.46 14C24.335 13.6546 23.1741 13.4399 22 13.36C20.32 13.24 18.62 13.36 16.96 13.2C15.62 13.2 14.28 13.2 12.96 13.38C11.64 13.56 10.34 13.7 8.96001 13.84C7.58001 13.98 6.32001 14.14 4.96001 14.38C4.0601 14.5399 3.1765 14.7809 2.32001 15.1C2.22001 15.1 2.20001 15.1 2.12001 15.26C2.05602 15.3173 2.00195 15.3849 1.96001 15.46C1.96001 15.46 1.96001 15.46 1.86001 15.46C0.786527 18.2233 0.158708 21.1396 6.03497e-06 24.1C-0.0733197 25.5547 -0.0264941 27.0129 0.140006 28.46C0.334071 29.8905 0.621349 31.3068 1.00001 32.7C1.28001 33.7 1.50001 34.6999 1.82001 35.7799C2.04574 36.4681 2.32665 37.137 2.66001 37.7799C2.70853 37.8813 2.78142 37.9691 2.87216 38.0354C2.96291 38.1017 3.06868 38.1445 3.18001 38.16C3.26155 38.2943 3.38969 38.394 3.54001 38.4399C4.74594 38.8162 5.98481 39.0774 7.24001 39.22C9.04001 39.44 10.84 39.5 12.7 39.7C14.56 39.9 16 40 17.7 40Z" fill="black"/>
</g>
<defs>
<clipPath id="clip0_1210_1956">
<rect width="48" height="48" fill="white"/>
</clipPath>
</defs>
</svg>
