<svg width="48" height="48" viewBox="0 0 48 48" fill="none" xmlns="http://www.w3.org/2000/svg">
<g clip-path="url(#clip0_1209_6797)">
<path d="M5.00028 7.99994H43.0021C43.0021 7.99994 47.0023 7.99994 47.0023 12.0001V36.0013C47.0023 36.0013 47.0023 40.0015 43.0021 40.0015H5.00028C5.00028 40.0015 1.00008 40.0015 1.00008 36.0013V12.0001C1.00008 12.0001 1.00008 7.99994 5.00028 7.99994Z" stroke="black" stroke-width="2.0001" stroke-linecap="round" stroke-linejoin="round"/>
<path d="M1.00005 13.9999H47.0023" stroke="black" stroke-width="2.0001" stroke-linecap="round" stroke-linejoin="round"/>
<path d="M43.002 24.0009H27.0012" stroke="black" stroke-width="2.0001" stroke-linecap="round" stroke-linejoin="round"/>
<path d="M33.0015 30.0009H27.0012" stroke="black" stroke-width="2.0001" stroke-linecap="round" stroke-linejoin="round"/>
<path d="M21.001 24.5011C21.001 24.3685 20.9483 24.2413 20.8545 24.1475C20.7608 24.0537 20.6336 24.001 20.501 24.001H17.0008V20.5009C17.0008 20.3683 16.9481 20.2411 16.8543 20.1473C16.7606 20.0535 16.6334 20.0009 16.5008 20.0009H11.5005C11.3679 20.0009 11.2407 20.0535 11.147 20.1473C11.0532 20.2411 11.0005 20.3683 11.0005 20.5009V24.001H7.50034C7.36772 24.001 7.24054 24.0537 7.14677 24.1475C7.05299 24.2413 7.00031 24.3685 7.00031 24.5011V29.5013C7.00031 29.6339 7.05299 29.7611 7.14677 29.8549C7.24054 29.9487 7.36772 30.0013 7.50034 30.0013H11.0005V33.5015C11.0005 33.6341 11.0532 33.7613 11.147 33.8551C11.2407 33.9489 11.3679 34.0015 11.5005 34.0015H16.5008C16.6334 34.0015 16.7606 33.9489 16.8543 33.8551C16.9481 33.7613 17.0008 33.6341 17.0008 33.5015V30.0013H20.501C20.6336 30.0013 20.7608 29.9487 20.8545 29.8549C20.9483 29.7611 21.001 29.6339 21.001 29.5013V24.5011Z" stroke="black" stroke-width="2.0001" stroke-linecap="round" stroke-linejoin="round"/>
</g>
<defs>
<clipPath id="clip0_1209_6797">
<rect width="48.0023" height="48.0023" fill="white"/>
</clipPath>
</defs>
</svg>
