<svg width="48" height="48" viewBox="0 0 48 48" fill="none" xmlns="http://www.w3.org/2000/svg">
<g clip-path="url(#clip0_1209_6779)">
<path d="M44.125 9.625V40.2917C44.1199 41.8151 43.5125 43.2747 42.4353 44.3519C41.358 45.4292 39.8984 46.0366 38.375 46.0417H9.625C8.1014 46.0371 6.64151 45.4299 5.56416 44.3525C4.48681 43.2752 3.87955 41.8153 3.875 40.2917V9.625" stroke="black" stroke-width="2" stroke-linecap="round" stroke-linejoin="round"/>
<path d="M46.0416 8.66668C46.0416 8.92084 45.9407 9.1646 45.761 9.34432C45.5812 9.52404 45.3375 9.62501 45.0833 9.62501H2.91665C2.66248 9.62501 2.41872 9.52404 2.239 9.34432C2.05928 9.1646 1.95831 8.92084 1.95831 8.66668V4.83334C1.95831 4.07085 2.26121 3.33958 2.80038 2.80041C3.33955 2.26124 4.07082 1.95834 4.83331 1.95834H43.1666C43.9291 1.95834 44.6604 2.26124 45.1996 2.80041C45.7387 3.33958 46.0416 4.07085 46.0416 4.83334V8.66668Z" stroke="black" stroke-width="2" stroke-linecap="round" stroke-linejoin="round"/>
<path d="M18.9112 32.625H16.6822C15.6202 32.5823 14.5844 32.9614 13.8009 33.6796C13.0174 34.3977 12.5498 35.3967 12.5 36.4583C12.5498 37.52 13.0174 38.5189 13.8009 39.2371C14.5844 39.9552 15.6202 40.3343 16.6822 40.2917H31.3178C32.3798 40.3343 33.4156 39.9552 34.1991 39.2371C34.9826 38.5189 35.4502 37.52 35.5 36.4583C35.4502 35.3967 34.9826 34.3977 34.1991 33.6796C33.4156 32.9614 32.3798 32.5823 31.3178 32.625H29.2267C29.6853 32.6065 30.1344 32.4883 30.5426 32.2784C30.9507 32.0685 31.3082 31.7721 31.59 31.4098C35.3428 26.1237 29.7059 21.6348 26.9689 19.6971C26.8971 19.6459 26.8125 19.6156 26.7245 19.6094C26.6365 19.6032 26.5486 19.6215 26.4703 19.6621C26.392 19.7027 26.3264 19.7642 26.2808 19.8397C26.2352 19.9152 26.2114 20.0018 26.2118 20.09C26.2119 21.4472 25.6746 22.7492 24.7174 23.7114C23.7602 24.6735 22.4611 25.2177 21.1039 25.2247H19.4805C18.6072 25.21 17.7555 25.4966 17.0688 26.0363C16.3822 26.576 15.9024 27.3359 15.7104 28.1879C15.6071 28.6917 15.6094 29.2114 15.7173 29.7142C15.8251 30.217 16.0362 30.6919 16.337 31.109C16.6379 31.526 17.022 31.8761 17.4651 32.137C17.9082 32.398 18.4006 32.5641 18.9112 32.625Z" stroke="black" stroke-width="2" stroke-linecap="round" stroke-linejoin="round"/>
<path d="M20.1667 32.625H18.9113" stroke="black" stroke-width="2" stroke-linecap="round" stroke-linejoin="round"/>
</g>
<defs>
<clipPath id="clip0_1209_6779">
<rect width="48" height="48" fill="white"/>
</clipPath>
</defs>
</svg>
