<svg width="48" height="48" viewBox="0 0 48 48" fill="none" xmlns="http://www.w3.org/2000/svg">
<g clip-path="url(#clip0_1210_1935)">
<path fill-rule="evenodd" clip-rule="evenodd" d="M20.42 35.66C20.0863 35.6346 19.757 35.5674 19.44 35.46C18.8 35.28 18.12 34.86 17.44 34.64C16.795 34.4245 16.1033 34.3899 15.44 34.54C15.0257 34.6528 14.6418 34.8568 14.3166 35.1371C13.9913 35.4174 13.7328 35.7669 13.56 36.16L13.14 37.6C13.12 37.9464 13.12 38.2936 13.14 38.64C13.166 38.9932 13.2332 39.3423 13.34 39.68C13.387 39.8481 13.4951 39.9925 13.6431 40.085C13.7911 40.1775 13.9683 40.2114 14.14 40.18C14.2258 40.1612 14.307 40.1254 14.3789 40.0747C14.4507 40.0241 14.5116 39.9596 14.5582 39.8851C14.6048 39.8106 14.636 39.7275 14.6501 39.6408C14.6641 39.5541 14.6607 39.4654 14.64 39.38C14.6111 39.1542 14.6111 38.9257 14.64 38.7C14.6693 38.4598 14.7298 38.2245 14.82 38L15.34 37.24C15.4239 37.1156 15.5428 37.0189 15.6816 36.9619C15.8204 36.905 15.9729 36.8904 16.12 36.92C16.5325 36.9561 16.9409 37.0298 17.34 37.14C17.9087 37.3009 18.4913 37.408 19.08 37.46C19.4723 37.5007 19.8677 37.5007 20.26 37.46C20.8041 37.374 21.3395 37.2401 21.86 37.06C22.0559 37.0169 22.2267 36.8981 22.3354 36.7295C22.444 36.5609 22.4816 36.3562 22.44 36.16C22.3925 35.9678 22.2718 35.8018 22.1037 35.6972C21.9357 35.5926 21.7334 35.5577 21.54 35.6C21.1688 35.6492 20.7943 35.6693 20.42 35.66Z" fill="black"/>
<path fill-rule="evenodd" clip-rule="evenodd" d="M36.44 10.8C36.5092 10.7455 36.5669 10.6777 36.6095 10.6006C36.6521 10.5235 36.6789 10.4387 36.6882 10.3511C36.6975 10.2635 36.6892 10.1749 36.6638 10.0905C36.6383 10.0062 36.5962 9.92779 36.54 9.85997C36.4786 9.79769 36.4054 9.74823 36.3247 9.71447C36.244 9.68071 36.1575 9.66333 36.07 9.66333C35.9825 9.66333 35.8959 9.68071 35.8153 9.71447C35.7346 9.74823 35.6614 9.79769 35.6 9.85997L34.16 11.1L33.22 12.32C32.9057 12.791 32.7622 13.3554 32.8131 13.9194C32.864 14.4833 33.1064 15.0129 33.5 15.42C34.1406 16.1297 34.9246 16.6955 35.8 17.08C36.4877 17.3308 37.1562 17.6316 37.8 17.98C38.4866 18.4312 39.0612 19.0331 39.48 19.74C39.9196 20.5202 40.2366 21.3634 40.42 22.24C40.4323 22.3375 40.4639 22.4316 40.5129 22.5168C40.562 22.602 40.6275 22.6766 40.7057 22.7362C40.7839 22.7958 40.8732 22.8392 40.9684 22.8639C41.0636 22.8886 41.1627 22.894 41.26 22.88C41.3575 22.8677 41.4517 22.8361 41.5369 22.787C41.6221 22.738 41.6966 22.6724 41.7562 22.5942C41.8158 22.516 41.8592 22.4267 41.8839 22.3316C41.9086 22.2364 41.914 22.1373 41.9 22.04C41.866 20.9627 41.6426 19.8998 41.24 18.9C40.7933 17.8219 40.1097 16.8581 39.24 16.08C38.724 15.6938 38.1674 15.3652 37.58 15.1C36.8898 14.8159 36.2213 14.4817 35.58 14.1C35.2 13.86 34.74 13.66 34.94 13.18L35.48 12L36.44 10.8Z" fill="black"/>
<path fill-rule="evenodd" clip-rule="evenodd" d="M30.9 31.7C30.5064 32.0955 30.2058 32.5738 30.02 33.1C29.7926 33.7841 29.7543 34.517 29.9092 35.2211C30.0641 35.9253 30.4065 36.5744 30.9 37.1C31.0041 37.2178 31.1467 37.2946 31.3024 37.3166C31.4581 37.3386 31.6164 37.3043 31.7491 37.2199C31.8817 37.1355 31.9798 37.0066 32.0258 36.8562C32.0718 36.7059 32.0627 36.5441 32 36.4C31.7913 36.0345 31.6815 35.6209 31.6815 35.2C31.6815 34.7791 31.7913 34.3655 32 34C32.1681 33.7888 32.3631 33.6006 32.58 33.44C32.94 33.12 33.4 32.82 33.86 32.48C35.328 31.6014 36.5253 30.335 37.32 28.82C37.366 28.7333 37.3944 28.6384 37.4037 28.5407C37.413 28.4431 37.403 28.3445 37.3742 28.2508C37.3454 28.157 37.2984 28.0698 37.2359 27.9941C37.1734 27.9185 37.0967 27.8559 37.01 27.81C36.9233 27.764 36.8285 27.7356 36.7308 27.7263C36.6331 27.717 36.5346 27.727 36.4408 27.7558C36.347 27.7846 36.2598 27.8315 36.1842 27.894C36.1085 27.9565 36.046 28.0333 36 28.12C35.0175 29.1261 33.8213 29.8985 32.5 30.38C31.9096 30.7458 31.3714 31.1898 30.9 31.7Z" fill="black"/>
<path fill-rule="evenodd" clip-rule="evenodd" d="M41.24 25.48C41.165 26.315 41.0314 27.1437 40.84 27.96C40.74 28.4 40.66 28.84 40.56 29.26C40.46 29.68 40.46 29.86 40.38 30.16C40.2309 30.8588 39.9817 31.5324 39.64 32.16C39.519 32.3195 39.4659 32.5203 39.4921 32.7188C39.5183 32.9172 39.6218 33.0973 39.78 33.22C39.8579 33.2825 39.9477 33.3286 40.044 33.3554C40.1402 33.3823 40.2409 33.3894 40.3399 33.3763C40.4389 33.3633 40.5343 33.3303 40.6203 33.2793C40.7062 33.2284 40.781 33.1606 40.84 33.08C41.5748 32.4164 42.1904 31.6317 42.66 30.76C42.872 30.3638 43.0269 29.9396 43.12 29.5C43.2203 29.0743 43.2607 28.6368 43.24 28.2C43.1496 27.2302 42.9136 26.2795 42.54 25.38C42.5372 25.2874 42.5149 25.1964 42.4747 25.113C42.4344 25.0296 42.377 24.9555 42.3062 24.8958C42.2355 24.836 42.1529 24.7918 42.0639 24.766C41.975 24.7402 41.8815 24.7335 41.7898 24.7462C41.698 24.7589 41.61 24.7908 41.5313 24.8397C41.4527 24.8887 41.3853 24.9537 41.3334 25.0305C41.2816 25.1072 41.2464 25.194 41.2303 25.2853C41.2142 25.3765 41.2175 25.4701 41.24 25.56V25.48Z" fill="black"/>
<path fill-rule="evenodd" clip-rule="evenodd" d="M30.56 18.72C30.463 18.7321 30.3696 18.7637 30.2853 18.8131C30.201 18.8624 30.1276 18.9284 30.0696 19.0069C30.0116 19.0855 29.9702 19.1751 29.9479 19.2701C29.9256 19.3652 29.9229 19.4639 29.94 19.56L29.82 20.78C29.6918 21.2315 29.4428 21.6395 29.1 21.96C28.5957 22.3914 28.061 22.7857 27.5 23.14C26.7563 23.6618 26.1408 24.3457 25.7 25.14C25.2945 26.0953 25.2241 27.1596 25.5 28.16C25.6098 28.6641 25.8348 29.1359 26.1575 29.5384C26.4802 29.9409 26.8918 30.2632 27.36 30.48C27.436 30.5224 27.5198 30.5492 27.6063 30.5591C27.6928 30.5689 27.7804 30.5616 27.8641 30.5374C27.9477 30.5132 28.0258 30.4727 28.0937 30.4183C28.1617 30.3638 28.2182 30.2964 28.26 30.22C28.3403 30.0653 28.358 29.8856 28.3097 29.7181C28.2613 29.5506 28.1504 29.4081 28 29.32C27.7964 29.1313 27.6344 28.9022 27.5242 28.6474C27.414 28.3926 27.3581 28.1176 27.36 27.84C27.3599 27.2929 27.5352 26.7602 27.86 26.32C28.1804 25.8365 28.5872 25.4161 29.06 25.08C29.7228 24.5738 30.3089 23.9742 30.8 23.3C31.274 22.6309 31.5448 21.8393 31.58 21.02L31.42 19.34C31.3856 19.145 31.2765 18.9711 31.1159 18.8553C30.9553 18.7395 30.7558 18.691 30.56 18.72Z" fill="black"/>
<path fill-rule="evenodd" clip-rule="evenodd" d="M46.86 14.48C45.8555 11.1738 43.824 8.27361 41.06 6.19999C36.9292 3.27375 32.1006 1.48715 27.06 1.01999C26.9627 1.00594 26.8635 1.01141 26.7684 1.0361C26.6732 1.06078 26.5839 1.10419 26.5057 1.16377C26.4275 1.22335 26.362 1.29792 26.3129 1.38312C26.2639 1.46832 26.2323 1.56245 26.22 1.65999C26.197 1.85565 26.2509 2.0526 26.3703 2.20931C26.4897 2.36601 26.6652 2.47023 26.86 2.49999C30.7864 2.98751 34.5748 4.25937 38 6.23999C41.3821 8.14997 43.8914 11.2974 45 15.02C46.8186 21.7589 45.9134 28.9428 42.48 35.02C40.7871 37.9782 38.318 40.4174 35.3394 42.0742C32.3608 43.7309 28.9861 44.542 25.58 44.42C20.9717 44.4653 16.4168 43.431 12.28 41.4C8.16351 39.4492 4.9148 36.0437 3.15999 31.84C2.82682 31.0241 2.59184 30.1714 2.45999 29.3C2.25993 27.9089 2.15968 26.5054 2.15999 25.1C2.03908 22.1897 2.49259 19.2841 3.49462 16.5492C4.49665 13.8142 6.02758 11.3033 7.99999 9.15999C10.0056 7.01496 12.435 5.31002 15.1342 4.15322C17.8334 2.99643 20.7435 2.41303 23.68 2.43999C23.8374 2.42081 23.9827 2.34557 24.0892 2.22804C24.1957 2.11051 24.2563 1.95856 24.26 1.79999C24.2601 1.62306 24.1912 1.45306 24.0679 1.32609C23.9447 1.19913 23.7768 1.1252 23.6 1.11999C20.4541 1.03331 17.3245 1.59997 14.4088 2.78416C11.493 3.96836 8.85453 5.74437 6.65999 7.99999C4.47284 10.2837 2.75854 12.9771 1.61559 15.9254C0.47265 18.8737 -0.0764031 22.0188 -1.45193e-05 25.18C-0.00981607 26.6834 0.0703271 28.1861 0.239985 29.68C0.37471 30.7258 0.629732 31.7526 0.999985 32.74C2.90954 37.5094 6.51351 41.4054 11.12 43.68C15.6094 45.913 20.5663 47.0443 25.58 46.98C29.4145 47.0926 33.2064 46.1507 36.5426 44.257C39.8787 42.3632 42.6311 39.5902 44.5 36.24C48.1344 29.5845 48.983 21.7599 46.86 14.48Z" fill="black"/>
<path fill-rule="evenodd" clip-rule="evenodd" d="M24 14.64C23.9963 13.7867 23.7613 12.9504 23.32 12.22C23.0565 11.7779 22.7102 11.3908 22.3 11.08C21.9045 10.8143 21.4736 10.6056 21.02 10.46C20.6839 10.3883 20.343 10.3415 20 10.32C20.0056 10.2134 20.0056 10.1066 20 9.99998C20 7.19998 19.24 7.33998 19.2 7.33998C18.8 7.23998 18.28 7.33998 17.6 9.21998C17.4481 9.61509 17.4134 10.0456 17.5 10.46C17.06 10.46 16.6 10.46 16.16 10.68C14.2981 11.2818 12.6284 12.365 11.32 13.82C11.2291 13.6928 11.1215 13.5784 11 13.48C10.875 13.3856 10.7321 13.3176 10.58 13.28C8.92001 12.8 8.58001 13.12 8.58001 13.38C8.58001 13.64 9.50001 15.38 9.52001 15.38C9.60118 15.4522 9.69655 15.5067 9.80001 15.54H10.02C9.06871 16.9842 8.39079 18.5908 8.02001 20.28V21.42C8.02001 21.42 7.92001 21.3 7.82001 21.26C7.56214 21.1458 7.28189 21.0911 7.00001 21.1C5.00001 21.1 4.86001 21.5 4.80001 21.68C4.74001 21.86 4.64001 22.44 6.40001 23.4C6.55063 23.4873 6.71199 23.5545 6.88001 23.6C7.04621 23.6177 7.21382 23.6177 7.38001 23.6L8.00001 23.72C8.0362 24.2801 8.12322 24.8357 8.26001 25.38C8.4262 25.8123 8.63383 26.2276 8.88001 26.62L8.42001 26.74C8.19395 26.8358 7.97929 26.9565 7.78001 27.1C7.58457 27.2423 7.39758 27.3959 7.22001 27.56C5.52001 29.22 5.60001 29.44 5.80001 29.82C6.00001 30.2 6.40001 30.44 8.54001 29.54C8.76786 29.4426 8.98843 29.329 9.20001 29.2L9.76001 28.76L10.24 28.18C10.5485 28.4026 10.8846 28.5842 11.24 28.72C11.5 28.84 13.24 29.38 13.24 29.4C14.1113 29.5838 15.0197 29.449 15.8 29.02C15.9543 29.3031 16.1351 29.571 16.34 29.82C16.4606 29.9248 16.5953 30.0123 16.74 30.08C16.8908 30.1539 17.0532 30.2013 17.22 30.22C19.22 30.44 19.36 29.8 19.4 29.64C19.44 29.48 19.4 29.08 18.16 28.02C18.1114 27.9496 18.058 27.8828 18 27.82C17.8809 27.7591 17.7525 27.7185 17.62 27.7C17.7703 27.4591 17.8975 27.2047 18 26.94C18.2215 26.483 18.3506 25.9869 18.38 25.48C18.3329 24.5244 18.2058 23.5744 18 22.64L18.24 22.82C19.78 23.7 20.04 23.74 20.4 23.42C20.76 23.1 21.06 23.02 19.92 21.12C19.8244 20.9604 19.7103 20.8127 19.58 20.68C19.4469 20.5558 19.2991 20.4484 19.14 20.36C19.68 20.12 20.26 19.92 20.72 19.68C21.8635 19.095 22.7786 18.1447 23.32 16.98C23.4403 17.0379 23.5683 17.0783 23.7 17.1C23.92 17.1 26 17.1 26.22 16.5C26.22 16.34 26.52 15.82 24.7 14.8C24.5333 14.7223 24.3591 14.662 24.18 14.62C24.1195 14.6211 24.0593 14.6278 24 14.64ZM21.44 15.76C21.1486 16.6005 20.5671 17.3096 19.8 17.76C18.9663 18.1124 18.1635 18.5338 17.4 19.02C16.9372 19.3497 16.5823 19.809 16.38 20.34C16.2066 20.834 16.1319 21.3572 16.16 21.88C16.2194 22.7354 16.3465 23.5847 16.54 24.42C16.72 25.0337 16.72 25.6862 16.54 26.3C16.3045 26.8465 15.9065 27.3074 15.4 27.62C14.9411 27.9437 14.3759 28.0796 13.82 28C13.1162 28.0616 12.412 27.8855 11.82 27.5C11.2909 27.1261 10.8416 26.6505 10.4982 26.1011C10.1548 25.5517 9.92427 24.9394 9.82001 24.3C9.65175 23.1527 9.71293 21.9834 10 20.86C10.4612 19.0781 11.3078 17.419 12.48 16C13.64 14.5742 15.2114 13.5406 16.98 13.04C17.5262 12.8668 18.0895 12.7528 18.66 12.7C19.1525 12.653 19.6494 12.7074 20.12 12.86C20.3305 12.9289 20.532 13.0229 20.72 13.14C20.8804 13.2367 21.0117 13.3749 21.1 13.54C21.3079 13.8667 21.4377 14.2369 21.4793 14.6219C21.5209 15.007 21.4733 15.3964 21.34 15.76H21.44Z" fill="black"/>
</g>
<defs>
<clipPath id="clip0_1210_1935">
<rect width="48" height="48" fill="white"/>
</clipPath>
</defs>
</svg>
