<svg width="48" height="48" viewBox="0 0 48 48" fill="none" xmlns="http://www.w3.org/2000/svg">
<g clip-path="url(#clip0_1210_1944)">
<path fill-rule="evenodd" clip-rule="evenodd" d="M28 17.52C27.3094 18.039 26.7651 18.7281 26.42 19.52C26.1266 20.1534 26.0215 20.8578 26.1172 21.5493C26.213 22.2408 26.5055 22.8902 26.96 23.42C27.4182 23.9088 27.9838 24.2843 28.612 24.5168C29.2403 24.7494 29.914 24.8326 30.58 24.76C31.5839 24.6158 32.4956 24.0957 33.1305 23.3048C33.7655 22.5139 34.0763 21.5114 34 20.5C33.88 16 29.4 16.58 28 17.52ZM30.46 22.24C30.1557 22.2987 29.842 22.2859 29.5435 22.2026C29.245 22.1193 28.9699 21.9678 28.74 21.76C28.5308 21.5692 28.3775 21.3251 28.2964 21.0538C28.2154 20.7825 28.2097 20.4943 28.28 20.22C28.3963 19.6894 28.6517 19.1993 29.02 18.8C29.2543 18.5699 29.5482 18.41 29.8687 18.3382C30.1891 18.2665 30.5232 18.2858 30.8332 18.394C31.1432 18.5022 31.4168 18.6949 31.623 18.9505C31.8292 19.206 31.9598 19.5141 32 19.84C32.16 20.9 31.6 22.26 30.44 22.24H30.46Z" fill="black"/>
<path fill-rule="evenodd" clip-rule="evenodd" d="M22.22 21.8C22.9433 20.6639 23.3315 19.3468 23.34 18C23.3629 17.4734 23.252 16.9496 23.0177 16.4775C22.7834 16.0053 22.4332 15.6002 22 15.3C21.9237 15.238 21.8355 15.1922 21.7409 15.1656C21.6462 15.139 21.5471 15.132 21.4497 15.1451C21.3523 15.1582 21.2585 15.1911 21.1743 15.2419C21.0901 15.2926 21.0172 15.36 20.96 15.44C20.9006 15.5174 20.8572 15.6057 20.8321 15.7C20.807 15.7942 20.8008 15.8925 20.8138 15.9891C20.8268 16.0858 20.8588 16.1789 20.9079 16.2631C20.957 16.3474 21.0223 16.4211 21.1 16.48C21.3502 16.7407 21.5251 17.0644 21.6061 17.4165C21.6871 17.7687 21.6711 18.1362 21.56 18.48C21.4064 19.3043 21.0566 20.0795 20.54 20.74C19.6696 21.767 18.4791 22.4714 17.16 22.74C15.8926 23.0918 14.5425 22.9928 13.34 22.46C12.22 21.94 11.66 21.28 11.64 20.46C11.7057 19.3516 12.1753 18.3056 12.96 17.52C13.6519 16.6554 14.574 16.0037 15.62 15.64C16.7004 15.2993 17.8595 15.2993 18.94 15.64C19.1044 15.6907 19.2822 15.6752 19.4354 15.5968C19.5886 15.5183 19.705 15.3831 19.76 15.22C19.8107 15.0556 19.7952 14.8778 19.7167 14.7246C19.6383 14.5714 19.5031 14.4549 19.34 14.4C18.0507 13.8613 16.6294 13.722 15.26 14C13.8578 14.3069 12.5693 14.9997 11.54 16C10.2597 17.1106 9.45726 18.6724 9.29999 20.36C9.31361 21.2953 9.61451 22.2037 10.1619 22.9622C10.7093 23.7206 11.4767 24.2924 12.36 24.6C14.0917 25.3126 16.0156 25.4094 17.8101 24.8744C19.6047 24.3393 21.1613 23.2046 22.22 21.66V21.8Z" fill="black"/>
<path fill-rule="evenodd" clip-rule="evenodd" d="M46.88 28.6H45.94L44.1 28.18C43.2519 27.9011 42.4597 27.4745 41.76 26.92C41.0712 26.3785 40.5053 25.6968 40.1 24.92C39.5814 23.8425 39.4678 22.6143 39.78 21.46C40.0438 20.1927 40.606 19.0065 41.42 18L43.18 16.64C43.3058 16.5632 43.4112 16.4574 43.4876 16.3314C43.5639 16.2054 43.6089 16.0629 43.6187 15.9159C43.6285 15.7689 43.6028 15.6217 43.5439 15.4867C43.485 15.3517 43.3945 15.2328 43.28 15.14C42.9654 14.9945 42.6371 14.8806 42.3 14.8L41.64 14.68L39.46 14.12C38.34 13.8 37.24 13.46 36.14 13.06C35.04 12.66 34 12.3 33.06 11.82C32.0181 11.3201 31.0708 10.6434 30.26 9.82C29.4668 9.05679 28.8757 8.10835 28.54 7.06C28.4363 6.67385 28.3693 6.27876 28.34 5.88C28.3001 5.46763 28.3001 5.05237 28.34 4.64L28.5 3.68C28.5 3.56 28.62 3.28 28.62 3.2C28.6279 3.01712 28.5696 2.83752 28.4557 2.69422C28.3418 2.55092 28.18 2.45355 28 2.42C27.8717 2.41138 27.7433 2.43636 27.6276 2.49247C27.5118 2.54859 27.4127 2.6339 27.34 2.74C26.34 4 25.56 5.26 24.6 6.38C24.0035 7.14752 23.2957 7.82163 22.5 8.38C21.1588 9.2385 19.592 9.67722 18 9.64C12.52 9.76 12.22 7.2 8.80001 6.36C8.16492 6.19192 7.50226 6.15489 6.8524 6.25116C6.20254 6.34744 5.57908 6.57501 5.02001 6.92C4.41017 7.25806 3.8678 7.70552 3.42001 8.24C3.0162 8.65734 2.76893 9.20134 2.72001 9.78C2.71844 10.0089 2.78836 10.2327 2.92001 10.42C3.12001 10.66 3.66001 11.14 3.72001 11.22C4.0288 11.585 4.30959 11.9727 4.56001 12.38C4.81686 12.7796 5.05058 13.1936 5.26001 13.62C5.75441 14.8326 6.00584 16.1305 6.00001 17.44C6.02145 18.7902 5.85314 20.1367 5.50001 21.44C4.78001 24.16 2.40001 25.8 1.12001 28.22C0.75057 28.9098 0.487596 29.6515 0.340006 30.42C0.194892 30.9393 0.0813509 31.467 6.21378e-06 32C-0.0297872 32.3661 -0.0297872 32.7339 6.21378e-06 33.1C-0.0295413 33.3993 -0.0295413 33.7007 6.21378e-06 34C0.0323345 34.1415 0.0933964 34.2749 0.179406 34.3919C0.265415 34.5089 0.374537 34.6069 0.500006 34.68C0.834199 34.8115 1.20581 34.8115 1.54001 34.68C1.97098 34.5504 2.39206 34.39 2.80001 34.2C3.23802 34.0392 3.68554 33.9056 4.14001 33.8C4.57794 33.7397 5.02207 33.7397 5.46001 33.8L6.88001 34.16C7.39449 34.3437 7.85086 34.6609 8.20231 35.0792C8.55377 35.4974 8.78766 36.0016 8.88001 36.54C9.0428 37.8248 8.9545 39.1289 8.62001 40.38C8.50001 40.96 8.04001 42.04 7.84001 42.94C7.67383 43.5217 7.67383 44.1383 7.84001 44.72C7.87487 44.8738 7.94428 45.0177 8.04296 45.1408C8.14164 45.2638 8.26703 45.3628 8.40962 45.4303C8.55221 45.4977 8.70827 45.5318 8.86599 45.53C9.02372 45.5283 9.17897 45.4906 9.32001 45.42C9.56504 45.3366 9.77587 45.175 9.92001 44.96C9.92001 44.96 10.1 44.6 10.16 44.52L10.72 43.76C10.9552 43.4944 11.2165 43.2532 11.5 43.04C11.9812 42.6792 12.4819 42.3454 13 42.04C14.2124 41.2764 15.5073 40.6525 16.86 40.18C18.2212 39.7174 19.63 39.4088 21.06 39.26C22.1147 39.1334 23.1843 39.2288 24.2 39.54C25.1766 39.8424 26.0539 40.402 26.74 41.16C27.0145 41.4504 27.2621 41.765 27.48 42.1C27.6 42.28 27.72 42.46 27.82 42.64C28.0424 43.3057 28.3662 43.9331 28.78 44.5L28.94 44.7C29.1112 44.8361 29.3154 44.9246 29.5318 44.9563C29.7482 44.9881 29.9692 44.962 30.1723 44.8808C30.3754 44.7995 30.5534 44.666 30.6882 44.4938C30.8231 44.3215 30.9099 44.1167 30.94 43.9C30.9839 43.6637 30.9337 43.4197 30.8 43.22C30.8 43.22 30.66 42.94 30.62 42.86L30.22 42.08C30.22 41.92 30.08 41.74 29.98 41.58C29.7608 40.4364 29.7676 39.261 30 38.12C29.9786 37.3248 30.1647 36.5378 30.54 35.8364C30.9152 35.1351 31.4667 34.5435 32.14 34.12C33.3599 33.6651 34.6814 33.5544 35.96 33.8C37.4953 34.0557 39.0449 34.216 40.6 34.28C42.1787 34.2894 43.7121 33.7523 44.94 32.76L46.94 31.22L47.5 30.9C47.7205 30.7768 47.9004 30.592 48.0176 30.3683C48.1348 30.1445 48.1843 29.8914 48.16 29.64C48.0932 29.3487 47.9309 29.0882 47.699 28.8998C47.467 28.7113 47.1788 28.6058 46.88 28.6ZM43.34 30.86C42.5122 31.4867 41.4981 31.8177 40.46 31.8C39.0102 31.7456 37.5664 31.5852 36.14 31.32C34.4263 31.0153 32.6619 31.1883 31.04 31.82C30.1404 32.2792 29.3619 32.9441 28.7676 33.7608C28.1734 34.5774 27.7802 35.5228 27.62 36.52C27.4897 37.119 27.4094 37.7277 27.38 38.34C26.6883 37.8706 25.9343 37.5004 25.14 37.24C23.7936 36.8315 22.3766 36.7089 20.98 36.88C19.3691 37.072 17.7855 37.4478 16.26 38C14.7628 38.5396 13.3333 39.251 12 40.12L11.08 40.72C11.5639 38.8844 11.5154 36.949 10.94 35.14C10.6474 34.4692 10.2164 33.8676 9.67532 33.3748C9.13422 32.882 8.49519 32.5089 7.80001 32.28C7.46875 32.1573 7.12747 32.0636 6.78001 32C6.41364 31.9026 6.03842 31.8423 5.66001 31.82C5.04232 31.7928 4.42372 31.8465 3.82001 31.98C3.23954 32.1045 2.67079 32.2785 2.12001 32.5H2.00001L2.20001 30.86C2.30514 30.267 2.50075 29.6936 2.78001 29.16C4.06001 26.62 6.48001 24.84 7.20001 21.98C7.6047 20.4876 7.7999 18.9462 7.78001 17.4C7.76584 15.8465 7.42514 14.3133 6.78001 12.9C6.55116 12.4038 6.29062 11.9228 6.00001 11.46C5.70271 11.0104 5.38228 10.5764 5.04001 10.16C5.04001 10.16 4.66001 9.8 4.46001 9.6C4.56166 9.4097 4.68958 9.23465 4.84001 9.08C5.1406 8.77216 5.48416 8.50944 5.86001 8.3C6.24339 8.05133 6.67372 7.88398 7.12438 7.80829C7.57503 7.73261 8.03642 7.75021 8.48001 7.86C11.14 8.5 12.26 11.06 18 11.02C19.8413 11.0501 21.6505 10.5352 23.2 9.54C24.1007 8.93285 24.9148 8.20621 25.62 7.38C26 6.96 26.34 6.52 26.68 6.08C26.6928 6.59501 26.7735 7.10608 26.92 7.6C27.2738 8.9254 27.9626 10.1376 28.92 11.12C29.8533 12.0764 30.9421 12.8676 32.14 13.46C33.24 14 34.34 14.46 35.48 14.9C36.62 15.34 37.74 15.7 38.86 16.06L40.06 16.38L39.76 16.66C38.6993 17.8826 37.9512 19.3445 37.58 20.92C37.1441 22.6232 37.3358 24.4265 38.12 26C38.6558 27.05 39.4052 27.9765 40.32 28.72C41.2169 29.447 42.2315 30.0152 43.32 30.4L43.86 30.54L43.34 30.86Z" fill="black"/>
<path fill-rule="evenodd" clip-rule="evenodd" d="M25.12 28.98C24.9832 29.1185 24.9065 29.3053 24.9065 29.5C24.9065 29.6947 24.9832 29.8815 25.12 30.02C25.2456 30.1986 25.3131 30.4116 25.3131 30.63C25.3131 30.8484 25.2456 31.0614 25.12 31.24C24.8808 31.7172 24.4856 32.0983 24 32.32C23.4613 32.4999 22.8787 32.4999 22.34 32.32C21.7213 32.1819 21.1407 31.9087 20.64 31.52C20.4493 31.4066 20.2915 31.2456 20.1818 31.0527C20.0722 30.8599 20.0145 30.6418 20.0145 30.42C20.0145 30.1982 20.0722 29.9802 20.1818 29.7873C20.2915 29.5945 20.4493 29.4334 20.64 29.32C21.1051 28.8698 21.6897 28.5626 22.3244 28.4349C22.959 28.3073 23.617 28.3646 24.22 28.6C24.3664 28.6907 24.5425 28.7206 24.7107 28.6832C24.8788 28.6458 25.0257 28.5442 25.12 28.4C25.1684 28.3295 25.2023 28.25 25.2195 28.1661C25.2367 28.0823 25.2369 27.9959 25.2201 27.912C25.2033 27.8281 25.1699 27.7484 25.1218 27.6776C25.0737 27.6069 25.0118 27.5465 24.94 27.5C23.9116 26.8823 22.7 26.6422 21.5137 26.821C20.3274 26.9999 19.2406 27.5865 18.44 28.48C18.1058 28.8414 17.8584 29.2742 17.7165 29.7455C17.5745 30.2167 17.5419 30.7142 17.6209 31.2C17.6999 31.6858 17.8886 32.1472 18.1726 32.5492C18.4566 32.9512 18.8285 33.2832 19.26 33.52C20.0787 34.1097 21.0238 34.5001 22.02 34.66C23.0786 34.8157 24.1586 34.6039 25.08 34.06C25.5933 33.7527 26.0366 33.3412 26.381 32.852C26.7255 32.3629 26.9636 31.8069 27.08 31.22C27.1555 30.7858 27.1159 30.3393 26.965 29.9252C26.8141 29.5111 26.5572 29.1438 26.22 28.86C26.1425 28.7898 26.051 28.7369 25.9515 28.7046C25.8521 28.6724 25.747 28.6616 25.643 28.6729C25.5391 28.6842 25.4387 28.7175 25.3486 28.7704C25.2584 28.8233 25.1805 28.8948 25.12 28.98Z" fill="black"/>
</g>
<defs>
<clipPath id="clip0_1210_1944">
<rect width="48" height="48" fill="white"/>
</clipPath>
</defs>
</svg>
