<svg width="48" height="48" viewBox="0 0 48 48" fill="none" xmlns="http://www.w3.org/2000/svg">
<path d="M27 25.5C27 29.696 27.26 34.688 27.515 38.57C27.775 42.52 30.401 45.816 34.355 45.97C36.1238 46.0365 37.895 45.9965 39.659 45.85C43.045 45.568 45.558 43.046 45.812 39.658C45.9436 37.8043 46.0063 35.9464 46 34.088C46 24.523 44 15.01 33.32 13.001C30 12.376 26.75 12.998 26.75 12.998" stroke="black" stroke-width="3" stroke-linecap="round" stroke-linejoin="round"/>
<path d="M21 25.5C21 29.696 20.74 34.688 20.485 38.57C20.225 42.52 17.599 45.816 13.645 45.97C11.8762 46.0365 10.105 45.9965 8.34099 45.85C4.95499 45.568 2.44199 43.046 2.18799 39.658C2.05625 37.8043 1.99354 35.9464 1.99999 34.088C1.99999 24.523 3.99999 15.01 14.68 13.001C18 12.376 21.25 12.998 21.25 12.998" stroke="black" stroke-width="3" stroke-linecap="round" stroke-linejoin="round"/>
<path d="M21 3C21 3 21.405 8.393 21.486 15.926C21.503 17.54 20.721 19.061 19.311 19.846C17.824 20.674 15.676 21.722 13.17 22.5M27 3C27 3 26.595 8.39 26.514 15.926C26.497 17.54 27.279 19.061 28.694 19.839C30.6978 20.9427 32.8112 21.8345 35 22.5" stroke="black" stroke-width="3" stroke-linecap="round" stroke-linejoin="round"/>
<path d="M14 29.001C16.723 28.321 20.371 25.923 22.423 24.461C22.8832 24.1353 23.4332 23.9604 23.997 23.9604C24.5608 23.9604 25.1108 24.1353 25.571 24.461C27.625 25.923 31.277 28.321 34 29.001" stroke="black" stroke-width="3" stroke-linecap="round" stroke-linejoin="round"/>
</svg>
