<svg width="48" height="48" viewBox="0 0 48 48" fill="none" xmlns="http://www.w3.org/2000/svg">
<g clip-path="url(#clip0_1209_6720)">
<path d="M6.25165 6.75002L10.3341 12.8259C2.22665 21.7959 14.8766 46.0417 24.46 46.0417C34.0433 46.0417 47.92 21.2209 38.7391 12.1934L41.595 4.69919" stroke="black" stroke-width="2" stroke-linecap="round" stroke-linejoin="round"/>
<path d="M21.47 1.95834V6.55834C19.2564 6.57484 17.1091 7.31531 15.3558 8.66668L12.0591 3.87501" stroke="black" stroke-width="2" stroke-linecap="round" stroke-linejoin="round"/>
<path d="M35.2125 2.91668L33.2958 8.07251C31.7651 7.13058 30.0133 6.60834 28.2167 6.55834V1.95834" stroke="black" stroke-width="2" stroke-linecap="round" stroke-linejoin="round"/>
<path d="M8.13 24.6708C16.6592 22.5817 13.88 23.9808 20.5308 16.8508" stroke="black" stroke-width="2" stroke-linecap="round" stroke-linejoin="round"/>
<path d="M17.1766 20.4925L19.2275 24" stroke="black" stroke-width="2" stroke-linecap="round" stroke-linejoin="round"/>
<path d="M30.3442 6.84586L29.1367 8.66669C28.5394 9.51376 28.2317 10.5311 28.2593 11.5671C28.287 12.6032 28.6485 13.6027 29.29 14.4167" stroke="black" stroke-width="2" stroke-linecap="round" stroke-linejoin="round"/>
<path d="M41.7292 21.125H37.5317C35.8861 21.1058 34.288 21.677 33.0275 22.735L30.4208 24.9583" stroke="black" stroke-width="2" stroke-linecap="round" stroke-linejoin="round"/>
<path d="M34.465 39.3333L32.0692 38.9308C31.2241 38.7965 30.4142 38.4951 29.6869 38.0443C28.9597 37.5934 28.3295 37.0021 27.8333 36.305L25.4567 32.625" stroke="black" stroke-width="2" stroke-linecap="round" stroke-linejoin="round"/>
<path d="M11.0625 33.43L20.0325 34.5417" stroke="black" stroke-width="2" stroke-linecap="round" stroke-linejoin="round"/>
</g>
<defs>
<clipPath id="clip0_1209_6720">
<rect width="48" height="48" fill="white"/>
</clipPath>
</defs>
</svg>
