<svg width="48" height="48" viewBox="0 0 48 48" fill="none" xmlns="http://www.w3.org/2000/svg">
<g clip-path="url(#clip0_1209_6740)">
<path d="M18.4819 37.6486C17.9515 38.1978 17.317 38.6358 16.6155 38.9372C15.914 39.2385 15.1595 39.3971 14.396 39.4038C13.6325 39.4104 12.8753 39.2649 12.1687 38.9758C11.462 38.6867 10.82 38.2597 10.2801 37.7199C9.74026 37.18 9.31331 36.538 9.02419 35.8313C8.73508 35.1247 8.58959 34.3675 8.59623 33.604C8.60286 32.8405 8.76148 32.086 9.06283 31.3845C9.36418 30.683 9.80223 30.0485 10.3514 29.5181L26.2176 13.65L34.35 21.7824L18.4819 37.6486Z" stroke="black" stroke-width="2" stroke-linecap="round" stroke-linejoin="round"/>
<path d="M1.95834 46.0417L10.3514 37.6486" stroke="black" stroke-width="2" stroke-linecap="round" stroke-linejoin="round"/>
<path d="M30.2828 17.7172L37.8613 10.1387" stroke="black" stroke-width="2" stroke-linecap="round" stroke-linejoin="round"/>
<path d="M19.4402 13.65C18.7702 12.9798 18.314 12.126 18.1292 11.1966C17.9444 10.2671 18.0394 9.30372 18.4021 8.42823C18.7648 7.55275 19.379 6.80446 20.1669 6.278C20.9549 5.75154 21.8813 5.47055 22.8289 5.47055C23.7766 5.47055 24.7029 5.75154 25.4909 6.278C26.2788 6.80446 26.893 7.55275 27.2557 8.42823C27.6184 9.30372 27.7134 10.2671 27.5286 11.1966C27.3438 12.126 26.8876 12.9798 26.2176 13.65" stroke="black" stroke-width="2" stroke-linecap="round" stroke-linejoin="round"/>
<path d="M34.35 28.5598C35.0202 29.2298 35.874 29.686 36.8034 29.8708C37.7329 30.0556 38.6963 29.9606 39.5718 29.5979C40.4472 29.2352 41.1955 28.621 41.722 27.8331C42.2484 27.0451 42.5294 26.1187 42.5294 25.1711C42.5294 24.2234 42.2484 23.2971 41.722 22.5091C41.1955 21.7212 40.4472 21.107 39.5718 20.7443C38.6963 20.3816 37.7329 20.2866 36.8034 20.4714C35.874 20.6562 35.0202 21.1124 34.35 21.7824" stroke="black" stroke-width="2" stroke-linecap="round" stroke-linejoin="round"/>
<path d="M19.837 20.0306L27.9694 28.163" stroke="black" stroke-width="2" stroke-linecap="round" stroke-linejoin="round"/>
<path d="M15.7718 24.0958L17.8053 26.1294" stroke="black" stroke-width="2" stroke-linecap="round" stroke-linejoin="round"/>
<path d="M11.7065 28.163L13.7382 30.1947" stroke="black" stroke-width="2" stroke-linecap="round" stroke-linejoin="round"/>
<path d="M36.4583 6.75001C36.4583 7.37926 36.5823 8.00235 36.8231 8.5837C37.0639 9.16505 37.4168 9.69328 37.8618 10.1382C38.3067 10.5832 38.835 10.9361 39.4163 11.1769C39.9977 11.4177 40.6207 11.5417 41.25 11.5417C41.8793 11.5417 42.5023 11.4177 43.0837 11.1769C43.665 10.9361 44.1933 10.5832 44.6382 10.1382C45.0832 9.69328 45.4361 9.16505 45.6769 8.5837C45.9177 8.00235 46.0417 7.37926 46.0417 6.75001C46.0417 6.12076 45.9177 5.49767 45.6769 4.91632C45.4361 4.33497 45.0832 3.80674 44.6382 3.36179C44.1933 2.91684 43.665 2.56389 43.0837 2.32309C42.5023 2.08228 41.8793 1.95834 41.25 1.95834C40.6207 1.95834 39.9977 2.08228 39.4163 2.32309C38.835 2.56389 38.3067 2.91684 37.8618 3.36179C37.4168 3.80674 37.0639 4.33497 36.8231 4.91632C36.5823 5.49767 36.4583 6.12076 36.4583 6.75001Z" stroke="black" stroke-width="2" stroke-linecap="round" stroke-linejoin="round"/>
</g>
<defs>
<clipPath id="clip0_1209_6740">
<rect width="48" height="48" fill="white"/>
</clipPath>
</defs>
</svg>
