<svg width="48" height="48" viewBox="0 0 48 48" fill="none" xmlns="http://www.w3.org/2000/svg">
<g clip-path="url(#clip0_1210_1888)">
<path fill-rule="evenodd" clip-rule="evenodd" d="M22.86 16.86C23.44 17.4 24.08 17.88 24.7 18.36C25.64 19.1 26.7 19.74 27.52 20.56C27.5876 20.6425 27.6709 20.7107 27.7652 20.7605C27.8595 20.8103 27.9628 20.8407 28.069 20.85C28.1752 20.8593 28.2822 20.8473 28.3837 20.8147C28.4852 20.7821 28.5791 20.7295 28.66 20.66C28.7446 20.5921 28.8148 20.5081 28.8667 20.4128C28.9186 20.3176 28.951 20.213 28.9622 20.1051C28.9733 19.9972 28.963 19.8882 28.9317 19.7843C28.9004 19.6805 28.8489 19.5838 28.78 19.5C28.1199 18.4382 27.3706 17.4346 26.54 16.5C26.1782 16.1018 25.7907 15.7277 25.38 15.38C24.9861 15.0272 24.5647 14.7062 24.12 14.42C23.56 14.08 22.98 13.82 22.4 13.54C21.08 13 20.4 14.14 20.98 14.94C20.98 14.94 22.18 16.24 22.86 16.86Z" fill="black"/>
<path fill-rule="evenodd" clip-rule="evenodd" d="M46.42 26.18C44.4067 23.7267 42.2667 21.3534 40 19.06C39.14 18.18 38.24 17.38 37.36 16.54C37.7 16.3 38.04 16.1 38.34 15.84C38.64 15.58 38.82 15.44 39.04 15.22C39.26 15 39.44 14.76 39.62 14.52C39.8 14.28 40.28 13.44 40.62 12.88L42.2 14.24C42.3563 14.3892 42.564 14.4724 42.78 14.4724C42.996 14.4724 43.2038 14.3892 43.36 14.24C43.4278 14.155 43.478 14.0573 43.5076 13.9527C43.5373 13.8481 43.5459 13.7387 43.5329 13.6307C43.5198 13.5228 43.4855 13.4185 43.4318 13.324C43.378 13.2294 43.3061 13.1465 43.22 13.08L40.46 9.44003C39.5671 8.44063 38.6119 7.49875 37.6 6.62003C36.0194 5.40316 34.3772 4.26833 32.68 3.22003C32.6078 3.15831 32.5241 3.11142 32.4338 3.08204C32.3434 3.05266 32.2482 3.04136 32.1535 3.04878C32.0587 3.05621 31.9664 3.08223 31.8818 3.12533C31.7971 3.16844 31.7217 3.22781 31.66 3.30003C31.5983 3.37226 31.5514 3.45594 31.522 3.54629C31.4926 3.63664 31.4813 3.73189 31.4888 3.8266C31.4962 3.92132 31.5222 4.01364 31.5653 4.09831C31.6084 4.18297 31.6678 4.25831 31.74 4.32003C32.3 4.92003 32.86 5.50003 33.4 6.10003C32.9645 6.32668 32.5437 6.58051 32.14 6.86003C31.8799 7.06452 31.6328 7.28494 31.4 7.52003C31.1828 7.76636 30.9824 8.02694 30.8 8.30003C30.4673 8.78358 30.1602 9.28427 29.88 9.80003C28.72 8.82003 27.58 7.80003 26.36 6.90003C24.7763 5.69456 23.0899 4.63048 21.32 3.72003C21.2384 3.66198 21.1456 3.62159 21.0475 3.60145C20.9494 3.5813 20.8482 3.58184 20.7503 3.60303C20.6524 3.62422 20.5601 3.66559 20.4791 3.72451C20.3981 3.78342 20.3303 3.85858 20.28 3.94519C20.2297 4.03179 20.1981 4.12793 20.187 4.22747C20.176 4.327 20.1859 4.42775 20.216 4.52325C20.2461 4.61876 20.2958 4.70694 20.3619 4.78215C20.4281 4.85735 20.5092 4.91794 20.6 4.96003C21.9338 5.8865 23.2034 6.90215 24.4 8.00003C24.2312 8.00862 24.0698 8.07178 23.94 8.18003C19.5845 11.932 15.4947 15.9817 11.7 20.3C9.12731 23.3663 7.26907 26.9667 6.26003 30.84C6.01256 32.3059 6.06207 33.8066 6.40563 35.253C6.74919 36.6994 7.3798 38.062 8.26003 39.26C7.52003 39.8 6.78003 40.32 6.08003 40.94C5.38003 41.56 5.26003 41.72 4.86003 42.12C4.46003 42.52 4.14003 42.98 3.80003 43.42C2.98003 44.48 2.28003 45.6 1.54003 46.72C1.46028 46.8011 1.39827 46.8978 1.35792 47.0041C1.31758 47.1105 1.29978 47.224 1.30566 47.3375C1.31155 47.4511 1.34098 47.5622 1.3921 47.6637C1.44321 47.7653 1.51489 47.8551 1.60258 47.9275C1.69027 47.9999 1.79206 48.0532 1.90147 48.0842C2.01089 48.1151 2.12554 48.123 2.23815 48.1072C2.35076 48.0915 2.45886 48.0525 2.55559 47.9927C2.65232 47.9329 2.73556 47.8537 2.80003 47.76C3.76003 46.88 4.80002 46.06 5.70003 45.16C6.12428 44.7993 6.52509 44.4118 6.90003 44C7.29489 43.5843 7.66233 43.1434 8.00003 42.68C8.56003 42 9.02003 41.28 9.52003 40.56C10.4079 41.4985 11.498 42.2222 12.7074 42.6762C13.9169 43.1301 15.214 43.3025 16.5 43.18C18.4669 42.8984 20.346 42.1809 22 41.08C24.3069 39.551 26.4337 37.7664 28.34 35.76C29.5534 34.5734 30.7534 33.3734 31.94 32.16C34.68 29.32 37.34 26.42 40.06 23.58C40.1356 23.5056 40.1956 23.4169 40.2366 23.319C40.2776 23.2212 40.2987 23.1161 40.2987 23.01C40.2987 22.9039 40.2776 22.7989 40.2366 22.7011C40.1956 22.6032 40.1356 22.5145 40.06 22.44C39.9835 22.3608 39.8919 22.2978 39.7905 22.2547C39.6892 22.2117 39.5802 22.1895 39.47 22.1895C39.3599 22.1895 39.2509 22.2117 39.1495 22.2547C39.0482 22.2978 38.9565 22.3608 38.88 22.44C36.48 24.8 34.1 27.2 31.68 29.54C30.1 31.1 28.46 32.62 26.82 34.14C24.9375 35.9313 22.8882 37.5386 20.7 38.94C19.329 39.7797 17.7951 40.3183 16.2 40.52C15.1062 40.5824 14.0153 40.3566 13.0361 39.8653C12.0569 39.3739 11.2238 38.6342 10.62 37.72C9.91156 36.8355 9.39461 35.8134 9.10197 34.7186C8.80933 33.6238 8.74737 32.4801 8.92003 31.36C9.38727 27.7154 10.9735 24.3054 13.46 21.6C17.0265 17.2144 20.8675 13.0594 24.96 9.16003C25.0389 9.07167 25.0948 8.96521 25.1227 8.85008C25.1506 8.73495 25.1497 8.61472 25.12 8.50003C27.24 10.5 29.26 12.5 31.28 14.5C32.56 15.68 33.86 16.88 35.28 18.06C37.28 19.82 39.28 21.52 41.28 23.32C42.66 24.58 44.02 25.9 45.28 27.32C45.3562 27.3962 45.4466 27.4567 45.5461 27.4979C45.6456 27.5392 45.7523 27.5604 45.86 27.5604C45.9678 27.5604 46.0744 27.5392 46.1739 27.4979C46.2735 27.4567 46.3639 27.3962 46.44 27.32C46.5143 27.2443 46.5728 27.1545 46.6121 27.0559C46.6513 26.9573 46.6706 26.8519 46.6687 26.7458C46.6669 26.6398 46.6439 26.5351 46.6012 26.438C46.5585 26.3408 46.4969 26.2531 46.42 26.18ZM36.42 14C36.22 14.34 36.02 14.68 35.84 15.02L33.14 12.42C32.56 11.94 31.94 11.46 31.36 10.96C31.8 10.66 32.24 10.36 32.68 10.02C32.938 9.83517 33.1789 9.62768 33.4 9.40003C33.6236 9.18796 33.8246 8.95338 34 8.70003C34.2608 8.32036 34.4883 7.91886 34.68 7.50003C35.04 7.88003 35.38 8.30003 35.76 8.66003C36.7 9.56003 37.76 10.36 38.68 11.22L39.36 11.8C38.7902 12.0266 38.2469 12.315 37.74 12.66C37.4724 12.8478 37.2303 13.0697 37.02 13.32C36.8017 13.5299 36.601 13.7573 36.42 14Z" fill="black"/>
<path fill-rule="evenodd" clip-rule="evenodd" d="M16.54 21.46C16.7926 21.6966 17.0598 21.9171 17.34 22.12L18.22 22.66C18.94 23.06 19.66 23.38 20.42 23.82C20.4997 23.8922 20.5933 23.9471 20.6952 23.9813C20.797 24.0155 20.9048 24.0284 21.0119 24.019C21.1189 24.0096 21.2228 23.9782 21.3172 23.9268C21.4115 23.8753 21.4942 23.8049 21.56 23.72C21.6387 23.6453 21.7013 23.5553 21.7442 23.4556C21.787 23.3559 21.809 23.2485 21.809 23.14C21.809 23.0315 21.787 22.9241 21.7442 22.8244C21.7013 22.7247 21.6387 22.6348 21.56 22.56C21.0466 21.8612 20.4923 21.1934 19.9 20.56C19.6388 20.299 19.358 20.0583 19.06 19.84C18.7322 19.6087 18.3759 19.4205 18 19.28C17.6183 19.104 17.2238 18.9569 16.82 18.84C16 18.38 15 19.7 15.5 20.4C15.8256 20.7734 16.1729 21.1274 16.54 21.46Z" fill="black"/>
<path fill-rule="evenodd" clip-rule="evenodd" d="M12.84 27.84C13.42 28.3 14.04 28.72 14.64 29.14C15.56 29.8 16.5 30.38 17.38 31.14C17.4549 31.2201 17.5448 31.2847 17.6446 31.33C17.7444 31.3754 17.8522 31.4007 17.9617 31.4044C18.0713 31.4081 18.1805 31.3902 18.2832 31.3517C18.3858 31.3132 18.4799 31.2549 18.56 31.18C18.6401 31.1051 18.7047 31.0152 18.7501 30.9154C18.7954 30.8156 18.8207 30.7079 18.8244 30.5983C18.8281 30.4887 18.8102 30.3795 18.7717 30.2768C18.7332 30.1742 18.6749 30.0801 18.6 30C17.9564 28.9995 17.2198 28.062 16.4 27.2C16.0374 26.8336 15.6498 26.4928 15.24 26.18C14.8509 25.8717 14.436 25.5974 14 25.36C13.4628 25.0958 12.9082 24.8686 12.34 24.68C12.1095 24.6098 11.862 24.6203 11.6382 24.7096C11.4145 24.7989 11.2278 24.9618 11.109 25.1714C10.9902 25.3811 10.9464 25.6249 10.9848 25.8628C11.0231 26.1006 11.1414 26.3183 11.32 26.48C11.78 26.94 12.3 27.4 12.84 27.84Z" fill="black"/>
<path fill-rule="evenodd" clip-rule="evenodd" d="M33.28 3.00002C33.7842 2.63444 34.3668 2.39163 34.9813 2.29094C35.5959 2.19025 36.2255 2.23445 36.82 2.42002C37.7243 2.72407 38.5649 3.19185 39.3 3.80002C40.1156 4.36273 40.8493 5.0358 41.48 5.80002C42.0686 6.45269 42.5118 7.22306 42.78 8.06002C42.9437 8.50545 42.9437 8.99459 42.78 9.44002C42.7196 9.52932 42.6774 9.62964 42.6557 9.73526C42.6341 9.84088 42.6335 9.94972 42.6539 10.0556C42.6743 10.1614 42.7154 10.2622 42.7748 10.3522C42.8342 10.4422 42.9107 10.5196 43 10.58C43.0893 10.6404 43.1896 10.6827 43.2952 10.7043C43.4009 10.7259 43.5097 10.7265 43.6156 10.7061C43.7214 10.6857 43.8222 10.6446 43.9122 10.5852C44.0022 10.5258 44.0796 10.4493 44.14 10.36C44.6778 9.607 44.9068 8.67663 44.78 7.76002C44.6338 6.56798 44.2312 5.42173 43.6 4.40002C43.1658 3.66527 42.6343 2.99252 42.02 2.40002C41.0737 1.48738 39.9313 0.803269 38.68 0.400019C37.5824 -0.0311497 36.3776 -0.108726 35.2337 0.178127C34.0899 0.464979 33.0642 1.10193 32.3 2.00002C32.1692 2.13758 32.0962 2.32017 32.0962 2.51002C32.0962 2.69987 32.1692 2.88246 32.3 3.02002C32.4357 3.14104 32.6121 3.20624 32.7939 3.20253C32.9757 3.19882 33.1494 3.12648 33.28 3.00002Z" fill="black"/>
</g>
<defs>
<clipPath id="clip0_1210_1888">
<rect width="48" height="48" fill="white"/>
</clipPath>
</defs>
</svg>
