<svg width="48" height="48" viewBox="0 0 48 48" fill="none" xmlns="http://www.w3.org/2000/svg">
<path d="M19.515 31.103C16.305 34.593 16.058 39.228 19.411 42.581C22.765 45.934 27.4 45.688 30.891 42.478C32.8982 40.622 34.8666 38.7246 36.795 36.787C38.7324 34.8583 40.6294 32.8895 42.485 30.882C45.696 27.392 45.942 22.757 42.589 19.404C39.236 16.05 34.601 16.297 31.11 19.507C29.1028 21.3629 27.1344 23.2603 25.206 25.198C23.2684 27.1268 21.371 29.0955 19.515 31.103Z" stroke="black" stroke-width="3" stroke-linecap="round" stroke-linejoin="round"/>
<path d="M36.797 36.788L36.794 36.791L25.205 25.202L25.208 25.199" stroke="black" stroke-width="3" stroke-linecap="round" stroke-linejoin="round"/>
<path d="M3 13C3 15.6522 4.05357 18.1957 5.92893 20.0711C7.8043 21.9464 10.3478 23 13 23C15.6522 23 18.1957 21.9464 20.0711 20.0711C21.9464 18.1957 23 15.6522 23 13C23 10.3478 21.9464 7.8043 20.0711 5.92893C18.1957 4.05357 15.6522 3 13 3C10.3478 3 7.8043 4.05357 5.92893 5.92893C4.05357 7.8043 3 10.3478 3 13Z" stroke="black" stroke-width="3" stroke-linecap="round" stroke-linejoin="round"/>
<path d="M23 13H3" stroke="black" stroke-width="3" stroke-linecap="round"/>
</svg>
