<svg width="48" height="48" viewBox="0 0 48 48" fill="none" xmlns="http://www.w3.org/2000/svg">
<g clip-path="url(#clip0_1210_1895)">
<path fill-rule="evenodd" clip-rule="evenodd" d="M39.1 35.26C38.9642 36.3174 38.6533 37.3448 38.18 38.3C36.8281 40.8475 34.6483 42.8581 32 44C29.4455 45.2824 26.5205 45.6224 23.74 44.96C22.6604 44.5916 21.6474 44.0513 20.74 43.36C20.18 42.96 19.64 42.52 19.1 42.08C20.8746 39.3217 21.8761 36.1375 22 32.86C23.3507 32.8603 24.6668 32.4332 25.76 31.64C27.1479 30.4556 28.3305 29.05 29.26 27.48L32.42 22.2C32.5302 21.9239 32.5302 21.6161 32.42 21.34C32.3203 21.0589 32.1211 20.8242 31.86 20.68L31.12 20.32L31.92 18.32C32.3934 17.0199 32.7547 15.6817 33 14.32C33.2438 12.8936 33.3043 11.4418 33.18 10C33.1961 8.92643 32.9054 7.87057 32.3421 6.95652C31.7787 6.04246 30.9662 5.30819 30 4.84H29.64C29.6554 4.10241 29.4833 3.37298 29.14 2.72C28.6097 1.72788 27.8566 0.872158 26.94 0.219999C26.8123 0.117756 26.6536 0.0620487 26.49 0.0620487C26.3264 0.0620487 26.1677 0.117756 26.04 0.219999C26.04 0.219999 25.06 1.26 24.42 2.22C24.1528 2.60963 23.9752 3.05359 23.9 3.52C23.8084 4.29731 23.8084 5.08269 23.9 5.86C23.9994 6.49215 24.2536 7.0899 24.64 7.6C24.8038 7.85569 25.0193 8.07433 25.2725 8.24192C25.5257 8.4095 25.8112 8.52233 26.1106 8.57317C26.41 8.62401 26.7167 8.61174 27.011 8.53714C27.3054 8.46255 27.5809 8.32728 27.82 8.14C28.5093 7.61971 29.0534 6.93103 29.4 6.14H29.52C29.9697 6.44477 30.3402 6.85226 30.6011 7.32874C30.8619 7.80522 31.0055 8.33698 31.02 8.88C31.1897 10.3351 31.1897 11.8049 31.02 13.26C30.88 14.98 30.72 16.64 30.5 17.8L30.06 19.8L29.02 19.34C28.7662 19.2189 28.4835 19.1716 28.2042 19.2034C27.9248 19.2352 27.66 19.3449 27.44 19.52C27.22 19.8 25.54 22.78 24.14 25.08C23.6987 25.8186 23.218 26.533 22.7 27.22C22.28 27.7 21.92 27.84 21.54 27.68C20.6116 27.0671 19.8325 26.2538 19.26 25.3L15.26 19.74C15.2063 19.651 15.1298 19.5781 15.0383 19.5289C14.9468 19.4796 14.8438 19.4558 14.74 19.46C14.492 19.4576 14.2443 19.4777 14 19.52C13.82 18.52 13.68 17.52 13.58 16.48C13.4332 14.8511 13.3864 13.2147 13.44 11.58C13.3919 10.5432 13.4522 9.50424 13.62 8.48C13.6316 7.88717 13.7607 7.30254 14 6.76C14.2895 6.35852 14.6744 6.03546 15.12 5.82C15.4868 5.64656 15.8683 5.50601 16.26 5.4C16.2504 5.56653 16.2504 5.73347 16.26 5.9C16.34 6.53945 16.5732 7.1501 16.94 7.68C17.0837 7.96144 17.2921 8.20482 17.548 8.39019C17.804 8.57556 18.1002 8.69764 18.4124 8.74642C18.7247 8.79521 19.044 8.76931 19.3443 8.67086C19.6446 8.5724 19.9173 8.40418 20.14 8.18C21.1126 7.34475 21.7691 6.20107 22 4.94C22.0479 4.11632 21.8753 3.29477 21.5 2.56C20.9951 1.55209 20.2624 0.675615 19.36 -1.15857e-06C19.2053 -0.0583492 19.0347 -0.0583492 18.88 -1.15484e-06C18.7059 0.0181718 18.5434 0.0958813 18.42 0.219999C17.8373 0.845632 17.3025 1.51418 16.82 2.22C16.5664 2.6147 16.3963 3.0571 16.32 3.52V4.14C15.6338 4.20346 14.9603 4.36511 14.32 4.62C13.7305 4.83948 13.1975 5.18798 12.76 5.64C12.1542 6.31239 11.7217 7.12251 11.5 8C11.2232 9.17912 11.1022 10.3894 11.14 11.6C11.2056 13.0754 11.3659 14.5451 11.62 16C11.873 17.3521 12.2069 18.6879 12.62 20C12.4007 20.0877 12.202 20.2201 12.0367 20.3889C11.8715 20.5576 11.7431 20.7589 11.66 20.98C12.5043 24.1116 14.0809 26.9976 16.26 29.4C17.4429 30.8813 19.0049 32.0147 20.78 32.68C20.6241 35.685 19.664 38.5929 18 41.1C16.7538 39.9167 15.4163 38.8333 14 37.86C12.6902 37.0154 11.2188 36.4529 9.67955 36.2084C8.14033 35.9639 6.56705 36.0428 5.05999 36.44C3.97856 36.8524 3.04584 37.5799 2.3826 38.5284C1.71935 39.4769 1.35614 40.6027 1.33999 41.76C1.21098 42.6399 1.31065 43.5381 1.62941 44.3683C1.94817 45.1985 2.47528 45.9326 3.15999 46.5C4.17077 47.1862 5.31417 47.6529 6.51643 47.8699C7.71869 48.0869 8.95309 48.0495 10.14 47.76C12.9736 47.1622 15.5805 45.7756 17.66 43.76C18.2366 44.2497 18.8374 44.7103 19.46 45.14C20.5612 45.9321 21.7838 46.5401 23.08 46.94C26.3333 47.6488 29.7324 47.1885 32.68 45.64C35.6649 44.2881 38.0941 41.9507 39.56 39.02C40.0592 37.91 40.383 36.7293 40.52 35.52C40.6097 34.3818 40.6097 33.2382 40.52 32.1C40.4 31.26 39.2 31.42 39.28 32.38C39.3082 33.3435 39.2479 34.3075 39.1 35.26ZM27.76 4.78C27.5993 5.22705 27.3473 5.63573 27.02 5.98C26.8 6.26 26.54 6.68 26.26 6.34C26.0093 6.04285 25.8435 5.68355 25.78 5.3C25.6861 4.77775 25.626 4.24999 25.6 3.72C25.6713 3.38995 25.8073 3.07728 26 2.8C26.2009 2.41576 26.4212 2.04195 26.66 1.68C27.0316 2.05598 27.3421 2.48789 27.58 2.96C27.8483 3.5277 27.9119 4.17074 27.76 4.78ZM18.38 2.66C18.5595 2.28252 18.7598 1.91529 18.98 1.56C19.31 1.95163 19.5921 2.38135 19.82 2.84C20.1051 3.42286 20.1962 4.08164 20.08 4.72C19.9311 5.18767 19.6934 5.62226 19.38 6C19.2554 6.1546 19.1146 6.2954 18.96 6.42H18.86L18.76 6.3C18.5229 5.97428 18.3653 5.59755 18.3 5.2C18.2109 4.66412 18.1575 4.12294 18.14 3.58C18.1486 3.25902 18.2307 2.94428 18.38 2.66ZM17.52 28.2C15.9357 26.4744 14.5903 24.5438 13.52 22.46C13.32 22.04 13.14 21.7 13.06 21.46C13.36 21.46 13.92 20.96 14.42 20.76L18 26.12C18.6853 27.3066 19.6202 28.3302 20.74 29.12C21.2764 29.4041 21.8984 29.4817 22.4882 29.3379C23.0779 29.1942 23.5945 28.8391 23.94 28.34C24.5761 27.6081 25.1514 26.8255 25.66 26C26.74 24.42 27.94 22.44 28.58 21.44L29.84 22.06L27.36 26.18C26.6029 27.6103 25.6088 28.9019 24.42 30C23.6812 30.5759 22.7765 30.8985 21.84 30.92C20.44 30.96 18.94 29.72 17.52 28.2ZM9.71999 46C8.17934 46.309 6.58011 46.1126 5.15999 45.44C4.54504 45.1249 4.04776 44.6203 3.74163 44.0009C3.4355 43.3814 3.33675 42.6799 3.45999 42C3.45149 41.2643 3.65673 40.542 4.05081 39.9207C4.44489 39.2994 5.01085 38.8059 5.67999 38.5C6.86729 38.2155 8.10073 38.1806 9.30223 38.3974C10.5037 38.6143 11.6471 39.0783 12.66 39.76C14.0129 40.6395 15.2906 41.6296 16.48 42.72C14.5676 44.4089 12.2301 45.5431 9.71999 46Z" fill="black"/>
<path fill-rule="evenodd" clip-rule="evenodd" d="M45.28 20.36C44.5564 19.5206 43.6458 18.8627 42.6216 18.4394C41.5974 18.0161 40.488 17.8392 39.3829 17.9229C38.2778 18.0065 37.2078 18.3484 36.259 18.9211C35.3101 19.4938 34.509 20.2812 33.92 21.22C33.1552 22.2856 32.7607 23.5725 32.7968 24.8837C32.8329 26.1949 33.2977 27.4581 34.12 28.48C34.3836 28.7836 34.6786 29.0585 35 29.3C35.447 29.6222 35.9223 29.9034 36.42 30.14C36.8396 30.3458 37.2742 30.5196 37.72 30.66C38.7083 30.9509 39.749 31.0174 40.7663 30.8548C41.7835 30.6922 42.7517 30.3045 43.6 29.72C44.9913 28.8883 46.0138 27.5583 46.46 26C46.7055 25.0321 46.7269 24.0209 46.5224 23.0435C46.3179 22.0661 45.893 21.1483 45.28 20.36ZM44.62 25.52C44.209 26.5355 43.4506 27.3719 42.48 27.88C41.5342 28.4692 40.4336 28.7618 39.32 28.72C38.9937 28.7007 38.6711 28.6402 38.36 28.54C38.015 28.4465 37.68 28.3192 37.36 28.16C37.0325 28.0215 36.7179 27.8542 36.42 27.66C36.1564 27.5064 35.9199 27.3104 35.72 27.08C35.0931 26.4171 34.7117 25.5599 34.6389 24.6505C34.5661 23.7411 34.8065 22.8341 35.32 22.08C35.6953 21.2819 36.2734 20.5962 36.9966 20.0914C37.7198 19.5867 38.5628 19.2806 39.4414 19.2036C40.32 19.1267 41.2034 19.2817 42.0033 19.6531C42.8033 20.0244 43.4918 20.5992 44 21.32C44.4185 21.9256 44.6921 22.6194 44.7996 23.3477C44.9071 24.076 44.8457 24.8193 44.62 25.52Z" fill="black"/>
<path fill-rule="evenodd" clip-rule="evenodd" d="M36.78 22.62C36.3469 23.1701 36.1115 23.8499 36.1115 24.55C36.1115 25.2501 36.3469 25.9299 36.78 26.48C36.9198 26.6531 37.0811 26.8077 37.26 26.94C37.4832 27.1125 37.7247 27.2601 37.98 27.38C38.2449 27.5073 38.519 27.6143 38.8 27.7L39.44 27.8C40.2607 27.8299 41.0707 27.6064 41.76 27.16C42.1637 26.9101 42.5087 26.576 42.7715 26.1806C43.0342 25.7852 43.2086 25.3378 43.2826 24.8688C43.3567 24.3999 43.3287 23.9205 43.2005 23.4633C43.0723 23.0062 42.8471 22.5821 42.54 22.22C42.157 21.8258 41.6925 21.5198 41.1791 21.3235C40.6656 21.1272 40.1156 21.0452 39.5672 21.0833C39.0188 21.1214 38.4854 21.2786 38.004 21.544C37.5226 21.8094 37.1049 22.1766 36.78 22.62ZM41.4 24.62C41.2374 24.9286 40.9772 25.1748 40.66 25.32C40.3397 25.5102 39.9725 25.6072 39.6 25.6L38.94 25.4L38.4 25.1C38.1865 24.8945 38.0472 24.6241 38.0037 24.3309C37.9603 24.0378 38.0153 23.7386 38.16 23.48C38.2669 23.1669 38.4617 22.8913 38.7212 22.6861C38.9808 22.481 39.2939 22.355 39.6232 22.3234C39.9525 22.2917 40.284 22.3557 40.5778 22.5076C40.8717 22.6596 41.1155 22.893 41.28 23.18C41.4073 23.3955 41.4841 23.6369 41.5049 23.8863C41.5257 24.1356 41.4898 24.3865 41.4 24.62Z" fill="black"/>
</g>
<defs>
<clipPath id="clip0_1210_1895">
<rect width="48" height="48" fill="white"/>
</clipPath>
</defs>
</svg>
