<svg width="48" height="48" viewBox="0 0 48 48" fill="none" xmlns="http://www.w3.org/2000/svg">
<path d="M3.586 14.236C3.796 12.103 5.256 10.388 7.371 10.04C10.353 9.548 15.57 9 24 9C32.43 9 37.647 9.548 40.63 10.04C42.744 10.388 44.205 12.103 44.414 14.236C44.69 17.033 45 21.426 45 27C45 32.574 44.69 36.967 44.414 39.764C44.204 41.897 42.744 43.612 40.629 43.96C37.647 44.452 32.43 45 24 45C15.57 45 10.354 44.452 7.37 43.96C5.256 43.612 3.795 41.897 3.586 39.764C3.31 36.967 3 32.574 3 27C3 21.427 3.31 17.033 3.586 14.236Z" stroke="black" stroke-width="3" stroke-linecap="round" stroke-linejoin="round"/>
<path d="M20.12 34.978C20.154 35.927 20.758 36.733 21.699 36.86C22.281 36.939 23.042 37 24 37C24.958 37 25.719 36.939 26.301 36.86C27.241 36.733 27.846 35.927 27.881 34.978C27.914 34.073 27.951 32.753 27.975 30.975C29.753 30.951 31.073 30.914 31.978 30.881C32.927 30.846 33.733 30.241 33.86 29.301C33.939 28.719 34 27.958 34 27C34 26.042 33.939 25.281 33.86 24.699C33.733 23.759 32.927 23.154 31.978 23.119C31.073 23.086 29.753 23.049 27.975 23.025C27.9589 21.6904 27.9275 20.3559 27.881 19.022C27.846 18.073 27.241 17.267 26.301 17.14C25.538 17.042 24.7693 16.9952 24 17C23.042 17 22.281 17.061 21.699 17.14C20.759 17.267 20.154 18.073 20.119 19.022C20.086 19.927 20.049 21.247 20.025 23.025C18.247 23.049 16.927 23.086 16.022 23.119C15.073 23.154 14.267 23.759 14.14 24.699C14.061 25.281 14 26.042 14 27C14 27.958 14.061 28.719 14.14 29.301C14.267 30.241 15.073 30.846 16.022 30.881C16.927 30.914 18.247 30.951 20.025 30.975C20.049 32.753 20.086 34.073 20.119 34.978H20.12Z" stroke="black" stroke-width="3" stroke-linecap="round" stroke-linejoin="round"/>
<path d="M16.738 9.15401C17.195 7.74701 17.976 6.10401 18.562 4.95201C19.04 4.01201 19.902 3.33601 20.946 3.19601C21.9585 3.06276 22.9787 2.99728 24 3.00001C25.245 3.00001 26.278 3.09101 27.053 3.19601C28.097 3.33601 28.959 4.01301 29.437 4.95201C30.023 6.10301 30.804 7.74701 31.261 9.15401" stroke="black" stroke-width="3" stroke-linecap="round" stroke-linejoin="round"/>
</svg>
