<svg width="32" height="32" viewBox="0 0 32 32" fill="none" xmlns="http://www.w3.org/2000/svg">
<path d="M32 0H0V32H32V0Z" fill="white"/>
<path d="M9.9 12.2C9.9 12 9.8 11.8 9.7 11.7L8.2 9.9V9.6H12.8L16.4 17.5L19.6 9.6H24V9.9L22.7 11.1C22.6 11.2 22.5 11.3 22.6 11.5V20.5C22.6 20.6 22.6 20.8 22.7 20.9L23.9 22.1V22.4H17.6V22.1L18.9 20.8C19 20.7 19 20.6 19 20.4V13.1L15.4 22.2H15L10.8 13.1V19.2C10.8 19.5 10.9 19.7 11 19.9L12.7 21.9V22.2H8V21.9L9.7 19.9C9.9 19.7 10 19.5 9.9 19.2V12.2Z" fill="black"/>
</svg>
