<svg width="48" height="48" viewBox="0 0 48 48" fill="none" xmlns="http://www.w3.org/2000/svg">
<g clip-path="url(#clip0_1210_1815)">
<path fill-rule="evenodd" clip-rule="evenodd" d="M13.52 13.7C14.0186 13.9819 14.549 14.2035 15.1 14.36C16.5095 14.7808 18.021 14.7031 19.38 14.14C20.0691 13.8299 20.6894 13.3853 21.2045 12.8324C21.7196 12.2795 22.1193 11.6293 22.38 10.92C22.5217 10.5495 22.5843 10.1535 22.5636 9.75733C22.5429 9.36119 22.4395 8.97377 22.26 8.62004C21.8304 7.75231 21.1277 7.04965 20.26 6.62004C19.1199 6.12819 17.8788 5.91563 16.64 6.00004C12.26 6.16004 12.26 9.12004 12.24 11.18C12.191 11.8802 12.3586 12.5784 12.72 13.18C12.9505 13.4035 13.2222 13.5801 13.52 13.7ZM14 8.54004C14.0826 8.52023 14.1586 8.47882 14.22 8.42004C14.9154 7.88756 15.7894 7.64397 16.66 7.74004C17.5702 7.81595 18.4485 8.11101 19.22 8.60004C19.577 8.80462 19.879 9.09289 20.1 9.44004C20.1276 9.53478 20.133 9.63462 20.1156 9.73176C20.0983 9.82891 20.0587 9.92073 20 10C19.8464 10.4067 19.6134 10.7789 19.3147 11.0947C19.016 11.4106 18.6575 11.664 18.26 11.84C17.4331 12.2607 16.4857 12.3809 15.58 12.18L14.16 11.8C13.9975 11.4223 13.9422 11.0071 14 10.6C13.959 9.91399 13.959 9.2261 14 8.54004Z" fill="black"/>
<path fill-rule="evenodd" clip-rule="evenodd" d="M40.9 26.62C41.6258 25.7444 42.2939 24.8225 42.9 23.86C43.3648 23.1443 43.7346 22.3711 44 21.56C44.3631 19.8422 44.0478 18.0506 43.12 16.56C42.723 15.9455 42.1264 15.4865 41.4305 15.2607C40.7346 15.0348 39.9822 15.0557 39.3 15.32C38.2093 15.7145 37.1995 16.3041 36.32 17.06C35.1371 18.1282 34.0588 19.3069 33.1 20.58L29.3 25.78C28.8353 24.7846 28.3144 23.8164 27.74 22.88C27.42 22.36 27.1 21.86 26.74 21.36C26.38 20.86 26 20.4 25.6 20C24.86 19.18 24.08 18.44 23.32 17.68C24.0607 17.1292 24.7623 16.5278 25.42 15.88C25.9875 15.2668 26.4901 14.5965 26.92 13.88C27.5678 12.7692 27.9532 11.525 28.0467 10.2425C28.1403 8.96004 27.9396 7.67312 27.46 6.48002C26.4961 4.0694 24.6204 2.1362 22.24 1.10002C19.5949 -0.020023 16.6692 -0.299319 13.86 0.300021C10.9552 0.843982 8.37437 2.49283 6.65997 4.90002C6.10424 5.75897 5.67958 6.69592 5.39997 7.68002C5.03419 9.0312 4.77341 10.4086 4.61997 11.8C4.35997 13.8 4.11997 15.68 3.95997 17.64C3.95997 18.96 3.81997 20.28 3.85997 21.64C3.81612 24.154 4.17396 26.6589 4.91997 29.06C5.45354 30.6876 6.288 32.2005 7.37997 33.52C7.48957 33.654 7.64742 33.7396 7.81951 33.7583C7.9916 33.777 8.16414 33.7273 8.29997 33.62C8.36166 33.5603 8.41072 33.4889 8.44423 33.4098C8.47773 33.3308 8.495 33.2459 8.495 33.16C8.495 33.0742 8.47773 32.9892 8.44423 32.9102C8.41072 32.8312 8.36166 32.7597 8.29997 32.7C7.14586 31.1504 6.35936 29.3585 5.99997 27.46C5.66251 25.5262 5.54842 23.5599 5.65997 21.6C5.65997 20.34 5.79997 19.08 5.95997 17.84C6.21997 15.84 6.51997 14.04 6.85997 12.16C7.04911 10.8832 7.32305 9.62043 7.67997 8.38002C7.88812 7.6341 8.21206 6.92548 8.63997 6.28002C10.0348 4.4012 12.0957 3.12742 14.4 2.72002C16.7109 2.15705 19.1384 2.31051 21.36 3.16002C23.2556 3.8811 24.7925 5.31743 25.64 7.16002C26.051 8.08155 26.2467 9.08465 26.212 10.0931C26.1774 11.1016 25.9133 12.0889 25.44 12.98C25.1052 13.6024 24.7028 14.186 24.24 14.72C21.54 17.78 19.86 15.78 24 22C24.54 22.78 25.14 23.52 25.74 24.26C29.74 29.22 28.46 28.86 32.52 24.16C33.18 23.42 33.82 22.68 34.52 21.96C35.4998 20.8834 36.5704 19.8931 37.72 19C38.4037 18.4347 39.1734 17.9823 40 17.66C40.64 17.46 41.02 17.9 41.26 18.42C41.6205 19.2149 41.7387 20.0983 41.6 20.96C41.4452 21.572 41.2168 22.1629 40.92 22.72C40.4053 23.6433 39.8307 24.5318 39.2 25.38C38.22 26.78 37.2 28.14 36.22 29.38C35.56 30.28 34.86 31.14 34.12 32C33.9878 32.1409 33.9142 32.3268 33.9142 32.52C33.9142 32.7132 33.9878 32.8991 34.12 33.04C34.1916 33.1073 34.277 33.1582 34.3702 33.1892C34.4635 33.2203 34.5623 33.2308 34.66 33.22C36.2807 34.4781 37.7149 35.9595 38.92 37.62C40.2047 39.3074 41.0066 41.3122 41.24 43.42C41.3131 43.7176 41.3074 44.0291 41.2232 44.3238C41.139 44.6184 40.9793 44.886 40.76 45.1C40.4693 45.2944 40.1384 45.4206 39.792 45.4691C39.4457 45.5175 39.0929 45.4871 38.76 45.38C38.013 45.2357 37.3004 44.9506 36.66 44.54C35.942 44.1047 35.2716 43.5953 34.66 43.02C34.0819 42.4713 33.5655 41.861 33.12 41.2C27.56 33.34 31.56 34.18 24.02 41.2C22.939 42.2328 21.6692 43.0476 20.28 43.6C19.8011 43.7972 19.2834 43.8817 18.7667 43.847C18.25 43.8124 17.7482 43.6594 17.3 43.4C16.9249 43.171 16.6454 42.8139 16.513 42.3948C16.3807 41.9758 16.4045 41.5229 16.58 41.12C17.0285 39.8537 17.7065 38.6808 18.58 37.66C20.0445 36.0132 21.6145 34.4633 23.28 33.02C23.84 32.54 23.66 32.68 20.34 26.58L18.56 23.44C18.2 22.94 17.84 22.46 17.44 22C17.04 21.54 16.3 20.68 15.74 20C15.4179 19.6298 15.0775 19.2761 14.72 18.94C14.507 18.7635 14.2447 18.6573 13.969 18.6358C13.6933 18.6143 13.4177 18.6787 13.18 18.82C12.9386 18.9639 12.7494 19.1811 12.64 19.44C12.54 19.68 12.44 20.28 12.4 20.4L12 23.1C11.9582 25.3133 11.7442 27.52 11.36 29.7C11.2559 30.3339 10.9812 30.9276 10.5655 31.4173C10.1497 31.907 9.60857 32.2744 8.99997 32.48C8.83397 32.5268 8.69289 32.6367 8.60691 32.7863C8.52094 32.9358 8.49691 33.113 8.53997 33.28C8.55843 33.3629 8.59372 33.4411 8.64364 33.5098C8.69356 33.5784 8.75705 33.6361 8.83018 33.6792C8.90331 33.7224 8.98451 33.75 9.06877 33.7605C9.15302 33.7709 9.23852 33.764 9.31997 33.74C9.9748 33.5961 10.59 33.3101 11.1222 32.9023C11.6544 32.4945 12.0906 31.9749 12.4 31.38C13.7 29.14 13.8 25.68 14.4 23.5L14.64 22.38L16.84 24.8L19.14 27.72L22.2 32.4C20.5546 33.6222 18.9974 34.9589 17.54 36.4C16.3619 37.5398 15.4176 38.8986 14.76 40.4C14.32 41.3064 14.2383 42.3455 14.5312 43.3096C14.8242 44.2736 15.4701 45.0916 16.34 45.6C17.1346 46.0501 18.0214 46.3129 18.933 46.3684C19.8445 46.4239 20.7567 46.2705 21.6 45.92C23.1896 45.1198 24.6144 44.0274 25.8 42.7C27.0502 41.1924 28.2249 39.6238 29.32 38C30.2 39.42 30.92 40.92 31.76 42.34C32.229 43.1467 32.7785 43.9039 33.4 44.6C34.187 45.5036 35.1036 46.2854 36.12 46.92C36.8437 47.3814 37.6423 47.7131 38.48 47.9C39.1594 48.0856 39.872 48.1155 40.5646 47.9874C41.2572 47.8592 41.9119 47.5764 42.48 47.16C43.0574 46.6867 43.4908 46.0611 43.7312 45.3542C43.9715 44.6473 44.0092 43.8872 43.84 43.16C43.4922 41.1688 42.6992 39.2818 41.52 37.64C39.9664 35.5791 38.0644 33.8058 35.9 32.4C36.68 31.56 37.46 30.72 38.2 29.86C38.94 29 40 27.74 40.9 26.62Z" fill="black"/>
</g>
<defs>
<clipPath id="clip0_1210_1815">
<rect width="48" height="48" fill="white"/>
</clipPath>
</defs>
</svg>
