<svg width="48" height="48" viewBox="0 0 48 48" fill="none" xmlns="http://www.w3.org/2000/svg">
<g clip-path="url(#clip0_1209_6682)">
<path d="M24.9583 8.66667C24.9583 9.9375 25.4632 11.1563 26.3618 12.0549C27.2604 12.9535 28.4792 13.4583 29.75 13.4583C31.0208 13.4583 32.2396 12.9535 33.1382 12.0549C34.0368 11.1563 34.5417 9.9375 34.5417 8.66667C34.5417 7.39584 34.0368 6.17706 33.1382 5.27845C32.2396 4.37983 31.0208 3.875 29.75 3.875C28.4792 3.875 27.2604 4.37983 26.3618 5.27845C25.4632 6.17706 24.9583 7.39584 24.9583 8.66667Z" stroke="black" stroke-width="2" stroke-linecap="round" stroke-linejoin="round"/>
<path d="M36.4583 35.5C36.4583 36.1293 36.5823 36.7523 36.8231 37.3337C37.0639 37.9151 37.4168 38.4433 37.8618 38.8882C38.3067 39.3332 38.835 39.6861 39.4163 39.9269C39.9977 40.1677 40.6207 40.2917 41.25 40.2917C41.8792 40.2917 42.5023 40.1677 43.0837 39.9269C43.665 39.6861 44.1933 39.3332 44.6382 38.8882C45.0832 38.4433 45.4361 37.9151 45.6769 37.3337C45.9177 36.7523 46.0417 36.1293 46.0417 35.5C46.0417 34.8708 45.9177 34.2477 45.6769 33.6663C45.4361 33.085 45.0832 32.5567 44.6382 32.1118C44.1933 31.6668 43.665 31.3139 43.0837 31.0731C42.5023 30.8323 41.8792 30.7083 41.25 30.7083C40.6207 30.7083 39.9977 30.8323 39.4163 31.0731C38.835 31.3139 38.3067 31.6668 37.8618 32.1118C37.4168 32.5567 37.0639 33.085 36.8231 33.6663C36.5823 34.2477 36.4583 34.8708 36.4583 35.5Z" stroke="black" stroke-width="2" stroke-linecap="round" stroke-linejoin="round"/>
<path d="M46.0417 44.125H1.95834" stroke="black" stroke-width="2" stroke-linecap="round" stroke-linejoin="round"/>
<path d="M30.7083 24.9583L26.8233 26.3517C26.137 26.5805 25.5697 27.0725 25.2462 27.7195C24.9227 28.3665 24.8695 29.1155 25.0983 29.8017C25.327 30.488 25.819 31.0553 26.466 31.3788C27.113 31.7023 27.862 31.7555 28.5483 31.5267L32.5273 30.1027C33.672 29.7209 34.6677 28.9887 35.3732 28.0097C36.0787 27.0307 36.4584 25.8546 36.4583 24.6478V23.0417C36.4583 21.5167 35.8525 20.0541 34.7742 18.9758C33.6959 17.8975 32.2333 17.2917 30.7083 17.2917H24C22.8098 17.2917 21.6359 17.5688 20.5714 18.101C19.5068 18.6333 18.5808 19.4062 17.8667 20.3583L17.2917 21.125" stroke="black" stroke-width="2" stroke-linecap="round" stroke-linejoin="round"/>
<path d="M11.5417 34.5417H4.83334C4.07085 34.5417 3.33958 34.8446 2.80041 35.3837C2.26124 35.9229 1.95834 36.6542 1.95834 37.4167C1.95834 38.1792 2.26124 38.9104 2.80041 39.4496C3.33958 39.9888 4.07085 40.2917 4.83334 40.2917H21.125" stroke="black" stroke-width="2" stroke-linecap="round" stroke-linejoin="round"/>
<path d="M30.7083 40.2917H21.125C20.591 40.2918 20.0675 40.1433 19.6132 39.8626C19.1589 39.582 18.7917 39.1804 18.5528 38.7028L15.3501 32.2973C15.1128 31.8184 14.746 31.4157 14.2913 31.1348C13.8367 30.8539 13.3123 30.7062 12.7779 30.7083H4.83334C4.07085 30.7083 3.33958 30.4054 2.80041 29.8663C2.26124 29.3271 1.95834 28.5958 1.95834 27.8333C1.95834 27.0708 2.26124 26.3396 2.80041 25.8004C3.33958 25.2612 4.07085 24.9583 4.83334 24.9583H12.7798C14.383 24.9522 15.9558 25.3958 17.3195 26.2387C18.6832 27.0817 19.7832 28.2902 20.4944 29.727L22.9018 34.5417H30.7083C31.4708 34.5417 32.2021 34.8446 32.7413 35.3837C33.2804 35.9229 33.5833 36.6542 33.5833 37.4167C33.5833 38.1792 33.2804 38.9104 32.7413 39.4496C32.2021 39.9888 31.4708 40.2917 30.7083 40.2917Z" stroke="black" stroke-width="2" stroke-linecap="round" stroke-linejoin="round"/>
</g>
<defs>
<clipPath id="clip0_1209_6682">
<rect width="48" height="48" fill="white"/>
</clipPath>
</defs>
</svg>
