<svg width="48" height="48" viewBox="0 0 48 48" fill="none" xmlns="http://www.w3.org/2000/svg">
<g clip-path="url(#clip0_1210_1878)">
<path fill-rule="evenodd" clip-rule="evenodd" d="M36.34 45.36C36.0823 44.9788 35.7727 44.6355 35.42 44.34C34.715 43.8164 33.9576 43.3673 33.16 43L32.14 42.54C31.8419 42.4223 31.5597 42.2678 31.3 42.08C31.2351 42.0252 31.1748 41.9649 31.12 41.9C32.4647 41.4515 33.7378 40.8116 34.9 40C35.0428 39.9095 35.144 39.7661 35.1815 39.6013C35.219 39.4364 35.1897 39.2634 35.1 39.12C35.0031 38.9845 34.8585 38.8906 34.6953 38.8572C34.5321 38.8238 34.3623 38.8534 34.22 38.94C32.4094 39.7986 30.482 40.3849 28.5 40.68C27.2837 40.7973 26.0617 40.8441 24.84 40.82C22.96 40.82 21.06 40.82 19.24 40.66H11.6C9.91999 40.66 8.25999 40.54 6.55999 40.38H6.35999C5.99999 37.62 5.87999 34.82 5.79999 32C5.71999 29.18 5.79999 26.74 5.79999 24.12V13.28C5.79999 12.78 5.79999 12.28 5.93999 11.8C5.98906 11.3286 6.06924 10.8609 6.17999 10.4C6.28355 9.79029 6.52709 9.21289 6.89147 8.71318C7.25584 8.21346 7.73113 7.80505 8.27999 7.52001C10.2572 6.79092 12.4023 6.64514 14.46 7.10001C14.5665 7.11833 14.6761 7.10542 14.7755 7.06283C14.8749 7.02025 14.9598 6.9498 15.02 6.86001C15.1348 6.84313 15.242 6.79217 15.3276 6.71373C15.4131 6.63529 15.4732 6.53297 15.5 6.42001C15.9578 5.11823 16.885 4.03417 18.1 3.38001C18.6939 3.03272 19.3334 2.77018 20 2.60001C20.5824 2.4225 21.194 2.36134 21.8 2.42001C22.9105 2.56022 23.9545 3.02653 24.8 3.76001C25.7465 4.49924 26.4954 5.46115 26.98 6.56001C27.0322 6.68618 27.1211 6.79372 27.2353 6.86863C27.3494 6.94353 27.4835 6.98235 27.62 6.98001C27.699 6.99736 27.7809 6.99736 27.86 6.98001C28.3529 6.95016 28.8471 6.95016 29.34 6.98001C30.12 6.98001 30.86 7.10001 31.62 7.16001C32.6186 7.18093 33.6116 7.31512 34.58 7.56001C35.0774 7.7049 35.5265 7.98127 35.88 8.36001C36.1356 8.70072 36.2757 9.11412 36.28 9.54001C36.3206 10.2061 36.3206 10.874 36.28 11.54V16.74C36.28 18.48 36.28 20.26 36.18 22C36.1689 22.1878 36.2318 22.3725 36.3551 22.5145C36.4785 22.6565 36.6525 22.7447 36.84 22.76C37.0299 22.7714 37.2169 22.7091 37.3622 22.5862C37.5074 22.4633 37.5998 22.2892 37.62 22.1C38 20 38.2 18 38.42 15.8C38.54 14.38 38.64 12.96 38.68 11.52C38.7124 10.617 38.6589 9.7129 38.52 8.82001C38.3792 8.06072 38.0093 7.36275 37.46 6.82001C36.7781 6.20642 35.9411 5.7914 35.04 5.62001C33.8909 5.47977 32.7291 5.47977 31.58 5.62001L28.14 5.90001C27.7455 4.60941 27.0615 3.42598 26.14 2.44001C25.0574 1.20365 23.606 0.34821 22 1.35638e-05C21.0595 -0.097367 20.1092 0.0188562 19.22 0.340014C18.3699 0.647432 17.5835 1.10842 16.9 1.70001C15.6021 2.72957 14.7039 4.17947 14.36 5.80001C12.1191 5.23037 9.7635 5.29966 7.55999 6.00001C6.7382 6.35524 6.00632 6.88986 5.418 7.5647C4.82969 8.23953 4.39984 9.03747 4.15999 9.90001C4.03999 10.32 3.93999 10.76 3.81999 11.2C3.69999 11.64 3.59999 12.48 3.53999 13.2C3.47999 13.92 3.39999 14.76 3.35999 15.54V18.96C3.35999 22.62 3.47999 26.32 3.69999 30.02C3.92763 33.7194 4.3482 37.4044 4.95999 41.06C4.99425 41.2458 5.09827 41.4114 5.25073 41.523C5.40319 41.6346 5.59255 41.6836 5.77999 41.66C5.77999 41.66 5.77999 41.66 5.89999 41.66C6.01483 41.8018 6.17924 41.8948 6.35999 41.92C8.05999 42.24 9.75998 42.46 11.48 42.66C14.02 42.92 16.58 43.08 19.14 43.28C21.02 43.28 22.98 43.46 24.92 43.28C26.232 43.2011 27.5359 43.0206 28.82 42.74L29.42 42.54C29.6434 43.1499 29.9985 43.703 30.46 44.16C31.0503 44.6956 31.7264 45.1283 32.46 45.44C33.04 45.72 33.7 45.9 34.28 46.2C34.5807 46.3514 34.8571 46.5469 35.1 46.78C35.38 47.1 35.64 47.44 35.9 47.78C36.0095 47.9154 36.1644 48.0065 36.336 48.0364C36.5076 48.0663 36.6842 48.033 36.8331 47.9427C36.982 47.8524 37.0931 47.7112 37.1459 47.5452C37.1986 47.3792 37.1894 47.1997 37.12 47.04C36.8922 46.4656 36.6318 45.9047 36.34 45.36Z" fill="black"/>
<path fill-rule="evenodd" clip-rule="evenodd" d="M44.58 42.58C44.18 41.6 43.72 40.58 43.4 39.54C43.1797 38.8905 43.0256 38.2205 42.94 37.54C42.8998 37.1678 42.8998 36.7923 42.94 36.42C42.94 35.78 43.06 35.12 43.08 34.42L43.2 29.76C43.2044 28.3975 42.9744 27.0445 42.52 25.76C42.1562 24.7599 41.4469 23.9229 40.52 23.4C40.0568 23.0983 39.5061 22.9601 38.9553 23.0072C38.4045 23.0543 37.8853 23.2841 37.48 23.66C36.7162 24.479 36.1546 25.4653 35.84 26.54C35.4126 27.6922 35.1043 28.885 34.92 30.1C34.7403 31.3402 34.7403 32.5998 34.92 33.84C35.0066 34.5331 35.2024 35.2081 35.5 35.84C35.7032 36.3113 35.9952 36.7391 36.36 37.1C36.4798 37.2185 36.6415 37.2849 36.81 37.2849C36.9785 37.2849 37.1402 37.2185 37.26 37.1C37.3697 36.9758 37.4302 36.8157 37.4302 36.65C37.4302 36.4843 37.3697 36.3243 37.26 36.2C36.9654 35.8672 36.753 35.4699 36.64 35.04C36.5 34.5726 36.4259 34.0879 36.42 33.6C36.39 32.5086 36.5112 31.4182 36.78 30.36C37.0411 29.2857 37.4096 28.2405 37.88 27.24C38.1176 26.6265 38.4482 26.0531 38.86 25.54C39 25.36 39.18 25.24 39.42 25.4C39.7164 25.5732 39.973 25.8071 40.1729 26.0862C40.3728 26.3654 40.5115 26.6836 40.58 27.02C40.8109 27.9028 40.945 28.8082 40.98 29.72L41.16 34.16V36.48C41.1804 36.8419 41.2205 37.2025 41.28 37.56C41.4488 38.3426 41.6761 39.1114 41.96 39.86C42.4 40.92 42.94 41.96 43.42 42.94C43.4607 43.0254 43.5178 43.1019 43.5881 43.1652C43.6584 43.2285 43.7404 43.2773 43.8296 43.3089C43.9187 43.3405 44.0132 43.3542 44.1077 43.3492C44.2021 43.3443 44.2946 43.3207 44.38 43.28C44.4763 43.1943 44.5462 43.083 44.5816 42.959C44.617 42.8351 44.6164 42.7036 44.58 42.58Z" fill="black"/>
<path fill-rule="evenodd" clip-rule="evenodd" d="M30.34 14.56C30.6827 15.7591 30.8841 16.9941 30.94 18.24L31.16 25.46L31.3 35.1C31.2946 35.1936 31.3081 35.2873 31.3396 35.3755C31.3711 35.4638 31.42 35.5449 31.4834 35.6139C31.5468 35.6829 31.6234 35.7385 31.7088 35.7773C31.7941 35.8162 31.8863 35.8375 31.98 35.84C32.1675 35.8401 32.3477 35.767 32.4822 35.6362C32.6166 35.5055 32.6948 35.3275 32.7 35.14L33.12 25.44C33.12 23.74 33.26 22.04 33.28 20.34V18.1C33.2361 16.6689 33.0349 15.247 32.68 13.86C32.3904 12.8324 31.886 11.878 31.2 11.06C30.5322 10.3351 29.6721 9.81485 28.72 9.55999C27.5287 9.24738 26.3094 9.05311 25.08 8.97999C23.5294 8.84985 21.9706 8.84985 20.42 8.97999C16.94 9.27999 13.52 10.08 9.99998 10.54C9.91842 10.5475 9.83915 10.5711 9.76676 10.6094C9.69437 10.6477 9.63029 10.7 9.57822 10.7632C9.52615 10.8265 9.48712 10.8994 9.4634 10.9778C9.43967 11.0562 9.43171 11.1385 9.43998 11.22C9.47219 11.2973 9.51241 11.371 9.55998 11.44C9.44679 11.5342 9.36341 11.6593 9.31998 11.8C9.09998 13.06 8.91998 14.36 8.77998 15.64C8.59998 17.64 8.51998 19.5 8.41998 21.4V24.4C8.41998 26.68 8.65998 28.96 8.65998 31.22C8.65998 31.92 8.45998 33.22 8.53998 34.2C8.5825 34.8198 8.7821 35.4186 9.11998 35.94C9.68774 36.7447 10.525 37.3194 11.48 37.56C12.6313 37.8379 13.8192 37.9324 15 37.84L29.2 36.72C29.2937 36.7175 29.3859 36.6962 29.4712 36.6573C29.5565 36.6185 29.6332 36.5629 29.6966 36.4939C29.76 36.4249 29.8089 36.3438 29.8404 36.2555C29.8719 36.1673 29.8854 36.0736 29.88 35.98C29.8696 35.7925 29.7865 35.6166 29.6482 35.4895C29.51 35.3625 29.3276 35.2945 29.14 35.3L14.94 35.62C14.1418 35.6388 13.3439 35.5718 12.56 35.42C12.2702 35.3842 11.9903 35.2916 11.7363 35.1474C11.4823 35.0033 11.2593 34.8105 11.08 34.58C10.9544 34.2906 10.9061 33.9736 10.94 33.66C10.94 32.76 11.06 31.66 11.06 31.2L10.36 21.42V15.74C10.36 14.48 10.5 13.24 10.66 12C10.6691 11.9202 10.6691 11.8397 10.66 11.76C13.54 11.56 16.36 11.16 19.2 11C21.1277 10.8603 23.0647 10.9207 24.98 11.18C26.0419 11.2899 27.0924 11.4906 28.12 11.78C28.6504 11.926 29.1332 12.2087 29.52 12.6C29.9381 13.1829 30.2185 13.853 30.34 14.56Z" fill="black"/>
<path fill-rule="evenodd" clip-rule="evenodd" d="M25.52 26.24H26.24C26.4991 26.2696 26.7608 26.2696 27.02 26.24C27.2553 26.199 27.4799 26.1106 27.68 25.98C27.8171 25.8734 27.9319 25.7409 28.0177 25.5898C28.1035 25.4388 28.1586 25.2724 28.18 25.1V24.56L28.28 23.04C28.3329 22.4813 28.3329 21.9188 28.28 21.36C28.2538 21.0589 28.1504 20.7696 27.98 20.52C27.8747 20.3599 27.7326 20.2273 27.5656 20.1334C27.3986 20.0394 27.2115 19.9868 27.02 19.98C26.6837 20.0222 26.3499 20.0823 26.02 20.16L23.82 20.56L24.04 18.24C24.0616 17.867 24.0616 17.493 24.04 17.12C24.0073 16.9681 23.9444 16.8244 23.8551 16.6973C23.7657 16.5701 23.6518 16.4623 23.52 16.38C23.3747 16.3012 23.2201 16.2408 23.06 16.2C22.8204 16.18 22.5795 16.18 22.34 16.2H19.1C18.7947 16.2177 18.4926 16.2714 18.2 16.36C17.76 16.56 17.52 16.82 17.48 17.04C17.3812 17.3499 17.3405 17.6754 17.36 18C17.36 18.5 17.54 19.04 17.58 19.4V20.16C17.4803 20.1486 17.3796 20.1486 17.28 20.16C16.78 20.16 16.28 20.16 15.78 20.02H15C14.7124 20.0367 14.4352 20.1337 14.2 20.3C13.862 20.5169 13.5972 20.8305 13.44 21.2C13.1976 21.7899 13.0752 22.4223 13.08 23.06L13.28 24.86L13.56 25.86C13.7142 26.1003 13.9372 26.2884 14.2 26.4C14.5079 26.5222 14.8307 26.6029 15.16 26.64C15.5651 26.69 15.9748 26.69 16.38 26.64H16.92L16.76 27.78C16.7045 28.3662 16.7657 28.9576 16.94 29.52C17.0633 29.8911 17.2928 30.218 17.6 30.46C17.7508 30.5609 17.9212 30.629 18.1 30.66C18.3592 30.6881 18.6207 30.6881 18.88 30.66C19.48 30.66 21.62 30.8 22.52 30.76C22.7926 30.7657 23.0626 30.705 23.3065 30.583C23.5504 30.4611 23.7609 30.2816 23.92 30.06C24.0094 29.8226 24.0633 29.5732 24.08 29.32C24.0891 28.8786 24.0624 28.4371 24 28L23.74 26L24.5 26.14L25.52 26.24ZM22.18 28V28.22H18.96H18.76C18.712 28.0227 18.6785 27.8222 18.66 27.62L18.56 25.76C18.5894 25.6622 18.5894 25.5579 18.56 25.46C18.44 24.36 17.26 24.88 16.56 24.84C16.2338 24.8195 15.9114 24.759 15.6 24.66C15.5947 24.6001 15.5947 24.5399 15.6 24.48V23.04C15.6 21.86 14.76 22 17.38 21.68C17.5995 21.6601 17.8204 21.6601 18.04 21.68C18.0907 21.7276 18.1505 21.7645 18.2158 21.7885C18.2811 21.8126 18.3505 21.8233 18.42 21.82C18.5031 21.8201 18.5854 21.8034 18.6619 21.771C18.7385 21.7386 18.8078 21.6911 18.8656 21.6314C18.9234 21.5717 18.9687 21.501 18.9986 21.4234C19.0286 21.3459 19.0427 21.2631 19.04 21.18L19.26 19.58C19.26 19.34 19.26 19.02 19.36 18.66H21.36H22.24L22.5 21.32C22.4884 21.3862 22.4884 21.4539 22.5 21.52C22.5294 21.6883 22.623 21.8386 22.761 21.9393C22.899 22.04 23.0707 22.0833 23.24 22.06L26.26 22.28C26.1601 22.5111 26.0863 22.7526 26.04 23V24.4H25.72H24.82H23.42H23.28C23.1704 24.4097 23.066 24.4514 22.98 24.52C22.8931 24.5677 22.82 24.6369 22.7674 24.7209C22.7149 24.805 22.6848 24.9011 22.68 25L22.18 28Z" fill="black"/>
</g>
<defs>
<clipPath id="clip0_1210_1878">
<rect width="48" height="48" fill="white"/>
</clipPath>
</defs>
</svg>
