<svg width="48" height="48" viewBox="0 0 48 48" fill="none" xmlns="http://www.w3.org/2000/svg">
<path fill-rule="evenodd" clip-rule="evenodd" d="M23.06 25.6799C21.7976 25.2959 20.4663 25.1935 19.16 25.3799C17.6415 25.6325 16.228 26.3178 15.0893 27.3537C13.9505 28.3896 13.1348 29.732 12.74 31.2199C12.2918 32.689 12.3588 34.267 12.9298 35.6927C13.5009 37.1185 14.5417 38.3065 15.88 39.0599C16.6068 39.4678 17.4105 39.7199 18.24 39.7999C20 39.9999 25.64 40.0599 27.76 35.1599C28.2909 33.9339 28.4544 32.5802 28.2308 31.263C28.0071 29.9459 27.4058 28.722 26.5 27.7399C25.5616 26.7538 24.3724 26.0417 23.06 25.6799ZM26 34.4599C25.4534 35.8145 24.4572 36.9395 23.1788 37.6461C21.9004 38.3527 20.4178 38.5977 18.98 38.3399C18.2432 38.2802 17.5306 38.0482 16.8998 37.6627C16.269 37.2771 15.7377 36.7488 15.3485 36.1202C14.9593 35.4917 14.7232 34.7805 14.6592 34.044C14.5952 33.3074 14.7051 32.5662 14.98 31.8799C15.2829 30.8531 15.8698 29.9328 16.6731 29.2251C17.4763 28.5174 18.4632 28.0511 19.52 27.8799C20.4759 27.752 21.4477 27.8131 22.38 28.0599C23.2904 28.2684 24.1311 28.7095 24.82 29.3399C25.491 29.9877 25.9596 30.8162 26.169 31.725C26.3785 32.6338 26.3198 33.5839 26 34.4599Z" fill="black"/>
<path fill-rule="evenodd" clip-rule="evenodd" d="M47.02 34C45.8 34.24 44.58 34.44 43.36 34.72C42.84 34.84 42.32 34.96 41.82 35.12L41.08 35.36V35.16C40.48 31.86 40.24 28.5 39.76 25.16C39.54 23.68 39.28 22.24 38.92 20.8C38.5702 19.3942 38.0177 18.0467 37.28 16.8C36.7338 15.837 35.9485 15.031 35 14.46C34.1637 14.019 33.2435 13.76 32.3 13.7C31.101 13.6291 29.899 13.6291 28.7 13.7C26.7 13.8 24.5 13.92 22.38 14H19.28C19.2899 13.8401 19.2899 13.6798 19.28 13.52V10.96L19.12 8.55997L18.74 7.01997C18.5975 6.5174 18.3183 6.06429 17.9333 5.71114C17.5484 5.358 17.073 5.11872 16.56 5.01997C15.6887 4.9839 14.8188 5.11982 14 5.41997V4.81997C13.9624 4.64903 13.8654 4.49695 13.7262 4.39077C13.5871 4.28458 13.4148 4.23115 13.24 4.23997C13.3042 4.1413 13.3409 4.02724 13.3462 3.90962C13.3516 3.792 13.3253 3.67509 13.2702 3.57103C13.2151 3.46698 13.1332 3.37955 13.0329 3.31782C12.9327 3.25609 12.8177 3.22231 12.7 3.21997H7.32H4.18C3.6819 3.23053 3.18611 3.29083 2.7 3.39997C2.26936 3.51609 1.86753 3.7204 1.52 3.99997C1.06297 4.34974 0.689483 4.7968 0.426587 5.30876C0.163691 5.82071 0.0179758 6.38474 0 6.95997C0.00802317 7.42903 0.132938 7.88867 0.363428 8.29727C0.593919 8.70586 0.922704 9.05051 1.32 9.29997C2.43894 9.97445 3.71393 10.3466 5.02 10.38C6.74105 10.4055 8.45923 10.231 10.14 9.85997C10.9231 9.7924 11.6953 9.63126 12.44 9.37997C12.8504 9.21641 13.2193 8.96364 13.52 8.63997C13.9265 8.17861 14.166 7.59393 14.2 6.97997C14.2 6.97997 14.2 6.87997 14.2 6.81997C14.7511 6.74946 15.3089 6.74946 15.86 6.81997C16.0845 6.84563 16.2938 6.94659 16.4536 7.1064C16.6134 7.2662 16.7143 7.47543 16.74 7.69997L16.84 8.85997V11.08C16.98 12.84 16.94 14.62 17.04 16.4C17.0855 17.63 17.2327 18.8542 17.48 20.06C17.4895 20.1586 17.5194 20.2543 17.5676 20.3409C17.6158 20.4275 17.6814 20.5032 17.7603 20.5633C17.8392 20.6234 17.9296 20.6666 18.0259 20.6901C18.1222 20.7136 18.2223 20.717 18.32 20.7C18.4954 20.6811 18.6583 20.6002 18.7793 20.4719C18.9003 20.3435 18.9715 20.1762 18.98 20C18.9201 19.141 18.9201 18.2789 18.98 17.42C18.98 16.82 19.08 16.2 19.14 15.6C20.2 15.6 21.26 15.78 22.34 15.82C24.46 15.94 26.6 16.02 28.7 16.1C29.8 16.0562 30.9014 16.0696 32 16.14C32.6086 16.197 33.1999 16.3737 33.74 16.66C34.324 17.0187 34.8061 17.5214 35.14 18.12C35.7606 19.1719 36.2381 20.3018 36.56 21.48C36.8 22.22 36.96 23 37.14 23.74L34.66 23.62H33.28C32.809 23.6392 32.3406 23.6994 31.88 23.8C31.3143 23.9309 30.7593 24.1048 30.22 24.32C30 24.08 29.82 23.82 29.58 23.6C28.9706 23.0451 28.2995 22.5619 27.58 22.16C26.8679 21.779 26.1253 21.4579 25.36 21.2C24.7065 20.9844 24.038 20.8173 23.36 20.7C22.6522 20.5908 21.9355 20.5506 21.22 20.58C18.3724 20.7097 15.6344 21.7155 13.38 23.46C7.68 27.78 8.64 30.68 8.18 32.1C7.99399 32.6565 7.87973 33.2345 7.84 33.82C7.79756 35.7009 8.2603 37.5587 9.18 39.2C10.0389 40.9063 11.3633 42.3347 13 43.32C13.5869 43.6127 14.1954 43.8601 14.82 44.06C15.7169 44.3194 16.6332 44.5067 17.56 44.62C20.1745 45.0492 22.8548 44.8224 25.36 43.96C27.9919 43.0076 30.1459 41.0618 31.36 38.54C32.3908 36.3598 32.9041 33.9711 32.86 31.56C33.32 31.66 33.8 31.76 34.3 31.82C34.6393 31.8498 34.9807 31.8498 35.32 31.82C35.6597 31.8397 36.0003 31.8397 36.34 31.82C37.16 31.72 37.94 31.54 38.76 31.38C39.02 32.76 39.3 34.16 39.64 35.52C39.6746 35.6541 39.7518 35.7734 39.86 35.86C38.88 36.28 37.86 36.74 36.92 37.12C36.7476 37.1598 36.5981 37.2664 36.5043 37.4164C36.4105 37.5664 36.3802 37.7476 36.42 37.92C36.4598 38.0924 36.5664 38.2419 36.7164 38.3357C36.8665 38.4294 37.0476 38.4598 37.22 38.42C38.4933 38.3487 39.7618 38.2085 41.02 38C41.5468 37.8949 42.0676 37.7614 42.58 37.6C43.08 37.44 43.58 37.24 44.08 37.04C45.24 36.56 46.34 36 47.48 35.5C47.652 35.4244 47.7899 35.2879 47.8671 35.1167C47.9444 34.9455 47.9555 34.7518 47.8983 34.5729C47.8412 34.3939 47.7198 34.2425 47.5576 34.1478C47.3954 34.0531 47.2039 34.0218 47.02 34.06V34ZM12.6 6.51997C12.5983 6.85104 12.4776 7.17047 12.26 7.41997C12.0633 7.57063 11.8271 7.66095 11.58 7.67997C11.0187 7.77999 10.4501 7.83351 9.88 7.83997C8.33475 8.03473 6.77497 8.08828 5.22 7.99997C4.32973 7.94512 3.46559 7.67764 2.7 7.21997C2.61139 7.14666 2.54958 7.04604 2.52425 6.93385C2.49891 6.82167 2.51149 6.70425 2.56 6.59997C2.65016 6.33075 2.80866 6.08955 3.02 5.89997C3.16392 5.78645 3.32629 5.6985 3.5 5.63997C3.79508 5.54256 4.09559 5.46242 4.4 5.39997L7.4 5.09997L12.64 4.53997C12.5767 4.62867 12.5333 4.72994 12.5126 4.83692C12.4919 4.94389 12.4944 5.05406 12.52 5.15997C12.5982 5.6088 12.6251 6.06507 12.6 6.51997ZM29.1 37.44C28.1574 39.3956 26.5055 40.9188 24.48 41.7C22.3593 42.5092 20.0736 42.7906 17.82 42.52C17.1472 42.4667 16.4789 42.3665 15.82 42.22C15.1772 42.0992 14.5522 41.8976 13.96 41.62C12.59 40.8684 11.46 39.7453 10.7 38.38C9.85438 37.0203 9.38505 35.4605 9.34 33.86C9.36275 33.3999 9.43653 32.9438 9.56 32.5C9.73522 30.9386 10.2709 29.4393 11.1247 28.1204C11.9785 26.8015 13.1272 25.699 14.48 24.9C16.4705 23.4557 18.8608 22.6659 21.32 22.64C21.9035 22.6436 22.4856 22.6972 23.06 22.8C23.6372 22.9201 24.2052 23.0805 24.76 23.28C25.3822 23.5177 25.9842 23.8053 26.56 24.14C27.12 24.4684 27.6372 24.8647 28.1 25.32C29.5919 26.8465 30.4434 28.8858 30.48 31.02C30.5554 33.2409 30.0814 35.4462 29.1 37.44ZM36.34 29.44C35.9869 29.4202 35.6331 29.4202 35.28 29.44C34.9339 29.411 34.5861 29.411 34.24 29.44C33.7327 29.5359 33.2318 29.6628 32.74 29.82C32.5544 28.4809 32.1275 27.1867 31.48 26C31.8531 26.0198 32.2269 26.0198 32.6 26C33.34 26 34.08 26 34.82 25.88L37.6 25.22C37.6076 25.2864 37.6076 25.3535 37.6 25.42C37.9 26.82 38.16 28.24 38.42 29.66C37.76 29.66 37.06 29.5 36.34 29.42V29.44Z" fill="black"/>
</svg>
