<svg width="48" height="48" viewBox="0 0 48 48" fill="none" xmlns="http://www.w3.org/2000/svg">
<path d="M27.7105 21.9128C28.6992 20.9783 30.0134 20.4661 31.3739 20.4853C32.7342 20.5043 34.0334 21.0534 34.9955 22.0154C35.9575 22.9772 36.5064 24.2767 36.5256 25.637C36.5448 26.9974 36.0325 28.3115 35.0979 29.3004L28.8018 35.5963C27.8187 36.5375 26.5071 37.0579 25.146 37.0469C23.7851 37.0359 22.4821 36.4943 21.5142 35.5375C20.5464 34.5804 19.9901 33.2837 19.9636 31.9229C19.9372 30.5622 20.4426 29.2447 21.3724 28.2509L27.7105 21.9128Z" stroke="black" stroke-width="2.0001" stroke-linecap="round" stroke-linejoin="round"/>
<path d="M24.857 24.7687L32.2444 32.1561" stroke="black" stroke-width="2.0001" stroke-linecap="round" stroke-linejoin="round"/>
<path d="M16.6053 22.8489C20.2089 22.8489 23.13 19.9276 23.13 16.3241C23.13 12.7206 20.2089 9.79932 16.6053 9.79932C13.0017 9.79932 10.0805 12.7206 10.0805 16.3241C10.0805 19.9276 13.0017 22.8489 16.6053 22.8489Z" stroke="black" stroke-width="2.0001" stroke-linecap="round" stroke-linejoin="round"/>
<path d="M10.0805 16.3244H23.13" stroke="black" stroke-width="2.0001" stroke-linecap="round" stroke-linejoin="round"/>
<path d="M22.3264 42.4197C33.4234 42.4197 42.4192 33.4239 42.4192 22.3267C42.4192 11.2298 33.4234 2.23392 22.3264 2.23392C11.2294 2.23392 2.23347 11.2298 2.23347 22.3267C2.23347 33.4239 11.2294 42.4197 22.3264 42.4197Z" stroke="black" stroke-width="2.0001" stroke-linecap="round" stroke-linejoin="round"/>
<path d="M36.5261 36.5247L45.7688 45.7674" stroke="black" stroke-width="2.0001" stroke-linecap="round" stroke-linejoin="round"/>
</svg>
