<svg width="48" height="48" viewBox="0 0 48 48" fill="none" xmlns="http://www.w3.org/2000/svg">
<path fill-rule="evenodd" clip-rule="evenodd" d="M29.7 39.2L21.18 38.42L10 37.78L5.36 37.48C5.01409 37.5125 4.66591 37.5125 4.32 37.48C4.24669 37.453 4.18011 37.4104 4.12486 37.3551C4.06961 37.2999 4.02701 37.2333 4 37.16C3.6793 36.7204 3.46066 36.2148 3.36 35.68C3.15167 34.6496 3.00475 33.6078 2.92 32.56C2.7 30.88 2.54 29.2 2.44 27.5C2.28 24.92 2.2 22.34 2.14 19.76C2.14 17.76 2.14 15.66 2.26 13.64C2.38 11.62 2.56 9.63999 2.84 7.51999V7.39999C5.88023 7.03708 8.93828 6.84344 12 6.81999C14.46 6.81999 16.94 6.81999 19.4 7.03999C21.86 7.25999 24.34 7.31999 26.78 7.55999L31.7 7.99999H33.1C33.3306 8.02091 33.5449 8.12804 33.7 8.29999C34.1415 8.8935 34.4486 9.57594 34.6 10.3C34.7805 11.1093 34.8942 11.9321 34.94 12.76V15.78C34.94 18.16 34.76 20.56 34.74 22.94C34.7345 23.1329 34.8046 23.3204 34.9354 23.4624C35.0662 23.6044 35.2472 23.6896 35.44 23.7C35.6329 23.7055 35.8204 23.6354 35.9624 23.5046C36.1044 23.3738 36.1896 23.1927 36.2 23C36.34 20.62 36.62 18.22 36.76 15.84C36.76 14.8 36.86 13.84 36.76 12.7C36.7788 11.543 36.658 10.388 36.4 9.25999C36.1861 8.43994 35.8345 7.66221 35.36 6.95999C35.002 6.52273 34.5319 6.19091 34 5.99999C33.343 5.84389 32.6739 5.74353 32 5.69999L26.96 5.17999C24.46 4.95999 21.96 4.77999 19.44 4.73999H14.42C10.2024 4.90781 6.00364 5.39589 1.86 6.19999C1.69297 6.22928 1.5444 6.32366 1.4469 6.46241C1.3494 6.60115 1.31096 6.77292 1.34 6.93999C1.34 6.93999 1.34 6.93999 1.34 7.07999C1.34 7.21999 1.22 7.21999 1.2 7.31999C0.94 9.37999 0.66 11.44 0.46 13.5C0.26 15.56 0.1 17.66 0 19.76V27.6C0 29.36 0.12 31.12 0.36 32.88C0.5 33.88 0.56 35.12 0.82 36.24C1.0192 37.1397 1.42297 37.9815 2 38.7C2.33659 39.1423 2.79554 39.476 3.32 39.66C3.89534 39.811 4.48557 39.8982 5.08 39.92L9.76 40.1H13.2C15.86 40.1 18.48 40 21.2 40.1L29.78 40.46C29.8749 40.4767 29.9723 40.4724 30.0654 40.4475C30.1585 40.4225 30.2449 40.3775 30.3188 40.3155C30.3926 40.2536 30.4519 40.1762 30.4926 40.0889C30.5334 40.0015 30.5545 39.9064 30.5545 39.81C30.5545 39.7136 30.5334 39.6184 30.4926 39.5311C30.4519 39.4438 30.3926 39.3664 30.3188 39.3045C30.2449 39.2425 30.1585 39.1975 30.0654 39.1725C29.9723 39.1476 29.8749 39.1433 29.78 39.16L29.7 39.2Z" fill="black"/>
<path fill-rule="evenodd" clip-rule="evenodd" d="M17.4 10.84C17.8124 10.5288 18.305 10.3415 18.82 10.3C19.84 10.18 20.98 10.3 21.86 10.3C21.9447 10.3055 22.0297 10.2935 22.1096 10.2648C22.1895 10.2361 22.2626 10.1913 22.3245 10.1332C22.3864 10.075 22.4357 10.0048 22.4693 9.92688C22.5029 9.84892 22.5202 9.7649 22.52 9.68C22.5254 9.59592 22.5142 9.51159 22.4869 9.43186C22.4597 9.35213 22.417 9.27857 22.3612 9.21539C22.3055 9.15221 22.2378 9.10066 22.1621 9.0637C22.0864 9.02674 22.0041 9.00509 21.92 9C20.6736 8.75351 19.4097 8.60638 18.14 8.56C17.4396 8.5767 16.7536 8.76193 16.14 9.1C15.6842 9.35106 15.292 9.70341 14.9938 10.1299C14.6956 10.5564 14.4993 11.0457 14.42 11.56C14.2895 12.7553 14.3502 13.9638 14.6 15.14C14.628 15.82 14.7491 16.4929 14.96 17.14C15.1622 17.6302 15.5303 18.0338 16 18.28C16.3197 18.5015 16.6799 18.6578 17.06 18.74C17.5224 18.8717 17.9994 18.9456 18.48 18.96C19.1858 19.0099 19.8942 19.0099 20.6 18.96C21.3058 18.9172 22.0076 18.8236 22.7 18.68C22.7946 18.6656 22.8853 18.6326 22.9672 18.5831C23.049 18.5336 23.1203 18.4684 23.1769 18.3913C23.2335 18.3143 23.2745 18.2268 23.2973 18.1339C23.3201 18.041 23.3244 17.9445 23.31 17.85C23.2956 17.7554 23.2626 17.6647 23.2131 17.5828C23.1636 17.501 23.0984 17.4297 23.0213 17.3731C22.9443 17.3165 22.8568 17.2755 22.7639 17.2527C22.671 17.2299 22.5746 17.2256 22.48 17.24C21.8543 17.29 21.2257 17.29 20.6 17.24C19.9686 17.2032 19.3404 17.123 18.72 17C18.4268 16.9551 18.1388 16.8814 17.86 16.78C17.6533 16.7083 17.4579 16.6073 17.28 16.48V14.9H17.7C17.9458 14.9299 18.1942 14.9299 18.44 14.9C18.6992 14.9292 18.9608 14.9292 19.22 14.9C21.58 14.42 21.76 14.1 21.72 13.62C21.68 13.14 21.56 12.9 19.14 12.6H18.36C18.0911 12.6123 17.8236 12.6458 17.56 12.7C17.3822 12.7545 17.2085 12.8213 17.04 12.9C17.0102 12.6007 17.0102 12.2993 17.04 12C17.0105 11.7921 17.0275 11.5802 17.0897 11.3796C17.152 11.179 17.2579 10.9947 17.4 10.84Z" fill="black"/>
<path fill-rule="evenodd" clip-rule="evenodd" d="M6.60001 33.5C7.07792 34.2129 7.81196 34.7145 8.64984 34.9007C9.48772 35.0869 10.3651 34.9434 11.1 34.5C11.4753 34.295 11.8013 34.0107 12.0554 33.6668C12.3095 33.3229 12.4855 32.9277 12.5712 32.5088C12.6569 32.0899 12.6502 31.6574 12.5515 31.2414C12.4529 30.8253 12.2647 30.4358 12 30.1C11.5 29.5029 10.8005 29.1072 10.0312 28.9863C9.26179 28.8654 8.47468 29.0274 7.81562 29.4424C7.15657 29.8574 6.67024 30.4971 6.44673 31.2432C6.22322 31.9892 6.27768 32.791 6.60001 33.5ZM9.86001 32.38C9.72052 32.4734 9.5635 32.5375 9.39848 32.5685C9.23346 32.5994 9.06388 32.5965 8.90001 32.56C8.71629 32.5449 8.53882 32.4862 8.38231 32.3888C8.22579 32.2914 8.09474 32.1581 8.00001 32C7.93413 31.7462 7.95315 31.4779 8.05418 31.236C8.1552 30.9941 8.33266 30.7919 8.55944 30.6604C8.78621 30.5288 9.04982 30.4752 9.30997 30.5076C9.57011 30.54 9.81248 30.6568 10 30.84C10.1167 30.9374 10.2081 31.0617 10.2662 31.2022C10.3243 31.3427 10.3475 31.4952 10.3337 31.6467C10.32 31.7981 10.2697 31.9439 10.1872 32.0716C10.1047 32.1994 9.9924 32.3052 9.86001 32.38Z" fill="black"/>
<path fill-rule="evenodd" clip-rule="evenodd" d="M15.3 26.74C15.6768 26.5368 16.0048 26.2538 16.2608 25.9108C16.5169 25.5677 16.695 25.1728 16.7826 24.7538C16.8702 24.3348 16.8653 23.9016 16.7681 23.4847C16.6709 23.0678 16.4839 22.6771 16.22 22.34C15.735 21.6974 15.0269 21.2598 14.2353 21.1135C13.4437 20.9671 12.626 21.1226 11.9433 21.5493C11.2606 21.9759 10.7626 22.6428 10.5472 23.4185C10.3319 24.1942 10.4149 25.0225 10.78 25.74C11.2616 26.4544 11.9991 26.9565 12.8403 27.1426C13.6815 27.3287 14.562 27.1846 15.3 26.74ZM12.22 24.24C12.1335 23.9822 12.1387 23.7025 12.2347 23.4481C12.3307 23.1938 12.5115 22.9803 12.7467 22.8439C12.9819 22.7075 13.2569 22.6565 13.5254 22.6995C13.7938 22.7425 14.0392 22.8769 14.22 23.08C14.3382 23.1806 14.4291 23.3096 14.484 23.4548C14.539 23.6001 14.5563 23.7569 14.5344 23.9106C14.5124 24.0643 14.4519 24.21 14.3584 24.334C14.265 24.4581 14.1417 24.5564 14 24.62C13.8591 24.7184 13.6986 24.7854 13.5296 24.8165C13.3605 24.8476 13.1867 24.8419 13.02 24.8C12.854 24.7704 12.6964 24.705 12.5582 24.6083C12.42 24.5115 12.3046 24.3859 12.22 24.24Z" fill="black"/>
<path fill-rule="evenodd" clip-rule="evenodd" d="M20.52 34.5C20.8984 34.2986 21.2282 34.017 21.4863 33.6747C21.7444 33.3325 21.9245 32.9379 22.0141 32.5188C22.1036 32.0996 22.1004 31.6659 22.0047 31.248C21.909 30.8302 21.7231 30.4384 21.46 30.1C20.9889 29.421 20.2749 28.9492 19.4656 28.7821C18.6563 28.6149 17.8138 28.7654 17.1123 29.2022C16.4108 29.639 15.9042 30.3287 15.6971 31.1287C15.4901 31.9287 15.5985 32.7777 16 33.5C16.4815 34.2144 17.2191 34.7165 18.0603 34.9026C18.9015 35.0887 19.782 34.9446 20.52 34.5ZM19.52 30.84C19.6328 30.9446 19.7182 31.0754 19.7686 31.2208C19.8191 31.3662 19.8331 31.5217 19.8094 31.6738C19.7857 31.8258 19.725 31.9697 19.6327 32.0929C19.5404 32.216 19.4193 32.3146 19.28 32.38C19.137 32.474 18.9765 32.5383 18.8082 32.5692C18.6399 32.6002 18.4671 32.597 18.3 32.56C18.1233 32.5389 17.9538 32.4774 17.8047 32.3803C17.6556 32.2831 17.5308 32.153 17.44 32C17.3302 31.7288 17.3232 31.4268 17.4204 31.1509C17.5176 30.8749 17.7122 30.644 17.9677 30.5015C18.2233 30.359 18.5221 30.3147 18.8079 30.3771C19.0938 30.4394 19.347 30.604 19.52 30.84Z" fill="black"/>
<path fill-rule="evenodd" clip-rule="evenodd" d="M26 26.74C26.3768 26.5368 26.7048 26.2538 26.9609 25.9108C27.2169 25.5677 27.395 25.1728 27.4826 24.7538C27.5703 24.3348 27.5653 23.9016 27.4681 23.4847C27.3709 23.0678 27.1839 22.6771 26.92 22.34C26.435 21.6974 25.727 21.2598 24.9353 21.1135C24.1437 20.9671 23.326 21.1226 22.6433 21.5493C21.9607 21.9759 21.4626 22.6428 21.2472 23.4185C21.0319 24.1942 21.115 25.0225 21.48 25.74C21.9616 26.4544 22.6991 26.9565 23.5403 27.1426C24.3815 27.3287 25.2621 27.1846 26 26.74ZM24.98 23.08C25.0983 23.1806 25.1891 23.3096 25.2441 23.4548C25.299 23.6001 25.3163 23.7569 25.2944 23.9106C25.2724 24.0643 25.2119 24.21 25.1185 24.334C25.025 24.4581 24.9017 24.5564 24.76 24.62C24.6191 24.7184 24.4587 24.7854 24.2896 24.8165C24.1205 24.8476 23.9467 24.8419 23.78 24.8C23.6033 24.7789 23.4338 24.7174 23.2847 24.6203C23.1356 24.5231 23.0108 24.393 22.92 24.24C22.8431 23.9863 22.8539 23.7142 22.9505 23.4674C23.0472 23.2206 23.2241 23.0135 23.4528 22.8795C23.6815 22.7456 23.9486 22.6925 24.2112 22.7288C24.4737 22.7652 24.7163 22.8889 24.9 23.08H24.98Z" fill="black"/>
<path fill-rule="evenodd" clip-rule="evenodd" d="M30.12 34.5C30.4968 34.2968 30.8248 34.0138 31.0809 33.6708C31.3369 33.3277 31.515 32.9328 31.6026 32.5138C31.6903 32.0948 31.6853 31.6616 31.5881 31.2447C31.4909 30.8278 31.3039 30.4371 31.04 30.1C30.555 29.4574 29.8469 29.0199 29.0553 28.8735C28.2637 28.7271 27.446 28.8826 26.7633 29.3093C26.0806 29.7359 25.5826 30.4029 25.3672 31.1786C25.1519 31.9543 25.235 32.7825 25.6 33.5C26.0816 34.2144 26.8191 34.7165 27.6603 34.9026C28.5015 35.0887 29.382 34.9446 30.12 34.5ZM29.1 30.84C29.2135 30.9432 29.3 31.0727 29.352 31.2171C29.4039 31.3615 29.4197 31.5164 29.398 31.6683C29.3763 31.8202 29.3178 31.9645 29.2275 32.0885C29.1372 32.2126 29.0179 32.3126 28.88 32.38C28.7365 32.473 28.5761 32.5367 28.4079 32.5676C28.2398 32.5985 28.0672 32.5959 27.9 32.56C27.7233 32.5389 27.5538 32.4774 27.4047 32.3803C27.2556 32.2832 27.1308 32.153 27.04 32C26.8862 31.7268 26.8472 31.4037 26.9316 31.1018C27.016 30.7999 27.2168 30.5438 27.49 30.39C27.7632 30.2362 28.0863 30.1972 28.3882 30.2815C28.6901 30.3659 28.9462 30.5668 29.1 30.84Z" fill="black"/>
<path fill-rule="evenodd" clip-rule="evenodd" d="M48 34.78C47.4144 33.6112 46.7107 32.5055 45.9 31.48C45.256 30.725 44.4198 30.1583 43.48 29.84C42.9824 29.7308 42.4628 29.787 42 30C41.34 30.2 40.56 30.58 39.86 30.84H39.2C39.0341 30.6893 38.8924 30.5139 38.78 30.32C38.24 29.58 37.82 28.66 37.36 28.02C36.6854 27.0126 35.753 26.2046 34.66 25.68C34.3057 25.5394 33.9247 25.479 33.5443 25.5032C33.1639 25.5274 32.7936 25.6356 32.46 25.82C31.8466 26.1683 31.3837 26.731 31.16 27.4C30.8955 28.2557 30.9452 29.1777 31.3 30C31.5832 30.6345 31.9317 31.2378 32.34 31.8C33.2226 32.8082 34.0505 33.863 34.82 34.96L35.12 35.54C34.658 35.3086 34.1669 35.1404 33.66 35.04C33.1744 34.9591 32.6759 35.0144 32.22 35.2C31.8963 35.3282 31.6146 35.5439 31.4062 35.8229C31.1979 36.1018 31.0711 36.4332 31.04 36.78C31.0011 37.8123 31.2804 38.8316 31.84 39.7C32.3572 40.4582 33.0414 41.0877 33.84 41.54C35.42 42.4 37.28 42.42 39.14 43.24C39.2161 43.2773 39.2988 43.2992 39.3834 43.3043C39.4679 43.3094 39.5527 43.2976 39.6327 43.2697C39.7127 43.2418 39.7864 43.1983 39.8494 43.1417C39.9125 43.0851 39.9636 43.0165 40 42.94C40.0686 42.7831 40.0736 42.6057 40.0139 42.4453C39.9542 42.2848 39.8345 42.1538 39.68 42.08C38.18 41.3 36.62 41.1 35.26 40.46C34.4237 40.1099 33.7224 39.4998 33.26 38.72C33.0847 38.4164 32.963 38.0849 32.9 37.74C32.891 37.5935 32.891 37.4465 32.9 37.3V37.06C33.2346 37.0553 33.5626 37.153 33.84 37.34C34.42 37.58 35 37.9 35.58 38.12C35.9822 38.2748 36.409 38.3561 36.84 38.36C37.141 38.3656 37.4323 38.254 37.6525 38.0487C37.8727 37.8434 38.0045 37.5606 38.02 37.26C38.0239 36.8634 37.9837 36.4677 37.9 36.08C37.8333 35.7892 37.7326 35.5072 37.6 35.24C37.38 34.72 37.06 34.24 36.8 33.76C36.0046 32.5662 35.1433 31.4178 34.22 30.32C33.9111 29.9251 33.6493 29.4956 33.44 29.04C33.3504 28.8461 33.3092 28.6333 33.32 28.42C33.3086 28.3266 33.321 28.2318 33.3559 28.1444C33.3909 28.057 33.4473 27.9798 33.52 27.92C33.76 27.78 33.98 27.92 34.22 28.14C34.6972 28.4908 35.1216 28.9084 35.48 29.38C35.96 29.98 36.42 30.88 36.98 31.58C37.2781 31.9801 37.6435 32.3252 38.06 32.6C38.3184 32.748 38.6048 32.8405 38.901 32.8715C39.1972 32.9025 39.4966 32.8713 39.78 32.78C40.5381 32.5113 41.2794 32.1974 42 31.84C42.34 31.68 42.62 31.48 42.84 31.54C43.501 31.7259 44.0968 32.0931 44.56 32.6C45.3263 33.5012 45.9966 34.4798 46.56 35.52C46.672 35.6556 46.8287 35.7469 47.0019 35.7774C47.1751 35.808 47.3536 35.7759 47.5053 35.6868C47.6569 35.5977 47.7719 35.4575 47.8296 35.2913C47.8873 35.1252 47.8839 34.9439 47.82 34.78H48Z" fill="black"/>
</svg>
