<svg width="48" height="48" viewBox="0 0 48 48" fill="none" xmlns="http://www.w3.org/2000/svg">
<g clip-path="url(#clip0_1209_6689)">
<path d="M27.6014 32.6832C27.341 33.2658 26.9212 33.7628 26.3902 34.1167C25.8593 34.4706 25.2391 34.6671 24.6012 34.6833C23.7282 34.6761 22.8588 34.7974 22.0211 35.0433C21.7933 35.1047 21.5834 35.2196 21.409 35.3785C21.2346 35.5374 21.1007 35.7357 21.0185 35.9569C20.9363 36.178 20.9082 36.4156 20.9364 36.6499C20.9647 36.8841 21.0486 37.1082 21.181 37.3034C22.0182 38.4636 23.1221 39.4054 24.3996 40.0494C25.6771 40.6934 27.0908 41.0207 28.5214 41.0036C33.3216 41.0036 38.0019 37.4634 38.0019 33.1032C38.027 32.5168 37.9307 31.9316 37.719 31.3841C37.5073 30.8367 37.1847 30.3389 36.7716 29.922C36.3584 29.5051 35.8636 29.1781 35.3181 28.9614C34.7726 28.7448 34.1882 28.6432 33.6016 28.663C32.347 28.7846 31.1421 29.2155 30.095 29.9171C29.0478 30.6187 28.191 31.5691 27.6014 32.6832Z" stroke="black" stroke-width="2.0001" stroke-linecap="round" stroke-linejoin="round"/>
<path d="M18.2009 1.00079C20.061 17.5216 32.5616 16.1815 24.2012 27.6821C19.421 34.3224 14.2007 30.5422 10.0405 30.5422C1.7601 30.5422 1.00006 41.7028 1.00006 46.003V47.103" stroke="black" stroke-width="2.0001" stroke-linecap="round" stroke-linejoin="round"/>
<path d="M7.52038 47.003V45.723C7.52038 45.723 6.82034 38.1026 11.0205 37.5626C12.2206 37.4026 13.5207 38.8826 14.3807 39.7827C15.7431 41.4728 17.4676 42.8354 19.4269 43.7701C21.3862 44.7048 23.5304 45.1876 25.7013 45.1829C28.8181 45.2839 31.9153 44.6546 34.7456 43.3453C37.5759 42.0361 40.0609 40.0832 42.002 37.6426C45.3566 33.161 47.1419 27.6995 47.0823 22.1018C47.0823 12.2813 42.2021 5.44101 35.2017 5.44101C34.2494 5.45198 33.3111 5.67274 32.4538 6.08758C31.5964 6.50242 30.8411 7.10114 30.2415 7.84113C29.3814 8.70117 28.8414 9.18119 28.0014 9.18119C26.8213 9.18119 25.3412 6.88108 24.8412 1.00079" stroke="black" stroke-width="2.0001" stroke-linecap="round" stroke-linejoin="round"/>
</g>
<defs>
<clipPath id="clip0_1209_6689">
<rect width="48.0023" height="48.0023" fill="white"/>
</clipPath>
</defs>
</svg>
