<svg width="48" height="48" viewBox="0 0 48 48" fill="none" xmlns="http://www.w3.org/2000/svg">
<path d="M22.3993 31.9294L32.0271 22.3014C34.5439 19.7875 38.622 19.7883 41.1377 22.3041C43.6534 24.8198 43.6543 28.8979 41.1403 31.4147L31.5212 41.0338C31.5182 41.0366 31.5154 41.0396 31.5124 41.0426C28.9959 43.5591 24.9157 43.5591 22.3993 41.0426C19.8827 38.526 19.8827 34.4458 22.3993 31.9294Z" stroke="black" stroke-width="3"/>
<path d="M27.2117 27.1166L36.3249 36.2299" stroke="black" stroke-width="3"/>
<path d="M5.25 14.625H24" stroke="black" stroke-width="3"/>
<path d="M5.25 14.625C5.25 17.1114 6.23772 19.496 7.99587 21.2541C9.75403 23.0123 12.1386 24 14.625 24C17.1114 24 19.496 23.0123 21.2541 21.2541C23.0123 19.496 24 17.1114 24 14.625C24 12.1386 23.0123 9.75403 21.2541 7.99587C19.496 6.23772 17.1114 5.25 14.625 5.25C12.1386 5.25 9.75403 6.23772 7.99587 7.99587C6.23772 9.75403 5.25 12.1386 5.25 14.625Z" stroke="black" stroke-width="3"/>
</svg>
