<svg width="48" height="48" viewBox="0 0 48 48" fill="none" xmlns="http://www.w3.org/2000/svg">
<g clip-path="url(#clip0_1210_1819)">
<path fill-rule="evenodd" clip-rule="evenodd" d="M36 10.92C35.2224 8.60814 34.168 6.39877 32.86 4.34001C31.7556 3.33758 30.5864 2.4089 29.36 1.56001C28.0494 0.989485 26.6606 0.618696 25.24 0.460008C22.8481 0.0661675 20.4192 -0.0546072 18 0.100008C16.252 0.21947 14.5548 0.739554 13.04 1.62001C12.1737 2.12394 11.424 2.80555 10.84 3.62001C10.7537 3.66216 10.6784 3.72378 10.62 3.80001C10.1217 4.50857 9.66102 5.24293 9.24001 6.00001C8.60001 7.08001 8.04001 8.20001 7.46001 9.32001C6.88001 10.44 6.26001 11.32 5.80001 12.38C5.44256 13.168 5.20009 14.0031 5.08001 14.86C4.89626 17.1898 5.61196 19.5016 7.08001 21.32C9.09263 23.7046 11.4207 25.8039 14 27.56C14.1326 27.6687 14.303 27.7204 14.4736 27.7035C14.6443 27.6866 14.8013 27.6026 14.91 27.47C15.0187 27.3374 15.0704 27.167 15.0535 26.9964C15.0366 26.8257 14.9526 26.6687 14.82 26.56C12.4981 24.6746 10.4159 22.5118 8.62001 20.12C7.54315 18.6717 7.03763 16.8775 7.20001 15.08C7.26849 14.3926 7.43693 13.7188 7.70001 13.08C8.08001 12.02 8.58001 11.08 9.00001 9.96001L9.54001 8.60001C9.73004 10.5908 10.5258 12.4755 11.82 14C12.5002 14.7842 13.2283 15.5257 14 16.22C14.7651 16.9678 15.6025 17.6377 16.5 18.22C16.6289 18.2805 16.7755 18.2916 16.9119 18.251C17.0484 18.2104 17.1652 18.1211 17.24 18C17.2831 17.9381 17.3127 17.8679 17.327 17.7938C17.3413 17.7198 17.3399 17.6436 17.323 17.5701C17.306 17.4966 17.2739 17.4275 17.2286 17.3672C17.1833 17.3069 17.1259 17.2568 17.06 17.22C16.2467 16.6617 15.4897 16.0254 14.8 15.32C14.0848 14.6323 13.4166 13.8973 12.8 13.12C11.5585 11.5802 10.9315 9.635 11.04 7.66001C11.0924 6.71544 11.3938 5.80156 11.9137 5.0112C12.4336 4.22084 13.1534 3.58215 14 3.16001C15.2358 2.49352 16.5994 2.09806 18 2.00001C20.2996 1.92636 22.6003 2.10746 24.86 2.54001C26.0618 2.6827 27.2351 3.00636 28.34 3.50001C28.982 3.79714 29.5442 4.24274 29.98 4.80001C30.5194 5.57794 30.7802 6.51528 30.72 7.46001C30.6688 8.5329 30.4806 9.59485 30.16 10.62C29.8481 11.6316 29.4672 12.6206 29.02 13.58C28.3656 15.0913 27.6312 16.5667 26.82 18C25.7896 19.8111 24.6751 21.5731 23.48 23.28C22.2522 24.9777 20.9161 26.5944 19.48 28.12C18.1536 29.5523 16.6786 30.8396 15.08 31.96C12.6276 33.6615 10.0691 35.2047 7.42001 36.58C7.34516 36.6194 7.2788 36.6732 7.22472 36.7382C7.17064 36.8032 7.1299 36.8783 7.10483 36.9591C7.07976 37.0399 7.07084 37.1248 7.07859 37.209C7.08635 37.2933 7.11061 37.3752 7.15001 37.45C7.18941 37.5249 7.24316 37.5912 7.3082 37.6453C7.37325 37.6994 7.4483 37.7401 7.52909 37.7652C7.60988 37.7903 7.69481 37.7992 7.77904 37.7914C7.86328 37.7837 7.94516 37.7594 8.02001 37.72C10.7823 36.3966 13.4547 34.8934 16.02 33.22C17.7255 32.0349 19.3188 30.6959 20.78 29.22C22.2784 27.6723 23.6747 26.0288 24.96 24.3C26.2511 22.5832 27.4527 20.8008 28.56 18.96C29.4 17.54 30.28 16.06 31.02 14.52C31.5189 13.4631 31.9465 12.374 32.3 11.26C32.7736 9.83624 32.9903 8.33963 32.94 6.84001C33.6391 8.28657 34.2081 9.79252 34.64 11.34C35.2866 13.5311 35.5039 15.8265 35.28 18.1C35.0435 19.8367 34.4803 21.5129 33.62 23.04C32.2641 25.4238 30.6402 27.6449 28.78 29.66C25.6791 33.4999 22.3391 37.1405 18.78 40.56C16.68 42.5075 14.4625 44.3242 12.14 46C11.8 45.14 11.46 44.26 11.08 43.42C10.7187 42.6006 10.3045 41.8056 9.84001 41.04C9.0166 39.7805 8.10075 38.5838 7.10001 37.46C7.01779 37.3354 6.88943 37.2485 6.74315 37.2185C6.59687 37.1885 6.44466 37.2178 6.32001 37.3C6.19536 37.3822 6.10847 37.5106 6.07847 37.6569C6.04846 37.8032 6.07779 37.9554 6.16001 38.08C6.74001 39.26 7.18001 40.44 7.72001 41.6C7.96001 42.08 8.20001 42.58 8.46001 43.06C8.72001 43.54 9.04001 44 9.30001 44.48C9.98752 45.7077 10.7629 46.8841 11.62 48C12.4 48.18 17.34 44.24 21.76 40.12C24.8263 37.2642 27.7308 34.2395 30.46 31.06C32.4203 28.9108 34.125 26.5416 35.54 24C36.4438 22.2014 36.9938 20.246 37.16 18.24C37.238 15.7487 36.8444 13.2651 36 10.92Z" fill="black"/>
<path fill-rule="evenodd" clip-rule="evenodd" d="M13.84 11.62C14.5455 11.4051 15.2682 11.2512 16 11.16C17.1028 10.9697 18.221 10.8827 19.34 10.9C20.4789 10.8303 21.6211 10.8303 22.76 10.9C24.2839 11.0077 25.7886 11.3032 27.24 11.78C27.3936 11.823 27.5577 11.8089 27.7017 11.7403C27.8458 11.6717 27.9601 11.5533 28.0235 11.4069C28.087 11.2605 28.0952 11.0961 28.0468 10.9441C27.9983 10.792 27.8965 10.6627 27.76 10.58C25.8767 9.63626 23.8487 9.01434 21.76 8.74003C20.5083 8.60842 19.245 8.6353 18 8.82003C17.1553 8.92587 16.3241 9.12028 15.52 9.40003C14.7356 9.65869 13.9732 9.97972 13.24 10.36L12.62 10.74C12.18 11.34 12.2 11.8 13.1 11.92C13.3369 11.7975 13.5846 11.6971 13.84 11.62Z" fill="black"/>
<path fill-rule="evenodd" clip-rule="evenodd" d="M42.82 34.32C42.6549 33.9649 42.382 33.6709 42.04 33.48C41.4821 33.1514 40.908 32.8511 40.32 32.58C39.3 32.08 38.32 31.58 37.22 31.04C36.54 30.68 35.8734 30.3 35.22 29.9C35.1619 29.8542 35.0949 29.8209 35.0234 29.8021C34.9518 29.7833 34.8771 29.7794 34.804 29.7906C34.7308 29.8019 34.6608 29.8281 34.5982 29.8675C34.5356 29.907 34.4817 29.9589 34.44 30.02C34.3938 30.0798 34.3601 30.1483 34.3411 30.2215C34.3221 30.2946 34.318 30.3709 34.3292 30.4456C34.3404 30.5204 34.3667 30.5921 34.4063 30.6564C34.446 30.7208 34.4983 30.7764 34.56 30.82C35.28 31.44 36.08 32.04 36.9 32.64C37.72 33.24 38.5 33.76 39.3 34.32C40.1 34.88 41.14 34.46 40.62 35.98C40.4393 36.4642 40.2323 36.9383 40 37.4L38.82 39.4L36.42 42.74C36.3674 42.8312 36.3396 42.9347 36.3396 43.04C36.3396 43.1453 36.3674 43.2488 36.42 43.34L36.24 43.18C35.4791 42.5804 34.776 41.9108 34.14 41.18C33.68 40.72 33.24 40.22 32.74 39.78C31.9 39.02 30.98 38.38 30.04 37.66C29.9339 37.5539 29.7901 37.4943 29.64 37.4943C29.49 37.4943 29.3461 37.5539 29.24 37.66C29.1339 37.7661 29.0743 37.91 29.0743 38.06C29.0743 38.21 29.1339 38.3539 29.24 38.46C29.82 39.3 30.3 40.16 30.94 40.94C31.2012 41.2942 31.4959 41.6224 31.82 41.92C32.1372 42.2327 32.4782 42.5202 32.84 42.78C33.6881 43.4016 34.6081 43.9187 35.58 44.32C35.7324 44.402 35.9103 44.4229 36.0776 44.3783C36.2448 44.3337 36.3887 44.227 36.48 44.08C36.5198 43.992 36.5403 43.8966 36.5403 43.8C36.5403 43.7034 36.5198 43.608 36.48 43.52L36.6 43.66C36.6681 43.7104 36.7455 43.7468 36.8278 43.7671C36.9101 43.7874 36.9956 43.7911 37.0793 43.7781C37.163 43.7651 37.2433 43.7355 37.3155 43.6912C37.3878 43.6469 37.4505 43.5887 37.5 43.52L40.3 40.48C40.5923 40.1487 40.866 39.8015 41.12 39.44C41.3895 39.0823 41.6366 38.7082 41.86 38.32C42.2648 37.6945 42.5938 37.0232 42.84 36.32C43.0235 35.665 43.0166 34.9712 42.82 34.32Z" fill="black"/>
</g>
<defs>
<clipPath id="clip0_1210_1819">
<rect width="48" height="48" fill="white"/>
</clipPath>
</defs>
</svg>
