<svg width="48" height="48" viewBox="0 0 48 48" fill="none" xmlns="http://www.w3.org/2000/svg">
<g clip-path="url(#clip0_1210_1859)">
<path fill-rule="evenodd" clip-rule="evenodd" d="M22.78 28C22.78 28 22.9 28.16 22.94 28.22C22.98 28.28 23.06 28.4 23.1 28.34C23.1174 28.2475 23.1174 28.1525 23.1 28.06C23.1249 28.0477 23.1523 28.0412 23.18 28.0412C23.2078 28.0412 23.2352 28.0477 23.26 28.06C23.2926 28.0994 23.3103 28.1489 23.3103 28.2C23.3103 28.2511 23.2926 28.3006 23.26 28.34C23.2355 29.1181 23.1553 29.8934 23.02 30.66C23.02 32.04 23.02 33.44 23.2 34.84C23.38 36.24 23.38 37.66 23.52 39.04L23.84 43.5C23.84 43.86 24 45.04 24.04 45.5C24.0477 45.5329 24.0477 45.5671 24.04 45.6C24.027 45.7086 24.0381 45.8187 24.0727 45.9224C24.1073 46.0262 24.1644 46.121 24.24 46.2C24.24 46.2 25.48 46.32 25.46 45.42C25.46 44.9 25.46 43.68 25.36 43.3V38.88V35.58V30.62C25.4294 29.6746 25.4294 28.7254 25.36 27.78C25.319 27.3012 25.1303 26.8469 24.82 26.48C24.4394 26.1445 23.9644 25.935 23.46 25.88C22.52 25.74 21 25.88 20.46 25.74L15.62 25.04C14 24.84 12.36 24.68 10.74 24.54C9.88916 24.4538 9.05061 24.2727 8.24004 24C7.47934 23.7901 6.73142 23.5363 6.00004 23.24C5.74004 23.12 4.74004 21.98 4.44004 22.12C4.40458 22.0685 4.35633 22.0272 4.30004 22C4.2216 21.964 4.13632 21.9454 4.05004 21.9454C3.96375 21.9454 3.87848 21.964 3.80004 22C3.34004 22 3.12004 22.32 3.32004 22.84C3.32004 22.84 3.32004 23.02 3.56004 23.18C4.13204 23.6901 4.7403 24.158 5.38004 24.58C6.28348 25.0775 7.22673 25.4989 8.20004 25.84C8.84858 26.0862 9.51794 26.2736 10.2 26.4L19.82 28C20.28 28.16 22 27.78 22.78 28Z" fill="black"/>
<path fill-rule="evenodd" clip-rule="evenodd" d="M5.74 1.32001H5.98H6C5.92796 1.36993 5.84617 1.40401 5.76 1.42001C5.76 1.56001 5.9 1.42001 6 1.32001C6.17917 1.2956 6.36083 1.2956 6.54 1.32001C6.96 1.48001 15.2 3.60001 22.54 6.06001C25.9921 7.0524 29.305 8.47702 32.4 10.3C33.04 10.76 33.74 11.16 34.4 11.66C34.7376 11.9211 35.0342 12.2312 35.28 12.58C36.06 13.68 37 14.58 37.82 15.78C38.1361 16.1975 38.4299 16.6314 38.7 17.08C39.808 19.0346 40.6361 21.1351 41.16 23.32C41.9579 26.6973 42.4664 30.1364 42.68 33.6L43.16 41.18V43.68V45.18C43.1761 45.3315 43.2312 45.4762 43.32 45.6C43.32 45.6 44.6 46.1 44.6 45.08C44.8 45.08 44.6 44.04 44.6 43.72V41.1L44.4 33.52C44.3146 29.9317 43.913 26.3578 43.2 22.84C42.695 20.4559 41.8603 18.1538 40.72 16C40.4036 15.4604 40.0564 14.9396 39.68 14.44C38.88 13.36 37.98 12.44 37.2 11.28C36.8149 10.7516 36.357 10.2803 35.84 9.88001C35.2 9.38001 34.48 8.94001 33.84 8.46001C31.3318 6.97517 28.6431 5.81903 25.84 5.02001C18 2.34001 7.44 0.22001 6.94 1.03228e-05C6.47593 -0.0695835 6.00407 -0.0695835 5.54 1.03191e-05C5.40198 0.0116802 5.27185 0.0692272 5.17036 0.163474C5.06886 0.25772 5.00185 0.383238 4.98 0.52001C4.96214 0.613503 4.96535 0.709802 4.98941 0.801894C5.01347 0.893986 5.05777 0.979552 5.11908 1.05236C5.1804 1.12516 5.25717 1.18338 5.34383 1.22276C5.43048 1.26214 5.52483 1.2817 5.62 1.28001L5.74 1.32001Z" fill="black"/>
<path fill-rule="evenodd" clip-rule="evenodd" d="M36.4 28.26C36.4 28.08 36.28 27.98 36.14 28.06C36 28.14 36.24 28.22 36.4 28.26ZM29.48 28.44H29.38C29.28 28.44 29.42 28.46 29.48 28.44ZM29.94 29C30.3737 29.5696 30.9179 30.0457 31.54 30.4C32.0401 30.6524 32.6083 30.7366 33.16 30.64C33.7084 30.5337 34.2354 30.3378 34.72 30.06C35.3228 29.7158 35.8862 29.3067 36.4 28.84C36.4 29.28 36.3 29.76 36.28 29.92L35.58 39.74L35.38 43.36L35.28 44.56V45.06C35.28 47.42 35.64 48.18 36 47.96C36.36 48.16 36.7 47.4 36.7 45.06V44.56L36.84 43.58L37.26 39.82L38.46 30.02C38.5711 29.0192 38.4827 28.0064 38.2 27.04C38.0943 26.7876 37.9305 26.5637 37.722 26.3865C37.5135 26.2092 37.2661 26.0837 37 26.02C36.651 25.9218 36.2775 25.9649 35.96 26.14C35.5663 26.3815 35.2036 26.6703 34.88 27C34.5435 27.3174 34.1749 27.599 33.78 27.84C33.4637 28.0459 33.1106 28.1885 32.74 28.26C32.56 28.26 32.44 28.26 32.32 28.06C31.992 27.747 31.6847 27.4129 31.4 27.06C31.0916 26.689 30.7014 26.3947 30.26 26.2C29.8146 26.0363 29.3254 26.0363 28.88 26.2C28.5289 26.3334 28.2378 26.5891 28.06 26.92C27.8853 27.3085 27.7642 27.7189 27.7 28.14C27.6047 28.6679 27.5578 29.2035 27.56 29.74C27.56 30.48 27.66 31.2 27.72 31.92C27.78 32.64 27.92 33.92 28.06 34.9C28.36 37.2 28.76 39.46 29.1 41.76C29.24 42.76 29.22 43.94 29.38 45.02C29.4324 45.5301 29.5396 46.033 29.7 46.52C29.7588 46.6749 29.8737 46.8021 30.0219 46.8762C30.1701 46.9503 30.3408 46.9659 30.5 46.92C30.6549 46.8612 30.7821 46.7463 30.8562 46.5981C30.9303 46.4499 30.9459 46.2792 30.9 46.12C30.7802 45.717 30.713 45.3002 30.7 44.88V41.58L30 31.72V29.72V29H29.94Z" fill="black"/>
<path fill-rule="evenodd" clip-rule="evenodd" d="M6.96009 13.4L6.46009 13.28L5.60009 13.14H5.40009C5.51364 13.1673 5.61791 13.2243 5.70224 13.3051C5.78656 13.3859 5.84794 13.4877 5.88009 13.6C5.90092 13.6801 5.9055 13.7636 5.89354 13.8456C5.88158 13.9275 5.85332 14.0062 5.81045 14.077C5.76757 14.1479 5.71094 14.2094 5.64389 14.258C5.57685 14.3066 5.50075 14.3413 5.42009 14.36C5.73029 14.3187 6.02812 14.2117 6.29368 14.0462C6.55925 13.8806 6.78644 13.6603 6.96009 13.4ZM28.3201 20.82C28.5601 20.72 28.1001 20.02 28.0201 19.78C27.9208 19.4885 27.7227 19.2408 27.4601 19.08C27.1529 18.9125 26.8227 18.7912 26.4801 18.72L25.3001 18.52L21.4601 17.78C20.6984 17.6144 19.9498 17.3938 19.2201 17.12C18.0001 16.7 16.9401 16.2 15.7601 15.76C14.6202 15.3267 13.4587 14.9529 12.2801 14.64C11.1201 14.32 10.0001 14 8.74009 13.84L6.96009 13.4C7.52009 12.18 5.14008 10.86 5.24008 13.16H5.10009H4.94009C4.62009 13.34 4.24009 14.36 5.28009 14.34H5.52009L6.14008 14.46L8.46009 15.12C9.62009 15.38 10.7401 15.68 11.8601 16.04C12.9733 16.3835 14.068 16.7841 15.1401 17.24C16.3001 17.74 17.4001 18.3 18.5401 18.78C19.3392 19.1233 20.1611 19.4107 21.0001 19.64L25.0001 20.58L25.8601 20.8C25.9663 21.1274 26.1071 21.4425 26.2801 21.74C26.6695 22.4935 27.1911 23.1709 27.8201 23.74C28.4983 24.3592 29.3458 24.7623 30.2542 24.8977C31.1626 25.033 32.0907 24.8946 32.9201 24.5C34.0081 24.0011 34.866 23.1075 35.3201 22C36.1082 20.1815 36.2425 18.1462 35.7001 16.24C35.255 14.8786 34.3121 13.7356 33.0601 13.04C32.3603 12.6711 31.5669 12.518 30.7801 12.6C29.9797 12.6654 29.2219 12.9882 28.6201 13.52C28.3407 13.7953 28.047 14.0557 27.7401 14.3C27.6201 14.3 27.5201 14.5 27.3601 14.46L26.0001 13.7L23.1001 12.62L16.1201 10.16L10.0001 8.63998L8.24008 8.11998C7.90008 7.97998 7.62009 7.75998 7.30009 7.63998C7.09572 7.53551 6.8696 7.48069 6.64008 7.47998C6.47223 7.50825 6.31981 7.59508 6.2099 7.72506C6.09998 7.85504 6.03967 8.01976 6.03967 8.18998C6.03967 8.3602 6.09998 8.52492 6.2099 8.6549C6.31981 8.78488 6.47223 8.87171 6.64008 8.89998L7.68008 9.43998L9.68009 10.1L15.6801 11.84L22.5801 14.54L25.2001 15.62C25.5401 15.78 25.8601 16.06 26.2001 16.24C26.4403 16.3754 26.6953 16.4828 26.9601 16.56C27.416 16.7016 27.9042 16.7016 28.3601 16.56C29.0468 16.2411 29.6701 15.8007 30.2001 15.26C30.4453 15.0669 30.748 14.9613 31.0601 14.96C31.3778 14.9268 31.6983 14.9895 31.9801 15.14C32.4363 15.406 32.8251 15.7735 33.1165 16.2139C33.4078 16.6544 33.5938 17.1561 33.6601 17.68C33.8084 18.8685 33.6429 20.0752 33.1801 21.18C32.959 21.7562 32.5211 22.2228 31.9601 22.48C31.6887 22.6148 31.3929 22.6932 31.0903 22.7104C30.7878 22.7276 30.485 22.6832 30.2001 22.58C29.8191 22.4522 29.4756 22.2324 29.2001 21.94C28.8463 21.6184 28.5488 21.2398 28.3201 20.82Z" fill="black"/>
</g>
<defs>
<clipPath id="clip0_1210_1859">
<rect width="48" height="48" fill="white"/>
</clipPath>
</defs>
</svg>
