<svg width="48" height="48" viewBox="0 0 48 48" fill="none" xmlns="http://www.w3.org/2000/svg">
<g clip-path="url(#clip0_1210_1831)">
<path d="M39.78 14.26C38.2724 12.8049 36.4915 11.6629 34.54 10.9C31.8 9.96002 29.54 10.62 25.52 10.52C23.2328 10.5997 20.9706 10.0238 19 8.86002C18.1052 8.19441 17.3925 7.31415 16.9276 6.30048C16.4628 5.28682 16.2607 4.17238 16.34 3.06002C16.3401 2.9043 16.2796 2.75464 16.1714 2.64268C16.0632 2.53071 15.9156 2.46521 15.76 2.46002C15.6062 2.46002 15.4587 2.52113 15.3499 2.6299C15.2411 2.73867 15.18 2.8862 15.18 3.04002C15.0513 4.36109 15.2611 5.69317 15.7894 6.9108C16.3177 8.12844 17.1473 9.19155 18.2 10C20.3553 11.4198 22.8791 12.1776 25.46 12.18C27.8552 12.1202 30.2519 12.1869 32.64 12.38C34.8429 12.9432 36.8361 14.1308 38.38 15.8C40.4214 17.6139 41.8878 19.9853 42.5985 22.622C43.3093 25.2588 43.2333 28.0459 42.38 30.64C41.5979 33.2817 40.2525 35.7224 38.4364 37.794C36.6202 39.8657 34.3766 41.519 31.86 42.64C27.7478 43.9772 23.4016 44.4404 19.1 44C16.4974 43.8709 13.9709 43.0792 11.76 41.7C12.0794 41.158 12.477 40.666 12.94 40.24C13.07 40.1552 13.1609 40.0221 13.1928 39.8702C13.2246 39.7183 13.1949 39.56 13.11 39.43C13.0251 39.3001 12.8921 39.2091 12.7402 39.1773C12.5883 39.1454 12.43 39.1752 12.3 39.26C11.2542 39.7232 10.3199 40.4052 9.56 41.26C9.24523 41.6403 8.97669 42.0565 8.76 42.5C8.5433 42.9403 8.37563 43.4031 8.26 43.88C7.97102 45.0024 7.883 46.167 8 47.32C8 47.4951 8.06954 47.6629 8.19331 47.7867C8.31709 47.9105 8.48496 47.98 8.66 47.98C8.83505 47.98 9.00292 47.9105 9.12669 47.7867C9.25047 47.6629 9.32 47.4951 9.32 47.32C9.48144 46.3809 9.76379 45.4666 10.16 44.6C10.32 44.24 10.5 43.9 10.66 43.56L11.02 42.9C13.3777 44.4152 16.0682 45.3349 18.86 45.58C23.431 46.1596 28.0729 45.7643 32.48 44.42C35.3333 43.2464 37.89 41.4533 39.9654 39.1704C42.0407 36.8875 43.5828 34.1719 44.48 31.22C45.4401 28.2431 45.5067 25.0501 44.6713 22.0358C43.836 19.0215 42.1354 16.3181 39.78 14.26Z" fill="black"/>
<path d="M16.44 31C17.6021 29.3268 18.2929 27.3719 18.44 25.34C18.6203 22.7385 18.4725 20.1246 18 17.56C21.7761 18.6014 25.7748 18.511 29.5 17.3C29.5853 17.2711 29.6642 17.2257 29.732 17.1663C29.7998 17.107 29.8552 17.0349 29.8952 16.9541C29.9351 16.8733 29.9587 16.7854 29.9647 16.6955C29.9707 16.6056 29.9589 16.5154 29.93 16.43C29.9011 16.3447 29.8557 16.2658 29.7963 16.198C29.737 16.1302 29.6648 16.0748 29.584 16.0348C29.5033 15.9949 29.4154 15.9713 29.3255 15.9653C29.2356 15.9593 29.1453 15.9711 29.06 16C25.5262 16.8659 21.8174 16.6923 18.38 15.5C16.4624 14.8255 14.7813 13.6098 13.54 12C12.7113 10.8796 12.1069 9.60967 11.76 8.26001C11.5029 7.3086 11.4483 6.31381 11.6 5.34001C11.8 3.78001 12.3 2.22001 12.6 0.720009C12.6272 0.643777 12.6381 0.562698 12.6321 0.481985C12.6261 0.401273 12.6032 0.322713 12.565 0.25136C12.5268 0.180007 12.4741 0.117439 12.4103 0.0676815C12.3464 0.0179236 12.2729 -0.0179232 12.1944 -0.0375532C12.1159 -0.0571833 12.0341 -0.0601622 11.9544 -0.0462982C11.8746 -0.0324343 11.7987 -0.00203444 11.7314 0.0429462C11.6641 0.0879268 11.607 0.146492 11.5637 0.214876C11.5204 0.28326 11.4919 0.359948 11.48 0.440009C11.02 2.00001 10.4 3.50001 9.99999 5.08001C9.77043 6.23538 9.77043 7.42463 9.99999 8.58001C10.2893 10.2144 10.9086 11.7728 11.82 13.16C12.7417 14.5382 13.9662 15.6874 15.4 16.52C15.804 16.752 16.2252 16.9526 16.66 17.12C16.9901 19.7765 16.9901 22.4636 16.66 25.12C16.403 26.7946 15.7136 28.3733 14.66 29.7C13.3823 31.2096 11.7924 32.4241 9.99999 33.26C7.96374 34.2373 6.15746 35.6346 4.69999 37.36C3.51743 38.9775 2.82334 40.9001 2.69999 42.9C2.69999 43.66 2.57999 44.48 2.57999 45.3V46.92C2.58752 47.0068 2.61216 47.0913 2.6525 47.1685C2.69283 47.2457 2.74806 47.3142 2.815 47.37C2.88193 47.4258 2.95925 47.4678 3.04249 47.4935C3.12573 47.5192 3.21325 47.5283 3.29999 47.52C3.38591 47.515 3.46995 47.4928 3.54707 47.4545C3.6242 47.4163 3.69282 47.3629 3.74883 47.2976C3.80485 47.2322 3.8471 47.1563 3.87308 47.0742C3.89905 46.9921 3.9082 46.9057 3.89999 46.82C3.87013 46.3271 3.87013 45.8329 3.89999 45.34C3.89999 44.58 4.05999 43.8 4.15999 43.08C4.34655 41.4234 4.99059 39.8513 6.01999 38.54C7.48767 37.0974 9.22827 35.9619 11.14 35.2C13.1982 34.2134 15.0092 32.7783 16.44 31Z" fill="black"/>
<path d="M34.42 34.86C34.4878 34.9162 34.5662 34.9583 34.6505 34.9838C34.7349 35.0092 34.8234 35.0175 34.911 35.0082C34.9987 34.9989 35.0835 34.9721 35.1606 34.9295C35.2377 34.8869 35.3055 34.8292 35.36 34.76C35.9588 34.2353 36.3519 33.515 36.4691 32.7274C36.5863 31.9399 36.4201 31.1363 36 30.46C35.0334 29.356 33.6957 28.6444 32.24 28.46C29.609 27.8961 26.8958 27.8282 24.24 28.26C22.4088 28.5486 20.662 29.231 19.12 30.26C17.6414 31.3481 16.616 32.9432 16.24 34.74C16.0371 35.7067 16.1074 36.7108 16.443 37.6398C16.7786 38.5688 17.3662 39.386 18.14 40C18.6348 40.3992 19.2067 40.692 19.82 40.86C20.6033 41.0788 21.4079 41.2129 22.22 41.26C24.1887 41.4172 26.1672 41.116 28 40.38C30.5593 39.2896 32.977 37.8927 35.2 36.22C35.2664 36.1812 35.3242 36.1292 35.3696 36.0671C35.4151 36.005 35.4473 35.9342 35.4642 35.8592C35.481 35.7841 35.4823 35.7064 35.4678 35.6308C35.4533 35.5552 35.4234 35.4835 35.38 35.42C35.2946 35.2933 35.1626 35.2055 35.0128 35.1755C34.8631 35.1456 34.7075 35.1759 34.58 35.26C32.3703 36.7369 29.9853 37.9328 27.48 38.82C25.8829 39.3481 24.1851 39.4987 22.52 39.26C21.9466 39.1833 21.3787 39.0697 20.82 38.92C20.3674 38.8034 19.9447 38.5921 19.58 38.3C19.1424 37.9179 18.8178 37.4232 18.6415 36.8696C18.4652 36.3161 18.4439 35.7248 18.58 35.16C18.8281 33.9045 19.5427 32.7896 20.58 32.04C22.1847 30.9119 24.0497 30.21 26 30C27.9899 29.7166 30.01 29.7166 32 30C33.0733 30.0567 34.0865 30.5134 34.84 31.28C35.34 31.92 35.2 32.78 34.34 33.88C34.2761 33.9473 34.2272 34.0273 34.1963 34.1148C34.1655 34.2023 34.1535 34.2954 34.161 34.3879C34.1686 34.4803 34.1955 34.5702 34.2402 34.6515C34.2848 34.7329 34.346 34.8039 34.42 34.86Z" fill="black"/>
</g>
<defs>
<clipPath id="clip0_1210_1831">
<rect width="48" height="48" fill="white"/>
</clipPath>
</defs>
</svg>
