<svg width="48" height="48" viewBox="0 0 48 48" fill="none" xmlns="http://www.w3.org/2000/svg">
<g clip-path="url(#clip0_1210_1824)">
<path fill-rule="evenodd" clip-rule="evenodd" d="M30.62 39.76C30.6201 39.6768 30.6034 39.5946 30.571 39.518C30.5386 39.4414 30.4911 39.3722 30.4314 39.3143C30.3717 39.2565 30.301 39.2113 30.2234 39.1813C30.1459 39.1514 30.0631 39.1373 29.98 39.14C29.8085 39.1452 29.6457 39.217 29.5262 39.3402C29.4067 39.4634 29.3399 39.6283 29.34 39.8V42.34V44.02C29.3535 44.3693 29.2564 44.714 29.0625 45.0049C28.8685 45.2958 28.5877 45.5181 28.26 45.64C27.77 45.7649 27.2657 45.8254 26.76 45.82H24C23.32 45.82 22.3 45.98 21.4 45.94C19.52 45.82 20.36 45.06 20.22 43.94L19.46 38.92C19.4357 38.7752 19.3592 38.6444 19.245 38.5523C19.1307 38.4601 18.9866 38.4131 18.84 38.42C18.7663 38.4274 18.6948 38.4495 18.6297 38.4848C18.5646 38.5201 18.5071 38.5679 18.4606 38.6256C18.4141 38.6833 18.3795 38.7496 18.3588 38.8207C18.3381 38.8918 18.3317 38.9664 18.34 39.04L18.54 44V45.72C18.5714 46.1481 18.7397 46.5549 19.02 46.88C19.4706 47.3646 20.0679 47.6878 20.72 47.8C21.8033 47.9815 22.9027 48.0485 24 48C25.6752 48.1176 27.3582 47.9554 28.98 47.52C29.6245 47.2472 30.1655 46.7767 30.525 46.1763C30.8845 45.5759 31.0439 44.8768 30.98 44.18L30.84 42.34L30.62 39.76Z" fill="black"/>
<path fill-rule="evenodd" clip-rule="evenodd" d="M46.5 20.22C46.3847 19.4552 46.1695 18.7088 45.86 18C45.7538 17.7867 45.5989 17.6013 45.4078 17.4588C45.2167 17.3164 44.9948 17.2209 44.76 17.18C44.0943 17.1303 43.4257 17.1303 42.76 17.18C41.5 17.18 40.22 17.36 39 17.46L39.14 17.32C39.92 16.36 40.74 15.46 41.48 14.48C41.8289 14.057 42.156 13.6164 42.46 13.16C42.8499 12.6322 43.1786 12.0619 43.44 11.46C43.5941 11.0266 43.5941 10.5534 43.44 10.12C43.3116 9.72465 43.1078 9.3579 42.84 9.04C42.38 8.46 41.74 7.9 41.32 7.46C40.9 7.02 40.68 6.76 40.34 6.44C40.0877 6.19699 39.8205 5.96989 39.54 5.76C38.7999 5.17441 38.0025 4.66516 37.16 4.24C36.6802 4.00824 36.1528 3.89181 35.62 3.9C35.3152 3.91361 35.025 4.03397 34.8 4.24C34.273 4.80613 33.7852 5.40752 33.34 6.04C32.4 7.14 31.54 8.3 30.62 9.4L30 10V3.44C29.9547 2.62123 29.8206 1.8098 29.6 1.02C29.5162 0.828844 29.3832 0.663337 29.2145 0.540363C29.0459 0.41739 28.8476 0.34135 28.64 0.320001C26.5916 0.0508903 24.5223 -0.0227748 22.46 0.100001C20.9756 0.207328 19.5339 0.644627 18.24 1.38C18.1031 1.46336 17.9846 1.57374 17.8918 1.70441C17.7989 1.83508 17.7337 1.98329 17.7 2.14C17.6245 2.80406 17.5845 3.47168 17.58 4.14L17.7 9.78L16.66 7.7C16.66 7.6 16.24 6.66 16.04 6.3C15.97 6.15652 15.866 6.03233 15.737 5.93821C15.608 5.8441 15.458 5.78292 15.3 5.76C14.278 5.62699 13.2412 5.84563 12.36 6.38C10.7244 7.43335 9.19692 8.64592 7.8 10C7.15582 10.4888 6.55372 11.0307 6 11.62C5.74903 11.9417 5.60247 12.3326 5.58 12.74C5.6313 13.6402 5.95182 14.5042 6.5 15.22C7.43249 16.2098 8.42789 17.1384 9.48 18C9 17.8 8.5 17.7 8 17.62C7 17.44 6 17.32 4.98 17.2C4.43628 17.1198 3.88373 17.1198 3.34 17.2C2.9901 17.2934 2.67213 17.48 2.42 17.74C2.02049 18.1569 1.74367 18.676 1.62 19.24C1.47289 19.8969 1.39248 20.567 1.38 21.24V22.76C1.40362 23.2627 1.45704 23.7636 1.54 24.26C1.59705 25.4373 1.7509 26.6079 2 27.76C2.08826 28.2672 2.34133 28.7312 2.72 29.08C3.64595 29.6565 4.70955 29.9742 5.8 30C7.26589 30.0253 8.73126 29.9249 10.18 29.7C10.3524 29.6761 10.5082 29.5848 10.6133 29.446C10.7183 29.3072 10.7639 29.1324 10.74 28.96C10.7161 28.7876 10.6248 28.6318 10.486 28.5267C10.3472 28.4217 10.1724 28.3761 10 28.4C8.66939 28.5205 7.33062 28.5205 6 28.4C2 27.86 4.00001 25.94 3.74001 24.04L3.6 21.38C3.5512 20.8411 3.5512 20.2989 3.6 19.76C3.62856 19.5183 3.71055 19.2861 3.84 19.08C3.84 18.98 4.06 18.98 4.22 18.98H4.9H7.86C8.49739 19.0126 9.13203 19.0861 9.76 19.2C10.1726 19.1345 10.5802 19.041 10.98 18.92C11.0603 18.8794 11.1308 18.8217 11.1866 18.7511C11.2424 18.6805 11.2822 18.5985 11.3031 18.511C11.3241 18.4234 11.3257 18.3324 11.3079 18.2441C11.2901 18.1559 11.2533 18.0726 11.2 18C10.44 16.62 8.8 15.64 8 14.24C6.74 12.24 8.52 12.24 9.2 11.64C9.88 11.04 11.48 9.64 12.84 8.58C13.3556 8.15026 13.9452 7.81816 14.58 7.6C14.7953 7.92521 15.0361 8.23284 15.3 8.52L17.68 12.38C17.712 12.4477 17.7573 12.5083 17.8131 12.5582C17.8689 12.6082 17.9342 12.6464 18.0051 12.6706C18.0759 12.6948 18.1509 12.7046 18.2256 12.6994C18.3003 12.6941 18.3732 12.6739 18.44 12.64C18.44 12.64 18.86 12.64 18.86 11.22C18.86 9.8 18.98 8.9 19.06 7.74C19.14 6.58 19.24 5.44 19.38 4.3C19.3511 3.8805 19.3511 3.4595 19.38 3.04C20.4342 2.56873 21.5667 2.29746 22.72 2.24C24.5307 2.10117 26.3493 2.10117 28.16 2.24V3.6L28.78 10C28.78 10 29.38 11.44 29.4 11.46C29.4521 11.5132 29.5144 11.5555 29.5831 11.5844C29.6517 11.6132 29.7255 11.6281 29.8 11.6281C29.8745 11.6281 29.9483 11.6132 30.0169 11.5844C30.0856 11.5555 30.1479 11.5132 30.2 11.46C30.68 11.06 31.16 10.62 31.6 10.18C32.64 9.2 33.6 8.18 34.64 7.16C35.68 6.14 35.08 5.34 36.64 6.18C37.2337 6.55712 37.8078 6.96432 38.36 7.4L39.9 8.84C40.26 9.18 40.78 9.6 41.22 10.04C41.4359 10.2149 41.613 10.4329 41.74 10.68C41.74 10.86 41.62 11.1 41.52 11.32C41.42 11.54 41.16 11.96 41.04 12.16C40.733 12.7949 40.3856 13.4095 40 14C39.42 14.88 38.8 15.7 38.2 16.58L37.66 18C37.6573 18.0752 37.6698 18.1502 37.6968 18.2205C37.7237 18.2907 37.7645 18.3548 37.8168 18.409C37.8691 18.4631 37.9317 18.5062 38.001 18.5355C38.0703 18.5649 38.1448 18.58 38.22 18.58C39.42 18.72 40.72 18.8 42.04 18.94C42.7018 19.0423 43.3703 19.0958 44.04 19.1C44.48 18.86 44.38 20.34 44.42 20.58C44.6033 21.4563 44.717 22.3458 44.76 23.24C44.76 24.66 44.76 26.08 44.96 27.52C44.9865 27.6678 45.0641 27.8017 45.1792 27.8981C45.2944 27.9945 45.4398 28.0473 45.59 28.0473C45.7402 28.0473 45.8856 27.9945 46.0008 27.8981C46.116 27.8017 46.1936 27.6678 46.22 27.52C46.32 25.84 46.6 24.2 46.64 22.52C46.6442 21.7511 46.5974 20.9827 46.5 20.22Z" fill="black"/>
<path fill-rule="evenodd" clip-rule="evenodd" d="M44.58 28C43.9188 27.8756 43.251 27.7887 42.58 27.74H41.7C41.4093 27.7573 41.1212 27.8042 40.84 27.88C40.16 28.06 39.56 28.34 38.84 28.58C38.6915 28.6012 38.5575 28.6806 38.4674 28.8006C38.3774 28.9206 38.3388 29.0715 38.36 29.22C38.3812 29.3685 38.4606 29.5025 38.5806 29.5925C38.7006 29.6826 38.8515 29.7212 39 29.7C39.68 29.7 40.32 29.9 41 29.92C41.2792 29.9495 41.5608 29.9495 41.84 29.92C42.12 29.92 42.4 29.92 42.66 29.8C43.32 29.66 43.92 29.46 44.66 29.32C44.8297 29.32 44.9925 29.2526 45.1125 29.1325C45.2326 29.0125 45.3 28.8497 45.3 28.68C45.3032 28.5864 45.2865 28.4931 45.2509 28.4065C45.2153 28.3198 45.1617 28.2417 45.0936 28.1774C45.0255 28.1131 44.9444 28.064 44.8559 28.0334C44.7673 28.0028 44.6733 27.9914 44.58 28Z" fill="black"/>
<path fill-rule="evenodd" clip-rule="evenodd" d="M43.42 33.86C42.94 33.44 42.02 32.92 41.88 32.78C40.8 31.86 40.1 31.04 39.2 30.28C38.7677 29.9252 38.3134 29.5979 37.84 29.3C37.7141 29.2221 37.5632 29.1953 37.4182 29.225C37.2732 29.2548 37.1451 29.3388 37.06 29.46C37.0161 29.5207 36.9853 29.5898 36.9695 29.663C36.9537 29.7362 36.9534 29.8119 36.9684 29.8852C36.9835 29.9586 37.0136 30.028 37.0569 30.0891C37.1002 30.1502 37.1558 30.2016 37.22 30.24C37.6084 30.5415 37.9759 30.8689 38.32 31.22C39.14 32.08 39.72 32.98 40.68 34.02C41.08 34.46 42.32 34.62 41.86 35.36C41.638 35.7036 41.3835 36.0251 41.1 36.32C40.44 37.02 39.72 37.68 39.4 38.06C38.68 38.88 37.88 40.06 37.04 41.02C36.8 41.28 36.56 41.56 36.32 41.78C36.14 41.62 35.72 41.58 35.62 41.52L32.3 39.52C32.2344 39.4675 32.159 39.4284 32.0782 39.405C31.9975 39.3816 31.9129 39.3743 31.8293 39.3836C31.7457 39.3929 31.6648 39.4186 31.5912 39.4591C31.5175 39.4997 31.4525 39.5544 31.4 39.62C31.3475 39.6857 31.3084 39.761 31.285 39.8418C31.2616 39.9226 31.2543 40.0072 31.2636 40.0907C31.2729 40.1743 31.2986 40.2552 31.3391 40.3289C31.3797 40.4025 31.4344 40.4675 31.5 40.52L34.7 42.92C35.1243 43.2497 35.5964 43.5128 36.1 43.7C36.2638 43.7378 36.4336 43.7413 36.5988 43.7103C36.764 43.6793 36.921 43.6145 37.06 43.52C37.5648 43.1818 38.0339 42.7932 38.46 42.36C39.36 41.46 40.22 40.36 40.98 39.54C41.844 38.7275 42.6462 37.8518 43.38 36.92C43.8139 36.3462 44.0333 35.6386 44 34.92C43.9548 34.5038 43.7462 34.1226 43.42 33.86Z" fill="black"/>
<path fill-rule="evenodd" clip-rule="evenodd" d="M16.7 37.68C15.96 38.4 15.14 39.68 14.2 40.6C13.8747 40.9527 13.4885 41.244 13.06 41.46C12.8521 41.2379 12.6169 41.043 12.36 40.88L9.42001 38.3C8.86776 37.863 8.34027 37.3956 7.84001 36.9C7.64001 36.68 7.46001 36.44 7.38001 36.42C7.30001 36.4 7.94001 35.72 8.10001 35.52L11.28 31.32C11.3312 31.2662 11.3713 31.2028 11.3981 31.1334C11.4248 31.0641 11.4376 30.9901 11.4357 30.9159C11.4338 30.8416 11.4174 30.7684 11.3872 30.7005C11.3571 30.6325 11.3139 30.5712 11.26 30.52C11.2062 30.4688 11.1428 30.4287 11.0734 30.402C11.0041 30.3752 10.9302 30.3625 10.8559 30.3643C10.7816 30.3662 10.7084 30.3826 10.6405 30.4128C10.5725 30.4429 10.5112 30.4862 10.46 30.54L6.80001 34.34C6.41737 34.67 6.06282 35.0313 5.74001 35.42C5.56944 35.6593 5.47848 35.9462 5.48001 36.24C5.47129 36.8071 5.63141 37.3641 5.94001 37.84C6.53099 38.5783 7.20173 39.249 7.94001 39.84L11.04 42.4C11.356 42.7 11.69 42.9805 12.04 43.24C12.2513 43.4003 12.5167 43.4721 12.78 43.44C13.6152 43.2963 14.3768 42.8732 14.94 42.24C16 41.14 16.94 39.48 17.64 38.54C17.7356 38.4128 17.7804 38.2547 17.7657 38.0963C17.7509 37.9379 17.6778 37.7907 17.5604 37.6833C17.4431 37.5759 17.2899 37.5161 17.1308 37.5155C16.9718 37.5149 16.8182 37.5735 16.7 37.68Z" fill="black"/>
</g>
<defs>
<clipPath id="clip0_1210_1824">
<rect width="48" height="48" fill="white"/>
</clipPath>
</defs>
</svg>
