<svg width="48" height="48" viewBox="0 0 48 48" fill="none" xmlns="http://www.w3.org/2000/svg">
<g clip-path="url(#clip0_1210_1865)">
<path fill-rule="evenodd" clip-rule="evenodd" d="M29.04 27.68C28.613 27.6453 28.1879 27.7658 27.8425 28.0193C27.4972 28.2728 27.2549 28.6423 27.16 29.06C26.78 30.02 27.34 31.32 29.16 31.26C30.98 31.2 31.26 27.78 29.04 27.68Z" fill="black"/>
<path fill-rule="evenodd" clip-rule="evenodd" d="M20.86 27.68C20.4322 27.641 20.0049 27.7598 19.6587 28.0139C19.3124 28.2681 19.071 28.6402 18.98 29.06C18.6 30.02 19.16 31.32 20.88 31.26C22.6 31.2 23.08 27.78 20.86 27.68Z" fill="black"/>
<path fill-rule="evenodd" clip-rule="evenodd" d="M19.26 13.1001C19.5638 12.998 19.88 12.9375 20.2 12.9201C20.7463 12.8904 21.2937 12.8904 21.84 12.9201H22.56C22.6812 13.7897 22.8549 14.6513 23.08 15.5001C23.0954 15.6981 23.1877 15.8823 23.3372 16.0132C23.4868 16.144 23.6816 16.2111 23.88 16.2001C24.0798 16.1798 24.2641 16.0832 24.3945 15.9305C24.5249 15.7777 24.5913 15.5806 24.58 15.3801C24.58 14.5601 24.84 13.7601 24.94 12.9201C24.9312 12.8537 24.9312 12.7864 24.94 12.7201C25.3127 12.6895 25.6873 12.6895 26.06 12.7201C26.6474 12.7119 27.2331 12.7859 27.8 12.9401C27.9789 13.0004 28.1739 12.992 28.347 12.9165C28.5201 12.8409 28.6588 12.7037 28.7362 12.5314C28.8136 12.3591 28.8241 12.1642 28.7656 11.9847C28.7072 11.8051 28.584 11.6537 28.42 11.5601C27.359 10.9263 26.1703 10.5369 24.94 10.4201C24.84 9.74005 24.72 9.08005 24.64 8.42005C24.6559 8.24501 24.6016 8.07081 24.4891 7.93579C24.3766 7.80076 24.215 7.71596 24.04 7.70005C23.8649 7.68414 23.6908 7.73841 23.5557 7.85093C23.4207 7.96346 23.3359 8.12501 23.32 8.30005C23.08 9.04005 22.84 9.76005 22.66 10.5201C22.2483 10.5899 21.841 10.6834 21.44 10.8001C20.8599 10.9759 20.292 11.1897 19.74 11.44C19.3313 11.5771 18.9415 11.7653 18.58 12.0001C18.5042 12.0452 18.4383 12.105 18.386 12.176C18.3338 12.2471 18.2963 12.3279 18.2758 12.4136C18.2553 12.4994 18.2522 12.5884 18.2666 12.6754C18.2811 12.7623 18.3128 12.8455 18.36 12.9201C18.4573 13.061 18.6056 13.1585 18.7736 13.1921C18.9415 13.2257 19.1159 13.1927 19.26 13.1001Z" fill="black"/>
<path fill-rule="evenodd" clip-rule="evenodd" d="M47.88 31.26C47.7376 30.7487 47.4694 30.2811 47.1 29.9C46.6533 29.5457 46.1858 29.2185 45.7 28.92C46.3 28.1 47.46 26.92 47.2 25.48C47.1519 24.8479 46.9171 24.2442 46.5255 23.7457C46.1338 23.2472 45.6028 22.8763 45 22.68C44.607 22.5725 44.2056 22.4989 43.8 22.46V22.16V21.04L43.46 19.68C43.1912 18.8362 42.6763 18.0921 41.9813 17.5433C41.2863 16.9944 40.4431 16.6659 39.56 16.6C38.4566 16.472 37.3413 16.7035 36.38 17.26C35.14 17.62 35.22 19.44 38.5 18.26C39.74 17.8 41.08 18.72 41.6 20.26L41.76 21.16V21.88L41.36 23.18C41.2396 23.3791 41.1881 23.6124 41.2134 23.8437C41.2387 24.075 41.3394 24.2916 41.5 24.46C41.6442 24.6252 41.8285 24.7506 42.0351 24.8242C42.2418 24.8977 42.4638 24.917 42.68 24.88C43.02 24.88 43.86 24.52 44.46 24.88C44.575 24.9958 44.6659 25.1331 44.7277 25.2841C44.7895 25.4351 44.8209 25.5968 44.82 25.76C44.8678 26.217 44.739 26.6749 44.46 27.04C44.12 27.54 43.7 27.94 43.5 28.22C43.3733 28.3569 43.2752 28.5177 43.2115 28.6931C43.1478 28.8684 43.1197 29.0547 43.1291 29.241C43.1384 29.4274 43.1848 29.61 43.2657 29.7781C43.3466 29.9462 43.4602 30.0964 43.6 30.22C44.1205 30.6636 44.6756 31.0649 45.26 31.42C45.3819 31.5269 45.4718 31.6653 45.52 31.82C45.572 32.1512 45.5084 32.4902 45.34 32.78C45.1693 33.1854 44.8931 33.5376 44.54 33.8C44.3627 33.9447 44.1589 34.0534 43.94 34.12C43.5037 34.2433 43.0534 34.3105 42.6 34.32C42.3685 34.3644 42.1498 34.4601 41.96 34.6C41.7605 34.7772 41.6097 35.0027 41.5222 35.2548C41.4346 35.5069 41.4132 35.7773 41.46 36.04C41.7138 37.1078 41.7613 38.2143 41.6 39.3C41.4893 39.9492 41.1308 40.5301 40.6 40.92C40.0688 41.3619 39.4322 41.6586 38.7523 41.7812C38.0723 41.9039 37.3721 41.8484 36.72 41.62C35.6 41.1427 34.5765 40.4649 33.7 39.62C33.96 39.3 34.26 39.02 34.5 38.68C35.0393 37.9212 35.5016 37.1105 35.88 36.26C36.2381 35.4136 36.4933 34.5273 36.64 33.62C36.8293 32.4834 36.9163 31.3321 36.9 30.18C36.8785 29.2972 36.8118 28.416 36.7 27.54C36.9797 27.5596 37.2604 27.5596 37.54 27.54C37.6278 27.5352 37.7137 27.5124 37.7923 27.4729C37.8709 27.4335 37.9405 27.3782 37.9968 27.3107C38.0531 27.2431 38.0949 27.1647 38.1195 27.0803C38.1442 26.9958 38.1511 26.9072 38.14 26.82C38.1325 26.7332 38.1078 26.6487 38.0675 26.5715C38.0272 26.4943 37.9719 26.4258 37.905 26.37C37.8381 26.3142 37.7607 26.2723 37.6775 26.2465C37.5943 26.2208 37.5068 26.2118 37.42 26.22C35.7712 26.1462 34.1651 25.6726 32.74 24.84C32.1216 24.5043 31.5208 24.1372 30.94 23.74C30.36 23.34 29.78 22.92 29.22 22.48C28.3908 21.7779 27.6276 21.0013 26.94 20.16C26.32 19.34 24.94 19.32 24.94 20.16C25.6486 21.6226 26.5721 22.9709 27.68 24.16C28.2929 24.7632 28.9627 25.3057 29.68 25.78C31.329 26.9654 33.3091 27.6021 35.34 27.6C35.402 28.4455 35.402 29.2945 35.34 30.14C35.2912 31.1748 35.1642 32.2044 34.96 33.22C34.763 33.9704 34.4952 34.7003 34.16 35.4C33.8189 36.1132 33.3961 36.7844 32.9 37.4C32.4146 37.985 31.8865 38.5331 31.32 39.04C30.7543 39.5313 30.1374 39.9605 29.48 40.32C27.7759 41.2274 25.8413 41.6102 23.92 41.42C21.9599 41.2849 20.0668 40.6515 18.42 39.58C16.5257 38.2428 14.9931 36.4559 13.96 34.38C12.8607 32.4332 12.2821 30.2357 12.28 28C14.1088 27.7696 15.9107 27.361 17.66 26.78C18.9859 26.3287 20.2241 25.6521 21.32 24.78C22.7224 23.6484 23.6731 22.0521 24 20.28C23.84 19.32 22.92 19.42 22.22 20.28C21.6181 21.3297 20.7748 22.2209 19.76 22.88C18.7891 23.5536 17.7581 24.1361 16.68 24.62C14.9658 25.3854 13.2097 26.0531 11.42 26.62C11.2241 26.6631 11.0533 26.7819 10.9446 26.9505C10.836 27.1191 10.7984 27.3238 10.84 27.52C10.5215 30.1118 10.9229 32.7412 12 35.12C12.6651 36.6213 13.5479 38.0163 14.62 39.26C13.6387 40.092 12.504 40.7238 11.28 41.12C9.96031 41.516 8.5429 41.431 7.28001 40.88C6.89057 40.7074 6.54061 40.4569 6.25167 40.1439C5.96274 39.8308 5.74097 39.462 5.60001 39.06C5.34151 38.2321 5.41318 37.3363 5.80001 36.56C5.87403 36.3966 5.91232 36.2194 5.91232 36.04C5.91232 35.8607 5.87403 35.6834 5.80001 35.52C5.6019 35.2161 5.29359 35.001 4.94001 34.92C4.74535 34.8626 4.56711 34.7598 4.42001 34.62C4.16335 34.4335 3.92253 34.2261 3.70001 34C3.41782 33.7363 3.17531 33.4332 2.98001 33.1C2.79597 32.813 2.6671 32.4942 2.60001 32.16C2.4854 31.618 2.53413 31.0543 2.74001 30.54C2.98047 30.0352 3.36269 29.6113 3.84001 29.32C4.01494 29.2079 4.15943 29.0543 4.26062 28.8728C4.36182 28.6914 4.41657 28.4877 4.42001 28.28C4.42086 28.0731 4.3723 27.869 4.27838 27.6846C4.18445 27.5002 4.04788 27.341 3.88001 27.22L3.38001 26C3.3361 25.2801 3.55658 24.5689 4.00001 24C4.43431 23.3215 5.07102 22.7967 5.82001 22.5C5.9783 22.4532 6.12287 22.3687 6.24131 22.2538C6.35975 22.1388 6.44853 21.9968 6.50001 21.84C6.50001 21.74 5.98001 17.84 9.58001 18.3C11.7 18.58 11.14 17 11.14 17C10.3073 16.6486 9.39805 16.5177 8.50001 16.62C7.60252 16.6772 6.74249 17.0008 6.02994 17.5495C5.31739 18.0982 4.7847 18.8469 4.50001 19.7C4.35298 20.0509 4.25863 20.4215 4.22001 20.8C3.35822 21.2321 2.60593 21.8544 2.02001 22.62C1.17192 23.6739 0.757131 25.0112 0.860014 26.36C0.954784 26.9735 1.12961 27.572 1.38001 28.14C0.948519 28.5712 0.602443 29.0802 0.360014 29.64C-0.0702323 30.6143 -0.17542 31.7013 0.060014 32.74C0.179002 33.3722 0.416512 33.9761 0.760014 34.52C1.07921 35.027 1.46236 35.4908 1.90001 35.9C2.2916 36.2818 2.7204 36.6235 3.18001 36.92C2.98366 37.9612 3.11648 39.0377 3.56001 40C3.82925 40.6655 4.23286 41.2682 4.7456 41.7707C5.25835 42.2731 5.86921 42.6644 6.54001 42.92C8.26772 43.5691 10.1723 43.5691 11.9 42.92C13.3532 42.4035 14.677 41.5778 15.78 40.5C16.16 40.86 16.48 41.3 16.86 41.6C18.8234 42.9995 21.1349 43.83 23.54 44C25.9747 44.2349 28.422 43.7035 30.54 42.48C31.2569 42.0127 31.9267 41.4768 32.54 40.88C33.7567 42.2428 35.3287 43.2401 37.08 43.76C37.8631 43.9086 38.6684 43.8947 39.4459 43.7192C40.2234 43.5438 40.9566 43.2105 41.6 42.74C42.5913 42.1056 43.3058 41.1196 43.6 39.98C43.8641 38.8386 43.9049 37.6569 43.72 36.5C44.5128 36.5637 45.3066 36.3896 46 36C46.8307 35.4068 47.4534 34.5671 47.78 33.6C48.0562 32.8494 48.0912 32.0314 47.88 31.26Z" fill="black"/>
<path fill-rule="evenodd" clip-rule="evenodd" d="M12.3 20.38C12.2331 20.4365 12.1779 20.5056 12.1376 20.5834C12.0973 20.6612 12.0728 20.7462 12.0654 20.8335C12.0504 21.0097 12.106 21.1848 12.22 21.32C12.3341 21.4553 12.4972 21.5397 12.6735 21.5547C12.8498 21.5697 13.0248 21.5141 13.16 21.4C13.7997 20.97 14.5216 20.6772 15.28 20.54C16.5539 20.2003 17.8506 19.953 19.16 19.8C21.8346 19.2803 24.5729 19.1724 27.28 19.48C29.2777 19.6421 31.2505 20.0312 33.16 20.64C33.2073 20.7539 33.2809 20.855 33.3747 20.935C33.4686 21.0149 33.5801 21.0715 33.7 21.1C33.8989 21.1287 34.1009 21.0774 34.2621 20.9575C34.4233 20.8376 34.5304 20.6587 34.56 20.46C34.8532 18.936 35.2884 17.4429 35.86 16C36.1799 15.0209 36.4207 14.0177 36.58 13C36.9 11.26 36.98 9.54002 37.14 7.80002V7.64002C37.1605 7.54107 37.1605 7.43898 37.14 7.34002C37.14 7.24002 37.14 7.14002 36.96 7.08002C35.9883 6.41576 34.914 5.91576 33.78 5.60002C32.1605 5.13034 30.5097 4.77611 28.84 4.54002C27.0405 4.24129 25.2232 4.0609 23.4 4.00002C21.5906 3.9234 19.7784 4.05764 18 4.40002C5.50004 7.16002 10.28 13.46 10.36 13.72C10.4946 14.2067 10.6685 14.6816 10.88 15.14C11.6083 16.4882 12.2432 17.8848 12.78 19.32C12.94 20 12.7 20 12.3 20.38ZM10.86 10.14C12.4641 8.70995 14.3934 7.69378 16.48 7.18002C18.3967 6.70386 20.3652 6.46871 22.34 6.48002C24.3759 6.43165 26.4129 6.50511 28.44 6.70002C30.0317 6.76925 31.6161 6.95643 33.18 7.26002C34.0277 7.44769 34.8477 7.74345 35.62 8.14002C35.2 9.38002 34.72 10.58 34.32 11.84C34.14 12.46 33.98 13.08 33.84 13.72C33.7 14.36 33.58 15 33.48 15.72C33.34 16.86 33.26 17.98 33.18 19.12C31.0137 18.174 28.7124 17.5733 26.36 17.34C25.0628 17.22 23.7573 17.22 22.46 17.34C21.184 17.4663 19.9156 17.6599 18.66 17.92C17.3388 18.2067 16.0364 18.5741 14.76 19.02C14.76 19.02 14.76 19.02 14.58 19.02C14.3 18 14 16.8 13.74 15.68C13.6 15.18 13.42 14.68 13.24 14.2C13.061 13.7023 12.8402 13.2206 12.58 12.76C12.0559 11.8554 11.4816 10.9807 10.86 10.14Z" fill="black"/>
<path fill-rule="evenodd" clip-rule="evenodd" d="M27.36 34.86L25.68 35.64C25.1845 35.7346 24.6755 35.7346 24.18 35.64H23.42C23.1604 35.661 22.8996 35.661 22.64 35.64C22.233 35.5756 21.8558 35.387 21.56 35.1C21.524 35.0182 21.4713 34.9448 21.4053 34.8846C21.3392 34.8244 21.2613 34.7787 21.1765 34.7505C21.0917 34.7222 21.002 34.712 20.913 34.7205C20.8241 34.7291 20.7379 34.7562 20.66 34.8C20.504 34.8775 20.385 35.0134 20.3288 35.1782C20.2726 35.3431 20.2838 35.5234 20.36 35.68C20.5698 36.2851 20.9322 36.8258 21.4122 37.2498C21.8923 37.6738 22.4736 37.9666 23.1 38.1C23.6724 38.2595 24.2713 38.3004 24.86 38.22C25.4781 38.1298 26.0707 37.9118 26.6 37.58C26.8767 37.3953 27.1376 37.188 27.38 36.96C27.68 36.66 27.94 36.36 28.24 36.08C28.4014 35.9604 28.5088 35.7817 28.5387 35.583C28.5687 35.3844 28.5188 35.182 28.4 35.02C28.3426 34.9408 28.27 34.8737 28.1865 34.8227C28.1029 34.7718 28.0101 34.7378 27.9134 34.723C27.8167 34.7081 27.718 34.7125 27.623 34.7361C27.528 34.7596 27.4386 34.8017 27.36 34.86Z" fill="black"/>
</g>
<defs>
<clipPath id="clip0_1210_1865">
<rect width="48" height="48" fill="white"/>
</clipPath>
</defs>
</svg>
