<svg width="48" height="48" viewBox="0 0 48 48" fill="none" xmlns="http://www.w3.org/2000/svg">
<g clip-path="url(#clip0_1209_6672)">
<path d="M6.31248 39.198H1.96989L1.96983 32.0547C1.96981 28.8437 4.57283 26.2408 7.78383 26.2408H15.8726C18.4758 26.2408 20.5862 28.3511 20.5862 30.9542V33.4791C20.5862 36.6375 23.1467 39.198 26.3051 39.198" stroke="black" stroke-width="2.0001" stroke-linecap="round" stroke-linejoin="round"/>
<path d="M32.024 36.8274V24.9496C39.6077 24.9496 43.6437 30.4411 45.2568 35.5285C45.8642 37.444 44.2845 39.1971 42.2751 39.1971H40.8686" stroke="black" stroke-width="2.0001" stroke-linecap="round" stroke-linejoin="round"/>
<path d="M31.268 39.1966H15.9295" stroke="black" stroke-width="2.0001" stroke-linecap="round" stroke-linejoin="round"/>
<path d="M27.5112 11.6175H32.0242V27.0897" stroke="black" stroke-width="2.0001" stroke-linecap="round" stroke-linejoin="round"/>
<path d="M6.32431 39.4417C6.32431 40.7153 6.83026 41.9368 7.73085 42.8374C8.63145 43.738 9.85291 44.2439 11.1265 44.2439C12.4002 44.2439 13.6216 43.738 14.5222 42.8374C15.4228 41.9368 15.9288 40.7153 15.9288 39.4417C15.9288 38.1681 15.4228 36.9466 14.5222 36.046C13.6216 35.1454 12.4002 34.6395 11.1265 34.6395C9.85291 34.6395 8.63145 35.1454 7.73085 36.046C6.83026 36.9466 6.32431 38.1681 6.32431 39.4417Z" stroke="black" stroke-width="2.0001" stroke-linecap="round" stroke-linejoin="round"/>
<path d="M31.2696 39.4417C31.2696 40.0723 31.3938 40.6968 31.6351 41.2794C31.8765 41.8621 32.2302 42.3915 32.6761 42.8374C33.122 43.2833 33.6514 43.637 34.2341 43.8784C34.8167 44.1197 35.4412 44.2439 36.0718 44.2439C36.7024 44.2439 37.3269 44.1197 37.9095 43.8784C38.4922 43.637 39.0216 43.2833 39.4675 42.8374C39.9134 42.3915 40.2672 41.8621 40.5085 41.2794C40.7498 40.6968 40.874 40.0723 40.874 39.4417C40.874 38.8111 40.7498 38.1866 40.5085 37.604C40.2672 37.0213 39.9134 36.4919 39.4675 36.046C39.0216 35.6001 38.4922 35.2463 37.9095 35.005C37.3269 34.7637 36.7024 34.6395 36.0718 34.6395C35.4412 34.6395 34.8167 34.7637 34.2341 35.005C33.6514 35.2463 33.122 35.6001 32.6761 36.046C32.2302 36.4919 31.8765 37.0213 31.6351 37.604C31.3938 38.1866 31.2696 38.8111 31.2696 39.4417Z" stroke="black" stroke-width="2.0001" stroke-linecap="round" stroke-linejoin="round"/>
<path d="M32.024 16.9742C32.024 15.1225 33.525 13.6214 35.3769 13.6214H38.0686V20.327H35.3769C33.525 20.327 32.024 18.8259 32.024 16.9742Z" stroke="black" stroke-width="2.0001" stroke-linecap="round" stroke-linejoin="round"/>
<path d="M21.0796 2.7677H1.17291V21.3194H21.0796V2.7677Z" stroke="black" stroke-width="2.0001" stroke-linecap="round" stroke-linejoin="round"/>
<path d="M13.1099 6.69284H9.14594V10.0593H5.77885V14.0234H9.14594V17.3901H13.1099V14.0234H16.4761V10.0593H13.1099V6.69284Z" stroke="black" stroke-width="2.0001" stroke-linecap="round" stroke-linejoin="round"/>
</g>
<defs>
<clipPath id="clip0_1209_6672">
<rect width="48.0023" height="48.0023" fill="white"/>
</clipPath>
</defs>
</svg>
