<svg width="48" height="48" viewBox="0 0 48 48" fill="none" xmlns="http://www.w3.org/2000/svg">
<g clip-path="url(#clip0_1210_1900)">
<path fill-rule="evenodd" clip-rule="evenodd" d="M19.38 30C20.174 29.4365 21.0608 29.0168 22 28.76C22.5649 28.5797 23.1488 28.4656 23.74 28.42C24.7491 28.2898 25.7723 28.5086 26.64 29.04C26.7785 29.1768 26.9653 29.2535 27.16 29.2535C27.3547 29.2535 27.5415 29.1768 27.68 29.04C27.818 28.8981 27.8953 28.7079 27.8953 28.51C27.8953 28.312 27.818 28.1218 27.68 27.98C26.8276 26.9454 25.638 26.2443 24.32 26C23.7577 25.9001 23.1823 25.9001 22.62 26C22.0672 26.0919 21.5334 26.2744 21.04 26.54C19.954 27.1778 19.046 28.0788 18.4 29.16C18.3383 29.2196 18.2892 29.2911 18.2557 29.3701C18.2222 29.4492 18.205 29.5341 18.205 29.62C18.205 29.7058 18.2222 29.7907 18.2557 29.8698C18.2892 29.9488 18.3383 30.0203 18.4 30.08C18.4638 30.1504 18.543 30.2051 18.6314 30.2401C18.7198 30.275 18.815 30.2891 18.9097 30.2814C19.0044 30.2737 19.0961 30.2443 19.1776 30.1955C19.2592 30.1467 19.3284 30.0798 19.38 30Z" fill="black"/>
<path fill-rule="evenodd" clip-rule="evenodd" d="M17.1 36.62C17.2232 36.7397 17.3882 36.8067 17.56 36.8067C17.7318 36.8067 17.8968 36.7397 18.02 36.62C19.1209 35.661 20.4077 34.9393 21.8 34.5C22.356 34.3095 22.9239 34.1559 23.5 34.04C24.4587 33.798 25.4589 33.7693 26.4299 33.9559C27.401 34.1425 28.3192 34.5399 29.12 35.12C29.2585 35.2568 29.4453 35.3335 29.64 35.3335C29.8347 35.3335 30.0215 35.2568 30.16 35.12C30.2968 34.9815 30.3735 34.7946 30.3735 34.6C30.3735 34.4053 30.2968 34.2185 30.16 34.08C29.2854 33.122 28.1846 32.3986 26.9582 31.9758C25.7319 31.5531 24.4191 31.4445 23.14 31.66C22.3745 31.7874 21.6327 32.0302 20.94 32.38C19.4024 33.2018 18.0853 34.3817 17.1 35.82C17.0091 35.9335 16.9596 36.0746 16.9596 36.22C16.9596 36.3654 17.0091 36.5065 17.1 36.62Z" fill="black"/>
<path fill-rule="evenodd" clip-rule="evenodd" d="M16.86 15.2C14.48 15.32 14.62 19.2 16.86 18.96C17.118 18.9996 17.3815 18.9807 17.6312 18.9046C17.8808 18.8286 18.1102 18.6973 18.3022 18.5206C18.4943 18.3439 18.6442 18.1263 18.7407 17.8838C18.8373 17.6414 18.878 17.3803 18.86 17.12C18.8393 16.6035 18.6195 16.1151 18.2467 15.7572C17.8738 15.3992 17.3769 15.1995 16.86 15.2Z" fill="black"/>
<path fill-rule="evenodd" clip-rule="evenodd" d="M30 15.2C27.62 15.32 27.76 19.2 30 18.96C30.2586 19.0036 30.5237 18.9875 30.7751 18.9129C31.0265 18.8383 31.2576 18.7073 31.4506 18.5297C31.6435 18.3522 31.7934 18.1328 31.8886 17.8885C31.9838 17.6441 32.0219 17.3813 32 17.12C31.9793 16.6035 31.7595 16.1151 31.3867 15.7572C31.0138 15.3992 30.5168 15.1995 30 15.2Z" fill="black"/>
<path fill-rule="evenodd" clip-rule="evenodd" d="M47.5 18.88C47.2575 18.2007 46.8177 17.6093 46.2368 17.1817C45.656 16.7541 44.9606 16.5097 44.24 16.48C43.5675 16.5137 42.9116 16.7006 42.3224 17.0264C41.7331 17.3522 41.2261 17.8083 40.84 18.36C39.9243 15.5764 38.3746 13.0436 36.313 10.9611C34.2514 8.8787 31.7342 7.30359 28.96 6.35998C26.0147 5.38269 22.8531 5.25789 19.84 5.99998C16.8491 6.75074 14.1313 8.33149 12 10.56C10.829 11.8123 9.81489 13.2025 8.97999 14.7C8.33815 15.934 7.81577 17.2265 7.41999 18.56C7.05951 17.889 6.53462 17.3205 5.89449 16.9077C5.25435 16.495 4.51992 16.2515 3.75999 16.2C3.04077 16.235 2.34785 16.4813 1.76798 16.9082C1.1881 17.3351 0.747033 17.9236 0.49999 18.6C-0.00136003 19.8711 -0.126332 21.2597 0.13999 22.6C0.396822 23.8925 0.943922 25.1098 1.73999 26.16C2.39829 27.1977 3.36816 28.0004 4.51065 28.4531C5.65313 28.9058 6.90959 28.9852 8.09999 28.68C8.26459 28.6023 8.39866 28.472 8.48107 28.3097C8.56349 28.1474 8.58956 27.9623 8.55519 27.7836C8.52081 27.6049 8.42795 27.4426 8.29122 27.3225C8.15449 27.2023 7.98167 27.1311 7.79999 27.12C7.15384 27.2289 6.49042 27.1661 5.87617 26.938C5.26191 26.7098 4.71837 26.3243 4.29999 25.82C3.51975 24.9263 2.9704 23.8551 2.69999 22.7C2.36928 21.6385 2.36928 20.5015 2.69999 19.44C3.03999 18.42 3.63999 17.96 4.35999 18.08C4.87121 18.199 5.34819 18.4341 5.75396 18.767C6.15974 19.1 6.48344 19.5218 6.69999 20C6.73668 20.1038 6.80424 20.1939 6.89361 20.2583C6.98298 20.3226 7.08988 20.3581 7.19999 20.36C7.91999 20.96 9.69999 16.64 10.4 15.54C11.2627 14.2327 12.2913 13.0428 13.46 12C15.4016 10.1625 17.8082 8.89004 20.42 8.31998C23.0035 7.75825 25.6873 7.86147 28.22 8.61998C30.8234 9.37601 33.213 10.7326 35.1965 12.5806C37.18 14.4286 38.702 16.7165 39.64 19.26C39.64 19.26 40.38 20.48 41.38 19.98C41.9536 19.2518 42.7347 18.7148 43.62 18.44C44.34 18.32 44.94 18.78 45.28 19.8C45.6107 20.8615 45.6107 21.9985 45.28 23.06C45.0096 24.2091 44.4601 25.2739 43.68 26.16C43.2638 26.6725 42.7174 27.0636 42.0981 27.2923C41.4788 27.5211 40.8094 27.579 40.16 27.46V29.06C41.3202 29.3051 42.5274 29.1937 43.6232 28.7404C44.7189 28.2871 45.652 27.5131 46.3 26.52C47.0925 25.4677 47.6392 24.2512 47.9 22.96C48.1695 21.5902 48.0304 20.1714 47.5 18.88Z" fill="black"/>
<path fill-rule="evenodd" clip-rule="evenodd" d="M40.2 23.28C40.3467 22.6133 40.5067 21.9467 40.68 21.28C40.7302 21.0943 40.7223 20.8976 40.6572 20.7165C40.5921 20.5354 40.4729 20.3787 40.3159 20.2675C40.1589 20.1563 39.9715 20.0959 39.7791 20.0946C39.5867 20.0932 39.3985 20.151 39.24 20.26C38.6644 21.1984 38.1948 22.1979 37.84 23.24C37.6418 23.8262 37.4946 24.4285 37.4 25.04C37.293 25.6472 37.2461 26.2635 37.26 26.88C37.2967 27.9997 37.4508 29.1125 37.72 30.2C37.72 30.2 37.72 30.2 37.72 30.06L34.68 27.42C32.6557 25.1907 30.4034 23.1798 27.96 21.42C27.0047 20.745 25.9031 20.3061 24.7454 20.1392C23.5877 19.9724 22.407 20.0823 21.3 20.46C20.4152 20.8321 19.5818 21.3161 18.82 21.9C17.24 23.14 15.8 24.78 14.42 25.9C13.04 27.02 12.16 27.8 11.08 28.82C11.1193 28.1939 11.1193 27.566 11.08 26.94C11.077 26.3071 11.0032 25.6765 10.86 25.06C10.7547 24.4381 10.5872 23.8284 10.36 23.24C9.95696 22.1645 9.43363 21.138 8.79999 20.18C8.07999 19.5 7.65999 20.18 7.57999 21.34C7.75754 21.9982 7.89776 22.6659 7.99999 23.34C9.71999 30.32 7.99999 33.6 12 38C13.5871 39.6873 15.5554 40.9697 17.74 41.74C20.6757 42.7474 23.8347 42.9137 26.86 42.22C29.7912 41.4361 32.5196 40.031 34.86 38.1C35.9888 37.2705 37.0399 36.34 38 35.32C38.6297 34.6049 39.1427 33.7949 39.52 32.92C39.5747 32.8303 39.6096 32.73 39.6225 32.6257C39.6354 32.5215 39.626 32.4156 39.5948 32.3153C39.5636 32.215 39.5114 32.1225 39.4417 32.0439C39.372 31.9653 39.2864 31.9024 39.1905 31.8595C39.0946 31.8165 38.9907 31.7945 38.8857 31.7949C38.7806 31.7952 38.6768 31.8179 38.5812 31.8615C38.4856 31.9051 38.4004 31.9685 38.3312 32.0475C38.262 32.1266 38.2105 32.2195 38.18 32.32C37.8194 33.0139 37.354 33.6481 36.8 34.2C35.885 35.0488 34.8942 35.812 33.84 36.48C31.6166 38.0557 29.1006 39.1709 26.44 39.76C23.8332 40.3254 21.1241 40.2013 18.58 39.4C16.6599 38.8905 14.8859 37.9384 13.4 36.62C11.8938 35.3429 10.8937 33.5696 10.58 31.62C10.6499 31.548 10.6984 31.458 10.72 31.36C11.18 30.94 11.64 30.52 12.12 30.14C13.26 29.24 14.48 28.4 15.64 27.6C17.1 26.56 18.66 25.1 20.3 23.96C20.918 23.5164 21.5901 23.1534 22.3 22.88C23.064 22.6393 23.8734 22.579 24.6646 22.7039C25.4559 22.8288 26.2073 23.1356 26.86 23.6C29.2764 25.1494 31.5459 26.9167 33.64 28.88L36.86 31.32C36.9254 31.3896 37.0045 31.4451 37.0922 31.483C37.1799 31.5209 37.2744 31.5405 37.37 31.5405C37.4655 31.5405 37.5601 31.5209 37.6478 31.483C37.7355 31.4451 37.8145 31.3896 37.88 31.32C37.98 31.32 37.98 31.12 38 31C38.02 30.88 38 31.22 38 31.34C38.0099 31.4243 38.0364 31.5058 38.0781 31.5798C38.1197 31.6537 38.1757 31.7186 38.2427 31.7708C38.3097 31.8229 38.3864 31.8611 38.4684 31.8833C38.5503 31.9055 38.6358 31.9112 38.72 31.9C38.8896 31.8752 39.0436 31.7872 39.1512 31.6537C39.2587 31.5202 39.3119 31.351 39.3 31.18C39.2 29.76 40.18 23.36 40.2 23.28Z" fill="black"/>
</g>
<defs>
<clipPath id="clip0_1210_1900">
<rect width="48" height="48" fill="white"/>
</clipPath>
</defs>
</svg>
