<svg width="48" height="48" viewBox="0 0 48 48" fill="none" xmlns="http://www.w3.org/2000/svg">
<g clip-path="url(#clip0_1210_1854)">
<path fill-rule="evenodd" clip-rule="evenodd" d="M22 32C21.9417 31.8064 21.8088 31.6439 21.6306 31.5483C21.4525 31.4526 21.2436 31.4317 21.05 31.49C20.8564 31.5484 20.6939 31.6812 20.5983 31.8594C20.5026 32.0375 20.4817 32.2464 20.54 32.44C20.7289 33.098 20.8824 33.7656 21 34.44C21.1026 35.0615 21.1561 35.6901 21.16 36.32C21.1825 37.5693 20.8857 38.8036 20.2977 39.9061C19.7097 41.0086 18.85 41.9427 17.8 42.62C15.5709 43.9274 12.9974 44.5272 10.42 44.34C8.88484 44.2471 7.38297 43.8529 6.00002 43.18C4.6963 42.5844 3.64207 41.5513 3.02002 40.26C2.70299 39.3966 2.56024 38.4789 2.60002 37.56C2.67481 35.9717 2.84175 34.389 3.10002 32.82C3.45322 28.8992 4.12206 25.0133 5.10002 21.2C5.71284 18.7643 6.90693 16.5133 8.58002 14.64C9.22453 13.9568 9.94217 13.3465 10.72 12.82C11.1546 12.5115 11.654 12.3062 12.18 12.22C12.8364 12.2447 13.4746 12.4428 14.0296 12.7941C14.5846 13.1453 15.0368 13.6373 15.34 14.22C16.1832 15.3781 16.6064 16.789 16.54 18.22C16.5409 18.3858 16.6023 18.5455 16.7127 18.6691C16.8231 18.7928 16.9748 18.8719 17.1394 18.8916C17.304 18.9112 17.4701 18.8701 17.6065 18.7759C17.7428 18.6817 17.8401 18.5409 17.88 18.38C18.0766 16.2129 17.4079 14.056 16.02 12.38C15.5554 11.7579 14.9517 11.253 14.2571 10.9058C13.5626 10.5585 12.7965 10.3785 12.02 10.38C11.203 10.457 10.4153 10.7242 9.72002 11.16C8.80377 11.7332 7.95216 12.4038 7.18002 13.16C5.15263 15.1863 3.66711 17.6896 2.86002 20.44C1.71254 24.3616 0.916067 28.3774 0.480016 32.44C0.207267 34.1275 0.0469136 35.8313 1.65254e-05 37.54C-0.0356935 38.812 0.188901 40.0779 0.660017 41.26C1.34702 42.7409 2.47063 43.9762 3.88002 44.8C5.85064 45.9416 8.08275 46.5547 10.36 46.58C13.371 46.6768 16.3409 45.8612 18.88 44.24C20.1655 43.3581 21.1993 42.1566 21.8796 40.7539C22.5599 39.3512 22.8633 37.7956 22.76 36.24C22.7504 35.5007 22.6701 34.764 22.52 34.04C22.3882 33.3501 22.2145 32.6689 22 32Z" fill="black"/>
<path fill-rule="evenodd" clip-rule="evenodd" d="M47.48 32.4801C47.044 28.4174 46.2475 24.4016 45.1 20.4801C44.2929 17.7297 42.8074 15.2263 40.78 13.2001C40.0079 12.4438 39.1563 11.7733 38.24 11.2001C37.5573 10.794 36.7915 10.5478 36 10.4801C35.2235 10.4785 34.4574 10.6585 33.7629 11.0058C33.0684 11.3531 32.4647 11.8579 32 12.4801C30.6121 14.156 29.9435 16.3129 30.14 18.4801C30.1799 18.6409 30.2772 18.7817 30.4136 18.8759C30.55 18.9701 30.7161 19.0112 30.8807 18.9916C31.0453 18.9719 31.197 18.8928 31.3074 18.7692C31.4177 18.6455 31.4792 18.4858 31.48 18.3201C31.4136 16.8891 31.8369 15.4782 32.68 14.3201C32.9833 13.7374 33.4354 13.2454 33.9905 12.8941C34.5455 12.5428 35.1836 12.3447 35.84 12.3201C36.3661 12.4063 36.8654 12.6115 37.3 12.9201C38.0779 13.4465 38.7955 14.0568 39.44 14.7401C41.1054 16.6188 42.2984 18.8677 42.92 21.3001C43.898 25.1133 44.5668 28.9992 44.92 32.92C45.1783 34.489 45.3453 36.0717 45.42 37.6601C45.4598 38.579 45.3171 39.4966 45 40.3601C44.3544 41.6173 43.2948 42.6133 42 43.1801C40.6048 43.8581 39.0888 44.2524 37.54 44.3401C34.9626 44.5273 32.3891 43.9275 30.16 42.6201C29.1146 41.9362 28.2609 40.9968 27.6799 39.8909C27.0989 38.7849 26.8099 37.549 26.84 36.3001C26.844 35.6702 26.8975 35.0415 27 34.42C27.1177 33.7457 27.2712 33.078 27.46 32.42C27.5085 32.2288 27.4806 32.0261 27.3823 31.855C27.284 31.6839 27.123 31.5578 26.9334 31.5032C26.7438 31.4487 26.5403 31.47 26.3662 31.5627C26.192 31.6554 26.0607 31.8123 26 32.0001C25.7736 32.6549 25.5866 33.3228 25.44 34.0001C25.29 34.724 25.2096 35.4607 25.2 36.2001C25.0967 37.7556 25.4001 39.3113 26.0804 40.714C26.7608 42.1167 27.7945 43.3181 29.08 44.2001C31.6192 45.8212 34.5891 46.6369 37.6 46.5401C39.8773 46.5148 42.1094 45.9016 44.08 44.7601C45.4894 43.9362 46.613 42.701 47.3 41.2201C47.7795 40.0532 48.0176 38.8014 48 37.5401C47.9382 35.8438 47.7644 34.1535 47.48 32.4801Z" fill="black"/>
<path fill-rule="evenodd" clip-rule="evenodd" d="M17.48 22C16.66 22.24 15.84 22.36 15 22.52C14.16 22.68 13.36 22.94 12.48 23.06C11.7552 23.2709 11.0117 23.4116 10.26 23.48C9.80936 23.5502 9.35059 23.5502 8.89997 23.48C8.80548 23.4451 8.70499 23.4294 8.60434 23.4336C8.5037 23.4379 8.40491 23.4622 8.31372 23.505C8.22253 23.5478 8.14077 23.6083 8.07317 23.683C8.00557 23.7577 7.9535 23.845 7.91997 23.94C7.84848 24.1283 7.85466 24.3373 7.93716 24.5211C8.01966 24.7048 8.17174 24.8483 8.35997 24.92C8.93122 25.1807 9.53771 25.3559 10.16 25.44C11.0351 25.5532 11.9188 25.5867 12.8 25.54C13.4708 25.4999 14.1387 25.4198 14.8 25.3C15.2425 25.1903 15.6769 25.05 16.1 24.88C15.7194 25.3434 15.312 25.7842 14.88 26.2C13.2754 27.5418 11.5851 28.7778 9.81997 29.9C9.65384 30.014 9.53683 30.1865 9.49234 30.383C9.44785 30.5795 9.47914 30.7856 9.57997 30.96C9.69073 31.13 9.86339 31.2502 10.0613 31.295C10.2592 31.3398 10.4668 31.3058 10.64 31.2C12.5381 30.1604 14.3745 29.0118 16.14 27.76C16.62 27.4 17.06 26.9 17.54 26.48C17.36 27.02 17.2 27.56 17 28.1C16.6 29.32 16.14 30.44 15.7 31.54C15.2839 32.6316 14.7684 33.6827 14.16 34.68C13.3385 35.9938 12.2137 37.0912 10.88 37.88C10.7889 37.9229 10.7073 37.9833 10.6398 38.058C10.5723 38.1326 10.5203 38.2199 10.4868 38.3148C10.4533 38.4097 10.439 38.5103 10.4447 38.6107C10.4504 38.7112 10.476 38.8095 10.52 38.9C10.5646 38.9893 10.6264 39.069 10.7018 39.1344C10.7772 39.1999 10.8648 39.2498 10.9595 39.2814C11.0542 39.313 11.1543 39.3256 11.2539 39.3185C11.3535 39.3114 11.4507 39.2847 11.54 39.24C13.7317 38.325 15.5744 36.7345 16.8 34.7C17.4389 33.7696 17.9564 32.7615 18.34 31.7C18.7086 30.6725 19.0159 29.624 19.26 28.56C19.46 27.56 19.62 26.56 19.72 25.6V24.14C20.8869 22.7027 21.8556 21.1152 22.6 19.42C23.2045 17.939 23.6731 16.406 24 14.84C24.3045 16.407 24.7599 17.9408 25.36 19.42C26.0968 21.1191 27.0661 22.7076 28.24 24.14V25.6C28.3363 26.5947 28.4899 27.583 28.7 28.56C28.9376 29.6236 29.2381 30.6721 29.6 31.7C29.9998 32.7543 30.5164 33.7606 31.14 34.7C32.4055 36.653 34.2422 38.1684 36.4 39.04C36.4904 39.0963 36.5917 39.1329 36.6971 39.1475C36.8026 39.1621 36.91 39.1544 37.0123 39.1248C37.1147 39.0953 37.2096 39.0445 37.2911 38.9759C37.3725 38.9073 37.4386 38.8223 37.4851 38.7265C37.5316 38.6307 37.5575 38.5262 37.561 38.4197C37.5645 38.3133 37.5456 38.2073 37.5055 38.1086C37.4654 38.01 37.405 37.9208 37.3283 37.847C37.2515 37.7731 37.1601 37.7163 37.06 37.68C35.7263 36.8912 34.6014 35.7938 33.78 34.48C33.1637 33.4871 32.6478 32.4352 32.24 31.34C31.78 30.24 31.34 29.12 30.94 27.9C30.74 27.36 30.58 26.82 30.4 26.28C30.88 26.7 31.3 27.2 31.8 27.56C33.5625 28.8162 35.3992 29.9649 37.3 31C37.3853 31.0526 37.4802 31.0878 37.5792 31.1036C37.6781 31.1195 37.7792 31.1157 37.8768 31.0925C37.9743 31.0693 38.0662 31.0271 38.1474 30.9683C38.2286 30.9096 38.2974 30.8354 38.35 30.75C38.4025 30.6647 38.4377 30.5698 38.4536 30.4708C38.4694 30.3719 38.4657 30.2707 38.4424 30.1732C38.4192 30.0757 38.377 29.9838 38.3183 29.9026C38.2595 29.8214 38.1853 29.7526 38.1 29.7C36.3551 28.5761 34.6849 27.3402 33.1 26C32.66 25.62 32.28 25.12 31.86 24.68C32.2899 24.85 32.7309 24.9903 33.18 25.1C33.8413 25.2198 34.5091 25.2999 35.18 25.34C36.0612 25.3867 36.9448 25.3532 37.82 25.24C38.4422 25.1559 39.0487 24.9807 39.62 24.72C39.8049 24.6442 39.9537 24.5002 40.0356 24.3178C40.1174 24.1355 40.1262 23.9286 40.06 23.74C40.0265 23.645 39.9744 23.5576 39.9068 23.483C39.8392 23.4083 39.7574 23.3478 39.6662 23.305C39.575 23.2622 39.4762 23.2379 39.3756 23.2336C39.275 23.2294 39.1745 23.2451 39.08 23.28C38.6293 23.3495 38.1706 23.3495 37.72 23.28C36.9619 23.2098 36.212 23.0692 35.48 22.86C34.62 22.74 33.8 22.5 32.98 22.32C32.16 22.14 31.32 22.04 30.5 21.8C30.0792 21.6676 29.6653 21.5141 29.26 21.34C28.665 20.3739 28.1436 19.3644 27.7 18.32C26.9922 16.6703 26.4236 14.9644 26 13.22C25.1094 9.60511 24.7722 5.87604 25 2.16002C25.0103 2.03865 24.9868 1.9168 24.9321 1.80796C24.8774 1.69912 24.7936 1.60753 24.6901 1.54335C24.5866 1.47916 24.4673 1.44488 24.3455 1.44429C24.2237 1.44371 24.1041 1.47684 24 1.54002C23.8708 1.45203 23.7159 1.40978 23.56 1.42002C23.383 1.44018 23.2209 1.52901 23.1087 1.66739C22.9965 1.80577 22.9431 1.98267 22.96 2.16002C23.2008 5.87402 22.8771 9.60306 22 13.22C21.5791 14.9953 21.0173 16.7341 20.32 18.42C19.8683 19.4605 19.3471 20.4695 18.76 21.44C18.3 21.6 18 21.78 17.48 22Z" fill="black"/>
</g>
<defs>
<clipPath id="clip0_1210_1854">
<rect width="48" height="48" fill="white"/>
</clipPath>
</defs>
</svg>
