<svg width="48" height="48" viewBox="0 0 48 48" fill="none" xmlns="http://www.w3.org/2000/svg">
<g clip-path="url(#clip0_1210_1836)">
<path fill-rule="evenodd" clip-rule="evenodd" d="M29.26 2.81997C29.216 2.91715 29.146 3.0003 29.0578 3.06028C28.9696 3.12027 28.8666 3.15476 28.76 3.15997C27.8882 3.19639 27.0653 3.57254 26.4672 4.20794C25.8692 4.84335 25.5436 5.68756 25.56 6.55997C25.5273 7.34387 25.8051 8.10903 26.333 8.68941C26.861 9.26978 27.5965 9.61853 28.38 9.65997C28.9418 9.73954 29.5142 9.69865 30.059 9.54003C30.6038 9.38141 31.1087 9.10869 31.54 8.73997C31.9101 8.32089 32.1698 7.81607 32.2956 7.27126C32.4213 6.72644 32.4091 6.15887 32.26 5.61997C32.1566 5.07161 31.8754 4.57258 31.46 4.19997C31.0625 3.81719 30.5488 3.5779 30 3.51997C29.9048 3.52542 29.8094 3.51135 29.7198 3.47862C29.6302 3.44589 29.5483 3.3952 29.479 3.32964C29.4097 3.26409 29.3545 3.18507 29.3168 3.09742C29.2792 3.00978 29.2599 2.91536 29.26 2.81997ZM29.26 2.51997C29.2405 2.37508 29.1688 2.24229 29.0583 2.14654C28.9478 2.05079 28.8062 1.99867 28.66 1.99997C27.3898 1.92901 26.1433 2.36522 25.1945 3.21275C24.2458 4.06029 23.6722 5.24982 23.6 6.51997C23.5454 7.18907 23.624 7.86235 23.8312 8.50089C24.0384 9.13944 24.3701 9.73058 24.8072 10.2402C25.2442 10.7497 25.7779 11.1676 26.3774 11.4697C26.977 11.7717 27.6304 11.952 28.3 12C29.1883 12.0817 30.0837 11.9644 30.921 11.6565C31.7583 11.3486 32.5163 10.8578 33.14 10.22C33.7071 9.52604 34.0844 8.69687 34.2352 7.81347C34.3859 6.93008 34.3049 6.02269 34 5.17997C33.7413 4.30312 33.2086 3.53215 32.48 2.97997C31.7678 2.43318 30.8978 2.13149 30 2.11997C29.8596 2.11056 29.7196 2.1437 29.5983 2.21505C29.477 2.28641 29.38 2.39267 29.32 2.51997H29.26Z" fill="black"/>
<path fill-rule="evenodd" clip-rule="evenodd" d="M40.62 28.4C40.578 28.4985 40.5085 28.583 40.4198 28.6432C40.3312 28.7035 40.2272 28.7371 40.12 28.74C39.25 28.7814 38.43 29.159 37.833 29.7933C37.236 30.4276 36.9087 31.269 36.92 32.14C36.8873 32.9239 37.1651 33.689 37.6931 34.2694C38.221 34.8498 38.9565 35.1985 39.74 35.24C40.3019 35.3195 40.8742 35.2786 41.419 35.12C41.9639 34.9614 42.4687 34.6887 42.9 34.32C43.2705 33.9009 43.5318 33.3969 43.6609 32.8527C43.79 32.3084 43.7828 31.7408 43.64 31.2C43.5201 30.6578 43.2416 30.1635 42.84 29.78C42.4172 29.3875 41.8749 29.1481 41.3 29.1C41.1179 29.0948 40.9449 29.0187 40.8179 28.888C40.6909 28.7573 40.6199 28.5822 40.62 28.4ZM40.62 28.1C40.6125 28.0184 40.5889 27.9391 40.5506 27.8667C40.5123 27.7943 40.46 27.7303 40.3968 27.6782C40.3335 27.6261 40.2606 27.5871 40.1822 27.5634C40.1038 27.5396 40.0215 27.5317 39.94 27.54C39.3063 27.505 38.6718 27.596 38.0735 27.8078C37.4752 28.0196 36.9248 28.348 36.4542 28.7739C35.9836 29.1999 35.6022 29.7149 35.332 30.2893C35.0618 30.8636 34.9081 31.4859 34.88 32.12C34.8227 32.7906 34.8992 33.466 35.1051 34.1069C35.311 34.7478 35.6423 35.3413 36.0796 35.8531C36.5169 36.3648 37.0515 36.7845 37.6524 37.0879C38.2534 37.3912 38.9086 37.5721 39.58 37.62C40.4684 37.7017 41.3637 37.5844 42.201 37.2765C43.0383 36.9686 43.7963 36.4778 44.42 35.84C44.9887 35.143 45.3683 34.3114 45.5225 33.4252C45.6766 32.539 45.6 31.628 45.3 30.78C45.0261 29.9052 44.4881 29.1368 43.76 28.58C43.0471 28.0344 42.1776 27.7329 41.28 27.72C41.1576 27.7233 41.0385 27.7605 40.9361 27.8277C40.8337 27.8948 40.7519 27.989 40.7 28.1H40.62Z" fill="black"/>
<path fill-rule="evenodd" clip-rule="evenodd" d="M35.38 24.46C35.2586 24.5945 35.1169 24.7092 34.96 24.8C34.6954 24.9684 34.4217 25.1219 34.14 25.26C33.3748 25.6558 32.5705 25.9708 31.74 26.2C30.9 26.42 30.04 26.58 29.1 26.74C28.7388 26.8101 28.3644 26.7536 28.04 26.58C27.9319 26.5299 27.8426 26.4467 27.7851 26.3423C27.7275 26.238 27.7047 26.1181 27.72 26C27.8008 25.4436 28.086 24.9373 28.52 24.58C29.0331 24.1256 29.6049 23.7422 30.22 23.44L31.6 22.82C31.7566 22.8038 31.9109 22.7703 32.06 22.72C32.1736 22.6863 32.2769 22.6244 32.36 22.54C32.4804 22.4139 32.5574 22.2528 32.58 22.08C32.6156 21.7944 32.6156 21.5055 32.58 21.22L32 18.78V18.64C32 18.54 32.1 18.46 32 18.48C31.9 18.5 32 18.48 32 18.6C32 18.72 31.88 18.42 32 18.4C31.9523 18.2742 31.892 18.1536 31.82 18.04C31.6815 17.9795 31.5271 17.9654 31.38 18C31.2894 17.9988 31.1997 18.0174 31.1172 18.0547C31.0346 18.0919 30.9612 18.1467 30.9021 18.2153C30.843 18.284 30.7996 18.3647 30.7751 18.4519C30.7505 18.5391 30.7454 18.6306 30.76 18.72C30.76 18.72 30.76 19.08 30.76 19.1L30.86 19.74L31.08 21.46V21.56L29.48 22.16C28.5507 22.5465 27.6975 23.095 26.96 23.78C26.4001 24.3205 26.0167 25.0176 25.86 25.78C25.7852 26.1618 25.8044 26.5561 25.9159 26.929C26.0274 27.3018 26.2278 27.6419 26.5 27.92C26.877 28.2659 27.3238 28.5271 27.8102 28.6858C28.2967 28.8445 28.8115 28.897 29.32 28.84C30.4922 28.7183 31.6548 28.5178 32.8 28.24C33.5897 28.0277 34.3593 27.7466 35.1 27.4C35.5347 27.194 35.9555 26.9602 36.36 26.7C36.7001 26.4742 37.0036 26.1976 37.26 25.88C37.406 25.6739 37.5143 25.4437 37.58 25.2C37.6616 24.8793 37.7086 24.5507 37.72 24.22L38.04 21.6C38.1134 19.7695 37.7139 17.9511 36.88 16.32C36.2456 15.1731 35.285 14.2404 34.12 13.64C33.7447 13.4488 33.3488 13.3011 32.94 13.2C32.38 13.06 31.82 12.98 31.28 12.9C30.7162 12.8235 30.1487 12.7768 29.58 12.76C29.0137 12.7298 28.4463 12.7298 27.88 12.76C25.941 12.9044 24.057 13.471 22.36 14.42C21.1684 15.0515 20.2243 16.066 19.68 17.3L18.66 19.52L18.3 20.86C18.2335 20.9251 18.1806 21.0029 18.1446 21.0888C18.1085 21.1746 18.0899 21.2668 18.0899 21.36C18.0899 21.4531 18.1085 21.5453 18.1446 21.6311C18.1806 21.717 18.2335 21.7948 18.3 21.86C18.4365 21.985 18.6149 22.0544 18.8 22.0544C18.9851 22.0544 19.1635 21.985 19.3 21.86C19.427 21.7072 19.5344 21.5392 19.62 21.36C19.8 20.96 19.88 20.4 20.02 20.06L21.12 18C21.6015 17.1147 22.3604 16.412 23.28 16C24.7423 15.234 26.3518 14.7907 28 14.7C28.4996 14.67 29.0005 14.67 29.5 14.7C30 14.7 30.5 14.7 30.98 14.88C31.4528 14.958 31.9203 15.0649 32.38 15.2C32.6295 15.2755 32.8707 15.376 33.1 15.5C34.0381 16.0467 34.748 16.9128 35.1 17.94C35.5009 19.076 35.6907 20.2757 35.66 21.48L35.38 24.46Z" fill="black"/>
<path fill-rule="evenodd" clip-rule="evenodd" d="M1.44001 40H1.30001C1.30001 39.82 1.10001 39.74 1.08001 40H1.36001H1.22001C1.06974 39.982 0.918232 40.0215 0.795838 40.1105C0.673444 40.1995 0.589209 40.3315 0.560012 40.48C0.539014 40.5705 0.538659 40.6647 0.558973 40.7554C0.579288 40.8462 0.619752 40.9312 0.677369 41.0041C0.734986 41.0771 0.808281 41.1362 0.891827 41.177C0.975373 41.2179 1.06703 41.2394 1.16001 41.24C1.29983 41.25 1.44019 41.25 1.58001 41.24H2.42001L5.22001 41.06C6.38001 40.9 7.54001 40.8 8.72001 40.74C9.90001 40.68 11.06 40.64 12.24 40.62L23.96 40.72L38.64 40.42H41.26C41.7834 40.4324 42.305 40.4859 42.82 40.58H44.02C44.4343 40.5952 44.8418 40.6902 45.22 40.86C45.3219 40.923 45.4087 41.0076 45.4743 41.1078C45.54 41.208 45.5829 41.3214 45.6 41.44C45.72 41.94 45.18 42.02 44.72 42.12C43.7559 42.2926 42.7793 42.3862 41.8 42.4L40.56 42.56L38.84 42.68C37.14 42.86 35.44 42.98 33.72 43.06C31.14 43.22 28.52 43.3 25.96 43.44C22.56 43.6 19.18 43.94 15.8 44.16C14.36 44.16 12.92 44.32 11.48 44.34L3.48001 44.16H1.64001H1.40001C1.30763 44.1411 1.21239 44.1411 1.12001 44.16C0.934361 44.16 0.756313 44.2337 0.625038 44.365C0.493762 44.4963 0.420012 44.6743 0.420012 44.86C0.407904 45.0216 0.450678 45.1826 0.541416 45.3168C0.632154 45.4511 0.765546 45.5509 0.920012 45.6C1.15822 45.6414 1.4018 45.6414 1.64001 45.6H3.50001L11.5 45.98H15.9C19.28 45.86 22.66 45.62 26.04 45.52C28.64 45.52 31.24 45.52 33.84 45.34C35.6 45.34 37.34 45.2 39.08 45.06L40.82 44.94L41.96 44.8C43.6292 44.8451 45.288 44.5242 46.82 43.86C47.3083 43.5788 47.6892 43.1432 47.9028 42.6219C48.1164 42.1005 48.1506 41.5229 48 40.98C47.8652 40.2708 47.4823 39.6327 46.92 39.18C46.1782 38.6435 45.2947 38.3374 44.38 38.3H43.42C42.7617 38.1641 42.0921 38.0904 41.42 38.08H38.72C37.24 38.08 35.74 38.08 34.26 38.2C30.82 38.32 27.38 38.58 23.96 38.76L12.28 39.06C11.08 39.06 9.88001 39.18 8.68001 39.28C7.48001 39.38 6.30001 39.52 5.10001 39.72L2.42001 40H1.58001H1.44001Z" fill="black"/>
<path fill-rule="evenodd" clip-rule="evenodd" d="M34 36.46C34.165 35.5548 34.0821 34.6218 33.76 33.76C33.3845 32.8547 32.6652 32.1355 31.76 31.76C31.3211 31.5702 30.8557 31.4488 30.38 31.4C29.44 31.3 28.38 31.4 27.58 31.3L25.58 31.14C24.914 31.0991 24.246 31.0991 23.58 31.14C23.1 31.14 22.4 31.3 21.76 31.34C21.5086 31.3841 21.2514 31.3841 21 31.34L20.18 30C19.6867 29.4666 19.2067 28.9066 18.74 28.32C18.02 27.42 17.32 26.5 16.74 25.6C15.9681 24.6791 15.0407 23.9006 14 23.3C13.005 22.665 11.8989 22.2239 10.74 22C10.0065 21.8803 9.26217 21.8401 8.52001 21.88C7.50001 21.88 6.52001 22.06 5.50001 22.14C4.65874 22.1844 3.82257 22.2981 3.00001 22.48C2.31724 22.6495 1.68147 22.9708 1.14001 23.42C0.710549 23.7774 0.380153 24.2391 0.180524 24.761C-0.0191042 25.2828 -0.0812653 25.8472 6.47455e-06 26.4C0.0835732 26.9666 0.327616 27.4975 0.703291 27.9299C1.07897 28.3623 1.57057 28.6781 2.12001 28.84C4.35935 29.2186 6.63825 29.306 8.90001 29.1C9.71342 29.1147 10.5157 29.2915 11.26 29.62C11.4182 29.7016 11.55 29.8264 11.64 29.98C11.92 30.42 12.14 30.94 12.42 31.32C13.24 32.44 13.82 33.84 14.56 35.06C14.9048 35.6552 15.3212 36.206 15.8 36.7C15.8644 36.7656 15.941 36.818 16.0256 36.854C16.1102 36.89 16.201 36.9091 16.2929 36.91C16.3849 36.9109 16.4761 36.8937 16.5614 36.8594C16.6467 36.8251 16.7243 36.7743 16.79 36.71C16.8557 36.6456 16.908 36.569 16.944 36.4844C16.9801 36.3998 16.9991 36.309 17 36.217C17.001 36.1251 16.9838 36.0339 16.9495 35.9486C16.9151 35.8633 16.8644 35.7856 16.8 35.72C16.4194 35.2935 16.0904 34.8236 15.82 34.32C15.1 33.04 14.56 31.56 13.82 30.32C13.52 29.86 13.32 29.24 12.98 28.76C12.7269 28.4238 12.3886 28.1614 12 28C11.3731 27.6699 10.6982 27.4404 10 27.32C7.62001 26.86 5.02001 27.58 2.74001 26.76C2.58918 26.6947 2.45912 26.5893 2.36393 26.4553C2.26873 26.3214 2.21204 26.1639 2.20001 26C2.18017 25.8221 2.20656 25.6421 2.27664 25.4775C2.34671 25.3128 2.45809 25.169 2.60001 25.06C2.87996 24.8382 3.20927 24.6873 3.56001 24.62C4.27367 24.4907 4.99537 24.4105 5.72001 24.38C6.66001 24.38 7.72001 24.18 8.60001 24.14C9.18191 24.1123 9.76511 24.1458 10.34 24.24C11.2094 24.4048 12.0382 24.7377 12.78 25.22C13.5377 25.6862 14.2134 26.2741 14.78 26.96C15.5 27.86 16.22 28.8 17 29.68C17.78 30.56 18.08 30.88 18.64 31.44C18.92 31.68 19.16 32.1 19.48 32.42C19.7047 32.6555 19.9776 32.8397 20.28 32.96C20.6961 33.109 21.1402 33.1637 21.58 33.12C22.32 33.12 23.18 32.86 23.74 32.8C24.333 32.7696 24.9271 32.7696 25.52 32.8H27.36C27.96 32.8 29.24 32.7 30.18 32.8C30.502 32.8164 30.8193 32.8839 31.12 33C31.409 33.1141 31.6725 33.2841 31.8956 33.5003C32.1187 33.7166 32.2969 33.9747 32.42 34.26C32.6882 34.8902 32.7781 35.5821 32.68 36.26C32.6571 36.4216 32.6988 36.5858 32.7962 36.7168C32.8935 36.8479 33.0386 36.9353 33.2 36.96C33.2855 36.987 33.3759 36.9951 33.4649 36.9838C33.5538 36.9725 33.6393 36.942 33.7154 36.8945C33.7914 36.847 33.8562 36.7835 33.9054 36.7085C33.9545 36.6335 33.9868 36.5487 34 36.46Z" fill="black"/>
<path fill-rule="evenodd" clip-rule="evenodd" d="M10.88 31.2799C9.36313 30.9414 7.81421 30.767 6.26002 30.7599C5.17934 30.7998 4.10929 30.9882 3.08002 31.3199C2.59324 31.5085 2.15814 31.8099 1.81047 32.1993C1.46279 32.5887 1.21245 33.055 1.08002 33.5599C0.815297 34.4618 0.915868 35.4316 1.36002 36.2599C1.56525 36.6112 1.85372 36.9065 2.20002 37.1199C2.62445 37.3363 3.07475 37.4976 3.54002 37.5999C3.62803 37.6362 3.72252 37.6541 3.81769 37.6526C3.91287 37.6511 4.00673 37.6302 4.09355 37.5912C4.18037 37.5521 4.25832 37.4958 4.32264 37.4257C4.38695 37.3555 4.43628 37.2729 4.4676 37.183C4.49893 37.0932 4.51159 36.9978 4.50482 36.9029C4.49804 36.8079 4.47198 36.7154 4.42821 36.6308C4.38445 36.5463 4.3239 36.4716 4.25028 36.4113C4.17665 36.3509 4.0915 36.3062 4.00002 36.2799C3.73266 36.1751 3.47777 36.041 3.24002 35.8799C3.09285 35.7805 2.98637 35.6314 2.94002 35.4599C2.83715 35.0477 2.89432 34.6118 3.10002 34.24C3.14981 34.0809 3.2351 33.9352 3.34943 33.814C3.46377 33.6927 3.60416 33.599 3.76002 33.5399C4.53712 33.2992 5.33334 33.1253 6.14002 33.0199C6.68002 32.9199 7.24002 32.7999 7.80002 32.7199C8.80002 32.5999 9.80002 32.5399 10.72 32.5199C10.8016 32.5342 10.8851 32.532 10.9658 32.5134C11.0465 32.4948 11.1226 32.4603 11.1897 32.4118C11.2568 32.3634 11.3135 32.3019 11.3565 32.2312C11.3995 32.1605 11.4279 32.0818 11.44 31.9999C11.4574 31.915 11.4563 31.8273 11.4366 31.7429C11.4169 31.6585 11.3791 31.5794 11.3259 31.5109C11.2727 31.4425 11.2052 31.3864 11.1283 31.3466C11.0513 31.3067 10.9666 31.284 10.88 31.2799Z" fill="black"/>
</g>
<defs>
<clipPath id="clip0_1210_1836">
<rect width="48" height="48" fill="white"/>
</clipPath>
</defs>
</svg>
