<svg width="48" height="48" viewBox="0 0 48 48" fill="none" xmlns="http://www.w3.org/2000/svg">
<path d="M20.345 44.666C19.018 44.393 18.249 43.185 18.209 41.831C18.1377 39.3178 18.0877 36.804 18.059 34.29C15.8679 35.5223 13.6661 36.7357 11.454 37.93C10.261 38.573 8.82903 38.511 7.93003 37.498C7.32203 36.813 6.58803 35.843 5.81303 34.5C5.03803 33.157 4.56503 32.037 4.27503 31.168C3.84803 29.882 4.51003 28.612 5.66203 27.9C7.80294 26.5817 9.95502 25.2817 12.118 24C9.955 22.7183 7.80292 21.4183 5.66203 20.1C4.51003 19.388 3.84803 18.118 4.27503 16.832C4.56503 15.963 5.03803 14.842 5.81303 13.5C6.58803 12.157 7.32303 11.187 7.93003 10.502C8.83003 9.489 10.26 9.427 11.454 10.069C12.849 10.82 15.027 12.009 18.059 13.71C18.102 10.234 18.161 7.753 18.209 6.17C18.249 4.815 19.018 3.607 20.345 3.334C21.242 3.15 22.45 3 24 3C25.55 3 26.757 3.15 27.654 3.334C28.982 3.607 29.751 4.815 29.791 6.17C29.838 7.753 29.897 10.234 29.941 13.71C32.973 12.01 35.151 10.82 36.546 10.07C37.739 9.427 39.17 9.489 40.069 10.502C40.677 11.187 41.411 12.157 42.186 13.5C42.962 14.843 43.435 15.963 43.724 16.832C44.152 18.118 43.49 19.388 42.337 20.1C40.1958 21.4183 38.0434 22.7184 35.88 24C38.043 25.2817 40.1951 26.5817 42.336 27.9C43.489 28.612 44.151 29.882 43.723 31.168C43.433 32.037 42.961 33.158 42.185 34.5C41.41 35.843 40.676 36.813 40.068 37.498C39.169 38.511 37.738 38.573 36.545 37.931C34.3331 36.7361 32.1313 35.5223 29.94 34.29C29.9114 36.8037 29.8614 39.3171 29.79 41.83C29.75 43.185 28.98 44.393 27.653 44.666C26.757 44.85 25.55 45 24 45C22.45 45 21.242 44.85 20.345 44.666Z" stroke="black" stroke-width="3" stroke-linecap="round" stroke-linejoin="round"/>
</svg>
