<svg width="48" height="48" viewBox="0 0 48 48" fill="none" xmlns="http://www.w3.org/2000/svg">
<g clip-path="url(#clip0_1210_1916)">
<path fill-rule="evenodd" clip-rule="evenodd" d="M30.24 22.32C30.1461 22.3573 30.0607 22.413 29.9886 22.4837C29.9165 22.5544 29.8593 22.6388 29.8202 22.7319C29.7811 22.825 29.7609 22.925 29.7609 23.0259C29.7608 23.1269 29.7809 23.2269 29.82 23.32C29.8571 23.4114 29.9122 23.4944 29.9818 23.5641C30.0515 23.6339 30.1345 23.689 30.2258 23.7263C30.3171 23.7636 30.4149 23.7822 30.5135 23.7811C30.6121 23.78 30.7095 23.7593 30.8 23.72C31.21 23.6391 31.6238 23.579 32.04 23.54C32.439 23.4999 32.841 23.4999 33.24 23.54H34.16C34.3643 23.5168 34.5595 23.4423 34.7273 23.3234C34.8952 23.2045 35.0302 23.0451 35.12 22.86C35.3121 22.4163 35.3746 21.9271 35.3003 21.4493C35.226 20.9715 35.0178 20.5245 34.7 20.16C33.8288 19.154 32.7943 18.3021 31.64 17.64C31.5009 17.5315 31.3251 17.4813 31.1497 17.5C30.9744 17.5186 30.8131 17.6047 30.7 17.74C30.6437 17.8078 30.6016 17.8862 30.5762 17.9706C30.5507 18.0549 30.5424 18.1435 30.5517 18.2311C30.561 18.3187 30.5878 18.4036 30.6304 18.4807C30.6731 18.5578 30.7307 18.6256 30.8 18.68C31.04 18.98 31.66 19.96 32.24 20.9L32.56 21.32L31.58 21.64C31.1213 21.8422 30.6739 22.0692 30.24 22.32Z" fill="black"/>
<path fill-rule="evenodd" clip-rule="evenodd" d="M45.7799 27.62C45.4824 27.2039 45.1329 26.8275 44.7399 26.5C43.3142 25.6372 41.9747 24.6393 40.7399 23.52C40.6118 23.2432 40.5371 22.9446 40.5199 22.64C40.2999 21.62 40.1799 20.28 39.9799 19.44C39.9245 19.2168 39.8577 18.9965 39.7799 18.78C38.9607 16.9212 37.6547 15.3181 35.9999 14.14C34.3089 12.9611 32.349 12.2253 30.2999 12C25.8004 11.68 21.3285 12.9234 17.6399 15.52C13.8075 17.9393 11.0673 21.7554 9.99991 26.16C9.75996 27.5229 9.75996 28.9172 9.99991 30.28C10.3791 32.2372 11.0535 34.1254 11.9999 35.88C12.692 37.4748 13.6376 38.9472 14.7999 40.24C15.4407 40.816 16.1533 41.3067 16.9199 41.7C16.8199 42.08 16.6999 42.46 16.5999 42.86C16.5455 43.0695 16.512 43.2839 16.4999 43.5V45.88C16.4555 46.0759 16.4864 46.2813 16.5864 46.4554C16.6865 46.6296 16.8483 46.7597 17.0399 46.82C17.1371 46.8506 17.2394 46.8614 17.3407 46.8516C17.4421 46.8419 17.5405 46.8119 17.63 46.7634C17.7196 46.7148 17.7985 46.6488 17.862 46.5692C17.9256 46.4897 17.9724 46.3981 17.9999 46.3C18.3301 45.7565 18.6176 45.1881 18.8599 44.6C18.957 44.3419 19.0241 44.0735 19.0599 43.8C19.11 43.5156 19.11 43.2245 19.0599 42.94C18.5799 39.92 17.3999 41.26 15.3999 38.64C14.5975 37.5707 13.926 36.4091 13.3999 35.18C12.7918 33.8021 12.3422 32.3595 12.0599 30.88C11.7598 29.4624 11.7598 27.9977 12.0599 26.58C13.16 22.8131 15.6566 19.6083 19.0399 17.62C22.2413 15.3849 26.1021 14.2929 29.9999 14.52C31.6335 14.6174 33.216 15.1266 34.5999 16C35.9678 16.8882 37.0673 18.133 37.7799 19.6C38.1199 20.28 38.2799 22.18 38.5999 23.36C38.7117 23.8315 38.9082 24.2788 39.1799 24.68C39.5164 25.0658 39.8993 25.4084 40.3199 25.7C41.3799 26.48 42.7399 27.04 43.6999 27.86C42.5399 28.24 40.6599 28.68 39.6999 28.92C39.3873 28.9862 39.0892 29.1082 38.8199 29.28C38.7447 29.3552 38.6876 29.4465 38.653 29.547C38.6183 29.6475 38.607 29.7545 38.6199 29.86C38.5852 29.9388 38.5673 30.024 38.5673 30.11C38.5673 30.1961 38.5852 30.2813 38.6199 30.36C38.8395 31.9308 38.7374 33.5299 38.3199 35.06C38.3199 35.4 38.0999 35.7 37.9999 36.02C37.188 35.2803 36.1941 34.7696 35.1199 34.54C34.5873 34.4305 34.0428 34.3902 33.4999 34.42C32.2874 34.5451 31.1081 34.8908 30.0199 35.44C29.8479 35.4911 29.7031 35.608 29.617 35.7653C29.5308 35.9227 29.5103 36.1077 29.5599 36.28C29.6109 36.452 29.7279 36.5968 29.8852 36.683C30.0425 36.7692 30.2275 36.7897 30.3999 36.74C31.4417 36.6559 32.4899 36.7029 33.5199 36.88C34.1532 36.9528 34.7812 37.0663 35.3999 37.22C36.0314 37.3919 36.6418 37.6334 37.2199 37.94C37.0105 38.3808 36.7629 38.8024 36.4799 39.2C35.7262 40.2982 34.6286 41.1144 33.3599 41.52C31.9916 41.9565 30.544 42.0862 29.1199 41.9C29.0346 41.8803 28.9461 41.8776 28.8598 41.8921C28.7734 41.9066 28.6906 41.9379 28.6164 41.9844C28.5421 42.0308 28.4777 42.0914 28.4268 42.1627C28.3759 42.234 28.3396 42.3147 28.3199 42.4C28.3002 42.4854 28.2975 42.5738 28.312 42.6602C28.3265 42.7466 28.3578 42.8293 28.4042 42.9036C28.4507 42.9779 28.5113 43.0423 28.5826 43.0932C28.6539 43.144 28.7346 43.1803 28.8199 43.2C29.3385 43.3385 29.8666 43.4388 30.3999 43.5C30.2555 43.9459 30.1813 44.4114 30.1799 44.88C30.2254 45.249 30.3336 45.6075 30.4999 45.94C31.4799 48.16 32.0199 47.94 32.2199 47.94C32.4199 47.94 32.9599 47.6 32.8399 45.4V44.76C32.8399 44.54 32.7199 44.38 32.6399 44.18L32.3399 43.66C32.8854 43.7098 33.4344 43.7098 33.9799 43.66C35.788 43.2916 37.4131 42.3095 38.5799 40.88C39.6532 39.2948 40.3383 37.4792 40.5799 35.58C40.8134 33.89 40.7115 32.1706 40.2799 30.52C41.914 30.2007 43.5297 29.7935 45.1199 29.3C45.9999 28.84 45.9999 28 45.7799 27.62Z" fill="black"/>
<path fill-rule="evenodd" clip-rule="evenodd" d="M22.2999 7.44002C23.2969 7.5043 24.298 7.44383 25.2799 7.26002V7.46002L24.6199 8.64002L23.2999 10.44C23.2029 10.5981 23.1671 10.7863 23.1992 10.969C23.2313 11.1517 23.3291 11.3163 23.4742 11.4319C23.6193 11.5475 23.8016 11.606 23.9869 11.5965C24.1722 11.5869 24.3475 11.5099 24.4799 11.38L26.0599 9.78002L27.0799 8.42002L27.6199 7.34002C27.7776 7.02555 27.8495 6.67506 27.8284 6.32391C27.8074 5.97276 27.6941 5.63339 27.4999 5.34002C27.1799 4.90002 26.3799 4.66002 25.1399 4.72002C24.7999 4.72002 24.1199 4.86002 23.4399 4.88002C23.8864 4.24118 24.3671 3.62695 24.8799 3.04002C25.4799 2.38002 26.0799 1.74002 26.7399 1.14002C26.8275 1.09361 26.9039 1.02863 26.9637 0.94962C27.0235 0.870608 27.0653 0.779479 27.0862 0.682611C27.1071 0.585743 27.1066 0.485477 27.0847 0.388832C27.0628 0.292188 27.02 0.201501 26.9594 0.123119C26.8987 0.0447372 26.8217 -0.0194446 26.7336 -0.0649335C26.6456 -0.110422 26.5487 -0.136119 26.4497 -0.140224C26.3507 -0.14433 26.2519 -0.126745 26.1604 -0.0887003C26.0689 -0.050656 25.9869 0.00692825 25.9199 0.0800213C25.1399 0.600021 24.3799 1.14002 23.6399 1.74002C22.8817 2.35694 22.1667 3.02517 21.4999 3.74002C21.1042 4.14083 20.7367 4.56851 20.3999 5.02002C20.2783 5.22233 20.214 5.45395 20.214 5.69002C20.214 5.9261 20.2783 6.15772 20.3999 6.36002C20.6153 6.67112 20.8979 6.92975 21.2268 7.11671C21.5557 7.30368 21.9225 7.41418 22.2999 7.44002Z" fill="black"/>
<path fill-rule="evenodd" clip-rule="evenodd" d="M10.1799 12.36C10.5297 12.539 10.917 12.6324 11.3099 12.6324C11.7028 12.6324 12.0901 12.539 12.4399 12.36C13.3384 11.9197 14.1782 11.3688 14.9399 10.72V10.92V12.28L14.6999 14.48C14.6798 14.5776 14.6802 14.6783 14.7011 14.7758C14.722 14.8732 14.7628 14.9653 14.8211 15.0461C14.8794 15.127 14.9538 15.1948 15.0397 15.2454C15.1255 15.296 15.221 15.3282 15.3199 15.34C15.5182 15.3695 15.7202 15.3216 15.884 15.2061C16.0479 15.0907 16.161 14.9166 16.1999 14.72L16.7599 12.54L16.9599 10.86V9.64001C16.9361 9.29685 16.8242 8.96562 16.635 8.67834C16.4459 8.39105 16.1858 8.15742 15.8799 8.00001C15.3799 7.76001 14.5599 8.00001 13.5199 8.64001C13.2399 8.82001 12.6999 9.24001 12.1199 9.60001C12.1926 8.82789 12.3061 8.06015 12.4599 7.30001C12.6399 6.42001 12.8599 5.58001 13.1199 4.72001C13.1868 4.55537 13.1866 4.3711 13.1193 4.20663C13.052 4.04217 12.923 3.91057 12.7599 3.84001C12.5924 3.77953 12.4082 3.78516 12.2447 3.85576C12.0812 3.92636 11.9507 4.05661 11.8799 4.22001C11.4599 5.06001 11.0599 5.92001 10.7199 6.80001C10.3728 7.68838 10.0789 8.59666 9.83992 9.52001C9.68318 10.0557 9.57606 10.6047 9.51992 11.16C9.51184 11.4009 9.56888 11.6395 9.68504 11.8507C9.80119 12.0619 9.97215 12.2378 10.1799 12.36Z" fill="black"/>
<path fill-rule="evenodd" clip-rule="evenodd" d="M10.66 21.64C10.7556 21.6047 10.8431 21.5505 10.9173 21.4806C10.9915 21.4107 11.0509 21.3266 11.0919 21.2333C11.133 21.14 11.1549 21.0394 11.1562 20.9375C11.1576 20.8356 11.1385 20.7344 11.1 20.64L10.5 18.48L9.83995 16.92L9.17995 16C8.98498 15.7178 8.72067 15.4904 8.41245 15.3398C8.10423 15.1892 7.76244 15.1204 7.41995 15.14C6.87995 15.14 6.27995 15.74 5.69995 16.86C5.49472 17.3954 5.2542 17.9165 4.97995 18.42C4.65545 17.7089 4.36839 16.9812 4.11995 16.24C3.83995 15.4 3.59995 14.54 3.39995 13.68C3.38669 13.4944 3.30023 13.3216 3.15957 13.1997C3.01892 13.0778 2.83561 13.0168 2.64995 13.03C2.4643 13.0433 2.29152 13.1298 2.16962 13.2704C2.04773 13.4111 1.98669 13.5944 1.99995 13.78C1.99995 14.72 2.13995 15.66 2.27995 16.6C2.41995 17.54 2.63995 18.46 2.87995 19.4C3.02956 19.9391 3.21668 20.4671 3.43995 20.98C3.54936 21.1914 3.71638 21.3674 3.92166 21.4877C4.12695 21.6081 4.36212 21.6678 4.59995 21.66C5.00064 21.6458 5.39192 21.5347 5.74024 21.3362C6.08857 21.1376 6.38357 20.8576 6.59995 20.52C7.17886 19.69 7.64934 18.7894 7.99995 17.84L8.09995 18L8.79995 19.16L9.67995 21.16C9.7481 21.3523 9.88885 21.5102 10.072 21.5999C10.2552 21.6897 10.4663 21.7041 10.66 21.64Z" fill="black"/>
</g>
<defs>
<clipPath id="clip0_1210_1916">
<rect width="48" height="48" fill="white"/>
</clipPath>
</defs>
</svg>
