<svg width="48" height="48" viewBox="0 0 48 48" fill="none" xmlns="http://www.w3.org/2000/svg">
<g clip-path="url(#clip0_1209_6750)">
<path d="M32.625 17.2917C32.625 18.8167 33.2308 20.2792 34.3091 21.3575C35.3875 22.4359 36.85 23.0417 38.375 23.0417C39.9 23.0417 41.3625 22.4359 42.4409 21.3575C43.5192 20.2792 44.125 18.8167 44.125 17.2917C44.125 15.7667 43.5192 14.3041 42.4409 13.2258C41.3625 12.1475 39.9 11.5417 38.375 11.5417C36.85 11.5417 35.3875 12.1475 34.3091 13.2258C33.2308 14.3041 32.625 15.7667 32.625 17.2917Z" stroke="#7ED957" stroke-width="2" stroke-linecap="round" stroke-linejoin="round"/>
<path d="M9.625 3.875C8.10001 3.875 6.63747 4.4808 5.55914 5.55914C4.4808 6.63747 3.875 8.10001 3.875 9.625V17.2917C3.875 19.8333 4.88467 22.2709 6.68189 24.0681C8.47912 25.8653 10.9167 26.875 13.4583 26.875C16 26.875 18.4376 25.8653 20.2348 24.0681C22.032 22.2709 23.0417 19.8333 23.0417 17.2917V9.625C23.0417 8.10001 22.4359 6.63747 21.3575 5.55914C20.2792 4.4808 18.8167 3.875 17.2917 3.875" stroke="#7ED957" stroke-width="2" stroke-linecap="round" stroke-linejoin="round"/>
<path d="M13.4583 26.875V42.2083C13.4583 43.225 13.8622 44.2 14.5811 44.9189C15.3 45.6378 16.275 46.0417 17.2917 46.0417C18.3083 46.0417 19.2833 45.6378 20.0022 44.9189C20.7211 44.2 21.125 43.225 21.125 42.2083V31.153C21.125 29.8822 21.6298 28.6634 22.5284 27.7648C23.4271 26.8662 24.6458 26.3613 25.9167 26.3613C27.1875 26.3613 28.4063 26.8662 29.3049 27.7648C30.2035 28.6634 30.7083 29.8822 30.7083 31.153V38.375C30.7083 39.3917 31.1122 40.3667 31.8311 41.0856C32.55 41.8045 33.525 42.2083 34.5417 42.2083C35.5583 42.2083 36.5333 41.8045 37.2522 41.0856C37.9711 40.3667 38.375 39.3917 38.375 38.375V23.0417" stroke="#7ED957" stroke-width="2" stroke-linecap="round" stroke-linejoin="round"/>
<path d="M9.625 1.95834V6.75001" stroke="#7ED957" stroke-width="2" stroke-linecap="round" stroke-linejoin="round"/>
<path d="M17.2917 1.95834V6.75001" stroke="#7ED957" stroke-width="2" stroke-linecap="round" stroke-linejoin="round"/>
</g>
<defs>
<clipPath id="clip0_1209_6750">
<rect width="48" height="48" fill="white"/>
</clipPath>
</defs>
</svg>
