<svg width="48" height="48" viewBox="0 0 48 48" fill="none" xmlns="http://www.w3.org/2000/svg">
<g clip-path="url(#clip0_1209_6731)">
<path d="M38.0019 16.8002C38.0019 8.08376 31.7216 0.99942 24.0012 0.99942C16.2808 0.99942 10.0005 8.08376 10.0005 16.8002C10.0005 23.6705 13.7327 28.8928 18.5889 34.6731C16.4608 36.7068 14.1749 38.5687 11.7526 40.2413C11.5364 40.3898 11.3872 40.6172 11.3371 40.8745C11.287 41.1319 11.3399 41.3987 11.4846 41.6174L14.7467 46.5516C14.8199 46.6625 14.9144 46.7576 15.0247 46.8316C15.135 46.9055 15.259 46.9567 15.3893 46.9822C15.5196 47.0077 15.6538 47.007 15.7838 46.9801C15.9139 46.9532 16.0373 46.9007 16.1468 46.8256C18.9297 44.9145 21.5561 42.7851 24.0012 40.4573C26.4469 42.7851 29.074 44.9146 31.8576 46.8256C31.9671 46.9007 32.0905 46.9532 32.2206 46.9801C32.3506 47.007 32.4847 47.0077 32.6151 46.9822C32.7454 46.9567 32.8693 46.9055 32.9797 46.8316C33.09 46.7576 33.1845 46.6625 33.2576 46.5516L36.5198 41.6174C36.6644 41.3987 36.7174 41.1319 36.6673 40.8745C36.6171 40.6172 36.4679 40.3898 36.2518 40.2413C33.8299 38.5719 31.5439 36.7133 29.4154 34.6831C34.6297 28.4748 38.0019 23.3565 38.0019 16.8002Z" stroke="black" stroke-width="2.0001" stroke-linecap="round" stroke-linejoin="round"/>
<path d="M24.0012 28.9635C25.6892 30.9769 27.4965 32.8871 29.4134 34.6838" stroke="black" stroke-width="2.0001" stroke-linecap="round" stroke-linejoin="round"/>
<path d="M24.0012 40.4568C22.1531 38.6327 20.323 36.7467 18.5889 34.6826" stroke="black" stroke-width="2.0001" stroke-linecap="round" stroke-linejoin="round"/>
<path d="M24.0011 8.90805C20.6869 8.90805 17.3848 12.9602 18.0008 17.8925C18.4248 21.2927 20.8749 25.2468 24.0011 28.963C27.1252 25.2468 29.5774 21.2907 30.0014 17.8925C30.6174 12.9602 27.3153 8.90805 24.0011 8.90805Z" stroke="black" stroke-width="2.0001" stroke-linecap="round" stroke-linejoin="round"/>
</g>
<defs>
<clipPath id="clip0_1209_6731">
<rect width="48.0023" height="48.0023" fill="white"/>
</clipPath>
</defs>
</svg>
