<svg width="48" height="48" viewBox="0 0 48 48" fill="none" xmlns="http://www.w3.org/2000/svg">
<g clip-path="url(#clip0_1209_6769)">
<path d="M44.6521 17.606C44.8722 17.4789 45.0328 17.2696 45.0986 17.0241C45.1643 16.7786 45.1299 16.517 45.0028 16.2969L41.1695 9.65759C41.044 9.43889 40.8375 9.27844 40.5945 9.21101C40.3492 9.14547 40.088 9.17994 39.8681 9.30684L28.7917 15.6989V2.91668C28.7917 2.66251 28.6907 2.41876 28.511 2.23903C28.3313 2.05931 28.0875 1.95834 27.8333 1.95834H20.1667C19.9125 1.95834 19.6687 2.05931 19.489 2.23903C19.3093 2.41876 19.2083 2.66251 19.2083 2.91668V15.697L8.13958 9.30684C7.91947 9.17977 7.6579 9.14533 7.4124 9.21111C7.1669 9.27688 6.95759 9.43749 6.8305 9.65759L2.99716 16.2969C2.87009 16.517 2.83565 16.7786 2.90143 17.0241C2.96721 17.2696 3.12781 17.4789 3.34791 17.606L14.4167 24L3.34791 30.3902C3.12781 30.5173 2.96721 30.7266 2.90143 30.9721C2.83565 31.2176 2.87009 31.4791 2.99716 31.6993L6.8305 38.3386C6.95759 38.5587 7.1669 38.7193 7.4124 38.7851C7.6579 38.8509 7.91947 38.8164 8.13958 38.6893L19.2083 32.2973V45.0833C19.2083 45.3375 19.3093 45.5813 19.489 45.761C19.6687 45.9407 19.9125 46.0417 20.1667 46.0417H27.8333C28.0875 46.0417 28.3313 45.9407 28.511 45.761C28.6907 45.5813 28.7917 45.3375 28.7917 45.0833V32.2973L39.8623 38.6893C40.0822 38.8162 40.3435 38.8507 40.5887 38.7852C40.8317 38.7178 41.0383 38.5573 41.1637 38.3386L44.9971 31.6993C45.1242 31.4791 45.1586 31.2176 45.0928 30.9721C45.027 30.7266 44.8664 30.5173 44.6463 30.3902L33.5833 24L44.6521 17.606Z" stroke="black" stroke-width="2" stroke-linecap="round" stroke-linejoin="round"/>
</g>
<defs>
<clipPath id="clip0_1209_6769">
<rect width="48" height="48" fill="white"/>
</clipPath>
</defs>
</svg>
