<svg width="48" height="48" viewBox="0 0 48 48" fill="none" xmlns="http://www.w3.org/2000/svg">
<g clip-path="url(#clip0_1210_1908)">
<path d="M46.7 43.36C44.4612 43.3314 42.2229 43.4516 40 43.72C38.8971 43.8077 37.8327 44.1649 36.9 44.76C35.6767 45.6129 34.2105 46.0478 32.72 46C30.8207 46.0833 28.9209 45.8466 27.1 45.3C27.1 45.3 25.58 45.04 25.92 43.94C26.42 42.36 28.48 43.06 29.1 42.9C29.6186 42.7675 30.1215 42.5798 30.6 42.34C30.6827 42.3229 30.7613 42.2897 30.8312 42.2423C30.9011 42.1948 30.961 42.1341 31.0074 42.0635C31.0538 41.993 31.0859 41.9139 31.1018 41.831C31.1177 41.748 31.1171 41.6627 31.1 41.58C31.0829 41.4972 31.0497 41.4187 31.0023 41.3488C30.9549 41.2789 30.8941 41.219 30.8235 41.1726C30.753 41.1261 30.6739 41.0941 30.591 41.0782C30.508 41.0623 30.4227 41.0629 30.34 41.08C28.6 41.08 26.34 41.52 24.86 40.22C24.7578 40.1479 24.6715 40.0557 24.6061 39.9491C24.5408 39.8425 24.4979 39.7237 24.48 39.6C24.32 36.56 29.3 36.98 29.9 36.78C30.066 36.7554 30.2171 36.6704 30.3242 36.5411C30.4312 36.4119 30.4867 36.2477 30.48 36.08C30.4725 35.9958 30.4484 35.9139 30.409 35.8391C30.3697 35.7643 30.3159 35.698 30.2509 35.6441C30.1858 35.5902 30.1107 35.5497 30.0298 35.5249C29.949 35.5002 29.8641 35.4917 29.78 35.5C27.2 35.04 26.48 35.76 25.24 34.78C25.118 34.6848 25.0188 34.5636 24.9496 34.4252C24.8804 34.2868 24.843 34.1347 24.84 33.98C24.8701 33.517 25.0445 33.0752 25.3387 32.7165C25.6328 32.3578 26.0319 32.1002 26.48 31.98C28.1778 31.5328 29.9244 31.2977 31.68 31.28C31.8296 31.2863 31.9761 31.2364 32.0908 31.1402C32.2056 31.044 32.2802 30.9084 32.3 30.76C32.3062 30.6328 32.2704 30.5071 32.1982 30.4023C32.1259 30.2975 32.0211 30.2193 31.9 30.18C31.6801 29.5336 31.5457 28.8612 31.5 28.18C31.4377 27.3788 31.4713 26.5731 31.6 25.78C31.6 25.04 32.06 24.6 32.56 24.6C33.06 24.6 33.6 25.02 34.04 25.72C34.7917 26.8323 35.6063 27.9007 36.48 28.92C37.26 29.84 38.18 30.82 39.16 31.84C40.0567 32.8653 41.2653 33.568 42.6 33.84C43.8484 34.009 45.1188 33.8997 46.32 33.52C46.4659 33.4908 46.5942 33.4049 46.6767 33.2811C46.7592 33.1573 46.7892 33.0058 46.76 32.86C46.7308 32.7141 46.6449 32.5858 46.5211 32.5033C46.3973 32.4208 46.2459 32.3908 46.1 32.42C45.0524 32.6498 43.9675 32.6498 42.92 32.42C41.966 32.1209 41.1323 31.5253 40.54 30.72L35.82 24.72C35.4797 24.1298 34.9942 23.6362 34.4097 23.2862C33.8252 22.9362 33.161 22.7413 32.48 22.72C31.806 22.8101 31.1862 23.1374 30.7317 23.6432C30.2772 24.149 30.0178 24.8002 30 25.48C29.903 26.3907 29.903 27.3092 30 28.22C30.0897 28.8325 30.237 29.4351 30.44 30.02C28.937 29.9418 27.4324 30.1384 26 30.6C25.2305 30.7918 24.5431 31.2258 24.039 31.8379C23.5348 32.4501 23.2407 33.208 23.2 34C23.1534 34.6585 23.3609 35.3099 23.78 35.82C23.9402 36.0069 24.1214 36.1746 24.32 36.32L24.02 36.58C23.5276 36.9444 23.1254 37.417 22.8445 37.9614C22.5636 38.5058 22.4115 39.1075 22.4 39.72C22.4765 40.3029 22.7003 40.8566 23.0502 41.329C23.4002 41.8015 23.8647 42.1769 24.4 42.42C24.0218 42.8855 23.8044 43.4607 23.78 44.06C23.7757 44.9025 24.0738 45.7185 24.62 46.36C25.0688 46.8092 25.6272 47.1333 26.24 47.3C27.9576 47.82 29.7456 48.0697 31.54 48.04C33.8651 48.1323 36.1496 47.4109 38 46C38.9551 45.4567 40.0229 45.1418 41.12 45.08C42.9643 44.8325 44.8201 44.679 46.68 44.62C46.8497 44.62 47.0125 44.5525 47.1325 44.4325C47.2526 44.3125 47.32 44.1497 47.32 43.98C47.32 43.8102 47.2526 43.6474 47.1325 43.5274C47.0125 43.4074 46.8497 43.34 46.68 43.34L46.7 43.36Z" fill="black"/>
<path d="M17.76 5.05998C17.6402 4.94151 17.4785 4.87506 17.31 4.87506C17.1415 4.87506 16.9798 4.94151 16.86 5.05998C15.8637 5.86388 14.9401 6.75399 14.1 7.71998C13.253 8.71277 12.5029 9.78432 11.86 10.92L10.62 13.34L10.18 12.9L9.13999 12C8.61999 11.58 8.07999 11.18 7.53999 10.78C7.48785 10.7268 7.42561 10.6845 7.35693 10.6556C7.28824 10.6268 7.21449 10.6119 7.13999 10.6119C7.06548 10.6119 6.99173 10.6268 6.92305 10.6556C6.85436 10.6845 6.79213 10.7268 6.73999 10.78C6.63728 10.8878 6.57999 11.031 6.57999 11.18C6.57999 11.3289 6.63728 11.4721 6.73999 11.58C7.19999 12.04 7.65999 12.48 8.09999 12.98C8.53999 13.48 8.61999 13.6 8.85999 13.94C9.09999 14.28 9.33999 14.74 9.65999 15.12C9.8718 15.3676 10.13 15.5714 10.42 15.72C10.624 15.7944 10.8458 15.8056 11.0563 15.7521C11.2668 15.6986 11.4563 15.5828 11.6 15.42C11.76 15.26 12.12 14.78 12.18 14.7C12.4366 14.3278 12.6704 13.9405 12.88 13.54C13.18 12.98 13.44 12.4 13.72 11.84C14.2081 10.7686 14.8045 9.74995 15.5 8.79998C16.1692 7.80725 16.9184 6.87081 17.74 5.99998C17.8637 5.87603 17.9349 5.70911 17.9386 5.53399C17.9423 5.35888 17.8784 5.18908 17.76 5.05998Z" fill="black"/>
<path d="M16.56 17.58C15.5676 18.3956 14.6445 19.292 13.8 20.26C12.953 21.2528 12.2029 22.3243 11.56 23.46L10.32 26L9.87998 25.54L8.83998 24.62C8.31998 24.2 7.77998 23.8 7.23998 23.4C7.12594 23.3018 6.97758 23.253 6.82755 23.2643C6.67752 23.2755 6.53811 23.3459 6.43998 23.46C6.34185 23.574 6.29304 23.7224 6.30429 23.8724C6.31555 24.0224 6.38594 24.1618 6.49998 24.26C6.95998 24.72 7.41998 25.18 7.85998 25.66C8.29998 26.14 8.37998 26.28 8.61998 26.62C8.85998 26.96 9.09998 27.42 9.41998 27.8C9.63179 28.0476 9.88997 28.2514 10.18 28.4C10.3937 28.4664 10.623 28.4635 10.835 28.3917C11.0469 28.3198 11.2307 28.1827 11.36 28C11.52 27.82 11.88 27.36 11.94 27.26C12.1966 26.8878 12.4304 26.5005 12.64 26.1C12.94 25.54 13.2 24.96 13.48 24.4C13.9466 23.3173 14.523 22.2852 15.2 21.32C15.8692 20.3273 16.6184 19.3908 17.44 18.52C17.5539 18.3978 17.6172 18.237 17.6172 18.07C17.6172 17.903 17.5539 17.7422 17.44 17.62C17.3263 17.5019 17.1717 17.4319 17.008 17.4245C16.8442 17.417 16.6839 17.4727 16.56 17.58Z" fill="black"/>
<path d="M17.82 38C16.564 38.2568 15.2792 38.3442 14 38.26C12 38.26 10.18 37.8 8.13999 37.6C7.31999 37.5 6.13999 37.4 5.05999 37.18C4.61626 37.0921 4.18122 36.9649 3.75999 36.8C3.47999 34.64 3.17999 33.34 3.11999 32.3C3.05999 31.26 3.01999 30.3 2.99999 29.12C2.89999 26.36 2.81999 23.6 2.69999 20.84C2.57999 18.08 2.49999 15.34 2.47999 12.6C2.47999 9.14 2.47999 5.68 2.79999 2.24H2.89999L12.1 2C14.64 2 17.18 2.16 19.72 2.22H23.04C24.86 2.22 27.04 1.88 29.18 1.92C30.362 1.92545 31.536 2.11436 32.66 2.48C32.66 4.48 32.66 6.66 32.54 8.74V11.52L32.66 14.32C32.78 16.48 32.94 18.64 33.02 20.82C33.0145 20.9047 33.0265 20.9897 33.0552 21.0696C33.0839 21.1495 33.1287 21.2226 33.1868 21.2845C33.2449 21.3464 33.3152 21.3957 33.3931 21.4293C33.4711 21.4629 33.5551 21.4802 33.64 21.48C33.8083 21.4803 33.9704 21.4163 34.0931 21.301C34.2158 21.1858 34.2898 21.028 34.3 20.86C34.46 18.66 34.64 16.48 34.7 14.28V11.48C34.7 10.54 34.7 9.6 34.56 8.66C34.38 6.52 34.06 4.42 33.76 2.28C33.8278 2.12603 33.8322 1.95157 33.7723 1.79437C33.7124 1.63716 33.593 1.50986 33.44 1.44C32.1266 0.844355 30.7183 0.485503 29.28 0.38C27.14 0.18 24.88 0.38 23.04 0.24C20.48 0.22 18 0 15.38 0C14.26 0 13.16 0 12 0.12L2.87999 1.12H2.67999C2.58721 1.04982 2.47604 1.00813 2.35999 1C2.28485 0.988794 2.20821 0.992996 2.13474 1.01235C2.06127 1.03171 1.99251 1.06581 1.93263 1.11258C1.87276 1.15936 1.82304 1.21782 1.78648 1.28443C1.74992 1.35103 1.7273 1.42438 1.71999 1.5C1.08382 6.09371 0.736472 10.7228 0.679993 15.36V22.28C0.679993 24.58 0.819993 26.9 0.879993 29.2C0.879993 30.52 0.879993 31.82 1.11999 33.2C1.11999 34.08 1.33999 34.94 1.49999 35.84C1.59383 36.4827 1.7342 37.1177 1.91999 37.74C2.0157 38.0122 2.20781 38.2399 2.45999 38.38C3.19441 38.7229 3.97668 38.9522 4.77999 39.06C5.91999 39.24 7.15999 39.3 8.03999 39.36C10.04 39.48 12.04 39.76 14.04 39.78C15.4207 39.8018 16.7985 39.6472 18.14 39.32C18.2214 39.299 18.2979 39.2622 18.3651 39.2116C18.4323 39.1611 18.4889 39.0978 18.5316 39.0253C18.5744 38.9529 18.6024 38.8727 18.6141 38.7895C18.6258 38.7062 18.621 38.6214 18.6 38.54C18.5884 38.4514 18.5583 38.3662 18.5118 38.2899C18.4652 38.2136 18.4032 38.1479 18.3297 38.0971C18.2562 38.0462 18.1729 38.0113 18.0851 37.9945C17.9973 37.9778 17.907 37.9797 17.82 38Z" fill="black"/>
<path d="M23.64 10.32C23.2692 10.259 22.8953 10.2189 22.52 10.2H21.4C20.5188 10.3048 19.6442 10.4584 18.78 10.66C18.7065 10.66 18.6336 10.6745 18.5657 10.7026C18.4978 10.7308 18.436 10.772 18.384 10.824C18.332 10.876 18.2908 10.9378 18.2626 11.0057C18.2345 11.0737 18.22 11.1465 18.22 11.22C18.22 11.2936 18.2345 11.3664 18.2626 11.4343C18.2908 11.5023 18.332 11.564 18.384 11.616C18.436 11.668 18.4978 11.7092 18.5657 11.7374C18.6336 11.7655 18.7065 11.78 18.78 11.78C19.66 11.92 20.46 12.14 21.32 12.26C21.6797 12.2797 22.0403 12.2797 22.4 12.26C22.7664 12.2802 23.1336 12.2802 23.5 12.26C24.38 12.26 25.22 12.12 26.1 12.06C26.1841 12.0654 26.2684 12.0542 26.3481 12.0269C26.4279 11.9997 26.5014 11.957 26.5646 11.9012C26.6278 11.8455 26.6793 11.7778 26.7163 11.7021C26.7533 11.6264 26.7749 11.5441 26.78 11.46C26.7854 11.3759 26.7742 11.2916 26.7469 11.2119C26.7197 11.1321 26.677 11.0586 26.6212 10.9954C26.5655 10.9322 26.4978 10.8807 26.4221 10.8437C26.3464 10.8068 26.2641 10.7851 26.18 10.78C25.34 10.68 24.5 10.46 23.64 10.32Z" fill="black"/>
<path d="M25.7 24.48C25.8669 24.5029 26.0361 24.459 26.1709 24.3579C26.3057 24.2568 26.3952 24.1066 26.42 23.94C26.4341 23.857 26.4312 23.7719 26.4114 23.6901C26.3916 23.6082 26.3553 23.5313 26.3048 23.4639C26.2543 23.3965 26.1905 23.3401 26.1175 23.2982C26.0445 23.2563 25.9636 23.2297 25.88 23.22C24.9685 22.9483 24.0292 22.7806 23.08 22.72C22.6806 22.6899 22.2794 22.6899 21.88 22.72C21.4755 22.7561 21.0743 22.823 20.68 22.92C19.7572 23.2021 18.8605 23.5634 18 24C17.8541 24.0371 17.729 24.1307 17.6521 24.2601C17.5752 24.3895 17.5529 24.5441 17.59 24.69C17.6271 24.8359 17.7207 24.961 17.8501 25.0379C17.9795 25.1148 18.1341 25.1371 18.28 25.1H21.28C21.86 25.1 22.44 24.98 23.02 24.9C23.9029 24.7001 24.7983 24.5598 25.7 24.48Z" fill="black"/>
</g>
<defs>
<clipPath id="clip0_1210_1908">
<rect width="48" height="48" fill="white"/>
</clipPath>
</defs>
</svg>
