<svg width="48" height="48" viewBox="0 0 48 48" fill="none" xmlns="http://www.w3.org/2000/svg">
<g clip-path="url(#clip0_1209_7239)">
<path d="M18.985 45.721C16.841 45.455 15.435 43.676 15.326 41.518C15.231 39.632 15.13 36.863 15.066 32.934C11.137 32.87 8.368 32.769 6.482 32.674C4.324 32.565 2.545 31.159 2.279 29.014C2.121 27.745 2 26.089 2 24C2 21.911 2.121 20.256 2.279 18.985C2.545 16.841 4.324 15.435 6.482 15.326C8.368 15.231 11.137 15.13 15.066 15.066C15.13 11.137 15.231 8.368 15.326 6.482C15.435 4.324 16.841 2.545 18.986 2.279C20.255 2.121 21.911 2 24 2C26.089 2 27.744 2.121 29.015 2.279C31.159 2.545 32.565 4.324 32.674 6.482C32.769 8.368 32.87 11.137 32.934 15.066C36.863 15.13 39.632 15.231 41.518 15.326C43.676 15.435 45.455 16.841 45.721 18.986C45.879 20.256 46 21.912 46 24C46 26.088 45.879 27.744 45.721 29.015C45.455 31.159 43.676 32.565 41.518 32.674C39.632 32.769 36.863 32.87 32.934 32.934C32.87 36.863 32.769 39.632 32.674 41.518C32.565 43.676 31.159 45.455 29.014 45.721C27.744 45.879 26.088 46 24 46C21.912 46 20.256 45.879 18.985 45.721Z" stroke="black" stroke-width="3" stroke-linecap="round" stroke-linejoin="round"/>
</g>
<defs>
<clipPath id="clip0_1209_7239">
<rect width="48" height="48" fill="white"/>
</clipPath>
</defs>
</svg>
