<svg width="48" height="48" viewBox="0 0 48 48" fill="none" xmlns="http://www.w3.org/2000/svg">
<path d="M29.75 26.3958C29.75 26.3329 29.7376 26.2706 29.7135 26.2125C29.6894 26.1543 29.6542 26.1015 29.6097 26.057C29.5652 26.0125 29.5123 25.9772 29.4542 25.9531C29.3961 25.9291 29.3338 25.9167 29.2708 25.9167H25.9167V22.5625C25.9167 22.4354 25.8662 22.3135 25.7763 22.2237C25.6865 22.1338 25.5646 22.0833 25.4375 22.0833H22.5625C22.4354 22.0833 22.3135 22.1338 22.2237 22.2237C22.1338 22.3135 22.0833 22.4354 22.0833 22.5625V25.9167H18.7215C18.5944 25.9167 18.4725 25.9672 18.3827 26.057C18.2928 26.1469 18.2423 26.2688 18.2423 26.3958V29.2708C18.2423 29.3979 18.2928 29.5198 18.3827 29.6097C18.4725 29.6995 18.5944 29.75 18.7215 29.75H22.0833V33.1042C22.0833 33.2313 22.1338 33.3531 22.2237 33.443C22.3135 33.5329 22.4354 33.5833 22.5625 33.5833H25.4375C25.5646 33.5833 25.6865 33.5329 25.7763 33.443C25.8662 33.3531 25.9167 33.2313 25.9167 33.1042V29.75H29.2708C29.3338 29.75 29.3961 29.7376 29.4542 29.7135C29.5123 29.6895 29.5652 29.6542 29.6097 29.6097C29.6542 29.5652 29.6894 29.5123 29.7135 29.4542C29.7376 29.3961 29.75 29.3338 29.75 29.2708V26.3958Z" stroke="black" stroke-width="2" stroke-linecap="round" stroke-linejoin="round"/>
<path d="M36.765 18.8787L33.6772 12.7013C33.3587 12.0647 32.8692 11.5294 32.2636 11.1553C31.658 10.7812 30.9602 10.5832 30.2483 10.5833H17.7363C17.0245 10.5832 16.3267 10.7812 15.7211 11.1553C15.1155 11.5294 14.626 12.0647 14.3074 12.7013L11.2216 18.8729" stroke="black" stroke-width="2" stroke-linecap="round" stroke-linejoin="round"/>
<path d="M4.91 34.3826C5.0933 35.2424 5.56659 36.0131 6.25053 36.5655C6.93448 37.1179 7.78751 37.4184 8.66667 37.4167H39.3333C40.2054 37.4165 41.0513 37.1191 41.7314 36.5734C42.4116 36.0277 42.8854 35.2664 43.0747 34.4152L46.0225 21.1499C46.0502 21.0231 46.0519 20.8919 46.0274 20.7644C46.0029 20.6368 45.9528 20.5156 45.88 20.4081C45.8072 20.3005 45.7134 20.2089 45.6041 20.1387C45.4948 20.0686 45.3724 20.0213 45.2443 19.9999C31.1844 17.6769 16.8386 17.6769 2.77867 19.9999C2.64897 20.0224 2.52529 20.0713 2.41534 20.1437C2.30538 20.216 2.21152 20.3103 2.13959 20.4205C2.06766 20.5307 2.01921 20.6546 1.99725 20.7844C1.9753 20.9142 1.98032 21.0471 2.012 21.1748C2.34167 22.5836 3.13708 26.0298 4.91 34.3826Z" stroke="black" stroke-width="2" stroke-linecap="round" stroke-linejoin="round"/>
</svg>
