<svg width="48" height="48" viewBox="0 0 48 48" fill="none" xmlns="http://www.w3.org/2000/svg">
<g clip-path="url(#clip0_1209_6704)">
<path d="M12.1953 12.9619C4.83334 17.1728 2.32826 27.1548 1.95834 42.17C1.9382 42.6975 2.03044 43.2233 2.22895 43.7125C2.42747 44.2016 2.72771 44.643 3.10978 45.0073C3.49185 45.3716 3.94701 45.6505 4.44506 45.8256C4.94312 46.0006 5.4727 46.0677 5.99867 46.0225L17.238 44.8725C17.738 44.8138 18.221 44.6548 18.6581 44.405C19.0952 44.1552 19.4773 43.8196 19.7816 43.4185C20.0858 43.0174 20.306 42.559 20.4288 42.0708C20.5516 41.5826 20.5746 41.0746 20.4963 40.5772L19.4786 33.6312C18.6225 27.788 17.9887 21.9185 17.5773 16.0228C17.5479 15.4058 17.363 14.8061 17.0398 14.2796C16.7165 13.7532 16.2654 13.317 15.7284 13.0116C15.1914 12.7062 14.5859 12.5415 13.9682 12.5328C13.3505 12.5241 12.7406 12.6717 12.1953 12.9619Z" stroke="black" stroke-width="2" stroke-linecap="round" stroke-linejoin="round"/>
<path d="M24 1.95834V18.25L7.70831 30.7083" stroke="black" stroke-width="2" stroke-linecap="round" stroke-linejoin="round"/>
<path d="M13.1383 26.5549L9.625 23.0417" stroke="black" stroke-width="2" stroke-linecap="round" stroke-linejoin="round"/>
<path d="M11.5244 27.7892L13.4583 32.625" stroke="black" stroke-width="2" stroke-linecap="round" stroke-linejoin="round"/>
<path d="M11.5417 35.5L13.4584 32.625L15.375 33.5833" stroke="black" stroke-width="2" stroke-linecap="round" stroke-linejoin="round"/>
<path d="M35.8048 12.9619C43.1763 17.1786 45.6718 27.1548 46.0398 42.17C46.0599 42.6975 45.9677 43.2233 45.7691 43.7125C45.5706 44.2017 45.2704 44.643 44.8883 45.0073C44.5062 45.3716 44.0511 45.6506 43.553 45.8256C43.055 46.0006 42.5254 46.0677 41.9994 46.0225L30.7601 44.8725C30.2601 44.8139 29.7771 44.6549 29.34 44.405C28.9029 44.1552 28.5208 43.8196 28.2165 43.4186C27.9122 43.0175 27.6921 42.5591 27.5693 42.0708C27.4465 41.5826 27.4235 41.0746 27.5018 40.5773L28.5195 33.6313C29.3756 27.788 30.0094 21.9185 30.4208 16.0228C30.4501 15.4055 30.6349 14.8056 30.9583 14.2789C31.2816 13.7521 31.7329 13.3158 32.2702 13.0103C32.8075 12.7048 33.4133 12.5402 34.0313 12.5318C34.6492 12.5233 35.2593 12.6713 35.8048 12.9619Z" stroke="black" stroke-width="2" stroke-linecap="round" stroke-linejoin="round"/>
<path d="M24 18.25L40.2917 30.7083" stroke="black" stroke-width="2" stroke-linecap="round" stroke-linejoin="round"/>
<path d="M34.8618 26.5549L38.375 23.0417" stroke="black" stroke-width="2" stroke-linecap="round" stroke-linejoin="round"/>
<path d="M36.4756 27.7892L34.5417 32.625" stroke="black" stroke-width="2" stroke-linecap="round" stroke-linejoin="round"/>
<path d="M36.4583 35.5L34.5417 32.625L32.625 33.5833" stroke="black" stroke-width="2" stroke-linecap="round" stroke-linejoin="round"/>
</g>
<defs>
<clipPath id="clip0_1209_6704">
<rect width="48" height="48" fill="white"/>
</clipPath>
</defs>
</svg>
