<svg width="48" height="48" viewBox="0 0 48 48" fill="none" xmlns="http://www.w3.org/2000/svg">
<g clip-path="url(#clip0_1209_6762)">
<path d="M32.6617 6.82016L17.6009 21.6609C17.412 21.8461 17.2616 22.067 17.1586 22.3108C17.0556 22.5545 17.002 22.8163 17.0009 23.0809V31.0813H25.0013C25.2659 31.0802 25.5277 31.0266 25.7715 30.9236C26.0152 30.8206 26.2361 30.6703 26.4214 30.4813L41.2821 15.5006" stroke="black" stroke-width="2.0001" stroke-linecap="round" stroke-linejoin="round"/>
<path d="M32.0016 1.8796C31.721 2.15679 31.4982 2.48692 31.3462 2.85085C31.1941 3.21478 31.1158 3.60528 31.1158 3.9997C31.1158 4.39412 31.1941 4.78461 31.3462 5.14855C31.4982 5.51248 31.721 5.84261 32.0016 6.1198L42.0021 16.0203C42.5708 16.5502 43.323 16.8387 44.1003 16.825C44.8775 16.8113 45.6191 16.4964 46.1688 15.9468C46.7184 15.3971 47.0333 14.6555 47.047 13.8783C47.0607 13.101 46.7722 12.3488 46.2423 11.7801L36.2218 1.8796C35.9449 1.60202 35.6161 1.38179 35.254 1.23152C34.8919 1.08125 34.5037 1.00391 34.1117 1.00391C33.7197 1.00391 33.3315 1.08125 32.9694 1.23152C32.6073 1.38179 32.2784 1.60202 32.0016 1.8796Z" stroke="black" stroke-width="2.0001" stroke-linecap="round" stroke-linejoin="round"/>
<path d="M17.0009 31.0011L7.38046 40.6215" stroke="black" stroke-width="2.0001" stroke-linecap="round" stroke-linejoin="round"/>
<path d="M4.68025 39.8416C5.05524 39.6565 5.47881 39.5936 5.89139 39.6618C6.30398 39.73 6.68481 39.9257 6.98036 40.2216L7.7804 41.0216C8.07624 41.3172 8.27201 41.698 8.34017 42.1106C8.40834 42.5232 8.34547 42.9467 8.16042 43.3217L6.60034 46.4419C6.52704 46.5836 6.4215 46.7062 6.2922 46.7998C6.16291 46.8933 6.01346 46.9552 5.85589 46.9805C5.69831 47.0058 5.537 46.9938 5.38492 46.9454C5.23284 46.897 5.09424 46.8136 4.98026 46.7019L1.30008 43.0217C1.18838 42.9077 1.10497 42.7691 1.05658 42.617C1.00818 42.465 0.996144 42.3037 1.02143 42.1461C1.04672 41.9885 1.10864 41.8391 1.20219 41.7098C1.29574 41.5805 1.41833 41.4749 1.5601 41.4016L4.68025 39.8416Z" stroke="black" stroke-width="2.0001" stroke-linecap="round" stroke-linejoin="round"/>
<path d="M22.8812 16.4595L31.6016 25.1799" stroke="black" stroke-width="2.0001" stroke-linecap="round" stroke-linejoin="round"/>
</g>
<defs>
<clipPath id="clip0_1209_6762">
<rect width="48.0023" height="48.0023" fill="white"/>
</clipPath>
</defs>
</svg>
