<svg width="48" height="48" viewBox="0 0 48 48" fill="none" xmlns="http://www.w3.org/2000/svg">
<g clip-path="url(#clip0_1209_6715)">
<path d="M3.01422 0.999786L29.6475 6.54406C34.0243 7.58604 37.9219 10.0732 40.7106 13.6038C43.4993 17.1343 45.0162 21.5019 45.0163 26.001V47.002" stroke="black" stroke-width="2.0001" stroke-linecap="round" stroke-linejoin="round"/>
<path d="M3.01422 25.0009L21.5551 27.529C22.5137 27.6596 23.3925 28.1332 24.0287 28.8621C24.665 29.5909 25.0154 30.5257 25.0153 31.4932V47.0019" stroke="black" stroke-width="2.0001" stroke-linecap="round" stroke-linejoin="round"/>
<path d="M39.0159 29.0018C37.7849 29.6588 36.411 30.0024 35.0157 30.0024C33.6204 30.0024 32.2465 29.6588 31.0155 29.0018C32.6725 33.3392 33.3553 37.9879 33.0156 42.6185V47.0027H37.0158V42.6185C36.6761 37.9879 37.3589 33.3392 39.0159 29.0018Z" stroke="black" stroke-width="2.0001" stroke-linecap="round" stroke-linejoin="round"/>
<path d="M35.0157 16.0008C34.2181 16.0003 33.4323 16.1931 32.7256 16.5628C32.3068 16.7811 31.8243 16.8441 31.3635 16.7408L3.00012 10.3445V16.4948L29.3634 22.4371C29.6392 22.4991 29.8988 22.6188 30.1249 22.7885C30.3511 22.9581 30.5387 23.1737 30.6755 23.4211C31.1029 24.1939 31.7274 24.8397 32.4854 25.2928C33.2434 25.7459 34.1079 25.9902 34.991 26.0008C35.874 26.0114 36.7441 25.7879 37.5128 25.3531C38.2814 24.9183 38.9212 24.2877 39.3671 23.5254C39.813 22.7632 40.049 21.8964 40.0512 21.0133C40.0534 20.1302 39.8216 19.2622 39.3795 18.4977C38.9374 17.7333 38.3008 17.0995 37.5343 16.6609C36.7677 16.2223 35.8988 15.9946 35.0157 16.0008Z" stroke="black" stroke-width="2.0001" stroke-linecap="round" stroke-linejoin="round"/>
</g>
<defs>
<clipPath id="clip0_1209_6715">
<rect width="48.0023" height="48.0023" fill="white"/>
</clipPath>
</defs>
</svg>
