<svg width="48" height="48" viewBox="0 0 48 48" fill="none" xmlns="http://www.w3.org/2000/svg">
<g clip-path="url(#clip0_1209_6694)">
<path d="M36.4583 33.3668V44.1384C36.4548 44.6444 36.2513 45.1285 35.8922 45.4851C35.5332 45.8416 35.0477 46.0417 34.5417 46.0417H3.87501C3.36899 46.0417 2.88351 45.8416 2.52444 45.4851C2.16538 45.1285 1.96189 44.6444 1.95834 44.1384V3.86159C1.96189 3.35559 2.16538 2.87152 2.52444 2.51497C2.88351 2.15842 3.36899 1.95833 3.87501 1.95834H34.5417C35.0477 1.95833 35.5332 2.15842 35.8922 2.51497C36.2513 2.87152 36.4548 3.35559 36.4583 3.86159V20.0421" stroke="black" stroke-width="2" stroke-linecap="round" stroke-linejoin="round"/>
<path d="M23.0417 23.0417H18.25C17.4875 23.0417 16.7562 22.7388 16.2171 22.1996C15.6779 21.6604 15.375 20.9292 15.375 20.1667V10.5833C15.375 9.82085 15.6779 9.08958 16.2171 8.55041C16.7562 8.01124 17.4875 7.70834 18.25 7.70834H23.0417" stroke="black" stroke-width="2" stroke-linecap="round" stroke-linejoin="round"/>
<path d="M15.375 15.375H20.1667" stroke="black" stroke-width="2" stroke-linecap="round" stroke-linejoin="round"/>
<path d="M27.8333 18.25L46.0417 36.4583" stroke="black" stroke-width="2" stroke-linecap="round" stroke-linejoin="round"/>
<path d="M7.70834 28.7917H30.7083" stroke="black" stroke-width="2" stroke-linecap="round" stroke-linejoin="round"/>
<path d="M9.625 40.2917V34.5417" stroke="black" stroke-width="2" stroke-linecap="round" stroke-linejoin="round"/>
<path d="M7.70834 34.5417H11.5417" stroke="black" stroke-width="2" stroke-linecap="round" stroke-linejoin="round"/>
<path d="M21.125 38.375C21.125 38.8833 20.9231 39.3708 20.5636 39.7303C20.2042 40.0897 19.7167 40.2917 19.2083 40.2917C18.7 40.2917 18.2125 40.0897 17.853 39.7303C17.4936 39.3708 17.2917 38.8833 17.2917 38.375V36.4583C17.2917 35.95 17.4936 35.4625 17.853 35.103C18.2125 34.7436 18.7 34.5417 19.2083 34.5417C19.7167 34.5417 20.2042 34.7436 20.5636 35.103C20.9231 35.4625 21.125 35.95 21.125 36.4583V38.375Z" stroke="black" stroke-width="2" stroke-linecap="round" stroke-linejoin="round"/>
<path d="M26.875 34.5417H29.75C29.9511 34.5417 30.1472 34.6049 30.3103 34.7225C30.4735 34.8402 30.5955 35.0061 30.6592 35.1969C30.7228 35.3878 30.7247 35.5937 30.6647 35.7857C30.6048 35.9777 30.4859 36.146 30.325 36.2667L27.2583 38.5667C27.0974 38.6873 26.9786 38.8556 26.9186 39.0476C26.8586 39.2396 26.8606 39.4456 26.9242 39.6364C26.9878 39.8272 27.1098 39.9932 27.273 40.1108C27.4362 40.2284 27.6322 40.2917 27.8333 40.2917H30.7083" stroke="black" stroke-width="2" stroke-linecap="round" stroke-linejoin="round"/>
</g>
<defs>
<clipPath id="clip0_1209_6694">
<rect width="48" height="48" fill="white"/>
</clipPath>
</defs>
</svg>
