<svg width="48" height="48" viewBox="0 0 48 48" fill="none" xmlns="http://www.w3.org/2000/svg">
<g clip-path="url(#clip0_1210_1923)">
<path fill-rule="evenodd" clip-rule="evenodd" d="M44 3.18001C43.8885 2.49909 43.5909 1.86227 43.14 1.34001C42.6829 0.870456 42.0992 0.543874 41.46 0.400012C40.3261 0.132773 39.1649 -0.00146501 38 1.20572e-05H32.68C30 0.240012 27.34 0.480012 24.74 0.680012C23.3924 0.716726 22.0521 0.890963 20.74 1.20001C20.0238 1.38952 19.3692 1.76165 18.84 2.28001C18.2466 2.96249 17.8461 3.79102 17.68 4.68001C17.5079 5.77833 17.421 6.8883 17.42 8.00001C17.42 10 17.26 12 17.2 14V18C17.1704 19.0531 17.2576 20.1062 17.46 21.14C17.6511 21.8979 18.0452 22.5893 18.6 23.14C18.9548 23.4557 19.3799 23.682 19.84 23.8C20.4286 23.9455 21.0338 24.0127 21.64 24L25.12 23.8L24.54 28.34L24.36 30.08C24.36 30.28 24.24 30.66 24.26 30.84C24.2802 30.9984 24.3341 31.1507 24.418 31.2866C24.502 31.4224 24.614 31.5388 24.7466 31.6278C24.8792 31.7168 25.0293 31.7765 25.1868 31.8027C25.3443 31.829 25.5057 31.8212 25.66 31.78C26.173 31.6515 26.6648 31.4494 27.12 31.18C27.72 30.84 28.28 30.42 28.84 30.06C30.1 29.16 31.36 28.24 32.56 27.24C33.3744 26.5655 34.1428 25.8372 34.86 25.06C34.9767 24.9433 35.0422 24.785 35.0422 24.62C35.0422 24.455 34.9767 24.2967 34.86 24.18C34.7433 24.0633 34.585 23.9978 34.42 23.9978C34.2549 23.9978 34.0967 24.0633 33.98 24.18C33.2241 24.8194 32.4365 25.4202 31.62 25.98C30.36 26.82 29.04 27.58 27.74 28.32L26.4 29.16V28.44V23.7C26.4 23.7 26.84 22.56 21.74 22.76C21.3231 22.753 20.9079 22.7061 20.5 22.62C20.1647 22.5604 19.8529 22.408 19.6 22.18C19.2386 21.7814 18.9961 21.2894 18.9 20.76C18.7159 19.852 18.6354 18.9261 18.66 18C18.66 16.68 18.76 15.38 18.82 14C18.94 12 19.1 10 19.26 8.10001C19.2587 7.06781 19.3457 6.0374 19.52 5.02001C19.6277 4.49047 19.8764 3.99986 20.24 3.60001C20.6622 3.25338 21.1767 3.03787 21.72 2.98001C22.7729 2.8193 23.8351 2.72578 24.9 2.70001C27.48 2.52001 30.12 2.30001 32.74 2.16001C34.46 2.12001 36.2 2.00001 38 2.00001C38.8837 2.0012 39.7661 2.06805 40.64 2.20001C41.0505 2.22109 41.4463 2.35996 41.78 2.60001C41.9919 2.85083 42.1304 3.1554 42.18 3.48001C42.2899 4.17454 42.3434 4.87684 42.34 5.58001L42.46 14.76L42.26 19.72C42.2553 20.2647 42.195 20.8075 42.08 21.34C42.0403 21.5926 41.9293 21.8285 41.76 22.02C41.525 22.2049 41.2517 22.3347 40.96 22.4C40.6125 22.5039 40.2583 22.5841 39.9 22.64C39.26 22.64 38.62 22.78 37.9 22.8H34.96C34.8785 22.7973 34.7974 22.8107 34.7211 22.8395C34.6449 22.8682 34.575 22.9116 34.5156 22.9674C34.4562 23.0231 34.4083 23.09 34.3747 23.1642C34.3412 23.2385 34.3225 23.3186 34.32 23.4C34.3145 23.4815 34.3252 23.5632 34.3515 23.6405C34.3777 23.7178 34.419 23.7892 34.4729 23.8505C34.5268 23.9118 34.5922 23.9619 34.6655 23.9978C34.7388 24.0338 34.8185 24.0549 34.9 24.06H37.96C38.64 24.06 39.32 24.06 39.96 23.92C40.4878 23.8557 41.0095 23.7486 41.52 23.6C41.9141 23.4689 42.2804 23.2654 42.6 23C42.9942 22.6349 43.2724 22.162 43.4 21.64C43.5436 21.0231 43.6241 20.3932 43.64 19.76L44 14.84L44.14 5.62001C44.1604 4.80421 44.1135 3.98812 44 3.18001Z" fill="black"/>
<path fill-rule="evenodd" clip-rule="evenodd" d="M34.7201 16H35.7601C35.9656 16.0304 36.1745 16.0304 36.3801 16C37.0801 15.78 36.9001 15.06 36.9601 14.12C37.0201 13.18 37.1601 12.52 37.1201 11.74C37.1038 11.3065 37.009 10.8796 36.8401 10.48C36.7152 10.1676 36.4805 9.91151 36.1801 9.75999C35.7466 9.56989 35.2697 9.50077 34.8001 9.55999H33.8201C33.8756 8.89101 33.8352 8.21753 33.7001 7.55999C33.6056 7.14322 33.4059 6.75762 33.1201 6.43999C32.8368 6.08656 32.4419 5.83976 32.0001 5.73999C31.4092 5.72613 30.8187 5.77981 30.2401 5.89999L29.2001 6.11999L28.5201 6.29999L27.9201 6.49999C27.7488 6.5807 27.5877 6.68141 27.4401 6.79999C27.1633 7.0531 26.998 7.4054 26.9801 7.77999C26.9699 8.23636 27.0101 8.69246 27.1001 9.13999L27.2001 10.28H25.0201C24.7555 10.3083 24.4943 10.3618 24.2401 10.44C24.0338 10.514 23.8533 10.646 23.7201 10.82C23.545 11.0508 23.4221 11.317 23.3601 11.6C23.2813 12.0633 23.2813 12.5366 23.3601 13V14.24C23.3525 14.7436 23.3994 15.2465 23.5001 15.74C23.5708 16.0098 23.7084 16.2574 23.9001 16.46C24.2858 16.7748 24.7627 16.9571 25.2601 16.98C25.9283 17.0321 26.6004 16.9985 27.2601 16.88C27.2601 17.4 27.1001 18.22 27.1201 18.42C27.0708 18.7381 27.0708 19.0619 27.1201 19.38C27.1846 19.5981 27.3013 19.7971 27.4601 19.96C27.7248 20.2013 28.0494 20.367 28.4001 20.44C28.8726 20.4796 29.3475 20.4796 29.8201 20.44C30.2801 20.44 30.7401 20.44 31.1801 20.34C31.4968 20.2993 31.8107 20.2392 32.1201 20.16C32.3669 20.1115 32.6082 20.0377 32.8401 19.94C33.0637 19.857 33.2536 19.7023 33.3801 19.5C33.5549 19.2361 33.6645 18.9345 33.7001 18.62C33.7392 18.2611 33.7392 17.8989 33.7001 17.54V16H34.0001H34.7201ZM32.5801 15.86L32.4601 17.54V18.26C32.3201 18.84 32.3201 18.54 31.9401 18.6C31.6341 18.6288 31.326 18.6288 31.0201 18.6H30.0001H29.2001C29.2066 18.5536 29.2066 18.5064 29.2001 18.46C29.2953 17.6428 29.2953 16.8172 29.2001 16C29.1042 15.5517 28.8392 15.1577 28.4601 14.9C28.3223 14.7932 28.1665 14.7119 28.0001 14.66C27.7103 14.6733 27.4224 14.7134 27.1401 14.78C26.6098 14.927 26.0678 15.0274 25.5201 15.08C25.8001 14.88 25.3601 14.18 25.3001 13.92L25.0801 12.82V11.8C25.0801 11.8 25.3201 11.66 25.4001 11.64L27.9801 11.38C28.1198 11.3748 28.252 11.3156 28.349 11.2149C28.446 11.1142 28.5001 10.9798 28.5001 10.84C28.5001 10.84 28.5001 9.57999 28.5001 9.15999C28.5001 8.73999 28.8201 8.23999 28.6201 7.97999H29.0001H29.6601H30.5601C31.4601 7.97999 31.8401 7.37999 31.9201 8.53999C32.0232 9.24289 32.0232 9.95709 31.9201 10.66C31.933 10.8291 31.9849 10.9929 32.0716 11.1386C32.1584 11.2843 32.2776 11.408 32.4201 11.5C32.7572 11.6929 33.1328 11.809 33.5201 11.84C34.0992 11.8837 34.6809 11.8837 35.2601 11.84H35.5001C35.5686 12.0332 35.609 12.2353 35.6201 12.44V14.44V14.96H34.9001H34.1401C33.1401 14.74 32.6001 15.1 32.5801 15.82V15.86Z" fill="black"/>
<path fill-rule="evenodd" clip-rule="evenodd" d="M30.94 35.08C30.9349 34.9985 30.9138 34.9188 30.8778 34.8456C30.8419 34.7723 30.7918 34.7068 30.7305 34.6529C30.6692 34.599 30.5978 34.5578 30.5205 34.5315C30.4432 34.5053 30.3615 34.4946 30.28 34.5C30.1985 34.4996 30.1179 34.5163 30.0433 34.5491C29.9687 34.5819 29.9018 34.6301 29.8471 34.6905C29.7924 34.7509 29.751 34.8221 29.7257 34.8996C29.7003 34.977 29.6916 35.0589 29.7 35.14V38.54H29.48L27.48 38.34L22.96 38.16H19.84C18.26 38.16 16.7 38.16 15.12 38.3C12.5564 38.4776 10.0054 38.8049 7.48001 39.28L6.98001 33.64C6.58001 30.2 6.04001 26.82 5.70001 23.4C5.54001 21.96 5.40001 20.5 5.34001 19.04C5.29994 18.2538 5.29994 17.4662 5.34001 16.68C6.16001 16.68 6.98001 16.86 7.84001 16.9C8.21308 16.9198 8.58694 16.9198 8.96001 16.9L10.06 16.8C10.94 16.8 11.78 16.54 12.64 16.44C12.7214 16.4427 12.8026 16.4293 12.8788 16.4005C12.9551 16.3718 13.0249 16.3284 13.0844 16.2726C13.1438 16.2169 13.1917 16.15 13.2252 16.0758C13.2588 16.0016 13.2774 15.9214 13.28 15.84C13.2827 15.7586 13.2693 15.6774 13.2406 15.6012C13.2118 15.5249 13.1684 15.4551 13.1127 15.3956C13.0569 15.3362 12.99 15.2883 12.9158 15.2548C12.8416 15.2212 12.7614 15.2026 12.68 15.2C11.7936 15.0286 10.8991 14.9018 10 14.82C9.62027 14.8 9.23975 14.8 8.86001 14.82C8.4774 14.8292 8.09616 14.8693 7.72001 14.94C6.94929 15.0884 6.18797 15.2821 5.44001 15.52C5.50336 14.9969 5.61722 14.4811 5.78001 13.98C6.09395 12.8973 6.72847 11.935 7.60001 11.22C8.08622 10.832 8.6536 10.5586 9.26001 10.42C10.28 10.14 11.4 9.99999 12.34 9.77999C12.4829 9.74236 12.6052 9.64976 12.6801 9.52239C12.755 9.39501 12.7766 9.24318 12.74 9.09999C12.7195 9.02403 12.6837 8.95303 12.6349 8.89133C12.586 8.82963 12.5251 8.77852 12.4559 8.7411C12.3867 8.70368 12.3106 8.68074 12.2322 8.67367C12.1538 8.6666 12.0748 8.67556 12 8.69999C10.88 8.97999 9.52001 9.03999 8.34001 9.41999C7.76913 9.58848 7.23372 9.85957 6.76001 10.22C5.70341 11.0407 4.91069 12.1533 4.48001 13.42C3.92602 15.2324 3.68921 17.1269 3.78001 19.02C3.78001 21.02 3.92001 23.02 4.08001 25.02C4.34001 27.96 4.72001 30.88 4.98001 33.84L5.54001 40C5.62691 41.3613 5.88908 42.7057 6.32001 44C6.68659 44.9735 7.29999 45.8351 8.10001 46.5C8.87427 47.1008 9.76731 47.5303 10.72 47.76C12.0337 48.0403 13.3811 48.1279 14.72 48.02C16.88 47.92 18.6 47.86 20.34 47.72C21.54 47.72 22.76 47.52 24.12 47.32C25.5707 47.2285 27.0065 46.9735 28.4 46.56C29.0961 46.2987 29.7056 45.8485 30.16 45.26C30.4679 44.818 30.6917 44.3231 30.82 43.8C30.9644 43.1084 31.0514 42.406 31.08 41.7V39.04C31.1 37.68 31.02 36.38 30.94 35.08ZM29.42 43.36C29.3355 43.6988 29.1861 44.0181 28.98 44.3C28.5552 44.7541 27.9931 45.0562 27.38 45.16C26.2507 45.3766 25.1081 45.5169 23.96 45.58C22.62 45.72 21.44 45.8 20.28 45.86C18.54 45.86 16.82 45.86 14.68 46C13.5248 46.0683 12.3659 45.9673 11.24 45.7C10.5701 45.5437 9.94222 45.2434 9.40001 44.82C8.90205 44.3738 8.52385 43.81 8.30001 43.18C7.97242 42.2648 7.77057 41.3094 7.70001 40.34C10.2 40.18 12.66 40.24 15.16 40.24H18.44C19.98 40.24 21.56 40.12 23.12 40.06L27.52 39.78H29C29.2524 39.8106 29.5076 39.8106 29.76 39.78V41.56C29.7031 42.1693 29.5893 42.7719 29.42 43.36Z" fill="black"/>
</g>
<defs>
<clipPath id="clip0_1210_1923">
<rect width="48" height="48" fill="white"/>
</clipPath>
</defs>
</svg>
