<svg width="48" height="48" viewBox="0 0 48 48" fill="none" xmlns="http://www.w3.org/2000/svg">
<g clip-path="url(#clip0_1210_1873)">
<path fill-rule="evenodd" clip-rule="evenodd" d="M22.34 22H22.44C22.44 22 22.76 21.8 22.62 21.76C22.48 21.72 22.38 21.7 22.34 22ZM25.74 22C25.74 21.82 25.74 21.72 25.58 21.76C25.42 21.8 25.6 21.88 25.74 22ZM27.74 23.54C27.54 23.26 27.3 23 27.3 23.32C27.3 23.64 27.38 23.54 27.66 23.52L27.74 23.54ZM29.62 25.1C29.62 25.1 29.86 25.42 29.9 25.28C29.94 25.14 29.82 25.18 29.6 25.18L29.62 25.1ZM22.36 29.08C22.2974 29.2067 22.1907 29.3063 22.06 29.36C22.1573 29.3174 22.2406 29.248 22.3 29.16L22.36 29.08ZM21.28 29.08C21.3214 29.2088 21.4115 29.3163 21.531 29.3798C21.6505 29.4433 21.79 29.4577 21.92 29.42C21.7889 29.4603 21.6479 29.4546 21.5205 29.4036C21.3931 29.3527 21.287 29.2596 21.22 29.14L21.28 29.08ZM27.28 29.4H27.12C27.12 29.4 27.14 29.54 27.22 29.46L27.28 29.4ZM25.8 22.1C25.6108 22.0456 25.4164 22.0121 25.22 22C24.2806 21.9507 23.3393 21.9507 22.4 22C22.4 22.58 22.56 23.58 22.54 24C22.53 24.3511 22.4033 24.6889 22.18 24.96C21.8796 25.162 21.5214 25.2603 21.16 25.24H18.52L18 25.32C17.919 26.0511 17.919 26.7889 18 27.52C18.2529 27.5968 18.5156 27.6373 18.78 27.64H20.98C21.1568 27.6452 21.3247 27.7191 21.4479 27.8461C21.5711 27.973 21.64 28.143 21.64 28.32C21.7831 28.3245 21.9232 28.3632 22.0484 28.4328C22.1736 28.5023 22.2804 28.6008 22.36 28.72C22.3891 28.7973 22.3891 28.8826 22.36 28.96C22.3708 29.0262 22.3708 29.0937 22.36 29.16V31.7V32C23.3754 32.0296 24.3916 31.9829 25.4 31.86C25.14 31.26 25.64 29.62 25.62 29.02C25.6329 28.6478 25.7662 28.2899 26 28C26.264 27.7501 26.5998 27.5892 26.96 27.54C27.8393 27.2649 28.7437 27.0773 29.66 26.98C29.6926 26.3737 29.6926 25.7662 29.66 25.16C29 25.16 27.66 25.58 27.32 25.56C27.0306 25.5696 26.7449 25.493 26.4992 25.3399C26.2534 25.1867 26.0588 24.964 25.94 24.7C25.832 24.1874 25.7917 23.663 25.82 23.14C25.64 22.88 25.72 22.48 25.74 22.16L25.8 22.1ZM20.62 23.32C19.88 23.32 18.84 23.32 18.1 23.46C17.6458 23.48 17.2047 23.6178 16.82 23.86C16.6685 23.9681 16.5562 24.1225 16.5 24.3C16.3772 24.8105 16.3234 25.3352 16.34 25.86C16.3546 26.5318 16.4282 27.201 16.56 27.86C16.6013 28.0784 16.7055 28.28 16.86 28.44C17.2872 28.7604 17.8059 28.9357 18.34 28.94H21H21.22V29.26V32.2C21.2168 32.4257 21.2575 32.6498 21.34 32.86C21.7206 33.227 22.2312 33.4284 22.76 33.42C23.9989 33.4915 25.241 33.4915 26.48 33.42C26.7222 33.3912 26.9492 33.2869 27.1288 33.1217C27.3083 32.9565 27.4312 32.739 27.48 32.5C27.669 31.498 27.7562 30.4795 27.74 29.46H30.62C30.9089 29.434 31.1824 29.3175 31.4014 29.1272C31.6204 28.9369 31.7739 28.6825 31.84 28.4C31.9079 27.341 31.9079 26.2789 31.84 25.22C31.8327 24.7324 31.6946 24.2558 31.44 23.84C31.0674 23.4705 30.5646 23.2622 30.04 23.26C29.3662 23.3366 28.6982 23.4569 28.04 23.62C28.0807 22.9539 28.0807 22.286 28.04 21.62C28.0132 21.3555 27.934 21.099 27.8069 20.8654C27.6798 20.6319 27.5075 20.4261 27.3 20.26C26.3383 19.9875 25.3376 19.8793 24.34 19.94C23.5778 19.9549 22.8168 20.0083 22.06 20.1C21.7817 20.1335 21.5184 20.2444 21.3 20.42C21.0124 20.7425 20.8369 21.1494 20.8 21.58C20.6828 22.1744 20.6027 22.7756 20.56 23.38L20.62 23.32Z" fill="black"/>
<path fill-rule="evenodd" clip-rule="evenodd" d="M41.08 37.38C40.62 37.02 39.08 37.16 38.86 37.1C37.1828 36.602 35.4615 36.2671 33.72 36.1C32.0113 35.9443 30.2956 35.8775 28.58 35.9C26.2 35.9 23.78 35.8 21.38 35.9C20.32 35.9 19.26 35.9 18.22 36.08C17.18 36.26 16.44 36.28 15.56 36.42C13.56 36.72 11.56 37.1 9.43999 37.4C8.79153 37.5027 8.15501 37.6702 7.53999 37.9C6.69999 38.2 5.89999 38.6 5.01999 38.96C4.85999 38.96 4.47999 38.96 4.31999 39.18C4.18503 38.9395 4.07768 38.6845 3.99999 38.42C3.80242 37.7629 3.64216 37.0951 3.51999 36.42C3.21999 35.08 2.81999 33.84 2.51999 32.54C2.38265 31.9997 2.27581 31.4522 2.19999 30.9C2.07999 30.1 1.53999 28.62 1.27999 27.4C1.16834 26.9831 1.12777 26.5503 1.15999 26.12C1.1777 26.0451 1.18033 25.9674 1.16774 25.8915C1.15514 25.8156 1.12756 25.7429 1.08661 25.6778C1.04566 25.6127 0.992155 25.5563 0.929212 25.512C0.866269 25.4678 0.795146 25.4365 0.719988 25.42C0.633461 25.4023 0.5441 25.4039 0.458284 25.4248C0.372468 25.4456 0.292312 25.4852 0.223538 25.5406C0.154765 25.596 0.0990685 25.6659 0.0604255 25.7453C0.0217826 25.8247 0.00114562 25.9117 -1.23084e-05 26C-0.115393 26.5877 -0.115393 27.1922 -1.23158e-05 27.78C0.219988 28.98 0.719988 30.42 0.819988 31.2C0.885778 31.792 0.985948 32.3796 1.11999 32.96C1.39999 34.26 1.75999 35.52 2.01999 36.86C2.16532 37.684 2.35899 38.4987 2.59999 39.3C2.73391 39.7051 2.9369 40.084 3.19999 40.42C3.32425 40.5769 3.48764 40.6983 3.67371 40.772C3.85978 40.8457 4.06198 40.8692 4.25999 40.84C4.67882 40.7611 5.08337 40.6195 5.45999 40.42C6.31999 40.08 7.11999 39.72 7.93999 39.44C8.45239 39.26 8.98179 39.1327 9.51999 39.06C11.52 38.82 13.52 38.48 15.66 38.22L18.24 37.96H21.26C23.66 37.96 26.08 38.14 28.44 38.16C30.04 38.16 31.7 38.26 33.34 38.44C34.9396 38.6132 36.5198 38.9346 38.06 39.4C39.028 39.7097 40.0275 39.911 41.04 40C41.3525 40.0161 41.6636 39.9486 41.9413 39.8044C42.219 39.6603 42.4533 39.4447 42.62 39.18C43.3705 37.8283 44.0383 36.4324 44.62 35C45.46 32.9 46.2 30.7 46.9 28.56C47.3619 27.4734 47.7299 26.3493 48 25.2C48.1218 24.6061 48.1218 23.9938 48 23.4C47.7965 22.624 47.3645 21.9272 46.76 21.4C45.9542 20.7936 45.056 20.3209 44.1 20C42.32 19.22 40.66 18.22 38.9 17.4C38.1162 17.0137 37.3078 16.6796 36.48 16.4C32.4965 15.1384 28.2934 14.7228 24.14 15.18C20.0481 15.5722 16.0187 16.4586 12.14 17.82C9.75016 18.5694 7.42298 19.5056 5.17999 20.62C3.65529 21.414 2.29734 22.4936 1.17999 23.8C1.0715 23.939 1.02128 24.1148 1.03994 24.2902C1.05859 24.4656 1.14467 24.6268 1.27999 24.74C1.34139 24.8022 1.41456 24.8517 1.49525 24.8855C1.57593 24.9192 1.66252 24.9366 1.74999 24.9366C1.83745 24.9366 1.92404 24.9192 2.00473 24.8855C2.08541 24.8517 2.15858 24.8022 2.21999 24.74C3.24969 23.5779 4.50074 22.6328 5.89999 21.96C8.09193 20.9146 10.3663 20.0517 12.7 19.38C16.4671 18.1431 20.3677 17.3576 24.32 17.04C28.2126 16.697 32.1342 17.16 35.84 18.4C36.5738 18.6276 37.2949 18.8947 38 19.2C39.74 20.08 41.42 21.2 43.18 21.92C43.79 22.1719 44.3786 22.4728 44.94 22.82C45.3385 23.0968 45.6229 23.509 45.74 23.98C45.8017 24.4021 45.7675 24.8328 45.64 25.24C45.4382 26.075 45.1844 26.8966 44.88 27.7C44.2 29.8 43.48 32 42.64 34C42.16 35.16 41.64 36.3 41.08 37.38Z" fill="black"/>
<path fill-rule="evenodd" clip-rule="evenodd" d="M9.13998 16.24C9.55998 15.42 9.97998 14.24 10.54 13.12C10.8049 12.5535 11.2029 12.0595 11.7 11.68C12.4123 11.2771 13.1914 11.0061 14 10.88C15.3 10.64 16.64 10.64 18 10.52L25.28 9.55998C26.4403 9.41059 27.6121 9.37041 28.78 9.43998C29.9723 9.50618 31.1605 9.63301 32.34 9.81998C33.14 9.99998 34 9.99998 34.7 9.99998C35.1308 10.0683 35.5409 10.2324 35.9 10.48C36.3018 10.8053 36.6177 11.2242 36.82 11.7C37.216 12.532 37.5437 13.3949 37.8 14.28C37.825 14.3648 37.8668 14.4438 37.923 14.5121C37.9791 14.5805 38.0484 14.6369 38.1268 14.6779C38.2051 14.719 38.2909 14.7438 38.3791 14.7511C38.4673 14.7583 38.556 14.7477 38.64 14.72C38.7882 14.6737 38.9145 14.5752 38.9954 14.4428C39.0764 14.3103 39.1064 14.1529 39.08 14C38.8233 12.8559 38.4617 11.7378 38 10.66C37.7434 10.122 37.3752 9.64473 36.92 9.25998C36.5162 8.94759 36.0634 8.70429 35.58 8.53998C34.5924 8.2966 33.5904 8.11623 32.58 7.99998C31.0738 7.63999 29.5429 7.39264 28 7.25998C26.9615 7.18002 25.9184 7.18002 24.88 7.25998L17.62 8.39998C16.2746 8.55841 14.9392 8.79211 13.62 9.09998C12.6435 9.33875 11.7207 9.75942 10.9 10.34C10.3405 10.757 9.89366 11.3069 9.59998 11.94C8.95998 13.16 8.57998 14.74 8.15998 15.76C8.09737 15.9011 8.09154 16.0608 8.14368 16.2061C8.19583 16.3514 8.30195 16.4709 8.43998 16.54C8.57322 16.5829 8.71747 16.5761 8.84612 16.521C8.97477 16.4658 9.07914 16.366 9.13998 16.24Z" fill="black"/>
</g>
<defs>
<clipPath id="clip0_1210_1873">
<rect width="48" height="48" fill="white"/>
</clipPath>
</defs>
</svg>
