<svg width="48" height="48" viewBox="0 0 48 48" fill="none" xmlns="http://www.w3.org/2000/svg">
<path d="M39.3903 25.9644H32.1223V32.1372H25.9496V39.4052H32.1223V45.5776H39.3903V39.4052H45.5629V32.1372H39.3903V25.9644Z" stroke="black" stroke-width="2" stroke-linecap="round" stroke-linejoin="round"/>
<path d="M8.59015 14.3044H28.7152" stroke="black" stroke-width="2" stroke-linecap="round" stroke-linejoin="round"/>
<path d="M8.59015 22.9294H22.9652" stroke="black" stroke-width="2" stroke-linecap="round" stroke-linejoin="round"/>
<path d="M8.59015 31.5544H15.7776" stroke="black" stroke-width="2" stroke-linecap="round" stroke-linejoin="round"/>
<path d="M20.9669 40.1793H5.71514C4.95265 40.1793 4.22139 39.8765 3.68221 39.3373C3.14305 38.7982 2.84015 38.0668 2.84015 37.3043V5.67936C2.84015 4.91685 3.14305 4.18559 3.68221 3.64643C4.22139 3.10725 4.95265 2.80435 5.71514 2.80435H26.0874C26.8493 2.80451 27.5801 3.10715 28.1191 3.64578L33.6238 9.15044C34.1623 9.68939 34.465 10.4201 34.4652 11.1821V21.0389" stroke="black" stroke-width="2" stroke-linecap="round" stroke-linejoin="round"/>
</svg>
