<svg width="48" height="48" viewBox="0 0 48 48" fill="none" xmlns="http://www.w3.org/2000/svg">
<g clip-path="url(#clip0_1209_6654)">
<path d="M18.25 44.125C19.9277 41.9002 20.9261 39.2377 21.125 36.4583" stroke="black" stroke-width="2" stroke-linecap="round" stroke-linejoin="round"/>
<path d="M29.75 44.125C28.0723 41.9002 27.0739 39.2377 26.875 36.4583" stroke="black" stroke-width="2" stroke-linecap="round" stroke-linejoin="round"/>
<path d="M15.375 44.125H32.625" stroke="black" stroke-width="2" stroke-linecap="round" stroke-linejoin="round"/>
<path d="M1.95834 30.7083H46.0417" stroke="black" stroke-width="2" stroke-linecap="round" stroke-linejoin="round"/>
<path d="M3.875 3.875H44.125C44.125 3.875 46.0417 3.875 46.0417 5.79167V34.5417C46.0417 34.5417 46.0417 36.4583 44.125 36.4583H3.875C3.875 36.4583 1.95834 36.4583 1.95834 34.5417V5.79167C1.95834 5.79167 1.95834 3.875 3.875 3.875Z" stroke="black" stroke-width="2" stroke-linecap="round" stroke-linejoin="round"/>
<path d="M1.95834 19.2083H13.7669C13.9586 19.2087 14.146 19.1515 14.3049 19.0442C14.4638 18.9369 14.5869 18.7844 14.6582 18.6065L15.3137 16.9639C15.3876 16.7794 15.517 16.6225 15.684 16.5148C15.851 16.4071 16.0474 16.354 16.2459 16.3628C16.4445 16.3717 16.6354 16.442 16.7921 16.5641C16.9489 16.6862 17.0639 16.8541 17.1211 17.0444L18.2807 20.9103C18.3393 21.1086 18.4604 21.2826 18.6261 21.4064C18.7917 21.5302 18.9929 21.5971 19.1997 21.5971C19.4065 21.5971 19.6077 21.5302 19.7733 21.4064C19.939 21.2826 20.0602 21.1086 20.1188 20.9103L22.9037 11.4439C22.9641 11.2383 23.0917 11.0589 23.266 10.9344C23.4404 10.8098 23.6515 10.7473 23.8655 10.7568C24.0796 10.7663 24.2843 10.8472 24.447 10.9867C24.6096 11.1262 24.7208 11.3162 24.7628 11.5263L27.0916 23.1682C27.1335 23.3771 27.2439 23.5661 27.4053 23.7053C27.5667 23.8445 27.7699 23.9259 27.9827 23.9367C28.1956 23.9474 28.4059 23.887 28.5806 23.7648C28.7552 23.6426 28.8841 23.4657 28.9469 23.2621L30.8636 17.0157C30.9219 16.8262 31.0374 16.6596 31.1944 16.5385C31.3513 16.4175 31.5419 16.3481 31.7399 16.3399C31.9379 16.3317 32.1336 16.3851 32.3 16.4928C32.4664 16.6004 32.5954 16.757 32.6691 16.9409L33.3361 18.6122C33.4074 18.7902 33.5305 18.9427 33.6893 19.05C33.8482 19.1572 34.0356 19.2144 34.2273 19.2141H46.0417" stroke="black" stroke-width="2" stroke-linecap="round" stroke-linejoin="round"/>
</g>
<defs>
<clipPath id="clip0_1209_6654">
<rect width="48" height="48" fill="white"/>
</clipPath>
</defs>
</svg>
