<svg width="48" height="48" viewBox="0 0 48 48" fill="none" xmlns="http://www.w3.org/2000/svg">
<g clip-path="url(#clip0_1209_6661)">
<path d="M1.00009 28.2304H12.5006C12.6559 28.2304 12.809 28.1942 12.9479 28.1248C13.0867 28.0554 13.2075 27.9546 13.3007 27.8304L15.1528 25.3622C15.2486 25.2342 15.3738 25.1311 15.5178 25.0614C15.6618 24.9918 15.8203 24.9577 15.9802 24.962C16.1401 24.9663 16.2966 25.0089 16.4366 25.0862C16.5766 25.1635 16.696 25.2732 16.7849 25.4062L19.045 28.8064C19.1422 28.952 19.276 29.0695 19.4329 29.1472C19.5898 29.2249 19.7643 29.2601 19.9391 29.2491C20.1138 29.2382 20.2827 29.1816 20.4287 29.0849C20.5747 28.9883 20.6927 28.855 20.771 28.6984L23.8512 22.5381C23.9413 22.3579 24.0837 22.209 24.2598 22.1111C24.4359 22.0132 24.6374 21.9707 24.8381 21.9893C25.0387 22.0079 25.229 22.0867 25.3841 22.2153C25.5392 22.3439 25.6519 22.5164 25.7073 22.7101L28.2954 31.7685C28.3506 31.9624 28.463 32.135 28.618 32.2639C28.773 32.3927 28.9633 32.4717 29.1639 32.4905C29.3646 32.5093 29.5662 32.4671 29.7425 32.3693C29.9187 32.2715 30.0613 32.1228 30.1515 31.9426L31.7256 28.7944C31.8084 28.6281 31.936 28.4882 32.0939 28.3904C32.2518 28.2925 32.4338 28.2406 32.6196 28.2404H47.0023" stroke="black" stroke-width="2.0001" stroke-linecap="round" stroke-linejoin="round"/>
<path d="M42.512 24.229C44.0573 21.169 44.9076 17.8054 45.0021 14.3786C45.0021 -1.00019 26.3692 -2.20025 24.0011 13.2005C21.633 -2.20025 3.00009 -1.00019 3.00009 15.5606C3.0381 18.5411 3.65702 21.4855 4.82218 24.229" stroke="black" stroke-width="2.0001" stroke-linecap="round" stroke-linejoin="round"/>
<path d="M9.46037 32.2301C13.4236 37.338 18.1128 41.8385 23.379 45.5887C23.5574 45.7153 23.7723 45.7799 23.9908 45.7727C24.2094 45.7654 24.4195 45.6868 24.5891 45.5487C29.3921 41.6047 33.7405 37.1376 37.5537 32.2301" stroke="black" stroke-width="2.0001" stroke-linecap="round" stroke-linejoin="round"/>
</g>
<defs>
<clipPath id="clip0_1209_6661">
<rect width="48.0023" height="48.0023" fill="white"/>
</clipPath>
</defs>
</svg>
