<svg width="48" height="48" viewBox="0 0 48 48" fill="none" xmlns="http://www.w3.org/2000/svg">
<g clip-path="url(#clip0_1210_1808)">
<path fill-rule="evenodd" clip-rule="evenodd" d="M47.26 22.14L43.04 21.84C42.16 21.84 40.38 22 38.92 21.96H38.14C38.26 21.52 37.58 20.38 37.5 20.16C37.08 18.82 36.62 17.06 36 15.56C35.7021 14.8498 35.3193 14.1782 34.86 13.56C34.7405 13.4032 34.5901 13.2726 34.4181 13.1762C34.2461 13.0799 34.0561 13.0199 33.86 13C33.6709 12.9817 33.4802 13.0043 33.3007 13.0665C33.1212 13.1286 32.9572 13.2287 32.82 13.36C32.6005 13.5749 32.4418 13.844 32.36 14.14C32.26 14.52 32.24 15.42 32.14 15.82L31.32 19.82C30.96 21.82 30.66 24.18 30.14 26.38C30.02 26.92 29.9 27.46 29.74 27.98L28.36 25.42C28.16 25.08 27.44 23.42 26.84 22.52C26.715 22.2793 26.5425 22.0666 26.3327 21.8946C26.123 21.7227 25.8805 21.5953 25.62 21.52L18.38 21.64C18.288 21.6373 18.1965 21.6528 18.1105 21.6856C18.0246 21.7183 17.9459 21.7677 17.8791 21.8308C17.8122 21.894 17.7584 21.9697 17.7208 22.0536C17.6832 22.1375 17.6626 22.2281 17.66 22.32C17.6545 22.5077 17.7225 22.69 17.8495 22.8283C17.9765 22.9665 18.1525 23.0497 18.34 23.06C24.86 23.28 24.6 22.6 26.48 26.38L28 29.62C28.18 29.98 28.34 30.86 28.5 31.2C28.6302 31.4876 28.8565 31.721 29.14 31.86C29.2896 31.9627 29.4605 32.0302 29.6399 32.0573C29.8193 32.0845 30.0026 32.0706 30.1758 32.0167C30.3491 31.9628 30.5079 31.8703 30.6402 31.7461C30.7726 31.622 30.8751 31.4695 30.94 31.3C31.7276 29.8866 32.3196 28.3727 32.7 26.8C33.26 24.56 33.54 22.18 33.92 20.12L34.4 18C34.76 19.02 35.1 20 35.4 20.86C35.54 21.16 35.86 22.5 36.12 23.02C36.2553 23.2992 36.4808 23.5247 36.76 23.66C37.4478 23.9239 38.1852 24.0331 38.92 23.98C40.36 23.98 42.1 23.62 42.92 23.64H47.1C47.205 23.6479 47.3106 23.635 47.4107 23.6021C47.5108 23.5691 47.6034 23.5168 47.6832 23.4481C47.7631 23.3794 47.8286 23.2956 47.8761 23.2016C47.9236 23.1075 47.9521 23.0051 47.96 22.9C47.9679 22.795 47.955 22.6894 47.922 22.5893C47.8891 22.4892 47.8368 22.3966 47.7681 22.3167C47.6994 22.2369 47.6156 22.1714 47.5216 22.1239C47.4275 22.0764 47.325 22.0479 47.22 22.04L47.26 22.14Z" fill="black"/>
<path fill-rule="evenodd" clip-rule="evenodd" d="M13.76 11.08C13.7548 10.8925 13.6766 10.7145 13.5422 10.5838C13.4077 10.453 13.2275 10.3799 13.04 10.38C11.8875 10.1629 10.6975 10.2667 9.6 10.68C9.11685 10.8856 8.67088 11.1694 8.28 11.52C8.00367 11.7592 7.76142 12.0351 7.56 12.34C6.79526 13.5235 6.52927 14.9612 6.82 16.34C6.82 16.5522 6.90429 16.7557 7.05432 16.9057C7.20435 17.0557 7.40783 17.14 7.62 17.14C7.83218 17.14 8.03566 17.0557 8.18569 16.9057C8.33572 16.7557 8.42 16.5522 8.42 16.34C8.55026 15.4444 8.98034 14.6195 9.64 14C9.98273 13.6323 10.3651 13.3037 10.78 13.02C11.4509 12.4652 12.2262 12.0504 13.06 11.8C13.2475 11.7948 13.4255 11.7166 13.5562 11.5822C13.687 11.4477 13.7601 11.2675 13.76 11.08Z" fill="black"/>
<path fill-rule="evenodd" clip-rule="evenodd" d="M9.49998 22.7C9.33998 22.42 9.11998 22.2 8.97998 21.92C8.37998 20.58 8.57998 20.08 7.87998 20.04C6.77998 20.04 6.71998 22.64 7.21998 24.04C7.45119 24.6367 7.79016 25.1858 8.21998 25.66C8.83895 26.2987 9.50772 26.8872 10.22 27.42C10.2857 27.5018 10.3674 27.5696 10.4599 27.6191C10.5525 27.6687 10.6541 27.699 10.7587 27.7084C10.8633 27.7177 10.9687 27.7058 11.0686 27.6735C11.1684 27.6411 11.2608 27.5889 11.34 27.52C11.4992 27.3839 11.6004 27.1921 11.6227 26.9838C11.645 26.7756 11.5868 26.5667 11.46 26.4C10.9 25.48 10.48 24.5 9.97998 23.52L9.49998 22.7Z" fill="black"/>
<path fill-rule="evenodd" clip-rule="evenodd" d="M36.54 30.58C35.2212 32.0653 33.819 33.4742 32.34 34.8C31.7 35.38 31.06 35.92 30.34 36.46L28.34 38.08C26.8399 39.3719 25.2343 40.5359 23.54 41.56C23.4553 41.5987 23.3792 41.6538 23.3161 41.7223C23.2531 41.7907 23.2043 41.8711 23.1726 41.9586C23.1409 42.0461 23.1271 42.1391 23.1318 42.232C23.1365 42.325 23.1596 42.4161 23.2 42.5C23.2366 42.584 23.2898 42.6597 23.3564 42.7225C23.423 42.7854 23.5016 42.8342 23.5876 42.866C23.6735 42.8977 23.7649 42.9118 23.8564 42.9073C23.9479 42.9029 24.0376 42.88 24.12 42.84C26.1821 42.1902 28.1568 41.2902 30 40.16C30.7562 39.6537 31.4839 39.1062 32.18 38.52C32.8841 37.8919 33.5518 37.2241 34.18 36.52C35.5641 34.9418 36.8025 33.2415 37.88 31.44C37.9457 31.357 37.9938 31.2615 38.0214 31.1593C38.049 31.0571 38.0555 30.9504 38.0405 30.8456C38.0255 30.7408 37.9894 30.6402 37.9343 30.5498C37.8792 30.4595 37.8063 30.3813 37.72 30.32C37.628 30.2517 37.5225 30.2039 37.4104 30.1799C37.2984 30.1559 37.1826 30.1562 37.0707 30.1809C36.9588 30.2055 36.8535 30.2539 36.762 30.3228C36.6704 30.3916 36.5947 30.4793 36.54 30.58Z" fill="black"/>
<path fill-rule="evenodd" clip-rule="evenodd" d="M8.19999 30.98C5.6978 28.1035 3.90938 24.6774 2.97999 20.98C2.40058 18.7571 2.40058 16.4228 2.97999 14.2C3.22829 13.1642 3.7033 12.1964 4.37079 11.3664C5.03828 10.5363 5.88161 9.86474 6.83999 9.39998C8.20404 8.69095 9.67815 8.21761 11.2 7.99998C12.5671 7.82383 13.9561 8.04606 15.2 8.63998C15.8031 8.91621 16.3847 9.2371 16.94 9.59998C17.5087 9.95233 18.0502 10.3468 18.56 10.78C18.56 10.78 19.5 11.72 19.88 12.04C20.0788 12.2289 20.3262 12.3589 20.5946 12.4154C20.863 12.4719 21.1419 12.4527 21.4 12.36C21.8273 12.1473 22.2242 11.8782 22.58 11.56C23.4974 10.5007 24.4722 9.49256 25.5 8.53998C27.158 7.40981 29.0959 6.75925 31.1 6.65998C33.1123 6.57515 35.106 7.07533 36.84 8.09998C38.4538 9.32555 39.688 10.9827 40.4 12.88C40.859 14.0982 40.859 15.4418 40.4 16.66C40.3531 16.7541 40.3257 16.8568 40.3195 16.9618C40.3133 17.0668 40.3284 17.172 40.3639 17.271C40.3994 17.3701 40.4546 17.4609 40.5261 17.538C40.5976 17.6152 40.6839 17.6771 40.78 17.72C40.8758 17.7635 40.9793 17.7876 41.0845 17.791C41.1897 17.7945 41.2945 17.7771 41.393 17.74C41.4915 17.7028 41.5816 17.6466 41.6583 17.5745C41.735 17.5024 41.7968 17.4159 41.84 17.32C42.5393 15.7562 42.632 13.9883 42.1 12.36C41.3151 10.0693 39.8928 8.05019 38 6.53998C35.9733 5.23222 33.612 4.53772 31.2 4.53998C28.7947 4.58323 26.4456 5.27414 24.4 6.53998C23.2732 7.48128 22.217 8.50403 21.24 9.59998C20.88 9.29998 20.36 8.99998 20.32 8.95998C19.7433 8.42889 19.1283 7.94091 18.48 7.49998C17.8331 7.0802 17.1656 6.69305 16.48 6.33998C15.0882 5.65302 13.5518 5.31009 12 5.33998C9.82817 5.42821 7.70045 5.9806 5.75999 6.95998C3.61058 7.98277 1.93041 9.78448 1.05999 12C-0.158108 15.0919 -0.340569 18.4955 0.53999 21.7C1.72246 25.6887 3.81003 29.3505 6.63999 32.4C10.7686 36.8602 15.6411 40.5687 21.04 43.36C21.1177 43.4089 21.2047 43.441 21.2955 43.4543C21.3863 43.4677 21.4789 43.4619 21.5674 43.4374C21.6558 43.413 21.7382 43.3703 21.8093 43.3122C21.8803 43.2541 21.9385 43.1818 21.98 43.1C22.0264 43.02 22.0565 42.9316 22.0685 42.8399C22.0806 42.7482 22.0743 42.655 22.0501 42.5658C22.026 42.4765 21.9843 42.3929 21.9277 42.3198C21.871 42.2468 21.8004 42.1856 21.72 42.14C16.6036 39.2273 12.0296 35.4516 8.19999 30.98Z" fill="black"/>
</g>
<defs>
<clipPath id="clip0_1210_1808">
<rect width="48" height="48" fill="white"/>
</clipPath>
</defs>
</svg>
