<svg width="48" height="48" viewBox="0 0 48 48" fill="none" xmlns="http://www.w3.org/2000/svg">
<g clip-path="url(#clip0_1210_1802)">
<path d="M24.98 28.64C25.2598 27.7746 25.4869 26.8929 25.66 26C26.2 23.4 26.38 20.66 26.84 18L27.4 15.6C27.52 16.6 27.58 17.6 27.66 18.44C27.6793 19.1106 27.7461 19.7789 27.86 20.44C27.895 20.5781 27.9596 20.7068 28.0494 20.8174C28.1392 20.9279 28.252 21.0175 28.38 21.08C28.7753 21.2297 29.1985 21.2911 29.62 21.26C30.42 21.26 31.36 21.06 31.86 21.04H34.32C34.4897 21.04 34.6525 20.9726 34.7725 20.8526C34.8926 20.7325 34.96 20.5697 34.96 20.4C34.96 20.2303 34.8926 20.0675 34.7725 19.9475C34.6525 19.8274 34.4897 19.76 34.32 19.76H31.86C31.4 19.76 30.62 19.88 29.86 19.9H29.4C29.4215 17.2031 28.9469 14.5253 28 12C27.9046 11.8562 27.7706 11.7422 27.6134 11.6709C27.4563 11.5997 27.2822 11.574 27.1112 11.597C26.9401 11.6199 26.779 11.6905 26.6462 11.8007C26.5133 11.9109 26.4142 12.0562 26.36 12.22C26.14 12.8 24.88 17.64 24.86 17.7C24.44 19.7 24.18 21.86 23.82 23.96C23.56 22.56 23.36 21.16 23.06 19.76C22.848 18.6851 22.5742 17.6234 22.24 16.58C22.071 15.8951 21.8435 15.226 21.56 14.58C21.4106 14.2838 21.1822 14.0346 20.9 13.86C20.649 13.7919 20.3825 13.8101 20.1431 13.9116C19.9037 14.0132 19.7054 14.1922 19.58 14.42C19.34 14.9 18.76 16.12 18.72 16.18C18.36 16.94 17.92 18.44 17.36 19.54C17.2072 19.9173 16.9674 20.2531 16.66 20.52H15.12L9.62 20.72C9.47129 20.7299 9.33158 20.7947 9.22807 20.9019C9.12455 21.0092 9.06464 21.1511 9.06 21.3C9.06518 21.4503 9.12857 21.5928 9.23679 21.6973C9.345 21.8017 9.48958 21.8601 9.64 21.86H15.26H16.62C16.9364 21.8458 17.2448 21.7567 17.52 21.6C18.0393 21.2143 18.4634 20.7149 18.76 20.14C19.02 19.66 20.36 16.74 20.44 16.56C20.44 17.1 20.7 17.68 21 19.24C21.3 20.8 21.58 22.9 21.86 24.7L22.54 28.7C22.5637 28.9557 22.6038 29.2095 22.66 29.46C22.7268 29.6267 22.8355 29.7732 22.9757 29.8854C23.1159 29.9975 23.2828 30.0715 23.46 30.1C23.5887 30.1391 23.7241 30.1512 23.8577 30.1357C23.9913 30.1201 24.1203 30.0773 24.2366 30.0097C24.3529 29.9422 24.4541 29.8514 24.5338 29.7431C24.6135 29.6347 24.6701 29.5112 24.7 29.38" fill="black"/>
<path d="M6.00001 30.8C5.82001 29.96 5.66001 29.1 5.54001 28.22C5.42001 27.34 5.40001 26.38 5.30001 25C5.20001 23.62 5.12001 21.76 4.98001 20C4.60001 15.8 4.16001 11.72 4.16001 11.72C4.15742 11.6359 4.1383 11.5532 4.10372 11.4765C4.06915 11.3999 4.0198 11.3308 3.9585 11.2732C3.89721 11.2156 3.82517 11.1707 3.7465 11.141C3.66782 11.1112 3.58407 11.0973 3.50001 11.1C3.41595 11.1026 3.33323 11.1217 3.25656 11.1563C3.1799 11.1909 3.11081 11.2402 3.05322 11.3015C2.99564 11.3628 2.95071 11.4348 2.92099 11.5135C2.89127 11.5922 2.87734 11.6759 2.88001 11.76C2.88001 11.76 2.72001 17.04 2.88001 21.76C2.88001 23.22 3.10001 24.6 3.24001 25.76C3.36271 26.6822 3.53631 27.5969 3.76001 28.5C4.02001 29.38 4.30001 30.26 4.60001 31.12C4.78001 31.56 4.96001 32 5.16001 32.44C5.70001 32.88 6.12001 32.8 6.44001 32.32C6.36001 31.88 6.20001 31.36 6.00001 30.8Z" fill="black"/>
<path d="M46.9 12.92C46.9554 11.5556 46.7308 10.1943 46.24 8.92C46.0787 8.54034 45.8383 8.19944 45.5348 7.92008C45.2313 7.64072 44.8717 7.42933 44.48 7.3C40.5793 6.56328 36.6013 6.32137 32.64 6.58C21.48 6.86 6.86002 8.58 5.74002 8.46C5.59263 8.45414 5.44855 8.50464 5.33709 8.60124C5.22563 8.69785 5.15516 8.83328 5.14002 8.98C5.13457 9.05358 5.14372 9.12751 5.16694 9.19755C5.19015 9.26758 5.22698 9.33233 5.2753 9.38809C5.32362 9.44384 5.38249 9.4895 5.44851 9.52243C5.51453 9.55537 5.58641 9.57493 5.66002 9.58C6.78002 9.58 21.5 8.8 32.68 8.72C36.4174 8.51104 40.1665 8.71224 43.86 9.32C44.26 9.44 44.42 9.86 44.58 10.4C44.9408 12.1155 45.0285 13.8772 44.84 15.62C44.48 20.88 43.08 27.72 42.46 32C42.18 33.16 43.4 33.42 43.82 32C44.72 26.9 46.84 18.32 46.9 12.92Z" fill="black"/>
<path d="M47.74 34.62C47.8213 34.56 47.8872 34.4816 47.9324 34.3912C47.9776 34.3008 48.0008 34.201 48 34.1C48 34.0169 47.9834 33.9346 47.951 33.858C47.9186 33.7815 47.8711 33.7122 47.8114 33.6544C47.7517 33.5965 47.6809 33.5513 47.6034 33.5213C47.5259 33.4914 47.4431 33.4773 47.36 33.48C43.98 33.48 37.58 33.06 30.62 32.94C26.9 32.94 23.18 32.76 19.44 32.82C19.26 32.82 11.62 32.82 0.81999 33.96C0.678508 33.9701 0.546142 34.0336 0.449624 34.1375C0.353106 34.2414 0.299628 34.3781 0.29999 34.52C0.291318 34.5595 0.291318 34.6005 0.29999 34.64C-0.061 35.5253 -0.109101 36.5074 0.163638 37.4238C0.436377 38.3402 1.01363 39.1361 1.79999 39.68C4.10158 40.8915 6.68085 41.4777 9.27999 41.38C12.1 41.52 14.9 41.58 17.72 41.56C21 41.56 24.26 41.44 27.52 41.36C30.78 41.28 34.02 41.2 37.28 41.26H39.48C41.4205 41.4297 43.3754 41.3084 45.28 40.9C46.0527 40.7423 46.7465 40.3209 47.2427 39.7079C47.7389 39.095 48.0066 38.3286 48 37.54V35.54C47.8 35.16 47.76 34.86 47.74 34.62ZM46.48 37.5C46.4854 37.9823 46.3164 38.4504 46.004 38.8179C45.6916 39.1854 45.2569 39.4277 44.78 39.5C43.0168 39.7686 41.2231 39.7686 39.46 39.5L37.3 39.4C34.4891 39.2534 31.6747 39.1867 28.86 39.2C25.58 39.2 22.32 39.2 19.04 39.42C15.76 39.64 12.54 39.68 9.27999 39.66C6.96479 39.8866 4.63018 39.5148 2.49999 38.58C1.94209 38.206 1.52373 37.6578 1.31026 37.021C1.09678 36.3842 1.10021 35.6946 1.31999 35.06C4.27999 34.94 7.21999 34.86 10.18 34.86H17.6H25.02C32.18 34.86 39.32 34.86 46.44 34.64V35.42C46.4991 36.1117 46.5125 36.8065 46.48 37.5Z" fill="black"/>
</g>
<defs>
<clipPath id="clip0_1210_1802">
<rect width="48" height="48" fill="white"/>
</clipPath>
</defs>
</svg>
