<svg width="170" height="17" viewBox="0 0 170 17" fill="none" xmlns="http://www.w3.org/2000/svg">
<path d="M1.44 0.288H4.59L8.118 10.188L11.628 0.288H14.796V13.068H12.456V4.284L9.234 13.05H7.002L3.78 4.284V13.068H1.44V0.288ZM21.4154 13.284C18.5534 13.284 16.6814 11.322 16.6814 8.298C16.6814 5.274 18.5534 3.312 21.4154 3.312C24.2594 3.312 26.1314 5.274 26.1314 8.298C26.1314 11.322 24.2594 13.284 21.4154 13.284ZM19.0754 8.298C19.0754 10.26 19.9214 11.412 21.4154 11.412C22.8914 11.412 23.7554 10.26 23.7554 8.298C23.7554 6.336 22.8914 5.184 21.4154 5.184C19.9214 5.184 19.0754 6.336 19.0754 8.298ZM27.9963 3.528H30.1563L30.2103 5.4C30.5703 4.14 31.2903 3.528 32.5143 3.528H33.3963V5.31H32.4963C30.9663 5.31 30.3003 6.102 30.3003 7.632V13.068H27.9963V3.528ZM34.2595 8.298C34.2595 5.274 36.1315 3.312 38.9935 3.312C41.4595 3.312 43.4395 5.004 43.4755 8.37V8.928H36.6895C36.7975 10.512 37.6255 11.466 38.9935 11.466C39.8575 11.466 40.6495 10.962 40.9915 10.134L43.3495 10.314C42.7735 12.132 41.0455 13.284 38.9935 13.284C36.1315 13.284 34.2595 11.322 34.2595 8.298ZM36.7075 7.398H41.0995C40.9195 5.76 40.0195 5.13 38.9935 5.13C37.7155 5.13 36.8875 5.976 36.7075 7.398ZM51.8105 8.766C52.0805 10.26 53.1425 11.25 54.8885 11.25C56.2385 11.25 57.1565 10.71 57.1565 9.666C57.1385 8.604 56.2385 7.992 54.0605 7.452C51.5045 6.84 49.7045 5.742 49.7045 3.69C49.7045 1.422 51.5765 5.96046e-07 54.3125 5.96046e-07C57.1385 5.96046e-07 59.0465 1.746 59.3165 4.248L56.9585 4.356C56.7785 2.934 55.7705 2.016 54.2765 2.016C52.9805 2.016 52.0625 2.682 52.0985 3.726C52.1165 4.95 53.5925 5.328 55.0505 5.706C57.7145 6.336 59.5505 7.542 59.5505 9.54C59.5505 11.952 57.4085 13.284 54.7805 13.284C51.7745 13.284 49.6505 11.574 49.4345 8.91L51.8105 8.766ZM61.3596 0.288H63.6636V4.806C64.2216 3.726 65.2656 3.312 66.4356 3.312C68.4156 3.312 69.6576 4.752 69.6576 6.93V13.068H67.3536V7.758C67.3536 6.12 66.8676 5.256 65.6796 5.256C64.4196 5.256 63.6636 6.138 63.6636 7.758V13.068H61.3596V0.288ZM71.5992 6.444C71.9772 4.446 73.5072 3.312 75.8652 3.312C78.6192 3.312 80.0592 4.734 80.0592 7.416V10.692C80.0592 11.232 80.2932 11.394 80.6532 11.394H81.0312V13.068L80.4912 13.086C79.7532 13.104 78.2412 13.122 78.0612 11.61C77.6112 12.564 76.5312 13.284 74.8752 13.284C72.9492 13.284 71.4372 12.258 71.4372 10.566C71.4372 8.73 72.8232 8.1 75.0732 7.668L77.7372 7.146C77.7372 5.67 77.1072 4.968 75.8652 4.968C74.8392 4.968 74.1732 5.526 73.9572 6.57L71.5992 6.444ZM73.8312 10.494C73.8312 11.142 74.3892 11.664 75.5052 11.664C76.8012 11.664 77.7912 10.71 77.7912 8.838V8.712L75.9732 9.036C74.7672 9.252 73.8312 9.414 73.8312 10.494ZM82.717 3.528H84.877L84.931 5.4C85.291 4.14 86.011 3.528 87.235 3.528H88.117V5.31H87.217C85.687 5.31 85.021 6.102 85.021 7.632V13.068H82.717V3.528ZM89.6955 15.768V3.528H91.8915L91.9455 4.932C92.4675 3.888 93.4755 3.312 94.8075 3.312C97.5435 3.312 98.9115 5.544 98.9115 8.298C98.9115 11.052 97.5435 13.284 94.8075 13.284C93.5295 13.284 92.5575 12.744 91.9995 11.718V15.768H89.6955ZM91.8375 8.298C91.8375 9.936 92.5755 11.43 94.1775 11.43C95.7975 11.43 96.4995 9.972 96.4995 8.298C96.4995 6.642 95.7795 5.166 94.1775 5.166C92.5575 5.166 91.8375 6.678 91.8375 8.298ZM105.164 3.528H107.468V13.068H105.164V3.528ZM105.128 2.214V0.306H107.522V2.214H105.128ZM116.21 7.038C116.03 5.85 115.166 5.184 114.158 5.184C112.664 5.184 111.818 6.336 111.818 8.298C111.818 10.26 112.664 11.412 114.158 11.412C115.22 11.412 116.066 10.728 116.246 9.432L118.64 9.54C118.37 11.844 116.534 13.284 114.158 13.284C111.296 13.284 109.424 11.322 109.424 8.298C109.424 5.274 111.296 3.312 114.158 3.312C116.462 3.312 118.334 4.68 118.586 6.912L116.21 7.038ZM124.687 13.284C121.825 13.284 119.953 11.322 119.953 8.298C119.953 5.274 121.825 3.312 124.687 3.312C127.531 3.312 129.403 5.274 129.403 8.298C129.403 11.322 127.531 13.284 124.687 13.284ZM122.347 8.298C122.347 10.26 123.193 11.412 124.687 11.412C126.163 11.412 127.027 10.26 127.027 8.298C127.027 6.336 126.163 5.184 124.687 5.184C123.193 5.184 122.347 6.336 122.347 8.298ZM131.268 3.528H133.356L133.428 5.112C133.932 3.816 135.012 3.312 136.29 3.312C138.414 3.312 139.566 4.788 139.566 6.93V13.068H137.244V7.668C137.244 6.066 136.83 5.184 135.588 5.184C134.328 5.184 133.572 6.066 133.572 7.668V13.068H131.268V3.528ZM147.484 6.588C147.304 5.616 146.458 5.04 145.54 5.04C144.64 5.04 143.938 5.508 143.956 6.282C143.974 7.056 144.928 7.38 145.882 7.56C148.492 8.01 149.932 8.694 149.932 10.512C149.932 12.402 148.096 13.284 145.864 13.284C143.254 13.284 141.49 12.06 141.328 10.044L143.686 9.918C143.866 10.926 144.622 11.538 145.81 11.538C146.602 11.538 147.556 11.25 147.538 10.458C147.538 9.54 146.476 9.396 145.504 9.18C143.146 8.712 141.562 8.1 141.562 6.318C141.562 4.446 143.11 3.312 145.666 3.312C147.898 3.312 149.5 4.518 149.824 6.48L147.484 6.588ZM168.47 6.696L162.872 12.294H160.37L164.816 7.83H155.69V5.58H164.87L160.388 1.098H162.89L168.47 6.696Z" fill="#033BCC"/>
<path d="M0 15.318H169.262V16.218H0V15.318Z" fill="#033BCC"/>
<a href="https://www.streamlinehq.com/icons/sharp-line-style/health?utm_source=figma&#38;utm_medium=free-file&#38;utm_campaign=healthcare-free">
<rect fill="black" fill-opacity="0" y="-0.16" width="169.262" height="22.32"/>
</a>
</svg>
