<svg width="174" height="16" viewBox="0 0 174 16" fill="none" xmlns="http://www.w3.org/2000/svg">
<path d="M1.44 -1.90735e-06H4.59L8.118 9.9L11.628 -1.90735e-06H14.796V12.78H12.456V3.996L9.234 12.762H7.002L3.78 3.996V12.78H1.44V-1.90735e-06ZM21.4154 12.996C18.5534 12.996 16.6814 11.034 16.6814 8.01C16.6814 4.986 18.5534 3.024 21.4154 3.024C24.2594 3.024 26.1314 4.986 26.1314 8.01C26.1314 11.034 24.2594 12.996 21.4154 12.996ZM19.0754 8.01C19.0754 9.972 19.9214 11.124 21.4154 11.124C22.8914 11.124 23.7554 9.972 23.7554 8.01C23.7554 6.048 22.8914 4.896 21.4154 4.896C19.9214 4.896 19.0754 6.048 19.0754 8.01ZM27.9963 3.24H30.1563L30.2103 5.112C30.5703 3.852 31.2903 3.24 32.5143 3.24H33.3963V5.022H32.4963C30.9663 5.022 30.3003 5.814 30.3003 7.344V12.78H27.9963V3.24ZM34.2595 8.01C34.2595 4.986 36.1315 3.024 38.9935 3.024C41.4595 3.024 43.4395 4.716 43.4755 8.082V8.64H36.6895C36.7975 10.224 37.6255 11.178 38.9935 11.178C39.8575 11.178 40.6495 10.674 40.9915 9.846L43.3495 10.026C42.7735 11.844 41.0455 12.996 38.9935 12.996C36.1315 12.996 34.2595 11.034 34.2595 8.01ZM36.7075 7.11H41.0995C40.9195 5.472 40.0195 4.842 38.9935 4.842C37.7155 4.842 36.8875 5.688 36.7075 7.11ZM54.8705 -1.90735e-06C57.8585 -1.90735e-06 59.6405 1.53 59.6405 4.068C59.6405 6.624 57.8585 8.172 54.8705 8.172H52.2605V12.78H49.9205V-1.90735e-06H54.8705ZM52.2605 6.138H54.7625C56.3465 6.138 57.2285 5.436 57.2285 4.068C57.2285 2.736 56.3645 2.034 54.7625 2.034H52.2605V6.138ZM61.6936 -1.90735e-06H63.9976V10.296C63.9976 10.746 64.2496 10.998 64.6996 10.998H65.4196V12.78H64.1056C62.6656 12.78 61.6936 11.88 61.6936 10.386V-1.90735e-06ZM75.4035 12.78H73.2795L73.2435 11.268C72.7215 12.51 71.6595 12.996 70.4175 12.996C68.3475 12.996 67.1955 11.52 67.1955 9.378V3.24H69.4995V8.622C69.4995 10.242 69.9315 11.124 71.1375 11.124C72.3795 11.124 73.0995 10.242 73.0995 8.622V3.24H75.4035V12.78ZM77.9358 3.24H80.0238L80.0778 4.77C80.5458 3.672 81.5178 3.024 82.7778 3.024C84.1278 3.024 85.0998 3.744 85.5138 5.004C85.9638 3.708 86.9538 3.024 88.3398 3.024C90.2658 3.024 91.4718 4.302 91.4718 6.642V12.78H89.1678V7.38C89.1678 5.76 88.6458 4.896 87.6378 4.896C86.4138 4.896 85.7478 5.778 85.7478 7.38V12.78H83.6418V7.38C83.6418 5.76 83.1198 4.896 82.1478 4.896C80.9238 4.896 80.2398 5.796 80.2398 7.38V12.78H77.9358V3.24ZM93.6858 15.48V3.24H95.8818L95.9358 4.644C96.4578 3.6 97.4658 3.024 98.7978 3.024C101.534 3.024 102.902 5.256 102.902 8.01C102.902 10.764 101.534 12.996 98.7978 12.996C97.5198 12.996 96.5478 12.456 95.9898 11.43V15.48H93.6858ZM95.8278 8.01C95.8278 9.648 96.5658 11.142 98.1678 11.142C99.7878 11.142 100.49 9.684 100.49 8.01C100.49 6.354 99.7698 4.878 98.1678 4.878C96.5478 4.878 95.8278 6.39 95.8278 8.01ZM109.155 3.24H111.459V12.78H109.155V3.24ZM109.119 1.926V0.0179979H111.513V1.926H109.119ZM120.2 6.75C120.02 5.562 119.156 4.896 118.148 4.896C116.654 4.896 115.808 6.048 115.808 8.01C115.808 9.972 116.654 11.124 118.148 11.124C119.21 11.124 120.056 10.44 120.236 9.144L122.63 9.252C122.36 11.556 120.524 12.996 118.148 12.996C115.286 12.996 113.414 11.034 113.414 8.01C113.414 4.986 115.286 3.024 118.148 3.024C120.452 3.024 122.324 4.392 122.576 6.624L120.2 6.75ZM128.677 12.996C125.815 12.996 123.943 11.034 123.943 8.01C123.943 4.986 125.815 3.024 128.677 3.024C131.521 3.024 133.393 4.986 133.393 8.01C133.393 11.034 131.521 12.996 128.677 12.996ZM126.337 8.01C126.337 9.972 127.183 11.124 128.677 11.124C130.153 11.124 131.017 9.972 131.017 8.01C131.017 6.048 130.153 4.896 128.677 4.896C127.183 4.896 126.337 6.048 126.337 8.01ZM135.258 3.24H137.346L137.418 4.824C137.922 3.528 139.002 3.024 140.28 3.024C142.404 3.024 143.556 4.5 143.556 6.642V12.78H141.234V7.38C141.234 5.778 140.82 4.896 139.578 4.896C138.318 4.896 137.562 5.778 137.562 7.38V12.78H135.258V3.24ZM151.474 6.3C151.294 5.328 150.448 4.752 149.53 4.752C148.63 4.752 147.928 5.22 147.946 5.994C147.964 6.768 148.918 7.092 149.872 7.272C152.482 7.722 153.922 8.406 153.922 10.224C153.922 12.114 152.086 12.996 149.854 12.996C147.244 12.996 145.48 11.772 145.318 9.756L147.676 9.63C147.856 10.638 148.612 11.25 149.8 11.25C150.592 11.25 151.546 10.962 151.528 10.17C151.528 9.252 150.466 9.108 149.494 8.892C147.136 8.424 145.552 7.812 145.552 6.03C145.552 4.158 147.1 3.024 149.656 3.024C151.888 3.024 153.49 4.23 153.814 6.192L151.474 6.3ZM172.46 6.408L166.862 12.006H164.36L168.806 7.542H159.68V5.292H168.86L164.378 0.809998H166.88L172.46 6.408Z" fill="#033BCC"/>
<path d="M0 15.03H173.252V15.93H0V15.03Z" fill="#033BCC"/>
<a href="https://www.streamlinehq.com/icons/plump-line-style/health?utm_source=figma&#38;utm_medium=free-file&#38;utm_campaign=healthcare-free">
<rect fill="black" fill-opacity="0" y="-0.16" width="173.252" height="22.32"/>
</a>
</svg>
