<svg width="48" height="48" viewBox="0 0 48 48" fill="none" xmlns="http://www.w3.org/2000/svg">
<g clip-path="url(#clip0_1209_6651)">
<path d="M3.87498 19.2083C3.36665 19.2083 2.87914 19.4103 2.51969 19.7697C2.16025 20.1292 1.95831 20.6167 1.95831 21.125C1.95831 21.6333 2.16025 22.1209 2.51969 22.4803C2.87914 22.8397 3.36665 23.0417 3.87498 23.0417C4.3749 23.0412 4.85712 23.2267 5.22772 23.5623C5.59832 23.8978 5.83077 24.3592 5.87981 24.8568C6.17518 28.0075 7.22163 31.0415 8.93143 33.7044C10.6412 36.3674 12.9645 38.5815 15.7066 40.1613C15.8647 40.2484 15.9951 40.3784 16.0826 40.5364C16.1701 40.6943 16.2112 40.8737 16.2012 41.054C16.1912 41.2343 16.1304 41.408 16.026 41.5553C15.9215 41.7026 15.7776 41.8173 15.6107 41.8863C14.0841 42.4504 12.6809 43.3043 11.4784 44.401C11.3452 44.5354 11.2548 44.7061 11.2185 44.8918C11.1822 45.0774 11.2016 45.2697 11.2744 45.4443C11.3471 45.6189 11.47 45.7681 11.6273 45.873C11.7847 45.9779 11.9696 46.034 12.1588 46.034H35.8411C36.0303 46.034 36.2152 45.9779 36.3726 45.873C36.53 45.7681 36.6528 45.6189 36.7256 45.4443C36.7983 45.2697 36.8178 45.0774 36.7815 44.8918C36.7452 44.7061 36.6547 44.5354 36.5216 44.401C35.3181 43.3046 33.9144 42.4507 32.3873 41.8863C32.2205 41.8173 32.0765 41.7026 31.9721 41.5553C31.8676 41.408 31.8069 41.2343 31.7969 41.054C31.7869 40.8737 31.828 40.6943 31.9155 40.5364C32.003 40.3784 32.1333 40.2484 32.2915 40.1613C35.0327 38.5823 37.3556 36.3693 39.0656 33.7079C40.7757 31.0464 41.8231 28.0139 42.1201 24.8644C42.1678 24.3657 42.3996 23.9026 42.7703 23.5656C43.141 23.2286 43.624 23.0418 44.125 23.0417C44.6333 23.0417 45.1208 22.8397 45.4803 22.4803C45.8397 22.1209 46.0416 21.6333 46.0416 21.125C46.0416 20.6167 45.8397 20.1292 45.4803 19.7697C45.1208 19.4103 44.6333 19.2083 44.125 19.2083H3.87498Z" stroke="black" stroke-width="2" stroke-linecap="round" stroke-linejoin="round"/>
<path d="M35.1052 15.375C43.021 4.33501 43.5864 3.49167 42.2083 2.36467C40.7363 1.16867 39.8355 1.82992 27.3235 15.375" stroke="black" stroke-width="2" stroke-linecap="round" stroke-linejoin="round"/>
</g>
<defs>
<clipPath id="clip0_1209_6651">
<rect width="48" height="48" fill="white"/>
</clipPath>
</defs>
</svg>
