<svg width="48" height="48" viewBox="0 0 48 48" fill="none" xmlns="http://www.w3.org/2000/svg">
<g clip-path="url(#clip0_1209_6645)">
<path d="M42.4155 35.9017C43.8155 35.3016 44.6156 33.5016 44.0155 31.9015L41.2154 25.5012C40.8154 24.3011 40.4154 23.101 40.4154 21.901V17.9008C40.4154 8.70035 33.015 1.5 24.0146 1.5C14.814 1.5 7.61367 8.90036 7.61367 17.9008V22.101C7.61367 23.3011 7.41368 24.5011 6.81366 25.7012L4.01352 32.1015C3.41349 33.7016 4.0135 35.3016 5.61358 36.1017" stroke="#7ED957" stroke-width="2.0001" stroke-miterlimit="10" stroke-linecap="round" stroke-linejoin="round"/>
<path d="M43.0154 46.5021C39.6153 39.5018 32.4149 34.5016 24.0145 34.5016C15.614 34.5016 8.41365 39.5018 5.01349 46.5021" stroke="#7ED957" stroke-width="2.0001" stroke-miterlimit="10" stroke-linecap="round" stroke-linejoin="round"/>
<path d="M24.0145 10.5005C24.0145 10.5005 21.2144 17.7008 14.0139 17.9008C13.8139 18.9009 13.6139 19.9009 13.6139 20.901C13.6139 26.7013 18.4141 31.3015 24.0145 31.3015C29.6148 31.3015 34.415 26.5013 34.415 20.901C34.415 19.9009 34.215 18.9009 34.015 17.9008C26.8147 17.5008 24.0145 10.5005 24.0145 10.5005Z" stroke="#7ED957" stroke-width="2.0001" stroke-miterlimit="10" stroke-linecap="round" stroke-linejoin="round"/>
<path d="M18.4142 40.5016V46.5019" stroke="#7ED957" stroke-width="2.0001" stroke-miterlimit="10" stroke-linecap="round" stroke-linejoin="round"/>
<path d="M15.614 43.5021H21.6142" stroke="#7ED957" stroke-width="2.0001" stroke-miterlimit="10" stroke-linecap="round" stroke-linejoin="round"/>
</g>
<defs>
<clipPath id="clip0_1209_6645">
<rect width="48.0023" height="48.0023" fill="white"/>
</clipPath>
</defs>
</svg>
