<svg width="48" height="48" viewBox="0 0 48 48" fill="none" xmlns="http://www.w3.org/2000/svg">
<path d="M36.175 41.77C38.213 41.67 39.936 40.4 40.672 38.497C42.122 34.746 44.392 28.167 44.898 22.599C45.018 21.274 44.333 20.038 43.123 19.485C40.242 18.166 33.988 16 24 16C14.011 16 7.758 18.166 4.876 19.485C3.666 20.038 2.981 21.274 3.101 22.599C3.607 28.167 5.877 34.746 7.327 38.497C8.063 40.401 9.786 41.669 11.824 41.771C14.156 41.887 17.975 42 24 42C30.024 42 33.843 41.887 36.175 41.77Z" stroke="black" stroke-width="3" stroke-linecap="round" stroke-linejoin="round"/>
<path d="M8.59998 18.085C9.36498 14.435 10.687 10.986 11.51 9.038C11.966 7.956 12.802 7.106 13.945 6.838C15.6 6.447 18.665 6 24 6C29.335 6 32.4 6.448 34.054 6.837C35.197 7.106 36.034 7.956 36.49 9.037C37.313 10.987 38.635 14.435 39.4 18.085" stroke="black" stroke-width="3" stroke-linecap="round" stroke-linejoin="round"/>
<path d="M26.929 23.198C26.897 22.081 26.191 21.129 25.077 21.041C24.7187 21.0131 24.3594 20.9995 24 21C23.6406 20.9996 23.2814 21.013 22.923 21.04C21.809 21.13 21.103 22.08 21.071 23.198C21.0447 24.1375 21.0264 25.0772 21.016 26.017C20.0766 26.0271 19.1372 26.0451 18.198 26.071C17.081 26.103 16.129 26.809 16.041 27.923C15.9858 28.6399 15.9854 29.36 16.04 30.077C16.13 31.191 17.08 31.897 18.198 31.929C18.911 31.949 19.845 31.969 21.017 31.984C21.0271 32.9235 21.0451 33.8629 21.071 34.802C21.103 35.919 21.809 36.871 22.923 36.959C23.6399 37.0143 24.36 37.0146 25.077 36.96C26.191 36.87 26.897 35.92 26.929 34.802C26.949 34.089 26.969 33.155 26.984 31.983C27.9235 31.973 28.8629 31.955 29.802 31.929C30.919 31.897 31.871 31.191 31.959 30.077C32.0143 29.3601 32.0146 28.64 31.96 27.923C31.87 26.809 30.92 26.103 29.802 26.071C28.8625 26.0447 27.9228 26.0264 26.983 26.016C26.973 25.0765 26.955 24.1372 26.929 23.198Z" stroke="black" stroke-width="3" stroke-linecap="round" stroke-linejoin="round"/>
</svg>
