<svg width="48" height="48" viewBox="0 0 48 48" fill="none" xmlns="http://www.w3.org/2000/svg">
<path d="M28 35L28.679 38.392C28.7696 38.8454 29.0145 39.2534 29.3721 39.5465C29.7296 39.8397 30.1776 40 30.64 40H31.541C32.2346 40 32.9068 40.2403 33.4432 40.68C33.9796 41.1198 34.3471 41.7318 34.483 42.412L34.523 42.608C34.581 42.8983 34.5739 43.1978 34.5021 43.485C34.4303 43.7722 34.2956 44.0399 34.1078 44.2688C33.92 44.4976 33.6838 44.6819 33.4161 44.8084C33.1484 44.9348 32.856 45.0003 32.56 45H15.44C15.144 45.0001 14.8518 44.9346 14.5842 44.808C14.3167 44.6815 14.0805 44.4972 13.8929 44.2684C13.7052 44.0396 13.5706 43.7719 13.4989 43.4848C13.4271 43.1977 13.42 42.8982 13.478 42.608L13.518 42.412C13.6539 41.7322 14.021 41.1204 14.557 40.6807C15.093 40.2409 15.7647 40.0004 16.458 40H17.36C17.8224 40 18.2704 39.8397 18.6279 39.5465C18.9855 39.2534 19.2304 38.8454 19.321 38.392L20 35" stroke="black" stroke-width="3" stroke-linecap="round" stroke-linejoin="round"/>
<path d="M3.444 30.044C3.679 32.572 5.684 34.429 8.218 34.587C11.443 34.787 16.606 35 24 35C31.394 35 36.557 34.788 39.782 34.587C42.316 34.429 44.321 32.572 44.556 30.044C44.786 27.568 45 23.937 45 19C45 14.063 44.786 10.432 44.556 7.956C44.321 5.428 42.316 3.571 39.782 3.413C36.557 3.213 31.394 3 24 3C16.606 3 11.443 3.213 8.218 3.413C5.684 3.571 3.679 5.428 3.444 7.956C3.214 10.432 3 14.063 3 19C3 23.937 3.214 27.568 3.444 30.044Z" stroke="black" stroke-width="3" stroke-linecap="round" stroke-linejoin="round"/>
<path d="M21.953 28.895C20.884 28.775 20.188 27.886 20.138 26.813C20.097 25.946 20.055 24.703 20.028 22.972C18.7475 22.9553 17.4673 22.9186 16.188 22.862C15.114 22.812 14.226 22.116 14.105 21.048C14.0317 20.3678 13.9966 19.6841 14 19C14 18.168 14.044 17.49 14.105 16.953C14.225 15.884 15.114 15.188 16.187 15.138C17.054 15.097 18.297 15.055 20.028 15.028C20.0447 13.7475 20.0814 12.4674 20.138 11.188C20.188 10.114 20.884 9.226 21.952 9.105C22.492 9.045 23.169 9 24 9C24.832 9 25.51 9.044 26.047 9.105C27.116 9.225 27.812 10.114 27.862 11.187C27.903 12.054 27.945 13.297 27.972 15.028C29.2525 15.0447 30.5326 15.0814 31.812 15.138C32.886 15.188 33.774 15.884 33.895 16.953C33.955 17.491 34 18.168 34 19C34 19.832 33.956 20.51 33.895 21.047C33.775 22.116 32.886 22.812 31.812 22.862C30.5326 22.9186 29.2525 22.9553 27.972 22.972C27.9552 24.2525 27.9186 25.5326 27.862 26.812C27.812 27.886 27.116 28.774 26.048 28.895C25.509 28.955 24.832 29 24 29C23.168 29 22.49 28.956 21.953 28.895Z" stroke="black" stroke-width="3" stroke-linecap="round" stroke-linejoin="round"/>
</svg>
