<svg width="48" height="48" viewBox="0 0 48 48" fill="none" xmlns="http://www.w3.org/2000/svg">
<path d="M23.9994 44.8664C35.5238 44.8664 44.866 35.5242 44.866 23.9998C44.866 12.4756 35.5238 3.13333 23.9994 3.13333C12.4751 3.13333 3.13284 12.4756 3.13284 23.9998C3.13284 35.5242 12.4751 44.8664 23.9994 44.8664Z" stroke="black" stroke-width="2" stroke-linecap="round" stroke-linejoin="round"/>
<path d="M13.3232 31.3113C15.1083 31.3113 16.5553 29.8642 16.5553 28.0791C16.5553 26.2941 15.1083 24.847 13.3232 24.847C11.5381 24.847 10.0911 26.2941 10.0911 28.0791C10.0911 29.8642 11.5381 31.3113 13.3232 31.3113Z" stroke="black" stroke-width="2" stroke-linecap="round" stroke-linejoin="round"/>
<path d="M35.0939 16.4419C35.0939 19.655 32.4891 22.2599 29.276 22.2599C26.8848 22.2599 24.8305 20.8172 23.936 18.7548C23.5095 18.9017 23.0516 18.9814 22.5752 18.9814C20.2673 18.9814 18.3965 17.1106 18.3965 14.8028C18.3965 12.4949 20.2673 10.6241 22.5752 10.6241C23.7687 10.6241 24.8453 11.1244 25.6068 11.9268C26.6078 11.1123 27.8849 10.6241 29.276 10.6241C32.4891 10.6241 35.0939 13.2288 35.0939 16.4419Z" stroke="black" stroke-width="2" stroke-linecap="round" stroke-linejoin="round"/>
<path d="M30.6324 34.4606C31.1547 29.6505 36.5354 31.571 36.3064 26.5503" stroke="black" stroke-width="2" stroke-linecap="round"/>
<path d="M23.9998 29.7602C23.6866 29.7602 23.4329 29.5064 23.4329 29.1934C23.4329 28.8802 23.6866 28.6265 23.9998 28.6265" stroke="black" stroke-width="2" stroke-linecap="round" stroke-linejoin="round"/>
<path d="M23.9998 29.7602C24.3128 29.7602 24.5668 29.5064 24.5668 29.1934C24.5668 28.8802 24.3128 28.6265 23.9998 28.6265" stroke="black" stroke-width="2" stroke-linecap="round" stroke-linejoin="round"/>
<path d="M12.0739 15.132C11.7608 15.132 11.507 14.8782 11.507 14.5652C11.507 14.2521 11.7608 13.9983 12.0739 13.9983" stroke="black" stroke-width="2" stroke-linecap="round" stroke-linejoin="round"/>
<path d="M12.074 15.132C12.3871 15.132 12.6409 14.8782 12.6409 14.5652C12.6409 14.2521 12.3871 13.9983 12.074 13.9983" stroke="black" stroke-width="2" stroke-linecap="round" stroke-linejoin="round"/>
<path d="M26.1779 38.5186C25.8649 38.5186 25.6111 38.2648 25.6111 37.9516C25.6111 37.6386 25.8649 37.3849 26.1779 37.3849" stroke="black" stroke-width="2" stroke-linecap="round" stroke-linejoin="round"/>
<path d="M26.1781 38.5186C26.4911 38.5186 26.7449 38.2648 26.7449 37.9516C26.7449 37.6386 26.4911 37.3849 26.1781 37.3849" stroke="black" stroke-width="2" stroke-linecap="round" stroke-linejoin="round"/>
</svg>
