<svg width="48" height="48" viewBox="0 0 48 48" fill="none" xmlns="http://www.w3.org/2000/svg">
<path d="M3.375 24C3.375 29.4701 5.54798 34.7161 9.41592 38.5841C13.2839 42.452 18.5299 44.625 24 44.625C29.4701 44.625 34.7161 42.452 38.5841 38.5841C42.452 34.7161 44.625 29.4701 44.625 24C44.625 18.5299 42.452 13.2839 38.5841 9.41592C34.7161 5.54798 29.4701 3.375 24 3.375C18.5299 3.375 13.2839 5.54798 9.41592 9.41592C5.54798 13.2839 3.375 18.5299 3.375 24Z" stroke="black" stroke-width="3"/>
<path d="M10.9704 26.4405C11.9988 25.6903 13.9042 25.1181 15.6208 26.4403C17.3374 27.7626 17.1866 29.991 17.1866 31.0654V35.5185C18.5019 36.579 20.589 36.5186 22.0581 35.8521" stroke="black" stroke-width="3"/>
<path d="M37.125 25.875V29.625" stroke="black" stroke-width="3"/>
<path d="M29.625 31.5V35.25" stroke="black" stroke-width="3"/>
<path d="M11.8125 16.5V20.25" stroke="black" stroke-width="3"/>
<path d="M18.375 16.5C18.375 14.4289 20.0539 12.75 22.125 12.75H29.0552C31.4409 12.75 33.375 14.684 33.375 17.0697C33.375 19.9326 31.0541 22.2534 28.1914 22.2534H26.2944L23.9186 20.25H22.125C20.0539 20.25 18.375 18.5711 18.375 16.5Z" stroke="black" stroke-width="3"/>
</svg>
