<svg width="48" height="48" viewBox="0 0 48 48" fill="none" xmlns="http://www.w3.org/2000/svg">
<path d="M24 3C12.402 3 3 12.402 3 24C3 35.598 12.402 45 24 45C35.598 45 45 35.598 45 24C45 12.402 35.598 3 24 3Z" stroke="black" stroke-width="3" stroke-linecap="round" stroke-linejoin="round"/>
<path d="M15 14C14.2044 14 13.4413 14.3161 12.8787 14.8787C12.3161 15.4413 12 16.2044 12 17C12 17.7956 12.3161 18.5587 12.8787 19.1213C13.4413 19.6839 14.2044 20 15 20C15.7956 20 16.5587 19.6839 17.1213 19.1213C17.6839 18.5587 18 17.7956 18 17C18 16.2044 17.6839 15.4413 17.1213 14.8787C16.5587 14.3161 15.7956 14 15 14Z" stroke="black" stroke-width="3" stroke-linecap="round" stroke-linejoin="round"/>
<path d="M34 28C33.2044 28 32.4413 28.3161 31.8787 28.8787C31.3161 29.4413 31 30.2044 31 31C31 31.7956 31.3161 32.5587 31.8787 33.1213C32.4413 33.6839 33.2044 34 34 34C34.7956 34 35.5587 33.6839 36.1213 33.1213C36.6839 32.5587 37 31.7956 37 31C37 30.2044 36.6839 29.4413 36.1213 28.8787C35.5587 28.3161 34.7956 28 34 28Z" stroke="black" stroke-width="3" stroke-linecap="round" stroke-linejoin="round"/>
<path d="M19 38.33C20.1484 38.993 21.5131 39.1727 22.794 38.8295C24.0749 38.4863 25.1669 37.6484 25.83 36.5" stroke="black" stroke-width="3" stroke-linecap="round" stroke-linejoin="round"/>
<path d="M23.867 14.966C23.5539 14.4238 23.3725 13.8158 23.3373 13.1907C23.302 12.5657 23.414 11.9411 23.6642 11.3672C23.9144 10.7933 24.2958 10.2861 24.7777 9.88653C25.2596 9.48692 25.8286 9.20601 26.4389 9.0664C27.0492 8.92679 27.6837 8.93237 28.2915 9.08271C28.8992 9.23304 29.4631 9.52392 29.938 9.93195C30.4128 10.34 30.7852 10.8538 31.0252 11.432C31.2653 12.0102 31.3662 12.6366 31.32 13.261C32.3155 13.462 33.2261 13.9613 33.9308 14.6926C34.6355 15.4239 35.1008 16.3524 35.2648 17.3546C35.4288 18.3568 35.2837 19.3852 34.8489 20.303C34.4141 21.2207 33.7101 21.9843 32.8306 22.4921C31.9512 22.9999 30.9379 23.2279 29.9257 23.1457C28.9135 23.0635 27.9503 22.675 27.1643 22.0319C26.3783 21.3889 25.8068 20.5217 25.5257 19.5458C25.2447 18.5699 25.2674 17.5316 25.591 16.569C24.8679 16.2206 24.267 15.6619 23.867 14.966Z" stroke="black" stroke-width="3" stroke-linecap="round" stroke-linejoin="round"/>
<path d="M9.77295 26.409C9.77295 26.409 14.2399 24.146 15.7079 28.709C17.1749 33.27 21.6419 31.007 21.6419 31.007" stroke="black" stroke-width="3" stroke-linecap="round" stroke-linejoin="round"/>
</svg>
