<svg width="48" height="48" viewBox="0 0 48 48" fill="none" xmlns="http://www.w3.org/2000/svg">
<path d="M42.615 14.604C44.572 14.766 46.01 16.414 45.933 18.377C45.716 23.911 44.998 28.424 44.233 31.807C43.413 35.436 41.153 38.281 37.991 39.677C38.718 40.269 39.621 41.237 39.889 42.535C40.132 43.715 39.009 44.578 37.806 44.655C35.5 44.8 31.071 45 23.998 45C16.924 45 12.498 44.801 10.191 44.655C8.99 44.578 7.867 43.716 8.109 42.537C8.401 41.117 9.455 40.091 10.206 39.521C6.886 37.908 4.559 34.754 3.721 30.825C2.84235 26.7249 2.29459 22.5608 2.083 18.373C2.03002 17.4378 2.34601 16.5191 2.96306 15.8144C3.58011 15.1096 4.44899 14.675 5.383 14.604C8.7 14.33 14.638 14 24 14C33.362 14 39.299 14.33 42.615 14.604Z" stroke="black" stroke-width="3" stroke-linecap="round" stroke-linejoin="round"/>
<path d="M24.635 13.999L26.58 5.30601C26.872 4.00101 27.999 3.06401 29.325 3.24001C30.085 3.34001 31.011 3.51001 32.065 3.79301C33.119 4.07501 34.005 4.39201 34.714 4.68401C35.95 5.19401 36.457 6.57001 36.058 7.84601L34.085 14.146" stroke="black" stroke-width="3" stroke-linecap="round"/>
<path d="M21.088 36.124C21.115 37.021 21.658 37.799 22.548 37.914C22.941 37.964 23.423 38 24 38C24.577 38 25.059 37.964 25.453 37.914C26.343 37.799 26.885 37.021 26.913 36.124C26.94 35.212 26.97 33.85 26.987 31.987C28.85 31.97 30.212 31.94 31.124 31.912C32.021 31.885 32.799 31.342 32.914 30.452C32.964 30.059 33 29.577 33 29C33 28.423 32.964 27.941 32.914 27.547C32.799 26.657 32.021 26.115 31.124 26.087C29.7453 26.0484 28.3662 26.0238 26.987 26.013C26.9762 24.6338 26.9512 23.2547 26.912 21.876C26.885 20.979 26.342 20.201 25.452 20.086C25.06 20.036 24.578 20 24 20C23.422 20 22.941 20.036 22.547 20.086C21.657 20.201 21.115 20.979 21.087 21.876C21.0484 23.2547 21.0238 24.6338 21.013 26.013C19.15 26.03 17.788 26.06 16.876 26.088C15.979 26.115 15.201 26.658 15.086 27.548C15.036 27.941 15 28.423 15 29C15 29.577 15.036 30.059 15.086 30.453C15.201 31.343 15.979 31.885 16.876 31.913C17.788 31.94 19.15 31.97 21.013 31.987C21.03 33.85 21.06 35.212 21.088 36.124Z" stroke="black" stroke-width="3" stroke-linecap="round" stroke-linejoin="round"/>
</svg>
