<svg width="48" height="48" viewBox="0 0 48 48" fill="none" xmlns="http://www.w3.org/2000/svg">
<g clip-path="url(#clip0_1209_6618)">
<path d="M34.4657 44.3657C32.7778 46.0536 30.4885 47.0019 28.1014 47.0019C25.7143 47.0019 23.425 46.0536 21.7371 44.3657C20.0492 42.6778 19.1009 40.3885 19.1009 38.0014C19.1009 35.6143 20.0492 33.325 21.7371 31.6371L31.6376 21.7366C33.3255 20.0487 35.6148 19.1004 38.0019 19.1004C40.389 19.1004 42.6783 20.0487 44.3662 21.7366C46.0541 23.4245 47.0024 25.7138 47.0024 28.1009C47.0024 30.488 46.0541 32.7773 44.3662 34.4652L34.4657 44.3657Z" stroke="#7ED957" stroke-width="2.0001" stroke-linecap="round" stroke-linejoin="round"/>
<path d="M26.6873 26.6862L39.416 39.4149" stroke="#7ED957" stroke-width="2.0001" stroke-linecap="round" stroke-linejoin="round"/>
<path d="M21.001 14.1291V21.0014L12.0006 24.0016" stroke="#7ED957" stroke-width="2.0001" stroke-linecap="round" stroke-linejoin="round"/>
<path d="M12.4567 39.09C9.58103 37.7297 7.07136 35.7031 5.13597 33.1784C3.20058 30.6537 1.89531 27.7038 1.32852 24.5736C0.761724 21.4433 0.949752 18.2231 1.87699 15.18C2.80424 12.137 4.44395 9.35909 6.66 7.07682C8.87606 4.79454 11.6045 3.07378 14.6189 2.05737C17.6333 1.04096 20.8467 0.758229 23.9923 1.23264C27.1378 1.70706 30.1249 2.92494 32.7054 4.78517C35.286 6.64541 37.3856 9.09435 38.8299 11.9287" stroke="#7ED957" stroke-width="2.0001" stroke-linecap="round" stroke-linejoin="round"/>
<path d="M32.3156 9.68573L30.9015 11.0998" stroke="#7ED957" stroke-width="2.0001" stroke-linecap="round" stroke-linejoin="round"/>
<path d="M9.68643 32.3152L11.1005 30.9012" stroke="#7ED957" stroke-width="2.0001" stroke-linecap="round" stroke-linejoin="round"/>
<path d="M5.00024 21.0003H7.00034" stroke="#7ED957" stroke-width="2.0001" stroke-linecap="round" stroke-linejoin="round"/>
<path d="M9.68643 9.68573L11.1005 11.0998" stroke="#7ED957" stroke-width="2.0001" stroke-linecap="round" stroke-linejoin="round"/>
<path d="M21.001 4.74939V6.24946" stroke="#7ED957" stroke-width="2.0001" stroke-linecap="round" stroke-linejoin="round"/>
</g>
<defs>
<clipPath id="clip0_1209_6618">
<rect width="48.0023" height="48.0023" fill="white"/>
</clipPath>
</defs>
</svg>
