<svg width="133" height="15" viewBox="0 0 133 15" fill="none" xmlns="http://www.w3.org/2000/svg">
<path d="M1.87201 8.78401V14.256H6.3777e-06V0.216011H4.15801C6.26401 0.216011 8.65801 0.918011 8.65801 4.32001V4.68001C8.65801 8.10001 6.26401 8.78401 4.15801 8.78401H1.87201ZM1.87201 7.14601H4.21201C5.29201 7.14601 6.75001 6.75001 6.75001 4.62601V4.39201C6.75001 2.26801 5.29201 1.87201 4.21201 1.87201H1.87201V7.14601ZM18.0889 14.256H10.5469V0.216011H12.4189V12.6H18.0889V14.256ZM23.8916 14.472C20.5976 14.472 19.1756 13.14 19.1756 9.88201V0.216011H21.0476V9.79201C21.0476 12.024 21.9116 12.816 23.8916 12.816C25.8536 12.816 26.7176 12.024 26.7176 9.79201V0.216011H28.5896V9.88201C28.5896 13.14 27.1676 14.472 23.8916 14.472ZM41.5939 3.47401L38.0659 14.256H36.2479L32.7199 3.47401L32.7919 6.48001V14.256H30.9199V0.216011H33.6379L37.1479 11.016L40.6759 0.216011H43.3939V14.256H41.5219V6.48001L41.5939 3.47401ZM47.6806 8.78401V14.256H45.8086V0.216011H49.9666C52.0726 0.216011 54.4666 0.918011 54.4666 4.32001V4.68001C54.4666 8.10001 52.0726 8.78401 49.9666 8.78401H47.6806ZM47.6806 7.14601H50.0206C51.1006 7.14601 52.5586 6.75001 52.5586 4.62601V4.39201C52.5586 2.26801 51.1006 1.87201 50.0206 1.87201H47.6806V7.14601ZM61.921 0.216011V14.256H60.049V0.216011H61.921ZM66.0438 7.59601C66.0438 11.16 66.8718 12.816 69.0678 12.816H69.1938C71.0658 12.816 71.8218 11.628 71.8218 9.59401H73.7118V9.77401C73.7118 12.924 72.1818 14.472 69.0678 14.472C65.7018 14.472 64.1178 12.456 64.1178 7.59601V6.87601C64.1178 2.01601 65.7018 1.09673e-05 69.0678 1.09673e-05C72.1818 1.09673e-05 73.7118 1.54801 73.7118 4.86001V5.41801H71.8218C71.8218 2.86201 71.1018 1.65601 69.1938 1.65601H69.0678C66.8898 1.65601 66.0438 3.31201 66.0438 6.87601V7.59601ZM80.4777 14.472C77.0937 14.472 75.4557 12.456 75.4557 7.59601V6.87601C75.4557 2.01601 77.0937 1.09673e-05 80.4777 1.09673e-05C83.8437 1.09673e-05 85.4817 2.01601 85.4817 6.87601V7.59601C85.4817 12.456 83.8437 14.472 80.4777 14.472ZM80.4057 12.816H80.5317C82.6917 12.816 83.5557 11.16 83.5557 7.59601V6.87601C83.5557 3.31201 82.6917 1.65601 80.5317 1.65601H80.4057C78.2457 1.65601 77.3817 3.31201 77.3817 6.87601V7.59601C77.3817 11.16 78.2457 12.816 80.4057 12.816ZM97.1858 0.216011V14.256H95.1878L89.3018 3.52801L89.3738 6.64201V14.256H87.5918V0.216011H89.5898L95.4758 10.944L95.4038 7.83001V0.216011H97.1858ZM107.197 7.88401C104.137 7.47001 102.877 6.19201 102.877 4.10401V3.90601C102.877 1.51201 104.641 1.09673e-05 107.503 1.09673e-05C110.725 1.09673e-05 112.111 1.58401 112.111 4.62601V5.05801H110.239C110.239 2.68201 109.447 1.65601 107.521 1.65601H107.395C105.865 1.65601 104.803 2.48401 104.803 3.76201V3.90601C104.803 5.22001 105.451 5.99401 107.827 6.31801C110.887 6.73201 112.255 7.90201 112.255 10.206V10.404C112.255 12.96 110.473 14.472 107.503 14.472C104.389 14.472 102.733 12.852 102.733 9.77401V9.59401H104.605C104.605 11.826 105.739 12.816 107.431 12.816H107.575C109.267 12.816 110.329 11.916 110.329 10.494V10.35C110.329 8.92801 109.501 8.19001 107.197 7.88401ZM114.205 0.216011H122.305V1.87201H116.077V6.26401H121.405V7.92001H116.077V12.6H122.305V14.256H114.205V0.216011ZM128.725 1.87201V14.256H126.853V1.87201H123.397V0.216011H132.181V1.87201H128.725Z" fill="#121212"/>
</svg>
