<svg width="48" height="48" viewBox="0 0 48 48" fill="none" xmlns="http://www.w3.org/2000/svg">
<g clip-path="url(#clip0_1210_1796)">
<path d="M16.6 33.36C15.3599 32.3844 13.9588 31.6331 12.46 31.14C9.01147 30.1413 5.32731 30.3315 1.99998 31.68C1.9102 31.6926 1.82429 31.7248 1.74829 31.7742C1.67229 31.8236 1.60806 31.8891 1.56011 31.966C1.51217 32.043 1.48168 32.1295 1.47079 32.2195C1.45991 32.3095 1.46889 32.4008 1.49712 32.487C1.52534 32.5731 1.57211 32.652 1.63414 32.7181C1.69616 32.7843 1.77193 32.836 1.85611 32.8696C1.94029 32.9033 2.03082 32.9181 2.12133 32.913C2.21185 32.9078 2.30013 32.8829 2.37998 32.84C5.47151 31.9646 8.76397 32.119 11.76 33.28C12.9945 33.77 14.1476 34.4443 15.18 35.28C16.2066 36.0515 17.116 36.9677 17.88 38C19.7371 40.6189 20.7364 43.7494 20.74 46.96C20.7345 47.0526 20.7481 47.1453 20.7798 47.2325C20.8115 47.3197 20.8607 47.3994 20.9244 47.4669C20.9881 47.5343 21.0649 47.588 21.1502 47.6247C21.2354 47.6613 21.3272 47.6801 21.42 47.68C21.5119 47.6826 21.6035 47.6672 21.6894 47.6344C21.7754 47.6017 21.854 47.5523 21.9209 47.4892C21.9878 47.426 22.0415 47.3503 22.0791 47.2664C22.1167 47.1824 22.1374 47.0919 22.14 47C22.4407 43.4163 21.5931 39.8299 19.72 36.76C18.88 35.4582 17.825 34.3085 16.6 33.36Z" fill="black"/>
<path d="M13.48 40.9C12.9886 40.2022 12.3953 39.582 11.72 39.06C11.0608 38.5329 10.3258 38.1081 9.54 37.8C7.7627 37.1814 5.87531 36.9429 4 37.1C3.91857 37.0973 3.83741 37.1108 3.76116 37.1395C3.68492 37.1682 3.61508 37.2116 3.55564 37.2674C3.4962 37.3231 3.44833 37.39 3.41476 37.4642C3.38119 37.5385 3.36258 37.6186 3.36 37.7C3.35458 37.7805 3.36544 37.8611 3.3919 37.9373C3.41837 38.0134 3.45991 38.0835 3.51405 38.1432C3.56819 38.203 3.63381 38.2512 3.70699 38.285C3.78017 38.3188 3.85942 38.3375 3.94 38.34C5.58395 38.5541 7.17598 39.0622 8.64 39.84C9.22903 40.1527 9.79098 40.514 10.32 40.92C10.8444 41.3238 11.3329 41.7721 11.78 42.26C12.8535 43.5043 13.6632 44.9536 14.16 46.52C14.2114 46.6949 14.3255 46.8448 14.4805 46.9407C14.6355 47.0367 14.8205 47.072 15 47.04C15.0913 47.019 15.1775 46.9798 15.2534 46.9249C15.3294 46.8699 15.3935 46.8003 15.442 46.7201C15.4905 46.6398 15.5224 46.5507 15.5358 46.4579C15.5492 46.3652 15.5438 46.2707 15.52 46.18C15.2486 44.2883 14.551 42.4828 13.48 40.9Z" fill="black"/>
<path d="M25.36 22.56C26.8334 21.5191 27.9117 20.0109 28.42 18.28C28.905 16.5521 28.756 14.7077 28 13.08C27.7563 12.5615 27.4086 12.0987 26.9786 11.7203C26.5485 11.3418 26.0452 11.0558 25.5 10.88C25.4495 10.4214 25.4495 9.9586 25.5 9.49998C25.536 8.96552 25.7081 8.44915 26 7.99998C26.5207 7.28391 27.1029 6.6147 27.74 5.99998C28.2544 5.41946 28.6426 4.7384 28.88 3.99998C29.0845 3.2961 29.0546 2.54483 28.7948 1.85941C28.5351 1.174 28.0596 0.591592 27.44 0.199983C27.3841 0.142529 27.3172 0.0968629 27.2434 0.0656805C27.1695 0.0344982 27.0902 0.0184326 27.01 0.0184326C26.9298 0.0184326 26.8505 0.0344982 26.7766 0.0656805C26.7028 0.0968629 26.6359 0.142529 26.58 0.199983C26.522 0.257613 26.4759 0.326161 26.4444 0.401677C26.413 0.477192 26.3968 0.558183 26.3968 0.639983C26.3968 0.721783 26.413 0.802774 26.4444 0.87829C26.4759 0.953805 26.522 1.02235 26.58 1.07998C26.8496 1.35778 27.0328 1.70784 27.1073 2.0877C27.1819 2.46756 27.1446 2.8609 27 3.21998C26.7253 3.65354 26.3884 4.04438 26 4.37998C25.2278 5.11567 24.5554 5.94945 24 6.85998C23.6831 7.55531 23.539 8.31695 23.58 9.07998C23.6245 9.63251 23.7114 10.1808 23.84 10.72C22.538 10.803 21.2848 11.2461 20.22 12C18.3636 13.3514 17.0289 15.3006 16.44 17.52C16.249 18.6254 16.4045 19.7629 16.885 20.7765C17.3656 21.7902 18.1478 22.6305 19.1245 23.1823C20.1012 23.7342 21.2246 23.9706 22.3409 23.8592C23.4571 23.7478 24.5117 23.294 25.36 22.56ZM18.18 18C18.7049 16.5981 19.6127 15.3716 20.8 14.46C21.2925 13.985 21.8758 13.6143 22.5151 13.3703C23.1543 13.1263 23.8363 13.0139 24.52 13.04C24.9263 13.1268 25.2997 13.3269 25.5971 13.6171C25.8944 13.9074 26.1034 14.2759 26.2 14.68C26.5618 15.6511 26.6449 16.7041 26.44 17.72C26.1539 19.0842 25.4136 20.311 24.34 21.2C21.74 23.24 17.1 21.38 18.18 18Z" fill="black"/>
<path d="M46.96 18.22C46.8412 18.1075 46.6837 18.0448 46.52 18.0448C46.3563 18.0448 46.1989 18.1075 46.08 18.22C45.703 18.6438 45.3927 19.1227 45.16 19.64C44.7008 20.7677 44.3133 21.9234 44 23.1C43.8752 23.6359 43.6053 24.1272 43.22 24.52C42.6611 25.0049 41.9585 25.293 41.22 25.34C40.1884 25.4579 39.1785 25.7205 38.22 26.12C37.7879 26.3312 37.3955 26.6154 37.06 26.96C36.3887 26.3576 35.5659 25.9496 34.68 25.78C32.6053 25.6017 30.5383 26.2004 28.88 27.46C27.3586 28.4694 26.1744 29.9114 25.48 31.6C24.4874 30.1956 23.3177 28.9251 22 27.82C20.2535 26.4438 18.2854 25.3752 16.18 24.66C13.8755 23.8922 11.4438 23.5797 9.02003 23.74C9.44091 23.4714 9.83005 23.1561 10.18 22.8C11.2302 21.6784 11.8101 20.1965 11.8 18.66C11.7983 17.8498 11.6182 17.0499 11.2725 16.3171C10.9269 15.5844 10.4241 14.9367 9.80003 14.42C9.3215 14.0437 8.76976 13.7712 8.18003 13.62C8.40167 13.3845 8.60243 13.1302 8.78003 12.86C9.43818 12.0557 9.77961 11.0385 9.74003 10C9.60082 9.05897 9.18285 8.18123 8.54003 7.48001C8.22003 7.08001 7.86003 6.70001 7.54003 6.28001C7.25776 5.95804 7.04043 5.58451 6.90003 5.18001C6.72218 4.74412 6.72218 4.2559 6.90003 3.82001C7.20057 3.20697 7.56959 2.62996 8.00003 2.10001C8.05808 2.04238 8.10416 1.97383 8.1356 1.89831C8.16704 1.8228 8.18322 1.74181 8.18322 1.66001C8.18322 1.57821 8.16704 1.49722 8.1356 1.4217C8.10416 1.34618 8.05808 1.27764 8.00003 1.22001C7.94566 1.15994 7.8793 1.11193 7.80524 1.07907C7.73118 1.04621 7.65105 1.02924 7.57003 1.02924C7.48901 1.02924 7.40888 1.04621 7.33482 1.07907C7.26076 1.11193 7.1944 1.15994 7.14003 1.22001C6.45114 1.83516 5.85793 2.5497 5.38003 3.34001C4.98717 4.0092 4.83211 4.79156 4.94003 5.56001C5.19437 6.64933 5.72471 7.6549 6.48003 8.48001C6.76003 8.80001 7.06003 9.12001 7.32003 9.44001C7.52171 9.66073 7.67801 9.91896 7.78003 10.2C7.87566 10.8237 7.74818 11.4611 7.42003 12C7.32638 12.2105 7.21251 12.4115 7.08003 12.6C6.96152 12.7953 6.81304 12.9708 6.64003 13.12C6.50847 13.232 6.42298 13.3887 6.40003 13.56C5.98869 13.6327 5.59081 13.7676 5.22003 13.96C4.5355 14.3074 3.93976 14.8072 3.47863 15.4209C3.01749 16.0346 2.70323 16.7458 2.56003 17.5C2.50975 18.0121 2.50975 18.5279 2.56003 19.04C2.59936 19.5391 2.67963 20.0341 2.80003 20.52C2.96845 21.2957 3.30277 22.0257 3.78003 22.66C4.23071 23.3209 4.83454 23.863 5.54003 24.24C5.54003 24.24 5.54003 24.24 5.66003 24.24C4.09077 24.6313 2.57836 25.2228 1.16003 26C1.01409 26.0769 0.903495 26.2073 0.851325 26.3638C0.799154 26.5203 0.809438 26.6909 0.88003 26.84C0.914141 26.9134 0.962757 26.9792 1.02295 27.0333C1.08314 27.0874 1.15367 27.1288 1.23028 27.155C1.30689 27.1812 1.388 27.1915 1.46873 27.1855C1.54946 27.1795 1.62814 27.1572 1.70003 27.12C3.83651 26.1583 6.14351 25.6328 8.48574 25.5744C10.828 25.5161 13.1583 25.9259 15.34 26.78C17.1821 27.5068 18.9125 28.4899 20.48 29.7C22.0084 30.931 23.3551 32.372 24.48 33.98C27.2774 37.7856 28.5346 42.5072 28 47.2C27.9905 47.3746 28.0466 47.5464 28.1574 47.6817C28.2682 47.817 28.4256 47.9059 28.5986 47.931C28.7716 47.956 28.9478 47.9155 29.0924 47.8172C29.237 47.7189 29.3396 47.5701 29.38 47.4C30.0249 43.7413 29.6441 39.9756 28.28 36.52C29.2931 37.2648 30.4925 37.7151 31.7454 37.821C32.9984 37.9268 34.2563 37.6843 35.38 37.12C36.8095 36.4913 37.9514 35.3495 38.58 33.92C39.1897 32.3712 39.1897 30.6488 38.58 29.1C38.4253 28.7371 38.2379 28.389 38.02 28.06C38.8004 27.5862 39.7098 27.3694 40.62 27.44C41.4732 27.4612 42.3259 27.3806 43.16 27.2C43.7779 27.0175 44.3457 26.6959 44.82 26.26C45.308 25.8172 45.679 25.2607 45.9 24.64C46.1398 23.8136 46.2742 22.9601 46.3 22.1C46.2641 21.054 46.491 20.0157 46.96 19.08C47.0175 19.0241 47.0632 18.9572 47.0943 18.8834C47.1255 18.8095 47.1416 18.7302 47.1416 18.65C47.1416 18.5698 47.1255 18.4905 47.0943 18.4166C47.0632 18.3428 47.0175 18.2759 46.96 18.22ZM6.12003 23.18C5.62757 22.8482 5.22272 22.4022 4.94003 21.88C4.66556 21.3565 4.48932 20.7871 4.42003 20.2C4.38977 19.8073 4.38977 19.4128 4.42003 19.02C4.43886 18.6755 4.49246 18.3337 4.58003 18C4.68492 17.5617 4.88918 17.1534 5.17701 16.8066C5.46485 16.4598 5.82855 16.1838 6.24003 16C6.58116 15.822 6.96638 15.7463 7.3495 15.7817C7.73262 15.8172 8.09738 15.9624 8.40003 16.2C8.79286 16.4856 9.11823 16.8539 9.35322 17.279C9.58821 17.704 9.72707 18.1754 9.76003 18.66C9.85638 19.7291 9.5417 20.7947 8.88003 21.64C8.63043 21.9428 8.34879 22.2178 8.04003 22.46C7.75146 22.6926 7.41776 22.8629 7.06003 22.96C6.88044 22.9985 6.72318 23.1061 6.62216 23.2595C6.52114 23.4129 6.48446 23.5998 6.52003 23.78C6.54503 23.8568 6.57857 23.9306 6.62003 24H6.22003H6.32003C6.39185 23.8623 6.41116 23.7032 6.37436 23.5524C6.33757 23.4015 6.24717 23.2692 6.12003 23.18ZM36.86 33.18C36.4683 34.2173 35.7058 35.0724 34.72 35.58C32.46 36.84 28.52 34.94 28.3 34.8C27.9046 34.5938 27.5895 34.2613 27.4047 33.8555C27.2198 33.4496 27.176 32.9937 27.28 32.56C27.8792 31.1616 28.9472 30.0159 30.3 29.32C31.4758 28.4139 32.9377 27.9597 34.42 28.04C34.9119 28.1439 35.3704 28.3682 35.7543 28.6929C36.1383 29.0175 36.4357 29.4322 36.62 29.9C37.1111 30.9451 37.1966 32.1354 36.86 33.24V33.18Z" fill="black"/>
</g>
<defs>
<clipPath id="clip0_1210_1796">
<rect width="48" height="48" fill="white"/>
</clipPath>
</defs>
</svg>
