<svg width="48" height="48" viewBox="0 0 48 48" fill="none" xmlns="http://www.w3.org/2000/svg">
<g clip-path="url(#clip0_1209_6609)">
<path d="M25.0012 0.999268C25.0012 6.83431 27.3192 12.4304 31.4452 16.5564C35.5712 20.6824 41.1672 23.0003 47.0023 23.0003" stroke="black" stroke-width="2.0001" stroke-linecap="round" stroke-linejoin="round"/>
<path d="M47.0023 11.9998C44.0848 11.9998 41.2867 10.8408 39.2237 8.77782C37.1607 6.71482 36.0018 3.91679 36.0018 0.999268" stroke="black" stroke-width="2.0001" stroke-linecap="round" stroke-linejoin="round"/>
<path d="M26.9013 25.1005C26.3271 25.8347 25.4912 26.3184 24.5686 26.4504C23.6459 26.5824 22.708 26.3524 21.951 25.8086C21.4045 25.0527 21.1727 24.1142 21.3044 23.1909C21.4361 22.2675 21.9211 21.4313 22.6571 20.8583C23.2315 20.1245 24.0673 19.6412 24.9899 19.5092C25.9124 19.3773 26.8502 19.607 27.6073 20.1503C28.1538 20.9061 28.3856 21.8446 28.2539 22.768C28.1222 23.6913 27.6373 24.5276 26.9013 25.1005Z" stroke="black" stroke-width="2.0001" stroke-linecap="round" stroke-linejoin="round"/>
<path d="M21.9511 25.8015C20.1625 25.8448 18.4593 26.5756 17.1954 27.842C15.9316 29.1084 15.2044 30.8131 15.1648 32.6018C14.9467 39.1621 7.32037 38.3221 7.32037 38.3221" stroke="black" stroke-width="2.0001" stroke-linecap="round" stroke-linejoin="round"/>
<path d="M11.8446 20.2938C11.2704 21.028 10.4346 21.5117 9.5119 21.6437C8.58924 21.7756 7.6513 21.5456 6.89435 21.0018C6.34786 20.246 6.11605 19.3075 6.24775 18.3841C6.37945 17.4608 6.86437 16.6245 7.60038 16.0516C8.17332 15.3156 9.00955 14.8307 9.93293 14.699C10.8563 14.5673 11.7948 14.7991 12.5506 15.3455C13.0965 16.1013 13.3279 17.0393 13.1963 17.9622C13.0646 18.8851 12.58 19.7209 11.8446 20.2938Z" stroke="black" stroke-width="2.0001" stroke-linecap="round" stroke-linejoin="round"/>
<path d="M6.89432 21.0003C4.48754 21.7112 2.40344 23.238 1.00003 25.3185" stroke="black" stroke-width="2.0001" stroke-linecap="round" stroke-linejoin="round"/>
<path d="M22.0001 42.8401C22.2787 43.1187 22.6186 43.3305 23.0004 43.4635C23.3821 43.5965 23.7983 43.6481 24.2251 43.6153C24.6519 43.5824 25.081 43.4659 25.4879 43.2722C25.8948 43.0785 26.2715 42.8116 26.5966 42.4865C26.9216 42.1615 27.1885 41.7848 27.3822 41.3779C27.5759 40.971 27.6925 40.5419 27.7253 40.1151C27.7581 39.6883 27.7066 39.2721 27.5736 38.8903C27.4406 38.5086 27.2287 38.1687 26.9501 37.8901C26.6715 37.6115 26.3316 37.3997 25.9499 37.2667C25.5681 37.1337 25.152 37.0821 24.7251 37.1149C24.2983 37.1478 23.8692 37.2644 23.4623 37.458C23.0554 37.6517 22.6787 37.9187 22.3537 38.2437C22.0287 38.5687 21.7617 38.9454 21.568 39.3523C21.3744 39.7592 21.2578 40.1883 21.225 40.6151C21.1921 41.0419 21.2437 41.4581 21.3767 41.8399C21.5097 42.2216 21.7215 42.5615 22.0001 42.8401Z" stroke="black" stroke-width="2.0001" stroke-linecap="round" stroke-linejoin="round"/>
<path d="M22.001 42.8399C21.6817 44.4264 20.8871 45.8781 19.7229 47.0021" stroke="black" stroke-width="2.0001" stroke-linecap="round" stroke-linejoin="round"/>
</g>
<defs>
<clipPath id="clip0_1209_6609">
<rect width="48.0023" height="48.0023" fill="white"/>
</clipPath>
</defs>
</svg>
