<svg width="48" height="48" viewBox="0 0 48 48" fill="none" xmlns="http://www.w3.org/2000/svg">
<g clip-path="url(#clip0_1209_7204)">
<path fill-rule="evenodd" clip-rule="evenodd" d="M18.131 24.41H14.291V32.98C14.291 34.305 13.415 35.486 12.093 35.585C11.532 35.628 10.971 35.64 10.44 35.64C9.724 35.64 9.112 35.61 8.598 35.567C7.326 35.458 6.5 34.357 6.5 33.08V5.744C6.5 4.355 7.456 3.589 8.694 3.177C11.558 2.134 14.259 2 17.284 2C24.426 2 31.832 5.06 31.832 13.231C31.832 17.189 29.579 20.522 26.234 22.453C27.571 24.112 29.491 26.513 30.623 28.01C31.963 26.252 34.308 23.212 35.78 21.308C36.57 20.285 37.935 19.878 39.065 20.505C39.515 20.755 39.999 21.055 40.462 21.403C40.876 21.713 41.229 22.091 41.522 22.473C42.39 23.601 42.079 25.14 41.162 26.227C39.486 28.212 36.81 31.367 35.426 32.927C36.609 34.499 37.81 36.057 39.01 37.617C39.7564 38.5847 40.5007 39.5541 41.243 40.525C42.128 41.685 42.053 43.338 40.927 44.267C40.6 44.537 40.266 44.788 39.957 44.977C39.24 45.414 38.315 45.62 37.525 45.715C36.465 45.842 35.459 45.338 34.791 44.505C33.16 42.469 31.201 39.708 29.986 37.943C29.2074 39.0487 28.4264 40.1527 27.643 41.255C26.882 42.328 26.12 43.401 25.363 44.477C24.575 45.599 23.252 46.289 21.936 45.902C21.333 45.725 20.698 45.468 20.162 45.092C19.656 44.738 19.145 44.172 18.708 43.61C17.924 42.6 18.074 41.197 18.913 40.232C20.506 38.4 23.103 35.413 24.782 33.478C24.4907 33.1116 24.2238 32.7264 23.983 32.325L18.131 24.41ZM17.605 18.045H14.182V8.899C15.186 8.756 16.216 8.632 17.231 8.632C20.306 8.632 23.488 9.792 23.488 13.338C23.488 16.632 20.542 18.045 17.605 18.045Z" stroke="black" stroke-width="3" stroke-linecap="round" stroke-linejoin="round"/>
</g>
<defs>
<clipPath id="clip0_1209_7204">
<rect width="48" height="48" fill="white"/>
</clipPath>
</defs>
</svg>
