<svg width="48" height="48" viewBox="0 0 48 48" fill="none" xmlns="http://www.w3.org/2000/svg">
<path d="M21.7727 42.0955C32.6972 42.0955 41.5532 33.2396 41.5532 22.3151C41.5532 11.3907 32.6972 2.53467 21.7727 2.53467C10.8483 2.53467 1.9923 11.3907 1.9923 22.3151C1.9923 33.2396 10.8483 42.0955 21.7727 42.0955Z" stroke="black" stroke-width="2.0001" stroke-linecap="round" stroke-linejoin="round"/>
<path d="M36.1834 35.8551L46.0095 45.4672" stroke="black" stroke-width="2.0001" stroke-linecap="round" stroke-linejoin="round"/>
<path d="M14.117 33.7378V26.7883C12.5843 25.3684 11.5153 23.5193 11.0498 21.4824C10.5842 19.4456 10.7437 17.3157 11.5074 15.3709C12.271 13.4261 13.6034 11.7568 15.3305 10.5809C17.0576 9.40509 19.0991 8.77736 21.1884 8.7797C29.1074 8.7797 30.8167 15.2999 33.6397 22.6231C33.6881 22.7491 33.7051 22.8851 33.6893 23.0193C33.6735 23.1533 33.6253 23.2815 33.5488 23.3929C33.4724 23.5041 33.37 23.5953 33.2506 23.6583C33.1312 23.7213 32.9982 23.7543 32.8632 23.7545H30.7557V27.0823C30.7557 27.9649 30.4051 28.8112 29.7811 29.4354C29.157 30.0594 28.3106 30.4101 27.428 30.4101H25.7641V33.7378" stroke="black" stroke-width="2.0001" stroke-linecap="round" stroke-linejoin="round"/>
<path d="M18.1835 17.783C18.1835 16.2453 19.4137 14.8614 21.1052 14.8614C22.6429 14.8614 24.027 16.0915 24.027 17.783C24.027 19.3208 22.7967 20.7047 21.1052 20.7047V22.0016" stroke="black" stroke-width="2.0001" stroke-miterlimit="10" stroke-linecap="round" stroke-linejoin="round"/>
<path d="M21.1061 26.2625C20.9051 26.2625 20.7043 26.4635 20.7043 26.6645C20.7043 26.8655 20.9051 27.0664 21.1061 27.0664" stroke="black" stroke-width="2.0001" stroke-miterlimit="10" stroke-linecap="round" stroke-linejoin="round"/>
<path d="M21.1059 26.2625C21.3069 26.2625 21.508 26.4635 21.508 26.6645C21.508 26.8655 21.3069 27.0664 21.1059 27.0664" stroke="black" stroke-width="2.0001" stroke-miterlimit="10" stroke-linecap="round" stroke-linejoin="round"/>
</svg>
