<svg width="48" height="48" viewBox="0 0 48 48" fill="none" xmlns="http://www.w3.org/2000/svg">
<g clip-path="url(#clip0_1210_1790)">
<path fill-rule="evenodd" clip-rule="evenodd" d="M4.41993 21.02C4.41993 22.86 4.27993 24.7 4.25993 26.54C4.23993 28.38 4.25993 30.22 4.37993 32.06C4.47993 34.3 4.37993 36.7 4.63993 39.06C4.74213 40.6437 5.01026 42.2123 5.43993 43.74C5.37132 43.826 5.32959 43.9304 5.31993 44.04C5.32252 44.1319 5.3432 44.2224 5.38079 44.3064C5.41839 44.3903 5.47215 44.466 5.53902 44.5292C5.60588 44.5923 5.68454 44.6417 5.77049 44.6744C5.85644 44.7072 5.948 44.7226 6.03993 44.72C6.99993 44.72 7.93993 44.76 8.85993 44.84C11.0999 45 13.3399 45.28 15.5599 45.42C17.3399 45.42 19.0999 45.6 20.8799 45.62C23.5599 45.62 26.2399 45.62 28.8799 45.46C33.3599 45.22 37.7999 44.72 42.1999 44.04C42.4106 44.0101 42.6013 43.8995 42.732 43.7315C42.8626 43.5636 42.9228 43.3515 42.8999 43.14C42.87 42.9293 42.7594 42.7386 42.5915 42.6079C42.4236 42.4773 42.2114 42.4171 41.9999 42.44C39.3799 42.66 36.7399 42.76 33.9999 42.84H24.7399H19.1599C17.9199 42.84 16.6999 42.84 15.4599 42.96L6.85993 43.14C6.59118 41.7228 6.46389 40.2823 6.47993 38.84C6.47993 36.5 6.71993 34.12 6.77993 31.88C6.83993 29.64 6.77993 27.5 6.77993 25.3V20.7C6.77993 17.54 6.49993 15.16 6.53993 11.98C6.11993 10.82 5.03993 11.32 4.95993 12.24C4.71993 15.6 4.59993 17.78 4.41993 21.02Z" fill="black"/>
<path fill-rule="evenodd" clip-rule="evenodd" d="M40.1999 13.52C40.3599 16.3 39.9999 19.12 39.9999 22C40.0999 24 40.1999 26.12 40.3399 28.18C40.5599 31.26 40.8999 34.32 41.0599 37.4C41.0599 38.7333 41.0999 40.0133 41.1799 41.24C41.1951 41.4469 41.2882 41.6404 41.4403 41.7814C41.5925 41.9224 41.7925 42.0005 41.9999 42C42.105 42.0026 42.2096 41.9846 42.3076 41.9468C42.4057 41.909 42.4954 41.8523 42.5716 41.7799C42.6477 41.7075 42.7088 41.6207 42.7515 41.5247C42.7941 41.4286 42.8174 41.3251 42.8199 41.22C43.0399 37.98 43.1199 34.72 43.0799 31.48V27.6C43.0799 25.6 42.8399 23.74 42.7399 21.8C42.4999 19.42 42.4599 17 42.1599 14.6C42.0166 13.3269 41.7623 12.0688 41.3999 10.84C40.7799 9.85999 39.8799 10.18 39.9599 11.34C40.0885 12.0605 40.1687 12.7888 40.1999 13.52Z" fill="black"/>
<path fill-rule="evenodd" clip-rule="evenodd" d="M47.72 7.67998C47.7405 7.38701 47.7405 7.09296 47.72 6.79998C47.7497 6.5074 47.7497 6.21257 47.72 5.91998C47.5666 5.32979 47.3797 4.74884 47.16 4.17998C47.16 4.17998 47.26 4.01998 47.26 3.93998C47.26 3.83322 47.2387 3.72753 47.1972 3.62914C47.1558 3.53076 47.0951 3.44166 47.0186 3.36711C46.9422 3.29255 46.8517 3.23405 46.7523 3.19504C46.6529 3.15603 46.5467 3.13731 46.44 3.13998C39.84 3.13998 33.26 2.61998 26.66 2.41998H18.14C14.86 2.55998 11.38 2.59998 7.97999 2.97998C5.70063 3.22159 3.45009 3.68375 1.25999 4.35998C1.1489 4.39683 1.04961 4.46255 0.972292 4.55041C0.894974 4.63827 0.84241 4.74511 0.819988 4.85998C0.749613 4.92598 0.695069 5.00703 0.660435 5.09708C0.625801 5.18713 0.611974 5.28384 0.619988 5.37998C0.376234 5.87759 0.16902 6.39229 -1.22357e-05 6.91998C-0.0297811 7.14567 -0.0297811 7.37429 -1.22357e-05 7.59998C0.00235796 7.83013 0.0359992 8.05889 0.0999878 8.27998C0.979988 11.78 1.27999 11.3 15.5 10.44C19.18 10.32 22.9 10.44 26.6 10.28C30.3 10.12 34 9.99998 37.7 9.99998H47.1H47.24C48.72 10.1 47.56 8.61998 47.72 7.67998ZM45.18 7.67998C45.18 7.89998 45.28 8.09998 45.32 8.29998C39.62 7.99998 34 7.61998 28.16 7.59998C24 7.57998 19.64 7.75998 15.4 7.99998L2.33999 9.37998C2.43999 9.01998 2.55999 8.65998 2.63999 8.25998C2.66064 8.03379 2.66064 7.80618 2.63999 7.57998C2.65929 7.35373 2.65929 7.12624 2.63999 6.89998C2.50635 6.46762 2.33917 6.04634 2.13999 5.63998C4.11257 5.20386 6.12097 4.94946 8.13999 4.87998C11.52 4.73998 14.94 4.87998 18.14 5.03998C21.92 5.03998 25.68 5.03998 29.44 5.15998C34.78 5.15998 40.14 5.03998 45.44 4.79998C45.3071 5.20467 45.2068 5.61932 45.14 6.03998C45.1091 6.32582 45.1091 6.61415 45.14 6.89998C45.1 7.13998 45.14 7.41998 45.18 7.69998V7.67998Z" fill="black"/>
<path fill-rule="evenodd" clip-rule="evenodd" d="M22.5999 30.78C22.2041 30.7026 21.8029 30.6558 21.3999 30.64L19.2599 30.76L17.7799 31.06C16.4238 31.4105 15.1785 32.0986 14.1599 33.06C13.6895 33.4969 13.3773 34.0776 13.2723 34.711C13.1673 35.3444 13.2755 35.9947 13.5799 36.56C14.0349 37.4511 14.7839 38.1576 15.6999 38.56C16.4236 38.9286 17.1991 39.1849 17.9999 39.32C18.9008 39.376 19.7894 39.5578 20.6399 39.86C21.3399 40.16 22.0599 40.82 22.8399 41.08C23.4094 41.2929 24.0302 41.3278 24.6199 41.18C25.0312 41.0855 25.419 40.9086 25.7599 40.66C26.1896 40.3645 26.5854 40.0224 26.9399 39.64C27.2007 39.2886 27.5442 39.0069 27.9399 38.82C29.3144 38.5251 30.6548 38.0895 31.9399 37.52C32.6159 37.1042 33.1629 36.5087 33.5199 35.8C33.6971 35.4679 33.8029 35.1023 33.8304 34.7269C33.858 34.3515 33.8067 33.9744 33.6799 33.62C33.3686 32.7813 32.8281 32.0468 32.1199 31.5C30.9555 30.6251 29.5704 30.0918 28.1199 29.96C27.0784 29.8932 26.0327 29.9877 25.0199 30.24C25.0199 29.32 25.1599 28.36 25.2199 27.3C25.7999 27.2 26.3799 27.08 27.0199 27C27.6599 26.92 28.0999 26.86 28.6199 26.84C28.953 26.8207 29.2869 26.8207 29.6199 26.84C30.3362 26.8241 31.0383 27.0417 31.6199 27.46C31.6895 27.5388 31.774 27.6031 31.8684 27.6493C31.9629 27.6954 32.0655 27.7225 32.1704 27.729C32.2754 27.7355 32.3806 27.7213 32.48 27.6872C32.5794 27.653 32.6711 27.5996 32.7499 27.53C32.8287 27.4604 32.893 27.376 32.9392 27.2815C32.9854 27.1871 33.0125 27.0844 33.019 26.9795C33.0255 26.8746 33.0112 26.7694 32.9771 26.67C32.9429 26.5705 32.8895 26.4788 32.8199 26.4C32.3924 25.7793 31.8307 25.2628 31.1763 24.8889C30.5219 24.515 29.7917 24.2932 29.0399 24.24C28.2028 24.1631 27.3588 24.2584 26.5599 24.52C26.1235 24.6836 25.702 24.8843 25.2999 25.12V23.92V21.92C25.8999 21.92 26.4599 21.7 27.0999 21.62L28.6999 21.44C29.033 21.4204 29.3669 21.4204 29.6999 21.44C30.4175 21.415 31.1224 21.6335 31.6999 22.06C31.8528 22.2079 32.0572 22.2905 32.2699 22.2905C32.4826 22.2905 32.687 22.2079 32.8399 22.06C32.9865 21.9105 33.0686 21.7094 33.0686 21.5C33.0686 21.2906 32.9865 21.0895 32.8399 20.94C32.4189 20.313 31.8587 19.7918 31.203 19.4171C30.5473 19.0424 29.8138 18.8244 29.0599 18.78C28.2228 18.7031 27.3788 18.7984 26.5799 19.06C26.09 19.2268 25.6204 19.4482 25.1799 19.72C25.1799 18.72 25.0599 17.72 24.9999 16.94L26.4399 16.78L27.6399 16.66H28.3799C28.8852 16.5967 29.3963 16.7174 29.8199 17C29.8944 17.0756 29.9831 17.1356 30.081 17.1766C30.1788 17.2176 30.2838 17.2387 30.3899 17.2387C30.496 17.2387 30.6011 17.2176 30.6989 17.1766C30.7968 17.1356 30.8855 17.0756 30.9599 17C31.0349 16.9273 31.0946 16.8403 31.1353 16.7441C31.176 16.6479 31.197 16.5445 31.197 16.44C31.197 16.3355 31.176 16.2321 31.1353 16.136C31.0946 16.0398 31.0349 15.9527 30.9599 15.88C30.6417 15.3624 30.2098 14.9241 29.6969 14.5984C29.184 14.2726 28.6037 14.068 27.9999 14C27.3252 13.93 26.6433 14.005 25.9999 14.22C25.6108 14.3812 25.2361 14.5752 24.8799 14.8C24.8799 14.14 24.7599 13.56 24.6999 13.18C24.7182 13.0657 24.7114 12.9489 24.6801 12.8374C24.6488 12.726 24.5937 12.6228 24.5186 12.5347C24.4435 12.4467 24.3502 12.376 24.2451 12.3275C24.14 12.279 24.0257 12.2539 23.9099 12.2539C23.7942 12.2539 23.6799 12.279 23.5748 12.3275C23.4697 12.376 23.3764 12.4467 23.3013 12.5347C23.2262 12.6228 23.1711 12.726 23.1398 12.8374C23.1085 12.9489 23.1017 13.0657 23.1199 13.18V14.58C22.8304 14.4069 22.5298 14.2532 22.2199 14.12C21.577 13.9032 20.8947 13.8281 20.2199 13.9C19.5976 13.9398 18.9941 14.1298 18.4612 14.4537C17.9283 14.7776 17.4818 15.2258 17.1599 15.76C17.0795 15.8295 17.015 15.9154 16.9708 16.0121C16.9266 16.1087 16.9037 16.2137 16.9037 16.32C16.9037 16.4263 16.9266 16.5313 16.9708 16.6279C17.015 16.7246 17.0795 16.8105 17.1599 16.88C17.2327 16.955 17.3197 17.0146 17.4159 17.0553C17.5121 17.0961 17.6155 17.117 17.7199 17.117C17.8244 17.117 17.9278 17.0961 18.024 17.0553C18.1202 17.0146 18.2072 16.955 18.2799 16.88C18.7049 16.6007 19.2149 16.4803 19.7199 16.54H20.4599L21.6599 16.66L22.9599 16.8C22.9599 17.64 22.9599 18.56 22.8399 19.54C22.4221 19.3079 21.9876 19.1074 21.5399 18.94C20.7476 18.68 19.9104 18.5848 19.0799 18.66C18.3257 18.7029 17.5917 18.9203 16.9357 19.2951C16.2798 19.6699 15.7198 20.1919 15.2999 20.82C15.1534 20.9695 15.0713 21.1706 15.0713 21.38C15.0713 21.5894 15.1534 21.7905 15.2999 21.94C15.4562 22.0892 15.6639 22.1724 15.8799 22.1724C16.096 22.1724 16.3037 22.0892 16.4599 21.94C17.0337 21.5061 17.7413 21.2868 18.4599 21.32C18.793 21.3004 19.1269 21.3004 19.4599 21.32L21.0799 21.5L22.7799 21.78V23.78V24.96C21.6929 24.2662 20.4022 23.9629 19.1199 24.1C18.3674 24.1503 17.6362 24.3709 16.9814 24.7451C16.3266 25.1192 15.7653 25.6372 15.3399 26.26C15.1921 26.4129 15.1094 26.6173 15.1094 26.83C15.1094 27.0427 15.1921 27.2471 15.3399 27.4C15.4962 27.5492 15.7039 27.6324 15.9199 27.6324C16.136 27.6324 16.3437 27.5492 16.4999 27.4C17.0782 26.9749 17.7826 26.7565 18.4999 26.78C18.833 26.7607 19.1669 26.7607 19.4999 26.78C20.0199 26.78 20.5599 26.88 21.1199 26.94C21.6799 27 22.2799 27.14 22.8799 27.24C22.8799 28.54 23.0399 29.74 23.1199 30.82L22.5999 30.78ZM27.9999 31.78C29.0814 31.925 30.0966 32.384 30.9199 33.1C31.2293 33.3695 31.4752 33.7042 31.6399 34.08C31.6848 34.1772 31.708 34.283 31.708 34.39C31.708 34.497 31.6848 34.6028 31.6399 34.7C31.3579 35.1275 30.9434 35.4507 30.4599 35.62C29.4199 36 28.2199 36.02 27.1599 36.34C26.7747 36.4643 26.4105 36.6464 26.0799 36.88C25.6835 37.1793 25.3092 37.5069 24.9599 37.86C24.7107 38.1821 24.379 38.4309 23.9999 38.58C23.8573 38.583 23.7174 38.541 23.5999 38.46C22.9599 38.16 22.3599 37.66 21.7599 37.4C20.8225 37.0504 19.8385 36.8415 18.8399 36.78C18.1072 36.7725 17.3795 36.658 16.6799 36.44C16.2253 36.2674 15.8392 35.9515 15.5799 35.54C15.2799 35.04 15.5799 34.58 16.0599 34.18C16.7136 33.5788 17.4731 33.1041 18.2999 32.78L19.5199 32.44L21.3399 32.2L23.1199 32.42C23.1199 33.26 23.2799 34 23.3199 34.42C23.3199 34.5136 23.3386 34.6063 23.3751 34.6926C23.4115 34.7788 23.4648 34.8569 23.532 34.9222C23.5991 34.9875 23.6787 35.0386 23.7659 35.0726C23.8532 35.1065 23.9463 35.1227 24.0399 35.12C24.2274 35.1148 24.4054 35.0366 24.5362 34.9022C24.6669 34.7677 24.74 34.5875 24.7399 34.4C24.7399 33.82 24.8599 32.9 24.9399 31.86C25.9458 31.6405 26.984 31.6134 27.9999 31.78Z" fill="black"/>
</g>
<defs>
<clipPath id="clip0_1210_1790">
<rect width="48" height="48" fill="white"/>
</clipPath>
</defs>
</svg>
