<svg width="48" height="48" viewBox="0 0 48 48" fill="none" xmlns="http://www.w3.org/2000/svg">
<g clip-path="url(#clip0_1209_6591)">
<path d="M24 6.75V39.3333" stroke="black" stroke-width="2" stroke-linecap="round" stroke-linejoin="round"/>
<path d="M38.3117 18.6333C38.3117 15.7698 31.9043 13.4583 24 13.4583C16.0957 13.4583 9.68825 15.7698 9.68825 18.6333" stroke="black" stroke-width="2" stroke-linecap="round" stroke-linejoin="round"/>
<path d="M38.4823 33.5833C38.4823 30.4074 31.9982 27.8333 24 27.8333C16.0017 27.8333 9.51767 30.4074 9.51767 33.5833" stroke="black" stroke-width="2" stroke-linecap="round" stroke-linejoin="round"/>
<path d="M39.3333 25.9167C39.3333 22.7407 32.4678 20.1667 24 20.1667C15.5322 20.1667 8.66667 22.7407 8.66667 25.9167" stroke="black" stroke-width="2" stroke-linecap="round" stroke-linejoin="round"/>
<path d="M3.875 1.95834H44.125C44.125 1.95834 46.0417 1.95834 46.0417 3.87501V44.125C46.0417 44.125 46.0417 46.0417 44.125 46.0417H3.875C3.875 46.0417 1.95833 46.0417 1.95833 44.125V3.87501C1.95833 3.87501 1.95833 1.95834 3.875 1.95834Z" stroke="black" stroke-width="2" stroke-linecap="round" stroke-linejoin="round"/>
</g>
<defs>
<clipPath id="clip0_1209_6591">
<rect width="48" height="48" fill="white"/>
</clipPath>
</defs>
</svg>
