<svg xmlns="http://www.w3.org/2000/svg" width="64" height="64" viewBox="0 0 64 64" fill="none">
  <!-- Main gear -->
  <path d="M32 22a10 10 0 100 20 10 10 0 000-20z" stroke="#9CA3AF" stroke-width="2.5" fill="none"/>
  <path d="M32 8v6M32 50v6M8 32h6M50 32h6M14.1 14.1l4.2 4.2M45.7 45.7l4.2 4.2M14.1 49.9l4.2-4.2M45.7 18.3l4.2-4.2" stroke="#9CA3AF" stroke-width="2.5" stroke-linecap="round"/>
  <!-- Inner complexity dots -->
  <circle cx="32" cy="28" r="1.5" fill="#9CA3AF" opacity="0.6"/>
  <circle cx="28" cy="34" r="1.5" fill="#9CA3AF" opacity="0.6"/>
  <circle cx="36" cy="34" r="1.5" fill="#9CA3AF" opacity="0.6"/>
  <!-- Connecting lines -->
  <line x1="32" y1="28" x2="28" y2="34" stroke="#9CA3AF" stroke-width="1" opacity="0.4"/>
  <line x1="32" y1="28" x2="36" y2="34" stroke="#9CA3AF" stroke-width="1" opacity="0.4"/>
  <line x1="28" y1="34" x2="36" y2="34" stroke="#9CA3AF" stroke-width="1" opacity="0.4"/>
</svg>