<svg width="132" height="15" viewBox="0 0 132 15" fill="none" xmlns="http://www.w3.org/2000/svg">
<path d="M4.46402 7.884C1.40402 7.47 0.144024 6.192 0.144024 4.104V3.906C0.144024 1.512 1.90802 -4.76837e-07 4.77002 -4.76837e-07C7.99202 -4.76837e-07 9.37802 1.584 9.37802 4.626V5.058H7.50602C7.50602 2.682 6.71402 1.656 4.78802 1.656H4.66202C3.13202 1.656 2.07002 2.484 2.07002 3.762V3.906C2.07002 5.22 2.71802 5.994 5.09402 6.318C8.15402 6.732 9.52202 7.902 9.52202 10.206V10.404C9.52202 12.96 7.74002 14.472 4.77002 14.472C1.65602 14.472 2.39462e-05 12.852 2.39462e-05 9.774V9.594H1.87202C1.87202 11.826 3.00602 12.816 4.69802 12.816H4.84202C6.53402 12.816 7.59602 11.916 7.59602 10.494V10.35C7.59602 8.928 6.76802 8.19 4.46402 7.884ZM18.8339 0.216H20.7059V14.256H18.8339V7.92H13.3439V14.256H11.4719V0.216H13.3439V6.264H18.8339V0.216ZM26.2042 0.108H28.8142L32.6842 14.256H30.6682L29.7862 10.872H25.2502L24.3682 14.256H22.3342L26.2042 0.108ZM27.5182 2.214L25.6822 9.216H29.3542L27.5182 2.214ZM36.1779 8.784V14.256H34.3059V0.216H38.4639C40.5699 0.216 42.9639 0.918 42.9639 4.32V4.68C42.9639 6.93 41.9199 7.992 40.6239 8.46L42.9639 14.256H40.9299L38.8059 8.784H36.1779ZM36.1779 7.146H38.5179C39.5979 7.146 41.0559 6.75 41.0559 4.626V4.392C41.0559 2.268 39.5979 1.872 38.5179 1.872H36.1779V7.146ZM46.9357 8.784V14.256H45.0637V0.216H49.2217C51.3277 0.216 53.7217 0.918 53.7217 4.32V4.68C53.7217 8.1 51.3277 8.784 49.2217 8.784H46.9357ZM46.9357 7.146H49.2757C50.3557 7.146 51.8137 6.75 51.8137 4.626V4.392C51.8137 2.268 50.3557 1.872 49.2757 1.872H46.9357V7.146ZM61.1761 0.216V14.256H59.3041V0.216H61.1761ZM65.299 7.596C65.299 11.16 66.127 12.816 68.323 12.816H68.449C70.321 12.816 71.077 11.628 71.077 9.594H72.967V9.774C72.967 12.924 71.437 14.472 68.323 14.472C64.957 14.472 63.373 12.456 63.373 7.596V6.876C63.373 2.016 64.957 -4.76837e-07 68.323 -4.76837e-07C71.437 -4.76837e-07 72.967 1.548 72.967 4.86V5.418H71.077C71.077 2.862 70.357 1.656 68.449 1.656H68.323C66.145 1.656 65.299 3.312 65.299 6.876V7.596ZM79.7329 14.472C76.3489 14.472 74.7109 12.456 74.7109 7.596V6.876C74.7109 2.016 76.3489 -4.76837e-07 79.7329 -4.76837e-07C83.0989 -4.76837e-07 84.7369 2.016 84.7369 6.876V7.596C84.7369 12.456 83.0989 14.472 79.7329 14.472ZM79.6609 12.816H79.7869C81.9469 12.816 82.8109 11.16 82.8109 7.596V6.876C82.8109 3.312 81.9469 1.656 79.7869 1.656H79.6609C77.5009 1.656 76.6369 3.312 76.6369 6.876V7.596C76.6369 11.16 77.5009 12.816 79.6609 12.816ZM96.4409 0.216V14.256H94.4429L88.5569 3.528L88.6289 6.642V14.256H86.8469V0.216H88.8449L94.7309 10.944L94.6589 7.83V0.216H96.4409ZM106.452 7.884C103.392 7.47 102.132 6.192 102.132 4.104V3.906C102.132 1.512 103.896 -4.76837e-07 106.758 -4.76837e-07C109.98 -4.76837e-07 111.366 1.584 111.366 4.626V5.058H109.494C109.494 2.682 108.702 1.656 106.776 1.656H106.65C105.12 1.656 104.058 2.484 104.058 3.762V3.906C104.058 5.22 104.706 5.994 107.082 6.318C110.142 6.732 111.51 7.902 111.51 10.206V10.404C111.51 12.96 109.728 14.472 106.758 14.472C103.644 14.472 101.988 12.852 101.988 9.774V9.594H103.86C103.86 11.826 104.994 12.816 106.686 12.816H106.83C108.522 12.816 109.584 11.916 109.584 10.494V10.35C109.584 8.928 108.756 8.19 106.452 7.884ZM113.46 0.216H121.56V1.872H115.332V6.264H120.66V7.92H115.332V12.6H121.56V14.256H113.46V0.216ZM127.98 1.872V14.256H126.108V1.872H122.652V0.216H131.436V1.872H127.98Z" fill="#121212"/>
</svg>
