<svg width="48" height="48" viewBox="0 0 48 48" fill="none" xmlns="http://www.w3.org/2000/svg">
<path d="M3.687 7.802C3.887 6.072 4.937 4.644 6.637 4.268C9.289 3.681 14.43 3 24 3C33.57 3 38.71 3.681 41.363 4.268C43.063 4.644 44.113 6.072 44.313 7.802C44.617 10.418 45 14.726 45 19.8C45 29.28 39.997 38.15 31.568 42.488C28.752 43.938 26.004 45 24 45C21.996 45 19.248 43.937 16.432 42.488C8.003 38.15 3 29.28 3 19.8C3 14.726 3.383 10.418 3.687 7.802Z" stroke="black" stroke-width="3" stroke-linecap="round" stroke-linejoin="round"/>
<path d="M19.16 31.863C19.2 32.823 19.815 33.635 20.764 33.781C21.528 33.898 22.594 34 24 34C25.406 34 26.473 33.898 27.236 33.78C28.185 33.635 28.801 32.822 28.84 31.863C28.882 30.807 28.933 29.195 28.966 26.966C30.5991 26.9442 32.2319 26.9022 33.864 26.84C34.822 26.8 35.635 26.185 35.781 25.236C35.898 24.472 36 23.406 36 22C36 20.594 35.898 19.527 35.78 18.764C35.635 17.815 34.822 17.199 33.864 17.16C32.2319 17.0973 30.5991 17.0553 28.966 17.034C28.933 14.804 28.882 13.193 28.84 12.137C28.8 11.177 28.185 10.365 27.236 10.219C26.473 10.102 25.407 10 24 10C22.594 10 21.527 10.102 20.764 10.22C19.815 10.365 19.199 11.178 19.16 12.136C19.0973 13.7681 19.0553 15.4009 19.034 17.034C16.804 17.067 15.193 17.118 14.137 17.16C13.177 17.2 12.365 17.815 12.219 18.764C12.102 19.528 12 20.594 12 22C12 23.406 12.102 24.473 12.22 25.236C12.365 26.185 13.178 26.801 14.136 26.84C15.7681 26.9022 17.4009 26.9442 19.034 26.966C19.067 29.196 19.118 30.807 19.16 31.863Z" stroke="black" stroke-width="3" stroke-linecap="round" stroke-linejoin="round"/>
</svg>
