<svg width="48" height="48" viewBox="0 0 48 48" fill="none" xmlns="http://www.w3.org/2000/svg">
<g clip-path="url(#clip0_1209_6587)">
<path d="M13.2952 17.8858C13.0939 17.3162 12.7832 16.7982 12.3884 16.3571C11.5487 15.4189 10.3284 14.8284 8.97012 14.8284H5.42035C3.15948 14.8284 1.32669 16.6612 1.32669 18.9221C1.32669 20.8459 2.66622 22.5101 4.54555 22.9212L9.95015 24.1034C12.0555 24.564 13.5562 26.4297 13.5562 28.5848C13.5562 31.1177 11.5029 33.1726 8.97012 33.1726H5.91275C3.91596 33.1726 2.21721 31.8964 1.58765 30.1153" stroke="black" stroke-width="2.0001" stroke-linecap="round" stroke-linejoin="round"/>
<path d="M46.4142 17.8858C46.213 17.3162 45.9022 16.7982 45.5074 16.3571C44.6677 15.4189 43.4475 14.8284 42.0892 14.8284H38.5394C36.2785 14.8284 34.4456 16.6612 34.4456 18.9221C34.4456 20.8459 35.7853 22.5101 37.6646 22.9212L43.0693 24.1034C45.1746 24.564 46.6752 26.4297 46.6752 28.5848C46.6752 31.1177 44.6219 33.1726 42.0892 33.1726H39.0319C37.035 33.1726 35.3363 31.8964 34.7067 30.1153" stroke="black" stroke-width="2.0001" stroke-linecap="round" stroke-linejoin="round"/>
<path d="M17.8864 20.311V27.6902C17.8864 30.7179 20.341 33.1726 23.3689 33.1726H24.6334C27.6611 33.1726 30.1158 30.7179 30.1158 27.6902V20.311C30.1158 17.283 27.6611 14.8284 24.6334 14.8284H23.3689C20.341 14.8284 17.8864 17.283 17.8864 20.311Z" stroke="black" stroke-width="2.0001" stroke-linecap="round" stroke-linejoin="round"/>
</g>
<defs>
<clipPath id="clip0_1209_6587">
<rect width="48.0023" height="48.0023" fill="white"/>
</clipPath>
</defs>
</svg>
