<svg width="48" height="48" viewBox="0 0 48 48" fill="none" xmlns="http://www.w3.org/2000/svg">
<path d="M45 8C45 9.32608 44.4732 10.5979 43.5355 11.5355C42.5979 12.4732 41.3261 13 40 13C38.6739 13 37.4021 12.4732 36.4645 11.5355C35.5268 10.5979 35 9.32608 35 8C35 6.67392 35.5268 5.40215 36.4645 4.46447C37.4021 3.52678 38.6739 3 40 3C41.3261 3 42.5979 3.52678 43.5355 4.46447C44.4732 5.40215 45 6.67392 45 8Z" stroke="black" stroke-width="3" stroke-linecap="round" stroke-linejoin="round"/>
<path d="M8 3C7.495 3 7.018 3.028 6.574 3.075C4.314 3.316 3 5.434 3 7.705V15C3 15.502 3.002 15.985 3.006 16.45C3.061 22.433 7.567 26.94 13.549 26.994C14.5163 27.0029 15.4837 27.0029 16.451 26.994C22.433 26.939 26.939 22.433 26.994 16.451C26.998 15.985 27 15.501 27 15V7.706C27 5.433 25.685 3.316 23.425 3.076C22.9517 3.02554 22.476 3.00017 22 3" stroke="black" stroke-width="3" stroke-linecap="round" stroke-linejoin="round"/>
<path d="M15 27V32.5C15 39.404 20.596 45 27.5 45C34.404 45 40 39.404 40 32.5V13" stroke="black" stroke-width="3" stroke-linecap="round" stroke-linejoin="round"/>
</svg>
