<svg width="48" height="48" viewBox="0 0 48 48" fill="none" xmlns="http://www.w3.org/2000/svg">
<path d="M31.6803 13.5188C31.5166 14.2338 31.4953 14.9741 31.6176 15.6973C31.74 16.4206 32.0036 17.1126 32.3934 17.734C32.7832 18.3553 33.2916 18.8938 33.8895 19.3187C34.4874 19.7436 35.1632 20.0466 35.8782 20.2103C37.3222 20.541 38.8385 20.2845 40.0934 19.4972C41.3482 18.71 42.239 17.4564 42.5697 16.0124C42.9004 14.5684 42.6439 13.0522 41.8566 11.7973C41.0693 10.5424 39.8158 9.6516 38.3718 9.32093C36.9278 8.99026 35.4115 9.24676 34.1566 10.034C32.9017 10.8213 32.011 12.0748 31.6803 13.5188Z" stroke="black" stroke-width="3"/>
<path d="M9.9375 5.25H5.25V26.8125H22.125V5.25H17.4375" stroke="black" stroke-width="3"/>
<path d="M13.6875 26.8127V31.1653C13.6875 37.6374 18.9342 42.8841 25.4062 42.8841C31.8784 42.8841 37.125 37.6374 37.125 31.1653V20.3475" stroke="black" stroke-width="3"/>
</svg>
