<svg width="48" height="48" viewBox="0 0 48 48" fill="none" xmlns="http://www.w3.org/2000/svg">
<path d="M14.6037 45.5625V37.5257C12.8312 35.8837 11.595 33.7453 11.0566 31.3897C10.5182 29.0341 10.7026 26.571 11.5858 24.322C12.4689 22.073 14.0098 20.1424 16.0071 18.7826C18.0043 17.4227 20.3652 16.6968 22.7816 16.6995C31.9394 16.6995 33.9162 24.2398 37.1809 32.7088C37.2369 32.8546 37.2566 33.0118 37.2382 33.1669C37.22 33.3221 37.1642 33.4703 37.0759 33.5991C36.9875 33.7279 36.8691 33.8331 36.7311 33.9059C36.5929 33.9789 36.4392 34.0171 36.2829 34.0173H33.8457V37.8657C33.8457 38.8864 33.4403 39.8652 32.7185 40.587C31.9969 41.3087 31.0181 41.714 29.9972 41.714H28.0731V45.5625" stroke="black" stroke-width="2" stroke-linecap="round" stroke-linejoin="round"/>
<path d="M28.8043 2.45387L27.1811 7.52835H31.1472L29.4796 12.0716" stroke="black" stroke-width="2" stroke-linecap="round" stroke-linejoin="round"/>
<path d="M42.7477 7.9736L38.1103 10.5967L41.0221 13.2899L36.7129 15.4928" stroke="black" stroke-width="2" stroke-linecap="round" stroke-linejoin="round"/>
<path d="M15.1544 2.51093L15.4574 7.83008L19.1602 6.40875L19.2314 11.2479" stroke="black" stroke-width="2" stroke-linecap="round" stroke-linejoin="round"/>
<path d="M2.69073 9.22755L5.50145 13.7536L8.07317 10.7341L10.4506 14.9496" stroke="black" stroke-width="2" stroke-linecap="round" stroke-linejoin="round"/>
</svg>
