<svg width="48" height="48" viewBox="0 0 48 48" fill="none" xmlns="http://www.w3.org/2000/svg">
<g clip-path="url(#clip0_1209_6571)">
<path d="M19.1643 34.0644C19.1643 32.4122 18.508 30.8275 17.3399 29.659C16.1718 28.4905 14.5873 27.8338 12.9351 27.8333C12.8335 27.8333 12.7434 27.8582 12.6418 27.864" stroke="black" stroke-width="2" stroke-linecap="round" stroke-linejoin="round"/>
<path d="M18.5164 9.41034C19.1851 9.18485 19.7787 8.77912 20.2315 8.23787C20.6844 7.69661 20.9791 7.04084 21.0831 6.3428C21.1871 5.64477 21.0964 4.93158 20.8209 4.28181C20.5455 3.63204 20.096 3.07093 19.522 2.6603C18.9481 2.24966 18.2719 2.00545 17.568 1.95457C16.8641 1.90369 16.1598 2.04812 15.5327 2.37194C14.9057 2.69576 14.3802 3.1864 14.0141 3.7898C13.6481 4.3932 13.4558 5.08594 13.4583 5.79167C13.4635 6.13829 13.5158 6.48259 13.6136 6.81517C13.4008 6.79792 13.1957 6.75 12.9791 6.75C11.637 6.74317 10.3201 7.11406 9.17881 7.82028C8.03753 8.5265 7.11796 9.53957 6.52519 10.7437C5.93243 11.9478 5.69039 13.2944 5.82673 14.6296C5.96308 15.9648 6.47231 17.2346 7.29622 18.2941C5.84734 18.3899 4.48907 19.033 3.49676 20.093C2.50445 21.1531 1.95233 22.5508 1.95233 24.0029C1.95233 25.4549 2.50445 26.8526 3.49676 27.9127C4.48907 28.9728 5.84734 29.6159 7.29622 29.7117C6.47323 30.771 5.96478 32.0404 5.82895 33.3749C5.69312 34.7094 5.93539 36.0553 6.52809 37.2587C7.12079 38.462 8.04001 39.4744 9.18074 40.1802C10.3215 40.886 11.6377 41.2567 12.9791 41.25C13.1957 41.25 13.4008 41.2059 13.6136 41.1868C13.4094 41.909 13.4217 42.6753 13.6491 43.3905C13.8764 44.1058 14.3087 44.7386 14.8923 45.2105C15.476 45.6823 16.1853 45.9725 16.9323 46.0449C17.6793 46.1174 18.4312 45.969 19.0946 45.618C19.7581 45.2671 20.3039 44.7292 20.6644 44.0709C21.025 43.4126 21.1843 42.663 21.1227 41.915C21.0612 41.167 20.7814 40.4536 20.3181 39.8631C19.8547 39.2727 19.2283 38.8312 18.5164 38.5935" stroke="black" stroke-width="2" stroke-linecap="round" stroke-linejoin="round"/>
<path d="M12.6418 20.1398C12.7415 20.1398 12.8335 20.1686 12.9351 20.1686C14.587 20.1681 16.1711 19.5116 17.3392 18.3435C18.5073 17.1755 19.1638 15.5913 19.1643 13.9394" stroke="black" stroke-width="2" stroke-linecap="round" stroke-linejoin="round"/>
<path d="M28.8358 34.0644C28.8358 32.4122 29.492 30.8275 30.6601 29.659C31.8283 28.4905 33.4127 27.8338 35.0649 27.8333C35.1665 27.8333 35.2566 27.8582 35.3582 27.864" stroke="black" stroke-width="2" stroke-linecap="round" stroke-linejoin="round"/>
<path d="M29.4836 9.41034C28.8149 9.18485 28.2213 8.77912 27.7685 8.23787C27.3156 7.69661 27.0209 7.04084 26.9169 6.3428C26.8129 5.64477 26.9036 4.93158 27.1791 4.28181C27.4545 3.63204 27.904 3.07093 28.478 2.6603C29.0519 2.24966 29.7281 2.00545 30.432 1.95457C31.1359 1.90369 31.8402 2.04812 32.4673 2.37194C33.0943 2.69576 33.6198 3.1864 33.9858 3.7898C34.3519 4.3932 34.5442 5.08594 34.5417 5.79167C34.5365 6.13829 34.4842 6.48259 34.3864 6.81517C34.5992 6.796 34.8043 6.75 35.0209 6.75C36.3626 6.74345 37.6792 7.11443 38.8201 7.82056C39.9611 8.52669 40.8804 9.53949 41.4731 10.7433C42.0658 11.9471 42.308 13.2933 42.1719 14.6281C42.0359 15.963 41.5271 17.2327 40.7038 18.2922C42.1527 18.3879 43.5109 19.031 44.5032 20.0911C45.4955 21.1512 46.0477 22.5489 46.0477 24.001C46.0477 25.453 45.4955 26.8507 44.5032 27.9108C43.5109 28.9709 42.1527 29.614 40.7038 29.7098C41.5273 30.769 42.0363 32.0386 42.1724 33.3735C42.3085 34.7083 42.0664 36.0545 41.4736 37.2582C40.8808 38.462 39.9614 39.4746 38.8203 40.1805C37.6792 40.8864 36.3626 41.257 35.0209 41.25C34.8043 41.25 34.5992 41.2059 34.3864 41.1868C34.5906 41.909 34.5783 42.6753 34.3509 43.3905C34.1236 44.1058 33.6913 44.7386 33.1077 45.2105C32.524 45.6823 31.8147 45.9725 31.0677 46.0449C30.3207 46.1174 29.5688 45.969 28.9054 45.618C28.2419 45.2671 27.6961 44.7292 27.3356 44.0709C26.975 43.4126 26.8157 42.663 26.8772 41.915C26.9388 41.167 27.2186 40.4536 27.6819 39.8631C28.1453 39.2727 28.7717 38.8312 29.4836 38.5935" stroke="black" stroke-width="2" stroke-linecap="round" stroke-linejoin="round"/>
<path d="M35.3582 20.1398C35.2585 20.1398 35.1665 20.1686 35.0649 20.1686C33.413 20.1681 31.8289 19.5116 30.6608 18.3435C29.4927 17.1755 28.8363 15.5913 28.8358 13.9394" stroke="black" stroke-width="2" stroke-linecap="round" stroke-linejoin="round"/>
<path d="M21.125 5.6C21.9991 5.09534 22.9907 4.82965 24 4.82965C25.0093 4.82965 26.0009 5.09534 26.875 5.6" stroke="black" stroke-width="2" stroke-linecap="round" stroke-linejoin="round"/>
<path d="M20.9506 43.3583C21.8877 43.8641 22.936 44.1289 24.0009 44.1289C25.0659 44.1289 26.1141 43.8641 27.0513 43.3583" stroke="black" stroke-width="2" stroke-linecap="round" stroke-linejoin="round"/>
<path d="M24 14.4186V34.5436" stroke="black" stroke-width="2" stroke-linecap="round" stroke-linejoin="round"/>
</g>
<defs>
<clipPath id="clip0_1209_6571">
<rect width="48" height="48" fill="white"/>
</clipPath>
</defs>
</svg>
