<svg width="48" height="48" viewBox="0 0 48 48" fill="none" xmlns="http://www.w3.org/2000/svg">
<path d="M41.838 6.95239C42.8456 7.78878 43.6963 8.79791 44.3501 9.93254" stroke="black" stroke-width="2.0001" stroke-linecap="round" stroke-linejoin="round"/>
<path d="M45.6482 13.4006C45.8968 14.6865 45.9157 16.0063 45.7042 17.2988" stroke="black" stroke-width="2.0001" stroke-linecap="round" stroke-linejoin="round"/>
<path d="M44.5282 20.8163C43.9024 21.9666 43.0822 22.9998 42.1041 23.8705" stroke="black" stroke-width="2.0001" stroke-linecap="round" stroke-linejoin="round"/>
<path d="M38.9739 25.8499C37.7633 26.3516 36.4732 26.634 35.1637 26.6839" stroke="black" stroke-width="2.0001" stroke-linecap="round" stroke-linejoin="round"/>
<path d="M31.4895 26.2277C30.2396 25.8369 29.0755 25.2117 28.0593 24.3856" stroke="black" stroke-width="2.0001" stroke-linecap="round" stroke-linejoin="round"/>
<path d="M25.6292 21.5874C24.9604 20.4613 24.4921 19.2276 24.2452 17.9412" stroke="black" stroke-width="2.0001" stroke-linecap="round" stroke-linejoin="round"/>
<path d="M23.7472 18.0005C23.4859 19.3089 22.9986 20.5617 22.3071 21.7027" stroke="black" stroke-width="2.0001" stroke-linecap="round" stroke-linejoin="round"/>
<path d="M19.8009 24.5062C18.7483 25.3259 17.5467 25.9338 16.2628 26.2963" stroke="black" stroke-width="2.0001" stroke-linecap="round" stroke-linejoin="round"/>
<path d="M12.5006 26.6668C11.1706 26.5689 9.86879 26.2343 8.65643 25.6787" stroke="black" stroke-width="2.0001" stroke-linecap="round" stroke-linejoin="round"/>
<path d="M5.54229 23.5467C4.58778 22.6154 3.80567 21.5224 3.23218 20.3185" stroke="black" stroke-width="2.0001" stroke-linecap="round" stroke-linejoin="round"/>
<path d="M2.20013 16.687C2.06481 15.3595 2.16708 14.0185 2.50214 12.7268" stroke="black" stroke-width="2.0001" stroke-linecap="round" stroke-linejoin="round"/>
<path d="M4.05823 9.28315C4.80393 8.17694 5.74219 7.21361 6.82836 6.43901" stroke="black" stroke-width="2.0001" stroke-linecap="round" stroke-linejoin="round"/>
<path d="M12.8626 31.6982C13.2066 33.1871 13.3797 34.7103 13.3786 36.2384C13.3956 39.6517 12.5148 43.0095 10.8245 45.9749" stroke="black" stroke-width="2.0001" stroke-linecap="round" stroke-linejoin="round"/>
<path d="M35.1477 31.6982C34.8044 33.1872 34.632 34.7104 34.6337 36.2384C34.6157 39.6525 35.4966 43.0111 37.1878 45.9769" stroke="black" stroke-width="2.0001" stroke-linecap="round" stroke-linejoin="round"/>
<path d="M12.7926 14.6564C12.7926 14.9216 12.898 15.176 13.0855 15.3635C13.2731 15.5511 13.5274 15.6564 13.7927 15.6564C14.0579 15.6564 14.3122 15.5511 14.4998 15.3635C14.6873 15.176 14.7927 14.9216 14.7927 14.6564C14.7927 14.3912 14.6873 14.1368 14.4998 13.9492C14.3122 13.7617 14.0579 13.6563 13.7927 13.6563C13.5274 13.6563 13.2731 13.7617 13.0855 13.9492C12.898 14.1368 12.7926 14.3912 12.7926 14.6564Z" stroke="black" stroke-width="2.0001" stroke-linecap="round" stroke-linejoin="round"/>
<path d="M33.2016 14.6564C33.2016 14.9216 33.307 15.176 33.4945 15.3635C33.6821 15.5511 33.9364 15.6564 34.2016 15.6564C34.4669 15.6564 34.7212 15.5511 34.9088 15.3635C35.0963 15.176 35.2017 14.9216 35.2017 14.6564C35.2017 14.3912 35.0963 14.1368 34.9088 13.9492C34.7212 13.7617 34.4669 13.6563 34.2016 13.6563C33.9364 13.6563 33.6821 13.7617 33.4945 13.9492C33.307 14.1368 33.2016 14.3912 33.2016 14.6564Z" stroke="black" stroke-width="2.0001" stroke-linecap="round" stroke-linejoin="round"/>
<path d="M7.73837 2.02286L6.69232 6.53108" stroke="black" stroke-width="2.0001" stroke-linecap="round" stroke-linejoin="round"/>
<path d="M41.126 2.07536L41.7361 6.8616" stroke="black" stroke-width="2.0001" stroke-linecap="round" stroke-linejoin="round"/>
</svg>
