<svg width="48" height="48" viewBox="0 0 48 48" fill="none" xmlns="http://www.w3.org/2000/svg">
<path d="M44 4.002L39.213 8.789" stroke="black" stroke-width="3" stroke-linecap="round"/>
<path d="M40.838 20.973C40.7235 22.0288 40.2895 23.0245 39.594 23.827C38.021 25.646 36.304 27.362 34.609 29.057L34.357 29.308C31.112 32.553 28.687 34.724 26.946 36.161C27.646 36.902 28.254 37.551 28.754 38.088C29.774 39.184 30.102 40.696 29.08 41.788C28.9083 41.9716 28.7305 42.1494 28.547 42.321C27.454 43.344 25.942 43.015 24.847 41.995C18.2756 35.8699 11.9214 29.516 5.79596 22.945C4.77596 21.849 4.44696 20.337 5.46996 19.245C5.6416 19.0611 5.81937 18.883 6.00296 18.711C7.09496 17.689 8.60696 18.018 9.70296 19.038C10.241 19.538 10.89 20.146 11.633 20.848C13.07 19.106 15.24 16.682 18.485 13.437L18.738 13.185C20.432 11.49 22.148 9.773 23.968 8.2C24.7702 7.50465 25.7655 7.07066 26.821 6.956C31.235 6.484 34.97 6.826 36.631 7.04C37.2344 7.12309 37.793 7.40453 38.219 7.84L39.955 9.575C40.386 10.006 40.675 10.557 40.754 11.162C40.967 12.824 41.31 16.559 40.838 20.973Z" stroke="black" stroke-width="3" stroke-linecap="round" stroke-linejoin="round"/>
<path d="M12.541 30C11.5397 31.3259 10.5707 32.676 9.63498 34.049C8.78632 33.2402 7.92623 32.4434 7.05498 31.659C6.26398 30.948 5.09898 30.841 4.30798 31.552C4.05301 31.7817 3.81034 32.0247 3.58098 32.28C2.86998 33.07 2.97598 34.235 3.68698 35.026C5.15235 36.6533 6.65986 38.2422 8.20798 39.791C10.138 41.721 11.857 43.308 12.974 44.312C13.764 45.023 14.929 45.13 15.72 44.419C15.975 44.1894 16.2177 43.9464 16.447 43.691C17.158 42.901 17.052 41.735 16.341 40.945C15.5559 40.0727 14.7585 39.2116 13.949 38.362C15.3223 37.4256 16.6727 36.456 17.999 35.454" stroke="black" stroke-width="3" stroke-linecap="round" stroke-linejoin="round"/>
<path d="M17.902 21.902L14.402 18.402" stroke="black" stroke-width="3" stroke-linecap="round"/>
<path d="M22.902 16.902L19.402 13.402" stroke="black" stroke-width="3" stroke-linecap="round"/>
<path d="M27.902 11.902L24.402 8.40199" stroke="black" stroke-width="3" stroke-linecap="round"/>
</svg>
