<svg width="48" height="48" viewBox="0 0 48 48" fill="none" xmlns="http://www.w3.org/2000/svg">
<path d="M15.6722 42.75H13.6876C13.6876 42.75 3.57831 31.9187 5.54016 13.4247C6.05991 8.52504 10.5313 5.25 15.4584 5.25C17.9533 5.25 20.3739 6.09909 22.3221 7.65765L22.9601 8.16812C23.5682 8.65446 24.432 8.65446 25.0399 8.16812L25.6779 7.65765C27.6262 6.09911 30.0467 5.25 32.5417 5.25C37.4689 5.25 41.9402 8.52504 42.4599 13.4247C44.4218 31.9187 34.3125 42.75 34.3125 42.75H32.3278C30.7138 42.75 29.2807 41.7171 28.7704 40.1859L26.8125 34.3125H21.1875L19.2298 40.1859C18.7193 41.7171 17.2863 42.75 15.6722 42.75Z" stroke="black" stroke-width="3"/>
<path d="M18.375 14.625L24 16.5L29.625 14.625" stroke="black" stroke-width="3"/>
</svg>
