<svg width="48" height="48" viewBox="0 0 48 48" fill="none" xmlns="http://www.w3.org/2000/svg">
<path d="M41.8196 14.4063C41.907 11.5897 40.8738 8.85343 38.9467 6.79738C37.0197 4.74133 34.3559 3.53331 31.5396 3.43817C30.1 3.45097 28.6803 3.77583 27.3783 4.39035C26.0763 5.00487 24.9231 5.89444 23.9983 6.99771C23.0741 5.89434 21.9216 5.00466 20.6201 4.39012C19.3187 3.77556 17.8994 3.45078 16.4602 3.43817C13.6435 3.53243 10.9793 4.74016 9.05204 6.79642C7.12478 8.85266 6.09194 11.5894 6.18011 14.4063C6.45249 18.6218 7.89123 22.6786 10.3358 26.1239C10.613 26.5104 10.7866 26.9618 10.8403 27.4345C10.894 27.9073 10.8258 28.3859 10.6423 28.825C9.49389 31.6452 8.90948 34.6634 8.92215 37.7084V41.1352C8.92215 42.0439 9.28317 42.9156 9.92579 43.5582C10.5684 44.2009 11.44 44.5618 12.3488 44.5618C13.2577 44.5618 14.1292 44.2009 14.7719 43.5582C15.4145 42.9156 15.7755 42.0439 15.7755 41.1352C15.6688 38.9331 16.4203 36.7753 17.8719 35.1161C19.3235 33.4568 21.3621 32.4251 23.5588 32.238C24.7331 32.1761 25.9069 32.3659 27.0019 32.7942C28.0969 33.2226 29.0878 33.88 29.9083 34.7224C30.7286 35.5648 31.3596 36.5726 31.759 37.6785C32.1585 38.7846 32.3172 39.963 32.2242 41.1352C32.2242 42.0439 32.5853 42.9156 33.228 43.5582C33.8706 44.2009 34.7421 44.5618 35.651 44.5618C36.5597 44.5618 37.4314 44.2009 38.0741 43.5582C38.7167 42.9156 39.0776 42.0439 39.0776 41.1352V37.6982C39.0928 34.4623 38.4315 31.259 37.1361 28.2935C36.9155 27.8444 36.8189 27.3446 36.8566 26.8457C36.8944 26.3468 37.065 25.867 37.3507 25.4561C39.8876 22.2884 41.4411 18.447 41.8196 14.4063Z" stroke="black" stroke-width="2" stroke-linecap="round" stroke-linejoin="round"/>
<path d="M24.0046 7.01767C26.6408 9.75915 29.4874 9.86459 30.2257 9.86459" stroke="black" stroke-width="2" stroke-linecap="round" stroke-linejoin="round"/>
</svg>
