<svg width="48" height="48" viewBox="0 0 48 48" fill="none" xmlns="http://www.w3.org/2000/svg">
<path d="M30.7307 12.2258V5.49633C30.7307 4.60395 30.3763 3.74811 29.7453 3.11711C29.1142 2.4861 28.2584 2.13161 27.3659 2.13161H20.6366C19.7442 2.13161 18.8883 2.4861 18.2574 3.11711C17.6263 3.74811 17.2719 4.60395 17.2719 5.49633V12.2258" stroke="black" stroke-width="2.0001" stroke-linecap="round" stroke-linejoin="round"/>
<path d="M30.7307 35.7778V42.5071C30.7307 43.3996 30.3763 44.2554 29.7453 44.8864C29.1142 45.5173 28.2584 45.8719 27.3659 45.8719H20.6366C19.7442 45.8719 18.8883 45.5173 18.2574 44.8864C17.6263 44.2554 17.2719 43.3996 17.2719 42.5071V35.7778" stroke="black" stroke-width="2.0001" stroke-linecap="round" stroke-linejoin="round"/>
<path d="M32.413 12.226H15.5895C13.7312 12.226 12.2247 13.7324 12.2247 15.5907V32.4143C12.2247 34.2726 13.7312 35.7789 15.5895 35.7789H32.413C34.2713 35.7789 35.7778 34.2726 35.7778 32.4143V15.5907C35.7778 13.7324 34.2713 12.226 32.413 12.226Z" stroke="black" stroke-width="2.0001" stroke-linecap="round" stroke-linejoin="round"/>
<path d="M12.2247 24.5402H17.9499L21.3849 20.2376L25.9651 27.767L29.4001 23.4646H35.778" stroke="black" stroke-width="2.0001" stroke-linecap="round" stroke-linejoin="round"/>
</svg>
