<svg width="32" height="32" viewBox="0 0 32 32" fill="none" xmlns="http://www.w3.org/2000/svg">
<path d="M27 0H5C2.23858 0 0 2.23858 0 5V27C0 29.7614 2.23858 32 5 32H27C29.7614 32 32 29.7614 32 27V5C32 2.23858 29.7614 0 27 0Z" fill="#001935"/>
<path d="M17.3879 24C14.9774 24 13.1896 22.7646 13.1896 19.8016V15.0609H11V12.4896C13.4105 11.8669 14.4149 9.79787 14.5254 8H17.0264V12.0778H19.9391V15.0609H17.0264V19.189C17.0264 20.4244 17.6491 20.8562 18.6434 20.8562H20.0596V24H17.3879Z" fill="white"/>
</svg>
