<svg width="32" height="32" viewBox="0 0 32 32" fill="none" xmlns="http://www.w3.org/2000/svg">
<path d="M32 5C32 2.23858 29.7614 0 27 0H5C2.23858 0 0 2.23858 0 5V27C0 29.7614 2.23858 32 5 32H27C29.7614 32 32 29.7614 32 27V5Z" fill="#9146FF"/>
<path d="M12.0021 9.42812L9.145 12.2853V22.571H12.5736V25.4281L15.4307 22.571H17.7164L22.8593 17.4281V9.42812H12.0021ZM21.7164 16.8567L19.4307 19.1424H17.145L15.145 21.1424V19.1424H12.5736V10.571H21.7164V16.8567Z" fill="white"/>
<path d="M20.0021 12.571H18.8593V15.9996H20.0021V12.571Z" fill="white"/>
<path d="M16.8593 12.571H15.7164V15.9996H16.8593V12.571Z" fill="white"/>
</svg>
