<svg width="48" height="48" viewBox="0 0 48 48" fill="none" xmlns="http://www.w3.org/2000/svg">
<g clip-path="url(#clip0_1209_6515)">
<path d="M28.8561 11.8535C26.79 8.37426 22.9949 6.04233 18.6549 6.04233C12.1071 6.04233 6.7991 11.3503 6.7991 17.8981C6.7991 24.4458 12.1071 29.7538 18.6549 29.7538C19.7383 29.7538 20.7878 29.6084 21.7848 29.3362" stroke="black" stroke-width="2.0001" stroke-linecap="round" stroke-linejoin="round"/>
<path d="M40.6018 37.9733V22.8259C40.6022 22.2051 40.4802 21.5905 40.2428 21.0169C40.0054 20.4434 39.6572 19.9222 39.2183 19.4832C38.7793 19.0443 38.2581 18.6962 37.6847 18.4588C37.111 18.2214 36.4962 18.0994 35.8756 18.0997H31.667C31.0463 18.0994 30.4315 18.2214 29.8579 18.4588C29.2845 18.6962 28.7632 19.0443 28.3242 19.4832C27.8854 19.9222 27.5372 20.4434 27.2998 21.0169C27.0626 21.5905 26.9406 22.2051 26.9408 22.8259V37.9733" stroke="black" stroke-width="2.0001" stroke-linecap="round" stroke-linejoin="round"/>
<path d="M38.7836 44.9486H28.7633" stroke="black" stroke-width="2.0001" stroke-linecap="round" stroke-linejoin="round"/>
<path d="M33.7706 37.9734V44.9479" stroke="black" stroke-width="2.0001" stroke-linecap="round" stroke-linejoin="round"/>
<path d="M33.7717 18.1007V9.58342" stroke="black" stroke-width="2.0001" stroke-linecap="round" stroke-linejoin="round"/>
<path d="M45.4624 37.9734H22.0818" stroke="black" stroke-width="2.0001" stroke-linecap="round" stroke-linejoin="round"/>
<path d="M10.6901 26.7016L7.7314 29.9894" stroke="black" stroke-width="2.0001" stroke-linecap="round" stroke-linejoin="round"/>
<path d="M26.5552 9.08339L29.508 5.77689" stroke="black" stroke-width="2.0001" stroke-linecap="round" stroke-linejoin="round"/>
<path d="M9.81315 9.96067L6.52541 7.00197" stroke="black" stroke-width="2.0001" stroke-linecap="round" stroke-linejoin="round"/>
<path d="M16.1643 29.4892L15.246 33.8158" stroke="black" stroke-width="2.0001" stroke-linecap="round" stroke-linejoin="round"/>
<path d="M21.0804 6.29728L22.0174 1.96452" stroke="black" stroke-width="2.0001" stroke-linecap="round" stroke-linejoin="round"/>
<path d="M7.02597 15.4354L2.69322 14.4984" stroke="black" stroke-width="2.0001" stroke-linecap="round" stroke-linejoin="round"/>
<path d="M14.9587 6.62682L13.5846 2.40205" stroke="black" stroke-width="2.0001" stroke-linecap="round" stroke-linejoin="round"/>
<path d="M7.35552 21.5572L3.13075 22.9313" stroke="black" stroke-width="2.0001" stroke-linecap="round" stroke-linejoin="round"/>
<path d="M14.8538 21.8131C14.4164 21.9553 13.9465 21.7161 13.8042 21.2787C13.662 20.8413 13.9012 20.3715 14.3386 20.229" stroke="black" stroke-width="2.0001" stroke-linecap="round" stroke-linejoin="round"/>
<path d="M14.8535 21.8131C15.2909 21.6709 15.5302 21.2011 15.3879 20.7637C15.2457 20.3263 14.7758 20.087 14.3384 20.2293" stroke="black" stroke-width="2.0001" stroke-linecap="round" stroke-linejoin="round"/>
<path d="M26.9408 25.1508H32.94" stroke="black" stroke-width="2.0001" stroke-linecap="round" stroke-linejoin="round"/>
<path d="M26.9408 31.5397H32.94" stroke="black" stroke-width="2.0001" stroke-linecap="round" stroke-linejoin="round"/>
<path d="M20.5052 16.62C21.8218 16.62 22.8893 15.5526 22.8893 14.2359C22.8893 12.9192 21.8218 11.8518 20.5052 11.8518C19.1884 11.8518 18.121 12.9192 18.121 14.2359C18.121 15.5526 19.1884 16.62 20.5052 16.62Z" stroke="black" stroke-width="2.0001" stroke-linecap="round" stroke-linejoin="round"/>
</g>
<defs>
<clipPath id="clip0_1209_6515">
<rect width="48.0023" height="48.0023" fill="white"/>
</clipPath>
</defs>
</svg>
