<svg width="48" height="48" viewBox="0 0 48 48" fill="none" xmlns="http://www.w3.org/2000/svg">
<g clip-path="url(#clip0_1209_6509)">
<path d="M3.875 5.79167H44.125C44.125 5.79167 46.0417 5.79167 46.0417 7.70834V44.125C46.0417 44.125 46.0417 46.0417 44.125 46.0417H3.875C3.875 46.0417 1.95834 46.0417 1.95834 44.125V7.70834C1.95834 7.70834 1.95834 5.79167 3.875 5.79167Z" stroke="black" stroke-width="2" stroke-linecap="round" stroke-linejoin="round"/>
<path d="M11.5417 1.95833V11.5417" stroke="black" stroke-width="2" stroke-linecap="round" stroke-linejoin="round"/>
<path d="M36.4583 1.95833V11.5417" stroke="black" stroke-width="2" stroke-linecap="round" stroke-linejoin="round"/>
<path d="M1.95834 15.375H46.0417" stroke="black" stroke-width="2" stroke-linecap="round" stroke-linejoin="round"/>
<path d="M32.625 29.75C32.625 29.4958 32.524 29.2521 32.3443 29.0724C32.1646 28.8926 31.9208 28.7917 31.6667 28.7917H26.875V24C26.875 23.7458 26.774 23.5021 26.5943 23.3224C26.4146 23.1426 26.1708 23.0417 25.9167 23.0417H22.0833C21.8292 23.0417 21.5854 23.1426 21.4057 23.3224C21.226 23.5021 21.125 23.7458 21.125 24V28.7917H16.3333C16.0792 28.7917 15.8354 28.8926 15.6557 29.0724C15.476 29.2521 15.375 29.4958 15.375 29.75V33.5833C15.375 33.8375 15.476 34.0813 15.6557 34.261C15.8354 34.4407 16.0792 34.5417 16.3333 34.5417H21.125V39.3333C21.125 39.5875 21.226 39.8313 21.4057 40.011C21.5854 40.1907 21.8292 40.2917 22.0833 40.2917H25.9167C26.1708 40.2917 26.4146 40.1907 26.5943 40.011C26.774 39.8313 26.875 39.5875 26.875 39.3333V34.5417H31.6667C31.9208 34.5417 32.1646 34.4407 32.3443 34.261C32.524 34.0813 32.625 33.8375 32.625 33.5833V29.75Z" stroke="black" stroke-width="2" stroke-linecap="round" stroke-linejoin="round"/>
</g>
<defs>
<clipPath id="clip0_1209_6509">
<rect width="48" height="48" fill="white"/>
</clipPath>
</defs>
</svg>
