<svg width="48" height="48" viewBox="0 0 48 48" fill="none" xmlns="http://www.w3.org/2000/svg">
<path d="M29.013 9.27001C29.056 11.35 30.422 12.964 32.502 12.996C32.834 13.001 33.1661 13.001 33.498 12.996C35.578 12.964 36.944 11.35 36.987 9.27001C37.0046 8.42343 37.0046 7.57658 36.987 6.73001C36.944 4.65001 35.578 3.03601 33.498 3.00401C33.1661 2.99891 32.834 2.99891 32.502 3.00401C30.422 3.03601 29.056 4.65001 29.013 6.73001C28.9955 7.57658 28.9955 8.42343 29.013 9.27001Z" stroke="#7ED957" stroke-width="3" stroke-linecap="round" stroke-linejoin="round"/>
<path d="M11.013 9.27001C11.056 11.35 12.422 12.964 14.502 12.996C14.834 13.001 15.1661 13.001 15.498 12.996C17.578 12.964 18.944 11.35 18.987 9.27001C19.0046 8.42343 19.0046 7.57658 18.987 6.73001C18.944 4.65001 17.578 3.03601 15.498 3.00401C15.1661 2.99891 14.834 2.99891 14.502 3.00401C12.422 3.03601 11.056 4.65001 11.013 6.73001C10.9955 7.57658 10.9955 8.42343 11.013 9.27001Z" stroke="#7ED957" stroke-width="3" stroke-linecap="round" stroke-linejoin="round"/>
<path d="M11.003 8.563C10.0171 8.65721 9.03289 8.76922 8.051 8.899C5.852 9.192 4.174 10.847 3.859 13.043C3.451 15.887 3 20.41 3 26.5C3 32.59 3.451 37.114 3.859 39.958C4.174 42.154 5.852 43.808 8.051 44.102C11.181 44.519 16.431 45 24 45C31.568 45 36.818 44.52 39.949 44.102C42.148 43.809 43.826 42.154 44.141 39.958C44.549 37.114 45 32.59 45 26.5C45 20.411 44.549 15.887 44.141 13.043C43.826 10.847 42.148 9.192 39.949 8.899C38.9671 8.76922 37.9829 8.6572 36.997 8.563" stroke="#7ED957" stroke-width="3" stroke-linecap="round" stroke-linejoin="round"/>
<path d="M29 8.074C27.3338 8.02393 25.6669 7.99926 24 8C22.204 8 20.538 8.027 19 8.074" stroke="#7ED957" stroke-width="3" stroke-linecap="round" stroke-linejoin="round"/>
<path d="M21.953 37.895C20.884 37.775 20.188 36.886 20.138 35.812C20.0814 34.5326 20.0447 33.2525 20.028 31.972C18.7475 31.9553 17.4673 31.9186 16.188 31.862C15.114 31.812 14.226 31.116 14.105 30.048C14.0317 29.3678 13.9966 28.6841 14 28C14 27.168 14.044 26.49 14.105 25.953C14.225 24.884 15.114 24.188 16.187 24.138C17.054 24.097 18.297 24.055 20.028 24.028C20.0447 22.7475 20.0814 21.4674 20.138 20.188C20.188 19.114 20.884 18.226 21.952 18.105C22.491 18.045 23.168 18 24 18C24.832 18 25.51 18.044 26.047 18.105C27.116 18.225 27.812 19.114 27.862 20.187C27.903 21.054 27.945 22.297 27.972 24.028C29.2525 24.0447 30.5326 24.0814 31.812 24.138C32.886 24.188 33.774 24.884 33.895 25.952C33.955 26.491 34 27.168 34 28C34 28.832 33.956 29.51 33.895 30.047C33.775 31.116 32.886 31.812 31.812 31.862C30.5326 31.9186 29.2525 31.9553 27.972 31.972C27.9552 33.2525 27.9186 34.5326 27.862 35.812C27.812 36.886 27.116 37.774 26.048 37.895C25.509 37.955 24.832 38 24 38C23.168 38 22.49 37.956 21.953 37.895Z" stroke="#7ED957" stroke-width="3" stroke-linecap="round" stroke-linejoin="round"/>
</svg>
