<svg width="48" height="48" viewBox="0 0 48 48" fill="none" xmlns="http://www.w3.org/2000/svg">
  <!-- Phone outline -->
  <path d="M24 4C12.96 4 4 12.96 4 24c0 3.54 0.92 6.86 2.54 9.74L4 44l10.56-2.42C17.34 43.14 20.56 44 24 44c11.04 0 20-8.96 20-20S35.04 4 24 4z" stroke="#25D366" stroke-width="2" fill="none"/>
  <!-- WhatsApp handset -->
  <path d="M33.44 28.76c-.56-.28-3.32-1.64-3.84-1.82-.52-.2-.88-.28-1.26.28-.38.56-1.44 1.82-1.78 2.2-.32.38-.66.42-1.22.14-.56-.28-2.36-.86-4.5-2.76-1.66-1.48-2.78-3.32-3.12-3.88-.32-.56-.04-.86.24-1.14.26-.26.56-.66.84-1 .28-.34.38-.56.56-.94.2-.38.1-.7-.04-1-.14-.28-1.26-3.04-1.72-4.16-.46-1.1-.92-.94-1.26-.96-.32-.02-.7-.02-1.08-.02-.38 0-.98.14-1.5.7-.52.56-1.96 1.92-1.96 4.66 0 2.76 2.02 5.42 2.3 5.8.28.38 3.96 6.04 9.6 8.48 1.34.58 2.38 .92 3.2 1.18 1.34.44 2.56.38 3.54.22 1.08-.16 3.32-1.36 3.78-2.66.48-1.32.48-2.44.34-2.66-.16-.24-.54-.38-1.12-.66z" stroke="#25D366" stroke-width="1.5" fill="none"/>
</svg>