<svg width="48" height="48" viewBox="0 0 48 48" fill="none" xmlns="http://www.w3.org/2000/svg">
<g clip-path="url(#clip0_1209_6497)">
<path d="M32.625 15.6184H17.3204C16.3038 15.6184 15.3287 16.0223 14.6098 16.7412C13.891 17.4601 13.4871 18.4351 13.4871 19.4518V27.1663" stroke="black" stroke-width="2" stroke-linecap="round" stroke-linejoin="round"/>
<path d="M22.1121 34.166C22.1121 35.6762 22.4095 37.1716 22.9875 38.5669C23.5654 39.9621 24.4125 41.2299 25.4804 42.2977C26.5482 43.3656 27.816 44.2127 29.2112 44.7906C30.6065 45.3685 32.1019 45.666 33.6121 45.666C35.1223 45.666 36.6177 45.3685 38.0129 44.7906C39.4082 44.2127 40.6759 43.3656 41.7438 42.2977C42.8117 41.2299 43.6588 39.9621 44.2367 38.5669C44.8146 37.1716 45.1121 35.6762 45.1121 34.166C45.1121 31.116 43.9005 28.1909 41.7438 26.0343C39.5871 23.8776 36.6621 22.666 33.6121 22.666C30.5621 22.666 27.637 23.8776 25.4804 26.0343C23.3237 28.1909 22.1121 31.116 22.1121 34.166Z" stroke="black" stroke-width="2" stroke-linecap="round" stroke-linejoin="round"/>
<path d="M6.87075 41.2596C6.87075 41.7819 6.97362 42.299 7.17349 42.7815C7.37336 43.2641 7.6663 43.7025 8.03561 44.0718C8.40492 44.4411 8.84335 44.7341 9.32587 44.9339C9.80839 45.1338 10.3256 45.2367 10.8478 45.2367C11.3701 45.2367 11.8873 45.1338 12.3698 44.9339C12.8523 44.7341 13.2908 44.4411 13.6601 44.0718C14.0294 43.7025 14.3223 43.2641 14.5222 42.7815C14.722 42.299 14.8249 41.7819 14.8249 41.2596C14.8249 40.2048 14.4059 39.1932 13.6601 38.4474C12.9142 37.7015 11.9026 37.2825 10.8478 37.2825C9.79305 37.2825 8.78146 37.7015 8.03561 38.4474C7.28976 39.1932 6.87075 40.2048 6.87075 41.2596Z" stroke="black" stroke-width="2" stroke-linecap="round" stroke-linejoin="round"/>
<path d="M25.9243 34.166C25.9243 36.2049 26.7343 38.1603 28.176 39.6021C29.6178 41.0438 31.5732 41.8538 33.6121 41.8538C35.651 41.8538 37.6064 41.0438 39.0481 39.6021C40.4899 38.1603 41.2998 36.2049 41.2998 34.166C41.2998 32.1271 40.4899 30.1717 39.0481 28.7299C37.6064 27.2882 35.651 26.4783 33.6121 26.4783C31.5732 26.4783 29.6178 27.2882 28.176 28.7299C26.7343 30.1717 25.9243 32.1271 25.9243 34.166Z" stroke="black" stroke-width="2" stroke-linecap="round" stroke-linejoin="round"/>
<path d="M24.322 26.8022H14.9399C14.1121 27.0704 13.38 27.5733 12.8325 28.2497C12.285 28.9261 11.9458 29.7469 11.856 30.6125L10.545 37.2825" stroke="black" stroke-width="2" stroke-linecap="round" stroke-linejoin="round"/>
<path d="M6.87075 41.2902L3.77342 41.3018C3.26509 41.3018 2.77757 41.0998 2.41813 40.7404C2.05868 40.3809 1.85675 39.8934 1.85675 39.3851C1.85675 38.8768 2.05868 38.3892 2.41813 38.0298C2.77757 37.6704 3.26509 37.4684 3.77342 37.4684L8.94842 37.4492H9.763" stroke="black" stroke-width="2" stroke-linecap="round" stroke-linejoin="round"/>
<path d="M24.7782 26.8022H13.4871V22.2961H32.2129" stroke="black" stroke-width="2" stroke-linecap="round" stroke-linejoin="round"/>
<path d="M36.0233 22.7925L36.8091 9.88758C37.5259 4.85442 42.3559 6.12325 44.2649 6.12325C44.7651 6.12325 45.2448 5.92455 45.5985 5.57085C45.9522 5.21716 46.1509 4.73745 46.1509 4.23725C46.1509 3.73705 45.9522 3.25734 45.5985 2.90365C45.2448 2.54995 44.7651 2.35125 44.2649 2.35125C40.5504 2.35125 39.0899 2.21708 37.9917 2.70967C36.5891 3.23142 35.3699 4.15224 34.4844 5.35858C33.5989 6.56492 33.0858 8.00404 33.0083 9.4985L32.2072 22.5587" stroke="black" stroke-width="2" stroke-linecap="round" stroke-linejoin="round"/>
<path d="M33.6121 26.4783V41.8384" stroke="black" stroke-width="2" stroke-linecap="round" stroke-linejoin="round"/>
<path d="M26.9613 30.3173L40.2629 37.9974" stroke="black" stroke-width="2" stroke-linecap="round" stroke-linejoin="round"/>
<path d="M40.2629 30.3173L26.9613 37.9974" stroke="black" stroke-width="2" stroke-linecap="round" stroke-linejoin="round"/>
</g>
<defs>
<clipPath id="clip0_1209_6497">
<rect width="48" height="48" fill="white"/>
</clipPath>
</defs>
</svg>
