<svg width="48" height="48" viewBox="0 0 48 48" fill="none" xmlns="http://www.w3.org/2000/svg">
<path d="M12.5489 16.8408H32.1531L38.0012 34.7385" stroke="black" stroke-width="3"/>
<path d="M36.6315 31.1589H25.0388" stroke="black" stroke-width="3"/>
<path d="M3.37469 5.16475L10.8818 5.16477L14.1141 22.2319" stroke="black" stroke-width="3"/>
<path d="M5.16563 32.9906C5.16563 34.2833 5.42024 35.5634 5.91494 36.7577C6.40963 37.952 7.13472 39.0371 8.04879 39.9512C8.96287 40.8653 10.048 41.5904 11.2423 42.0851C12.4366 42.5798 13.7167 42.8344 15.0094 42.8344C16.3021 42.8344 17.5821 42.5798 18.7764 42.0851C19.9707 41.5904 21.0559 40.8653 21.97 39.9512C22.884 39.0371 23.6091 37.952 24.1038 36.7577C24.5985 35.5634 24.8531 34.2833 24.8531 32.9906C24.8531 31.6979 24.5985 30.4179 24.1038 29.2236C23.6091 28.0293 22.884 26.9441 21.97 26.03C21.0559 25.116 19.9707 24.3909 18.7764 23.8962C17.5821 23.4015 16.3021 23.1469 15.0094 23.1469C13.7167 23.1469 12.4366 23.4015 11.2423 23.8962C10.048 24.3909 8.96287 25.116 8.04879 26.03C7.13472 26.9441 6.40963 28.0293 5.91494 29.2236C5.42024 30.4179 5.16563 31.6979 5.16563 32.9906Z" stroke="black" stroke-width="3"/>
<path d="M35.5912 39.255C35.5912 40.2043 35.9684 41.1147 36.6396 41.786C37.3109 42.4573 38.2213 42.8344 39.1706 42.8344C40.1199 42.8344 41.0304 42.4573 41.7016 41.786C42.3729 41.1147 42.75 40.2043 42.75 39.255C42.75 38.3057 42.3729 37.3953 41.7016 36.724C41.0304 36.0527 40.1199 35.6756 39.1706 35.6756C38.2213 35.6756 37.3109 36.0527 36.6396 36.724C35.9684 37.3953 35.5912 38.3057 35.5912 39.255Z" stroke="black" stroke-width="3"/>
</svg>
