<svg width="48" height="48" viewBox="0 0 48 48" fill="none" xmlns="http://www.w3.org/2000/svg">
<path fill-rule="evenodd" clip-rule="evenodd" d="M27 33C27 26.373 21.627 21 15 21C8.373 21 3 26.373 3 33C3 39.627 8.373 45 15 45C21.627 45 27 39.627 27 33ZM21 33C21 31.4087 20.3679 29.8826 19.2426 28.7574C18.1174 27.6321 16.5913 27 15 27C13.4087 27 11.8826 27.6321 10.7574 28.7574C9.63214 29.8826 9 31.4087 9 33C9 34.5913 9.63214 36.1174 10.7574 37.2426C11.8826 38.3679 13.4087 39 15 39C16.5913 39 18.1174 38.3679 19.2426 37.2426C20.3679 36.1174 21 34.5913 21 33Z" stroke="black" stroke-width="3" stroke-linecap="round" stroke-linejoin="round"/>
<path d="M39.5 34C40.9587 34 42.3576 34.5795 43.3891 35.6109C44.4205 36.6424 45 38.0413 45 39.5C45 40.9587 44.4205 42.3576 43.3891 43.3891C42.3576 44.4205 40.9587 45 39.5 45C38.0413 45 36.6424 44.4205 35.6109 43.3891C34.5795 42.3576 34 40.9587 34 39.5C34 38.0413 34.5795 36.6424 35.6109 35.6109C36.6424 34.5795 38.0413 34 39.5 34Z" stroke="black" stroke-width="3" stroke-linecap="round" stroke-linejoin="round"/>
<path d="M40.727 34.138L38.651 19.948C38.3844 18.1265 37.4978 16.4526 36.1406 15.2087C34.7834 13.9649 33.0388 13.2272 31.201 13.12L15.671 12.214L15.204 6.665C15.12 5.66564 14.6637 4.73429 13.9254 4.0555C13.1872 3.3767 12.2209 2.99999 11.218 3H4.731C4.273 3 3.801 3.104 3.537 3.48C3.272 3.856 3 4.497 3 5.54C3 6.692 3.333 7.354 3.62 7.711C3.852 7.998 4.223 8.096 4.59 8.129L8.901 8.514C9.13249 8.53466 9.34955 8.6353 9.51489 8.79863C9.68023 8.96196 9.78352 9.17778 9.807 9.409L11.049 21.666M34.954 36.403C32.56 36.524 29.617 36.633 26.432 36.66M24.748 26H33.978L32.793 20.727C32.6494 20.0866 32.2997 19.5109 31.7976 19.0882C31.2954 18.6656 30.6686 18.4192 30.013 18.387L16.131 17.704L16.415 21.083" stroke="black" stroke-width="3" stroke-linecap="round" stroke-linejoin="round"/>
</svg>
